<svg id="Capa_1" data-name="Capa 1"
    xmlns="http://www.w3.org/2000/svg"
    xmlns:xlink="http://www.w3.org/1999/xlink" viewBox="0 0 268.73 221.1">
    <defs>
        <style>.cls-1,.cls-14,.cls-18,.cls-19,.cls-24,.cls-26,.cls-31,.cls-34,.cls-36,.cls-9{fill:none;}.cls-10,.cls-2,.cls-21,.cls-28,.cls-29,.cls-32,.cls-35,.cls-5,.cls-8{fill:#f10101;}.cls-12,.cls-20,.cls-22,.cls-23,.cls-27,.cls-3,.cls-30,.cls-4,.cls-6{fill:#fff;}.cls-3{opacity:0.8;}.cls-22,.cls-27,.cls-3,.cls-30,.cls-4,.cls-8{isolation:isolate;}.cls-30,.cls-4{opacity:0.6;}.cls-10,.cls-12,.cls-14,.cls-18,.cls-20,.cls-21,.cls-22,.cls-23,.cls-26,.cls-28,.cls-29,.cls-30,.cls-31,.cls-32,.cls-34,.cls-35,.cls-5,.cls-9{stroke:#263238;}.cls-10,.cls-20,.cls-24,.cls-26,.cls-28,.cls-32,.cls-34,.cls-35,.cls-36,.cls-5,.cls-9{stroke-miterlimit:10;}.cls-5{stroke-width:0.6px;}.cls-7{clip-path:url(#clip-path);}.cls-27,.cls-8{opacity:0.4;}.cls-9{stroke-width:0.45px;}.cls-10{stroke-width:0.45px;}.cls-11{fill:#263238;}.cls-12,.cls-14,.cls-18,.cls-19,.cls-21,.cls-22,.cls-23,.cls-29,.cls-30,.cls-31{stroke-linecap:round;stroke-linejoin:round;}.cls-12,.cls-14,.cls-20,.cls-21{stroke-width:0.32px;}.cls-13{clip-path:url(#clip-path-2);}.cls-15{clip-path:url(#clip-path-3);}.cls-16{clip-path:url(#clip-path-4);}.cls-17{clip-path:url(#clip-path-5);}.cls-18{stroke-width:0.32px;}.cls-19,.cls-24,.cls-36{stroke:#fff;}.cls-19,.cls-24{stroke-width:0.23px;}.cls-22,.cls-23,.cls-26,.cls-29,.cls-30,.cls-31{stroke-width:0.34px;}.cls-22{opacity:0.5;}.cls-25{clip-path:url(#clip-path-6);}.cls-28{stroke-width:0.46px;}.cls-32{stroke-width:0.57px;}.cls-33{clip-path:url(#clip-path-7);}.cls-34{stroke-width:0.42px;}.cls-35{stroke-width:0.42px;}.cls-36{stroke-width:0.48px;}</style>
        <clipPath id="clip-path">
            <rect class="cls-1" x="31.18" y="71.37" width="198.86" height="112.38"/>
        </clipPath>
        <clipPath id="clip-path-2">
            <path class="cls-1" d="M24.59,147.49a15.71,15.71,0,0,1-1.72,4.1c-1.3,2.15-1.84,3.66-5.82,3.77s-6,3.36-7.74,13-2.69,20.36.22,27.15,11.5,6.13,17.1,4.09,6.9-8.4,7-15.29.11-17.78-1-23.28-4.2-6.67-5.61-7.1.44-3,.44-3Z"/>
        </clipPath>
        <clipPath id="clip-path-3">
            <path class="cls-1" d="M28.31,154.45a7.91,7.91,0,0,0-1.25-.49c-1.39-.43.44-3,.44-3l-2.91-3.45a15.71,15.71,0,0,1-1.72,4.1c-1.1,1.83-1.66,3.19-4.25,3.62a12,12,0,0,1,1.77,3.91c.65,2.8,2,7.33,4.63,6.25S29.35,158.45,28.31,154.45Z"/>
        </clipPath>
        <clipPath id="clip-path-4">
            <path class="cls-1" d="M18.62,155.21a16.23,16.23,0,0,1-3.62,0,7.93,7.93,0,0,0-6,2.16c-1.73,1.72-3.26,7.32-3.91,8.73s-.86,2-.86,2l8,3.45,3.34-9.48"/>
        </clipPath>
        <clipPath id="clip-path-5">
            <ellipse class="cls-1" cx="29.27" cy="143.17" rx="9.43" ry="5.41" transform="translate(-116.71 136.6) rotate(-75.87)"/>
        </clipPath>
        <clipPath id="clip-path-6">
            <rect class="cls-1" x="69.04" y="127" width="45.5" height="73.62"/>
        </clipPath>
        <clipPath id="clip-path-7">
            <rect class="cls-1" x="116.82" y="141.67" width="122.8" height="66.31"/>
        </clipPath>
    </defs>
    <g id="freepik--background-simple--inject-1--inject-156">
        <path class="cls-2" d="M242.23,17.53c-28.19-27-68.34-19.62-90.4.83-16.12,15-41.51,36.67-61.17,35.73-19.49-1-41.78-14.46-66-4.05C.77,60.3-5.75,94.22,5.05,120.16s50.4,47.18,98.26,66.92a140.1,140.1,0,0,0,55.55,10.85s43.33-.45,59.61-10.87c12.75-8.17,18.21-13.54,32-34.34,10.41-15.75,17.39-37.89,18.17-59.34C269.61,67.17,263.29,37.75,242.23,17.53Z"/>
        <path class="cls-3" d="M242.23,17.53c-28.19-27-68.34-19.62-90.4.83-16.12,15-41.51,36.67-61.17,35.73-19.49-1-41.78-14.46-66-4.05C.77,60.3-5.75,94.22,5.05,120.16s50.4,47.18,98.26,66.92a140.1,140.1,0,0,0,55.55,10.85s43.33-.45,59.61-10.87c12.75-8.17,18.21-13.54,32-34.34,10.41-15.75,17.39-37.89,18.17-59.34C269.61,67.17,263.29,37.75,242.23,17.53Z"/>
    </g>
    <g id="freepik--Shadow--inject-1--inject-156">
        <ellipse class="cls-2" cx="128.67" cy="213.85" rx="121.79" ry="7.24"/>
        <ellipse class="cls-4" cx="128.67" cy="213.85" rx="121.79" ry="7.24"/>
    </g>
    <g id="freepik--Laptop--inject-1--inject-156">
        <path class="cls-5" d="M29.2,60.39H232a6.8,6.8,0,0,1,6.8,6.81V200.86H22.4V67.2A6.81,6.81,0,0,1,29.2,60.39Z"/>
        <rect class="cls-6" x="31.18" y="71.37" width="198.86" height="112.38"/>
        <g class="cls-7">
            <polygon class="cls-8" points="230.03 183.75 230.03 87.82 65.54 183.75 230.03 183.75"/>
        </g>
        <rect class="cls-9" x="31.18" y="71.37" width="198.86" height="112.38"/>
        <rect class="cls-10" x="56.73" y="194.1" width="148.73" height="7.33"/>
        <rect class="cls-10" x="56.73" y="197.64" width="148.73" height="3.8"/>
        <path class="cls-5" d="M4.89,205.78s2.45,3,9.76,5.43H247.53s5.43-1.36,7.88-5.17Z"/>
        <rect class="cls-5" x="4.4" y="200.43" width="251.54" height="5.71" rx="1.76"/>
        <circle class="cls-11" cx="130.56" cy="64.64" r="1.9"/>
        <path class="cls-10" d="M105.45,62.74H58a.94.94,0,0,1-1-1h0a1,1,0,0,1,1-.95h47.5a1,1,0,0,1,1,.95h0a.94.94,0,0,1-1,1Z"/>
        <path class="cls-10" d="M202.35,62.74H154.84a1,1,0,0,1-1-1h0a1,1,0,0,1,1-.95h47.51a1,1,0,0,1,1,.95h0A1,1,0,0,1,202.35,62.74Z"/>
        <path class="cls-10" d="M237,99.93h0a.54.54,0,0,1-.54-.54V83.64a.54.54,0,0,1,.54-.54h0a.54.54,0,0,1,.54.54V99.39A.54.54,0,0,1,237,99.93Z"/>
        <path class="cls-10" d="M24.44,99.93h0a.54.54,0,0,1-.54-.54h0V83.64a.54.54,0,0,1,.54-.54h0a.54.54,0,0,1,.54.54V99.39A.54.54,0,0,1,24.44,99.93Z"/>
    </g>
    <g id="freepik--plants-1--inject-1--inject-156">
        <path class="cls-11" d="M173.18,104.05a4.29,4.29,0,0,0,1.95-3,2.05,2.05,0,0,0-2-2.14H173c-1.72.15-3.25,2.86-3.61,4.36,0,.14-.26,2.22-.23,2.22A15.52,15.52,0,0,0,173.18,104.05Z"/>
        <path class="cls-11" d="M158.28,136.68a1.66,1.66,0,0,0-1.93-1.35l-.2,0c-1.3.45-2,2.89-2,4.15,0,.08.12,1,.19,1.51-.15-.37-.29-.75-.44-1.14-.21-.56-.42-1.16-.65-1.75l-.29-.93c-.11-.31-.17-.65-.26-.94-.11-.46-.21-.95-.31-1.44a10.55,10.55,0,0,0,3-1.35,3.56,3.56,0,0,0,1.36-2.61,1.66,1.66,0,0,0-1.72-1.6h-.19c-1.38.25-2.45,2.56-2.6,3.81v.65c-.08-.49-.16-1-.23-1.45-.19-1.38-.34-2.79-.5-4.2,0-.3-.07-.59-.1-.89a11.17,11.17,0,0,0,3.07-1.38,3.54,3.54,0,0,0,1.36-2.61,1.67,1.67,0,0,0-1.74-1.6l-.17,0c-1.38.24-2.45,2.55-2.6,3.8v.71c-.1-.76-.2-1.53-.33-2.28a29.69,29.69,0,0,0-.89-3.84,11.55,11.55,0,0,0,3.17-1.41,3.53,3.53,0,0,0,1.35-2.6,1.67,1.67,0,0,0-1.73-1.61l-.18,0c-1.38.25-2.45,2.55-2.6,3.8,0,.09,0,1.24,0,1.65a0,0,0,0,1,0,0,21.83,21.83,0,0,0-1.55-3.54,27.51,27.51,0,0,0-1.8-2.94c-.61-.89-1.21-1.66-1.76-2.33-.29-.37-.57-.7-.83-1h0s-.47-1.63-.52-1.74c-.5-1.15-2.15-3.08-3.55-2.94a1.66,1.66,0,0,0-1.44,1.86l0,.18a3.47,3.47,0,0,0,2,2.13A11,11,0,0,0,144,110c.26.32.54.65.84,1,.53.69,1.12,1.47,1.7,2.36.16.24.31.5.47.75-.35-.36-.84-.86-.9-.9-1-.8-3.33-1.75-4.5-1a1.67,1.67,0,0,0-.42,2.33l.1.14a3.52,3.52,0,0,0,2.72,1,11.06,11.06,0,0,0,3.25-1.11c.35.56.65,1.14,1,1.78a21.5,21.5,0,0,1,1.44,3.52.36.36,0,0,0,0,.22c-.14-.21-1-1.3-1.08-1.38-.88-.9-3.11-2.11-4.37-1.47a1.65,1.65,0,0,0-.67,2.25.83.83,0,0,0,.09.16,3.5,3.5,0,0,0,2.64,1.26,11.73,11.73,0,0,0,3.41-.77,29.4,29.4,0,0,1,.78,3.73c.13.93.24,1.87.33,2.83-.19-.27-1-1.3-1.07-1.37-.88-.9-3.11-2.1-4.37-1.47a1.68,1.68,0,0,0-.68,2.26l.1.16a3.45,3.45,0,0,0,2.64,1.26,12,12,0,0,0,3.39-.76l.12,1.3c.13,1.42.25,2.84.41,4.24.06.48.13,1,.2,1.43-.3-.4-.86-1.11-.92-1.17-.88-.89-3.11-2.1-4.37-1.46a1.65,1.65,0,0,0-.68,2.24l.1.17a3.47,3.47,0,0,0,2.64,1.26,11,11,0,0,0,3.26-.72c.12.79.26,1.57.43,2.33.09.33.15.65.25,1s.18.65.27.94c.21.65.39,1.21.6,1.8l.32.85c-.25-.45-.66-1.15-.69-1.21-.74-1-2.76-2.55-4.1-2.12a1.67,1.67,0,0,0-1,2.13.87.87,0,0,0,.07.17,3.51,3.51,0,0,0,2.42,1.66,12.36,12.36,0,0,0,3.44-.25c.26.7.52,1.38.77,2,.8,2,1.54,3.62,2.07,4.75s.87,1.77.87,1.77h0a.47.47,0,0,0,.65.19.49.49,0,0,0,.19-.65s-.33-.61-.88-1.72-1.31-2.7-2.15-4.65c-.24-.57-.49-1.17-.74-1.79a11.45,11.45,0,0,0,2.91-1.87A3.42,3.42,0,0,0,158.28,136.68Z"/>
        <path class="cls-11" d="M147.27,114.39a12.31,12.31,0,0,0,2.71-2.22,3.61,3.61,0,0,0,.65-2.87,1.67,1.67,0,0,0-2.09-1.08l-.17.06c-1.3.6-1.69,3.11-1.53,4.36C146.84,112.74,147.27,114.4,147.27,114.39Z"/>
        <path class="cls-11" d="M179.3,104.05a14.45,14.45,0,0,0,4.07,1.41s-.2-2.08-.23-2.22c-.34-1.5-1.89-4.21-3.61-4.36a2.06,2.06,0,0,0-2.17,1.93V101A4.4,4.4,0,0,0,179.3,104.05Z"/>
        <path class="cls-11" d="M191.67,132.91c-1.73.07-3.41,2.7-3.83,4.19,0,.08-.18,1.06-.27,1.69v-1.12c0-.76,0-1.52-.07-2.34,0-.39-.06-.78-.09-1.19s-.09-.82-.14-1.23c-.12-.95-.29-1.91-.48-2.88a13.37,13.37,0,0,0,4.08-.55,4.28,4.28,0,0,0,2.5-2.61,2,2,0,0,0-1.46-2.48l-.23,0c-1.72-.2-3.78,2.14-4.42,3.56,0,.08-.38,1.14-.56,1.73-.12-.58-.24-1.16-.38-1.74-.41-1.68-.87-3.37-1.33-5-.14-.51-.27-1-.41-1.55a13.11,13.11,0,0,0,4.22-.56,4.19,4.19,0,0,0,2.51-2.6,2,2,0,0,0-1.47-2.49l-.22,0c-1.72-.2-3.78,2.14-4.42,3.55,0,.1-.54,1.63-.65,2-.3-1.14-.58-2.27-.82-3.4a38.09,38.09,0,0,1-.67-4.62,13.91,13.91,0,0,0,4.25-.56,4.25,4.25,0,0,0,2.51-2.6,2,2,0,0,0-1.48-2.49l-.21,0c-1.72-.2-3.78,2.15-4.42,3.55-.05.11-.58,1.76-.65,2.06v-.28a27,27,0,0,1,.16-4.67c.1-.86.23-1.68.39-2.47a13.61,13.61,0,0,0,4.18-.1,4.25,4.25,0,0,0,2.78-2.3,2,2,0,0,0-1.2-2.63l-.2-.07c-1.69-.38-4,1.72-4.79,3l-.65,1.43c.08-.36.15-.73.22-1.07.3-1.3.66-2.42,1-3.44.19-.57.36-1.09.53-1.57a13.66,13.66,0,0,0,3.65-2,4.27,4.27,0,0,0,1.41-3.32,2,2,0,0,0-2.27-1.79l-.22,0c-1.68.44-2.75,3.37-2.84,4.91,0,.13.12,2.23.14,2.22h0c-.16.46-.35,1-.54,1.5-.33,1-.7,2.16-1,3.43a36.91,36.91,0,0,0-.84,4.16,27.8,27.8,0,0,0-.26,4.74v.06c-.17-.48-.69-1.8-.74-1.89-.73-1.37-2.94-3.57-4.64-3.26a1.91,1.91,0,0,0-1,.53,1.91,1.91,0,0,0-1-.53c-1.7-.3-3.91,1.9-4.64,3.26-.05.09-.58,1.41-.74,1.89v-.06a26.82,26.82,0,0,0-.27-4.74,39.24,39.24,0,0,0-.83-4.16c-.32-1.3-.69-2.42-1-3.43q-.28-.81-.54-1.5h0s.15-2.09.14-2.22c-.08-1.54-1.16-4.47-2.83-4.91a2.06,2.06,0,0,0-2.46,1.53,1.7,1.7,0,0,0,0,.22A4.29,4.29,0,0,0,163.49,97a14.23,14.23,0,0,0,3.65,2c.17.48.34,1,.53,1.57.32,1,.65,2.17,1,3.44.07.34.15.71.22,1.07-.25-.58-.6-1.36-.65-1.43-.78-1.3-3.09-3.43-4.77-3a2,2,0,0,0-1.48,2.49,1.72,1.72,0,0,0,.07.21,4.21,4.21,0,0,0,2.77,2.3,15.45,15.45,0,0,0,4.19.1c.15.79.29,1.61.39,2.47a26,26,0,0,1,.16,4.67.86.86,0,0,1,0,.28c-.07-.3-.61-2-.65-2.06-.65-1.4-2.7-3.75-4.42-3.55a2,2,0,0,0-1.74,2.31,1.74,1.74,0,0,0,0,.22,4.34,4.34,0,0,0,2.5,2.6,14.31,14.31,0,0,0,4.25.56,38,38,0,0,1-.68,4.63c-.24,1.13-.53,2.26-.83,3.4-.1-.39-.6-2-.65-2-.65-1.4-2.7-3.75-4.42-3.55a2,2,0,0,0-1.73,2.31,1.7,1.7,0,0,0,0,.22,4.35,4.35,0,0,0,2.51,2.6,14.06,14.06,0,0,0,4.22.56c-.14.52-.27,1-.41,1.55-.46,1.69-.92,3.37-1.3,5.05-.14.58-.26,1.16-.39,1.74-.17-.59-.52-1.65-.56-1.73-.65-1.41-2.7-3.76-4.41-3.55a2,2,0,0,0-1.74,2.31c0,.07,0,.14,0,.22a4.38,4.38,0,0,0,2.51,2.6,12.4,12.4,0,0,0,4.08.55c-.2,1-.36,2-.49,2.89,0,.41-.12.83-.13,1.23s-.06.8-.09,1.19c0,.81-.06,1.57-.06,2.33v1.12c-.1-.65-.26-1.61-.28-1.69-.42-1.49-2.1-4.11-3.83-4.18a2.05,2.05,0,0,0-2.07,2c0,.07,0,.14,0,.21a4.32,4.32,0,0,0,2.09,2.94A15.38,15.38,0,0,0,165,139.3v2.63c.07,2.64.23,4.82.36,6.36s.24,2.41.24,2.41h0a.61.61,0,0,0,1.2-.18s-.12-.85-.28-2.37-.37-3.67-.5-6.28c0-.74-.06-1.55-.08-2.37a13.74,13.74,0,0,0,4.13-.91,4.14,4.14,0,0,0,2.28-2.79,2.06,2.06,0,0,0-1.69-2.36l-.21,0c-1.74,0-3.58,2.47-4.1,3.9,0,.1-.3,1.24-.41,1.83v-3.79c0-.39,0-.79.06-1.19s.07-.8.11-1.19c.06-.59.15-1.19.25-1.8a12.87,12.87,0,0,0,4-.29,4.3,4.3,0,0,0,2.67-2.42,2,2,0,0,0-1.3-2.57l-.22-.06c-1.7-.31-3.91,1.89-4.64,3.25l-.29.71c.11-.58.22-1.17.35-1.75.36-1.68.79-3.37,1.22-5.07l.25-1.06a13.93,13.93,0,0,0,4.13-.28,4.3,4.3,0,0,0,2.68-2.42,2.06,2.06,0,0,0-1.33-2.58l-.2,0c-1.7-.32-3.91,1.89-4.64,3.25,0,0-.17.41-.34.82.22-.92.42-1.85.6-2.77a35.37,35.37,0,0,0,.6-4.8,14.75,14.75,0,0,0,4.25-.29,5.22,5.22,0,0,0,2.15-1.46,5.22,5.22,0,0,0,2.15,1.46,14.06,14.06,0,0,0,4.25.29,38.86,38.86,0,0,0,.6,4.8c.18.92.38,1.85.59,2.77-.16-.41-.3-.77-.33-.82-.73-1.36-2.93-3.57-4.64-3.25a2,2,0,0,0-1.58,2.41l.06.22a4.31,4.31,0,0,0,2.67,2.42,13.92,13.92,0,0,0,4.13.28c.08.36.17.71.26,1.06.42,1.7.85,3.39,1.22,5.07.13.58.23,1.17.34,1.75-.14-.36-.27-.65-.29-.71-.73-1.36-2.94-3.56-4.64-3.25a2,2,0,0,0-1.58,2.42.83.83,0,0,0,.06.21,4.26,4.26,0,0,0,2.66,2.42,12.5,12.5,0,0,0,4,.29c.09.61.18,1.21.24,1.8,0,.39.1.78.11,1.19s0,.8.06,1.19v3.79c-.12-.59-.39-1.73-.42-1.83-.52-1.45-2.36-4-4.09-3.9a2,2,0,0,0-1.93,2.16,1.64,1.64,0,0,0,0,.22,4.38,4.38,0,0,0,2.28,2.79,14.45,14.45,0,0,0,4.14.91c0,.82,0,1.63-.09,2.37-.12,2.61-.32,4.77-.49,6.28s-.29,2.37-.29,2.37a.61.61,0,0,0,1.2.18h0s.11-.88.25-2.41.29-3.72.35-6.36c0-.83,0-1.72,0-2.63a14.05,14.05,0,0,0,4.07-1.19,4.14,4.14,0,0,0,2.08-2.94,2,2,0,0,0-1.83-2.25Z"/>
    </g>
    <g id="freepik--Character--inject-1--inject-156">
        <path class="cls-12" d="M36.12,166a32.57,32.57,0,0,0,.86,6.79,37.48,37.48,0,0,0,2,4.74,16.55,16.55,0,0,1-4.1,1.62c-1.29.11-3-5.72-3-9.7S33.32,164.3,36.12,166Z"/>
        <path class="cls-12" d="M28.31,154.45s4.56-.17,6.3,1.12,2.37,7,2.91,9.27l.54,2.26a25.54,25.54,0,0,1-3.91,1.19,12.75,12.75,0,0,0-1.51.21s-1.37-7.83-3-10.12A28.8,28.8,0,0,0,27,155S26.23,154.16,28.31,154.45Z"/>
        <path class="cls-6" d="M24.59,147.49a15.71,15.71,0,0,1-1.72,4.1c-1.3,2.15-1.84,3.66-5.82,3.77s-6,3.36-7.74,13-2.69,20.36.22,27.15,11.5,6.13,17.1,4.09,6.9-8.4,7-15.29.11-17.78-1-23.28-4.2-6.67-5.61-7.1.44-3,.44-3Z"/>
        <g class="cls-13">
            <path class="cls-8" d="M13.22,168.63a5.06,5.06,0,0,0,.73,4.63c1.69,2,5.86,1.05,5.05,2s-4.42,2.11-5.05,3.05a1.48,1.48,0,0,0-.1,1.68s-3.32.6-3.56,0,2-8.4,2-8.4Z"/>
            <path class="cls-8" d="M14.23,182.94s-2.31,2.53-2.2,3.26,2.2-.95,1.78.1-2.21,2.74-2.73,3.58a14.34,14.34,0,0,1-2.61,2.33l-.74-5.69-.14-1Z"/>
        </g>
        <path class="cls-14" d="M24.59,147.49a15.71,15.71,0,0,1-1.72,4.1c-1.3,2.15-1.84,3.66-5.82,3.77s-6,3.36-7.74,13-2.69,20.36.22,27.15,11.5,6.13,17.1,4.09,6.9-8.4,7-15.29.11-17.78-1-23.28-4.2-6.67-5.61-7.1.44-3,.44-3Z"/>
        <path class="cls-6" d="M28.31,154.45a7.91,7.91,0,0,0-1.25-.49c-1.39-.43.44-3,.44-3l-2.91-3.45a15.71,15.71,0,0,1-1.72,4.1c-1.1,1.83-1.66,3.19-4.25,3.62a12,12,0,0,1,1.77,3.91c.65,2.8,2,7.33,4.63,6.25S29.35,158.45,28.31,154.45Z"/>
        <g class="cls-15">
            <path class="cls-8" d="M21.6,155.16a7.06,7.06,0,0,1-2.25,1.07l-.65-1.11s2.68.33,5.37-5.86h0a9,9,0,0,0,2.42,3l-3.21.41"/>
        </g>
        <path class="cls-14" d="M28.31,154.45a7.91,7.91,0,0,0-1.25-.49c-1.39-.43.44-3,.44-3l-2.91-3.45a15.71,15.71,0,0,1-1.72,4.1c-1.1,1.83-1.66,3.19-4.25,3.62a12,12,0,0,1,1.77,3.91c.65,2.8,2,7.33,4.63,6.25S29.35,158.45,28.31,154.45Z"/>
        <line class="cls-14" x1="13.48" y1="167.63" x2="16.58" y2="164.88"/>
        <path class="cls-14" d="M17.05,155.36s.91,1.25,1.6,4.87,2.75,6.89,4.82,7.57a3.74,3.74,0,0,0,3.1,0"/>
        <path class="cls-12" d="M6.81,167.32s-1.61,14.31-1.72,16.8S6,186,7.57,185.53s10.88-4.56,13-5.29,2.48-1,4.21-.75a43.48,43.48,0,0,0,4.55.43c1.08,0-.11-2.48-1.72-2.91s-1.51-.32-3.34.11-4.74,1.72-7.87,2.37-5.82.86-6.14.54,2-9.7,2-9.7Z"/>
        <path class="cls-6" d="M18.62,155.21a16.23,16.23,0,0,1-3.62,0,7.93,7.93,0,0,0-6,2.16c-1.73,1.72-3.26,7.32-3.91,8.73s-.86,2-.86,2l8,3.45,3.34-9.48"/>
        <g class="cls-16">
            <path class="cls-8" d="M18.53,155.14a39.06,39.06,0,0,1-4.72.23,6.47,6.47,0,0,0-4.94,2.42c-1.48,1.69-4.5,10.33-4.5,10.33l1.85.79s2-9.43,4.33-10.9a12.05,12.05,0,0,1,6.73-1.69c.65,0,1.38,0,1.85-.09Z"/>
        </g>
        <path class="cls-14" d="M18.62,155.21a16.23,16.23,0,0,1-3.62,0,7.93,7.93,0,0,0-6,2.16c-1.73,1.72-3.26,7.32-3.91,8.73s-.86,2-.86,2l8,3.45,3.34-9.48"/>
        <path class="cls-14" d="M8.49,191.25s3.25-2.93,5.51-3.09"/>
        <path class="cls-14" d="M14.34,186.75a40.94,40.94,0,0,0-4.65,2.41"/>
        <ellipse class="cls-6" cx="29.27" cy="143.17" rx="9.43" ry="5.41" transform="translate(-116.71 136.6) rotate(-75.87)"/>
        <g class="cls-17">
            <path class="cls-8" d="M26.41,152.12a6,6,0,0,1-.5-3.59c.53-1.68,3.37-3.57,3.37-3.57s-1.3.32-2.61.52l-3.1.49.45,3.15A5.17,5.17,0,0,0,26.41,152.12Z"/>
        </g>
        <ellipse class="cls-18" cx="29.27" cy="143.17" rx="9.43" ry="5.41" transform="translate(-116.71 136.6) rotate(-75.87)"/>
        <path class="cls-8" d="M24.06,149.4c-.5,1-2,4-3.62,5a5.24,5.24,0,0,1-1.45.65"/>
        <path class="cls-8" d="M26.65,165.37s.42,6,0,7.47-2.1,1.37-1.26,2.21a18.35,18.35,0,0,0,2.94,2l1.47,1.47.34-2.23s-1.06.31-2.11-3.37A44,44,0,0,1,26.65,165.37Z"/>
        <path class="cls-14" d="M31.66,145.79a3.86,3.86,0,0,0-.65,1.66V148a.48.48,0,0,1-.44.52H30.5l-.77-.06"/>
        <path class="cls-14" d="M28.35,150a1.42,1.42,0,0,1-1.56-1.17"/>
        <path class="cls-14" d="M29.52,145.6l-.39.78a1.15,1.15,0,0,1-1.37-.3"/>
        <path class="cls-14" d="M32.63,146.77l-.58.78s-.78,0-.78-.59"/>
        <path class="cls-11" d="M35.71,139.84c1.3-3.83-1.86-7.81-6.6-7.72s-8,4.71-9.61,7.88a23.5,23.5,0,0,0-3.75,4.94c-1.95,3.34-1.95,5.28-3.44,7.43s-5.93,2.27-8.52,5.07-2.6,6-1.4,8.19,2,5,.43,6.89A9.27,9.27,0,0,0,1,181.47a5,5,0,0,0,4.16,3.8,4.2,4.2,0,0,1-.06-1.12c.08-2,1.07-10.94,1.51-14.91l-2.37-1a20.24,20.24,0,0,1,.86-2c.64-1.4,2.15-7,3.9-8.73a7.93,7.93,0,0,1,6-2.16,16.76,16.76,0,0,0,3.61,0,4.5,4.5,0,0,0,3.45-2.39h0l.17-.28v0l.57-1a16.55,16.55,0,0,0,1.2-2.47A10.89,10.89,0,0,1,23.5,146c2.13-.07,8-.59,11-4.08a5.72,5.72,0,0,0,.48-.65,15.44,15.44,0,0,1-.46,3.25A13.25,13.25,0,0,1,30.92,151l-.32.27-.19.15-.29.2-.21.14-.28.16-.22.12-.28.12-.22.08-.28.09-.23.05a3,3,0,0,1-1.47,0l-.19-.06a1.93,1.93,0,0,0-.19,1.27A.65.65,0,0,0,27,154h0a9,9,0,0,1,1.21.48,55.44,55.44,0,0,1-1.3,7.8,19.51,19.51,0,0,0,1.4,12c1.29,3.12,5.28,5.06,6.68,3.25s1-3.76.11-8.08S32,158.85,32,154.1s2.8-6.25,4.21-9A5.63,5.63,0,0,0,35.71,139.84Z"/>
        <path class="cls-19" d="M34.4,138.39s-5,4.36-9.76,4.82-5.29.47-5.29.47"/>
        <path class="cls-19" d="M33.31,135.13s-4.51,5.13-8.24,6.37a19.55,19.55,0,0,1-5.28,1.25"/>
        <path class="cls-19" d="M30.67,133.26s-1.24,3.91-4.2,5.76"/>
        <path class="cls-19" d="M22.12,147.87s-.16,5-3,5.76-5.9-.78-9.48,1.08a7.81,7.81,0,0,0-4,7.91"/>
        <path class="cls-19" d="M4.55,183.63a8.93,8.93,0,0,1-1.24-7.46,27.52,27.52,0,0,1,2.18-5.75"/>
        <path class="cls-19" d="M32.09,156s.77,5.9-1.87,9.63-.93,8.87-.93,8.87"/>
        <path class="cls-19" d="M32.22,150.52s.16,1.71-2,6.06-2.8,5.75-2.95,8.86"/>
        <path class="cls-20" d="M47.15,200s3.49-.34,5.51.56,2.48,2.36,2.93,1,.45-2.14-1.23-3-2.37-.34-3-1a5.21,5.21,0,0,0-1.13-.9s-1.8-.22-1.92.79-1.79,1.35-1.79,1.35Z"/>
        <path class="cls-11" d="M61.76,173.57c-1.19-2.7-6.13-.85-11.85,3.76-7.42,6-13.18,7.37-16.27,7.61v-.1c-1.62-.75-3.91-.78-6.63-.34l-.25-.38c-5.21-8.08-6.57-9.47-8.3-8.08s-3.66,3.56-3,10.24a10.23,10.23,0,0,0,.3,1.56,42.28,42.28,0,0,0-7.27,4.38,19.4,19.4,0,0,0,1,3.32c2.9,6.77,11.47,6.15,17.08,4.11A16.34,16.34,0,0,0,32,201.47c4.43.55,7.43.39,9.19-.28l3,2.43a46.68,46.68,0,0,0,11.72-13,66.39,66.39,0,0,0,3.94-7.81C61.72,178.6,62.35,174.92,61.76,173.57Z"/>
        <path class="cls-21" d="M26.75,184.09a26.61,26.61,0,0,0,2,2.8L49,183.26l-6.37-5.11-18,2.65Z"/>
        <path class="cls-22" d="M26.75,184.09a26.61,26.61,0,0,0,2,2.8L49,183.26l-6.37-5.11-18,2.65Z"/>
        <path class="cls-21" d="M31.25,172.14,28.1,186.05c.22.29.45.58.65.86L49,183.26l4-14.57Z"/>
        <path class="cls-6" d="M41.56,180.23a2.07,2.07,0,1,1,1.41-2.6A2.11,2.11,0,0,1,41.56,180.23Z"/>
        <path class="cls-22" d="M31.25,172.14,28.1,186.05c.22.29.45.58.65.86L49,183.26l4-14.57Z"/>
        <path class="cls-23" d="M41.56,180.23a2.07,2.07,0,1,1,1.41-2.6A2.11,2.11,0,0,1,41.56,180.23Z"/>
        <path class="cls-20" d="M40.55,200.06s-2.79,2.07-4.36,2.93-2.07.56-3.57,2a35.11,35.11,0,0,0-3.13,3c-.36.58-.79,1.14-1-.14a3.81,3.81,0,0,1,1.43-3.5c1-.72,2.36-1,2.36-2a1.59,1.59,0,0,1,1.43-1.71c.78,0,1.3.78,2.78,0a6.89,6.89,0,0,0,2.43-2.57Z"/>
        <path class="cls-24" d="M15.91,188.55s3.08,7.36,10.17,10.71"/>
        <path class="cls-24" d="M39.84,194.58s4.4-2.21,10.86-13.36"/>
        <path class="cls-24" d="M28,186.27s4.66,6.84,10.1,9.17"/>
    </g>
    <g id="freepik--Mobile--inject-1--inject-156">
        <rect class="cls-11" x="66.82" y="116.64" width="49.94" height="94.33" rx="4.99"/>
        <rect class="cls-6" x="69.04" y="127" width="45.5" height="73.62"/>
        <g class="cls-25">
            <polygon class="cls-8" points="114.54 175.88 72.12 200.62 114.54 200.62 114.54 175.88"/>
        </g>
        <rect class="cls-26" x="69.04" y="127" width="45.5" height="73.62"/>
        <path class="cls-2" d="M96.73,121.85H86.84a.65.65,0,0,1-.65-.65h0a.65.65,0,0,1,.65-.65h9.89a.65.65,0,0,1,.65.65h0A.65.65,0,0,1,96.73,121.85Z"/>
        <path class="cls-27" d="M96.73,121.85H86.84a.65.65,0,0,1-.65-.65h0a.65.65,0,0,1,.65-.65h9.89a.65.65,0,0,1,.65.65h0A.65.65,0,0,1,96.73,121.85Z"/>
        <path class="cls-28" d="M94.49,204.78a2.7,2.7,0,1,0-2.7,2.7h0A2.7,2.7,0,0,0,94.49,204.78Z"/>
        <rect class="cls-29" x="90.42" y="203.41" width="2.73" height="2.73"/>
        <rect class="cls-30" x="90.42" y="203.41" width="2.73" height="2.73"/>
        <rect class="cls-31" x="90.42" y="203.41" width="2.73" height="2.73"/>
    </g>
    <g id="freepik--Tablet--inject-1--inject-156">
        <rect class="cls-32" x="109.5" y="138.44" width="137.46" height="72.77" rx="7.28"/>
        <rect class="cls-6" x="116.82" y="141.67" width="122.8" height="66.31"/>
        <g class="cls-33">
            <polygon class="cls-8" points="239.63 154.98 148.76 207.97 239.63 207.97 239.63 154.98"/>
        </g>
        <rect class="cls-34" x="116.82" y="141.67" width="122.8" height="66.31"/>
        <path class="cls-11" d="M242.93,175.82a1,1,0,1,1,1-1h0A1,1,0,0,1,242.93,175.82Z"/>
        <rect class="cls-35" x="224.9" y="138.44" width="4.87" height="0.66" rx="0.24"/>
        <path class="cls-35" d="M209.63,139.1H218a.34.34,0,0,0,.34-.33h0a.33.33,0,0,0-.33-.33h-8.42a.33.33,0,0,0-.33.33h0a.33.33,0,0,0,.33.34Z"/>
    </g>
    <g id="freepik--plants-2--inject-1--inject-156">
        <path class="cls-2" d="M232.75,213.05c0,1-5.81,1.76-13,1.76s-13-.78-13-1.76,5.8-1.76,13-1.76S232.75,212.08,232.75,213.05Z"/>
        <path class="cls-11" d="M208.63,187c0,14.81,11.71,26.81,11.71,26.81s11.71-12,11.71-26.81-11.71-26.81-11.71-26.81S208.63,172.16,208.63,187Z"/>
        <line class="cls-36" x1="220.36" y1="213.78" x2="220.36" y2="160.16"/>
        <line class="cls-36" x1="220.36" y1="179.22" x2="213.79" y2="173.49"/>
        <line class="cls-36" x1="220.46" y1="188.08" x2="228.59" y2="176.3"/>
        <line class="cls-36" x1="220.36" y1="193.19" x2="210.66" y2="184.54"/>
        <line class="cls-36" x1="220.46" y1="200.07" x2="230.05" y2="191.52"/>
        <line class="cls-36" x1="220.46" y1="206.01" x2="212.95" y2="200.07"/>
        <path class="cls-11" d="M200.5,206.22c5.7,6.43,15.4,7.12,15.4,7.12s.48-9.72-5.21-16.15-15.4-7.11-15.4-7.11S194.78,199.82,200.5,206.22Z"/>
        <line class="cls-36" x1="215.9" y1="213.37" x2="195.27" y2="190.1"/>
        <line class="cls-36" x1="202.61" y1="198.37" x2="197.55" y2="198.41"/>
        <line class="cls-36" x1="206.06" y1="202.18" x2="205.05" y2="193.94"/>
        <line class="cls-36" x1="207.98" y1="204.43" x2="200.45" y2="204.41"/>
        <line class="cls-36" x1="210.67" y1="207.38" x2="211.55" y2="199.98"/>
        <line class="cls-36" x1="212.96" y1="209.96" x2="207.41" y2="210.27"/>
        <path class="cls-11" d="M230.39,197c-6,6.16-5.95,15.89-5.95,15.89s9.73-.25,15.71-6.42,5.95-15.87,5.95-15.87S236.37,190.84,230.39,197Z"/>
        <line class="cls-36" x1="224.44" y1="212.89" x2="246.1" y2="190.58"/>
        <line class="cls-36" x1="238.4" y1="198.51" x2="237.99" y2="193.47"/>
        <line class="cls-36" x1="234.86" y1="202.24" x2="243" y2="200.62"/>
        <line class="cls-36" x1="232.76" y1="204.32" x2="232.22" y2="196.8"/>
        <line class="cls-36" x1="230.02" y1="207.23" x2="237.47" y2="207.54"/>
        <line class="cls-36" x1="227.62" y1="209.7" x2="226.9" y2="204.2"/>
    </g>
</svg>