<svg id="Capa_1" data-name="Capa 1" xmlns="http://www.w3.org/2000/svg" viewBox="0 0 22.36 18.43"><defs><style>.cls-1{fill:#2a2a2a;}</style></defs><path class="cls-1" d="M22.48,4.43,19.43.07H3.11l-3,4.36a.5.5,0,0,0,.12.69A.51.51,0,0,0,.91,5L3.64,1.07h3.2L5.46,4.76a.49.49,0,0,0,.29.64l.18,0a.48.48,0,0,0,.46-.32L7.84,1.25a.57.57,0,0,0,0-.18h2.87v4a.5.5,0,1,0,1,0v-4h2.8l1.58,4.18a.51.51,0,0,0,.47.32l.18,0a.5.5,0,0,0,.29-.64L15.61,1.07h3.31L21.67,5a.48.48,0,0,0,.41.21.51.51,0,0,0,.28-.09A.49.49,0,0,0,22.48,4.43Z"/><path class="cls-1" d="M21.86,5.65a.5.5,0,0,0-.5.5v.29a.58.58,0,0,1-.58.58H17.63a.58.58,0,0,1-.41-.17.61.61,0,0,1-.17-.41V6.15a.5.5,0,0,0-.5-.5.5.5,0,0,0-.5.5v.29a.57.57,0,0,1-.57.58H12.32a.56.56,0,0,1-.4-.17.52.52,0,0,1-.16-.36V6.15a.5.5,0,0,0-.5-.5h0a.5.5,0,0,0-.5.5V6.5a.58.58,0,0,1-.57.52H7a.58.58,0,0,1-.41-.17.57.57,0,0,1-.17-.41V6.15a.5.5,0,0,0-.5-.5.5.5,0,0,0-.5.5v.29a.6.6,0,0,1-.16.41A.58.58,0,0,1,4.88,7H1.72a.56.56,0,0,1-.4-.17.57.57,0,0,1-.17-.41V6.15a.5.5,0,0,0-.5-.5.5.5,0,0,0-.5.5v.29A1.57,1.57,0,0,0,1.72,8H2a.5.5,0,0,0-.42.49v8.66a1.26,1.26,0,0,0,1.26,1.26h16.8a1.25,1.25,0,0,0,1.26-1.26V8.51A.5.5,0,0,0,20.47,8h.32a1.58,1.58,0,0,0,1.57-1.58V6.15A.5.5,0,0,0,21.86,5.65Zm-2,2.86v8.66a.26.26,0,0,1-.26.26H2.83a.26.26,0,0,1-.26-.26V8.51A.5.5,0,0,0,2.15,8H4.88A1.53,1.53,0,0,0,6,7.59,1.56,1.56,0,0,0,7,8h3.16a1.55,1.55,0,0,0,1.06-.42A1.59,1.59,0,0,0,12.32,8h3.16a1.56,1.56,0,0,0,1.07-.43A1.57,1.57,0,0,0,17.63,8h2.68A.5.5,0,0,0,19.89,8.51Z"/></svg>