<svg xmlns="http://www.w3.org/2000/svg" xmlns:xlink="http://www.w3.org/1999/xlink" width="33.248" height="29.459" viewBox="0 0 33.248 29.459"><defs><style>.a{fill:url(#a);}.b{fill:#379fd9;}.c{fill:#48ade3;}.d{fill:#5dbaea;}.e{fill:#fff;}.f{fill:#1d7bc0;}</style><radialGradient id="a" cx="0.167" cy="0.173" r="1.188" gradientTransform="translate(-0.002)" gradientUnits="objectBoundingBox"><stop offset="0" stop-color="#81cdf3"/><stop offset="0.072" stop-color="#7bc9f0"/><stop offset="0.168" stop-color="#6abfeb"/><stop offset="0.277" stop-color="#4eaee1"/><stop offset="0.371" stop-color="#319cd7"/><stop offset="0.498" stop-color="#2c87c7"/><stop offset="0.656" stop-color="#2874b9"/><stop offset="0.82" stop-color="#2569b1"/><stop offset="1" stop-color="#2566af"/></radialGradient></defs><g transform="translate(3.863 0)"><path class="a" d="M865.34,307.887H836.123V337.2H865.34V327.53a1.158,1.158,0,0,0,.167-.649,1.026,1.026,0,0,0-.167-.643Z" transform="translate(-836.123 -307.887)"/><g transform="translate(0.008 10.734)"><path class="b" d="M847.619,315.69a.608.608,0,0,0-.168,1.2,1.045,1.045,0,0,1,.131.63v.673h-.83l-.008-.429a1.022,1.022,0,0,0-.125-.668c-.119-.126-.3-.145-.605-.145h-.877V318.2h-.816v-3.43h1.89a1.989,1.989,0,0,1,1,.161A.809.809,0,0,1,847.619,315.69Z" transform="translate(-831.538 -314.766)"/><path class="c" d="M844.934,318.2H842.2v-3.43h2.737v.715h-1.913v.615h1.873v.708h-1.873v.681h1.913Z" transform="translate(-832.728 -314.766)"/><path class="d" d="M844.982,318.2h-.839l0-2.684L842.95,318.2h-.723l-1.195-2.694V318.2h-1.66l-.326-.759h-1.7l-.323.759h-.892l1.467-3.43h1.227l1.394,3.248v-3.248h1.348l1.066,2.33.985-2.33h1.366Z" transform="translate(-836.128 -314.766)"/><path class="e" d="M846.245,315.92a.765.765,0,0,1-.4.072h-1v-.768h1.013a.879.879,0,0,1,.388.059.312.312,0,0,1,.17.3A.371.371,0,0,1,846.245,315.92Z" transform="translate(-831.245 -314.509)"/><path class="e" d="M838.215,316.507l-.565-1.368-.559,1.368Z" transform="translate(-835.589 -314.557)"/></g><g transform="translate(0 10.05)"><path class="e" d="M849.578,316.507h1.131l-.564-1.368Z" transform="translate(-828.584 -313.874)"/><path class="e" d="M861.7,314.328v.566l-.325-.566h-2.331v.566l-.3-.566h-3.167a2.91,2.91,0,0,0-1.368.278v-.278h-2.178v.278a1.34,1.34,0,0,0-.922-.278h-7.975l-.54,1.233-.549-1.233h-2.5v.566l-.279-.566h-2.146l-.991,2.273v2.52h1.4l.328-.763h.7l.315.763h2.762v-.587l.248.587H843.3l.25-.6v.6h6.861v-1.253h.128c.1,0,.126.011.126.162v1.091h3.543v-.29a2.925,2.925,0,0,0,1.315.29h1.492l.323-.763h.713l.315.763h2.877V318.4l.429.726h2.308v-4.793Zm-16.713,4.113h-.838l0-2.684-1.189,2.684h-.723l-1.2-2.693v2.693h-1.66l-.324-.758h-1.7l-.323.758h-.892l1.467-3.43h1.228l1.393,3.249v-3.249h1.348l1.067,2.33.985-2.33h1.365Zm3.353-2.715h-1.913v.616H848.3v.707h-1.873v.682h1.913v.71H845.6v-3.43h2.737Zm3.708,1.412a1.045,1.045,0,0,1,.131.63v.673h-.83l-.008-.429a1.022,1.022,0,0,0-.125-.668c-.119-.126-.3-.145-.605-.145h-.877v1.242h-.816v-3.43h1.89a1.988,1.988,0,0,1,1,.161.81.81,0,0,1,.414.763.608.608,0,0,0-.168,1.2Zm1.481,1.3h-.84v-3.43h.84Zm9.719,0h-1.167l-1.556-2.576v2.576h-1.671l-.315-.763h-1.713l-.31.763h-.955a1.719,1.719,0,0,1-1.192-.374,1.751,1.751,0,0,1-.437-1.317,1.822,1.822,0,0,1,.437-1.34,1.676,1.676,0,0,1,1.247-.4h.793v.73h-.776a.788.788,0,0,0-.63.2,1.149,1.149,0,0,0-.236.783,1.217,1.217,0,0,0,.22.8.853.853,0,0,0,.585.18h.362l1.155-2.7h1.237l1.384,3.249v-3.249h1.253L862.4,317.4v-2.386h.843Z" transform="translate(-836.123 -314.328)"/><path class="e" d="M849.96,319.929c0,.956-.719,1.155-1.442,1.155h-1.024v1.148H845.9l-1.006-1.138-1.053,1.138h-3.252V318.8h3.3l1,1.128,1.049-1.128h2.621C849.217,318.8,849.96,318.977,849.96,319.929Zm-6.528,1.587h-2.021v-.677h1.794v-.7h-1.794v-.623h2.049l.9,1Zm3.242.4-1.248-1.4,1.248-1.354Zm1.888-1.538h-1.067v-.869h1.073c.3,0,.5.117.5.417S848.873,320.382,848.562,320.382ZM854.1,318.8h2.732v.716h-1.924v.623H856.8v.7h-1.886v.677l1.924.006v.71H854.1Zm-1.044,1.844a.829.829,0,0,1,.4.29.986.986,0,0,1,.131.621v.68h-.818V321.8a1.02,1.02,0,0,0-.136-.671c-.12-.125-.295-.156-.6-.156h-.877v1.256h-.825V318.8h1.894a1.985,1.985,0,0,1,.984.162.8.8,0,0,1,.429.768A.987.987,0,0,1,853.059,320.641Zm-.49-.428a.837.837,0,0,1-.4.062h-1v-.763h1a.872.872,0,0,1,.4.056.332.332,0,0,1,.161.306A.389.389,0,0,1,852.569,320.213Zm7.4.206a.97.97,0,0,1,.248.73c0,.741-.463,1.083-1.292,1.083h-1.593v-.738h1.588a.47.47,0,0,0,.335-.083.269.269,0,0,0,.1-.218.281.281,0,0,0-.1-.236.4.4,0,0,0-.29-.072c-.763-.028-1.726.017-1.726-1.063A1.018,1.018,0,0,1,858.4,318.8h1.643v.737h-1.493a.58.58,0,0,0-.339.059.264.264,0,0,0-.111.245.256.256,0,0,0,.173.254.82.82,0,0,0,.315.044l.445.006A1.385,1.385,0,0,1,859.973,320.419Zm3.283,1.379a1.306,1.306,0,0,1-1.12.434h-1.589v-.738h1.589a.437.437,0,0,0,.325-.083.289.289,0,0,0,.1-.218.309.309,0,0,0-.1-.236.424.424,0,0,0-.292-.072c-.772-.028-1.73.017-1.73-1.063,0-.5.318-1.027,1.18-1.027h1.638v-.68h-1.525a1.711,1.711,0,0,0-1.03.281v-.281h-2.245a1.562,1.562,0,0,0-.983.281v-.281h-4.015v.281a2.172,2.172,0,0,0-1.1-.281h-2.649v.281a1.877,1.877,0,0,0-1.159-.281h-2.96l-.679.737-.635-.737h-4.431v4.795h4.35l.69-.746.658.746,2.682.006V321.78h.267a2.73,2.73,0,0,0,1.141-.165v1.3h2.206v-1.254h.114c.131,0,.148.008.148.142v1.112h6.706a1.922,1.922,0,0,0,1.116-.3v.3h2.125a2.987,2.987,0,0,0,1.209-.218Zm0-2.266h-1.512a.534.534,0,0,0-.322.059.259.259,0,0,0-.122.245.253.253,0,0,0,.18.254.838.838,0,0,0,.315.044l.448.006a1.371,1.371,0,0,1,.933.278c.033.028.05.061.08.087Z" transform="translate(-834.039 -312.205)"/></g></g><g transform="translate(0 26.691)"><path class="f" d="M835.641,327.011h-.254a1.2,1.2,0,0,1-.039-.34c0-.094-.017-.184-.194-.184h-.371v.524h-.226v-1.3h.6c.206,0,.438.073.438.365a.319.319,0,0,1-.151.293c.072.033.122.08.129.237l0,.217c0,.07.009.078.066.117Zm-.281-.914c0-.167-.108-.176-.186-.176h-.392v.359h.354C835.26,326.279,835.36,326.247,835.36,326.1Zm1.067.284a1.39,1.39,0,1,0-1.389,1.381A1.383,1.383,0,0,0,836.428,326.38Zm-.212,0a1.178,1.178,0,1,1-1.177-1.186A1.157,1.157,0,0,1,836.215,326.38Z" transform="translate(-833.647 -324.993)"/></g></svg>