<svg id="Capa_1" data-name="Capa 1" xmlns="http://www.w3.org/2000/svg" xmlns:xlink="http://www.w3.org/1999/xlink" viewBox="0 0 227 227"><defs><style>.cls-1{fill:none;}.cls-2{clip-path:url(#clip-path);}.cls-3{fill:#74acdf;}.cls-4{fill:#fff;}.cls-5{fill:#fcbf49;}.cls-6{fill:#843511;}</style><clipPath id="clip-path"><circle class="cls-1" cx="113.49" cy="113.5" r="113.49"/></clipPath></defs><g class="cls-2"><rect class="cls-3" x="-20.13" y="-2.98" width="274.61" height="78.77"/><rect class="cls-4" x="-20.13" y="75.26" width="274.61" height="78.77"/><rect class="cls-3" x="-20.13" y="153.5" width="274.61" height="78.77"/></g><path class="cls-5" d="M114.63,96.4a18.83,18.83,0,0,1,3.54.72c1-4.74-.17-8.9,2.13-13.29,2.82-5.39,1.06-9.82,1.25-12.29s2.21-3.16,1.7-3.73-2.62.56-3.45,3.85,1.14,5.17-2.24,11.78C114.69,89,116.19,92,114.63,96.4Z"/><path class="cls-6" d="M118.22,97.2l-.07,0a20.26,20.26,0,0,0-3.53-.71h-.08l0-.08a17.87,17.87,0,0,0,.88-5,18.57,18.57,0,0,1,2-8c2.23-4.35,2.13-6.63,2-8.65a10.44,10.44,0,0,1,.19-3.12c.69-2.75,2.28-4,3.14-4a.57.57,0,0,1,.42.16c.25.28,0,.58-.37,1a4.56,4.56,0,0,0-1.32,2.8,14.35,14.35,0,0,0,.14,2.4c.28,2.52.67,6-1.4,9.92-1.41,2.69-1.5,5.27-1.6,8a29.77,29.77,0,0,1-.52,5.28Zm-3.5-.85a19.71,19.71,0,0,1,3.4.69,29.65,29.65,0,0,0,.5-5.19c.1-2.75.2-5.34,1.62-8A15.7,15.7,0,0,0,121.62,74a12.64,12.64,0,0,1-.14-2.42,4.65,4.65,0,0,1,1.35-2.87c.37-.42.53-.62.37-.81a.41.41,0,0,0-.32-.12c-.71,0-2.32,1.16-3,3.94a9.84,9.84,0,0,0-.19,3.08c.09,2,.19,4.33-2,8.71a18.31,18.31,0,0,0-2,7.94A18.64,18.64,0,0,1,114.72,96.35Z"/><path class="cls-5" d="M112.45,96.28c.58,0,1.15,0,1.71.08l-1.1-29.13s0-.92-.61-.92-.61.92-.61.92l-1.1,29.13C111.3,96.31,111.87,96.28,112.45,96.28Z"/><path class="cls-6" d="M114.22,96.43h-.07c-.62,0-1.17-.08-1.7-.08s-1.09,0-1.71.08h-.07v-.07l1.1-29.13c0-.34.14-1,.68-1s.68.65.68,1Zm-1.77-30.06c-.54,0-.55.85-.55.86l-1.09,29.06c.59-.05,1.13-.07,1.64-.07s1,0,1.64.07L113,67.23S113,66.37,112.45,66.37Z"/><path class="cls-6" d="M112.45,96.28l.5,0-.5-17-.5,17Z"/><path class="cls-6" d="M116.9,96.78c1.13-5-.05-9.8,2.55-14.4-3,3.38-1.79,8.71-3.61,14.19C116.19,96.63,116.55,96.7,116.9,96.78Z"/><path class="cls-5" d="M122.07,98.79a20.08,20.08,0,0,1,3,2c2.75-4,3.25-8.29,7.06-11.46,4.67-3.89,4.74-8.67,5.86-10.88s3.25-2.07,3-2.8-2.64-.48-4.66,2.23-.93,5.22-6.58,10C125,92,125.19,95.34,122.07,98.79Z"/><path class="cls-6" d="M125.08,100.9l0,0a20,20,0,0,0-3-2l-.07,0,0-.06a17.88,17.88,0,0,0,2.73-4.28,18.59,18.59,0,0,1,5-6.6c3.72-3.16,4.51-5.31,5.2-7.21a10.27,10.27,0,0,1,1.37-2.81c1.69-2.28,3.66-2.85,4.45-2.53a.57.57,0,0,1,.32.31c.12.36-.23.53-.72.77A4.53,4.53,0,0,0,138,78.48a13.78,13.78,0,0,0-.78,2.27,15.86,15.86,0,0,1-5.09,8.63c-2.33,1.94-3.41,4.29-4.55,6.77a30.44,30.44,0,0,1-2.5,4.68Zm-2.91-2.13a19.89,19.89,0,0,1,2.88,1.94,28.91,28.91,0,0,0,2.45-4.6c1.15-2.5,2.23-4.86,4.58-6.82,3.4-2.83,4.35-6.15,5-8.57a14,14,0,0,1,.79-2.29,4.57,4.57,0,0,1,2.35-2.13c.5-.24.73-.37.65-.61a.39.39,0,0,0-.25-.23c-.65-.27-2.58.18-4.3,2.48A10.17,10.17,0,0,0,135,80.71c-.7,1.91-1.49,4.07-5.23,7.26a18.4,18.4,0,0,0-4.92,6.56A18,18,0,0,1,122.17,98.77Z"/><path class="cls-5" d="M120.1,97.84c.53.22,1.05.47,1.55.73L131.8,71.25s.35-.85-.21-1.09-.92.62-.92.62L118.5,97.26C119,97.43,119.57,97.62,120.1,97.84Z"/><path class="cls-6" d="M121.68,98.65l-.06,0c-.55-.28-1.05-.52-1.55-.72s-1-.39-1.6-.58l-.07,0,0-.07L130.6,70.75c.13-.31.51-.85,1-.65s.38.86.25,1.17Zm9.88-28.44c-.5-.21-.83.57-.84.58L118.58,97.21c.56.18,1.07.37,1.55.56s1,.43,1.49.7l10.12-27.26S132.06,70.42,131.56,70.21Z"/><path class="cls-6" d="M120.1,97.83l.46.21,6.07-15.94-7,15.55C119.79,97.72,119.94,97.77,120.1,97.83Z"/><path class="cls-6" d="M124,100c3-4.22,3.71-9.07,7.87-12.32-4,2-5,7.36-8.77,11.72Q123.57,99.7,124,100Z"/><path class="cls-5" d="M128,103.84a19.59,19.59,0,0,1,2,3c4.07-2.62,6.18-6.41,10.91-7.88,5.81-1.81,7.7-6.19,9.58-7.8s3.8-.67,3.84-1.43-2.25-1.46-5.16.28-2.85,4.46-9.92,6.73C133.29,98.67,132.23,101.85,128,103.84Z"/><path class="cls-6" d="M130,106.94l0-.06a19.51,19.51,0,0,0-2-3l0-.06.07,0a17.94,17.94,0,0,0,4.16-2.9,18.64,18.64,0,0,1,7.1-4.2c4.65-1.5,6.2-3.18,7.56-4.66A10,10,0,0,1,149.16,90c2.44-1.46,4.47-1.23,5.08-.63a.53.53,0,0,1,.18.41c0,.38-.41.4-1,.44a4.57,4.57,0,0,0-2.91,1A13.63,13.63,0,0,0,149,93a15.86,15.86,0,0,1-8,6c-2.9.9-4.79,2.66-6.79,4.51a29.55,29.55,0,0,1-4.1,3.36Zm-1.87-3.08a20.71,20.71,0,0,1,1.92,2.89,29.77,29.77,0,0,0,4-3.31c2-1.87,3.92-3.63,6.84-4.54a15.71,15.71,0,0,0,8-6,13.93,13.93,0,0,1,1.61-1.81,4.61,4.61,0,0,1,3-1.07c.55,0,.82-.06.83-.32a.39.39,0,0,0-.14-.31c-.5-.5-2.46-.82-4.92.65a10,10,0,0,0-2.32,2c-1.37,1.5-2.93,3.19-7.62,4.7a18.38,18.38,0,0,0-7.06,4.17A17.58,17.58,0,0,1,128.13,103.86Z"/><path class="cls-5" d="M126.57,102.21a17.12,17.12,0,0,1,1.15,1.27l19.84-21.35s.65-.65.22-1.09-1.09.22-1.09.22l-21.39,19.8A17.12,17.12,0,0,1,126.57,102.21Z"/><path class="cls-6" d="M127.72,103.57l0-.06c-.4-.47-.77-.89-1.15-1.26s-.79-.75-1.26-1.15l-.06,0,0,0,21.39-19.8c.24-.24.8-.59,1.18-.21s0,.94-.22,1.18Zm20-22.49c-.38-.38-1,.21-1,.22L125.4,101.05c.45.38.85.75,1.21,1.11s.73.76,1.11,1.21l19.8-21.3S148.12,81.47,147.74,81.08Z"/><path class="cls-6" d="M126.57,102.2c.12.12.23.24.34.37l11.71-12.39L126.2,101.87Z"/><path class="cls-6" d="M129.36,105.71c4.36-2.76,6.9-7,12-8.37-4.48.29-7.43,4.88-12.59,7.46C129,105.11,129.17,105.41,129.36,105.71Z"/><path class="cls-5" d="M131.59,110.79a19.94,19.94,0,0,1,.69,3.54c4.76-.86,8.16-3.55,13.1-3.1,6.06.56,9.48-2.77,11.84-3.53s3.76.84,4.1.15-1.52-2.21-4.87-1.72-4.35,3-11.74,2.42C138.43,108,136.24,110.56,131.59,110.79Z"/><path class="cls-6" d="M132.23,114.41v-.07a20.19,20.19,0,0,0-.68-3.53l0-.08h.08a18.22,18.22,0,0,0,5-1.09,18.58,18.58,0,0,1,8.17-1.16c4.87.4,6.94-.56,8.77-1.41a10.33,10.33,0,0,1,3-1c2.81-.41,4.6.57,4.93,1.37a.55.55,0,0,1,0,.45c-.17.34-.54.21-1.05,0a4.52,4.52,0,0,0-3.09-.15,13.48,13.48,0,0,0-2.16,1,15.87,15.87,0,0,1-9.71,2.49c-3-.28-5.44.62-8,1.57a29.27,29.27,0,0,1-5.08,1.53Zm-.55-3.56a19.75,19.75,0,0,1,.66,3.41,29.66,29.66,0,0,0,5-1.51c2.58-1,5-1.85,8.06-1.57a15.78,15.78,0,0,0,9.63-2.47,14.67,14.67,0,0,1,2.18-1.06,4.69,4.69,0,0,1,3.17.15c.52.18.78.26.89,0a.41.41,0,0,0,0-.34c-.27-.65-1.95-1.7-4.79-1.29a9.87,9.87,0,0,0-2.92,1c-1.84.86-3.93,1.83-8.84,1.42a18.55,18.55,0,0,0-8.12,1.15A18.07,18.07,0,0,1,131.68,110.85Z"/><path class="cls-5" d="M130.87,108.72c.22.53.41,1.07.58,1.61L158,98.21s.85-.35.62-.92-1.09-.22-1.09-.22l-27.35,10.09C130.41,107.68,130.65,108.19,130.87,108.72Z"/><path class="cls-6" d="M131.41,110.42l0-.07c-.19-.59-.38-1.11-.58-1.61s-.44-1-.72-1.55l0-.06.07,0L157.48,97c.31-.13,1-.24,1.17.25s-.34.87-.65,1Zm27.11-13.1c-.21-.5-1-.19-1-.18L130.24,107.2c.27.53.5,1,.69,1.49s.38,1,.56,1.55l26.44-12.08S158.73,97.83,158.52,97.32Z"/><path class="cls-6" d="M130.88,108.72l.18.47,15.57-7-15.95,6C130.74,108.42,130.81,108.57,130.88,108.72Z"/><path class="cls-6" d="M132.1,113c5.09-.88,9-3.78,14.28-3.13-4.25-1.45-8.73,1.66-14.49,2.07C132,112.32,132,112.68,132.1,113Z"/><path class="cls-5" d="M132.23,118.58a20.56,20.56,0,0,1-.72,3.54c4.73,1,8.9-.15,13.29,2.16,5.38,2.83,9.82,1.08,12.29,1.27s3.15,2.22,3.73,1.71-.56-2.63-3.84-3.46-5.18,1.13-11.77-2.27C139.6,118.65,136.6,120.14,132.23,118.58Z"/><path class="cls-6" d="M131.42,122.16l0-.07a19.22,19.22,0,0,0,.72-3.53v-.08l.08,0a17.77,17.77,0,0,0,5,.89,18.6,18.6,0,0,1,8,2.06c4.34,2.24,6.63,2.14,8.64,2.06a10.44,10.44,0,0,1,3.12.2c2.75.7,4,2.29,4,3.15a.54.54,0,0,1-.17.42c-.28.25-.58,0-1-.37a4.53,4.53,0,0,0-2.79-1.32,14.35,14.35,0,0,0-2.4.14,15.83,15.83,0,0,1-9.92-1.42c-2.68-1.41-5.26-1.51-8-1.62a29.9,29.9,0,0,1-5.28-.53Zm.86-3.49a19.73,19.73,0,0,1-.7,3.4,29.6,29.6,0,0,0,5.19.51c2.75.11,5.34.21,8,1.64,3.91,2.06,7.34,1.68,9.85,1.41a14.52,14.52,0,0,1,2.42-.14,4.6,4.6,0,0,1,2.87,1.36c.42.37.62.54.81.37a.41.41,0,0,0,.12-.32c0-.71-1.15-2.32-3.93-3a10.16,10.16,0,0,0-3.08-.2c-2,.08-4.33.18-8.71-2.07a18.49,18.49,0,0,0-7.94-2A19,19,0,0,1,132.28,118.67Z"/><path class="cls-5" d="M132.35,116.39c0,.58,0,1.15-.08,1.71l29.13-1s.92,0,.92-.61-.92-.62-.92-.62l-29.12-1.16C132.32,115.25,132.35,115.82,132.35,116.39Z"/><path class="cls-6" d="M132.2,118.17v-.07c0-.61.08-1.17.08-1.7s0-1.09-.07-1.71v-.07h.07l29.12,1.16c.34,0,1,.14,1,.68s-.65.68-1,.68Zm30.06-1.71c0-.54-.85-.55-.86-.55l-29.05-1.16c.05.59.07,1.13.07,1.64s0,1-.08,1.64l29.06-1S162.26,117,162.26,116.46Z"/><path class="cls-6" d="M132.35,116.39c0,.17,0,.33,0,.5l17-.46-17-.54C132.34,116.06,132.35,116.22,132.35,116.39Z"/><path class="cls-6" d="M131.84,120.84c5,1.14,9.8,0,14.39,2.58-3.37-3-8.7-1.81-14.18-3.64C132,120.14,131.92,120.49,131.84,120.84Z"/><path class="cls-5" d="M129.82,126a20.08,20.08,0,0,1-2,3c4,2.76,8.28,3.27,11.45,7.09,3.88,4.68,8.66,4.76,10.87,5.89s2.06,3.26,2.79,3,.49-2.64-2.22-4.66-5.21-.94-10-6.6C136.61,128.9,133.27,129.13,129.82,126Z"/><path class="cls-6" d="M127.71,129l0-.05a20,20,0,0,0,2-3l0-.07.06,0a17.89,17.89,0,0,0,4.27,2.74,18.54,18.54,0,0,1,6.59,5c3.16,3.73,5.3,4.52,7.19,5.21a10.26,10.26,0,0,1,2.8,1.38c2.28,1.7,2.85,3.66,2.52,4.46a.57.57,0,0,1-.31.32c-.36.12-.53-.23-.77-.72a4.46,4.46,0,0,0-2.07-2.29,13.71,13.71,0,0,0-2.27-.79,15.86,15.86,0,0,1-8.62-5.11c-1.94-2.33-4.28-3.42-6.76-4.56a30.43,30.43,0,0,1-4.67-2.51Zm2.13-2.91a19.33,19.33,0,0,1-2,2.87,30.21,30.21,0,0,0,4.59,2.46c2.5,1.15,4.85,2.24,6.81,4.6a15.72,15.72,0,0,0,8.56,5.07,13.06,13.06,0,0,1,2.29.8,4.65,4.65,0,0,1,2.13,2.35c.24.5.37.73.61.65a.39.39,0,0,0,.23-.25c.27-.65-.17-2.58-2.47-4.3a10,10,0,0,0-2.77-1.36c-1.91-.7-4.07-1.49-7.25-5.25a18.3,18.3,0,0,0-6.55-4.93A18,18,0,0,1,129.84,126.11Z"/><path class="cls-5" d="M130.78,124c-.22.53-.47,1-.73,1.55l27.3,10.21s.85.36,1.09-.21-.61-.92-.61-.92l-26.46-12.23C131.19,123,131,123.51,130.78,124Z"/><path class="cls-6" d="M130,125.62l0-.06c.29-.55.52-1,.73-1.54s.4-1,.59-1.6l0-.07.07,0,26.46,12.23c.31.13.85.51.65,1s-.86.38-1.17.25Zm28.42,9.94c.21-.5-.57-.84-.58-.84l-26.39-12.2c-.18.56-.37,1.07-.57,1.54s-.43,1-.7,1.49l27.23,10.18S158.17,136.06,158.38,135.56Z"/><path class="cls-6" d="M130.78,124c-.06.15-.14.3-.21.46l15.92,6.1-15.54-7A3.75,3.75,0,0,1,130.78,124Z"/><path class="cls-6" d="M128.6,128c4.22,3,9.06,3.73,12.31,7.9-2-4-7.34-5-11.7-8.8Z"/><path class="cls-5" d="M124.76,132a21.46,21.46,0,0,1-3,2c2.62,4.08,6.39,6.19,7.86,10.93,1.79,5.81,6.17,7.71,7.78,9.6s.66,3.8,1.42,3.85,1.46-2.25-.26-5.16-4.46-2.86-6.71-9.93C129.91,137.23,126.74,136.16,124.76,132Z"/><path class="cls-6" d="M121.65,133.92l.06,0a19.46,19.46,0,0,0,3-2l.06,0,0,.07a18.52,18.52,0,0,0,2.89,4.17,18.48,18.48,0,0,1,4.18,7.11c1.48,4.66,3.17,6.2,4.65,7.57a10.29,10.29,0,0,1,2.06,2.35c1.45,2.44,1.23,4.47.62,5.08a.56.56,0,0,1-.41.18c-.38,0-.4-.41-.43-1a4.46,4.46,0,0,0-1-2.91,14.38,14.38,0,0,0-1.79-1.6c-2-1.59-4.69-3.76-6-8-.9-2.9-2.65-4.8-4.5-6.8a30.21,30.21,0,0,1-3.35-4.11Zm3.08-1.86a19.89,19.89,0,0,1-2.9,1.91,30.6,30.6,0,0,0,3.3,4c1.86,2,3.62,3.93,4.53,6.85a15.72,15.72,0,0,0,6,8,13.93,13.93,0,0,1,1.81,1.61,4.68,4.68,0,0,1,1.07,3c0,.55.06.82.31.84a.39.39,0,0,0,.31-.14c.5-.5.83-2.45-.64-4.92a10,10,0,0,0-2-2.32c-1.49-1.38-3.19-2.94-4.68-7.63a18.51,18.51,0,0,0-4.16-7.07A18.43,18.43,0,0,1,124.73,132.06Z"/><path class="cls-5" d="M126.39,130.5a17.12,17.12,0,0,1-1.27,1.15l21.31,19.89s.65.65,1.09.22-.21-1.09-.21-1.09l-19.75-21.44C127.19,129.67,126.8,130.1,126.39,130.5Z"/><path class="cls-6" d="M125,131.65l.06-.05c.47-.4.89-.77,1.26-1.15s.76-.79,1.15-1.26l0-.06,0,.05,19.75,21.44c.24.24.59.8.21,1.18s-.94,0-1.18-.22Zm22.44,20.07c.39-.38-.21-1-.21-1l-19.7-21.38c-.38.45-.75.85-1.12,1.21s-.76.73-1.22,1.11l21.25,19.84S147.09,152.1,147.47,151.72Z"/><path class="cls-6" d="M126.4,130.51l-.37.34,12.37,11.74-11.66-12.45C126.62,130.26,126.51,130.39,126.4,130.51Z"/><path class="cls-6" d="M122.88,133.28c2.75,4.37,6.94,6.92,8.34,12-.28-4.48-4.87-7.44-7.44-12.61C123.49,132.89,123.18,133.09,122.88,133.28Z"/><path class="cls-5" d="M117.8,135.51a20,20,0,0,1-3.55.68c.85,4.77,3.53,8.17,3.07,13.11-.57,6,2.75,9.49,3.51,11.85s-.85,3.76-.16,4.1,2.21-1.52,1.73-4.87-3-4.35-2.39-11.75C120.54,142.35,118,140.15,117.8,135.51Z"/><path class="cls-6" d="M114.18,136.13h.07a20.19,20.19,0,0,0,3.53-.68l.08,0v.08a17.86,17.86,0,0,0,1.08,5,18.61,18.61,0,0,1,1.14,8.17c-.41,4.87.55,6.94,1.39,8.77a10,10,0,0,1,1,3c.4,2.81-.58,4.6-1.38,4.93a.55.55,0,0,1-.45,0c-.34-.17-.21-.54,0-1.05a4.51,4.51,0,0,0,.16-3.09,13.34,13.34,0,0,0-1-2.16,15.81,15.81,0,0,1-2.47-9.71c.28-3-.61-5.44-1.55-8a30.16,30.16,0,0,1-1.52-5.08Zm3.56-.54a19.73,19.73,0,0,1-3.41.65,30.61,30.61,0,0,0,1.5,5c1,2.58,1.84,5,1.56,8.07a15.78,15.78,0,0,0,2.45,9.64,14.51,14.51,0,0,1,1,2.18,4.68,4.68,0,0,1-.16,3.17c-.18.52-.26.78,0,.89a.41.41,0,0,0,.34,0c.65-.27,1.71-1.95,1.3-4.79a9.86,9.86,0,0,0-1-2.92c-.85-1.85-1.82-3.94-1.4-8.84a18.44,18.44,0,0,0-1.13-8.12A17.78,17.78,0,0,1,117.74,135.59Z"/><path class="cls-5" d="M119.87,134.79c-.53.22-1.07.41-1.61.58l12.06,26.54s.35.85.92.62.22-1.09.22-1.09l-10-27.37Q120.67,134.46,119.87,134.79Z"/><path class="cls-6" d="M118.17,135.33l.07,0c.59-.18,1.11-.37,1.61-.57s1-.44,1.55-.72l.06,0,0,.07,10,27.37c.13.31.24,1-.26,1.17s-.87-.34-1-.66Zm13,27.14c.5-.21.19-1,.18-1l-10-27.3c-.53.27-1,.49-1.49.69s-1,.38-1.55.56l12,26.47S130.7,162.67,131.21,162.47Z"/><path class="cls-6" d="M119.87,134.8l-.47.18,6.93,15.58-6-16Z"/><path class="cls-6" d="M115.56,136c.87,5.09,3.76,9.05,3.1,14.29,1.46-4.25-1.64-8.73-2-14.5A9.93,9.93,0,0,1,115.56,136Z"/><path class="cls-5" d="M110,136.12a20.58,20.58,0,0,1-3.54-.73c-1,4.73.13,8.9-2.19,13.28-2.84,5.37-1.1,9.82-1.3,12.29s-2.22,3.15-1.72,3.72,2.63-.55,3.47-3.83-1.12-5.18,2.29-11.77C109.92,143.5,108.44,140.5,110,136.12Z"/><path class="cls-6" d="M106.43,135.31l.07,0a20.19,20.19,0,0,0,3.52.73h.08l0,.08a18.19,18.19,0,0,0-.91,5,18.63,18.63,0,0,1-2.08,8c-2.25,4.34-2.16,6.62-2.08,8.64a10.14,10.14,0,0,1-.21,3.12c-.7,2.75-2.3,4-3.16,4a.54.54,0,0,1-.42-.17c-.25-.28,0-.58.37-1a4.53,4.53,0,0,0,1.33-2.79,14.21,14.21,0,0,0-.13-2.4c-.27-2.52-.65-6,1.44-9.92,1.42-2.68,1.53-5.26,1.64-8a29.94,29.94,0,0,1,.54-5.28Zm3.49.87a19.73,19.73,0,0,1-3.4-.7,29.68,29.68,0,0,0-.53,5.19c-.11,2.75-.22,5.34-1.65,8.05a15.74,15.74,0,0,0-1.43,9.84A13.4,13.4,0,0,1,103,161a4.64,4.64,0,0,1-1.36,2.86c-.37.41-.54.62-.37.81a.41.41,0,0,0,.32.12c.71,0,2.32-1.15,3-3.93a10.16,10.16,0,0,0,.2-3.08c-.08-2-.17-4.33,2.09-8.7a18.56,18.56,0,0,0,2.07-7.93A18.56,18.56,0,0,1,109.92,136.18Z"/><path class="cls-5" d="M112.2,136.25c-.58,0-1.15,0-1.71-.09l1,29.13s0,.92.61.92.62-.92.62-.92l1.22-29.12A14,14,0,0,1,112.2,136.25Z"/><path class="cls-6" d="M110.42,136.1h.07c.61,0,1.17.08,1.7.09s1.09,0,1.71-.07H114v.07l-1.22,29.12c0,.34-.15,1-.68,1s-.68-.65-.67-1Zm1.64,30.06c.54,0,.55-.85.55-.86l1.22-29.05a15.73,15.73,0,0,1-1.64.06c-.51,0-1,0-1.64-.08l1,29.06S111.52,166.16,112.06,166.16Z"/><path class="cls-6" d="M112.2,136.26l-.5,0,.43,17,.57-17Z"/><path class="cls-6" d="M107.75,135.73c-1.15,5,0,9.8-2.61,14.39,3-3.37,1.83-8.7,3.67-14.17Z"/><path class="cls-5" d="M102.58,133.7a19.4,19.4,0,0,1-3-2c-2.77,4-3.29,8.27-7.11,11.43C87.79,147,87.7,151.75,86.57,154s-3.26,2.06-3,2.78,2.64.5,4.67-2.21,1-5.21,6.63-10C99.67,140.48,99.45,137.14,102.58,133.7Z"/><path class="cls-6" d="M99.58,131.58l0,0a20,20,0,0,0,3,2l.07,0-.05.06A18.09,18.09,0,0,0,99.88,138a18.69,18.69,0,0,1-5,6.58c-3.74,3.15-4.53,5.29-5.23,7.18a10.3,10.3,0,0,1-1.39,2.8c-1.7,2.27-3.67,2.84-4.46,2.51a.57.57,0,0,1-.32-.31c-.12-.36.23-.53.72-.77a4.51,4.51,0,0,0,2.3-2.07,13.9,13.9,0,0,0,.79-2.26,15.83,15.83,0,0,1,5.13-8.61c2.34-1.93,3.42-4.27,4.58-6.75a29.67,29.67,0,0,1,2.52-4.67Zm2.9,2.14a19.86,19.86,0,0,1-2.87-1.95,29.82,29.82,0,0,0-2.47,4.59c-1.16,2.49-2.25,4.85-4.61,6.8a15.76,15.76,0,0,0-5.09,8.54,14.93,14.93,0,0,1-.8,2.29,4.6,4.6,0,0,1-2.36,2.12c-.5.24-.73.37-.65.61a.42.42,0,0,0,.25.24c.65.27,2.59-.17,4.31-2.46a10.06,10.06,0,0,0,1.37-2.77c.7-1.91,1.5-4.07,5.27-7.24a18.49,18.49,0,0,0,5-6.54A17.67,17.67,0,0,1,102.48,133.72Z"/><path class="cls-5" d="M104.55,134.66c-.53-.22-1-.47-1.55-.73L92.73,161.21s-.36.85.21,1.09.92-.61.92-.61l12.29-26.43C105.62,135.08,105.08,134.89,104.55,134.66Z"/><path class="cls-6" d="M103,133.84l.06,0c.55.29,1,.53,1.54.73s1,.4,1.6.59l.07,0,0,.07L93.92,161.71c-.13.31-.51.85-1,.64s-.38-.86-.24-1.17Zm-10,28.4c.5.21.84-.57.84-.58l12.26-26.37c-.56-.18-1.07-.37-1.54-.57s-1-.43-1.49-.7L92.8,161.23S92.47,162,93,162.24Z"/><path class="cls-6" d="M104.55,134.67l-.46-.21L98,150.37,105,134.85Z"/><path class="cls-6" d="M100.64,132.47c-3,4.21-3.75,9.05-7.93,12.29,4-2,5-7.33,8.82-11.68C101.23,132.89,100.93,132.68,100.64,132.47Z"/><path class="cls-5" d="M96.65,128.62a20.11,20.11,0,0,1-2-3c-4.08,2.61-6.21,6.38-11,7.83-5.81,1.78-7.73,6.16-9.62,7.76s-3.8.65-3.85,1.42,2.25,1.47,5.16-.25,2.87-4.45,10-6.69C91.36,133.77,92.44,130.6,96.65,128.62Z"/><path class="cls-6" d="M94.69,125.51l0,.06a20,20,0,0,0,2,3l0,.06-.07,0a18,18,0,0,0-4.17,2.88,18.61,18.61,0,0,1-7.12,4.17c-4.66,1.47-6.21,3.15-7.58,4.63a10.47,10.47,0,0,1-2.35,2.05c-2.45,1.44-4.48,1.22-5.08.6a.56.56,0,0,1-.18-.41c0-.38.42-.4,1-.43a4.49,4.49,0,0,0,2.91-1,14.38,14.38,0,0,0,1.6-1.79c1.59-2,3.77-4.68,8-6,2.9-.89,4.8-2.64,6.81-4.48a29.66,29.66,0,0,1,4.12-3.34Zm1.85,3.09a19.83,19.83,0,0,1-1.9-2.9,29.78,29.78,0,0,0-4,3.29c-2,1.86-3.94,3.62-6.86,4.51-4.23,1.3-6.39,4-8,5.94a13.09,13.09,0,0,1-1.62,1.8,4.61,4.61,0,0,1-3,1.06c-.55,0-.82.06-.84.31a.39.39,0,0,0,.14.31c.5.5,2.45.84,4.92-.63a10,10,0,0,0,2.32-2c1.38-1.49,3-3.18,7.64-4.67a18.47,18.47,0,0,0,7.08-4.14A19,19,0,0,1,96.54,128.6Z"/><path class="cls-5" d="M98.1,130.26c-.41-.41-.78-.84-1.15-1.27L77,150.25s-.66.65-.22,1.09,1.09-.21,1.09-.21l21.48-19.7Q98.7,130.88,98.1,130.26Z"/><path class="cls-6" d="M97,128.9l0,.06c.4.47.77.89,1.14,1.27s.78.76,1.25,1.16l.06.05,0,.05-21.48,19.7c-.24.24-.8.59-1.18.21s0-.94.22-1.18ZM76.83,151.3c.38.39,1-.21,1-.21l21.43-19.66c-.45-.39-.84-.75-1.21-1.12s-.72-.77-1.1-1.22L77.06,150.3S76.45,150.91,76.83,151.3Z"/><path class="cls-6" d="M98.09,130.27c-.12-.12-.23-.24-.34-.37L86,142.24l12.47-11.63Z"/><path class="cls-6" d="M95.32,126.75c-4.37,2.74-6.93,6.93-12,8.31,4.49-.27,7.45-4.85,12.63-7.41Q95.6,127.2,95.32,126.75Z"/><path class="cls-5" d="M93.11,121.66a19.13,19.13,0,0,1-.67-3.55c-4.77.84-8.18,3.52-13.12,3-6-.58-9.5,2.72-11.86,3.48s-3.76-.86-4.1-.17,1.51,2.22,4.86,1.74,4.36-3,11.75-2.37C86.26,124.39,88.47,121.87,93.11,121.66Z"/><path class="cls-6" d="M92.5,118v.07a20.46,20.46,0,0,0,.67,3.54l0,.08h-.08a17.86,17.86,0,0,0-5,1.07A18.5,18.5,0,0,1,80,123.92c-4.87-.42-6.95.53-8.78,1.37a10.32,10.32,0,0,1-3,1c-2.81.4-4.6-.59-4.93-1.39a.55.55,0,0,1,0-.45c.17-.34.54-.21,1,0a4.56,4.56,0,0,0,3.09.17,13.34,13.34,0,0,0,2.16-1,15.94,15.94,0,0,1,9.72-2.45c3,.29,5.44-.59,8-1.53a30,30,0,0,1,5.09-1.51ZM93,121.6a19.71,19.71,0,0,1-.64-3.41,30.43,30.43,0,0,0-5,1.49c-2.58.94-5,1.83-8.07,1.54a15.78,15.78,0,0,0-9.64,2.43,14.12,14.12,0,0,1-2.19,1,4.6,4.6,0,0,1-3.17-.17c-.52-.18-.78-.26-.89,0a.41.41,0,0,0,0,.34c.27.65,1.94,1.71,4.79,1.31a10.31,10.31,0,0,0,2.93-1c1.85-.85,3.94-1.81,8.84-1.38a18.47,18.47,0,0,0,8.12-1.11A17.78,17.78,0,0,1,93,121.6Z"/><path class="cls-5" d="M93.82,123.73c-.22-.53-.4-1.07-.57-1.61l-26.56,12s-.85.35-.62.92,1.09.22,1.09.22l27.39-10C94.28,124.78,94,124.26,93.82,123.73Z"/><path class="cls-6" d="M93.29,122l0,.07c.18.59.37,1.12.57,1.61s.43,1,.71,1.55l0,.06-.07,0-27.39,10c-.31.13-1,.24-1.17-.26s.34-.87.66-1ZM66.12,135c.2.5,1,.19,1,.19l27.32-9.95c-.27-.53-.49-1-.69-1.49s-.38-1-.55-1.55l-26.5,12S65.92,134.5,66.12,135Z"/><path class="cls-6" d="M93.82,123.73c-.06-.16-.12-.31-.17-.47l-15.6,6.89,16-6A3.1,3.1,0,0,1,93.82,123.73Z"/><path class="cls-6" d="M92.61,119.42c-5.09.86-9.06,3.74-14.3,3.07,4.25,1.47,8.74-1.63,14.5-2C92.74,120.13,92.67,119.77,92.61,119.42Z"/><path class="cls-5" d="M92.51,113.87a19.58,19.58,0,0,1,.74-3.53c-4.73-1-8.9.11-13.28-2.22-5.37-2.86-9.82-1.12-12.29-1.33s-3.14-2.23-3.72-1.72.55,2.63,3.82,3.47,5.18-1.11,11.76,2.32C85.14,113.76,88.14,112.29,92.51,113.87Z"/><path class="cls-6" d="M93.33,110.29l0,.07a20.22,20.22,0,0,0-.74,3.52V114l-.08,0a18.23,18.23,0,0,0-5-.92,18.56,18.56,0,0,1-8-2.1c-4.33-2.26-6.62-2.17-8.63-2.1a10.15,10.15,0,0,1-3.12-.22c-2.75-.71-4-2.31-4-3.17a.54.54,0,0,1,.17-.42c.28-.25.58,0,1,.37a4.53,4.53,0,0,0,2.79,1.34,14.21,14.21,0,0,0,2.4-.13A15.85,15.85,0,0,1,80,108c2.68,1.43,5.26,1.54,8,1.66a30,30,0,0,1,5.28.55Zm-.87,3.49a20.75,20.75,0,0,1,.71-3.4,30.71,30.71,0,0,0-5.19-.54c-2.75-.12-5.34-.23-8-1.67-3.9-2.08-7.33-1.71-9.84-1.45a14.39,14.39,0,0,1-2.42.13,4.62,4.62,0,0,1-2.86-1.37c-.41-.37-.62-.54-.81-.37a.41.41,0,0,0-.12.32c0,.71,1.14,2.33,3.92,3a10.18,10.18,0,0,0,3.08.21c2-.08,4.33-.16,8.7,2.11a18.38,18.38,0,0,0,7.93,2.08A19.12,19.12,0,0,1,92.46,113.78Z"/><path class="cls-5" d="M92.38,116.05c0-.58,0-1.15.09-1.71l-29.13.9s-.92,0-.93.61.92.62.92.62l29.12,1.29A16.08,16.08,0,0,1,92.38,116.05Z"/><path class="cls-6" d="M92.54,114.28v.07c-.06.61-.09,1.17-.09,1.7s0,1.09.07,1.71v.07h-.07l-29.12-1.29c-.34,0-1-.15-1-.69s.65-.67,1-.67Zm-30.07,1.58c0,.54.85.56.85.56l29.05,1.28c0-.59-.06-1.13-.06-1.64s0-1,.08-1.64l-29.06.9S62.48,115.31,62.47,115.86Z"/><path class="cls-6" d="M92.38,116.05c0-.17,0-.33,0-.5l-17.05.39,17,.61A4.13,4.13,0,0,1,92.38,116.05Z"/><path class="cls-6" d="M92.91,111.61c-5-1.16-9.8,0-14.38-2.64,3.36,3,8.69,1.85,14.16,3.7C92.76,112.31,92.83,112,92.91,111.61Z"/><path class="cls-5" d="M95,106.44a20.1,20.1,0,0,1,2-3c-4-2.78-8.27-3.31-11.42-7.14-3.86-4.7-8.64-4.8-10.84-5.93s-2-3.27-2.78-3S71.45,90,74.15,92s5.21,1,10,6.65C88.18,103.52,91.52,103.31,95,106.44Z"/><path class="cls-6" d="M97.08,103.45l0,0a20,20,0,0,0-2,3l0,.07-.06-.05a18.26,18.26,0,0,0-4.26-2.76,18.62,18.62,0,0,1-6.57-5C80.94,95,78.8,94.2,76.91,93.5a10.59,10.59,0,0,1-2.8-1.39c-2.27-1.71-2.83-3.68-2.5-4.47a.57.57,0,0,1,.31-.32c.36-.12.53.23.76.72a4.53,4.53,0,0,0,2.06,2.3,14.46,14.46,0,0,0,2.26.8,15.92,15.92,0,0,1,8.6,5.15c1.93,2.34,4.27,3.43,6.74,4.59A30,30,0,0,1,97,103.41Zm-2.15,2.89a20.77,20.77,0,0,1,2-2.87A29.42,29.42,0,0,0,92.31,101c-2.49-1.16-4.84-2.26-6.79-4.63A15.82,15.82,0,0,0,77,91.25a14.2,14.2,0,0,1-2.29-.81,4.68,4.68,0,0,1-2.12-2.36c-.24-.5-.37-.74-.61-.65a.42.42,0,0,0-.24.25c-.28.65.16,2.59,2.46,4.31A9.87,9.87,0,0,0,77,93.36c1.91.71,4.06,1.51,7.23,5.28a18.31,18.31,0,0,0,6.53,5A19,19,0,0,1,94.93,106.34Z"/><path class="cls-5" d="M94,108.41c.22-.53.47-1,.74-1.55L67.47,96.54s-.85-.36-1.09.21.61.93.61.93L93.39,110C93.57,109.48,93.76,108.94,94,108.41Z"/><path class="cls-6" d="M94.81,106.83l0,.06c-.29.55-.53,1-.74,1.54s-.4,1-.59,1.6l0,.07-.07,0L67,97.72c-.31-.13-.85-.51-.64-1s.86-.37,1.17-.24ZM66.44,96.77c-.21.5.57.84.58.84l26.34,12.32c.19-.56.37-1.07.57-1.54s.43-1,.71-1.49L67.44,96.6S66.65,96.27,66.44,96.77Z"/><path class="cls-6" d="M94,108.41l.21-.45-15.9-6.17,15.51,7.1C93.86,108.72,93.92,108.57,94,108.41Z"/><path class="cls-6" d="M96.18,104.51c-4.2-3-9.05-3.77-12.27-8,2,4,7.32,5,11.66,8.85C95.77,105.1,96,104.8,96.18,104.51Z"/><path class="cls-5" d="M100,100.52a19.3,19.3,0,0,1,3-2c-2.6-4.09-6.37-6.22-7.81-11-1.77-5.82-6.14-7.74-7.74-9.63s-.64-3.8-1.41-3.85-1.47,2.24.24,5.16,4.44,2.88,6.67,10C94.91,95.23,98.07,96.31,100,100.52Z"/><path class="cls-6" d="M103.16,98.57l-.06,0a19.24,19.24,0,0,0-3,2l-.06.05,0-.07a17.72,17.72,0,0,0-2.88-4.18A18.65,18.65,0,0,1,93,89.24c-1.46-4.66-3.14-6.22-4.61-7.59a10.31,10.31,0,0,1-2-2.36c-1.44-2.45-1.21-4.48-.59-5.08a.61.61,0,0,1,.41-.18c.38,0,.4.42.43,1a4.51,4.51,0,0,0,1,2.92,14.13,14.13,0,0,0,1.78,1.61c2,1.6,4.67,3.78,6,8,.88,2.9,2.63,4.81,4.47,6.82a29.72,29.72,0,0,1,3.33,4.13Zm-3.09,1.85a20.78,20.78,0,0,1,2.91-1.9,30.61,30.61,0,0,0-3.28-4c-1.86-2-3.61-3.94-4.5-6.87a15.82,15.82,0,0,0-5.92-8A13.77,13.77,0,0,1,87.48,78a4.6,4.6,0,0,1-1-3c0-.55-.06-.82-.31-.84a.39.39,0,0,0-.31.14c-.5.5-.84,2.45.61,4.93a10,10,0,0,0,2,2.33c1.49,1.38,3.17,3,4.65,7.65a18.27,18.27,0,0,0,4.13,7.08A19.11,19.11,0,0,1,100.07,100.42Z"/><path class="cls-5" d="M98.4,102c.41-.4.84-.78,1.27-1.14l-21.22-20s-.65-.66-1.09-.23.21,1.09.21,1.09l19.66,21.52C97.6,102.79,98,102.37,98.4,102Z"/><path class="cls-6" d="M99.77,100.83l-.06,0c-.47.39-.89.77-1.27,1.14s-.76.78-1.16,1.25l0,.06,0,0L77.53,81.75c-.24-.24-.59-.8-.21-1.18s.94,0,1.18.23ZM77.41,80.66c-.39.38.2,1,.21,1l19.61,21.47c.39-.45.75-.84,1.12-1.2s.77-.72,1.22-1.1L78.41,80.89S77.8,80.28,77.41,80.66Z"/><path class="cls-6" d="M98.4,102l.37-.34L86.45,89.83l11.6,12.5C98.17,102.21,98.28,102.08,98.4,102Z"/><path class="cls-6" d="M101.92,99.2c-2.73-4.38-6.91-7-8.29-12,.26,4.49,4.83,7.46,7.38,12.64Z"/><path class="cls-5" d="M107,97a20,20,0,0,1,3.55-.66c-.83-4.77-3.5-8.19-3-13.12.6-6-2.7-9.5-3.46-11.86s.87-3.76.18-4.1-2.22,1.51-1.75,4.86,3,4.37,2.34,11.76C104.3,90.14,106.81,92.36,107,97Z"/><path class="cls-6" d="M110.64,96.39h-.07a20.43,20.43,0,0,0-3.54.66l-.08,0V97a18.24,18.24,0,0,0-1-5,18.61,18.61,0,0,1-1.1-8.18c.43-4.87-.52-7-1.35-8.78a10.12,10.12,0,0,1-1-3c-.39-2.81.6-4.6,1.4-4.92a.51.51,0,0,1,.45,0c.34.17.21.54,0,1a4.56,4.56,0,0,0-.17,3.09,14.59,14.59,0,0,0,1,2.17,15.87,15.87,0,0,1,2.43,9.72c-.3,3,.58,5.45,1.51,8a29.11,29.11,0,0,1,1.5,5.09Zm-3.56.53a20.71,20.71,0,0,1,3.41-.64,29.48,29.48,0,0,0-1.48-5c-.94-2.58-1.82-5-1.52-8.07a15.78,15.78,0,0,0-2.41-9.65,13.5,13.5,0,0,1-1-2.19,4.72,4.72,0,0,1,.17-3.17c.18-.52.26-.78,0-.89a.41.41,0,0,0-.34,0c-.66.27-1.72,1.94-1.32,4.78a10.31,10.31,0,0,0,1,2.93c.84,1.85,1.8,3.94,1.36,8.85A18.41,18.41,0,0,0,106,92,18.54,18.54,0,0,1,107.08,96.92Z"/><path class="cls-5" d="M104.94,97.71c.53-.22,1.07-.4,1.61-.57L94.62,70.55s-.35-.85-.92-.62S93.48,71,93.48,71l9.91,27.41A16.8,16.8,0,0,1,104.94,97.71Z"/><path class="cls-6" d="M106.65,97.18l-.07,0c-.59.18-1.12.37-1.61.57s-1,.43-1.55.71l-.06,0,0-.07L93.43,71c-.13-.31-.24-1,.26-1.17s.87.34,1,.66ZM93.73,70c-.5.2-.19,1-.19,1l9.89,27.35c.53-.27,1-.49,1.5-.68s1-.37,1.55-.55L94.56,70.58S94.23,69.78,93.73,70Z"/><path class="cls-6" d="M104.94,97.71l.47-.17L98.55,81.93l5.93,16Z"/><path class="cls-6" d="M109.26,96.51c-.85-5.09-3.72-9.07-3-14.3-1.48,4.24,1.61,8.74,2,14.51A10.1,10.1,0,0,1,109.26,96.51Z"/><circle class="cls-5" cx="112.45" cy="116.26" r="19.98"/><path class="cls-6" d="M112.45,136.37a20.11,20.11,0,1,1,20.11-20.11A20.13,20.13,0,0,1,112.45,136.37Zm0-40a19.85,19.85,0,1,0,19.85,19.85A19.87,19.87,0,0,0,112.45,96.41Z"/><path class="cls-6" d="M109.7,118.45s2-2.7,1.71-4.58-1.63-5.43-5.56-5c0,0-4.19.26-6.12,2.48a7.63,7.63,0,0,1,6.2-3.21c4.06.09,5.26,2.18,5.26,2.18s.51.68.64,3.38a10.29,10.29,0,0,1-1.33,5.13Z"/><path class="cls-6" d="M110,113.28a7,7,0,0,0-3.17-1.8c-1.63-.26-5,0-6.12,1.8,0,0,.1-2,4.32-2.28a7,7,0,0,1,3.52.81,6.72,6.72,0,0,1,1.64,1.14Z"/><path class="cls-6" d="M105.07,112a7.35,7.35,0,0,0-3.64,1.74,7.56,7.56,0,0,0,4,1.16,4.84,4.84,0,0,0,3.47-1.16S107.21,111.64,105.07,112Zm.09,2.75a5.42,5.42,0,0,1-3-1.17,6.14,6.14,0,0,1,3.15-1.4,3.44,3.44,0,0,1,2.84,1.51A4.41,4.41,0,0,1,105.16,114.7Z"/><path class="cls-6" d="M106.77,113.38a1.35,1.35,0,1,0-1.35,1.35A1.35,1.35,0,0,0,106.77,113.38Z"/><path class="cls-6" d="M115,118.45s-2-2.7-1.71-4.58,1.63-5.43,5.56-5c0,0,4.19.26,6.12,2.48a7.63,7.63,0,0,0-6.2-3.21c-4.06.08-5.26,2.18-5.26,2.18s-.51.68-.64,3.38a10.29,10.29,0,0,0,1.33,5.13Z"/><path class="cls-6" d="M114.7,113.28a7,7,0,0,1,3.17-1.8c1.63-.26,5,0,6.12,1.8,0,0-.1-2-4.32-2.28a7,7,0,0,0-3.52.81,6.72,6.72,0,0,0-1.64,1.14Z"/><path class="cls-6" d="M115.77,113.69a4.84,4.84,0,0,0,3.47,1.16,7.5,7.5,0,0,0,4-1.16,7.35,7.35,0,0,0-3.64-1.74C117.45,111.64,115.77,113.69,115.77,113.69Zm.74,0a3.39,3.39,0,0,1,2.84-1.51,6.06,6.06,0,0,1,3.15,1.4,5.42,5.42,0,0,1-3,1.17A4.47,4.47,0,0,1,116.51,113.65Z"/><path class="cls-6" d="M116.16,119.15s.88,1-.08,1.54-1.61-.61-1.61-.61a2.59,2.59,0,0,1-4.28,0s-.65,1.13-1.61.61-.08-1.54-.08-1.54a1.38,1.38,0,0,0,0,2.28c.73.58,1.84-.33,1.84-.33.33.66,1.59.76,1.94.73s1.61-.07,1.94-.73c0,0,1.11.91,1.84.33A1.38,1.38,0,0,0,116.16,119.15Z"/><path class="cls-6" d="M115.06,123c-.7-.26-2.46.53-2.73.65-.26-.12-2-.92-2.73-.65a12.12,12.12,0,0,0-2.48,2.42c.13-.07,1.84-1.88,2.48-2s1.57.51,2.31.67a2.06,2.06,0,0,0,.32.1h0s0,0,.1,0,.09,0,.1,0h0l.32-.1c.74-.16,1.67-.74,2.31-.67s2.35,1.88,2.48,2A12.67,12.67,0,0,0,115.06,123Z"/><path class="cls-6" d="M112.33,125.4c.36,0,4.36,0,4.88-.39a42.84,42.84,0,0,1-4.88-.12h0a42.34,42.34,0,0,1-4.85.12c.52.37,4.49.39,4.85.39h0Z"/><path class="cls-6" d="M110.94,126.91a6.08,6.08,0,0,1-2.88-1.23,7.52,7.52,0,0,0,3,1.9,2.2,2.2,0,0,0,1.31-.43v-.74C112.35,126.57,112.21,127,110.94,126.91Z"/><path class="cls-6" d="M113.79,126.91c-1.28.11-1.41-.34-1.43-.49v.74a2.2,2.2,0,0,0,1.31.43,7.52,7.52,0,0,0,3-1.9A6.22,6.22,0,0,1,113.79,126.91Z"/><path class="cls-6" d="M112.4,128.45h0c-.31,0-2.58.24-2.83,1.41a3.11,3.11,0,0,1,2.83-1.11h0a3.13,3.13,0,0,1,2.83,1.11C115,128.69,112.71,128.48,112.4,128.45Z"/><path class="cls-6" d="M120.6,113.38a1.35,1.35,0,1,0-1.35,1.35A1.35,1.35,0,0,0,120.6,113.38Z"/></svg>