<?xml version="1.0" encoding="utf-8"?>
<!-- Generator: Adobe Illustrator 25.0.0, SVG Export Plug-In . SVG Version: 6.00 Build 0)  -->
<svg version="1.0" id="Capa_1" xmlns="http://www.w3.org/2000/svg" xmlns:xlink="http://www.w3.org/1999/xlink" x="0px" y="0px"
	 viewBox="0 0 130 147" style="enable-background:new 0 0 130 147;" xml:space="preserve">
<style type="text/css">
	.Sombra_x0020_paralela{fill:none;}
	.Esquinas_x0020_redondeadas_x0020_2_x0020_pt_x002E_{fill:#FFFFFF;stroke:#1D1D1B;stroke-miterlimit:10;}
	.Reflejo_x0020_vivo_x0020_X{fill:none;}
	.Bisel_x0020_suave{fill:url(#SVGID_1_);}
	.Atardecer{fill:#FFFFFF;}
	.Follaje_GS{fill:#FFDD00;}
	.Pompadour_GS{fill-rule:evenodd;clip-rule:evenodd;fill:#51AEE2;}
	.st0{fill:#FFFFFF;}
	.st1{fill:#FF0600;}
</style>
<linearGradient id="SVGID_1_" gradientUnits="userSpaceOnUse" x1="0" y1="0" x2="0.7071" y2="0.7071">
	<stop  offset="0" style="stop-color:#E6E6EB"/>
	<stop  offset="0.1754" style="stop-color:#E2E2E7"/>
	<stop  offset="0.3552" style="stop-color:#D6D6DB"/>
	<stop  offset="0.5371" style="stop-color:#C2C3C6"/>
	<stop  offset="0.7204" style="stop-color:#A5A7A9"/>
	<stop  offset="0.9031" style="stop-color:#818485"/>
	<stop  offset="1" style="stop-color:#6B6E6E"/>
</linearGradient>
<path class="st0" d="M0,42.06l0,62.88c0,3.77,2.01,7.25,5.27,9.13l54.46,31.44c3.26,1.88,7.28,1.88,10.54,0l54.46-31.44
	c3.26-1.88,5.27-5.36,5.27-9.13V42.06c0-3.77-2.01-7.25-5.27-9.13L70.27,1.49c-3.26-1.88-7.28-1.88-10.54,0L5.27,32.93
	C2.01,34.81,0,38.29,0,42.06z"/>
<g>
	<g>
		<path class="st1" d="M75.84,106.37c-0.15,0-0.29-0.03-0.43-0.1c-0.34-0.17-0.53-0.53-0.5-0.91l0.78-9.06H32.36
			c-2.86,0-5.19-2.33-5.19-5.19V45.82c0-2.87,2.33-5.2,5.19-5.2h65.27c2.86,0,5.19,2.33,5.19,5.2v45.29c0,2.86-2.33,5.19-5.19,5.19
			h-9.65l-11.54,9.84C76.28,106.3,76.06,106.37,75.84,106.37z M32.36,42.49c-1.84,0-3.33,1.49-3.33,3.33v45.29
			c0,1.84,1.49,3.33,3.33,3.33h44.35c0.26,0,0.51,0.11,0.69,0.3c0.18,0.19,0.26,0.45,0.24,0.71l-0.67,7.8l10.07-8.59
			c0.17-0.14,0.38-0.22,0.6-0.22h9.99c1.84,0,3.33-1.49,3.33-3.33V45.82c0-1.84-1.49-3.33-3.33-3.33H32.36z"/>
	</g>
	<path class="st1" d="M79.37,67.3c0-0.16,0-0.31-0.01-0.47l2.79-0.73l-1.65-6.31l-2.86,0.75c-0.42-0.76-0.91-1.48-1.46-2.16
		L78,56.01l-5.16-3.98l-1.85,2.4c-0.78-0.35-1.59-0.62-2.42-0.81v-3.05h-6.52v3.05c-0.77,0.18-1.52,0.43-2.24,0.73l-1.82-2.43
		l-5.22,3.91l1.79,2.39c-0.31,0.37-0.61,0.75-0.88,1.15l-2.79-1.03l-2.26,6.12l2.72,1c-0.08,0.61-0.12,1.22-0.12,1.83
		c0,0.05,0,0.1,0,0.15l-2.78,0.73l1.65,6.31l2.71-0.71c0.42,0.81,0.91,1.57,1.48,2.28l-1.7,2.2l5.16,3.99l1.66-2.16
		c0.84,0.39,1.71,0.69,2.62,0.9v2.72h6.52v-2.72c0.83-0.2,1.64-0.47,2.43-0.82l1.63,2.18l5.22-3.91l-1.66-2.22
		c0.33-0.4,0.64-0.83,0.92-1.26l2.62,0.96l2.25-6.12l-2.68-0.99C79.34,68.31,79.37,67.8,79.37,67.3z M73.32,67.14
		c0,4.42-3.6,8.02-8.02,8.02c-4.42,0-8.02-3.6-8.02-8.02c0-4.42,3.6-8.02,8.02-8.02C69.72,59.12,73.32,62.72,73.32,67.14z"/>
	<g>
		<path class="st1" d="M58.07,88.92H37.08l-0.11-0.03c-3.57-0.89-4.04-4.63-4.06-4.79L32.91,84V65.16h1.86v18.78
			c0.05,0.35,0.47,2.53,2.54,3.12h20.76V88.92z"/>
	</g>
</g>
</svg>
