<svg id="Capa_1" data-name="Capa 1" xmlns="http://www.w3.org/2000/svg" viewBox="0 0 840 406.1"><defs><style>.cls-1{fill:#e10600;}</style></defs><path class="cls-1" d="M797.35,15.68a5.89,5.89,0,0,0,5.16-3l38.27,11.24c0,.12,0,.25,0,.38a5.87,5.87,0,0,0,3.66,5.45V18.82a5.9,5.9,0,0,0-3,2.75l-38.2-11.22a5.12,5.12,0,0,0,0-.56,5.89,5.89,0,1,0-5.89,5.89Z"/><path class="cls-1" d="M844.42,386.2l-8.6-35.47a5.88,5.88,0,0,0,3.29-5.28,5.76,5.76,0,0,0-.89-3.1l6.2-5.91v-3.3l-7.84,7.47a5.89,5.89,0,0,0-8.52,2l-38-11.17c0-.15,0-.3,0-.46a5.89,5.89,0,0,0-5.89-5.89l-.4,0L774.29,286a5.89,5.89,0,0,0,3.32-5.3,6,6,0,0,0-.78-2.93l29-27.67a5.9,5.9,0,0,0,8.52-1.89l30,8.82v-2.49L815.1,246a4.49,4.49,0,0,0,0-.64,5.89,5.89,0,0,0-5.89-5.89l-.42,0-9.46-39a5.9,5.9,0,0,0,2.48-8l29-27.66a5.78,5.78,0,0,0,3,.81,5.88,5.88,0,0,0,5.11-3l5.49,1.62v-2.5l-4.75-1.39a4.78,4.78,0,0,0,0-.66,5.88,5.88,0,0,0-5.82-5.88l-9.43-38.86a5.89,5.89,0,0,0,2.55-8.05l17.41-16.61V87l-19,18.08a5.86,5.86,0,0,0-8.93,2.06L778.62,96q0-.33,0-.66a5.89,5.89,0,1,0-10.85,3.16l-28.95,27.61a5.87,5.87,0,0,0-8.88,2L691.8,116.9c0-.21,0-.42,0-.64a5.89,5.89,0,0,0-5.89-5.89h-.08l-9.41-38.79a5.89,5.89,0,1,0-2.51.56h.19l9.4,38.75a5.89,5.89,0,0,0-2.44,8.72l-28.88,27.53a5.89,5.89,0,0,0-8.42,2.08L605.47,138c0-.19,0-.37,0-.56a5.89,5.89,0,0,0-5.89-5.89h-.28l-9.47-39.07a5.9,5.9,0,1,0-2.83.72l.54,0,9.45,39a5.89,5.89,0,0,0-3.3,5.28,5.8,5.8,0,0,0,.9,3.11l-29,27.62a5.87,5.87,0,0,0-8.79,2l-38.21-11.22a4.75,4.75,0,0,0,0-.54,5.89,5.89,0,0,0-5.89-5.89h0l-9.41-38.8a5.88,5.88,0,0,0,2.53-8.3l28.88-27.54a5.89,5.89,0,1,0-2.78-5,5.84,5.84,0,0,0,1,3.35l-28.76,27.42a5.88,5.88,0,0,0-8.71,2.09L457.58,94.54a4.89,4.89,0,0,0,0-.54,5.89,5.89,0,0,0-5.89-5.89l-.42,0-9.47-39a5.88,5.88,0,1,0-2.7.66l.4,0,9.47,39A5.87,5.87,0,0,0,446.64,97l-29,27.66a5.81,5.81,0,0,0-3.43-1.11,5.9,5.9,0,0,0-5.22,3.17l-38.21-11.23a4.41,4.41,0,0,0,0-.52,5.89,5.89,0,0,0-5.89-5.89h-.2l-9.39-38.75a5.87,5.87,0,0,0,2.57-8.5l28.83-27.49a5.89,5.89,0,1,0-2.64-4.91,5.91,5.91,0,0,0,.95,3.22L356.23,60.08a5.89,5.89,0,0,0-8.57,2.17L309.12,50.93s0-.09,0-.14a5.89,5.89,0,0,0-11.78,0,5.8,5.8,0,0,0,.86,3.06L269.65,81.08a5.82,5.82,0,0,0-3.94-1.53A5.9,5.9,0,0,0,260.33,83l-38-11.16a5.29,5.29,0,0,0,.08-.9,5.89,5.89,0,1,0-6.32,5.87,5.38,5.38,0,0,0,5.47-2.7l38.25,11.23v.07a5.89,5.89,0,0,0,5.43,5.87h0l.31,0,.23,0h.48l9.42,38.86a5.88,5.88,0,0,0-2.23,8.7L244.6,166.5a5.88,5.88,0,0,0-9.2,2.05l-38.11-11.19a6.11,6.11,0,0,0,.07-.86,5.89,5.89,0,0,0-5.89-5.89h0L182,111.83a5.68,5.68,0,0,0,.91-.59,5.88,5.88,0,1,0-3.48,1.15h.25l9.39,38.71a5.87,5.87,0,0,0-2.31,9l-29,27.61a5.79,5.79,0,0,0-3.6-1.24,5.89,5.89,0,0,0-5.22,3.17l-38.1-11.19a5.12,5.12,0,0,0,0-.56,5.89,5.89,0,0,0-5.89-5.89H105l-9.45-39a5.88,5.88,0,1,0-2.64.63l.33,0,9.43,38.89a5.89,5.89,0,0,0-2.47,8.63L71.38,208.57a5.87,5.87,0,0,0-8.61,2.13L24.49,199.46q0-.33,0-.66a5.89,5.89,0,1,0-.78,2.93L62.13,213c0,.12,0,.25,0,.38A5.89,5.89,0,0,0,68,219.28h.14L77.55,258a5.89,5.89,0,1,0,7.63,8.16l38.25,11.23c0,.14,0,.28,0,.43a5.89,5.89,0,0,0,5.89,5.89l.31,0L139,322.54a5.88,5.88,0,1,0,2.51-.57h-.18l-9.43-38.85a5.87,5.87,0,0,0,2.46-8.24l29-27.66a5.89,5.89,0,0,0,8.61-2l38.33,11.26a5,5,0,0,0,0,.67,5.88,5.88,0,0,0,5.89,5.89h.09l9.41,38.79a5.87,5.87,0,1,0,2.5-.57H228l-9.4-38.75a5.88,5.88,0,0,0,2.41-8.73l28.75-27.42a5.88,5.88,0,0,0,8.76-2.16l38.05,11.17a5.68,5.68,0,0,0-.05.72,5.89,5.89,0,0,0,5.89,5.89l.42,0,9.46,39a5.88,5.88,0,1,0,2.71-.67l-.41,0-9.46-39A5.89,5.89,0,0,0,307.4,233l29-27.64a5.88,5.88,0,0,0,8.41-2.2l38.56,11.32a1.48,1.48,0,0,0,0,.21,5.89,5.89,0,0,0,5.89,5.89h.06l9.41,38.8a5.89,5.89,0,0,0-2.36,8.6l-29.14,27.78a5.93,5.93,0,1,0,1.67,1.7l29.18-27.81a6,6,0,0,0,3.18.93,5.87,5.87,0,0,0,5.08-2.93l38.33,11.26c0,.08,0,.16,0,.25a5.89,5.89,0,0,0,5.89,5.89h.24l9.46,39a5.88,5.88,0,1,0,2.38-.51h0l-9.49-39.09a5.88,5.88,0,0,0,2.58-8.19l29-27.69a5.81,5.81,0,0,0,3.36,1.06,5.89,5.89,0,0,0,5.08-2.92l38.14,11.2c0,.22,0,.45,0,.68a5.89,5.89,0,0,0,5.89,5.89l.31,0,9.39,38.7a5.9,5.9,0,0,0-3.59,5.43,5.77,5.77,0,0,0,.9,3.1l-28.82,27.47a5.82,5.82,0,0,0-3.46-1.13,5.89,5.89,0,1,0,5.89,5.89,5.83,5.83,0,0,0-.82-3l28.85-27.51a5.8,5.8,0,0,0,3.35,1.06,5.91,5.91,0,0,0,5.31-3.34l38.15,11.2a5.68,5.68,0,0,0-.05.72,5.89,5.89,0,0,0,5.89,5.89l.48,0,9.4,38.76a5.88,5.88,0,1,0,2.58-.6h-.26l-9.42-38.84a5.89,5.89,0,0,0,3.11-5.19,5.82,5.82,0,0,0-.87-3.07l29-27.64a5.87,5.87,0,0,0,8.82-2.14l38,11.17c0,.14,0,.29,0,.43a5.89,5.89,0,1,0,11-3l29-27.65a5.88,5.88,0,0,0,8.34-2l38.3,11.25c0,.11,0,.21,0,.32a5.89,5.89,0,0,0,5.89,5.89H772l9.49,39.14a5.89,5.89,0,1,0,7.9,8l38,11.16c0,.18,0,.36,0,.55a5.89,5.89,0,0,0,5.89,5.89h.29L842.88,390a5.88,5.88,0,0,0,1.54,11.23ZM741.13,130.73a5.9,5.9,0,0,0-.73-2.83l29.06-27.7a5.89,5.89,0,0,0,8.41-2L816,109.43a1.94,1.94,0,0,0,0,.24,5.89,5.89,0,0,0,5.89,5.89h.33l9.39,38.69a5.89,5.89,0,0,0-2.47,8.91L800.3,190.58a5.87,5.87,0,0,0-8.9,2L753.34,181.4c0-.22,0-.44,0-.67a5.89,5.89,0,0,0-5.89-5.89h-.16L737.9,136A5.88,5.88,0,0,0,741.13,130.73Zm-86.28,21.32a5.8,5.8,0,0,0-1-3.21l28.94-27.58a5.89,5.89,0,0,0,8.23-2.09l38.3,11.25c0,.11,0,.21,0,.31a5.88,5.88,0,0,0,5.89,5.89h.35L745,175.4a5.89,5.89,0,0,0-2.39,8.64l-28.77,27.43a5.86,5.86,0,0,0-8.69,2.2l-38.23-11.23c0-.13,0-.25,0-.38a5.88,5.88,0,0,0-5.89-5.89h-.22l-9.4-38.79A5.87,5.87,0,0,0,654.85,152.05ZM568,172.82a5.86,5.86,0,0,0-.75-2.88l29-27.69a5.88,5.88,0,0,0,8.51-2l38.34,11.26a4.89,4.89,0,0,0,0,.54,5.89,5.89,0,0,0,5.89,5.89h.14l9.41,38.81a5.86,5.86,0,0,0-2.51,8.32l-29.12,27.77a5.79,5.79,0,0,0-3.51-1.17,5.88,5.88,0,0,0-5.08,2.91l-38.22-11.22c0-.09,0-.18,0-.27a5.89,5.89,0,0,0-5.81-5.89l-9.5-39.15A5.86,5.86,0,0,0,568,172.82ZM420.08,129.41a5.83,5.83,0,0,0-.84-3l29-27.65a5.87,5.87,0,0,0,8.65-1.92l38,11.17c0,.12,0,.24,0,.36a5.89,5.89,0,0,0,5.89,5.89H501L510.4,153a5.88,5.88,0,0,0-2.5,8.68l-28.75,27.4a5.88,5.88,0,0,0-9,2l-38.05-11.17a5.86,5.86,0,0,0-5.84-6.62h-.17l-9.36-38.59A5.91,5.91,0,0,0,420.08,129.41ZM268.62,90.83l.06,0,.2-.11.17-.1.07,0,0,0,.18-.12a1.3,1.3,0,0,0,.23-.18.9.9,0,0,0,.19-.15l.17-.15,0,0,0,0c.06,0,.11-.11.17-.17l.15-.17a2.11,2.11,0,0,0,.19-.23l.13-.17,0,0,0-.07a1,1,0,0,0,.11-.17,1.74,1.74,0,0,0,.11-.18l.15-.27c0-.07.07-.14.1-.22l.05-.1.06-.15a2.47,2.47,0,0,0,.1-.29.88.88,0,0,0,.05-.15l0,0,.06-.26s0-.07,0-.1,0-.11,0-.17a3.11,3.11,0,0,0,0-.32,1.5,1.5,0,0,0,0-.22,1.62,1.62,0,0,0,0-.22.28.28,0,0,1,0-.09v-.23a1.64,1.64,0,0,0,0-.22v0s0-.1,0-.15a5.7,5.7,0,0,0-.53-2.41L299.84,55.6a5.89,5.89,0,0,0,8.74-2.33L347,64.56c0,.13,0,.25,0,.38a5.89,5.89,0,0,0,5.89,5.89H353l9.41,38.79a5.87,5.87,0,0,0-2.45,8.47l-28.81,27.46a5.88,5.88,0,0,0-9.24,2l-37.77-11.09a6.4,6.4,0,0,0,.07-.88,5.88,5.88,0,0,0-5.89-5.89H278ZM160.94,242.45a5.88,5.88,0,0,0,.84,3l-29,27.64a5.89,5.89,0,0,0-8.7,2L85.87,263.91c0-.17,0-.35,0-.52A5.89,5.89,0,0,0,80,257.5h-.13l-9.4-38.78A5.88,5.88,0,0,0,73,210.31l28.85-27.51a5.81,5.81,0,0,0,3.19.95,5.89,5.89,0,0,0,5.16-3l38.15,11.2c0,.14,0,.28,0,.42a5.89,5.89,0,0,0,5.89,5.89l.46,0,9.46,39A5.9,5.9,0,0,0,160.94,242.45Zm86.41-20.78a5.88,5.88,0,0,0,.81,3L219.27,252.2a5.86,5.86,0,0,0-8.19,2.06L172.69,243a4.58,4.58,0,0,0,0-.53,5.89,5.89,0,0,0-5.89-5.89l-.36,0L157,197.53a5.89,5.89,0,0,0,2.4-8l29.21-27.85a5.78,5.78,0,0,0,2.86.75l.29,0h.15l.22,0,.32,0,.17,0,.1,0,.26,0H193l.15,0a2.46,2.46,0,0,0,.29-.09l.15-.05.11,0,.22-.09.27-.14.19-.1.18-.1.07,0,0,0,.17-.11.25-.19.17-.14.18-.16,0,0,0,0,.16-.16.16-.18a2.11,2.11,0,0,0,.19-.23,1.09,1.09,0,0,0,.13-.17v0a.18.18,0,0,0,.05-.07,1,1,0,0,0,.11-.17,1.74,1.74,0,0,0,.11-.18.25.25,0,0,0,0-.07l38.41,11.28s0,.05,0,.08a5.89,5.89,0,0,0,5.89,5.89h.43l9.57,39.46A5.9,5.9,0,0,0,247.35,221.67Zm86.35-21.23a5.85,5.85,0,0,0,1,3.26l-28.93,27.59a5.89,5.89,0,0,0-8.41,1.88l-38.23-11.23a2.45,2.45,0,0,0,0-.27,5.89,5.89,0,0,0-5.89-5.89h-.15l-9.58-39.49.07,0,.19-.1.18-.1a.18.18,0,0,1,.07,0l0,0,.17-.11.24-.18.18-.15.18-.16,0,0,0,0,.16-.16.16-.17.19-.24a1.83,1.83,0,0,1,.13-.16v0l.05-.06.11-.17.11-.19.15-.26a2.14,2.14,0,0,1,.1-.22.31.31,0,0,1,.05-.1.88.88,0,0,0,0-.15c0-.1.08-.2.11-.3a.78.78,0,0,1,0-.14h0a5.88,5.88,0,0,0,.36-2,5.8,5.8,0,0,0-.59-2.56l29.18-27.82a5.87,5.87,0,0,0,8-1.91l38.07,11.19v.1a5.89,5.89,0,0,0,5.89,5.89h.53L337.26,195A5.89,5.89,0,0,0,333.7,200.44Zm55.54,8.38a5.87,5.87,0,0,0-5.31,3.35l-38.47-11.29c0-.15,0-.29,0-.44a5.89,5.89,0,0,0-5.87-5.89l-9.52-39.24.06,0,.2-.1.17-.1.07,0h0l.18-.12.24-.18.18-.15.17-.15,0,0,0,0,.17-.17.15-.17.2-.23.12-.17,0,0,0-.06.12-.17.11-.19c.05-.08.09-.17.14-.26a2.14,2.14,0,0,0,.1-.22l0-.1.06-.15c0-.1.07-.19.1-.29a.88.88,0,0,0,.05-.15l0-.06.06-.25a.43.43,0,0,0,0-.11c0-.05,0-.11,0-.16s0-.21,0-.31l0-.23v-.16a6.32,6.32,0,0,0,.06-.75,5.94,5.94,0,0,0-.56-2.49l29-27.67a5.88,5.88,0,0,0,8.48-2.06L408.32,129c0,.14,0,.28,0,.42a5.89,5.89,0,0,0,5.89,5.89h.25l9.36,38.56a5.86,5.86,0,0,0-2.35,8.67l-28.76,27.42A5.88,5.88,0,0,0,389.24,208.82Zm92.93,35a5.85,5.85,0,0,0,.89,3.1l-29,27.62a5.88,5.88,0,0,0-8.85,2.12L407.08,265.4a5.34,5.34,0,0,0,.05-.69,5.89,5.89,0,0,0-5.89-5.89H401l-9.4-38.74a5.87,5.87,0,0,0,2.67-8.38l28.88-27.54a5.86,5.86,0,0,0,8.18-2l38.23,11.23c0,.09,0,.17,0,.25a5.89,5.89,0,0,0,5.89,5.89l.38,0,9.47,39A5.88,5.88,0,0,0,482.17,243.77Zm55,9a5.87,5.87,0,0,0-5.09,2.94l-38.14-11.2a5.36,5.36,0,0,0,.05-.7,5.89,5.89,0,0,0-5.89-5.89l-.44,0-9.46-39a5.89,5.89,0,0,0,2.52-8l28.93-27.59a5.83,5.83,0,0,0,3.17.93,5.9,5.9,0,0,0,5.17-3.06l38.25,11.24c0,.13,0,.27,0,.4a5.89,5.89,0,0,0,5.89,5.89l.4,0,9.45,39a5.88,5.88,0,0,0-2.69,8.6l-28.81,27.48A5.81,5.81,0,0,0,537.13,252.73Zm92.94,34.94a5.77,5.77,0,0,0,.78,2.92l-29,27.68a5.88,5.88,0,0,0-8.46,1.84L555,308.84c0-.07,0-.15,0-.22a5.88,5.88,0,0,0-5.84-5.89l-9.42-38.85a5.89,5.89,0,0,0,2.33-8.45L570.9,228a5.88,5.88,0,0,0,8.58-2.3l38,11.18a5.52,5.52,0,0,0,0,.71,5.89,5.89,0,0,0,5.89,5.89c.21,0,.42,0,.63,0l9.44,38.94A5.89,5.89,0,0,0,630.07,287.67Zm86.47-21.41a5.92,5.92,0,0,0,1,3.25L688.6,297.08a5.86,5.86,0,0,0-8.66,2l-38.11-11.19a2,2,0,0,0,0-.25,5.89,5.89,0,0,0-5.89-5.89h-.19l-9.49-39.12a5.87,5.87,0,0,0,2.19-8l29.15-27.79a5.82,5.82,0,0,0,3.43,1.12,5.91,5.91,0,0,0,5.24-3.2L704.55,216c0,.1,0,.19,0,.28a5.88,5.88,0,0,0,5.89,5.89h.08l9.41,38.79A5.88,5.88,0,0,0,716.54,266.26Zm55.18,8.58a5.89,5.89,0,0,0-5.26,3.26l-38.18-11.21a4.44,4.44,0,0,0,0-.63,5.89,5.89,0,0,0-5.89-5.89h-.19l-9.4-38.75a5.86,5.86,0,0,0,2.62-8.41l28.87-27.52a5.88,5.88,0,0,0,8.26-2l38.2,11.22c0,.1,0,.21,0,.31a5.89,5.89,0,0,0,5.89,5.89l.4,0,9.47,39a5.88,5.88,0,0,0-2.31,8.28l-29,27.64A5.82,5.82,0,0,0,771.72,274.84Z"/></svg>