<svg id="Capa_1" data-name="Capa 1" xmlns="http://www.w3.org/2000/svg" viewBox="0 0 225.44 205.02"><defs><style>.cls-1{fill:#ebebeb;}.cls-2{fill:#f0f0f0;}.cls-3{fill:#f5f5f5;}.cls-4{fill:#e0e0e0;}.cls-10,.cls-11,.cls-15,.cls-16,.cls-5{fill:#fff;}.cls-6{fill:#e6e6e6;}.cls-7{fill:#ff0505;}.cls-8,.cls-9{fill:#263238;}.cls-15,.cls-17,.cls-20,.cls-8{opacity:0.3;}.cls-10,.cls-11,.cls-12,.cls-15,.cls-16,.cls-20,.cls-8{isolation:isolate;}.cls-10{opacity:0.1;}.cls-11,.cls-12{opacity:0.2;}.cls-13{fill:#a02724;}.cls-14{fill:#b55b52;}.cls-16{opacity:0.4;}.cls-18{opacity:0.5;}.cls-19{fill:#ffc3bd;}.cls-21{fill:#ed847e;}</style></defs><g id="freepik--background-complete--inject-37"><rect class="cls-1" x="-3.2" y="167.94" width="231.84" height="0.12"/><rect class="cls-1" x="180.8" y="175.4" width="24.61" height="0.12"/><rect class="cls-1" x="123.18" y="173.95" width="27.2" height="0.12"/><rect class="cls-1" x="173.09" y="173.28" width="8.9" height="0.12"/><rect class="cls-1" x="43.39" y="171.88" width="20.03" height="0.12"/><rect class="cls-1" x="33.64" y="171.88" width="7.16" height="0.12"/><rect class="cls-1" x="57.76" y="173.84" width="25.13" height="0.12"/><path class="cls-1" d="M106.69,147.26H17.16a2.64,2.64,0,0,1-2.64-2.64V18.76a2.64,2.64,0,0,1,2.64-2.62h89.53a2.65,2.65,0,0,1,2.65,2.64h0V144.62A2.65,2.65,0,0,1,106.69,147.26Zm-89.53-131a2.53,2.53,0,0,0-2.53,2.53V144.62a2.54,2.54,0,0,0,2.53,2.53h89.53a2.54,2.54,0,0,0,2.53-2.53V18.76a2.53,2.53,0,0,0-2.53-2.53Z"/><path class="cls-1" d="M207,147.26H117.45a2.64,2.64,0,0,1-2.64-2.64V18.76a2.64,2.64,0,0,1,2.64-2.62H207a2.65,2.65,0,0,1,2.64,2.62V144.62A2.64,2.64,0,0,1,207,147.26Zm-89.54-131a2.53,2.53,0,0,0-2.53,2.53V144.62a2.55,2.55,0,0,0,2.53,2.53H207a2.54,2.54,0,0,0,2.53-2.53V18.76A2.53,2.53,0,0,0,207,16.23Z"/><rect class="cls-2" x="120.47" y="106.05" width="4.87" height="57.97"/><rect class="cls-2" x="26.82" y="164.02" width="96.65" height="3.86"/><rect class="cls-3" x="24.95" y="106.05" width="95.52" height="57.97"/><rect class="cls-4" x="121.62" y="102.39" width="5.04" height="3.65"/><rect class="cls-1" x="23.64" y="102.39" width="97.97" height="3.65"/><rect class="cls-5" x="28.78" y="110.54" width="87.85" height="20" rx="3.61"/><rect class="cls-5" x="28.78" y="136.51" width="87.85" height="20" rx="3.61"/><rect class="cls-3" x="51.12" y="109.94" width="43.17" height="2.74" rx="0.82"/><rect class="cls-3" x="51.12" y="135.91" width="43.17" height="2.74" rx="0.82"/><rect class="cls-6" x="189.45" y="125.07" width="14.7" height="2.81"/><rect class="cls-6" x="178.19" y="71.78" width="2.71" height="96.17"/><rect class="cls-3" x="168.8" y="125.06" width="20.66" height="2.81"/><rect class="cls-6" x="189.45" y="150.94" width="14.7" height="2.81"/><rect class="cls-3" x="168.8" y="150.94" width="20.66" height="2.81"/><rect class="cls-6" x="189.45" y="73.32" width="14.7" height="2.81"/><rect class="cls-3" x="168.8" y="73.32" width="20.66" height="2.81"/><rect class="cls-6" x="189.45" y="99.19" width="14.7" height="2.81"/><rect class="cls-3" x="168.8" y="99.19" width="20.66" height="2.81"/><rect class="cls-6" x="198.85" y="71.78" width="2.71" height="96.17"/><rect class="cls-3" x="186.74" y="71.78" width="2.71" height="96.17"/><rect class="cls-3" x="168.8" y="71.78" width="2.71" height="96.17"/><rect class="cls-4" x="37.55" y="29.29" width="122.5" height="65.04"/><rect class="cls-3" x="34.46" y="29.29" width="123.85" height="65.04"/><rect class="cls-5" x="38.89" y="34.41" width="114.97" height="54.79"/></g><g id="freepik--Shadow--inject-37"><ellipse id="freepik--path--inject-37" class="cls-3" cx="112.72" cy="183.63" rx="89.9" ry="5.25"/></g><g id="freepik--Desk--inject-37"><path class="cls-7" d="M176.62,113.15H48.06a1.56,1.56,0,0,1-1.55-1.55h0a1.54,1.54,0,0,1,1.55-1.54H176.62a1.56,1.56,0,0,1,1.55,1.54h0A1.57,1.57,0,0,1,176.62,113.15Z"/><path class="cls-8" d="M176.62,113.15H146.53A1.56,1.56,0,0,1,145,111.6h0a1.54,1.54,0,0,1,1.55-1.54h30.09a1.56,1.56,0,0,1,1.55,1.54h0A1.57,1.57,0,0,1,176.62,113.15Z"/><rect class="cls-9" x="74.48" y="117.02" width="98.88" height="10.76"/><rect class="cls-10" x="74.48" y="117.02" width="98.88" height="10.76"/><polygon class="cls-9" points="171.92 181.49 174.88 181.49 174.76 113.14 170.66 113.14 171.92 181.49"/><polygon class="cls-10" points="171.92 181.49 174.88 181.49 174.76 113.14 170.66 113.14 171.92 181.49"/><polygon class="cls-9" points="144.66 181.49 141.69 181.49 148.39 113.14 152.49 113.14 144.66 181.49"/><polygon class="cls-11" points="144.66 181.49 141.69 181.49 148.39 113.14 152.49 113.14 144.66 181.49"/><polygon class="cls-9" points="73.45 181.49 76.41 181.49 76.29 113.14 72.19 113.14 73.45 181.49"/><polygon class="cls-10" points="73.45 181.49 76.41 181.49 76.29 113.14 72.19 113.14 73.45 181.49"/><polygon class="cls-9" points="46.19 181.49 43.22 181.49 49.92 113.14 54.02 113.14 46.19 181.49"/><polygon class="cls-11" points="46.19 181.49 43.22 181.49 49.92 113.14 54.02 113.14 46.19 181.49"/><polygon class="cls-9" points="129.46 110.06 122.64 110.06 119.91 96.71 126.73 96.71 129.46 110.06"/><path class="cls-9" d="M138.52,107.31H108.91a1.68,1.68,0,0,1-1.69-1.65s0-.09,0-.14l1.13-18.74A1.93,1.93,0,0,1,110.25,85h29.62a1.67,1.67,0,0,1,1.68,1.66v.13l-1.14,18.74A1.93,1.93,0,0,1,138.52,107.31Z"/><path class="cls-7" d="M138.05,107.31H108.44a1.66,1.66,0,0,1-1.68-1.65.71.71,0,0,1,0-.14l1.13-18.74A1.93,1.93,0,0,1,109.79,85H139.4a1.68,1.68,0,0,1,1.69,1.66.62.62,0,0,1,0,.13L140,105.52A1.93,1.93,0,0,1,138.05,107.31Z"/><path class="cls-5" d="M108.44,106.38a.75.75,0,0,1-.55-.23.76.76,0,0,1-.2-.57l1.13-18.75a1,1,0,0,1,1-.93H139.4a.76.76,0,0,1,.76.73.22.22,0,0,1,0,.08L139,105.45a1,1,0,0,1-1,.93Z"/><polygon class="cls-12" points="121.44 84.99 123.37 91.58 129.08 84.99 121.44 84.99"/></g><g id="freepik--Character--inject-37"><path class="cls-9" d="M75.42,69c0,.36.27.63.5.61s.39-.32.34-.68-.27-.63-.5-.61S75.37,68.65,75.42,69Z"/><path class="cls-13" d="M75.81,69.53a11.05,11.05,0,0,0,1.6,2.57,1.72,1.72,0,0,1-1.44.31Z"/><path class="cls-9" d="M74.23,67.64h-.1a.22.22,0,0,1-.12-.28,2,2,0,0,1,1.44-1.25.21.21,0,0,1,.24.17h0a.22.22,0,0,1-.17.25,1.56,1.56,0,0,0-1.11,1A.26.26,0,0,1,74.23,67.64Z"/><path class="cls-14" d="M64.91,74.59l2.78,2.13,3.8,2.91A4,4,0,0,0,71.12,81c-.14,1.07-.27,1.86,2.1,2.51a1.34,1.34,0,0,1,1,1c.09.63-.29,1.39-2.48,1.77a10,10,0,0,1-6.18-1c-.93-.47-.93-1-.54-2C66.2,80.66,65.63,77.25,64.91,74.59Z"/><path class="cls-7" d="M61.72,84.18A19.48,19.48,0,0,0,63,81s7-.38,9.38.31S76.18,85,76.18,85Z"/><path class="cls-14" d="M64.66,89.42c-.17.52-.36,1.16-.54,1.74L63.6,93c-.33,1.21-.64,2.42-.89,3.62a35.93,35.93,0,0,0-.6,3.57,17.64,17.64,0,0,0-.1,3.33,7.32,7.32,0,0,0,.22,1.39c0,.09.05.19.08.28l.09.25h0l-.07-.13a1.46,1.46,0,0,0-.16-.19.9.9,0,0,0-.2-.19c-.09-.07-.11-.06-.09,0a2.38,2.38,0,0,0,.44.25,7.31,7.31,0,0,0,.72.27c.52.18,1.1.34,1.7.5,2.39.6,5,1.07,7.55,1.61l-.09,3.22c-1.36.18-2.72.29-4.1.34a41.45,41.45,0,0,1-4.17-.07,20.15,20.15,0,0,1-2.19-.27,11.78,11.78,0,0,1-1.19-.27,6.81,6.81,0,0,1-1.39-.51,5.57,5.57,0,0,1-.93-.58,4.07,4.07,0,0,1-.56-.54q-.16-.19-.3-.39c0-.08-.1-.16-.14-.24l-.06-.11-.32-.66c-.1-.21-.18-.43-.26-.64a13.77,13.77,0,0,1-.63-2.51,27.42,27.42,0,0,1,.39-8.89c.26-1.39.56-2.78.92-4.11.19-.67.38-1.34.59-2s.43-1.31.7-2Z"/><path class="cls-7" d="M60.38,83.6c4.38-1.15,7,2.43,5.49,8.35s-2,6.14-2,6.14l-9-1.51C56,90.79,55.88,84.79,60.38,83.6Z"/><path class="cls-14" d="M74.53,106.21l-.68-.06c-1.94,0-2.27.53-3.46,1.64l-.47,2.43c3.13,1.6,4.81-.15,4.81-.15h2.9l-1-2.32A2.54,2.54,0,0,0,74.53,106.21Z"/><path class="cls-14" d="M63.71,70c.79,4.22,1,6.73,3.46,8.62,3.63,2.83,8.64.14,9.13-4.25.44-4-.93-10.21-5.29-11.31a6,6,0,0,0-7.23,4.36A6.07,6.07,0,0,0,63.71,70Z"/><path class="cls-9" d="M72.08,71.45c3-.24,2.14-3.42,1.2-4.08a2.79,2.79,0,0,0,1-4.32c.8-2.08-1.48-4.59-5.48-4.21-2.92.26-3.25,1.81-3.25,1.81s-3.5-.37-4.95,2.52c-1.25,2.48.26,3.8.26,3.8s-2.62.76-1.89,4.17c.77,3.68,3.6,2.83,3.6,2.83s-.64,3.38,3.19,3.42c3.3,0,3.34-2.43,3.34-2.43S73.42,74.56,72.08,71.45Z"/><path class="cls-14" d="M69.84,71.7a4,4,0,0,0,1.85,2.1c1.11.57,2-.6,1.76-1.81s-1.12-2.47-2.29-2.53S69.43,70.58,69.84,71.7Z"/><polygon class="cls-14" points="114.79 176.18 118.91 174.51 116 164.61 111.88 166.28 114.79 176.18"/><polygon class="cls-12" points="113.29 171.08 117.46 169.55 116 164.61 111.88 166.28 113.29 171.08"/><path class="cls-9" d="M118.56,172.86l-4.72,1.63a.32.32,0,0,0-.21.4h0l1.07,3.81a.79.79,0,0,0,1,.49c1.62-.6,2.28-.93,4.29-1.8s3.92-1.76,5.81-2.78c1.57-.93.63-2.51-.14-2.25-1.81.61-4.78,1-6.29.49A1.25,1.25,0,0,0,118.56,172.86Z"/><path class="cls-9" d="M81.69,119.07s31.15,2.78,32,11.75c1.62,18.23,4.11,35.81,4.11,35.81L111.42,169s-7.76-20-7.65-34.31c-9-2.53-32.62,1.19-36.48-5.74-3.41-6.12-.42-10.52-.42-10.52Z"/><polygon class="cls-7" points="110.95 170.4 118.84 167.73 118.5 164.14 109.6 167 110.95 170.4"/><path class="cls-7" d="M120.3,173.05a5.27,5.27,0,0,1-1.17.23.09.09,0,0,1-.1-.05.08.08,0,0,1,0-.11c.1-.14,1-1.36,1.59-1.34a.4.4,0,0,1,.32.2.56.56,0,0,1,.06.57A1.26,1.26,0,0,1,120.3,173.05Zm-.93,0c.8-.11,1.35-.33,1.47-.59a.34.34,0,0,0,0-.37.18.18,0,0,0-.16-.1c-.33,0-.9.58-1.28,1.06Z"/><path class="cls-7" d="M119.15,173.28h-.05a.12.12,0,0,1-.08-.06c0-.05-.53-1.23-.25-1.78a.49.49,0,0,1,.36-.28.4.4,0,0,1,.47.17,2.31,2.31,0,0,1-.4,1.91A.1.1,0,0,1,119.15,173.28Zm0-1.9a.31.31,0,0,0-.18.16,2.3,2.3,0,0,0,.19,1.43,2.13,2.13,0,0,0,.27-1.53.19.19,0,0,0-.23-.08Z"/><polygon class="cls-14" points="92.73 179.13 97.14 178.92 97.86 168.52 93.45 168.73 92.73 179.13"/><path class="cls-9" d="M97.24,178.17l-5-.16a.33.33,0,0,0-.34.29h0l-.36,3.94a.79.79,0,0,0,.76.82h0c1.74,0,2.57-.05,4.76,0a40.77,40.77,0,0,0,5.86,0c1.85-.24,1.56-2.06.76-2.13A12.13,12.13,0,0,1,98,178.44,1.23,1.23,0,0,0,97.24,178.17Z"/><path class="cls-7" d="M98.81,179a5.94,5.94,0,0,1-1.18-.2.1.1,0,0,1-.08-.12.1.1,0,0,1,0-.06c.14-.1,1.43-.93,2-.69a.39.39,0,0,1,.24.3.61.61,0,0,1-.15.56A1.19,1.19,0,0,1,98.81,179Zm-.89-.34c.79.18,1.39.18,1.59,0a.38.38,0,0,0,.08-.37.19.19,0,0,0-.11-.15c-.3-.14-1.06.21-1.6.52Z"/><path class="cls-7" d="M97.64,178.8h-.06a.16.16,0,0,1,0-.09c0-.05-.06-1.33.4-1.75a.5.5,0,0,1,.47-.13.39.39,0,0,1,.36.33c.09.48-.6,1.39-1.05,1.64ZM98.3,177a.31.31,0,0,0-.23.08,2.32,2.32,0,0,0-.33,1.39c.39-.31.86-1,.8-1.32,0-.06-.05-.13-.19-.15Z"/><polygon class="cls-12" points="93.45 168.73 97.86 168.52 97.45 174.47 93.06 174.46 93.45 168.73"/><path class="cls-9" d="M71.34,118.58s33.57,5.13,33,12.86c-1,13.91-5.62,41.09-5.62,41.09l-6.61.1s-1.57-27.89.92-38c-8.25,0-31.55-.29-34.73-4.53-3.51-4.69.1-12.06.1-12.06Z"/><polygon class="cls-7" points="91.36 173.15 99.36 173.02 99.75 168.79 90.97 169.13 91.36 173.15"/><path class="cls-7" d="M77.25,83.14c-2.71-.53-14.9-.38-14.9-.38a4.88,4.88,0,0,0-5,4.32c-.42,3.76,2,12.16,2,16.44.1,5.27-.91,7.4-1,14.48l23.27,1.07c0-14.25-.63-26-1.19-31.7C80.3,85.38,80,83.66,77.25,83.14Z"/><path class="cls-15" d="M77.25,83.14c-2.71-.53-14.9-.38-14.9-.38a4.88,4.88,0,0,0-5,4.32c-.42,3.76,2,12.16,2,16.44.1,5.27-.91,7.4-1,14.48l23.27,1.07c0-14.25-.63-26-1.19-31.7C80.3,85.38,80,83.66,77.25,83.14Z"/><path class="cls-14" d="M80.43,87.62c.73,2.51,1.46,5.08,2.22,7.6s1.53,5,2.4,7.41c.21.61.47,1.18.67,1.76l.36.82,0,.1v.08h0v0a2.19,2.19,0,0,0-.29-.39c-.16-.15-.22-.17-.24-.17A1.13,1.13,0,0,0,86,105a4.26,4.26,0,0,0,.7.28c.52.19,1.11.35,1.71.51,2.42.62,5.07,1.09,7.65,1.64l-.09,3.21a38.64,38.64,0,0,1-4.17.34,35.3,35.3,0,0,1-4.24-.08,20.9,20.9,0,0,1-2.23-.28c-.39-.08-.79-.17-1.23-.3a6.59,6.59,0,0,1-1.48-.61,4.6,4.6,0,0,1-1-.78,3.89,3.89,0,0,1-.6-.8l-.15-.29-.53-1c-.3-.65-.64-1.31-.93-2-.57-1.3-1.07-2.59-1.57-3.89s-.93-2.58-1.36-3.88c-.85-2.61-1.63-5.19-2.31-7.88Z"/><path class="cls-7" d="M73.83,85c3.18-3.24,7.24-1.47,9,4.39s1.43,6.29,1.43,6.29L75.71,99C73.69,93.45,70.57,88.35,73.83,85Z"/><path class="cls-14" d="M98.28,106.21l-.68-.06c-1.94,0-2.27.53-3.46,1.64l-.46,2.43c3.13,1.6,4.8-.15,4.8-.15h2.91l-1-2.32A2.52,2.52,0,0,0,98.28,106.21Z"/><rect class="cls-7" x="58.26" y="132" width="32.08" height="4.28" rx="1.18"/><polygon class="cls-7" points="59.58 183.87 58.26 183.87 59.78 136.27 61.6 136.27 59.58 183.87"/><polygon class="cls-16" points="59.58 183.87 58.26 183.87 59.78 136.27 61.6 136.27 59.58 183.87"/><polygon class="cls-7" points="71.69 183.87 73 183.87 71.49 136.27 69.67 136.27 71.69 183.87"/><polygon class="cls-16" points="71.69 183.87 73 183.87 71.49 136.27 69.67 136.27 71.69 183.87"/><polygon class="cls-7" points="76.91 183.87 75.59 183.87 77.11 136.27 78.93 136.27 76.91 183.87"/><polygon class="cls-16" points="76.91 183.87 75.59 183.87 77.11 136.27 78.93 136.27 76.91 183.87"/><polygon class="cls-7" points="89.02 183.87 90.34 183.87 88.83 136.27 87 136.27 89.02 183.87"/><polygon class="cls-16" points="89.02 183.87 90.34 183.87 88.83 136.27 87 136.27 89.02 183.87"/><g class="cls-17"><polygon class="cls-7" points="59.78 136.27 61.6 136.27 61.51 138.29 59.71 138.29 59.78 136.27"/><polygon class="cls-7" points="71.55 138.29 69.75 138.29 69.67 136.27 71.49 136.27 71.55 138.29"/><polygon class="cls-7" points="78.93 136.27 78.84 138.29 77.04 138.29 77.11 136.27 78.93 136.27"/><polygon class="cls-7" points="88.89 138.29 87.09 138.29 87 136.27 88.83 136.27 88.89 138.29"/></g></g><g id="freepik--Telecommuting--inject-37"><path class="cls-7" d="M177.17,78.09H102.9A4.17,4.17,0,0,1,98.69,74c0-.12,0-.23,0-.35l2.83-47a4.83,4.83,0,0,1,4.75-4.47h74.25a4.16,4.16,0,0,1,4.21,4.13c0,.11,0,.23,0,.34l-2.84,47A4.83,4.83,0,0,1,177.17,78.09Z"/><polygon class="cls-7" points="112.84 68.15 119.69 91.58 140.01 68.15 112.84 68.15"/><path class="cls-10" d="M173.55,59.17H131.93a2.34,2.34,0,0,1-2.37-2.31,1.15,1.15,0,0,1,0-.19l1.59-26.35a2.71,2.71,0,0,1,2.66-2.51h41.62a2.32,2.32,0,0,1,2.37,2.27,1.93,1.93,0,0,1,0,.24l-1.59,26.35A2.71,2.71,0,0,1,173.55,59.17Z"/><path class="cls-10" d="M151.28,70.54H109.66a2.34,2.34,0,0,1-2.36-2.32V68l1.59-26.35a2.71,2.71,0,0,1,2.66-2.5h41.62a2.32,2.32,0,0,1,2.37,2.27,1.69,1.69,0,0,1,0,.23L153.94,68A2.71,2.71,0,0,1,151.28,70.54Z"/><g class="cls-18"><path class="cls-5" d="M109.11,26.23a1.44,1.44,0,0,1-1.33,1.39,1.22,1.22,0,0,1-1.15-1.27s0-.08,0-.12a1.46,1.46,0,0,1,1.34-1.4,1.21,1.21,0,0,1,1.14,1.27S109.11,26.18,109.11,26.23Z"/><path class="cls-5" d="M113.65,26.23a1.45,1.45,0,0,1-1.33,1.39,1.21,1.21,0,0,1-1.15-1.26.53.53,0,0,1,0-.13,1.45,1.45,0,0,1,1.33-1.4,1.22,1.22,0,0,1,1.15,1.27S113.65,26.18,113.65,26.23Z"/><path class="cls-5" d="M118.22,26.23a1.44,1.44,0,0,1-1.33,1.39,1.22,1.22,0,0,1-1.15-1.27s0-.08,0-.12a1.44,1.44,0,0,1,1.33-1.4,1.21,1.21,0,0,1,1.14,1.27S118.22,26.18,118.22,26.23Z"/></g><path class="cls-8" d="M176.59,77.65H102.35A4.3,4.3,0,0,1,98,73.39c0-.11,0-.23,0-.34l2.83-47a5,5,0,0,1,4.86-4.59H180a4.29,4.29,0,0,1,4.33,4.27c0,.11,0,.22,0,.33l-2.83,47A4.94,4.94,0,0,1,176.59,77.65ZM105.72,21.7a4.7,4.7,0,0,0-4.63,4.37l-2.84,47A4,4,0,0,0,102,77.41a1.9,1.9,0,0,0,.34,0h74.25a4.71,4.71,0,0,0,4.64-4.36l2.83-47a4.06,4.06,0,0,0-3.76-4.34H105.72Z"/><path class="cls-9" d="M136.39,50.17c-.32.67-.6,1.24-.93,1.86s-.65,1.17-1,1.75c-.68,1.16-1.39,2.32-2.15,3.4-.39.56-.78,1.11-1.18,1.66s-.82,1.09-1.27,1.61a34.31,34.31,0,0,1-2.83,3.08c-.26.25-.54.46-.81.73a8.2,8.2,0,0,1-.84.7l-.89.67-.27.19c-.12.08-.25.14-.38.21a4.2,4.2,0,0,1-.8.28,3.78,3.78,0,0,1-3.15-.69,3.72,3.72,0,0,1-.6-.59l-.13-.16-.06-.09,0,0L119,64.6l-.34-.6c-.1-.2-.17-.38-.25-.57a14.79,14.79,0,0,1-.72-2.16,28,28,0,0,1-.67-4.08,33.7,33.7,0,0,1-.18-4,1.61,1.61,0,0,1,1.64-1.56A1.58,1.58,0,0,1,120,52.76v.06a60.69,60.69,0,0,0,2.28,7,11.41,11.41,0,0,0,.72,1.39c.06.1.12.21.18.29l.18.21,0,.05h0l0,0-.06-.07a1.23,1.23,0,0,0-.25-.26,1.62,1.62,0,0,0-.63-.31,1.65,1.65,0,0,0-.7,0,1.35,1.35,0,0,0-.34.11c-.07,0-.12.06-.17.09s-.14.1-.08,0l.58-.57c.19-.17.38-.39.57-.59s.39-.4.57-.62A49.72,49.72,0,0,0,127,53.69c.63-1,1.26-2.08,1.85-3.15l.9-1.6.85-1.57,0-.08a3.2,3.2,0,0,1,5.71,2.87Z"/><path class="cls-19" d="M117.3,53,115,51.67l2.43-2.48a13.84,13.84,0,0,1,2,1.78,1.31,1.31,0,0,1-.06,1.86,1.34,1.34,0,0,1-.31.22h0A1.94,1.94,0,0,1,117.3,53Z"/><path class="cls-19" d="M114.52,49l1.23-.87a.75.75,0,0,1,1,.16l.68.89L115,51.67l-.77-1.74A.76.76,0,0,1,114.52,49Z"/><path class="cls-5" d="M131.53,48.1a3.43,3.43,0,0,1,2.68-2.39,20.93,20.93,0,0,1,2.73-.42,71.68,71.68,0,0,1,8.29.15c1.45.1,2.93.3,4.11.5h0a2.37,2.37,0,0,1,2,2.74c-.58,3.34-2.28,9.17-2.46,14.66-.25,7.22-.14,11.37-.26,13.11l-18.57-.36C128.75,58.46,130.36,52.09,131.53,48.1Z"/><path class="cls-9" d="M149.87,45.66h-.06c-1.24-.2-2.78-.42-4.32-.52l-.83,0c-.81,3.36-5.65,9-7.11,17.57-.57-7.16-1-14.64-.17-17.55a37,37,0,0,0-3.93.33,4,4,0,0,0-2.94,2.73c-1.14,3.36-3.31,10.88-2,29.37h20.63c.14-1.85-.34-5.75.4-11.74.72-5.81,1.75-13.71,2.36-17.24A2.52,2.52,0,0,0,149.87,45.66Z"/><path class="cls-11" d="M137.11,76.58a.13.13,0,0,1-.13-.12,83.3,83.3,0,0,1,.39-12.78.13.13,0,0,1,.14-.11h0a.14.14,0,0,1,.11.14,82.58,82.58,0,0,0-.39,12.73.12.12,0,0,1-.11.14h0Z"/><path class="cls-20" d="M149.15,53c-.77,3.47-.36,8.27.46,12.66.61-4.92,1.44-11.31,2-15.26C150.81,49.84,149.75,50.23,149.15,53Z"/><path class="cls-19" d="M137.33,45.27c2.41-.53,2.82-2,2.65-3.66a9.85,9.85,0,0,0-.2-1.21l3-2.46,2.21-1.8c-.6,2.66-1.27,7.51.55,9.33,0,0-1.48,2.43-5.61,2.14C136.45,47.35,137.33,45.27,137.33,45.27Z"/><polygon class="cls-4" points="140.99 46.99 140.32 47.62 142.45 48.43 142.18 47.62 140.99 46.99"/><path class="cls-3" d="M142.62,49.56S141.78,47.44,141,47a8.72,8.72,0,0,0,4.13-2.29l1.27.51S146.79,47.67,142.62,49.56Z"/><polygon class="cls-4" points="139.82 46.83 140.32 47.62 138.08 47.82 138.53 47.11 139.82 46.83"/><path class="cls-3" d="M137,49a9.85,9.85,0,0,1,2.87-2.13c-1.22-.37-1.29-2-1.29-2l-1.19.22S135.17,47.12,137,49Z"/><path class="cls-12" d="M139.78,40.39a10,10,0,0,1,.2,1.22,3.77,3.77,0,0,0,2.79-2.52,5.53,5.53,0,0,0,0-1.15Z"/><path class="cls-9" d="M136.13,28.26c-1.07,1.32-1,6.1,1.31,6.15S138.09,25.85,136.13,28.26Z"/><path class="cls-19" d="M145.94,31.73c-.23,3.62-.18,5.75-2,7.63A4.78,4.78,0,0,1,135.88,37c-.77-3.25-.26-8.62,3.27-10.09a4.89,4.89,0,0,1,6.79,4.87Z"/><path class="cls-9" d="M144.16,28.72c-2.28,2.26.68,3.91-.46,5.13,2.14,1.12,1.36,1.95,1.36,1.95a2.73,2.73,0,0,0,0,1.91c2.42-.63,6.91-8.67,2-9.9C144.13,29.12,144.16,28.72,144.16,28.72Z"/><path class="cls-9" d="M145.09,30.34c-2.15.34-4.87-.69-6.55-1.56s-1.93.77-1.31,1.27a2.13,2.13,0,0,1-2.11-2.72c.31-1.74,2.59-3.39,5.83-1.92,2.3,1,5.13-.33,6.23.88S146.53,30.12,145.09,30.34Z"/><path class="cls-9" d="M146.57,28c1.44-.19,1.5-1.1,1.1-2.7,1.56,2.22.93,2.9,0,3.44C146.64,28.37,146.57,28,146.57,28Z"/><path class="cls-19" d="M146.92,34.51a3.38,3.38,0,0,1-1.59,1.62c-.89.4-1.35-.42-1.1-1.39s.92-2.14,1.85-2.13S147.32,33.62,146.92,34.51Z"/><path class="cls-9" d="M140.29,32.83c0,.29-.16.53-.35.54s-.33-.24-.33-.54.16-.54.35-.54S140.29,32.53,140.29,32.83Z"/><path class="cls-9" d="M137,32.86c0,.29-.16.53-.35.53s-.35-.23-.35-.53.16-.53.35-.53S137,32.56,137,32.86Z"/><path class="cls-21" d="M138.22,33a10.76,10.76,0,0,1-1.39,2.53,1.67,1.67,0,0,0,1.39.25Z"/><path class="cls-9" d="M139.39,36.54a2.46,2.46,0,0,0,1.7-1,.08.08,0,0,0,0-.12.09.09,0,0,0-.12,0,2.35,2.35,0,0,1-1.9.92.09.09,0,0,0-.09.09h0a.09.09,0,0,0,.09.09h0A2,2,0,0,1,139.39,36.54Z"/><path class="cls-9" d="M141.9,31.65a.11.11,0,0,0,.08,0,.17.17,0,0,0,0-.23h0a1.69,1.69,0,0,0-1.39-.7.17.17,0,0,0-.16.18h0a.17.17,0,0,0,.19.16,1.33,1.33,0,0,1,1.09.57A.17.17,0,0,0,141.9,31.65Z"/><path class="cls-9" d="M135.62,31.8a.16.16,0,0,0,.13-.09,1.39,1.39,0,0,1,1-.8.17.17,0,0,0,.15-.18v0a.18.18,0,0,0-.2-.14h0a1.7,1.7,0,0,0-1.24,1,.17.17,0,0,0,.08.23A.18.18,0,0,0,135.62,31.8Z"/><path class="cls-9" d="M152.48,47.76c.57,1.19,1,2.32,1.51,3.48s.87,2.34,1.29,3.52a60.42,60.42,0,0,1,1.95,7.36c.11.65.23,1.28.31,1.94l.06.49,0,.25v.3a6.93,6.93,0,0,1,0,1.44,6.37,6.37,0,0,1-3.16,4.9,8.71,8.71,0,0,1-2.23.93,11.89,11.89,0,0,1-2.13.38,15.48,15.48,0,0,1-4.08-.16,1.59,1.59,0,0,1-.08-3.13l.16,0,1.59-.37c.52-.14,1.05-.31,1.54-.47a6.57,6.57,0,0,0,2.34-1.3,1.5,1.5,0,0,0,.41-.61,1.35,1.35,0,0,0,0-.49c0-.13,0-.25-.07-.38l-.17-.75c-.11-.53-.26-1.08-.4-1.61-.29-1.09-.61-2.18-1-3.28s-.75-2.18-1.16-3.27-.83-2.18-1.26-3.25-.88-2.19-1.31-3.2v0a3.19,3.19,0,0,1,5.83-2.61h0Z"/><path class="cls-19" d="M144.56,70.79l-2,1L146.05,73s2.36-.75,1.22-2.06l-.64-.19A2.26,2.26,0,0,0,144.56,70.79Z"/><path class="cls-19" d="M142.79,74.27l1.56.3a1.09,1.09,0,0,0,1.14-.54l.56-1-3.53-1.24-.46,1a1.07,1.07,0,0,0,.49,1.44Z"/></g></svg>