<svg xmlns="http://www.w3.org/2000/svg" width="68" height="51" viewBox="0 0 68 51"><defs><style>.a{fill:#c20202;}.b{fill:none;stroke:#fff;}.c,.d{fill:#fff;}.c{font-size:23px;font-family:Montserrat-ExtraBold, Montserrat;font-weight:800;}</style></defs><g transform="translate(0.431 -0.158)"><rect class="a" width="68" height="51" rx="3" transform="translate(-0.431 0.158)"/><g transform="translate(-0.43 9.312)"><line class="b" x2="68" transform="translate(-0.001 -0.154)"/><line class="b" x2="65.596" transform="translate(1.781 33.211)"/></g><text class="c" transform="translate(44.571 33.158)"><tspan x="0" y="0">$</tspan></text><g transform="translate(8.856 11.194)"><path class="d" d="M29.329,47.333a1.024,1.024,0,0,1,.049-.308,1.556,1.556,0,0,1-.093-.333,1.7,1.7,0,0,0,.133.234,1.864,1.864,0,0,0,1.555.831,1.874,1.874,0,0,0,.7-.136,1.45,1.45,0,0,1-.519.265.995.995,0,0,1-1.821-.553Zm6.124,3.527-.95-.175.535.359ZM29.17,30.442l-9.09,5.249a11.541,11.541,0,0,1,4.214,4.281,2.078,2.078,0,0,0,1.138-1.856,1.967,1.967,0,0,0-.011-.213,1.778,1.778,0,0,1,1.743-.02l.008,0a1.705,1.705,0,0,1,.918,1.417,2.074,2.074,0,0,0-.9,1.743.167.167,0,0,0,0,.047,3.8,3.8,0,0,0,.275,1.194,6.166,6.166,0,0,0,2.28,2.6,5.025,5.025,0,0,0,2.071.574,2.149,2.149,0,0,0,2.142-2.395,2.413,2.413,0,0,1,.369,2.642,2.368,2.368,0,0,1-.648.821.042.042,0,0,1-.016.015l-.013.01.022-.012a5.722,5.722,0,0,0,3.677-7.86,7.58,7.58,0,0,1-1.007,11.705,3.16,3.16,0,0,1,.022.367,3.064,3.064,0,0,1-.413,1.54,2.593,2.593,0,0,1-2.522.173l-.047-.022c.011.009.022.02.033.027a2.586,2.586,0,0,0,1.717.65c.04,0,.078,0,.119,0a3.067,3.067,0,0,1-4.013-.095,7.79,7.79,0,0,1-.847.046,7.911,7.911,0,0,1-5.723-2.438c-.063.123-.1.18-.127.173a11.523,11.523,0,0,1-3.427,4.058l8.056,4.652,12.589-7.27V37.712Z" transform="translate(-20.08 -30.442)"/></g></g></svg>