<svg xmlns="http://www.w3.org/2000/svg" width="29.041" height="29.041" viewBox="0 0 29.041 29.041"><defs><style>.a{fill:#2a2a2a;}</style></defs><g transform="translate(-3.176 -3.176)"><path class="a" d="M20.092,16.684a4.171,4.171,0,0,0-2.018-.917,3.474,3.474,0,0,0,1.75-1.144,2.782,2.782,0,0,0,.594-1.744,2.987,2.987,0,0,0-.755-2.013,4.043,4.043,0,0,0-2.19-1.219,11.137,11.137,0,0,0-2.515-.229h-.529V7.6h-.816V9.417h-.625V7.6h-.816V9.417H9.353v.354h.488a1.4,1.4,0,0,1,1.108.421,2.617,2.617,0,0,1,.277,1.519v8.377a2.991,2.991,0,0,1-.219,1.425,1.314,1.314,0,0,1-1.166.516H9.353v.353h2.819V24.2h.816V22.383h.625V24.2h.816V22.383h1.045a9.724,9.724,0,0,0,3.256-.406,3.494,3.494,0,0,0,1.678-1.29,3.208,3.208,0,0,0,.612-1.851A2.855,2.855,0,0,0,20.092,16.684Zm-5.308-6.625a4.019,4.019,0,0,1,2.706.8,2.476,2.476,0,0,1,.928,1.94,2.6,2.6,0,0,1-.373,1.359,2.259,2.259,0,0,1-1.076.923,5.613,5.613,0,0,1-2.1.3c-.162,0-.294-.011-.443-.015v-5.29C14.549,10.074,14.66,10.059,14.784,10.059Zm-1.72.21c.172-.046.361-.075.549-.105v5.155c-.191-.02-.388-.038-.549-.068Zm0,11.178V16.129a5.173,5.173,0,0,1,.549-.053v5.467C13.429,21.511,13.248,21.49,13.063,21.446Zm4.829-.52a3.95,3.95,0,0,1-2.639.779c-.274,0-.55-.024-.826-.049V16.049c.117,0,.2-.006.328-.006a5.77,5.77,0,0,1,2.3.4,2.745,2.745,0,0,1,1.338,1.1A2.828,2.828,0,0,1,18.8,19,2.44,2.44,0,0,1,17.892,20.926Z" transform="translate(2.511 1.797)"/><g transform="translate(3.176 3.176)"><path class="a" d="M17.7,32.217A14.52,14.52,0,1,1,32.217,17.7,14.538,14.538,0,0,1,17.7,32.217Zm0-27.634A13.114,13.114,0,1,0,30.81,17.7,13.13,13.13,0,0,0,17.7,4.583Z" transform="translate(-3.176 -3.176)"/></g></g></svg>