<?xml version="1.0" encoding="utf-8"?>
<!-- Generator: Adobe Illustrator 25.0.0, SVG Export Plug-In . SVG Version: 6.00 Build 0)  -->
<svg version="1.0" id="Capa_1" xmlns="http://www.w3.org/2000/svg" xmlns:xlink="http://www.w3.org/1999/xlink" x="0px" y="0px"
	 viewBox="0 0 227 227" style="enable-background:new 0 0 227 227;" xml:space="preserve">
<style type="text/css">
	.Sombra_x0020_paralela{fill:none;}
	.Esquinas_x0020_redondeadas_x0020_2_x0020_pt_x002E_{fill:#FFFFFF;stroke:#1D1D1B;stroke-miterlimit:10;}
	.Reflejo_x0020_vivo_x0020_X{fill:none;}
	.Bisel_x0020_suave{fill:url(#SVGID_1_);}
	.Atardecer{fill:#FFFFFF;}
	.Follaje_GS{fill:#FFDD00;}
	.Pompadour_GS{fill-rule:evenodd;clip-rule:evenodd;fill:#51AEE2;}
	.st0{clip-path:url(#SVGID_3_);fill:#00833D;}
	.st1{fill:#FFDA00;}
	.st2{fill:#002776;}
	.st3{clip-path:url(#SVGID_5_);fill:#FFFFFF;}
	.st4{fill:#FFFFFF;}
	.st5{fill:#009B3A;}
</style>
<linearGradient id="SVGID_1_" gradientUnits="userSpaceOnUse" x1="0" y1="0" x2="0.7071" y2="0.7071">
	<stop  offset="0" style="stop-color:#E6E6EB"/>
	<stop  offset="0.1754" style="stop-color:#E2E2E7"/>
	<stop  offset="0.3552" style="stop-color:#D6D6DB"/>
	<stop  offset="0.5371" style="stop-color:#C2C3C6"/>
	<stop  offset="0.7204" style="stop-color:#A5A7A9"/>
	<stop  offset="0.9031" style="stop-color:#818485"/>
	<stop  offset="1" style="stop-color:#6B6E6E"/>
</linearGradient>
<g>
	<g>
		<defs>
			
				<ellipse id="SVGID_2_" transform="matrix(0.9994 -0.0354 0.0354 0.9994 -3.9502 4.0927)" cx="113.5" cy="113.5" rx="113.5" ry="113.5"/>
		</defs>
		<clipPath id="SVGID_3_">
			<use xlink:href="#SVGID_2_"  style="overflow:visible;"/>
		</clipPath>
		<polygon class="st0" points="-20.13,-2.98 -20.13,75.26 -20.13,75.79 -20.13,153.5 -20.13,154.03 -20.13,232.27 254.48,232.27 
			254.48,154.03 254.48,153.5 254.48,75.79 254.48,75.26 254.48,-2.98 		"/>
	</g>
	<g>
		<polygon class="st1" points="152.69,89.64 113.5,64.54 74.31,89.64 35.12,114.74 74.31,139.84 113.5,164.94 152.69,139.84 
			191.88,114.74 		"/>
		<circle class="st2" cx="113.17" cy="114.74" r="32.96"/>
		<g>
			<defs>
				<circle id="SVGID_4_" cx="113.17" cy="114.74" r="32.96"/>
			</defs>
			<clipPath id="SVGID_5_">
				<use xlink:href="#SVGID_4_"  style="overflow:visible;"/>
			</clipPath>
			<path class="st3" d="M93.48,104.9c42.82,0,77.53,34.71,77.53,77.53c0,12.97-3.19,25.19-8.82,35.93
				c7.23-11.78,11.4-25.65,11.4-40.49c0-42.82-34.71-77.53-77.53-77.53c-29.85,0-55.75,16.87-68.71,41.59
				C40.98,119.72,65.5,104.9,93.48,104.9z"/>
		</g>
		<polygon class="st4" points="86.66,108.87 87.35,108.38 86.5,108.38 86.24,107.57 85.97,108.38 85.13,108.38 85.81,108.87 
			85.55,109.68 86.24,109.18 86.92,109.68 		"/>
		<polygon class="st4" points="85.55,125.74 86.24,125.25 85.39,125.25 85.13,124.44 84.86,125.25 84.02,125.25 84.7,125.74 
			84.44,126.55 85.13,126.05 85.81,126.55 		"/>
		<polygon class="st4" points="89.47,122.83 90.23,122.28 89.29,122.28 89.01,121.39 88.72,122.28 87.78,122.28 88.54,122.83 
			88.25,123.72 89.01,123.17 89.76,123.72 		"/>
		<polygon class="st4" points="99.66,133.46 100.42,132.91 99.48,132.91 99.2,132.03 98.91,132.91 97.97,132.91 98.73,133.46 
			98.44,134.35 99.2,133.8 99.95,134.35 		"/>
		<polygon class="st4" points="112.61,130.47 113.36,129.92 112.43,129.92 112.14,129.04 111.85,129.92 110.92,129.92 
			111.67,130.47 111.38,131.36 112.14,130.81 112.9,131.36 		"/>
		<polygon class="st4" points="92.68,120.68 93.11,120.36 92.57,120.36 92.41,119.84 92.24,120.36 91.7,120.36 92.13,120.68 
			91.97,121.19 92.41,120.87 92.84,121.19 		"/>
		<polygon class="st4" points="100.93,116.22 101.53,115.79 100.79,115.79 100.56,115.08 100.34,115.79 99.6,115.79 100.2,116.22 
			99.97,116.92 100.56,116.49 101.16,116.92 		"/>
		<polygon class="st4" points="110.16,123.17 110.72,122.76 110.03,122.76 109.81,122.1 109.6,122.76 108.9,122.76 109.46,123.17 
			109.25,123.83 109.81,123.42 110.38,123.83 		"/>
		<polygon class="st4" points="113.52,120.05 114.09,119.64 113.39,119.64 113.17,118.98 112.96,119.64 112.26,119.64 
			112.83,120.05 112.61,120.71 113.17,120.3 113.74,120.71 		"/>
		<polygon class="st4" points="117.36,123.17 117.92,122.76 117.22,122.76 117.01,122.1 116.79,122.76 116.1,122.76 116.66,123.17 
			116.45,123.83 117.01,123.42 117.57,123.83 		"/>
		<polygon class="st4" points="111.75,125.33 112.14,125.05 111.66,125.05 111.51,124.59 111.37,125.05 110.89,125.05 
			111.28,125.33 111.13,125.78 111.51,125.5 111.9,125.78 		"/>
		<polygon class="st4" points="114.24,139.56 114.5,139.37 114.18,139.37 114.09,139.07 113.99,139.37 113.67,139.37 113.93,139.56 
			113.83,139.86 114.09,139.68 114.34,139.86 		"/>
		<polygon class="st4" points="122.41,113.17 122.8,112.89 122.32,112.89 122.18,112.44 122.03,112.89 121.55,112.89 121.94,113.17 
			121.79,113.63 122.18,113.34 122.56,113.63 		"/>
		<polygon class="st4" points="120.76,133.34 121.18,133.04 120.66,133.04 120.5,132.54 120.34,133.04 119.82,133.04 120.24,133.34 
			120.08,133.84 120.5,133.53 120.92,133.84 		"/>
		<polygon class="st4" points="123.47,137.17 124.07,136.74 123.33,136.74 123.1,136.04 122.88,136.74 122.14,136.74 122.73,137.17 
			122.51,137.88 123.1,137.44 123.7,137.88 		"/>
		<polygon class="st4" points="126.24,134.17 126.73,133.81 126.12,133.81 125.93,133.23 125.74,133.81 125.13,133.81 
			125.62,134.17 125.44,134.76 125.93,134.4 126.43,134.76 		"/>
		<polygon class="st4" points="129.91,133.03 130.32,132.73 129.81,132.73 129.66,132.25 129.5,132.73 129,132.73 129.41,133.03 
			129.25,133.5 129.66,133.21 130.07,133.5 		"/>
		<polygon class="st4" points="130.02,136.25 130.62,135.82 129.88,135.82 129.66,135.13 129.43,135.82 128.7,135.82 129.29,136.25 
			129.06,136.95 129.66,136.52 130.25,136.95 		"/>
		<polygon class="st4" points="129.96,139.64 130.44,139.29 129.84,139.29 129.66,138.72 129.47,139.29 128.87,139.29 
			129.36,139.64 129.17,140.22 129.66,139.86 130.14,140.22 		"/>
		<polygon class="st4" points="133.3,133.68 133.79,133.33 133.19,133.33 133,132.76 132.82,133.33 132.22,133.33 132.7,133.68 
			132.52,134.25 133,133.9 133.49,134.25 		"/>
		<polygon class="st4" points="136.11,132.02 136.74,131.57 135.96,131.57 135.72,130.83 135.48,131.57 134.71,131.57 
			135.33,132.02 135.09,132.76 135.72,132.3 136.35,132.76 		"/>
		<polygon class="st4" points="138.14,129.41 138.77,128.95 137.99,128.95 137.75,128.22 137.51,128.95 136.74,128.95 
			137.37,129.41 137.13,130.15 137.75,129.69 138.38,130.15 		"/>
		<polygon class="st4" points="136.95,126.57 137.75,125.98 136.76,125.98 136.45,125.03 136.14,125.98 135.15,125.98 
			135.95,126.57 135.64,127.51 136.45,126.93 137.25,127.51 		"/>
		<polygon class="st4" points="123.97,104.66 124.78,104.07 123.79,104.07 123.48,103.13 123.17,104.07 122.18,104.07 
			122.98,104.66 122.67,105.6 123.48,105.02 124.28,105.6 		"/>
		<polygon class="st4" points="141.38,126.76 141.89,126.39 141.26,126.39 141.07,125.8 140.88,126.39 140.26,126.39 140.76,126.76 
			140.57,127.35 141.07,126.98 141.58,127.35 		"/>
		<polygon class="st4" points="96.46,126.27 97.12,125.79 96.31,125.79 96.06,125.02 95.81,125.79 95,125.79 95.65,126.27 
			95.4,127.04 96.06,126.56 96.71,127.04 		"/>
		<polygon class="st4" points="95.39,129.46 96.01,129.01 95.24,129.01 95,128.27 94.76,129.01 93.99,129.01 94.61,129.46 
			94.37,130.2 95,129.74 95.62,130.2 		"/>
		<g>
			<path class="st5" d="M84.11,103.34c-0.03-0.33-0.01-0.61,0.06-0.85c0.06-0.17,0.14-0.33,0.26-0.48c0.11-0.15,0.24-0.26,0.39-0.34
				c0.19-0.11,0.42-0.17,0.69-0.2c0.48-0.05,0.88,0.06,1.2,0.33c0.32,0.27,0.51,0.67,0.56,1.2c0.05,0.53-0.05,0.95-0.3,1.28
				c-0.25,0.33-0.62,0.51-1.1,0.56c-0.48,0.05-0.88-0.06-1.2-0.32C84.35,104.25,84.16,103.86,84.11,103.34z M84.78,103.25
				c0.04,0.37,0.15,0.64,0.34,0.81c0.19,0.17,0.42,0.24,0.68,0.22c0.26-0.03,0.47-0.14,0.62-0.35c0.15-0.21,0.2-0.5,0.16-0.87
				c-0.04-0.37-0.15-0.64-0.33-0.81c-0.18-0.17-0.41-0.24-0.68-0.21c-0.27,0.03-0.48,0.14-0.63,0.35
				C84.8,102.59,84.74,102.88,84.78,103.25z"/>
			<path class="st5" d="M88.64,104.54l-0.17-3.27l1.39-0.07c0.35-0.02,0.6,0,0.77,0.05c0.16,0.05,0.29,0.15,0.4,0.29
				c0.1,0.15,0.16,0.31,0.17,0.51c0.01,0.25-0.05,0.45-0.18,0.62c-0.14,0.17-0.35,0.28-0.63,0.33c0.15,0.08,0.27,0.16,0.37,0.26
				c0.1,0.09,0.23,0.27,0.4,0.51l0.43,0.62l-0.79,0.04l-0.51-0.69c-0.18-0.25-0.31-0.4-0.37-0.46c-0.07-0.06-0.13-0.11-0.21-0.13
				c-0.07-0.02-0.18-0.03-0.33-0.02l-0.13,0.01l0.07,1.36L88.64,104.54z M89.2,102.62l0.49-0.02c0.32-0.02,0.51-0.04,0.59-0.07
				c0.08-0.03,0.14-0.08,0.18-0.15c0.04-0.07,0.06-0.15,0.05-0.25c-0.01-0.11-0.04-0.2-0.1-0.26c-0.06-0.06-0.15-0.1-0.25-0.12
				c-0.05,0-0.21,0-0.48,0.01l-0.51,0.03L89.2,102.62z"/>
			<path class="st5" d="M92.62,101.1l1.21,0c0.27,0,0.48,0.02,0.62,0.06c0.19,0.06,0.36,0.16,0.49,0.3
				c0.14,0.14,0.24,0.32,0.31,0.53c0.07,0.21,0.11,0.47,0.11,0.77c0,0.27-0.03,0.5-0.1,0.7c-0.08,0.24-0.2,0.43-0.35,0.58
				c-0.11,0.11-0.27,0.2-0.46,0.26c-0.15,0.05-0.34,0.07-0.58,0.07l-1.24,0L92.62,101.1z M93.28,101.65l0,2.17l0.49,0
				c0.18,0,0.32-0.01,0.4-0.03c0.11-0.03,0.2-0.07,0.27-0.14c0.07-0.06,0.13-0.17,0.17-0.32c0.04-0.15,0.07-0.35,0.07-0.6
				c0-0.25-0.02-0.45-0.07-0.58c-0.04-0.14-0.11-0.24-0.19-0.32c-0.08-0.08-0.18-0.13-0.31-0.15c-0.09-0.02-0.27-0.03-0.54-0.03
				L93.28,101.65z"/>
			<path class="st5" d="M96.61,104.4l0.16-3.27l2.42,0.12l-0.03,0.55l-1.76-0.09l-0.04,0.72l1.64,0.08l-0.03,0.55l-1.64-0.08
				l-0.04,0.89l1.82,0.09l-0.03,0.55L96.61,104.4z"/>
			<path class="st5" d="M100.34,104.61l0.33-3.25l0.98,0.1l0.36,2.28l0.81-2.16l0.99,0.1l-0.33,3.25l-0.61-0.06l0.26-2.56l-0.91,2.5
				l-0.63-0.06l-0.38-2.63l-0.26,2.56L100.34,104.61z"/>
			<path class="st5" d="M106.77,105.41l0.59-3.22l2.39,0.43l-0.1,0.54l-1.74-0.32l-0.13,0.71l1.62,0.29l-0.1,0.54l-1.62-0.29
				l-0.16,0.88l1.8,0.33l-0.1,0.54L106.77,105.41z"/>
			<path class="st5" d="M112.38,106.55l0.82-3.17l1.03,0.27c0.39,0.1,0.64,0.18,0.75,0.24c0.17,0.09,0.29,0.24,0.38,0.43
				c0.08,0.19,0.09,0.41,0.02,0.66c-0.05,0.19-0.13,0.35-0.23,0.46c-0.11,0.11-0.22,0.19-0.35,0.24c-0.13,0.05-0.25,0.07-0.37,0.06
				c-0.16-0.01-0.39-0.05-0.67-0.13l-0.42-0.11l-0.31,1.19L112.38,106.55z M113.7,104.09l-0.23,0.9l0.35,0.09
				c0.25,0.07,0.42,0.09,0.52,0.08c0.09-0.01,0.17-0.05,0.24-0.1s0.11-0.13,0.14-0.23c0.03-0.12,0.02-0.22-0.03-0.31
				c-0.05-0.09-0.12-0.16-0.22-0.21c-0.07-0.03-0.22-0.08-0.45-0.14L113.7,104.09z"/>
			<path class="st5" d="M115.99,107.52l0.98-3.12l1.33,0.42c0.33,0.1,0.57,0.21,0.7,0.31c0.13,0.1,0.22,0.24,0.27,0.41
				c0.05,0.17,0.04,0.35-0.02,0.53c-0.07,0.23-0.2,0.41-0.39,0.52c-0.19,0.11-0.42,0.14-0.71,0.09c0.11,0.12,0.2,0.24,0.26,0.37
				c0.06,0.12,0.13,0.33,0.2,0.62l0.19,0.73l-0.75-0.24l-0.24-0.82c-0.09-0.29-0.15-0.48-0.19-0.56c-0.04-0.08-0.09-0.14-0.15-0.19
				c-0.06-0.04-0.16-0.09-0.31-0.13l-0.13-0.04l-0.41,1.3L115.99,107.52z M117.19,105.92l0.47,0.15c0.3,0.09,0.5,0.14,0.58,0.14
				c0.08,0,0.16-0.03,0.22-0.08c0.06-0.05,0.11-0.12,0.14-0.21c0.03-0.11,0.03-0.2,0-0.28c-0.04-0.08-0.1-0.15-0.2-0.2
				c-0.05-0.02-0.2-0.07-0.46-0.16l-0.49-0.15L117.19,105.92z"/>
			<path class="st5" d="M120.23,107.19c0.12-0.31,0.26-0.56,0.43-0.73c0.13-0.13,0.28-0.23,0.44-0.31c0.17-0.08,0.33-0.12,0.5-0.13
				c0.22-0.01,0.46,0.03,0.71,0.13c0.45,0.17,0.76,0.44,0.93,0.82c0.17,0.38,0.16,0.82-0.03,1.32c-0.18,0.49-0.46,0.83-0.84,1.01
				c-0.37,0.18-0.78,0.18-1.23,0.02c-0.46-0.17-0.77-0.44-0.93-0.82C120.04,108.11,120.05,107.68,120.23,107.19z M120.87,107.41
				c-0.13,0.35-0.15,0.64-0.05,0.88c0.09,0.24,0.26,0.4,0.51,0.5c0.25,0.09,0.48,0.08,0.71-0.04c0.22-0.12,0.4-0.36,0.54-0.71
				c0.13-0.35,0.15-0.64,0.06-0.87c-0.09-0.23-0.26-0.39-0.52-0.49c-0.25-0.1-0.49-0.08-0.71,0.03
				C121.18,106.82,121.01,107.05,120.87,107.41z"/>
			<path class="st5" d="M125.62,109.78l0.22-0.5l1.3,0.57l-0.52,1.19c-0.18,0.07-0.41,0.09-0.69,0.08
				c-0.28-0.01-0.55-0.07-0.79-0.18c-0.31-0.14-0.56-0.32-0.73-0.56c-0.18-0.23-0.27-0.5-0.28-0.79c-0.01-0.3,0.05-0.59,0.17-0.87
				c0.14-0.31,0.32-0.56,0.56-0.75c0.24-0.19,0.51-0.29,0.82-0.31c0.24-0.02,0.5,0.04,0.78,0.17c0.37,0.16,0.63,0.37,0.77,0.62
				c0.14,0.25,0.18,0.52,0.12,0.82l-0.65-0.15c0.02-0.17-0.01-0.32-0.09-0.45c-0.08-0.14-0.21-0.24-0.38-0.32
				c-0.26-0.12-0.51-0.12-0.74-0.02c-0.23,0.1-0.42,0.31-0.56,0.64c-0.16,0.36-0.19,0.66-0.11,0.9c0.08,0.25,0.25,0.43,0.5,0.54
				c0.13,0.06,0.26,0.09,0.41,0.09c0.15,0.01,0.28-0.01,0.41-0.04l0.17-0.38L125.62,109.78z"/>
			<path class="st5" d="M127.62,112.01l1.47-2.92l1.24,0.62c0.31,0.16,0.53,0.3,0.64,0.42c0.12,0.12,0.18,0.27,0.2,0.45
				c0.02,0.18-0.02,0.35-0.1,0.52c-0.11,0.22-0.27,0.37-0.47,0.45c-0.2,0.08-0.44,0.07-0.71-0.02c0.09,0.14,0.15,0.27,0.19,0.4
				c0.04,0.13,0.07,0.35,0.1,0.64l0.07,0.75l-0.71-0.35l-0.11-0.85c-0.04-0.3-0.07-0.5-0.09-0.59c-0.03-0.09-0.07-0.16-0.12-0.21
				c-0.05-0.05-0.15-0.11-0.28-0.18l-0.12-0.06l-0.61,1.22L127.62,112.01z M129.06,110.62l0.44,0.22c0.28,0.14,0.47,0.22,0.55,0.23
				c0.08,0.01,0.16,0,0.23-0.04c0.07-0.04,0.13-0.1,0.17-0.19c0.05-0.1,0.06-0.19,0.04-0.28c-0.02-0.09-0.08-0.16-0.16-0.23
				c-0.04-0.03-0.19-0.11-0.43-0.23l-0.46-0.23L129.06,110.62z"/>
			<path class="st5" d="M131.17,113.83l1.61-2.84l2.11,1.2l-0.27,0.48l-1.53-0.87l-0.36,0.63l1.43,0.81l-0.27,0.48l-1.43-0.81
				l-0.44,0.77l1.59,0.9l-0.27,0.48L131.17,113.83z"/>
			<path class="st5" d="M134.83,114.72l0.58,0.29c-0.08,0.2-0.1,0.38-0.06,0.53c0.05,0.15,0.15,0.28,0.32,0.38
				c0.18,0.11,0.34,0.16,0.48,0.14c0.14-0.02,0.24-0.08,0.31-0.18c0.04-0.07,0.06-0.13,0.05-0.2c-0.01-0.07-0.05-0.15-0.12-0.25
				c-0.05-0.06-0.17-0.2-0.37-0.4c-0.25-0.26-0.4-0.49-0.46-0.67c-0.07-0.26-0.04-0.5,0.1-0.72c0.09-0.14,0.21-0.25,0.37-0.32
				c0.16-0.07,0.33-0.09,0.52-0.06c0.19,0.03,0.39,0.11,0.6,0.25c0.35,0.22,0.56,0.46,0.64,0.72c0.08,0.26,0.04,0.52-0.11,0.78
				l-0.57-0.33c0.07-0.16,0.08-0.29,0.04-0.4c-0.04-0.11-0.14-0.22-0.29-0.32c-0.16-0.1-0.31-0.15-0.44-0.14
				c-0.09,0.01-0.15,0.04-0.2,0.12c-0.04,0.07-0.05,0.14-0.02,0.22c0.03,0.1,0.17,0.27,0.4,0.51c0.23,0.24,0.39,0.43,0.48,0.58
				c0.09,0.15,0.13,0.31,0.13,0.47c0,0.17-0.06,0.34-0.17,0.51c-0.1,0.16-0.24,0.28-0.41,0.36c-0.18,0.08-0.36,0.11-0.57,0.07
				c-0.2-0.03-0.42-0.13-0.66-0.28c-0.35-0.22-0.57-0.47-0.65-0.75C134.63,115.36,134.67,115.05,134.83,114.72z"/>
			<path class="st5" d="M138.02,116.77l0.56,0.32c-0.09,0.2-0.12,0.37-0.08,0.52c0.04,0.15,0.14,0.28,0.3,0.4
				c0.17,0.12,0.33,0.18,0.47,0.17c0.14-0.01,0.24-0.07,0.31-0.17c0.04-0.06,0.06-0.13,0.06-0.2c-0.01-0.07-0.04-0.15-0.11-0.25
				c-0.05-0.07-0.16-0.21-0.35-0.42c-0.24-0.28-0.38-0.51-0.42-0.69c-0.06-0.26-0.02-0.5,0.13-0.71c0.1-0.14,0.22-0.24,0.38-0.3
				c0.16-0.06,0.34-0.08,0.52-0.04c0.19,0.04,0.39,0.13,0.59,0.28c0.34,0.24,0.54,0.49,0.6,0.75c0.07,0.27,0.02,0.53-0.15,0.78
				l-0.56-0.36c0.07-0.15,0.09-0.29,0.06-0.4c-0.03-0.11-0.13-0.22-0.28-0.33c-0.16-0.11-0.3-0.16-0.44-0.16
				c-0.09,0-0.15,0.04-0.2,0.11c-0.04,0.06-0.06,0.14-0.03,0.22c0.03,0.11,0.15,0.28,0.37,0.53c0.22,0.25,0.37,0.45,0.45,0.6
				c0.08,0.15,0.11,0.31,0.1,0.48c-0.01,0.16-0.07,0.33-0.19,0.5c-0.11,0.15-0.25,0.27-0.43,0.34c-0.18,0.07-0.37,0.09-0.57,0.04
				c-0.2-0.04-0.42-0.15-0.65-0.31c-0.34-0.24-0.54-0.5-0.61-0.78C137.79,117.4,137.85,117.09,138.02,116.77z"/>
			<path class="st5" d="M141.48,118.56c0.21-0.26,0.42-0.45,0.63-0.57c0.16-0.09,0.33-0.14,0.52-0.17c0.18-0.02,0.35-0.02,0.51,0.03
				c0.21,0.06,0.42,0.17,0.63,0.33c0.38,0.3,0.59,0.65,0.63,1.07c0.04,0.41-0.1,0.83-0.43,1.25c-0.33,0.42-0.69,0.65-1.1,0.71
				c-0.41,0.06-0.8-0.06-1.18-0.36c-0.38-0.3-0.6-0.65-0.64-1.07C141.02,119.38,141.16,118.97,141.48,118.56z M142.03,118.96
				c-0.23,0.29-0.33,0.57-0.32,0.82c0.02,0.26,0.13,0.46,0.34,0.63c0.21,0.16,0.44,0.22,0.69,0.18c0.25-0.05,0.49-0.22,0.73-0.52
				c0.23-0.3,0.34-0.57,0.32-0.81c-0.02-0.25-0.13-0.45-0.35-0.62c-0.21-0.17-0.44-0.23-0.69-0.19
				C142.5,118.49,142.26,118.66,142.03,118.96z"/>
		</g>
	</g>
</g>
</svg>
