<svg id="Capa_1" data-name="Capa 1" xmlns="http://www.w3.org/2000/svg" viewBox="0 0 155.35 150.87"><defs><style>.cls-1{fill:#f0f0f0;}.cls-2{fill:#e0e0e0;}.cls-3{fill:#f10101;}.cls-4{opacity:0.5;}.cls-10,.cls-11,.cls-4,.cls-5,.cls-6,.cls-8,.cls-9{isolation:isolate;}.cls-5,.cls-8{opacity:0.3;}.cls-17,.cls-6{opacity:0.6;}.cls-7{fill:#fafafa;}.cls-15,.cls-8{fill:#263238;}.cls-9{opacity:0.1;}.cls-10,.cls-12{opacity:0.4;}.cls-11{opacity:0.45;}.cls-13{fill:#fff;}.cls-14{fill:#455a64;}.cls-16{fill:#37474f;}.cls-18{opacity:0.75;}.cls-19{fill:#ebebeb;}</style></defs><g id="freepik--Floor--inject-2"><ellipse id="freepik--floor--inject-2-2" data-name="freepik--floor--inject-2" class="cls-1" cx="77.68" cy="106.02" rx="77.68" ry="44.85"/></g><g id="freepik--Shadows--inject-2"><path id="freepik--shadow--inject-2" class="cls-2" d="M61.11,140.39,11.34,111.65a.23.23,0,0,1-.14-.29.2.2,0,0,1,.14-.14L87.77,67.09a.83.83,0,0,1,.75,0l49.77,28.73a.23.23,0,0,1,.14.29.23.23,0,0,1-.14.15L61.86,140.39A.89.89,0,0,1,61.11,140.39Z"/></g><g id="freepik--Device--inject-2"><g id="freepik--Laptop--inject-2"><path class="cls-3" d="M15.21,108.11a4,4,0,0,0,1.9,3.14L58.28,135a4.22,4.22,0,0,0,3.79,0l72.51-41.87a3.55,3.55,0,0,0,0-6.28L93.4,63.11a4.13,4.13,0,0,0-3.78,0L17.11,105A4,4,0,0,0,15.21,108.11Z"/><path class="cls-4" d="M136.47,90a4,4,0,0,1-1.89,3.14L62.07,135a3.88,3.88,0,0,1-1.89.45v-4.09a3.89,3.89,0,0,0,1.89-.46l72.51-41.86c.92-.53,1-1.34.34-1.94A4,4,0,0,1,136.47,90Z"/><path class="cls-5" d="M17.11,107.15l41.17,23.78a4.15,4.15,0,0,0,3.79,0l72.51-41.86a1.16,1.16,0,0,0,0-2.19L93.4,63.11a4.13,4.13,0,0,0-3.78,0L17.11,105A1.15,1.15,0,0,0,17.11,107.15Z"/><path class="cls-6" d="M60.18,131.39v4.09a3.83,3.83,0,0,1-1.9-.45L17.11,111.25a4,4,0,0,1-1.9-3.14,4.12,4.12,0,0,1,1.7-3c-.84.61-.78,1.5.2,2.06l41.17,23.79A3.94,3.94,0,0,0,60.18,131.39Z"/><path class="cls-3" d="M13.44,105c-1-.57-.93-1.52-.93-2.73V45.43a4.18,4.18,0,0,1,1.9-3.27L86.92.29c1-.6,2-.16,3,.4S91.49,1.75,91.49,3V59.83a4.19,4.19,0,0,1-1.88,3.28L17.11,105A4.09,4.09,0,0,1,13.44,105Z"/><path class="cls-5" d="M91.51,3c0-1.2-.85-1.68-1.89-1.09L17.11,43.73a3.73,3.73,0,0,0-1.35,1.41l-2.7-1.57h0a3.81,3.81,0,0,1,1.35-1.41L86.92.29c1-.6,2-.17,3,.4S91.51,1.75,91.51,3Z"/><path class="cls-4" d="M15.21,47v56.88c0,1.2.85,1.69,1.9,1.09L89.62,63.11a4.18,4.18,0,0,0,1.89-3.28V3c0-1.21-.85-1.69-1.89-1.09L17.11,43.72A4.21,4.21,0,0,0,15.21,47Z"/><path class="cls-6" d="M16.88,105.07a4.09,4.09,0,0,1-3.44,0c-1-.57-.92-1.52-.92-2.73V45.43a3.8,3.8,0,0,1,.55-1.86l2.7,1.56h0A3.92,3.92,0,0,0,15.21,47v56.89C15.21,105,16,105.5,16.88,105.07Z"/><path class="cls-7" d="M18.12,45.91,88,5.55c.62-.36,1.13-.07,1.13.67V55.87a2.53,2.53,0,0,1-1.13,2L18.12,98.18c-.62.36-1.13.06-1.13-.66V47.87A2.47,2.47,0,0,1,18.12,45.91Z"/><path class="cls-8" d="M22.34,105.07,89.65,66.22a2.1,2.1,0,0,1,1.89,0l1.12.62a.58.58,0,0,1,0,1.09L25.34,106.78a2.1,2.1,0,0,1-1.89,0l-1.11-.61A.58.58,0,0,1,22.34,105.07Z"/><path class="cls-8" d="M27.62,108.22,94.93,69.36a1.9,1.9,0,0,1,1.72-.09l17.52,10.11c.44.25.36.7-.16,1l-67.23,38.8a2,2,0,0,1-1.73.09L27.46,109.22C27,109,27.08,108.52,27.62,108.22Z"/><path class="cls-3" d="M85.94,85.68l2.11-1.21c.09,0,.1-.14,0-.18l-2-1.17a.34.34,0,0,0-.31,0l-2.11,1.22c-.09,0-.09.13,0,.18l2,1.16A.31.31,0,0,0,85.94,85.68Zm-3.08-4.21-2.1,1.22c-.09,0-.1.13,0,.18l2,1.16a.32.32,0,0,0,.3,0l2.11-1.22c.09,0,.09-.13,0-.17l-2-1.17a.34.34,0,0,0-.31,0Zm-6.8,3.94-3.56,2c-.09.06-.1.13,0,.18l2,1.16a.34.34,0,0,0,.31,0l3.56-2.06c.09,0,.1-.13,0-.17l-2-1.17A.31.31,0,0,0,76.06,85.41Zm3.72-2.14-2.1,1.22c-.09.05-.1.13,0,.17l2,1.16a.34.34,0,0,0,.31,0l2.1-1.21c.1,0,.1-.13,0-.18l-2-1.16A.34.34,0,0,0,79.78,83.27ZM71.52,88l-2.11,1.22c-.09,0-.1.13,0,.17l2,1.17a.34.34,0,0,0,.31,0l2.11-1.22c.09,0,.1-.13,0-.17l-2-1.17a.32.32,0,0,0-.3,0Zm-3.08,1.78L66.33,91c-.09,0-.09.13,0,.18l2,1.16a.34.34,0,0,0,.31,0l2.1-1.22c.09,0,.1-.13,0-.17l-2-1.17a.34.34,0,0,0-.31,0Zm7.9,4.75,2.11-1.22c.09,0,.1-.13,0-.18l-2-1.16a.34.34,0,0,0-.31,0l-2.08,1.21c-.09,0-.1.13,0,.18l2,1.16a.32.32,0,0,0,.3,0Zm-3.08,1.78,2.11-1.22c.09,0,.1-.13,0-.18l-2-1.16a.32.32,0,0,0-.3,0L71,95c-.08,0-.09.13,0,.18l2,1.16a.31.31,0,0,0,.31,0Zm-3.08,1.78,2.11-1.22c.09,0,.09-.13,0-.18l-2-1.16a.32.32,0,0,0-.3,0l-2.11,1.21c-.09.06-.1.14,0,.18l2,1.17a.37.37,0,0,0,.31,0ZM67.1,99.9l2.11-1.21c.09,0,.09-.13,0-.18l-2-1.17a.34.34,0,0,0-.31,0l-2.1,1.22c-.09,0-.1.13,0,.18l2,1.16a.33.33,0,0,0,.29,0ZM82.87,87.49,85,86.27c.08,0,.09-.13,0-.17l-2-1.17a.32.32,0,0,0-.3,0l-2.11,1.22c-.09,0-.1.13,0,.17l2,1.17a.32.32,0,0,0,.3,0Zm-3.45,5.28,4.69-2.71c.09,0,.1-.13,0-.18l-4.89-2.82a.34.34,0,0,0-.31,0l-2.43,1.4c-.09.05-.1.13,0,.18l2.59,1.49c.08.05.07.13,0,.18l-1.94,1.12c-.09,0-.1.13,0,.18l2,1.17A.33.33,0,0,0,79.42,92.77ZM65.35,91.58l-2.1,1.22c-.09,0-.1.13,0,.17l2,1.17a.34.34,0,0,0,.31,0l2.11-1.22c.08,0,.09-.13,0-.17l-2-1.17a.34.34,0,0,0-.28,0Zm-3.08,1.78-2.1,1.22c-.09,0-.1.13,0,.17l2,1.17a.42.42,0,0,0,.31,0l2.1-1.22c.09,0,.1-.13,0-.18l-2-1.16a.32.32,0,0,0-.3,0Zm-17,19a.34.34,0,0,0,.31,0l2.11-1.23c.09,0,.1-.13,0-.17l-2-1.17a.42.42,0,0,0-.31,0L43.22,111c-.09.05-.09.13,0,.18Zm-7.59-4.76-2.11,1.22c-.09,0-.1.13,0,.18l2,1.16a.34.34,0,0,0,.31,0l2.11-1.21c.09-.06.1-.14,0-.18l-2-1.17A.37.37,0,0,0,37.64,107.58Zm3.9,3.57a.34.34,0,0,0,.31,0L44,109.93c.08-.05.09-.13,0-.17l-2-1.17a.32.32,0,0,0-.3,0l-2.11,1.22c-.09,0-.1.13,0,.18Zm8.5,1.91,2.11-1.22c.09,0,.09-.13,0-.17l-2-1.17a.32.32,0,0,0-.3,0l-2.11,1.22c-.09,0-.1.13,0,.17l2,1.17a.34.34,0,0,0,.31,0Zm-3.39,1.79a.34.34,0,0,0,.31,0l2.11-1.22c.09,0,.09-.13,0-.17l-2-1.17a.32.32,0,0,0-.3,0l-2.11,1.22c-.09,0-.1.13,0,.18Zm-5.93-9.06L38.61,107c-.09,0-.1.13,0,.18l2,1.16a.32.32,0,0,0,.3,0L43,107.13c.09,0,.1-.13,0-.17l-2-1.17a.34.34,0,0,0-.31,0Zm15.4-8.89L54,98.12c-.09,0-.1.13,0,.17l2,1.17a.34.34,0,0,0,.31,0l2.1-1.22c.09,0,.1-.13,0-.17l-2-1.17a.33.33,0,0,0-.32,0ZM43.8,104l-2.11,1.22c-.09,0-.1.13,0,.18l2,1.16a.34.34,0,0,0,.31,0l2.1-1.21c.1,0,.1-.13,0-.18l-2-1.16a.33.33,0,0,0-.32,0Zm15.4-8.89-2.11,1.23c-.09.05-.1.13,0,.18l2,1.16a.34.34,0,0,0,.31,0l2.11-1.21c.09-.06.1-.14,0-.18l-2-1.17a.35.35,0,0,0-.3,0ZM53,98.7l-2.11,1.22c-.09,0-.1.13,0,.17l2,1.17a.34.34,0,0,0,.31,0L55.34,100c.09-.05.09-.13,0-.18l-2-1.16A.32.32,0,0,0,53,98.7ZM50,100.48l-2.11,1.22c-.09,0-.1.13,0,.17l2,1.16a.32.32,0,0,0,.3,0l2.11-1.21c.09,0,.09-.13,0-.18l-2-1.16a.32.32,0,0,0-.3,0Zm-3.08,1.78-2.11,1.21c-.09,0-.1.13,0,.18l2,1.17a.39.39,0,0,0,.3,0l2.11-1.22c.09,0,.09-.13,0-.18l-2-1.16a.31.31,0,0,0-.28,0Zm14.06,1.19,2.11-1.22c.09,0,.09-.13,0-.18l-2-1.16a.34.34,0,0,0-.31,0l-2.1,1.22c-.09,0-.1.13,0,.18l2,1.16a.34.34,0,0,0,.31,0Zm28.73-25.9-2.1,1.22c-.09,0-.1.13,0,.17l2,1.16a.34.34,0,0,0,.31,0L92,78.89c.09,0,.1-.13,0-.18l-2-1.16a.34.34,0,0,0-.31,0ZM85.94,79.7l-2.1,1.22c-.09,0-.1.13,0,.18l2,1.16a.34.34,0,0,0,.31,0L88.24,81c.09-.05.1-.13,0-.17l-2-1.16a.31.31,0,0,0-.31,0Zm6.81-3.93L90.65,77c-.09.05-.1.13,0,.17l2,1.17a.34.34,0,0,0,.31,0l2.1-1.22c.09,0,.1-.13,0-.18l-2-1.16a.37.37,0,0,0-.31,0Zm-17,15.81,2.11-1.22c.08,0,.09-.13,0-.17l-2-1.17a.32.32,0,0,0-.3,0l-2.11,1.22c-.09.05-.1.13,0,.17l2,1.17A.34.34,0,0,0,75.73,91.58ZM96.14,74a.34.34,0,0,0-.31,0l-2.1,1.24c-.09,0-.1.13,0,.17l2,1.17a.34.34,0,0,0,.31,0l2.1-1.22c.09,0,.1-.13,0-.18ZM64,101.67l2.11-1.22c.09,0,.09-.13,0-.18l-2-1.16a.34.34,0,0,0-.31,0l-2.1,1.21c-.09.05-.1.13,0,.18l2,1.16A.33.33,0,0,0,64,101.67Zm37.77-21.81,2.11-1.22c.09,0,.09-.13,0-.18l-2-1.16a.32.32,0,0,0-.3,0l-2.11,1.22c-.09,0-.09.13,0,.18l2,1.16A.36.36,0,0,0,101.79,79.86Zm-6,.11,2.11-1.21c.09-.05.09-.13,0-.18l-2-1.16a.34.34,0,0,0-.31,0l-2.1,1.21c-.09.06-.1.13,0,.18l2,1.16A.34.34,0,0,0,95.83,80ZM99,75.64a.34.34,0,0,0-.31,0L96.6,76.85c-.08.06-.09.13,0,.18l2,1.17a.42.42,0,0,0,.31,0L101,77c.09,0,.1-.13,0-.18Zm.65-.38,4.9,2.83a.32.32,0,0,0,.3,0L107,76.87c.09-.05.09-.13,0-.17l-4.89-2.83a.42.42,0,0,0-.31,0l-2.11,1.22c-.08,0-.09.13,0,.17Zm-7.12,3.95-2.11,1.21c-.09,0-.09.13,0,.18l2,1.16a.34.34,0,0,0,.31,0l2.1-1.22c.09-.05.1-.13,0-.17l-2-1.16a.34.34,0,0,0-.31,0ZM69.37,92.59l-2.11,1.22c-.08,0-.09.13,0,.17l2,1.16a.32.32,0,0,0,.3,0l2.11-1.21c.09-.05.1-.13,0-.18l-2-1.16a.34.34,0,0,0-.31,0Zm29-10.94a.42.42,0,0,0,.31,0l2.11-1.22c.08-.05.1-.13,0-.18l-2-1.16a.32.32,0,0,0-.3,0l-2.11,1.22c-.09,0-.09.13,0,.17ZM72.45,90.81,70.36,92c-.09,0-.1.13,0,.18l2,1.16a.42.42,0,0,0,.31,0l2.1-1.22c.1-.05.11-.13,0-.18l-2-1.16a.34.34,0,0,0-.34,0ZM48.3,110.57a.34.34,0,0,0,.31,0l2.1-1.22c.09,0,.1-.13,0-.18l-2-1.16a.34.34,0,0,0-.31,0l-2.1,1.22c-.09,0-.1.13,0,.17Zm-3.58-3.75L42.61,108c-.09,0-.09.13,0,.18l2,1.16a.32.32,0,0,0,.3,0L47,108.15c.09-.05.1-.13,0-.17l-2-1.16a.3.3,0,0,0-.29,0Zm7,1.94,2.11-1.21c.09,0,.09-.13,0-.18l-2-1.16a.32.32,0,0,0-.3,0l-2.11,1.21c-.09.06-.1.13,0,.18l2,1.16A.34.34,0,0,0,51.7,108.76ZM54.78,107l2.11-1.22c.09,0,.09-.13,0-.18l-2-1.16a.32.32,0,0,0-.3,0l-2.11,1.21c-.09.06-.1.14,0,.18l2,1.17a.33.33,0,0,0,.32,0Zm3.08-1.78L60,104c.09,0,.09-.13,0-.17l-2-1.17a.32.32,0,0,0-.3,0l-2.11,1.22c-.09,0-.1.13,0,.17l2,1.17a.33.33,0,0,0,.32,0ZM47.8,105l-2.11,1.22c-.09.05-.1.13,0,.18l2,1.16a.34.34,0,0,0,.31,0l2.11-1.22c.08,0,.09-.13,0-.18l-2-1.16a.33.33,0,0,0-.29,0Zm3.08-1.77-2.11,1.21c-.09.05-.1.13,0,.18l2,1.16a.34.34,0,0,0,.31,0l2.11-1.22c.08,0,.09-.13,0-.17l-2-1.17a.34.34,0,0,0-.26,0Zm12.31-7.12L61.1,97.36c-.09,0-.09.13,0,.18l2,1.16a.32.32,0,0,0,.3,0l2.11-1.22c.09,0,.1-.13,0-.18l-2-1.16a.38.38,0,0,0-.33,0Zm-3.08,1.78L58,99.13c-.09.05-.1.13,0,.17l2,1.17a.34.34,0,0,0,.31,0l2.1-1.22c.09,0,.1-.13,0-.18l-2-1.16a.37.37,0,0,0-.31,0Zm6.16-3.56-2.1,1.22c-.09.05-.1.13,0,.18l2,1.16a.34.34,0,0,0,.31,0l2.1-1.21c.1-.06.1-.13,0-.18l-2-1.16a.3.3,0,0,0-.29,0ZM54,101.46l-2.1,1.22c-.09.06-.1.13,0,.18l2,1.16a.34.34,0,0,0,.31,0l2.11-1.21c.09,0,.09-.13,0-.18l-2-1.17a.36.36,0,0,0-.27,0ZM57,99.69l-2.1,1.21c-.09.06-.1.13,0,.18l2,1.17a.34.34,0,0,0,.31,0l2.13-1.2c.09,0,.09-.13,0-.18l-2-1.16a.34.34,0,0,0-.31,0ZM53.1,111.27l2.11-1.22c.09,0,.1-.13,0-.18l-2-1.16a.34.34,0,0,0-.31,0l-2.11,1.22c-.09,0-.1.13,0,.17l2,1.17a.33.33,0,0,0,.32,0Zm-16.24-.77-2-1.16a.34.34,0,0,0-.31,0l-2.09,1.24c-.09,0-.1.13,0,.18l2,1.16a.34.34,0,0,0,.31,0l2.11-1.22c.09-.06.1-.14,0-.18Zm4,1-2-1.17a.42.42,0,0,0-.31,0l-3.24,1.88c-.09,0-.1.13,0,.17l2,1.16a.32.32,0,0,0,.3,0l3.24-1.87c.09,0,.1-.11,0-.15Zm-7-3.31-2-1.16a.34.34,0,0,0-.31,0L29,108.54c-.09,0-.1.13,0,.17l2,1.16a.34.34,0,0,0,.31,0l2.6-1.49c.09,0,.1-.12,0-.16Zm2-1.15a.34.34,0,0,0,.31,0l2.1-1.21c.1,0,.1-.14,0-.18l-2-1.17a.42.42,0,0,0-.31,0l-2.1,1.26c-.09,0-.1.13,0,.17Zm8.72,5.65-2-1.16a.32.32,0,0,0-.3,0l-4.06,2.35c-.09,0-.09.13,0,.17l2,1.17a.34.34,0,0,0,.31,0l4.05-2.35c.1,0,.11-.11,0-.16ZM46,115.21,44,114a.32.32,0,0,0-.3,0l-2.6,1.5c-.08,0-.09.13,0,.18l2,1.16a.32.32,0,0,0,.3,0l2.6-1.5c.1,0,.1-.11,0-.15ZM58.75,93.83a.32.32,0,0,0,.3,0l2.11-1.22c.09,0,.09-.13,0-.17l-2-1.17a.39.39,0,0,0-.3,0l-2.11,1.22c-.09.05-.1.13,0,.18Zm-6.16,3.56a.32.32,0,0,0,.3,0L55,96.17c.09,0,.1-.13,0-.18l-2-1.16a.34.34,0,0,0-.31,0L50.59,96c-.09.06-.1.13,0,.18Zm-13.66,7.89a.39.39,0,0,0,.3,0l2.11-1.22c.09,0,.09-.13,0-.18l-2-1.16a.32.32,0,0,0-.3,0l-2.11,1.21c-.09,0-.1.13,0,.18Zm16.74-9.67a.32.32,0,0,0,.3,0l2.11-1.22c.09,0,.1-.13,0-.18l-2-1.16a.34.34,0,0,0-.31,0l-2.11,1.22c-.09,0-.1.13,0,.17Zm-6.16,3.56a.32.32,0,0,0,.3,0L51.92,98c.09,0,.1-.13,0-.18l-2-1.16a.32.32,0,0,0-.3,0l-2.11,1.21c-.09.05-.1.13,0,.18Zm-2,16.16a.32.32,0,0,0-.3,0L44,117.2c-.09.06-.1.14,0,.18l2,1.16a.34.34,0,0,0,.31,0l3.24-1.87c.09,0,.1-.13,0-.17Zm-2.42-13.61a.34.34,0,0,0,.31,0l2.11-1.22c.09,0,.1-.13,0-.18l-2-1.16a.32.32,0,0,0-.3,0l-2.11,1.22c-.09.05-.1.13,0,.18ZM42,103.5a.32.32,0,0,0,.3,0l2.11-1.22c.09,0,.1-.13,0-.18l-2-1.16a.32.32,0,0,0-.3,0L40,102.16c-.09,0-.1.13,0,.17Zm62.58-21.09a.34.34,0,0,0-.31,0l-5.18,3c-.09,0-.1.13,0,.18l2,1.16a.34.34,0,0,0,.31,0l5.2-3c.09,0,.1-.13,0-.17Zm-6.81,3.92a.39.39,0,0,0-.3,0l-2.11,1.22c-.09,0-.1.13,0,.18l2,1.16a.34.34,0,0,0,.31,0l2.1-1.22c.09,0,.1-.13,0-.17ZM56.2,109.51l2.11-1.22c.09-.05.1-.13,0-.18l-2-1.16a.34.34,0,0,0-.31,0l-2.11,1.21c-.09.06-.09.13,0,.18l2,1.17A.36.36,0,0,0,56.2,109.51ZM91.61,89.89a.34.34,0,0,0-.31,0L89.2,91.1c-.09.06-.1.14,0,.18l2,1.17a.32.32,0,0,0,.3,0l2.11-1.22c.09,0,.1-.13,0-.18Zm16-9.26a.34.34,0,0,0-.31,0l-2.1,1.22c-.09.06-.1.13,0,.18l2,1.16a.32.32,0,0,0,.3,0L109.66,82c.09,0,.1-.13,0-.18Zm5.09-.62-4.89-2.82a.34.34,0,0,0-.31,0l-2.11,1.21c-.08,0-.09.13,0,.18l4.9,2.83a.32.32,0,0,0,.3,0l2.11-1.22c.09,0,.09-.13,0-.18ZM80.09,96.54a.34.34,0,0,0-.31,0L77.19,98c-.09,0-.1.13,0,.17l2,1.16a.32.32,0,0,0,.3,0l2.6-1.49c.09-.06.1-.13,0-.18ZM87.87,92a.42.42,0,0,0-.31,0l-3.24,1.88c-.09,0-.1.13,0,.17l2,1.17a.32.32,0,0,0,.3,0l3.24-1.87c.09-.06.1-.13,0-.18ZM73,100.66a.34.34,0,0,0-.31,0l-17.35,10c-.08,0-.09.13,0,.18l2,1.16a.32.32,0,0,0,.3,0L75,102c.09,0,.09-.13,0-.18ZM54.64,111.23a.34.34,0,0,0-.31,0l-2.59,1.5c-.09,0-.1.13,0,.17l2,1.17a.34.34,0,0,0,.31,0l2.59-1.5c.09,0,.1-.13,0-.18ZM76.52,98.6a.32.32,0,0,0-.3,0l-2.6,1.49c-.09.06-.1.13,0,.18l2,1.16a.34.34,0,0,0,.31,0l2.59-1.49c.09-.06.1-.13,0-.18ZM51.07,113.29a.34.34,0,0,0-.31,0l-2.58,1.51c-.09.06-.09.13,0,.18l2,1.16a.34.34,0,0,0,.31,0l2.59-1.49c.09-.06.1-.13,0-.18ZM83.65,94.48a.32.32,0,0,0-.3,0L80.76,96c-.09.05-.1.13,0,.17l2,1.17a.34.34,0,0,0,.31,0l2.59-1.5c.09,0,.1-.13,0-.18Zm11-6.37a.34.34,0,0,0-.31,0l-2.11,1.21c-.08.05-.09.13,0,.18l2,1.16a.32.32,0,0,0,.3,0l2.11-1.22c.09,0,.1-.13,0-.17Zm6.9-4.82,2.1-1.21c.09-.06.1-.13,0-.18l-2-1.16a.34.34,0,0,0-.31,0L99.27,82c-.08,0-.09.13,0,.18l2,1.16a.33.33,0,0,0,.32,0ZM89,83.9l2.11-1.22c.08-.05.09-.13,0-.18l-2-1.16a.32.32,0,0,0-.3,0l-2.11,1.22c-.09,0-.1.13,0,.17l2,1.17a.37.37,0,0,0,.34,0ZM80.83,95.27,87,91.72c.09,0,.09-.14,0-.18l-2-1.17a.34.34,0,0,0-.31,0l-6.15,3.56c-.09,0-.1.13,0,.17l2,1.17a.36.36,0,0,0,.32,0ZM98.2,85.09a.34.34,0,0,0,.31,0l2.11-1.22c.09-.05.09-.13,0-.18l-2-1.16a.32.32,0,0,0-.3,0l-2.13,1.22c-.09,0-.1.13,0,.17Zm-2.57-1.68,2.11-1.22c.09,0,.1-.13,0-.18l-2-1.16a.32.32,0,0,0-.3,0l-2.11,1.22c-.09.05-.1.13,0,.17l2,1.17a.37.37,0,0,0,.31,0ZM77.76,97.06l2.11-1.22c.09,0,.09-.13,0-.18l-2-1.16a.32.32,0,0,0-.3,0l-2.11,1.22c-.09,0-.1.13,0,.17l2,1.17A.32.32,0,0,0,77.76,97.06ZM91.39,89a.34.34,0,0,0,.31,0l2.11-1.21c.09-.05.1-.13,0-.18l-2-1.16a.32.32,0,0,0-.3,0L89.4,87.67c-.09,0-.1.13,0,.17Zm-29,16.94,2.11-1.22c.09-.06.1-.13,0-.18l-2-1.16a.32.32,0,0,0-.3,0l-2.11,1.21c-.09,0-.1.14,0,.18l2,1.17a.37.37,0,0,0,.31,0Zm3.08-1.78,2.11-1.22c.09,0,.1-.13,0-.18l-2-1.16a.34.34,0,0,0-.31,0l-2.11,1.22c-.09.05-.09.13,0,.17l2,1.17a.33.33,0,0,0,.32,0Zm-6.15,3.57,2.11-1.22c.08-.05.09-.13,0-.18l-2-1.16a.34.34,0,0,0-.31,0L57,106.39c-.09,0-.1.13,0,.17l2,1.17A.42.42,0,0,0,59.29,107.73Zm12.31-7.12,2.11-1.21c.09-.06.1-.13,0-.18l-2-1.16a.32.32,0,0,0-.3,0L69.3,99.27c-.09,0-.1.13,0,.18l2,1.17A.35.35,0,0,0,71.6,100.61Zm-3.08,1.78,2.11-1.21c.09-.06.1-.14,0-.18l-2-1.17a.34.34,0,0,0-.31,0l-2.09,1.22c-.09,0-.1.13,0,.18l2,1.16a.34.34,0,0,0,.31,0Zm6.16-3.56,2.11-1.21c.09-.05.09-.13,0-.18l-2-1.16a.32.32,0,0,0-.3,0l-2.12,1.23c-.09,0-.09.13,0,.17l2,1.17a.33.33,0,0,0,.29,0ZM91.49,74.1a.34.34,0,0,0,.31,0l2.11-1.22c.09,0,.09-.13,0-.18l-.54-.3a.34.34,0,0,0-.31,0L91,73.61c-.08,0-.09.13,0,.18Zm-15.3,9.69a.32.32,0,0,0,.3,0l2.11-1.22c.09,0,.1-.13,0-.17l-2-1.17a.34.34,0,0,0-.31,0l-2.11,1.22c-.09,0-.1.13,0,.18Zm6.15-3.54a.32.32,0,0,0,.3,0L84.75,79c.09,0,.1-.13,0-.17l-2-1.17a.34.34,0,0,0-.31,0l-2.11,1.22c-.09,0-.1.13,0,.17ZM72.42,86a.32.32,0,0,0,.3,0l2.11-1.22c.09,0,.1-.13,0-.17l-2-1.17a.34.34,0,0,0-.31,0l-2.09,1.22c-.09,0-.1.13,0,.18Zm6.84-4a.34.34,0,0,0,.31,0l2.1-1.21c.09-.06.1-.14,0-.18l-2-1.17a.34.34,0,0,0-.31,0l-2.11,1.22c-.08,0-.09.13,0,.18Zm-13,7.51a.34.34,0,0,0,.31,0l2.11-1.21c.09,0,.1-.13,0-.17l-2-1.17a.34.34,0,0,0-.31,0l-2.1,1.21c-.09.06-.1.13,0,.18Zm3.08-1.78a.34.34,0,0,0,.31,0l2.1-1.22c.09-.05.1-.13,0-.17l-2-1.17a.34.34,0,0,0-.31,0L67.34,86.4c-.09,0-.1.13,0,.18Zm16-10.08a.39.39,0,0,0,.3,0l2.11-1.22c.09-.05.1-.13,0-.18l-.54-.31a.32.32,0,0,0-.3,0l-2.11,1.22c-.09,0-.1.13,0,.18Zm9.24-5.34a.32.32,0,0,0,.3,0L97,71.09c.09,0,.1-.13,0-.17l-.54-.31a.32.32,0,0,0-.3,0l-2.11,1.21c-.09.06-.1.13,0,.18Zm4.23,2.44a.34.34,0,0,0,.31,0l2.11-1.21c.09-.05.1-.13,0-.18l-2-1.16a.32.32,0,0,0-.3,0L96.8,73.42c-.09,0-.1.13,0,.17Zm5.87,6.76,2.11-1.21c.09-.06.1-.14,0-.18l-2-1.17a.32.32,0,0,0-.3,0l-2.11,1.22c-.09,0-.1.13,0,.18l2,1.16a.33.33,0,0,0,.29,0ZM88.41,75.89a.32.32,0,0,0,.3,0l2.11-1.22c.09,0,.1-.13,0-.17l-.54-.31a.32.32,0,0,0-.3,0L87.89,75.4c-.09,0-.1.14,0,.18ZM63.18,91.32a.34.34,0,0,0,.31,0l2.1-1.22c.09,0,.1-.13,0-.17l-2-1.17a.34.34,0,0,0-.31,0L61.18,90c-.09,0-.09.13,0,.18Z"/><path class="cls-9" d="M85.94,85.68l2.11-1.21c.09,0,.1-.14,0-.18l-2-1.17a.34.34,0,0,0-.31,0l-2.11,1.22c-.09,0-.09.13,0,.18l2,1.16A.31.31,0,0,0,85.94,85.68Zm-3.08-4.21-2.1,1.22c-.09,0-.1.13,0,.18l2,1.16a.32.32,0,0,0,.3,0l2.11-1.22c.09,0,.09-.13,0-.17l-2-1.17a.34.34,0,0,0-.31,0Zm-6.8,3.94-3.56,2c-.09.06-.1.13,0,.18l2,1.16a.34.34,0,0,0,.31,0l3.56-2.06c.09,0,.1-.13,0-.17l-2-1.17A.31.31,0,0,0,76.06,85.41Zm3.72-2.14-2.1,1.22c-.09.05-.1.13,0,.17l2,1.16a.34.34,0,0,0,.31,0l2.1-1.21c.1,0,.1-.13,0-.18l-2-1.16A.34.34,0,0,0,79.78,83.27ZM71.52,88l-2.11,1.22c-.09,0-.1.13,0,.17l2,1.17a.34.34,0,0,0,.31,0l2.11-1.22c.09,0,.1-.13,0-.17l-2-1.17a.32.32,0,0,0-.3,0Zm-3.08,1.78L66.33,91c-.09,0-.09.13,0,.18l2,1.16a.34.34,0,0,0,.31,0l2.1-1.22c.09,0,.1-.13,0-.17l-2-1.17a.34.34,0,0,0-.31,0Zm7.9,4.75,2.11-1.22c.09,0,.1-.13,0-.18l-2-1.16a.34.34,0,0,0-.31,0l-2.08,1.21c-.09,0-.1.13,0,.18l2,1.16a.32.32,0,0,0,.3,0Zm-3.08,1.78,2.11-1.22c.09,0,.1-.13,0-.18l-2-1.16a.32.32,0,0,0-.3,0L71,95c-.08,0-.09.13,0,.18l2,1.16a.31.31,0,0,0,.31,0Zm-3.08,1.78,2.11-1.22c.09,0,.09-.13,0-.18l-2-1.16a.32.32,0,0,0-.3,0l-2.11,1.21c-.09.06-.1.14,0,.18l2,1.17a.37.37,0,0,0,.31,0ZM67.1,99.9l2.11-1.21c.09,0,.09-.13,0-.18l-2-1.17a.34.34,0,0,0-.31,0l-2.1,1.22c-.09,0-.1.13,0,.18l2,1.16a.33.33,0,0,0,.29,0ZM82.87,87.49,85,86.27c.08,0,.09-.13,0-.17l-2-1.17a.32.32,0,0,0-.3,0l-2.11,1.22c-.09,0-.1.13,0,.17l2,1.17a.32.32,0,0,0,.3,0Zm-3.45,5.28,4.69-2.71c.09,0,.1-.13,0-.18l-4.89-2.82a.34.34,0,0,0-.31,0l-2.43,1.4c-.09.05-.1.13,0,.18l2.59,1.49c.08.05.07.13,0,.18l-1.94,1.12c-.09,0-.1.13,0,.18l2,1.17A.33.33,0,0,0,79.42,92.77ZM65.35,91.58l-2.1,1.22c-.09,0-.1.13,0,.17l2,1.17a.34.34,0,0,0,.31,0l2.11-1.22c.08,0,.09-.13,0-.17l-2-1.17a.34.34,0,0,0-.28,0Zm-3.08,1.78-2.1,1.22c-.09,0-.1.13,0,.17l2,1.17a.42.42,0,0,0,.31,0l2.1-1.22c.09,0,.1-.13,0-.18l-2-1.16a.32.32,0,0,0-.3,0Zm-17,19a.34.34,0,0,0,.31,0l2.11-1.23c.09,0,.1-.13,0-.17l-2-1.17a.42.42,0,0,0-.31,0L43.22,111c-.09.05-.09.13,0,.18Zm-7.59-4.76-2.11,1.22c-.09,0-.1.13,0,.18l2,1.16a.34.34,0,0,0,.31,0l2.11-1.21c.09-.06.1-.14,0-.18l-2-1.17A.37.37,0,0,0,37.64,107.58Zm3.9,3.57a.34.34,0,0,0,.31,0L44,109.93c.08-.05.09-.13,0-.17l-2-1.17a.32.32,0,0,0-.3,0l-2.11,1.22c-.09,0-.1.13,0,.18Zm8.5,1.91,2.11-1.22c.09,0,.09-.13,0-.17l-2-1.17a.32.32,0,0,0-.3,0l-2.11,1.22c-.09,0-.1.13,0,.17l2,1.17a.34.34,0,0,0,.31,0Zm-3.39,1.79a.34.34,0,0,0,.31,0l2.11-1.22c.09,0,.09-.13,0-.17l-2-1.17a.32.32,0,0,0-.3,0l-2.11,1.22c-.09,0-.1.13,0,.18Zm-5.93-9.06L38.61,107c-.09,0-.1.13,0,.18l2,1.16a.32.32,0,0,0,.3,0L43,107.13c.09,0,.1-.13,0-.17l-2-1.17a.34.34,0,0,0-.31,0Zm15.4-8.89L54,98.12c-.09,0-.1.13,0,.17l2,1.17a.34.34,0,0,0,.31,0l2.1-1.22c.09,0,.1-.13,0-.17l-2-1.17a.33.33,0,0,0-.32,0ZM43.8,104l-2.11,1.22c-.09,0-.1.13,0,.18l2,1.16a.34.34,0,0,0,.31,0l2.1-1.21c.1,0,.1-.13,0-.18l-2-1.16a.33.33,0,0,0-.32,0Zm15.4-8.89-2.11,1.23c-.09.05-.1.13,0,.18l2,1.16a.34.34,0,0,0,.31,0l2.11-1.21c.09-.06.1-.14,0-.18l-2-1.17a.35.35,0,0,0-.3,0ZM53,98.7l-2.11,1.22c-.09,0-.1.13,0,.17l2,1.17a.34.34,0,0,0,.31,0L55.34,100c.09-.05.09-.13,0-.18l-2-1.16A.32.32,0,0,0,53,98.7ZM50,100.48l-2.11,1.22c-.09,0-.1.13,0,.17l2,1.16a.32.32,0,0,0,.3,0l2.11-1.21c.09,0,.09-.13,0-.18l-2-1.16a.32.32,0,0,0-.3,0Zm-3.08,1.78-2.11,1.21c-.09,0-.1.13,0,.18l2,1.17a.39.39,0,0,0,.3,0l2.11-1.22c.09,0,.09-.13,0-.18l-2-1.16a.31.31,0,0,0-.28,0Zm14.06,1.19,2.11-1.22c.09,0,.09-.13,0-.18l-2-1.16a.34.34,0,0,0-.31,0l-2.1,1.22c-.09,0-.1.13,0,.18l2,1.16a.34.34,0,0,0,.31,0Zm28.73-25.9-2.1,1.22c-.09,0-.1.13,0,.17l2,1.16a.34.34,0,0,0,.31,0L92,78.89c.09,0,.1-.13,0-.18l-2-1.16a.34.34,0,0,0-.31,0ZM85.94,79.7l-2.1,1.22c-.09,0-.1.13,0,.18l2,1.16a.34.34,0,0,0,.31,0L88.24,81c.09-.05.1-.13,0-.17l-2-1.16a.31.31,0,0,0-.31,0Zm6.81-3.93L90.65,77c-.09.05-.1.13,0,.17l2,1.17a.34.34,0,0,0,.31,0l2.1-1.22c.09,0,.1-.13,0-.18l-2-1.16a.37.37,0,0,0-.31,0Zm-17,15.81,2.11-1.22c.08,0,.09-.13,0-.17l-2-1.17a.32.32,0,0,0-.3,0l-2.11,1.22c-.09.05-.1.13,0,.17l2,1.17A.34.34,0,0,0,75.73,91.58ZM96.14,74a.34.34,0,0,0-.31,0l-2.1,1.24c-.09,0-.1.13,0,.17l2,1.17a.34.34,0,0,0,.31,0l2.1-1.22c.09,0,.1-.13,0-.18ZM64,101.67l2.11-1.22c.09,0,.09-.13,0-.18l-2-1.16a.34.34,0,0,0-.31,0l-2.1,1.21c-.09.05-.1.13,0,.18l2,1.16A.33.33,0,0,0,64,101.67Zm37.77-21.81,2.11-1.22c.09,0,.09-.13,0-.18l-2-1.16a.32.32,0,0,0-.3,0l-2.11,1.22c-.09,0-.09.13,0,.18l2,1.16A.36.36,0,0,0,101.79,79.86Zm-6,.11,2.11-1.21c.09-.05.09-.13,0-.18l-2-1.16a.34.34,0,0,0-.31,0l-2.1,1.21c-.09.06-.1.13,0,.18l2,1.16A.34.34,0,0,0,95.83,80ZM99,75.64a.34.34,0,0,0-.31,0L96.6,76.85c-.08.06-.09.13,0,.18l2,1.17a.42.42,0,0,0,.31,0L101,77c.09,0,.1-.13,0-.18Zm.65-.38,4.9,2.83a.32.32,0,0,0,.3,0L107,76.87c.09-.05.09-.13,0-.17l-4.89-2.83a.42.42,0,0,0-.31,0l-2.11,1.22c-.08,0-.09.13,0,.17Zm-7.12,3.95-2.11,1.21c-.09,0-.09.13,0,.18l2,1.16a.34.34,0,0,0,.31,0l2.1-1.22c.09-.05.1-.13,0-.17l-2-1.16a.34.34,0,0,0-.31,0ZM69.37,92.59l-2.11,1.22c-.08,0-.09.13,0,.17l2,1.16a.32.32,0,0,0,.3,0l2.11-1.21c.09-.05.1-.13,0-.18l-2-1.16a.34.34,0,0,0-.31,0Zm29-10.94a.42.42,0,0,0,.31,0l2.11-1.22c.08-.05.1-.13,0-.18l-2-1.16a.32.32,0,0,0-.3,0l-2.11,1.22c-.09,0-.09.13,0,.17ZM72.45,90.81,70.36,92c-.09,0-.1.13,0,.18l2,1.16a.42.42,0,0,0,.31,0l2.1-1.22c.1-.05.11-.13,0-.18l-2-1.16a.34.34,0,0,0-.34,0ZM48.3,110.57a.34.34,0,0,0,.31,0l2.1-1.22c.09,0,.1-.13,0-.18l-2-1.16a.34.34,0,0,0-.31,0l-2.1,1.22c-.09,0-.1.13,0,.17Zm-3.58-3.75L42.61,108c-.09,0-.09.13,0,.18l2,1.16a.32.32,0,0,0,.3,0L47,108.15c.09-.05.1-.13,0-.17l-2-1.16a.3.3,0,0,0-.29,0Zm7,1.94,2.11-1.21c.09,0,.09-.13,0-.18l-2-1.16a.32.32,0,0,0-.3,0l-2.11,1.21c-.09.06-.1.13,0,.18l2,1.16A.34.34,0,0,0,51.7,108.76ZM54.78,107l2.11-1.22c.09,0,.09-.13,0-.18l-2-1.16a.32.32,0,0,0-.3,0l-2.11,1.21c-.09.06-.1.14,0,.18l2,1.17a.33.33,0,0,0,.32,0Zm3.08-1.78L60,104c.09,0,.09-.13,0-.17l-2-1.17a.32.32,0,0,0-.3,0l-2.11,1.22c-.09,0-.1.13,0,.17l2,1.17a.33.33,0,0,0,.32,0ZM47.8,105l-2.11,1.22c-.09.05-.1.13,0,.18l2,1.16a.34.34,0,0,0,.31,0l2.11-1.22c.08,0,.09-.13,0-.18l-2-1.16a.33.33,0,0,0-.29,0Zm3.08-1.77-2.11,1.21c-.09.05-.1.13,0,.18l2,1.16a.34.34,0,0,0,.31,0l2.11-1.22c.08,0,.09-.13,0-.17l-2-1.17a.34.34,0,0,0-.26,0Zm12.31-7.12L61.1,97.36c-.09,0-.09.13,0,.18l2,1.16a.32.32,0,0,0,.3,0l2.11-1.22c.09,0,.1-.13,0-.18l-2-1.16a.38.38,0,0,0-.33,0Zm-3.08,1.78L58,99.13c-.09.05-.1.13,0,.17l2,1.17a.34.34,0,0,0,.31,0l2.1-1.22c.09,0,.1-.13,0-.18l-2-1.16a.37.37,0,0,0-.31,0Zm6.16-3.56-2.1,1.22c-.09.05-.1.13,0,.18l2,1.16a.34.34,0,0,0,.31,0l2.1-1.21c.1-.06.1-.13,0-.18l-2-1.16a.3.3,0,0,0-.29,0ZM54,101.46l-2.1,1.22c-.09.06-.1.13,0,.18l2,1.16a.34.34,0,0,0,.31,0l2.11-1.21c.09,0,.09-.13,0-.18l-2-1.17a.36.36,0,0,0-.27,0ZM57,99.69l-2.1,1.21c-.09.06-.1.13,0,.18l2,1.17a.34.34,0,0,0,.31,0l2.13-1.2c.09,0,.09-.13,0-.18l-2-1.16a.34.34,0,0,0-.31,0ZM53.1,111.27l2.11-1.22c.09,0,.1-.13,0-.18l-2-1.16a.34.34,0,0,0-.31,0l-2.11,1.22c-.09,0-.1.13,0,.17l2,1.17a.33.33,0,0,0,.32,0Zm-16.24-.77-2-1.16a.34.34,0,0,0-.31,0l-2.09,1.24c-.09,0-.1.13,0,.18l2,1.16a.34.34,0,0,0,.31,0l2.11-1.22c.09-.06.1-.14,0-.18Zm4,1-2-1.17a.42.42,0,0,0-.31,0l-3.24,1.88c-.09,0-.1.13,0,.17l2,1.16a.32.32,0,0,0,.3,0l3.24-1.87c.09,0,.1-.11,0-.15Zm-7-3.31-2-1.16a.34.34,0,0,0-.31,0L29,108.54c-.09,0-.1.13,0,.17l2,1.16a.34.34,0,0,0,.31,0l2.6-1.49c.09,0,.1-.12,0-.16Zm2-1.15a.34.34,0,0,0,.31,0l2.1-1.21c.1,0,.1-.14,0-.18l-2-1.17a.42.42,0,0,0-.31,0l-2.1,1.26c-.09,0-.1.13,0,.17Zm8.72,5.65-2-1.16a.32.32,0,0,0-.3,0l-4.06,2.35c-.09,0-.09.13,0,.17l2,1.17a.34.34,0,0,0,.31,0l4.05-2.35c.1,0,.11-.11,0-.16ZM46,115.21,44,114a.32.32,0,0,0-.3,0l-2.6,1.5c-.08,0-.09.13,0,.18l2,1.16a.32.32,0,0,0,.3,0l2.6-1.5c.1,0,.1-.11,0-.15ZM58.75,93.83a.32.32,0,0,0,.3,0l2.11-1.22c.09,0,.09-.13,0-.17l-2-1.17a.39.39,0,0,0-.3,0l-2.11,1.22c-.09.05-.1.13,0,.18Zm-6.16,3.56a.32.32,0,0,0,.3,0L55,96.17c.09,0,.1-.13,0-.18l-2-1.16a.34.34,0,0,0-.31,0L50.59,96c-.09.06-.1.13,0,.18Zm-13.66,7.89a.39.39,0,0,0,.3,0l2.11-1.22c.09,0,.09-.13,0-.18l-2-1.16a.32.32,0,0,0-.3,0l-2.11,1.21c-.09,0-.1.13,0,.18Zm16.74-9.67a.32.32,0,0,0,.3,0l2.11-1.22c.09,0,.1-.13,0-.18l-2-1.16a.34.34,0,0,0-.31,0l-2.11,1.22c-.09,0-.1.13,0,.17Zm-6.16,3.56a.32.32,0,0,0,.3,0L51.92,98c.09,0,.1-.13,0-.18l-2-1.16a.32.32,0,0,0-.3,0l-2.11,1.21c-.09.05-.1.13,0,.18Zm-2,16.16a.32.32,0,0,0-.3,0L44,117.2c-.09.06-.1.14,0,.18l2,1.16a.34.34,0,0,0,.31,0l3.24-1.87c.09,0,.1-.13,0-.17Zm-2.42-13.61a.34.34,0,0,0,.31,0l2.11-1.22c.09,0,.1-.13,0-.18l-2-1.16a.32.32,0,0,0-.3,0l-2.11,1.22c-.09.05-.1.13,0,.18ZM42,103.5a.32.32,0,0,0,.3,0l2.11-1.22c.09,0,.1-.13,0-.18l-2-1.16a.32.32,0,0,0-.3,0L40,102.16c-.09,0-.1.13,0,.17Zm62.58-21.09a.34.34,0,0,0-.31,0l-5.18,3c-.09,0-.1.13,0,.18l2,1.16a.34.34,0,0,0,.31,0l5.2-3c.09,0,.1-.13,0-.17Zm-6.81,3.92a.39.39,0,0,0-.3,0l-2.11,1.22c-.09,0-.1.13,0,.18l2,1.16a.34.34,0,0,0,.31,0l2.1-1.22c.09,0,.1-.13,0-.17ZM56.2,109.51l2.11-1.22c.09-.05.1-.13,0-.18l-2-1.16a.34.34,0,0,0-.31,0l-2.11,1.21c-.09.06-.09.13,0,.18l2,1.17A.36.36,0,0,0,56.2,109.51ZM91.61,89.89a.34.34,0,0,0-.31,0L89.2,91.1c-.09.06-.1.14,0,.18l2,1.17a.32.32,0,0,0,.3,0l2.11-1.22c.09,0,.1-.13,0-.18Zm16-9.26a.34.34,0,0,0-.31,0l-2.1,1.22c-.09.06-.1.13,0,.18l2,1.16a.32.32,0,0,0,.3,0L109.66,82c.09,0,.1-.13,0-.18Zm5.09-.62-4.89-2.82a.34.34,0,0,0-.31,0l-2.11,1.21c-.08,0-.09.13,0,.18l4.9,2.83a.32.32,0,0,0,.3,0l2.11-1.22c.09,0,.09-.13,0-.18ZM80.09,96.54a.34.34,0,0,0-.31,0L77.19,98c-.09,0-.1.13,0,.17l2,1.16a.32.32,0,0,0,.3,0l2.6-1.49c.09-.06.1-.13,0-.18ZM87.87,92a.42.42,0,0,0-.31,0l-3.24,1.88c-.09,0-.1.13,0,.17l2,1.17a.32.32,0,0,0,.3,0l3.24-1.87c.09-.06.1-.13,0-.18ZM73,100.66a.34.34,0,0,0-.31,0l-17.35,10c-.08,0-.09.13,0,.18l2,1.16a.32.32,0,0,0,.3,0L75,102c.09,0,.09-.13,0-.18ZM54.64,111.23a.34.34,0,0,0-.31,0l-2.59,1.5c-.09,0-.1.13,0,.17l2,1.17a.34.34,0,0,0,.31,0l2.59-1.5c.09,0,.1-.13,0-.18ZM76.52,98.6a.32.32,0,0,0-.3,0l-2.6,1.49c-.09.06-.1.13,0,.18l2,1.16a.34.34,0,0,0,.31,0l2.59-1.49c.09-.06.1-.13,0-.18ZM51.07,113.29a.34.34,0,0,0-.31,0l-2.58,1.51c-.09.06-.09.13,0,.18l2,1.16a.34.34,0,0,0,.31,0l2.59-1.49c.09-.06.1-.13,0-.18ZM83.65,94.48a.32.32,0,0,0-.3,0L80.76,96c-.09.05-.1.13,0,.17l2,1.17a.34.34,0,0,0,.31,0l2.59-1.5c.09,0,.1-.13,0-.18Zm11-6.37a.34.34,0,0,0-.31,0l-2.11,1.21c-.08.05-.09.13,0,.18l2,1.16a.32.32,0,0,0,.3,0l2.11-1.22c.09,0,.1-.13,0-.17Zm6.9-4.82,2.1-1.21c.09-.06.1-.13,0-.18l-2-1.16a.34.34,0,0,0-.31,0L99.27,82c-.08,0-.09.13,0,.18l2,1.16a.33.33,0,0,0,.32,0ZM89,83.9l2.11-1.22c.08-.05.09-.13,0-.18l-2-1.16a.32.32,0,0,0-.3,0l-2.11,1.22c-.09,0-.1.13,0,.17l2,1.17a.37.37,0,0,0,.34,0ZM80.83,95.27,87,91.72c.09,0,.09-.14,0-.18l-2-1.17a.34.34,0,0,0-.31,0l-6.15,3.56c-.09,0-.1.13,0,.17l2,1.17a.36.36,0,0,0,.32,0ZM98.2,85.09a.34.34,0,0,0,.31,0l2.11-1.22c.09-.05.09-.13,0-.18l-2-1.16a.32.32,0,0,0-.3,0l-2.13,1.22c-.09,0-.1.13,0,.17Zm-2.57-1.68,2.11-1.22c.09,0,.1-.13,0-.18l-2-1.16a.32.32,0,0,0-.3,0l-2.11,1.22c-.09.05-.1.13,0,.17l2,1.17a.37.37,0,0,0,.31,0ZM77.76,97.06l2.11-1.22c.09,0,.09-.13,0-.18l-2-1.16a.32.32,0,0,0-.3,0l-2.11,1.22c-.09,0-.1.13,0,.17l2,1.17A.32.32,0,0,0,77.76,97.06ZM91.39,89a.34.34,0,0,0,.31,0l2.11-1.21c.09-.05.1-.13,0-.18l-2-1.16a.32.32,0,0,0-.3,0L89.4,87.67c-.09,0-.1.13,0,.17Zm-29,16.94,2.11-1.22c.09-.06.1-.13,0-.18l-2-1.16a.32.32,0,0,0-.3,0l-2.11,1.21c-.09,0-.1.14,0,.18l2,1.17a.37.37,0,0,0,.31,0Zm3.08-1.78,2.11-1.22c.09,0,.1-.13,0-.18l-2-1.16a.34.34,0,0,0-.31,0l-2.11,1.22c-.09.05-.09.13,0,.17l2,1.17a.33.33,0,0,0,.32,0Zm-6.15,3.57,2.11-1.22c.08-.05.09-.13,0-.18l-2-1.16a.34.34,0,0,0-.31,0L57,106.39c-.09,0-.1.13,0,.17l2,1.17A.42.42,0,0,0,59.29,107.73Zm12.31-7.12,2.11-1.21c.09-.06.1-.13,0-.18l-2-1.16a.32.32,0,0,0-.3,0L69.3,99.27c-.09,0-.1.13,0,.18l2,1.17A.35.35,0,0,0,71.6,100.61Zm-3.08,1.78,2.11-1.21c.09-.06.1-.14,0-.18l-2-1.17a.34.34,0,0,0-.31,0l-2.09,1.22c-.09,0-.1.13,0,.18l2,1.16a.34.34,0,0,0,.31,0Zm6.16-3.56,2.11-1.21c.09-.05.09-.13,0-.18l-2-1.16a.32.32,0,0,0-.3,0l-2.12,1.23c-.09,0-.09.13,0,.17l2,1.17a.33.33,0,0,0,.29,0ZM91.49,74.1a.34.34,0,0,0,.31,0l2.11-1.22c.09,0,.09-.13,0-.18l-.54-.3a.34.34,0,0,0-.31,0L91,73.61c-.08,0-.09.13,0,.18Zm-15.3,9.69a.32.32,0,0,0,.3,0l2.11-1.22c.09,0,.1-.13,0-.17l-2-1.17a.34.34,0,0,0-.31,0l-2.11,1.22c-.09,0-.1.13,0,.18Zm6.15-3.54a.32.32,0,0,0,.3,0L84.75,79c.09,0,.1-.13,0-.17l-2-1.17a.34.34,0,0,0-.31,0l-2.11,1.22c-.09,0-.1.13,0,.17ZM72.42,86a.32.32,0,0,0,.3,0l2.11-1.22c.09,0,.1-.13,0-.17l-2-1.17a.34.34,0,0,0-.31,0l-2.09,1.22c-.09,0-.1.13,0,.18Zm6.84-4a.34.34,0,0,0,.31,0l2.1-1.21c.09-.06.1-.14,0-.18l-2-1.17a.34.34,0,0,0-.31,0l-2.11,1.22c-.08,0-.09.13,0,.18Zm-13,7.51a.34.34,0,0,0,.31,0l2.11-1.21c.09,0,.1-.13,0-.17l-2-1.17a.34.34,0,0,0-.31,0l-2.1,1.21c-.09.06-.1.13,0,.18Zm3.08-1.78a.34.34,0,0,0,.31,0l2.1-1.22c.09-.05.1-.13,0-.17l-2-1.17a.34.34,0,0,0-.31,0L67.34,86.4c-.09,0-.1.13,0,.18Zm16-10.08a.39.39,0,0,0,.3,0l2.11-1.22c.09-.05.1-.13,0-.18l-.54-.31a.32.32,0,0,0-.3,0l-2.11,1.22c-.09,0-.1.13,0,.18Zm9.24-5.34a.32.32,0,0,0,.3,0L97,71.09c.09,0,.1-.13,0-.17l-.54-.31a.32.32,0,0,0-.3,0l-2.11,1.21c-.09.06-.1.13,0,.18Zm4.23,2.44a.34.34,0,0,0,.31,0l2.11-1.21c.09-.05.1-.13,0-.18l-2-1.16a.32.32,0,0,0-.3,0L96.8,73.42c-.09,0-.1.13,0,.17Zm5.87,6.76,2.11-1.21c.09-.06.1-.14,0-.18l-2-1.17a.32.32,0,0,0-.3,0l-2.11,1.22c-.09,0-.1.13,0,.18l2,1.16a.33.33,0,0,0,.29,0ZM88.41,75.89a.32.32,0,0,0,.3,0l2.11-1.22c.09,0,.1-.13,0-.17l-.54-.31a.32.32,0,0,0-.3,0L87.89,75.4c-.09,0-.1.14,0,.18ZM63.18,91.32a.34.34,0,0,0,.31,0l2.1-1.22c.09,0,.1-.13,0-.17l-2-1.17a.34.34,0,0,0-.31,0L61.18,90c-.09,0-.09.13,0,.18Z"/><polygon class="cls-10" points="72.29 107.18 72.72 107.43 84.2 114.06 104.61 102.27 105.04 102.03 93.13 95.15 72.29 107.18"/><polygon class="cls-3" points="72.72 107.43 84.2 114.06 104.61 102.27 93.13 95.65 72.72 107.43"/><polygon class="cls-11" points="72.72 107.43 84.2 114.06 104.61 102.27 93.13 95.65 72.72 107.43"/><path class="cls-3" d="M13.44,105a2.48,2.48,0,0,0,.58.25,3,3,0,0,1-.58-.24l-.18-.12Z"/><path class="cls-3" d="M16.75,105.21l0,0,0,0Z"/></g></g><g id="freepik--Window--inject-2"><g id="freepik--window--inject-2-2" data-name="freepik--window--inject-2"><g id="freepik--window--inject-2-3" data-name="freepik--window--inject-2"><path class="cls-7" d="M98.88,7.23V7.1l0-.1a.46.46,0,0,0-.07-.14.09.09,0,0,0,0-.05.08.08,0,0,0,0,0,.12.12,0,0,0-.07-.07h0l-.09-.06c-.2-.09-.46-.07-3.47,1.68l-72.93,42c2.12-1.22,1.63-.36,1.63.34v53a.73.73,0,0,0,.39.67l0,0,.06,0a.16.16,0,0,0,.09,0,.36.36,0,0,0,.14,0,.69.69,0,0,0,.37-.1l0,0h0l1.05-.61L97.77,62.29a2.42,2.42,0,0,0,1.1-1.9v-53A.86.86,0,0,0,98.88,7.23Z"/><path class="cls-2" d="M98.37,6.94h0l0,0h0l0,0V7h0l0,.1h0s0,0,0,0V60.28a2.09,2.09,0,0,1-.94,1.62L25.79,103.46l-1,.59h0l-.06,0h0a.36.36,0,0,1-.2.06h-.07l0,0,0,0h0a.45.45,0,0,1-.22-.37v-.27h0V50.7c0-.11,0-.21,0-.32a1,1,0,0,0-.07-.73L95.21,8.59a24.15,24.15,0,0,1,3.16-1.65m0-.34c-.25,0-.87.28-3.34,1.7L22.15,50.36a3.85,3.85,0,0,1,1.43-.61c.39,0,.2.5.2,1v53a.73.73,0,0,0,.39.67l0,0,.06,0a.16.16,0,0,0,.09,0,.36.36,0,0,0,.14,0h0a.67.67,0,0,0,.34-.1l0,0h0l1.05-.61L97.77,62.29a2.42,2.42,0,0,0,1.1-1.9V7.12l0-.1a.35.35,0,0,0-.06-.14.21.21,0,0,0,0-.06l0,0-.07-.07h0l-.1,0-.12,0Z"/><path class="cls-3" d="M98.51,6.63a.81.81,0,0,0-.75.1L38.24,41.08,24.88,48.8a1.07,1.07,0,0,0-.22.15,2.13,2.13,0,0,0-.3.3,3.09,3.09,0,0,0-.26.37l-1.4-.82a3,3,0,0,1,.34-.45l.1-.1a1.66,1.66,0,0,1,.34-.25l13.37-7.71L96.36,5.93a.75.75,0,0,1,.8-.06C97.36,6,98.27,6.51,98.51,6.63Z"/><g class="cls-12"><path class="cls-13" d="M98.51,6.63a.81.81,0,0,0-.75.1L38.24,41.08,24.88,48.8a1.07,1.07,0,0,0-.22.15,2.13,2.13,0,0,0-.3.3,3.09,3.09,0,0,0-.26.37l-1.4-.82a3,3,0,0,1,.34-.45l.1-.1a1.66,1.66,0,0,1,.34-.25l13.37-7.71L96.36,5.93a.75.75,0,0,1,.8-.06C97.36,6,98.27,6.51,98.51,6.63Z"/></g><path class="cls-3" d="M98.88,7.36a.68.68,0,0,0-1.11-.63L22.15,50.36c2.12-1.22,1.63-.36,1.63.34v5l75.1-43.35Z"/><path class="cls-14" d="M23.78,50.7v53a.73.73,0,0,0,.39.67l0,0,.06,0a.16.16,0,0,0,.09,0,.36.36,0,0,0,.14,0,.69.69,0,0,0,.37-.1l0,0h0l1.05-.61,12.26-7.07V41.09h0l-13.34,7.7A2.43,2.43,0,0,0,23.78,50.7Z"/><path class="cls-15" d="M24.16,104.36h0l0,0a.72.72,0,0,1-.34-.62v-48l-.2-.12.2.12v-5a2.22,2.22,0,0,1,.34-1.09l-1.4-.81a2.16,2.16,0,0,0-.34,1.1v5h0v47.94a1.17,1.17,0,0,0,.58.85l1.16.67.05,0Z"/><path class="cls-16" d="M38.22,41.09,24.9,48.81a1.28,1.28,0,0,0-.25.15,2.13,2.13,0,0,0-.3.3,3,3,0,0,0-.25.37l-1.4-.82a3,3,0,0,1,.34-.45l.1-.1a1.59,1.59,0,0,1,.33-.25L36.84,40.3Z"/></g><path class="cls-14" d="M90.36,13.22a.14.14,0,0,1-.14-.14.15.15,0,0,1,.07-.12l2.29-1.34a.16.16,0,0,1,.2.05.14.14,0,0,1,0,.19h0l-2.3,1.35Z"/><path class="cls-14" d="M90.36,14.23a.14.14,0,0,1-.07-.26l2.29-1.34a.14.14,0,1,1,.15.24l-2.3,1.34A.1.1,0,0,1,90.36,14.23Z"/><path class="cls-14" d="M90.36,15.24a.14.14,0,0,1-.07-.26l2.29-1.34a.14.14,0,1,1,.15.24l-2.3,1.34A.1.1,0,0,1,90.36,15.24Z"/><path class="cls-14" d="M96.47,11.72a.15.15,0,0,1-.11,0L95,10.4a.17.17,0,0,1,0-.23h0a.18.18,0,0,1,.24,0h0l1.34,1.28a.17.17,0,0,1,0,.24.18.18,0,0,1-.12.05Z"/><path class="cls-14" d="M95.14,12.48h-.07a.16.16,0,0,1-.08-.22h0l1.35-2.81a.16.16,0,0,1,.21-.09h0a.16.16,0,0,1,.08.22h0L95.3,12.41A.16.16,0,0,1,95.14,12.48Z"/><g class="cls-17"><path class="cls-7" d="M87.27,15.89a3.13,3.13,0,0,1-1.45,2.42L65.56,30c-.8.47-1.45.14-1.45-.73a3.09,3.09,0,0,1,1.45-2.41L85.82,15.17C86.63,14.7,87.27,15,87.27,15.89Z"/></g><path class="cls-7" d="M64.88,30.38a.83.83,0,0,1-.46-.12,1.08,1.08,0,0,1-.48-1,3.32,3.32,0,0,1,1.54-2.56L85.74,15A1.24,1.24,0,0,1,87,14.88a1.09,1.09,0,0,1,.47,1h0a3.28,3.28,0,0,1-1.53,2.56L65.66,30.15A1.51,1.51,0,0,1,64.88,30.38ZM86.51,15.12a1.24,1.24,0,0,0-.6.18L65.66,27a3,3,0,0,0-1.37,2.27.77.77,0,0,0,.31.7.94.94,0,0,0,.9-.11l20.25-11.7a2.91,2.91,0,0,0,1.37-2.27.73.73,0,0,0-.31-.7A.53.53,0,0,0,86.51,15.12Z"/><path class="cls-7" d="M86.16,17.24l-.34-.1a1.51,1.51,0,0,0,.05-.42.73.73,0,0,0-.29-.67.44.44,0,0,0-.47,0,1.59,1.59,0,0,0-.64,1.34.78.78,0,0,0,.29.69.46.46,0,0,0,.2.05.5.5,0,0,0,.27-.08,1.28,1.28,0,0,0,.52-.69l.34.1h0a.13.13,0,0,0,.12-.09.14.14,0,0,0-.07-.16Zm-1,.61a.21.21,0,0,1-.23,0,.57.57,0,0,1-.18-.48,1.45,1.45,0,0,1,.53-1.13.25.25,0,0,1,.15-.05.13.13,0,0,1,.08,0,.54.54,0,0,1,.17.48A1.43,1.43,0,0,1,85.12,17.85Z"/><path class="cls-7" d="M42,42.27l-.22,1.34a.56.56,0,0,1,0,.12.22.22,0,0,1,0,.08l-.21.12H41.4a.41.41,0,0,1,0-.08L41,41.5a0,0,0,0,1,0,0,.15.15,0,0,1,0-.09s0-.05,0-.06l.19-.11h.05l0,.06.22,1.58.19-1.18,0-.09a.12.12,0,0,1,.06-.08l.22-.13s0,0,.07,0a.14.14,0,0,1,0,.06l.19,1,.22-1.83a.3.3,0,0,1,0-.1.1.1,0,0,1,0-.06l.19-.11h0a.14.14,0,0,1,0,.07v0l-.34,2.73a.27.27,0,0,1,0,.12.11.11,0,0,1-.06.07l-.21.13h-.06a.13.13,0,0,1,0-.08Z"/><path class="cls-7" d="M43.15,41.89a2.3,2.3,0,0,1,.05-.45,1.69,1.69,0,0,1,.13-.42,1.38,1.38,0,0,1,.2-.33.85.85,0,0,1,.26-.24.42.42,0,0,1,.27-.07.35.35,0,0,1,.2.1.64.64,0,0,1,.13.26,1.49,1.49,0,0,1,0,.36v.18a.24.24,0,0,1,0,.09.1.1,0,0,1-.05.06l-.88.51a.32.32,0,0,0,0,.14.13.13,0,0,0,.07.09.13.13,0,0,0,.09,0,.21.21,0,0,0,.11,0,.71.71,0,0,0,.14-.1.83.83,0,0,0,.08-.12l.05-.07,0,0,.21-.12h0s0,0,0,.06a.47.47,0,0,1,0,.17,1.28,1.28,0,0,1-.11.24,1.5,1.5,0,0,1-.19.25.75.75,0,0,1-.26.21.5.5,0,0,1-.26.08.31.31,0,0,1-.2-.11.57.57,0,0,1-.13-.27A1.54,1.54,0,0,1,43.15,41.89Zm.64-1a.69.69,0,0,0-.13.11,1,1,0,0,0-.08.14.47.47,0,0,0-.06.15l0,.14.6-.33a.18.18,0,0,0,0-.12.15.15,0,0,0,0-.09.11.11,0,0,0-.09,0A.33.33,0,0,0,43.79,40.92Z"/><path class="cls-7" d="M45.13,41.69a.32.32,0,0,1,0,.09s0,0-.05.06l-.19.12h0a.06.06,0,0,1,0-.07V39.25a.15.15,0,0,1,0-.09.13.13,0,0,1,0-.06l.19-.11a0,0,0,0,1,.05,0,.09.09,0,0,1,0,.06Z"/><path class="cls-7" d="M45.83,40.21v.28a.58.58,0,0,0,0,.19.28.28,0,0,0,.08.11l.09,0a.2.2,0,0,0,.11,0l.11-.08.08-.09.05-.11s0-.07,0-.11a.18.18,0,0,1,0-.09s0,0,0-.06l.2-.12h0a.09.09,0,0,1,0,.07.93.93,0,0,1,0,.23,2.49,2.49,0,0,1-.11.29,1.57,1.57,0,0,1-.2.3,1.16,1.16,0,0,1-.29.25.48.48,0,0,1-.26.07.32.32,0,0,1-.2-.08.61.61,0,0,1-.13-.22,1.65,1.65,0,0,1-.06-.32v-.32a1.94,1.94,0,0,1,.19-.76,1.73,1.73,0,0,1,.2-.32,1,1,0,0,1,.26-.23.6.6,0,0,1,.29-.08.31.31,0,0,1,.2.07.36.36,0,0,1,.11.16.58.58,0,0,1,0,.18.14.14,0,0,1,0,.09.18.18,0,0,1,0,.07l-.2.11h0l0,0,0-.06a.11.11,0,0,0-.13,0,.22.22,0,0,0-.11,0l-.11.08a.42.42,0,0,0-.09.14,1.42,1.42,0,0,0-.08.18A.91.91,0,0,0,45.83,40.21Z"/><path class="cls-7" d="M47.73,38.17a.45.45,0,0,1,.26-.08.31.31,0,0,1,.2.07.39.39,0,0,1,.13.2.85.85,0,0,1,.06.31v.41a1.88,1.88,0,0,1-.19.74,1.57,1.57,0,0,1-.2.3,1.32,1.32,0,0,1-.26.22.5.5,0,0,1-.26.08.27.27,0,0,1-.2-.07.39.39,0,0,1-.14-.2,1.13,1.13,0,0,1-.06-.31v-.41a1.59,1.59,0,0,1,.06-.38,1.42,1.42,0,0,1,.14-.36,1.49,1.49,0,0,1,.2-.31A.89.89,0,0,1,47.73,38.17Zm.31.72a.39.39,0,0,0,0-.18.16.16,0,0,0-.07-.09h-.1l-.1,0-.11.08a.64.64,0,0,0-.1.13.51.51,0,0,0-.07.17.93.93,0,0,0,0,.23v.36a.41.41,0,0,0,0,.19.18.18,0,0,0,.07.08.09.09,0,0,0,.1,0,.25.25,0,0,0,.11,0l.1-.08a.4.4,0,0,0,.1-.12.56.56,0,0,0,.07-.18.57.57,0,0,0,0-.22v-.37Z"/><path class="cls-7" d="M49.09,37.62a1.35,1.35,0,0,1,.15-.26.52.52,0,0,1,.19-.17.3.3,0,0,1,.26-.06.26.26,0,0,1,.17.15,1.08,1.08,0,0,1,.08-.19,1,1,0,0,1,.11-.17.76.76,0,0,1,.11-.14l.12-.09a.45.45,0,0,1,.25-.07.25.25,0,0,1,.16.12.54.54,0,0,1,.09.25,1.83,1.83,0,0,1,0,.33V38.4a.15.15,0,0,1,0,.09s0,0-.05.06l-.2.12h-.05a.14.14,0,0,1,0-.07V37.54a.58.58,0,0,0-.06-.34s-.11,0-.2,0a.5.5,0,0,0-.17.21.84.84,0,0,0-.08.41v1.09a.29.29,0,0,1,0,.09l0,.06-.2.11h0s0,0,0-.06V38.05a.57.57,0,0,0-.07-.34.16.16,0,0,0-.19,0,.55.55,0,0,0-.19.21,1.05,1.05,0,0,0-.07.43v1.06a.29.29,0,0,1,0,.09.1.1,0,0,1,0,.06l-.2.12h0a.08.08,0,0,1,0-.07V37.74a.24.24,0,0,1,0-.09.1.1,0,0,1,0-.06l.2-.12h0a.14.14,0,0,1,0,.07Z"/><path class="cls-7" d="M51.15,37.28a2.28,2.28,0,0,1,0-.45,1.87,1.87,0,0,1,.13-.42,2.33,2.33,0,0,1,.2-.34,1.55,1.55,0,0,1,.27-.24.5.5,0,0,1,.27-.07.37.37,0,0,1,.2.11.75.75,0,0,1,.13.25,1.5,1.5,0,0,1,0,.37v.18a.29.29,0,0,1,0,.09l0,.06-.87.5a.39.39,0,0,0,0,.15.27.27,0,0,0,.07.08.17.17,0,0,0,.1,0l.11,0a.67.67,0,0,0,.14-.11.44.44,0,0,0,.08-.11l.05-.07a.07.07,0,0,1,0,0l.21-.12s0,0,0,0,0,0,0,.06a1,1,0,0,1,0,.17,1.34,1.34,0,0,1-.12.24,1.44,1.44,0,0,1-.18.25,1.71,1.71,0,0,1-.26.21.42.42,0,0,1-.27.07.26.26,0,0,1-.2-.1.84.84,0,0,1-.13-.27A1.9,1.9,0,0,1,51.15,37.28Zm.64-1a.49.49,0,0,0-.13.12.34.34,0,0,0-.09.14s0,.1-.06.15a.59.59,0,0,0,0,.14l.59-.34a.36.36,0,0,0,0-.11.19.19,0,0,0-.05-.1.12.12,0,0,0-.08,0,.33.33,0,0,0-.14,0Z"/><path class="cls-7" d="M53.54,37h0a.1.1,0,0,1,0-.07V34.29a.29.29,0,0,1,0-.09.1.1,0,0,1,0-.06l.77-.45a.45.45,0,0,1,.28-.07.21.21,0,0,1,.18.09.54.54,0,0,1,.1.2,1,1,0,0,1,0,.24,1.79,1.79,0,0,1,0,.23,1.33,1.33,0,0,1-.05.19l-.06.14a.19.19,0,0,1-.05.09.39.39,0,0,1,.15.16.63.63,0,0,1,.06.33,1.27,1.27,0,0,1,0,.34,1.35,1.35,0,0,1-.11.34,1.22,1.22,0,0,1-.17.29.88.88,0,0,1-.25.22Zm1-2.59c0-.1,0-.17-.07-.2s-.11,0-.2,0l-.46.27v.62l.46-.27a.41.41,0,0,0,.2-.19.54.54,0,0,0,.07-.27Zm-.73,1.92L54.3,36a.52.52,0,0,0,.22-.22.64.64,0,0,0,.06-.28.23.23,0,0,0-.07-.21s-.11,0-.21,0l-.48.28Z"/><path class="cls-7" d="M55.3,34.35a1.6,1.6,0,0,1,.05-.21,1.5,1.5,0,0,1,.28-.48.83.83,0,0,1,.23-.19.46.46,0,0,1,.24-.08.26.26,0,0,1,.19,0,.39.39,0,0,1,.12.19,1.32,1.32,0,0,1,0,.34v1.18a.29.29,0,0,1,0,.09.1.1,0,0,1,0,.06l-.2.12h0a.08.08,0,0,1,0-.07v-.13a1.18,1.18,0,0,1-.16.29.71.71,0,0,1-.26.23.38.38,0,0,1-.21.07.18.18,0,0,1-.14,0,.31.31,0,0,1-.1-.15.85.85,0,0,1,0-.23,1,1,0,0,1,.13-.51,1.46,1.46,0,0,1,.34-.41l.42-.36c0-.11,0-.17-.07-.19a.2.2,0,0,0-.17,0l-.11.09-.07.12a.25.25,0,0,1,0,.07l0,0-.25.14h0S55.3,34.38,55.3,34.35Zm.44.88a.65.65,0,0,0,.16-.13,1,1,0,0,0,.11-.17,1.42,1.42,0,0,0,.08-.18,1.1,1.1,0,0,0,0-.18v0l-.36.3a.8.8,0,0,0-.15.17.34.34,0,0,0-.05.17c0,.06,0,.09.06.1A.2.2,0,0,0,55.74,35.23Z"/><path class="cls-7" d="M57.14,33.68V34a.58.58,0,0,0,0,.19.14.14,0,0,0,.08.1s.06,0,.09,0a.15.15,0,0,0,.11,0l.11-.07.08-.09a.31.31,0,0,1,0-.1s0-.08,0-.11a.26.26,0,0,1,0-.1.06.06,0,0,1,0-.06l.19-.12a0,0,0,0,1,.05,0,.06.06,0,0,1,0,.07,1,1,0,0,1,0,.23,1.48,1.48,0,0,1-.12.29,1.53,1.53,0,0,1-.19.3,1.09,1.09,0,0,1-.29.24.42.42,0,0,1-.26.08.25.25,0,0,1-.2-.09.46.46,0,0,1-.13-.21.91.91,0,0,1-.06-.32v-.33a1.58,1.58,0,0,1,.05-.38,1.74,1.74,0,0,1,.14-.38,1.38,1.38,0,0,1,.2-.33,1,1,0,0,1,.26-.23.55.55,0,0,1,.29-.08.26.26,0,0,1,.19.07.48.48,0,0,1,.12.16.58.58,0,0,1,0,.19.1.1,0,0,1,0,.09A.13.13,0,0,1,58,33l-.19.11h0l0-.05,0-.06,0,0h-.08l-.11.05a.31.31,0,0,0-.11.09.38.38,0,0,0-.09.13.64.64,0,0,0-.08.19A1,1,0,0,0,57.14,33.68Z"/><path class="cls-7" d="M58.78,33.12v.69a.29.29,0,0,1,0,.09.1.1,0,0,1,0,.06l-.2.12a0,0,0,0,1,0,0,.06.06,0,0,1,0-.07V31.37a.15.15,0,0,1,0-.09s0-.05,0-.06l.2-.12a0,0,0,0,1,0,0,.19.19,0,0,1,0,.07v1.27l.43-.8a.43.43,0,0,0,0-.07l.07-.06.26-.15h0a0,0,0,0,1,0,.06v0a.08.08,0,0,1,0,.05L59,32.62l.67.6,0,0s0,0,0,0a.25.25,0,0,1,0,.08.12.12,0,0,1,0,.05l-.25.14h-.07l0,0Z"/><path class="cls-7" d="M60.26,32.5s0,0,.05,0a.11.11,0,0,1,0,.06v.34a.29.29,0,0,1,0,.09l-.05.06-.23.13H60a.1.1,0,0,1,0-.07v-.35a.29.29,0,0,1,0-.09.1.1,0,0,1,.05-.06Zm.05-.39a.15.15,0,0,1,0,.09.1.1,0,0,1,0,.06l-.2.12h0a.14.14,0,0,1,0-.07V30.52a.19.19,0,0,1,0-.08.18.18,0,0,1,0-.07l.2-.11a0,0,0,0,1,0,0,.08.08,0,0,1,0,.07Z"/><path class="cls-7" d="M31,50c2.64-1.52,4.78-.29,4.78,2.76A10.54,10.54,0,0,1,31,61c-2.63,1.52-4.76.28-4.76-2.76A10.54,10.54,0,0,1,31,50Z"/><path class="cls-3" d="M30.77,51.65c.79-.46,1.43-.09,1.43.82a3.18,3.18,0,0,1-1.43,2.47c-.79.45-1.43.08-1.43-.82A3.15,3.15,0,0,1,30.77,51.65Z"/><path class="cls-3" d="M33.58,56.85c0-1.49-1-2.15-2.35-1.41l-.79.47A5.17,5.17,0,0,0,28.09,60v.4s.55,1.14,2.75-.16a6.14,6.14,0,0,0,2.75-3Z"/><path class="cls-7" d="M29.46,64.21h.05a.09.09,0,0,1,0,.06l.54,1.81v0a.19.19,0,0,1,0,.07l0,0-.16.09s-.05,0-.06,0l0,0L29.68,66l-.67.4-.1.43a.11.11,0,0,1,0,.07l-.06.06-.16.09h0a0,0,0,0,1,0-.05v0l.53-2.43,0-.1a.17.17,0,0,1,.06-.06Zm.12,1.4-.24-.82-.24,1.1Z"/><path class="cls-7" d="M30.59,65.82a.11.11,0,0,1,0,.08.1.1,0,0,1,0,0l-.17.09h0V63.72l0,0,.17-.1h0a0,0,0,0,1,0,0Z"/><path class="cls-7" d="M30.89,64.86a1.64,1.64,0,0,1,0-.38,1.42,1.42,0,0,1,.11-.35,1.22,1.22,0,0,1,.17-.29.67.67,0,0,1,.21-.2.46.46,0,0,1,.23-.06.32.32,0,0,1,.17.09.41.41,0,0,1,.1.21,1.06,1.06,0,0,1,0,.31v.15a.1.1,0,0,1,0,.07.07.07,0,0,1,0,0l-.72.42a.17.17,0,0,0,0,.12.13.13,0,0,0,.05.07.11.11,0,0,0,.08,0,.12.12,0,0,0,.09,0,.34.34,0,0,0,.12-.09.36.36,0,0,0,.07-.1l0-.06,0,0,.18-.1h0a0,0,0,0,1,0,0,.32.32,0,0,1,0,.14.72.72,0,0,1-.09.2,1.16,1.16,0,0,1-.16.21.79.79,0,0,1-.22.18.39.39,0,0,1-.21.06.26.26,0,0,1-.17-.09.51.51,0,0,1-.11-.22A1.24,1.24,0,0,1,30.89,64.86Zm.53-.81a.28.28,0,0,0-.1.09.44.44,0,0,0-.08.11.65.65,0,0,0,0,.13.5.5,0,0,0,0,.12l.49-.29v-.09a.2.2,0,0,0,0-.08.09.09,0,0,0-.07,0A.23.23,0,0,0,31.42,64.05Z"/><path class="cls-7" d="M32.71,64.15l-.26.63a.22.22,0,0,1-.05.08l0,0-.17.1a0,0,0,0,1,0,0h0v-.06a0,0,0,0,1,0,0l.39-1-.38-.49V63.3a.1.1,0,0,1,0,0l.17-.1.05,0s0,0,0,0l.25.33.25-.61a.3.3,0,0,1,0-.08l0,0,.17-.09a0,0,0,0,1,0,0,0,0,0,0,1,0,0v.06l-.38.94.39.51v.12a.1.1,0,0,1,0,.05l-.17.1a0,0,0,0,1-.05,0,.05.05,0,0,1,0,0Z"/><path class="cls-7" d="M27.8,68.84a.52.52,0,0,1,.24-.4l6.09-3.53c.13-.07.24,0,.24.12a.51.51,0,0,1-.24.4L28,69C27.91,69,27.8,69,27.8,68.84Z"/><polygon class="cls-3" points="23.77 79.31 38.22 70.97 38.22 66.25 23.77 74.59 23.77 79.31"/><polygon class="cls-7" points="26.99 74.45 26.99 73.95 26.79 74.07 26.79 74.32 26.47 74.13 25.66 75.57 25.95 75.4 25.95 76.48 26.31 76.28 26.31 75.62 26.63 75.43 26.63 76.09 26.99 75.89 26.99 74.8 27.28 74.63 26.99 74.45"/><path class="cls-7" d="M29.13,73.27a.49.49,0,0,1,.17-.06.21.21,0,0,1,.11,0,.46.46,0,0,1,.08.13l0,.22v.29l0,.24a.66.66,0,0,1-.08.21.42.42,0,0,1-.11.18.65.65,0,0,1-.16.13l-.34.19h0V73.5s0,0,0,0Zm.21.43a.2.2,0,0,0,0-.11.1.1,0,0,0,0-.07.07.07,0,0,0-.06,0,.17.17,0,0,0-.1,0l-.17.1v.89l.18-.1.09-.08a.21.21,0,0,0,.06-.1.36.36,0,0,0,0-.11.28.28,0,0,0,0-.13A1.4,1.4,0,0,0,29.34,73.7Z"/><path class="cls-7" d="M29.71,73.54a.3.3,0,0,1,0-.1.43.43,0,0,1,.05-.12.94.94,0,0,1,.09-.12.31.31,0,0,1,.11-.09.31.31,0,0,1,.12,0,.16.16,0,0,1,.09,0,.17.17,0,0,1,.06.1.88.88,0,0,1,0,.16V74l0,0-.1.06h0V74a.61.61,0,0,1-.07.14.41.41,0,0,1-.14.12.14.14,0,0,1-.09,0,.11.11,0,0,1-.08,0,.13.13,0,0,1,0-.07.24.24,0,0,1,0-.12.54.54,0,0,1,.06-.25.65.65,0,0,1,.17-.2l.21-.18s0-.08,0-.09a.06.06,0,0,0-.08,0l-.06,0,0,.06,0,0s0,0,0,0l-.12.07h0S29.7,73.56,29.71,73.54Zm.21.43a.16.16,0,0,0,.08-.06l.06-.08,0-.1a.11.11,0,0,0,0-.08v0l-.17.14-.08.09a.29.29,0,0,0,0,.09s0,0,0,0a.06.06,0,0,0,.07,0Z"/><path class="cls-7" d="M30.84,73.38v0h-.09l-.1,0h-.09a.07.07,0,0,1-.06,0,.11.11,0,0,1,0-.08.17.17,0,0,1,0-.1.29.29,0,0,1,0-.13.69.69,0,0,1,.05-.13.94.94,0,0,1,.09-.12.37.37,0,0,1,.22-.14h.08a.1.1,0,0,1,.06,0,.31.31,0,0,1,0,.08v0s0,0,0,0l-.1.06h-.08l-.06,0a.12.12,0,0,0-.06.06.11.11,0,0,0,0,.08,0,0,0,0,0,0,0h.08l.09,0a.32.32,0,0,1,.16,0,.22.22,0,0,1,.05.17.51.51,0,0,1,0,.13.42.42,0,0,1-.06.14.47.47,0,0,1-.09.12.38.38,0,0,1-.12.09.22.22,0,0,1-.12,0,.11.11,0,0,1-.08,0,.09.09,0,0,1-.06-.06.12.12,0,0,1,0-.08,0,0,0,0,1,0,0s0,0,0,0l.1,0h0l0,0h0s0,0,.06,0l0,0s0,0,0,0l0,0S30.83,73.39,30.84,73.38Z"/><path class="cls-7" d="M31.8,73.06a0,0,0,0,1,0,0s0,0,0,0l-.1,0s0,0,0,0a0,0,0,0,1,0,0v-.51a.32.32,0,0,0,0-.16s-.06,0-.11,0a.24.24,0,0,0-.11.13.78.78,0,0,0,0,.21v.5a0,0,0,0,1,0,0s0,0,0,0l-.1.06h0s0,0,0,0V72.13a0,0,0,0,1,0,0s0,0,0,0l.1-.06h0a0,0,0,0,1,0,0v.43a1,1,0,0,1,.08-.14.48.48,0,0,1,.11-.09.2.2,0,0,1,.13,0l.08,0a.29.29,0,0,1,0,.13.48.48,0,0,1,0,.17Z"/><path class="cls-7" d="M32.37,71.74a.2.2,0,0,1,.11,0,.11.11,0,0,1,.09.05.27.27,0,0,1,.06.12.76.76,0,0,1,0,.16v.14a1.48,1.48,0,0,1,0,.19.64.64,0,0,1-.06.18.46.46,0,0,1-.09.15.38.38,0,0,1-.11.11l-.07,0h-.1l0,0v.1l0,0-.1,0s0,0,0,0a0,0,0,0,1,0,0v-1.3a0,0,0,0,1,0,0s0,0,0,0l.1-.06a0,0,0,0,1,0,0V72s0,0,0,0l0-.06.06-.07Zm.12.41a.3.3,0,0,0-.05-.16.11.11,0,0,0-.11,0,.32.32,0,0,0-.11.12.43.43,0,0,0,0,.19.11.11,0,0,0,0,.08.11.11,0,0,0,0,.08.17.17,0,0,0,0,.13.11.11,0,0,0,.11,0,.32.32,0,0,0,.11-.12.5.5,0,0,0,.05-.21Z"/><path class="cls-7" d="M33.12,71.3a.2.2,0,0,1,.13,0,.17.17,0,0,1,.1,0,.24.24,0,0,1,.06.11.33.33,0,0,1,0,.15v.2a.68.68,0,0,1,0,.19.49.49,0,0,1-.06.17.78.78,0,0,1-.1.15.69.69,0,0,1-.13.11.28.28,0,0,1-.13,0,.19.19,0,0,1-.1,0,.24.24,0,0,1-.06-.11.4.4,0,0,1,0-.15v-.2a.68.68,0,0,1,0-.19.85.85,0,0,1,.06-.17.56.56,0,0,1,.1-.15A.45.45,0,0,1,33.12,71.3Zm.16.35v-.09l0,0h-.05l0,0-.06,0,0,.06a.3.3,0,0,0,0,.08.5.5,0,0,0,0,.12V72a.29.29,0,0,0,0,.09.08.08,0,0,0,0,0,0,0,0,0,0,0,0l.06,0,0,0,.05-.06a.59.59,0,0,1,0-.08v-.28Z"/><path class="cls-7" d="M33.63,71.28l0-.1a.61.61,0,0,1,.05-.12.83.83,0,0,1,.08-.12l.12-.09a.17.17,0,0,1,.12,0,.1.1,0,0,1,.09,0,.21.21,0,0,1,.06.1.88.88,0,0,1,0,.17v.62l0,0-.1.06h0v-.1a1.09,1.09,0,0,1-.08.15.47.47,0,0,1-.13.11.16.16,0,0,1-.09,0,.08.08,0,0,1-.08,0,.18.18,0,0,1-.05-.07v-.12a.59.59,0,0,1,.07-.25.79.79,0,0,1,.17-.2l.21-.18s0-.08,0-.09a.08.08,0,0,0-.08,0,.1.1,0,0,0-.05,0l0,.06,0,0h0l-.12.07h0S33.63,71.29,33.63,71.28Zm.22.44.08-.07a.22.22,0,0,0,0-.08.36.36,0,0,0,0-.09v-.11l-.18.15a.27.27,0,0,0-.07.08.16.16,0,0,0,0,.09s0,0,0,0A.11.11,0,0,0,33.85,71.72Z"/><path class="cls-7" d="M34.72,70.64a.34.34,0,0,0-.12.12.58.58,0,0,0,0,.19v.56l0,0-.09,0h0v-1l0,0,.09,0a0,0,0,0,1,0,0v.07a.41.41,0,0,1,.07-.11.25.25,0,0,1,.1-.08l.06,0h0s0,0,0,0v.13a0,0,0,0,1,0,0s0,0,0,0Z"/><path class="cls-7" d="M35.22,70.09l.07,0h.06l0,0,0,0v-.46l0,0,.1-.06m0,0v1.38l0,0-.1.06m0,0v-.08a.07.07,0,0,1,0,.06l0,.06-.06.06-.07,0a.15.15,0,0,1-.21,0A.33.33,0,0,1,35,71a.41.41,0,0,1,0-.16v-.14a.68.68,0,0,1,0-.19,1.21,1.21,0,0,1,0-.18l.09-.15a.43.43,0,0,1,.12-.11Zm-.31-.37v.11c0,.09,0,.14,0,.16a.11.11,0,0,0,.11,0,.29.29,0,0,0,.1-.12.45.45,0,0,0,0-.19v-.15a.16.16,0,0,0,0-.14.09.09,0,0,0-.1,0,.32.32,0,0,0-.11.12A.54.54,0,0,0,35.1,70.64Z"/><path class="cls-7" d="M29.2,78.64l.24-.8,0,0a.08.08,0,0,1,0,0l.09-.05h0a0,0,0,0,1,0,0V79a0,0,0,0,1,0,0s0,0,0,0l-.1.06h0v-.81l-.16.54a.08.08,0,0,0,0,0l0,0-.07,0h0l0,0L29,78.65v.82l0,0-.1.06m0,0V78.19l0,0,.08,0h0v0Z"/><path class="cls-7" d="M29.81,78.45a1.64,1.64,0,0,1,0-.22A1.72,1.72,0,0,1,29.9,78a.75.75,0,0,1,.1-.17.47.47,0,0,1,.13-.11.18.18,0,0,1,.13,0,.14.14,0,0,1,.1,0,.31.31,0,0,1,.06.13.47.47,0,0,1,0,.17v.1s0,0,0,0,0,0,0,0l-.43.25a.09.09,0,0,0,0,.07s0,0,0,0h.05l.05,0,.07,0,0-.06,0,0,0,0,.1-.06h0v0a.29.29,0,0,1,0,.09.39.39,0,0,1-.06.11.38.38,0,0,1-.09.13.41.41,0,0,1-.13.1.2.2,0,0,1-.13,0,.14.14,0,0,1-.1,0,.35.35,0,0,1-.06-.14A1.15,1.15,0,0,1,29.81,78.45Zm.32-.48-.07.06,0,.06,0,.08v.07l.29-.17a0,0,0,0,0,0,0,.08.08,0,0,0,0,0l0,0Z"/><path class="cls-7" d="M31,78a0,0,0,0,0,0,0,0,0,0,0,0,0,0h-.06l-.1,0a.14.14,0,0,1-.09,0,.09.09,0,0,1-.06,0,.11.11,0,0,1,0-.08v-.1a.59.59,0,0,1,0-.13.69.69,0,0,1,.05-.13l.08-.12a.47.47,0,0,1,.12-.09l.11,0h.08s0,0,.06,0a.29.29,0,0,1,0,.09v0l0,0-.1.06h-.08l-.05,0a.13.13,0,0,0-.07.06.11.11,0,0,0,0,.08,0,0,0,0,0,0,0h.08l.09,0a.22.22,0,0,1,.17,0,.25.25,0,0,1,0,.17.27.27,0,0,1,0,.13.78.78,0,0,1,0,.14l-.1.12a.31.31,0,0,1-.11.09.29.29,0,0,1-.13,0,.11.11,0,0,1-.08,0,.09.09,0,0,1-.06-.06.24.24,0,0,1,0-.08v0l0,0,.1,0a0,0,0,0,1,0,0l0,0h0l.07,0,0,0,0,0,0,0S31,78,31,78Z"/><path class="cls-7" d="M31.68,77.59a0,0,0,0,0,0,0h-.09l-.09,0h-.1l-.06,0a.15.15,0,0,1,0-.07v-.11a.24.24,0,0,1,0-.12.5.5,0,0,1,.05-.13l.08-.13.12-.09.11,0a.11.11,0,0,1,.08,0,.1.1,0,0,1,.06,0,.31.31,0,0,1,0,.08V77l0,0-.1.06h-.08a.07.07,0,0,0-.06,0,.13.13,0,0,0-.07.06.11.11,0,0,0,0,.08v0h.08l.1,0a.14.14,0,0,1,.16,0,.25.25,0,0,1,0,.17.3.3,0,0,1,0,.13.5.5,0,0,1,0,.13l-.09.13a.94.94,0,0,1-.12.09.31.31,0,0,1-.12,0,.14.14,0,0,1-.09,0A.17.17,0,0,1,31.3,78a.29.29,0,0,1,0-.09v0l0,0,.1-.06h0l0,0h0l.07,0,0,0,0,0,0,0A.05.05,0,0,0,31.68,77.59Z"/><path class="cls-7" d="M32,76.92a.43.43,0,0,1,0-.11.67.67,0,0,1,.06-.12.44.44,0,0,1,.08-.11.52.52,0,0,1,.11-.1l.12,0a.12.12,0,0,1,.09,0,.17.17,0,0,1,.06.1.3.3,0,0,1,0,.16v.58a0,0,0,0,1,0,0s0,0,0,0l-.1,0s0,0,0,0v-.09a1,1,0,0,1-.08.14.37.37,0,0,1-.13.12l-.1,0-.07,0a.22.22,0,0,1-.05-.08v-.11a.61.61,0,0,1,.24-.45l.21-.18s0-.08,0-.09a.1.1,0,0,0-.09,0l0,0,0,.06,0,0h0l-.12.07a0,0,0,0,1,0,0S32,76.94,32,76.92Zm.22.43.07-.06.06-.09a.32.32,0,0,0,0-.09.14.14,0,0,0,0-.09v0l-.17.15a.34.34,0,0,0-.08.09.19.19,0,0,0,0,.08s0,.05,0,.05l.08,0Z"/><path class="cls-7" d="M33.08,77.28l0,0,.05-.07a.36.36,0,0,0,0-.09v-.18a.06.06,0,0,1,0,.06l0,.06a.34.34,0,0,1-.06.06l-.07.06a.14.14,0,0,1-.11,0,.11.11,0,0,1-.09-.05.24.24,0,0,1-.06-.11,1,1,0,0,1,0-.17v-.13a1.11,1.11,0,0,1,0-.19.6.6,0,0,1,.06-.19.6.6,0,0,1,.09-.15.35.35,0,0,1,.11-.1l.07,0a.06.06,0,0,1,.06,0h0l0,0V76s0,0,0,0l.1,0a0,0,0,0,1,0,0v1a1,1,0,0,1-.09.41.6.6,0,0,1-.24.26.28.28,0,0,1-.12,0,.16.16,0,0,1-.1,0,.23.23,0,0,1-.07-.07.29.29,0,0,1,0-.09,0,0,0,0,1,0,0s0,0,0,0l.09,0h0l0,0a.05.05,0,0,0,0,0A.14.14,0,0,0,33.08,77.28Zm-.16-.67v.11a.2.2,0,0,0,.06.16.09.09,0,0,0,.1,0,.25.25,0,0,0,.11-.12.45.45,0,0,0,.05-.19v-.16a.21.21,0,0,0-.05-.13.11.11,0,0,0-.11,0,.29.29,0,0,0-.1.12.66.66,0,0,0-.06.2Z"/><path class="cls-7" d="M33.58,76.28a1.5,1.5,0,0,1,0-.22,1,1,0,0,1,.07-.21.59.59,0,0,1,.1-.17.37.37,0,0,1,.13-.12.15.15,0,0,1,.13,0,.14.14,0,0,1,.1,0,.23.23,0,0,1,.06.12.57.57,0,0,1,0,.18V76l0,0-.43.25a.09.09,0,0,0,0,.07s0,0,0,0h.05l0,0a.18.18,0,0,0,.07,0,.21.21,0,0,0,0-.06l0,0,0,0,.1-.06h0v0a.31.31,0,0,1,0,.08.67.67,0,0,1-.06.12.47.47,0,0,1-.09.12.69.69,0,0,1-.13.11.28.28,0,0,1-.13,0,.11.11,0,0,1-.09-.05.24.24,0,0,1-.07-.13A1.28,1.28,0,0,1,33.58,76.28Zm.32-.48a.18.18,0,0,0-.07,0,.43.43,0,0,0,0,.07l0,.07v.08l.29-.18v0s0,0,0,0l0,0a.14.14,0,0,0-.09,0Z"/><path class="cls-7" d="M34.75,75.82a0,0,0,0,0,0,0h-.09l-.1,0h-.09l-.06,0a.21.21,0,0,1,0-.07V75.6a.69.69,0,0,1,0-.13,1.12,1.12,0,0,1,.05-.13.83.83,0,0,1,.08-.12l.12-.09a.21.21,0,0,1,.11,0,.11.11,0,0,1,.08,0s0,0,.06,0a.24.24,0,0,1,0,.08v0l0,0-.09,0a0,0,0,0,1,0,0h-.05l-.06,0-.07.06a.11.11,0,0,0,0,.08s0,0,0,0h.08l.1,0a.14.14,0,0,1,.16,0,.25.25,0,0,1,0,.17.3.3,0,0,1,0,.13.69.69,0,0,1-.05.13l-.09.13a.6.6,0,0,1-.13.09l-.11,0h-.09a.34.34,0,0,1-.06-.06.29.29,0,0,1,0-.09v0l0,0,.1-.06h0l0,0h0a.07.07,0,0,0,.06,0l0,0,0,0,0,0A0,0,0,0,0,34.75,75.82Z"/><path class="cls-7" d="M26.41,80.29l-.76-.41L27.26,79l-.75,1.3A.07.07,0,0,1,26.41,80.29Z"/><path class="cls-7" d="M26.52,80.5l.76-1.5v1.55l-1.62.94V79.94l.75.62S26.49,80.56,26.52,80.5Z"/><path class="cls-7" d="M26.47,83.64a1.94,1.94,0,0,0-.81,1.54c0,.6.37.88.81.62a1.94,1.94,0,0,0,.81-1.55C27.28,83.65,26.92,83.38,26.47,83.64Zm.15,1.69v0l0,0-.21.11a0,0,0,0,1,0,0v-.3l0,0,.21-.12h0v.25Zm.27-1a.78.78,0,0,1-.05.14l-.06.12-.07.11-.06.11a.2.2,0,0,0,0,.11v.05l0,0-.2.11a0,0,0,0,1,0,0v0a.68.68,0,0,1,0-.14.75.75,0,0,1,.06-.13.54.54,0,0,1,.07-.13l.06-.11.06-.1a.29.29,0,0,0,0-.09s0-.07,0-.08-.05,0-.1,0a.31.31,0,0,0-.11.09.19.19,0,0,0,0,.09.21.21,0,0,1,0,.07s0,0,0,.06l-.19.11h0v0a1.13,1.13,0,0,1,0-.18,1.76,1.76,0,0,1,.09-.2.85.85,0,0,1,.14-.19.74.74,0,0,1,.19-.16.52.52,0,0,1,.16-.06.33.33,0,0,1,.14,0,.25.25,0,0,1,.1.08.45.45,0,0,1,0,.16A.44.44,0,0,1,26.89,84.29Z"/><path class="cls-7" d="M29.51,82.49v1.36l0,0-.1.06a0,0,0,0,1,0,0v-.56l-.39.23v.56s0,0,0,0l-.11.06h0V82.91s0,0,0,0l.11-.06h0s0,0,0,0v.51l.39-.23v-.55l0,0Z"/><path class="cls-7" d="M29.7,83.23a.89.89,0,0,1,0-.22.66.66,0,0,1,.06-.2,1,1,0,0,1,.1-.18.47.47,0,0,1,.13-.11.2.2,0,0,1,.13,0,.19.19,0,0,1,.1,0,.31.31,0,0,1,.06.13.55.55,0,0,1,0,.18v.09a0,0,0,0,1,0,0l0,0-.43.24a.11.11,0,0,0,0,.08l0,0H30l.06,0,.06-.06.05-.06,0,0a0,0,0,0,1,0,0l.11-.06h0v0a.29.29,0,0,1,0,.09.67.67,0,0,1-.06.12.47.47,0,0,1-.09.12l-.12.1a.23.23,0,0,1-.14,0,.24.24,0,0,1-.1-.05.35.35,0,0,1-.06-.14A1.27,1.27,0,0,1,29.7,83.23Zm.32-.48-.07.06a.43.43,0,0,0,0,.07l0,.08V83l.3-.16V82.8l0,0h0A.14.14,0,0,0,30,82.75Z"/><path class="cls-7" d="M30.68,83.14v0l0,0-.1.05h0a0,0,0,0,1,0,0V81.88l0,0,.1,0h0v1.34Z"/><path class="cls-7" d="M31.25,82.88l-.07,0h-.07l0,0,0,0v.47l0,0-.1,0a0,0,0,0,1,0,0V82.05s0,0,0,0L31,82h0a0,0,0,0,1,0,0V82l0-.06,0,0,.06-.06.07-.06a.14.14,0,0,1,.11,0,.11.11,0,0,1,.09,0,.24.24,0,0,1,.06.11.88.88,0,0,1,0,.16v.15a1.23,1.23,0,0,1,0,.19.64.64,0,0,1-.06.18.51.51,0,0,1-.09.16Zm.12-.55v-.11a.25.25,0,0,0-.05-.16.11.11,0,0,0-.11,0,.32.32,0,0,0-.11.12.46.46,0,0,0-.05.2v.15a.24.24,0,0,0,.05.13.11.11,0,0,0,.11,0,.43.43,0,0,0,.11-.12A.8.8,0,0,0,31.37,82.33Z"/><path class="cls-7" d="M31.85,82.23a0,0,0,0,1,0,0v.25l0,0-.11.06s0,0,0,0v-.24s0,0,0,0Zm0-.19a0,0,0,0,1,0,0s0,0,0,0l-.1.06h0a0,0,0,0,1,0,0v-.87a0,0,0,0,1,0-.05l0,0,.1-.06h0a0,0,0,0,1,0,0Z"/><path class="cls-7" d="M29.1,87.42a.25.25,0,0,1,.15,0,.15.15,0,0,1,.11,0,.16.16,0,0,1,.06.08.23.23,0,0,1,0,.11v0l0,0-.09.06h0l0,0a.1.1,0,0,0-.06-.05.2.2,0,0,0-.11,0,.18.18,0,0,0-.07,0l-.05.06a.25.25,0,0,0,0,.07V88a.05.05,0,0,0,0,0h.08l.12,0,.13,0a.14.14,0,0,1,.09,0s.05.05.05.09a.28.28,0,0,1,0,.13,1.13,1.13,0,0,1,0,.18.71.71,0,0,1-.08.18l-.11.15a1,1,0,0,1-.16.12.34.34,0,0,1-.14,0,.21.21,0,0,1-.11,0,.16.16,0,0,1-.09-.07.35.35,0,0,1,0-.14v0s0,0,0,0l.09-.06h0l0,0s0,0,0,0a.05.05,0,0,0,0,0H29a.19.19,0,0,0,.08,0l.08,0,.06-.07,0-.08a.11.11,0,0,0,0-.08,0,0,0,0,0,0-.06s0,0-.05,0l-.09,0-.12,0h-.12a.11.11,0,0,1-.08,0,.22.22,0,0,1-.05-.08V88a.57.57,0,0,1,0-.18.87.87,0,0,1,.07-.17.76.76,0,0,1,.11-.14A.41.41,0,0,1,29.1,87.42Z"/><path class="cls-7" d="M29.6,88a1.79,1.79,0,0,1,0-.23,1.18,1.18,0,0,1,.07-.2.61.61,0,0,1,.09-.18.69.69,0,0,1,.13-.11.23.23,0,0,1,.14,0,.24.24,0,0,1,.1,0,.31.31,0,0,1,.06.13.55.55,0,0,1,0,.18v.09a0,0,0,0,1,0,0s0,0,0,0l-.43.25a.09.09,0,0,0,0,.07s0,0,0,0a0,0,0,0,0,.05,0l.05,0a.18.18,0,0,0,.07-.05.1.1,0,0,0,0,0l0,0a0,0,0,0,1,0,0l.1-.06h0s0,0,0,0,0,.06,0,.09l-.06.12-.09.12-.13.1a.2.2,0,0,1-.13,0,.19.19,0,0,1-.1-.05.35.35,0,0,1-.06-.14A1.21,1.21,0,0,1,29.6,88Zm.31-.48-.06,0,0,.07,0,.07v.07l.29-.16v-.06s0,0,0,0h0A.12.12,0,0,0,29.91,87.54Z"/><path class="cls-7" d="M30.63,87.56a.15.15,0,0,0,0,.09s0,0,.08,0l.08,0h0a0,0,0,0,1,0,0v.13a0,0,0,0,1,0,0s0,0,0,0l-.1.06c-.08,0-.14,0-.18,0s-.07-.11-.07-.23v-.43l-.08,0a0,0,0,0,1,0,0v-.2s0,0,0,0l.08,0v-.38s0,0,0,0l.1-.06h0v.37l.16-.1h0V87l0,0-.16.1Z"/><path class="cls-7" d="M31.23,87.22a.08.08,0,0,0,0,.08s0,0,.08,0l.08,0h0v.2a.05.05,0,0,1,0,0l-.1,0c-.08,0-.14,0-.18,0a.3.3,0,0,1-.07-.24V86.9L31,87h0v-.2s0,0,0,0l.09,0v-.38s0,0,0,0l.09-.06m0,0v.37l.16-.1h0v.2l0,0-.16.09Z"/><path class="cls-7" d="M31.74,85.89s0,0,0,0a0,0,0,0,1,0,0v.15a0,0,0,0,1,0,.05l0,0-.11.06a0,0,0,0,1,0,0V86l0,0Zm0,1.34v0s0,0,0,0l-.09.06a0,0,0,0,1,0,0,0,0,0,0,1,0,0v-1s0,0,0,0l.09,0h0v1Z"/><path class="cls-7" d="M32.61,86.74v.05l0,0-.1.05h0a0,0,0,0,1,0,0v-.51a.32.32,0,0,0,0-.16s-.06,0-.11,0a.24.24,0,0,0-.11.13.51.51,0,0,0,0,.21v.55l0,0-.1.06h0a0,0,0,0,1,0,0v-1s0,0,0,0l.1-.06h0v.08a.54.54,0,0,1,.07-.13.52.52,0,0,1,.11-.1l.13,0a.1.1,0,0,1,.08.06.18.18,0,0,1,0,.12.49.49,0,0,1,0,.17Z"/><path class="cls-7" d="M33.1,86.71l.06,0,.05-.07,0-.09v-.18l0,.05s0,0,0,.06l0,.07-.08,0a.2.2,0,0,1-.11,0,.19.19,0,0,1-.09,0,.34.34,0,0,1-.06-.12.44.44,0,0,1,0-.16v-.14a1.23,1.23,0,0,1,0-.19.64.64,0,0,1,.06-.18.38.38,0,0,1,.09-.15.38.38,0,0,1,.11-.11l.08,0h.09l0,0v0a0,0,0,0,1,0-.05l0,0,.1,0h0a0,0,0,0,1,0,0v1a.84.84,0,0,1-.08.41.67.67,0,0,1-.24.26.28.28,0,0,1-.13,0,.14.14,0,0,1-.09,0,.13.13,0,0,1-.07-.06.18.18,0,0,1,0-.1,0,0,0,0,1,0,0s0,0,0,0l.09-.05h0l0,0,0,0A.16.16,0,0,0,33.1,86.71ZM33,86a.2.2,0,0,0,0,.11c0,.08,0,.13,0,.15a.09.09,0,0,0,.1,0,.25.25,0,0,0,.11-.12.41.41,0,0,0,0-.19v-.15a.19.19,0,0,0,0-.14.11.11,0,0,0-.11,0,.29.29,0,0,0-.1.12A.54.54,0,0,0,33,86Z"/><path class="cls-7" d="M34,85.69v0h-.09l-.1,0a.14.14,0,0,1-.09,0s0,0-.06,0a.09.09,0,0,1,0-.07.17.17,0,0,1,0-.1.63.63,0,0,1,.07-.26.36.36,0,0,1,.08-.12.31.31,0,0,1,.11-.09A.31.31,0,0,1,34,85h.08a.1.1,0,0,1,0,.06.11.11,0,0,1,0,.08v0l0,0-.1.06h0a0,0,0,0,0,0,0l-.06,0a.17.17,0,0,0-.06.06.11.11,0,0,0,0,.08,0,0,0,0,0,0,0h.08l.09,0a.14.14,0,0,1,.16,0,.26.26,0,0,1,0,.17.51.51,0,0,1,0,.13.31.31,0,0,1-.06.13A.38.38,0,0,1,34,86a.4.4,0,0,1-.12.1l-.12,0H33.7a.09.09,0,0,1-.06-.06.24.24,0,0,1,0-.08v0s0,0,0,0l.09-.06h0l0,0h0l.06,0,0,0,0,0,0,0Z"/><g id="freepik--Gear--inject-2"><path class="cls-7" d="M27.25,89.31h-.17a.07.07,0,0,1,0,0,.33.33,0,0,0,0-.14v0l.17-.24a0,0,0,0,0,0,0l-.09-.18s0,0,0,0l-.18.2h0l-.09,0v0l0-.27s0,0,0,0l-.2,0s0,0,0,0l-.08.27a.08.08,0,0,1,0,0,.35.35,0,0,0-.13.08,0,0,0,0,1,0,0h0l-.09-.14s0,0,0,0h0L26,89a0,0,0,0,0,0,0l.06.18a.06.06,0,0,1,0,.06,1.3,1.3,0,0,0-.08.17c0,.06,0,0,0,0l-.19.06,0,0-.06.3v0h.17a0,0,0,0,1,0,0,.33.33,0,0,0,0,.14v.06l-.17.23a0,0,0,0,0,0,.05l.08.18a0,0,0,1,0,0,0l.19-.19a0,0,0,0,1,0,0l.08,0a0,0,0,0,1,0,0l0,.27v0l.19,0s0,0,0,0l.09-.27s0,0,0,0l.12-.08h0l.09.13s0,0,0,0l.19-.23a0,0,0,0,0,0,0L26.86,90a.06.06,0,0,1,0-.06,1.3,1.3,0,0,0,.08-.17.08.08,0,0,1,0,0l.18,0,0,0,.06-.3A0,0,0,0,0,27.25,89.31Zm-.46.23c-.06.27-.25.51-.43.53s-.27-.18-.21-.45.25-.51.43-.53.27.19.21.46Z"/></g><path class="cls-7" d="M29.38,96.28s0,0,0,0a0,0,0,0,1,0,0v.18s0,0,0,0l-.57.34h0V95.5s0,0,0,0l.11-.06h0a0,0,0,0,1,0,0v1.08Z"/><path class="cls-7" d="M29.85,95.2l.13,0a.14.14,0,0,1,.1,0,.36.36,0,0,1,.07.1l0,.15v.2l0,.19a1.34,1.34,0,0,1-.07.18,1.3,1.3,0,0,1-.1.15.41.41,0,0,1-.13.1.2.2,0,0,1-.13,0,.19.19,0,0,1-.1,0,.21.21,0,0,1-.06-.1.4.4,0,0,1,0-.15v-.21a.57.57,0,0,1,0-.18,1.27,1.27,0,0,1,.06-.18,1.3,1.3,0,0,1,.1-.15A.69.69,0,0,1,29.85,95.2Zm.16.36a.29.29,0,0,0,0-.09s0,0,0,0a0,0,0,0,0-.05,0l0,0-.05,0a.1.1,0,0,0-.05.06.2.2,0,0,0,0,.08V96s0,0,0,0h.05l.05,0a.1.1,0,0,0,0,0l.05-.06,0-.08a.5.5,0,0,0,0-.12v-.18Z"/><path class="cls-7" d="M30.65,96a.1.1,0,0,0,.05,0l.05-.07a.3.3,0,0,0,0-.1.17.17,0,0,0,0-.1V95.6l0,.06,0,.06-.06.06-.07.06a.17.17,0,0,1-.12,0,.14.14,0,0,1-.09,0,.33.33,0,0,1-.05-.12.41.41,0,0,1,0-.16V95.4a.58.58,0,0,1,0-.19,1.05,1.05,0,0,1,.05-.19l.09-.15a.43.43,0,0,1,.12-.11l.07,0h.06l0,0,0,0v-.09l0,0,.1-.05h0a0,0,0,0,1,0,0v.93a1,1,0,0,1-.09.41.55.55,0,0,1-.24.26.25.25,0,0,1-.12,0,.17.17,0,0,1-.1,0,.12.12,0,0,1-.06-.06.17.17,0,0,1,0-.1v0s0,0,0,0l.08-.05h0l0,0s0,0,0,0A.16.16,0,0,0,30.65,96Zm-.16-.67v.11a.19.19,0,0,0,.06.16.09.09,0,0,0,.1,0,.32.32,0,0,0,.11-.12.41.41,0,0,0,0-.19v-.15a.24.24,0,0,0,0-.14.11.11,0,0,0-.11,0,.29.29,0,0,0-.1.12.47.47,0,0,0-.06.2Z"/><path class="cls-7" d="M31.48,94.26a.28.28,0,0,1,.13,0,.21.21,0,0,1,.1,0,.21.21,0,0,1,.06.1.4.4,0,0,1,0,.15v.2a.58.58,0,0,1,0,.19,1.27,1.27,0,0,1-.06.18,1.3,1.3,0,0,1-.1.15.69.69,0,0,1-.13.11l-.13,0a.18.18,0,0,1-.1,0,.21.21,0,0,1-.06-.1.4.4,0,0,1,0-.15v-.2a.58.58,0,0,1,0-.19.64.64,0,0,1,.06-.18,1.3,1.3,0,0,1,.1-.15A.69.69,0,0,1,31.48,94.26Zm.16.36s0-.06,0-.09a.08.08,0,0,0,0,0h0l-.05,0-.05,0-.05.06a.2.2,0,0,0,0,.08v.39s0,0,0,0h.05l.05,0a.1.1,0,0,0,.05,0l0-.06s0,0,0-.08,0-.08,0-.12v-.18Z"/><path class="cls-7" d="M32,94.05v0s0,0,0,0l.1-.06s0,0,0,0v.53a.32.32,0,0,0,0,.17s.06,0,.11,0a.19.19,0,0,0,.1-.13.49.49,0,0,0,0-.21v-.55l0,0,.1,0m0,0v1s0,0,0,0l-.1.06m0,0v-.06s0,.09-.07.13a.52.52,0,0,1-.11.1.19.19,0,0,1-.13,0,.1.1,0,0,1-.08-.05.5.5,0,0,1,0-.13v-.16Z"/><path class="cls-7" d="M33,94.05a.08.08,0,0,0,0,.08s0,0,.08,0l.08,0h0v.21l0,0-.1,0c-.08.05-.14.06-.19,0a.35.35,0,0,1-.06-.24v-.42l-.09,0h0v-.21s0,0,0,0l.09,0V93.1s0,0,0,0l.1,0h0v.37l.16-.1h0v.21l0,0-.16.09Z"/><path class="cls-7" d="M27.25,95.93a.2.2,0,0,0-.15,0l-1,.57a.11.11,0,0,0-.07.12v.57l.13-.07v-.5h0l1-.56v1.78l-1,.56v-.46l-.13.08v.38a.15.15,0,0,0,.07.13l.07,0,.07,0,1-.57a.14.14,0,0,0,.07-.12V96.06A.17.17,0,0,0,27.25,95.93Z"/><path class="cls-7" d="M26.29,97.24l-.4.23s0,0,0,0v-.26s0,0,0,0l-.56.85a.06.06,0,0,0,0,.06h0l.52.21s.05,0,.05,0V98a.07.07,0,0,1,0-.07l.39-.24a.08.08,0,0,0,.05-.07v-.36S26.31,97.22,26.29,97.24Z"/><path class="cls-3" d="M42,47.61a.62.62,0,0,1,.27-.09.23.23,0,0,1,.19.07.45.45,0,0,1,.12.21,1.33,1.33,0,0,1,.05.34v.48a1.75,1.75,0,0,1-.05.4,2.06,2.06,0,0,1-.12.35,1.17,1.17,0,0,1-.19.3.89.89,0,0,1-.26.21l-.54.31a0,0,0,0,1,0,0,.08.08,0,0,1,0,0V48s0,0,0-.07a.1.1,0,0,1,0,0Zm.33.7a.57.57,0,0,0,0-.18.34.34,0,0,0-.06-.12.21.21,0,0,0-.11,0A.31.31,0,0,0,42,48l-.28.16v1.47l.29-.17a.47.47,0,0,0,.15-.13.57.57,0,0,0,.11-.16A.7.7,0,0,0,42.3,49a.78.78,0,0,0,0-.22,3.85,3.85,0,0,0,0-.48Z"/><path class="cls-3" d="M42.94,48.07a1,1,0,0,1,0-.17,1.12,1.12,0,0,1,.23-.39.65.65,0,0,1,.18-.15.48.48,0,0,1,.2-.07.2.2,0,0,1,.15,0,.34.34,0,0,1,.1.16,1.27,1.27,0,0,1,0,.28v.94a.08.08,0,0,1,0,.07.1.1,0,0,1,0,0l-.16.1h0a.14.14,0,0,1,0-.06v-.1a.76.76,0,0,1-.13.23.55.55,0,0,1-.21.19.52.52,0,0,1-.16.06.2.2,0,0,1-.13,0,.26.26,0,0,1-.07-.11.68.68,0,0,1,0-.19A.81.81,0,0,1,43,48.5a1,1,0,0,1,.28-.34l.33-.29c0-.09,0-.14-.06-.16a.18.18,0,0,0-.14,0,.27.27,0,0,0-.08.07l-.06.1,0,.05,0,0-.2.12h0A.07.07,0,0,1,42.94,48.07Zm.34.72a.69.69,0,0,0,.13-.11.67.67,0,0,0,.09-.14.35.35,0,0,0,.06-.14.77.77,0,0,0,0-.15v0l-.29.24a.86.86,0,0,0-.13.14.32.32,0,0,0,0,.14s0,.07,0,.07a.16.16,0,0,0,.12,0Z"/><path class="cls-3" d="M44.8,47.79a.05.05,0,0,0,0-.07h0l-.1,0-.16,0h-.15a.17.17,0,0,1-.1-.06.17.17,0,0,1,0-.12.48.48,0,0,1,0-.17.76.76,0,0,1,0-.21,1,1,0,0,1,.08-.22,1.21,1.21,0,0,1,.14-.2.65.65,0,0,1,.18-.15.62.62,0,0,1,.19-.07h.14a.14.14,0,0,1,.08.09.2.2,0,0,1,0,.13.08.08,0,0,1,0,.07.07.07,0,0,1,0,.05l-.16.1h-.05l0,0h0a.18.18,0,0,0-.1,0,.31.31,0,0,0-.11.09.21.21,0,0,0,0,.13,0,0,0,0,0,0,.05s0,0,0,0h.09l.16,0c.12,0,.21,0,.26,0a.4.4,0,0,1,.08.28.76.76,0,0,1,0,.21.85.85,0,0,1-.09.22,1,1,0,0,1-.15.2.74.74,0,0,1-.2.16.5.5,0,0,1-.2.08.32.32,0,0,1-.14,0,.32.32,0,0,1-.08-.09.35.35,0,0,1,0-.14.08.08,0,0,1,0-.07.1.1,0,0,1,0-.05l.16-.1s0,0,0,0l0,0h0l.11,0a.18.18,0,0,0,.07-.05l.06,0,0-.07A.13.13,0,0,0,44.8,47.79Z"/><path class="cls-3" d="M46.39,47.27a.17.17,0,0,1,0,.07.1.1,0,0,1,0,0l-.16.09a0,0,0,0,1,0,0V46.6a.54.54,0,0,0-.05-.28s-.1-.06-.19,0a.41.41,0,0,0-.17.22.84.84,0,0,0-.07.35v.82a.17.17,0,0,1,0,.07l0,0-.16.09h0a.07.07,0,0,1,0-.05V45.73a.15.15,0,0,1,0-.07.1.1,0,0,1,0,0l.16-.1h0a.11.11,0,0,1,0,.05v.7a1.48,1.48,0,0,1,.13-.21.55.55,0,0,1,.18-.16.33.33,0,0,1,.22-.06.16.16,0,0,1,.13.08.5.5,0,0,1,.08.2,2.64,2.64,0,0,1,0,.28Z"/><path class="cls-3" d="M47.33,45.09a.25.25,0,0,1,.19-.05.19.19,0,0,1,.14.09.44.44,0,0,1,.1.19,1.17,1.17,0,0,1,0,.26v.23a1.6,1.6,0,0,1-.14.61.94.94,0,0,1-.14.26.61.61,0,0,1-.19.17l-.12,0h-.09l-.07,0,0,0v.07A.08.08,0,0,1,47,47,.07.07,0,0,1,47,47l-.16.1h0a.07.07,0,0,1,0-.06V44.93a.17.17,0,0,1,0-.07l0,0,.16-.09h0a0,0,0,0,1,0,.05v.7s0-.06,0-.09a.36.36,0,0,1,.07-.1.31.31,0,0,1,.09-.11A.36.36,0,0,1,47.33,45.09Zm.19.67c0-.14,0-.22-.08-.25a.15.15,0,0,0-.18,0,.42.42,0,0,0-.17.2A.85.85,0,0,0,47,46v.25a.31.31,0,0,0,.09.22.14.14,0,0,0,.17,0,.41.41,0,0,0,.18-.19.85.85,0,0,0,.08-.35.6.6,0,0,0,0-.19Z"/><path class="cls-3" d="M48.58,44.35a.39.39,0,0,1,.21-.06.18.18,0,0,1,.16.05.45.45,0,0,1,.11.17.74.74,0,0,1,0,.25v.34a1.41,1.41,0,0,1-.16.6.78.78,0,0,1-.16.24.91.91,0,0,1-.21.18.52.52,0,0,1-.21.07.27.27,0,0,1-.17-.06.54.54,0,0,1-.1-.16.75.75,0,0,1-.05-.26v-.33a1.76,1.76,0,0,1,0-.31c0-.1.07-.19.11-.29a1,1,0,0,1,.17-.24A.76.76,0,0,1,48.58,44.35Zm.26.59a.8.8,0,0,0,0-.15.27.27,0,0,0-.07-.08h-.07l-.09,0-.09.07a.31.31,0,0,0-.07.09.42.42,0,0,0-.06.14,1.62,1.62,0,0,0,0,.19v.29a.33.33,0,0,0,0,.15.07.07,0,0,0,.06.07h.07l.09,0,.09-.07a.36.36,0,0,0,.07-.1.61.61,0,0,0,.07-.14l0-.18V45Z"/><path class="cls-3" d="M49.41,44.35a1.36,1.36,0,0,1,0-.17,1.11,1.11,0,0,1,.22-.38.7.7,0,0,1,.19-.16.68.68,0,0,1,.2-.07.28.28,0,0,1,.15,0,.37.37,0,0,1,.09.16.9.9,0,0,1,0,.28v1l0,.05-.16.09h0s0,0,0,0v-.11a1.41,1.41,0,0,1-.13.24,1,1,0,0,1-.21.19.34.34,0,0,1-.17,0,.18.18,0,0,1-.12,0,.29.29,0,0,1-.07-.12.63.63,0,0,1,0-.19.81.81,0,0,1,.11-.41,1.13,1.13,0,0,1,.27-.34l.34-.29c0-.09,0-.14-.06-.16a.17.17,0,0,0-.14,0,.27.27,0,0,0-.08.07l-.06.09,0,.06,0,0-.2.12h0Zm.35.72a.35.35,0,0,0,.13-.11.64.64,0,0,0,.1-.13.75.75,0,0,0,0-.16.32.32,0,0,0,0-.14v0l-.29.25a.37.37,0,0,0-.12.13.25.25,0,0,0,0,.14s0,.07,0,.08a.12.12,0,0,0,.1-.05Z"/><path class="cls-3" d="M51.19,43.28a.43.43,0,0,0-.18.2.56.56,0,0,0-.06.31v.92a.1.1,0,0,1,0,0l-.16.09h0s0,0,0-.05V43.28a.14.14,0,0,1,0-.07.1.1,0,0,1,0-.05l.16-.09h0a0,0,0,0,1,0,0v.07a1,1,0,0,1,.12-.19.51.51,0,0,1,.16-.13l.09-.06s0,0,0,0a.06.06,0,0,1,0,0v.22a.08.08,0,0,1,0,.07.07.07,0,0,1,0,.05Z"/><path class="cls-3" d="M52,42.38l.12-.05h.09a.09.09,0,0,1,.06,0l.05,0V41.7a.15.15,0,0,1,0-.07l0-.05.17-.1h0l0,.05v2.15a.14.14,0,0,1,0,.07l0,0-.17.1h0a.13.13,0,0,1,0-.06v-.07a.41.41,0,0,1-.05.09.53.53,0,0,1-.06.1l-.09.1-.12.09a.26.26,0,0,1-.19,0,.19.19,0,0,1-.15-.08.48.48,0,0,1-.09-.19.84.84,0,0,1,0-.27v-.22a1.17,1.17,0,0,1,0-.32,1.4,1.4,0,0,1,.09-.29,1.35,1.35,0,0,1,.15-.26A.66.66,0,0,1,52,42.38Zm-.2.9v.19a.29.29,0,0,0,.09.25.14.14,0,0,0,.17,0,.44.44,0,0,0,.18-.2.84.84,0,0,0,.08-.31,1,1,0,0,0,0-.25.35.35,0,0,0-.08-.22.15.15,0,0,0-.18,0,.52.52,0,0,0-.17.19A.86.86,0,0,0,51.82,43.28Z"/><path class="cls-2" d="M41.67,51.67l16.26-9.4c.4-.23.73-.06.73.37A1.58,1.58,0,0,1,58,43.85L41.68,53.24c-.4.23-.72.07-.72-.37A1.52,1.52,0,0,1,41.67,51.67Z"/><path class="cls-1" d="M58,42.28,56.71,43v1.58L58,43.85a1.55,1.55,0,0,0,.72-1.2C58.66,42.21,58.33,42,58,42.28Z"/><path class="cls-14" d="M57.3,43.35l.27.26a0,0,0,0,0,.06,0h0l.31-.67s0,0,0,0l-.62.36s0,0,0,.07Z"/><path class="cls-2" d="M63.47,39.08l16.27-9.39c.4-.23.72-.07.72.36a1.55,1.55,0,0,1-.71,1.22L63.49,40.66c-.4.23-.73.07-.73-.37A1.6,1.6,0,0,1,63.47,39.08Z"/><path class="cls-1" d="M79.75,29.69l-1.24.72V32l1.24-.71a1.58,1.58,0,0,0,.73-1.21C80.46,29.63,80.14,29.46,79.75,29.69Z"/><path class="cls-14" d="M79.1,30.77l.27.26s0,0,.06,0l0,0,.31-.67s0,0,0,0l-.62.36a0,0,0,0,0,0,.06Z"/><path class="cls-2" d="M71.34,51.85l16.26-9.4c.4-.23.72-.06.72.37A1.54,1.54,0,0,1,87.6,44L71.34,53.42c-.41.23-.73.07-.73-.37A1.51,1.51,0,0,1,71.34,51.85Z"/><path class="cls-1" d="M87.6,42.46l-1.24.72v1.57L87.6,44a1.53,1.53,0,0,0,.72-1.2C88.32,42.39,88,42.23,87.6,42.46Z"/><path class="cls-14" d="M87,43.54l.27.26a0,0,0,0,0,.07,0h0l.32-.67s0-.05,0,0l-.63.36a0,0,0,0,0,0,.07Z"/><path class="cls-14" d="M70.55,59.14c0,.27.2.37.44.23l2.16-1.25a1,1,0,0,0,.44-.73c0-.26-.2-.36-.44-.22L71,58.42A.92.92,0,0,0,70.55,59.14Z"/><path class="cls-14" d="M74.19,57c0,.26.2.36.44.22L76.79,56a.92.92,0,0,0,.44-.73c0-.27-.19-.36-.44-.23l-2.16,1.25A1,1,0,0,0,74.19,57Z"/><path class="cls-14" d="M77.84,54.94c0,.26.2.36.44.22l2.16-1.25a1,1,0,0,0,.44-.73c0-.26-.2-.36-.44-.22l-2.16,1.25A.92.92,0,0,0,77.84,54.94Z"/><path class="cls-14" d="M81.48,52.83c0,.27.2.36.44.22l2.16-1.24a1,1,0,0,0,.44-.73c0-.26-.2-.36-.44-.22L81.92,52.1A1,1,0,0,0,81.48,52.83Z"/><path class="cls-14" d="M85.12,50.73c0,.26.2.36.44.22l2.16-1.25a.93.93,0,0,0,.44-.72c0-.27-.2-.37-.44-.23L85.56,50A.92.92,0,0,0,85.12,50.73Z"/><path class="cls-14" d="M88.77,48.62c0,.26.2.37.44.22l2.16-1.24a1,1,0,0,0,.44-.73c0-.26-.2-.36-.44-.22L89.21,47.9A.92.92,0,0,0,88.77,48.62Z"/><path class="cls-14" d="M92.41,46.52c0,.26.2.36.44.22L95,45.5a.92.92,0,0,0,.44-.73c0-.27-.19-.36-.44-.23l-2.16,1.25A1,1,0,0,0,92.41,46.52Z"/><polygon class="cls-2" points="70.92 61.64 73.57 60.12 73.57 62.51 70.92 64.07 70.92 61.64"/><polygon class="cls-2" points="70.92 65 73.57 63.47 73.57 65.86 70.92 67.42 70.92 65"/><polygon class="cls-3" points="70.92 68.35 73.57 66.83 73.57 69.22 70.92 70.78 70.92 68.35"/><g class="cls-18"><polygon class="cls-13" points="70.92 68.35 73.57 66.83 73.57 69.22 70.92 70.78 70.92 68.35"/></g><polygon class="cls-2" points="70.92 71.71 73.57 70.18 73.57 72.57 70.92 74.14 70.92 71.71"/><polygon class="cls-2" points="74.57 59.54 77.22 58.01 77.22 60.4 74.57 61.97 74.57 59.54"/><polygon class="cls-2" points="74.57 62.89 77.22 61.37 77.22 63.76 74.57 65.32 74.57 62.89"/><polygon class="cls-3" points="74.57 66.25 77.22 64.72 77.22 67.11 74.57 68.67 74.57 66.25"/><g class="cls-17"><polygon class="cls-13" points="74.57 66.25 77.22 64.72 77.22 67.11 74.57 68.67 74.57 66.25"/></g><polygon class="cls-2" points="74.57 69.6 77.22 68.08 77.22 70.47 74.57 72.03 74.57 69.6"/><polygon class="cls-2" points="78.21 57.43 80.86 55.91 80.86 58.3 78.21 59.86 78.21 57.43"/><polygon class="cls-2" points="78.21 60.79 80.86 59.26 80.86 61.65 78.21 63.21 78.21 60.79"/><polygon class="cls-3" points="78.21 64.14 80.86 62.62 80.86 65 78.21 66.57 78.21 64.14"/><g class="cls-12"><polygon class="cls-13" points="78.21 64.14 80.86 62.62 80.86 65 78.21 66.57 78.21 64.14"/></g><polygon class="cls-2" points="78.21 67.5 80.86 65.97 80.86 68.36 78.21 69.92 78.21 67.5"/><polygon class="cls-2" points="81.86 55.33 84.51 53.8 84.51 56.19 81.86 57.75 81.86 55.33"/><polygon class="cls-2" points="81.86 58.68 84.51 57.15 84.51 59.54 81.86 61.11 81.86 58.68"/><polygon class="cls-3" points="81.86 62.04 84.51 60.51 84.51 62.9 81.86 64.46 81.86 62.04"/><polygon class="cls-2" points="81.86 65.39 84.51 63.86 84.51 66.25 81.86 67.82 81.86 65.39"/><polygon class="cls-2" points="85.51 53.22 88.16 51.69 88.16 54.08 85.51 55.65 85.51 53.22"/><polygon class="cls-3" points="85.51 56.57 88.16 55.05 88.16 57.44 85.51 59 85.51 56.57"/><polygon class="cls-2" points="85.51 59.93 88.16 58.41 88.16 60.79 85.51 62.36 85.51 59.93"/><polygon class="cls-2" points="85.51 63.29 88.16 61.76 88.16 64.15 85.51 65.71 85.51 63.29"/><polygon class="cls-2" points="89.15 51.12 91.81 49.59 91.81 51.98 89.15 53.54 89.15 51.12"/><polygon class="cls-3" points="89.15 54.47 91.81 52.94 91.81 55.33 89.15 56.9 89.15 54.47"/><g class="cls-12"><polygon class="cls-13" points="89.15 54.47 91.81 52.94 91.81 55.33 89.15 56.9 89.15 54.47"/></g><polygon class="cls-2" points="89.15 57.83 91.81 56.3 91.81 58.69 89.15 60.25 89.15 57.83"/><polygon class="cls-2" points="89.15 61.18 91.81 59.65 91.81 62.04 89.15 63.61 89.15 61.18"/><polygon class="cls-2" points="92.8 49.01 95.45 47.48 95.45 49.87 92.8 51.44 92.8 49.01"/><polygon class="cls-3" points="92.8 52.36 95.45 50.84 95.45 53.23 92.8 54.79 92.8 52.36"/><g class="cls-17"><polygon class="cls-13" points="92.8 52.36 95.45 50.84 95.45 53.23 92.8 54.79 92.8 52.36"/></g><polygon class="cls-2" points="92.8 55.72 95.45 54.2 95.45 56.58 92.8 58.15 92.8 55.72"/><polygon class="cls-2" points="92.8 59.07 95.45 57.55 95.45 59.94 92.8 61.5 92.8 59.07"/><path class="cls-19" d="M41.67,69,66.11,54.86c.4-.23.72,0,.72.42v6.18a1.58,1.58,0,0,1-.72,1.26L41.67,76.84c-.4.23-.72,0-.72-.42V70.23A1.58,1.58,0,0,1,41.67,69Z"/><path class="cls-14" d="M61.55,62.55v0l0,0,.47-.28h0a0,0,0,0,1,0,0v.12a0,0,0,0,1,0,0s0,0,0,0l-.34.21v.22l.06-.06.06,0,.13,0a.21.21,0,0,1,.11,0,.27.27,0,0,1,.07.08.88.88,0,0,1,0,.16.69.69,0,0,1,0,.2.56.56,0,0,1-.07.16.32.32,0,0,1-.1.13l-.13.1a.39.39,0,0,1-.15.06h-.1a.11.11,0,0,1-.06-.07.2.2,0,0,1,0-.11v0l0,0,.1-.05h0s0,0,0,0a.13.13,0,0,0,0,0h0a0,0,0,0,0,.05,0l.06,0a.25.25,0,0,0,.11-.12.34.34,0,0,0,.05-.17.12.12,0,0,0-.05-.1.11.11,0,0,0-.11,0l-.06,0,0,0s0,0,0,0l0,0-.12.07h0s0,0,0,0Z"/><path class="cls-14" d="M62.86,62A.31.31,0,0,1,63,62a.17.17,0,0,1,.1,0,.1.1,0,0,1,.06.08.27.27,0,0,1,0,.12v.17a.51.51,0,0,1,0,.17.47.47,0,0,1-.06.15.64.64,0,0,1-.1.13.58.58,0,0,1-.12.1.29.29,0,0,1-.13.05l-.09,0a.11.11,0,0,1-.07-.08.53.53,0,0,1,0-.12v-.17a.41.41,0,0,1,0-.16.77.77,0,0,1,.07-.16.38.38,0,0,1,.09-.13A.41.41,0,0,1,62.86,62Zm.15.29a.19.19,0,0,0,0-.08l0,0h-.05l0,0-.06,0,0,0a.25.25,0,0,0,0,.07s0,.07,0,.1v.15s0,.06,0,.08,0,0,0,0h0l.06,0,0,0,.05-.05,0-.07a.44.44,0,0,0,0-.1v-.15Z"/><path class="cls-14" d="M63.53,61.66l.18-.1h0v.18l0,0-.18.1v.63a0,0,0,0,1,0,0l0,0-.1,0h0s0,0,0,0V62l-.09,0h0v-.18a0,0,0,0,1,0,0l.09-.05v-.08a.32.32,0,0,1,0-.14.22.22,0,0,1,.05-.12.39.39,0,0,1,.08-.1l.1-.07.1-.06h0s0,0,0,0v.11s0,0,0,0l0,0-.09,0a.19.19,0,0,0-.1.17Z"/><path class="cls-14" d="M64.05,61.44v-.07l.27-.44,0,0,0,0,.1,0h0s0,0,0,0v1.09s0,0,0,0a0,0,0,0,1,0,0l-.11.06s0,0,0,0V61.2l-.18.29a0,0,0,0,1,0,0Z"/><path class="cls-14" d="M65.34,60.75v.3a1.36,1.36,0,0,1,0,.2.64.64,0,0,1-.06.18.65.65,0,0,1-.1.15.79.79,0,0,1-.15.12.52.52,0,0,1-.16.06.12.12,0,0,1-.1,0,.24.24,0,0,1-.06-.11.88.88,0,0,1,0-.16v-.3a1.23,1.23,0,0,1,0-.19.64.64,0,0,1,.06-.18.54.54,0,0,1,.1-.16A.48.48,0,0,1,65,60.5a.2.2,0,0,1,.15-.06.12.12,0,0,1,.1,0,.24.24,0,0,1,.06.11A.88.88,0,0,1,65.34,60.75Zm-.51.59a.49.49,0,0,0,0,.16s.07,0,.13,0a.28.28,0,0,0,.12-.14.52.52,0,0,0,0-.21v-.28a.22.22,0,0,0,0-.16s-.07,0-.12,0a.25.25,0,0,0-.13.14.8.8,0,0,0,0,.21v.28Z"/><path class="cls-14" d="M64.92,59.45,42.85,72.2c-.32.18-.58,0-.58-.44h0a1.38,1.38,0,0,1,.58-1.1L64.92,57.91c.32-.18.58,0,.58.44h0A1.38,1.38,0,0,1,64.92,59.45Z"/><path class="cls-3" d="M53.68,64.4l-10.9,6.3a1.3,1.3,0,0,0-.5,1.06c0,.42.22.64.5.48l10.9-6.3a1.33,1.33,0,0,0,.5-1.06C54.18,64.46,54,64.24,53.68,64.4Z"/><path class="cls-14" d="M42.29,74.11a.61.61,0,0,1,.28-.47l7.09-4.09c.16-.09.28,0,.28.14a.59.59,0,0,1-.28.46l-7.09,4.1C42.42,74.34,42.29,74.27,42.29,74.11Z"/><path class="cls-19" d="M55.86,71.79l10.25-5.91c.4-.23.72,0,.72.42v9.34a1.56,1.56,0,0,1-.72,1.25L55.86,82.81c-.4.23-.72,0-.72-.42V73.05A1.58,1.58,0,0,1,55.86,71.79Z"/><path class="cls-14" d="M60.28,74.25s0,0,0,0a0,0,0,0,1,0,0v.17l0,0-.2.4.11,0,.09,0a.14.14,0,0,1,0,.08.3.3,0,0,1,0,.13,1.11,1.11,0,0,1,0,.19.89.89,0,0,1-.08.17l-.12.15-.15.11-.17.07h-.12l-.07-.07,0-.1v0s0,0,0,0l.11-.07h0l0,0,0,0h.1l.08,0a.37.37,0,0,0,.13-.12.25.25,0,0,0,.06-.16.08.08,0,0,0-.06-.09.33.33,0,0,0-.13,0l-.11.07a0,0,0,0,1,0,0V75l0,0,.19-.38-.38.21s0,0,0,0a0,0,0,0,1,0,0v-.13s0,0,0,0l0,0Z"/><path class="cls-14" d="M61.23,74.17v.33a1.49,1.49,0,0,1,0,.21.73.73,0,0,1-.07.19.62.62,0,0,1-.11.17.58.58,0,0,1-.17.14.49.49,0,0,1-.17.06.15.15,0,0,1-.11,0,.34.34,0,0,1-.06-.12,1.08,1.08,0,0,1,0-.19v-.31a1.66,1.66,0,0,1,0-.22.7.7,0,0,1,.06-.19,1,1,0,0,1,.11-.17.55.55,0,0,1,.17-.14.35.35,0,0,1,.17-.06.12.12,0,0,1,.11,0,.19.19,0,0,1,.07.12A1.1,1.1,0,0,1,61.23,74.17Zm-.55.64a.39.39,0,0,0,0,.18s.08,0,.14,0a.36.36,0,0,0,.14-.16.59.59,0,0,0,0-.23v-.31a.34.34,0,0,0,0-.17s-.07,0-.14,0a.29.29,0,0,0-.14.15.85.85,0,0,0,0,.23v.31Z"/><path class="cls-14" d="M61.57,73.49a.16.16,0,0,1,.09,0,.08.08,0,0,1,.1.06v.37a.3.3,0,0,1,0,.1.47.47,0,0,1-.06.09.71.71,0,0,1-.09.07l-.09,0h-.06l0-.05v-.38l0-.09.06-.09Zm.55-.28,0,0,0,0,.08-.05h0v0h0l-.67,1.59,0,0,0,0-.08,0h0v0h0Zm-.48.66v-.16a.08.08,0,0,0,0,0h0a.09.09,0,0,0-.06.06V74h.06a.1.1,0,0,0,0-.06A.19.19,0,0,0,61.64,73.87Zm.52-.07.09,0h.06l0,.06s0,0,0,.07v.2s0,.07,0,.1a.46.46,0,0,1-.1.18l-.09.07a.16.16,0,0,1-.09,0H62a.13.13,0,0,1,0-.06.15.15,0,0,1,0-.07.17.17,0,0,1,0-.1v-.1a.28.28,0,0,1,0-.09.44.44,0,0,1,.1-.19l.1-.07Zm.07.38V74s0,0,0-.05h-.05a.12.12,0,0,0,0,.05.19.19,0,0,0,0,.07v.17a.08.08,0,0,0,0,0h0a.12.12,0,0,0,.05,0,.16.16,0,0,0,0-.09Z"/><path class="cls-14" d="M59.7,72.73l-.45-.57a7.94,7.94,0,0,0-1.07,2.59l.73-.11A6,6,0,0,1,59.7,72.73Z"/><path class="cls-14" d="M61,71.44v-1a5.39,5.39,0,0,0-1.74,1.75l.45.57A4,4,0,0,1,61,71.44Z"/><path class="cls-3" d="M63.79,71.53A1.73,1.73,0,0,0,61,70.44v1a1.46,1.46,0,0,1,1.27-.18,1.4,1.4,0,0,1,.8,1,3.32,3.32,0,0,1,.11.83,5,5,0,0,1-.11,1l.73-.1a7.2,7.2,0,0,0,.15-1.3A4.43,4.43,0,0,0,63.79,71.53Z"/><path class="cls-14" d="M63.79,73.94l-.73.11a5.78,5.78,0,0,1-.8,1.9l.46.57A7.8,7.8,0,0,0,63.79,73.94Z"/><path class="cls-14" d="M58.81,75.6a4.47,4.47,0,0,1,.1-1l-.73.11a7.1,7.1,0,0,0-.15,1.3,4.33,4.33,0,0,0,.15,1.13l.73-.74A2.93,2.93,0,0,1,58.81,75.6Z"/><path class="cls-14" d="M59.7,77.43l-.45,1.1A2.06,2.06,0,0,0,61,78.28v-1A1.47,1.47,0,0,1,59.7,77.43Z"/><path class="cls-14" d="M61,77.25v1a5.29,5.29,0,0,0,1.73-1.76L62.26,76A4,4,0,0,1,61,77.25Z"/><path class="cls-14" d="M58.91,76.44l-.73.74a1.89,1.89,0,0,0,1.07,1.34l.45-1.09A1.44,1.44,0,0,1,58.91,76.44Z"/><path class="cls-19" d="M41.67,80l10.24-5.92c.4-.23.73,0,.73.42v9.34a1.62,1.62,0,0,1-.73,1.26L41.66,91c-.4.24-.72,0-.72-.42V81.26A1.59,1.59,0,0,1,41.67,80Z"/><path class="cls-14" d="M46.09,82.44h0v.16a0,0,0,0,1,0,0v.06l-.31,1.16s0,0,0,0l0,0-.12.07h0v-.06l.32-1.16L45.5,83h0a0,0,0,0,1,0,0v-.13s0,0,0,0,0,0,0,0Z"/><path class="cls-14" d="M47,82.4v.33A1.5,1.5,0,0,1,47,83a1.46,1.46,0,0,1-.07.19,1,1,0,0,1-.11.17l-.17.14a.49.49,0,0,1-.17.06.21.21,0,0,1-.11,0,.23.23,0,0,1-.06-.12.68.68,0,0,1,0-.19v-.31a.78.78,0,0,1,0-.22.7.7,0,0,1,.06-.19.67.67,0,0,1,.11-.18.7.7,0,0,1,.17-.13.27.27,0,0,1,.17-.06.12.12,0,0,1,.11,0,.24.24,0,0,1,.07.12A.88.88,0,0,1,47,82.4Zm-.55.64a.25.25,0,0,0,0,.17s.08,0,.14,0a.29.29,0,0,0,.14-.15,1.55,1.55,0,0,0,0-.23v-.31a.34.34,0,0,0,0-.17s-.08,0-.14,0a.29.29,0,0,0-.14.15.59.59,0,0,0,0,.23v.15A.85.85,0,0,0,46.43,83Z"/><path class="cls-14" d="M47.32,81.71l.09,0,.06,0a.1.1,0,0,1,0,0v.37a.42.42,0,0,1,0,.1l-.06.09-.09.07-.09,0h-.06a.21.21,0,0,1,0-.06V82a.36.36,0,0,1,0-.09l.06-.09Zm.55-.27s0,0,0,0l0,0,.08,0h0s0,0,0,0h0l-.67,1.58s0,0,0,0l0,0-.08,0h0s0,0,0,0h0Zm-.48.65v-.16a.06.06,0,0,0,0-.06h0a.17.17,0,0,0-.06.06v.29h.06l0,0a.11.11,0,0,0,0-.08Zm.53-.07A.2.2,0,0,1,48,82l.06,0a.07.07,0,0,1,0,0,.24.24,0,0,1,0,.08v.2a.29.29,0,0,1,0,.09.18.18,0,0,1,0,.1.16.16,0,0,1-.06.08.27.27,0,0,1-.08.07.16.16,0,0,1-.09,0h-.06a.07.07,0,0,1,0,0,.09.09,0,0,1,0-.07v-.2a.17.17,0,0,1,0-.1.36.36,0,0,1,0-.09.45.45,0,0,1,.15-.17Zm.07.37v-.16a.08.08,0,0,0,0,0h0a.09.09,0,0,0-.06.06.14.14,0,0,0,0,.07v.17s0,0,0,0h.06a.1.1,0,0,0,0-.06.19.19,0,0,0,0-.08Z"/><path class="cls-14" d="M45.51,80.92l-.45-.57A7.8,7.8,0,0,0,44,82.93l.73-.1A5.94,5.94,0,0,1,45.51,80.92Z"/><path class="cls-14" d="M46.79,79.63v-1a5.49,5.49,0,0,0-1.73,1.76l.45.57A4,4,0,0,1,46.79,79.63Z"/><path class="cls-14" d="M44.61,83.8a4.42,4.42,0,0,1,.11-1l-.73.1a6.32,6.32,0,0,0-.15,1.3A4.28,4.28,0,0,0,44,85.37l.73-.74A3.32,3.32,0,0,1,44.61,83.8Z"/><path class="cls-3" d="M49.6,79.7a1.92,1.92,0,0,0-1.07-1.34,2,2,0,0,0-1.74.25v1a1.49,1.49,0,0,1,1.28-.18,1.44,1.44,0,0,1,.8,1,3,3,0,0,1,.1.84,4.47,4.47,0,0,1-.1,1,5.84,5.84,0,0,1-.8,1.91,4,4,0,0,1-1.28,1.29,1.45,1.45,0,0,1-1.28.18,1.41,1.41,0,0,1-.79-1l-.73.74a1.89,1.89,0,0,0,1.07,1.34,2,2,0,0,0,1.73-.25,5.39,5.39,0,0,0,1.74-1.75,8.07,8.07,0,0,0,1.07-2.59,6.21,6.21,0,0,0,.14-1.29A4,4,0,0,0,49.6,79.7Z"/><path class="cls-3" d="M41.31,56.58l15.63-9c.2-.12.36,0,.36.2v8.61a.81.81,0,0,1-.36.63L41.31,66c-.2.12-.36,0-.36-.21V57.2A.77.77,0,0,1,41.31,56.58Z"/><path class="cls-13" d="M43.29,57.82a.38.38,0,0,1,.21,0,.35.35,0,0,1,.16.08.38.38,0,0,1,.09.15.33.33,0,0,1,0,.17.15.15,0,0,1,0,.09l-.05.06-.17.1h-.07a.1.1,0,0,1,0-.05.22.22,0,0,0-.11-.1.32.32,0,0,0-.23.06l-.12.09-.11.12-.07.14a.77.77,0,0,0,0,.15.31.31,0,0,0,0,.13.1.1,0,0,0,.09,0h.16l.23,0a.54.54,0,0,1,.25,0,.28.28,0,0,1,.18.06.37.37,0,0,1,.09.16,1.14,1.14,0,0,1,0,.58,1.21,1.21,0,0,1-.11.3,1.11,1.11,0,0,1-.17.27,1.25,1.25,0,0,1-.23.23v.26a.29.29,0,0,1,0,.09l-.05.06-.21.12H43A.14.14,0,0,1,43,61v-.26a.66.66,0,0,1-.21,0,.27.27,0,0,1-.17-.06.33.33,0,0,1-.12-.14.69.69,0,0,1-.05-.24.15.15,0,0,1,0-.09l0-.06.17-.1s0,0,.07,0l0,0a.3.3,0,0,0,0,.08.13.13,0,0,0,.07.05H43l.17-.07.14-.1a.49.49,0,0,0,.12-.13.6.6,0,0,0,.09-.15.47.47,0,0,0,0-.17.18.18,0,0,0,0-.12.2.2,0,0,0-.11,0l-.18,0-.24.05a.82.82,0,0,1-.22,0,.29.29,0,0,1-.16-.07.37.37,0,0,1-.09-.16,1.43,1.43,0,0,1,0-.29,1,1,0,0,1,0-.3,1.42,1.42,0,0,1,.1-.29,2.26,2.26,0,0,1,.16-.26A2.09,2.09,0,0,1,43,58v-.26a.29.29,0,0,1,0-.09l.05-.06.21-.11s0,0,.05,0a.11.11,0,0,1,0,.06Z"/><path class="cls-13" d="M44.24,57.39V57.3a.1.1,0,0,1,0-.06l1-.55h0a.14.14,0,0,1,0,.07V57a.29.29,0,0,1,0,.09.12.12,0,0,1,0,.05l-.71.41v.53a.53.53,0,0,1,.13-.13l.11-.07a.82.82,0,0,1,.26-.1.26.26,0,0,1,.21.06.35.35,0,0,1,.14.2,1,1,0,0,1,0,.35,2.4,2.4,0,0,1,0,.46,1.86,1.86,0,0,1-.14.37,1.46,1.46,0,0,1-.21.28,1,1,0,0,1-.26.2.64.64,0,0,1-.3.11.24.24,0,0,1-.2-.05.37.37,0,0,1-.13-.17.75.75,0,0,1,0-.26.15.15,0,0,1,0-.09.08.08,0,0,1,.05-.05l.2-.12h0a.05.05,0,0,1,0,0,.31.31,0,0,0,.05.12.13.13,0,0,0,.07,0h.1a.22.22,0,0,0,.11-.05A.56.56,0,0,0,45,59a.85.85,0,0,0,.09-.38.27.27,0,0,0-.09-.24.23.23,0,0,0-.23,0,.94.94,0,0,0-.12.09l-.07.08,0,.07-.06,0-.23.14h-.05a.14.14,0,0,1,0-.07Z"/><path class="cls-13" d="M46.58,58.64h0a.14.14,0,0,1,0-.06v-.47l-.78.45h0s0,0,0-.06v-.28a.41.41,0,0,1,0-.11s0-.06,0-.1l.77-1.93a.31.31,0,0,1,.1-.15l.2-.11a0,0,0,0,1,0,0s0,0,0,.06v1.56l.22-.13a0,0,0,0,1,0,0,.14.14,0,0,1,0,.06v.28a.19.19,0,0,1,0,.08.1.1,0,0,1,0,.06l-.22.13v.47a.13.13,0,0,1,0,.08.21.21,0,0,1,0,.06Zm-.07-1v-.82l-.43,1.07Z"/><path class="cls-13" d="M48.78,55.67v.69a3.12,3.12,0,0,1-.05.44,1.68,1.68,0,0,1-.11.4,1.26,1.26,0,0,1-.52.6.67.67,0,0,1-.31.1.28.28,0,0,1-.21-.1.54.54,0,0,1-.11-.27,2.6,2.6,0,0,1,0-.39v-.67a3.44,3.44,0,0,1,0-.45,1.82,1.82,0,0,1,.11-.4,1.94,1.94,0,0,1,.21-.34A1.3,1.3,0,0,1,48.1,55a.57.57,0,0,1,.31-.1.28.28,0,0,1,.21.1.54.54,0,0,1,.11.27A2.47,2.47,0,0,1,48.78,55.67Zm-1,1.26a.85.85,0,0,0,.09.38c0,.07.13.07.25,0a.62.62,0,0,0,.25-.3,1.61,1.61,0,0,0,.08-.48v-.67a.69.69,0,0,0-.08-.38c0-.08-.13-.08-.25,0a.5.5,0,0,0-.25.3,1.51,1.51,0,0,0-.09.48v.33c0,.12,0,.24,0,.34Z"/><path class="cls-13" d="M49.4,56.43h0a.07.07,0,0,1,0,.06v.38a.15.15,0,0,1,0,.09.1.1,0,0,1,0,0l-.24.14h0a.14.14,0,0,1,0-.06v-.38a.29.29,0,0,1,0-.09l0-.06Z"/><path class="cls-13" d="M51.13,54.31V55a2.12,2.12,0,0,1,0,.44,1.82,1.82,0,0,1-.11.4,1.94,1.94,0,0,1-.21.34,1.3,1.3,0,0,1-.31.26.57.57,0,0,1-.31.1.28.28,0,0,1-.21-.1.54.54,0,0,1-.11-.27,1.74,1.74,0,0,1,0-.39v-.67a3.44,3.44,0,0,1,0-.45,1.82,1.82,0,0,1,.11-.4,1.08,1.08,0,0,1,.21-.34,1,1,0,0,1,.31-.26.57.57,0,0,1,.31-.1.3.3,0,0,1,.21.1.64.64,0,0,1,.11.27A1.58,1.58,0,0,1,51.13,54.31Zm-1,1.26a.73.73,0,0,0,.08.38c.06.07.14.07.26,0a.59.59,0,0,0,.24-.3,1.36,1.36,0,0,0,.09-.48V54.5a.62.62,0,0,0-.09-.38c0-.08-.13-.08-.24,0a.57.57,0,0,0-.26.29,1.62,1.62,0,0,0-.08.49v.33c0,.13,0,.24,0,.34Z"/><path class="cls-13" d="M52.84,53.33V54a3.29,3.29,0,0,1-.05.44,1.82,1.82,0,0,1-.11.4,1.36,1.36,0,0,1-.21.34,1.07,1.07,0,0,1-.31.25.5.5,0,0,1-.31.1.25.25,0,0,1-.21-.1.85.85,0,0,1-.11-.26,1.72,1.72,0,0,1,0-.39v-.67a2.28,2.28,0,0,1,0-.45,1.91,1.91,0,0,1,.11-.41,1.85,1.85,0,0,1,.21-.33,1,1,0,0,1,.31-.26.52.52,0,0,1,.31-.1.25.25,0,0,1,.21.1.54.54,0,0,1,.11.26A2.6,2.6,0,0,1,52.84,53.33Zm-1,1.25a.82.82,0,0,0,.09.38c0,.08.13.08.25,0a.55.55,0,0,0,.25-.29,2,2,0,0,0,.09-.49v-.67a.85.85,0,0,0-.09-.38c-.05-.07-.13-.08-.25,0a.53.53,0,0,0-.25.3,1.63,1.63,0,0,0-.09.48v.34c0,.12,0,.24,0,.33Z"/><path class="cls-7" d="M42.31,62.94a.52.52,0,0,1,.24-.4L48.63,59c.14-.08.25,0,.25.12a.56.56,0,0,1-.25.4l-6.08,3.52C42.41,63.14,42.31,63.09,42.31,62.94Z"/><path class="cls-14" d="M60.39,45.56l15.62-9c.2-.11.36,0,.36.21v8.61A.79.79,0,0,1,76,46L60.39,55c-.21.11-.37,0-.37-.21V46.19A.8.8,0,0,1,60.39,45.56Z"/><path class="cls-3" d="M62.36,46.83a.42.42,0,0,1,.22,0,.28.28,0,0,1,.15.08.31.31,0,0,1,.1.15,1.16,1.16,0,0,1,0,.18.19.19,0,0,1,0,.08.1.1,0,0,1-.05.06l-.18.1h-.06s0,0,0,0a.2.2,0,0,0-.11-.11s-.13,0-.23.07a.34.34,0,0,0-.12.09.43.43,0,0,0-.11.12.61.61,0,0,0-.07.14.68.68,0,0,0,0,.15.27.27,0,0,0,0,.12.11.11,0,0,0,.09,0,.39.39,0,0,0,.15,0l.24-.05a.54.54,0,0,1,.25,0,.24.24,0,0,1,.17.06.3.3,0,0,1,.1.17,1.18,1.18,0,0,1,0,.57,1.21,1.21,0,0,1-.11.3,1.53,1.53,0,0,1-.17.27,1,1,0,0,1-.24.23v.27a.11.11,0,0,1,0,.08.1.1,0,0,1,0,.06l-.2.12a0,0,0,0,1,0,0A.07.07,0,0,1,62,50v-.27a.39.39,0,0,1-.21,0,.41.41,0,0,1-.18-.05.44.44,0,0,1-.12-.15.64.64,0,0,1-.05-.24.29.29,0,0,1,0-.09.12.12,0,0,1,0,0l.18-.1h.06s0,0,0,0a.22.22,0,0,0,.05.08.1.1,0,0,0,.06.05h.11l.16-.07.15-.1.12-.13a1.09,1.09,0,0,0,.08-.15.33.33,0,0,0,0-.17.17.17,0,0,0,0-.12.2.2,0,0,0-.11,0,.51.51,0,0,0-.17,0l-.25,0a.81.81,0,0,1-.22,0,.25.25,0,0,1-.15-.06.42.42,0,0,1-.1-.17,1.33,1.33,0,0,1,0-.28,1.55,1.55,0,0,1,0-.31,1.62,1.62,0,0,1,.11-.28.92.92,0,0,1,.16-.27A1,1,0,0,1,62,47v-.27a.19.19,0,0,1,0-.08.1.1,0,0,1,0-.06l.2-.12h0a.06.06,0,0,1,0,.06Z"/><path class="cls-3" d="M63.13,47.27a.09.09,0,0,1,0-.07l0-.09.54-1,0-.06a.1.1,0,0,1,0,0l.2-.11s0,0,.05,0a.08.08,0,0,1,0,.06v2.5a.19.19,0,0,1,0,.08.1.1,0,0,1-.05.06l-.21.12a0,0,0,0,1,0,0,.07.07,0,0,1,0-.06V46.75l-.36.64,0,0a0,0,0,0,1-.05,0Z"/><path class="cls-3" d="M64.39,47.46a1.4,1.4,0,0,1,.06-.41c0-.12.07-.25.11-.37L65,45.37l0-.07s0,0,.06,0l.22-.14h0a.07.07,0,0,1,0,.06v.06l-.31.87a.53.53,0,0,1,.27-.08.31.31,0,0,1,.22.07.45.45,0,0,1,.13.22.83.83,0,0,1,0,.35,1.51,1.51,0,0,1,0,.42,1.74,1.74,0,0,1-.14.38,1.24,1.24,0,0,1-.22.34,1,1,0,0,1-.27.23.71.71,0,0,1-.28.09.31.31,0,0,1-.21-.07.43.43,0,0,1-.14-.23A.89.89,0,0,1,64.39,47.46Zm1-.59a.34.34,0,0,0-.09-.28c-.06-.06-.15-.05-.25,0a.59.59,0,0,0-.26.28,1,1,0,0,0-.09.38.39.39,0,0,0,.09.28c.06.06.15.06.26,0a.57.57,0,0,0,.25-.28.85.85,0,0,0,.09-.38Z"/><path class="cls-3" d="M67.4,44.94v.69a3.27,3.27,0,0,1,0,.44,2.64,2.64,0,0,1-.12.4,1.38,1.38,0,0,1-.2.33,1.18,1.18,0,0,1-.32.27.67.67,0,0,1-.31.1.27.27,0,0,1-.2-.11.62.62,0,0,1-.12-.26,1.72,1.72,0,0,1,0-.39v-.68a3.42,3.42,0,0,1,0-.44,1.42,1.42,0,0,1,.12-.4,1.45,1.45,0,0,1,.2-.34,1,1,0,0,1,.31-.26.62.62,0,0,1,.32-.11.33.33,0,0,1,.2.11.68.68,0,0,1,.12.26A2.58,2.58,0,0,1,67.4,44.94Zm-1,1.25a.86.86,0,0,0,.09.39c0,.07.13.07.25,0a.53.53,0,0,0,.25-.3,1.57,1.57,0,0,0,.09-.48v-.67a.79.79,0,0,0-.09-.38c0-.08-.13-.08-.25,0a.51.51,0,0,0-.25.29,2,2,0,0,0-.09.48v.34c0,.13,0,.24,0,.33Z"/><path class="cls-3" d="M68,45.69h0a.07.07,0,0,1,0,.06v.38a.29.29,0,0,1,0,.09.1.1,0,0,1,0,.06l-.23.13a0,0,0,0,1,0,0s0,0,0-.06V46a.19.19,0,0,1,0-.08.1.1,0,0,1,0-.06Z"/><path class="cls-3" d="M69.76,43.58v.69a3.29,3.29,0,0,1-.05.44,1.82,1.82,0,0,1-.11.4,1.15,1.15,0,0,1-.21.33,1.1,1.1,0,0,1-.31.26.57.57,0,0,1-.31.1.28.28,0,0,1-.21-.1.54.54,0,0,1-.11-.27,2.6,2.6,0,0,1,0-.39v-.67a3.44,3.44,0,0,1,0-.45,1.82,1.82,0,0,1,.11-.4,1.94,1.94,0,0,1,.21-.34,1.3,1.3,0,0,1,.31-.26.57.57,0,0,1,.31-.1.28.28,0,0,1,.21.1.54.54,0,0,1,.11.27A1.67,1.67,0,0,1,69.76,43.58Zm-1,1.25a.79.79,0,0,0,.09.38c0,.08.14.08.25,0a.51.51,0,0,0,.25-.29,1.63,1.63,0,0,0,.09-.49v-.67a.85.85,0,0,0-.09-.38c0-.07-.13-.07-.25,0a.62.62,0,0,0-.25.3,1.86,1.86,0,0,0-.09.48v.33c0,.13,0,.25,0,.34Z"/><path class="cls-3" d="M71.46,42.59v.69a3.42,3.42,0,0,1,0,.45,1.76,1.76,0,0,1-.12.39,1.08,1.08,0,0,1-.21.34,1.25,1.25,0,0,1-.3.26.75.75,0,0,1-.32.1.24.24,0,0,1-.2-.11.57.57,0,0,1-.12-.26,2.58,2.58,0,0,1,0-.39v-.67a3.42,3.42,0,0,1,0-.45,1.48,1.48,0,0,1,.12-.41,1.38,1.38,0,0,1,.2-.33,1.18,1.18,0,0,1,.32-.27.53.53,0,0,1,.3-.09.24.24,0,0,1,.21.1.62.62,0,0,1,.12.26A2.58,2.58,0,0,1,71.46,42.59Zm-1,1.26a.85.85,0,0,0,.09.38c0,.08.14.08.25,0a.51.51,0,0,0,.25-.29,1.37,1.37,0,0,0,.09-.49v-.67A.85.85,0,0,0,71,42.4c-.05-.07-.13-.08-.25,0a.62.62,0,0,0-.25.3,1.86,1.86,0,0,0-.09.48v.33c0,.13,0,.24,0,.34Z"/><path class="cls-3" d="M61.39,52a.52.52,0,0,1,.23-.4L67.71,48c.14-.07.24,0,.24.12a.49.49,0,0,1-.24.4l-6.07,3.51C61.49,52.15,61.39,52.09,61.39,52Z"/><path class="cls-14" d="M79.46,34.55l15.63-9c.2-.12.36,0,.36.21v8.6a.81.81,0,0,1-.36.63L79.46,44c-.2.11-.36,0-.36-.21v-8.6A.8.8,0,0,1,79.46,34.55Z"/><path class="cls-3" d="M81.43,35.83a.41.41,0,0,1,.22,0,.28.28,0,0,1,.15.08.31.31,0,0,1,.1.15.85.85,0,0,1,0,.17.24.24,0,0,1,0,.09l0,.06-.18.1s0,0-.06,0,0,0,0,0a.19.19,0,0,0-.12-.11.29.29,0,0,0-.22.06l-.13.1a.4.4,0,0,0-.1.12.83.83,0,0,0-.07.13.39.39,0,0,0,0,.15A.19.19,0,0,0,81,37a.12.12,0,0,0,.09,0l.16,0,.24,0a.54.54,0,0,1,.25,0,.27.27,0,0,1,.17.06.34.34,0,0,1,.1.16,1.24,1.24,0,0,1,0,.27,1.54,1.54,0,0,1,0,.3,1.33,1.33,0,0,1-.11.3,2.61,2.61,0,0,1-.17.28,1.75,1.75,0,0,1-.24.23v.26a.29.29,0,0,1,0,.09.13.13,0,0,1,0,.06l-.2.12h0a.14.14,0,0,1,0-.07v-.26a.39.39,0,0,1-.21,0,.27.27,0,0,1-.17-.06.24.24,0,0,1-.12-.14.71.71,0,0,1-.06-.24.29.29,0,0,1,0-.09.34.34,0,0,1,.06-.06l.17-.1s0,0,.06,0a.07.07,0,0,1,0,0,.35.35,0,0,0,.05.08.15.15,0,0,0,.06,0h.11l.16-.07.15-.1a.74.74,0,0,0,.12-.13,1.09,1.09,0,0,0,.08-.15.33.33,0,0,0,0-.17.19.19,0,0,0,0-.12.2.2,0,0,0-.11,0l-.17,0a1.37,1.37,0,0,1-.25.05h-.22a.28.28,0,0,1-.15-.06.32.32,0,0,1-.09-.17.67.67,0,0,1,0-.28,1.53,1.53,0,0,1,.14-.59,1.48,1.48,0,0,1,.16-.27,1.34,1.34,0,0,1,.2-.21v-.27a.19.19,0,0,1,0-.08.1.1,0,0,1,0-.06l.2-.12a0,0,0,0,1,0,0,.07.07,0,0,1,0,.06Z"/><path class="cls-3" d="M83.39,34.71h0a.14.14,0,0,1,0,.06v.35l0,.12-.59,2.4,0,.08a.1.1,0,0,1,0,.06l-.21.12h0a.14.14,0,0,1,0-.06v-.05l.59-2.42-.79.46h0a.14.14,0,0,1,0-.07v-.27a.19.19,0,0,1,0-.08.1.1,0,0,1,0-.06Z"/><path class="cls-3" d="M85.09,34.74v.7a3.49,3.49,0,0,1,0,.44,1.82,1.82,0,0,1-.11.4,1.15,1.15,0,0,1-.21.33,1.1,1.1,0,0,1-.31.26.5.5,0,0,1-.31.1.28.28,0,0,1-.21-.1.54.54,0,0,1-.11-.27,2.44,2.44,0,0,1,0-.39v-.67a3.12,3.12,0,0,1,0-.44,1.91,1.91,0,0,1,.11-.41,1.42,1.42,0,0,1,.21-.33,1,1,0,0,1,.31-.27.67.67,0,0,1,.31-.1.28.28,0,0,1,.21.1.54.54,0,0,1,.11.27A2.65,2.65,0,0,1,85.09,34.74Zm-1,1.26a.82.82,0,0,0,.09.38c0,.08.13.08.25,0a.58.58,0,0,0,.25-.3,1.86,1.86,0,0,0,.09-.48v-.67a.85.85,0,0,0-.09-.38c0-.07-.14-.07-.25,0a.53.53,0,0,0-.25.3,1.32,1.32,0,0,0-.09.48v.34c0,.12,0,.24,0,.33Z"/><path class="cls-3" d="M86.8,33.76v.69a3.12,3.12,0,0,1,0,.44,1.68,1.68,0,0,1-.11.4,1.08,1.08,0,0,1-.21.34,1.3,1.3,0,0,1-.31.26.57.57,0,0,1-.31.1.28.28,0,0,1-.21-.1.54.54,0,0,1-.11-.27,2.6,2.6,0,0,1,0-.39v-.67a3.44,3.44,0,0,1,0-.45,1.82,1.82,0,0,1,.11-.4,1.94,1.94,0,0,1,.21-.34,1.13,1.13,0,0,1,.31-.26.57.57,0,0,1,.31-.1.28.28,0,0,1,.21.1.54.54,0,0,1,.11.27A2.47,2.47,0,0,1,86.8,33.76Zm-1,1.26a.85.85,0,0,0,.09.38c.05.07.13.07.25,0a.53.53,0,0,0,.25-.3,1.51,1.51,0,0,0,.08-.48V34a.73.73,0,0,0-.08-.38c0-.07-.13-.07-.25,0a.56.56,0,0,0-.25.3,1.36,1.36,0,0,0-.09.48v.34A1.82,1.82,0,0,0,85.79,35Z"/><path class="cls-3" d="M87.41,34.52s0,0,0,0a.11.11,0,0,1,0,.06V35a.19.19,0,0,1,0,.08.1.1,0,0,1,0,.06l-.23.14h-.05a.06.06,0,0,1,0-.07v-.38a.18.18,0,0,1,.07-.14Z"/><path class="cls-3" d="M89.15,32.4v.69a3.12,3.12,0,0,1-.05.44,1.82,1.82,0,0,1-.11.4,1.2,1.2,0,0,1-.21.34,1.3,1.3,0,0,1-.31.26.57.57,0,0,1-.31.1.26.26,0,0,1-.2-.1.47.47,0,0,1-.12-.27,2.6,2.6,0,0,1,0-.39V33.2a3.44,3.44,0,0,1,0-.45,1.42,1.42,0,0,1,.12-.4,1.27,1.27,0,0,1,.2-.34,1,1,0,0,1,.31-.26.58.58,0,0,1,.31-.11.33.33,0,0,1,.21.11.54.54,0,0,1,.11.26A1.74,1.74,0,0,1,89.15,32.4Zm-1,1.26a.85.85,0,0,0,.09.38c0,.07.13.07.25,0a.61.61,0,0,0,.25-.3,1.44,1.44,0,0,0,.08-.46v-.67a.65.65,0,0,0-.09-.38c0-.08-.13-.08-.24,0a.59.59,0,0,0-.26.3,1.56,1.56,0,0,0-.08.48v.65Z"/><path class="cls-3" d="M90.85,31.42v.68a3.42,3.42,0,0,1,0,.45,2,2,0,0,1-.12.4,1.38,1.38,0,0,1-.2.33,1.14,1.14,0,0,1-.32.26.57.57,0,0,1-.31.1.26.26,0,0,1-.2-.1.66.66,0,0,1-.12-.27,2.58,2.58,0,0,1,0-.39v-.67a3.13,3.13,0,0,1,0-.44,1.93,1.93,0,0,1,.12-.41,1.68,1.68,0,0,1,.2-.34,1.3,1.3,0,0,1,.31-.26.71.71,0,0,1,.32-.1.26.26,0,0,1,.2.1.66.66,0,0,1,.12.27A2.58,2.58,0,0,1,90.85,31.42Zm-1,1.25a.79.79,0,0,0,.09.38c0,.08.13.08.25,0a.51.51,0,0,0,.25-.29,2,2,0,0,0,.09-.48V31.6a.85.85,0,0,0-.09-.38c-.05-.07-.13-.07-.25,0a.57.57,0,0,0-.25.3,2,2,0,0,0-.09.48v.34c0,.13,0,.24,0,.33Z"/><path class="cls-3" d="M80.46,41a.52.52,0,0,1,.24-.4L86.8,37c.13-.08.24,0,.24.12a.52.52,0,0,1-.24.4l-6.09,3.51C80.57,41.15,80.46,41.1,80.46,41Z"/></g></g></svg>