<svg id="Capa_1" data-name="Capa 1"
    xmlns="http://www.w3.org/2000/svg" viewBox="0 0 19.83 15.94">
    <defs>
        <style>.cls-1{fill:#2a2a2a;}</style>
    </defs>
    <rect id="Rectángulo_34" data-name="Rectángulo 34" class="cls-1" x="0.08" y="0.47" width="3" height="3"/>
    <g id="Trazado_60" data-name="Trazado 60">
        <path class="cls-1" d="M19.33,2.47H6.5A.46.46,0,0,1,6.08,2a.46.46,0,0,1,.42-.5H19.33a.46.46,0,0,1,.42.5A.46.46,0,0,1,19.33,2.47Z"/>
    </g>
    <rect id="Rectángulo_34-2" data-name="Rectángulo 34-2" class="cls-1" x="0.08" y="6.47" width="3" height="3"/>
    <g id="Trazado_60-2" data-name="Trazado 60-2">
        <path class="cls-1" d="M19.33,8.47H6.5a.51.51,0,0,1,0-1H19.33a.51.51,0,0,1,0,1Z"/>
    </g>
    <rect id="Rectángulo_34-3" data-name="Rectángulo 34-3" class="cls-1" x="0.08" y="12.47" width="3" height="3"/>
    <g id="Trazado_60-3" data-name="Trazado 60-3">
        <path class="cls-1" d="M19.33,14.47H6.5a.51.51,0,0,1,0-1H19.33a.51.51,0,0,1,0,1Z"/>
    </g>
</svg>