<?xml version="1.0" encoding="utf-8"?>
<!-- Generator: Adobe Illustrator 25.0.0, SVG Export Plug-In . SVG Version: 6.00 Build 0)  -->
<svg version="1.0" id="Capa_1" xmlns="http://www.w3.org/2000/svg" xmlns:xlink="http://www.w3.org/1999/xlink" x="0px" y="0px"
	 viewBox="0 0 227 227" style="enable-background:new 0 0 227 227;" xml:space="preserve">
<style type="text/css">
	.st0{clip-path:url(#SVGID_2_);}
	.st1{fill:url(#SVGID_3_);}
	.st2{fill:#FFDA00;}
	.st3{fill:url(#SVGID_4_);}
</style>
<g>
	<g>
		<defs>
			<circle id="SVGID_1_" cx="113.49" cy="113.5" r="113.49"/>
		</defs>
		<clipPath id="SVGID_2_">
			<use xlink:href="#SVGID_1_"  style="overflow:visible;"/>
		</clipPath>
		<g class="st0">
			
				<linearGradient id="SVGID_3_" gradientUnits="userSpaceOnUse" x1="-69.32" y1="86.63" x2="304.52" y2="86.63" gradientTransform="matrix(1 0 0 -1 0 227)">
				<stop  offset="0" style="stop-color:#000B59"/>
				<stop  offset="0.2671" style="stop-color:#001D7C"/>
				<stop  offset="0.355" style="stop-color:#002389"/>
				<stop  offset="0.5146" style="stop-color:#00248B"/>
				<stop  offset="0.666" style="stop-color:#00238A"/>
				<stop  offset="1" style="stop-color:#000B59"/>
			</linearGradient>
			<polygon class="st1" points="-69.32,111.92 -69.32,126.14 -69.32,126.14 -69.32,139.41 -69.32,140.37 -69.32,154.59 
				-69.32,168.82 304.52,168.82 304.52,154.59 304.52,140.37 304.52,139.41 304.52,126.14 304.52,126.14 304.52,111.92 			"/>
			<polygon class="st2" points="-69.32,-5 -69.32,24.24 -69.32,24.24 -69.32,51.48 -69.32,53.45 -69.32,82.68 -69.32,111.92 
				304.52,111.92 304.52,82.68 304.52,53.45 304.52,51.48 304.52,24.24 304.52,24.24 304.52,-5 			"/>
			
				<linearGradient id="SVGID_4_" gradientUnits="userSpaceOnUse" x1="-69.32" y1="27.93" x2="304.52" y2="27.93" gradientTransform="matrix(1 0 0 -1 0 227)">
				<stop  offset="0" style="stop-color:#CF1400"/>
				<stop  offset="1" style="stop-color:#CF1400"/>
			</linearGradient>
			<rect x="-69.32" y="168.82" class="st3" width="373.84" height="60.5"/>
		</g>
	</g>
</g>
</svg>
