<svg id="Capa_1" data-name="Capa 1" xmlns="http://www.w3.org/2000/svg" viewBox="0 0 489.67 427.9"><defs><style>.cls-1{fill:#f5f5f5;}.cls-2{fill:#e0e0e0;}.cls-3{fill:#ef0707;}.cls-4{opacity:0.5;}.cls-10,.cls-11,.cls-16,.cls-18,.cls-20,.cls-22,.cls-23,.cls-24,.cls-25,.cls-27,.cls-4,.cls-5,.cls-6,.cls-9{isolation:isolate;}.cls-27,.cls-5{opacity:0.4;}.cls-18,.cls-6{opacity:0.3;}.cls-7{fill:#37474f;}.cls-8{fill:#263238;}.cls-18,.cls-22,.cls-24,.cls-25,.cls-27,.cls-9{fill:#fff;}.cls-9{opacity:0.75;}.cls-10{opacity:0.15;}.cls-11,.cls-26{opacity:0.1;}.cls-12{fill:#ffa8a7;}.cls-13{fill:#455a64;}.cls-14{fill:#f28f8f;}.cls-15{fill:#b16668;}.cls-16{opacity:0.2;}.cls-17{fill:#fafafa;}.cls-19{fill:#9a4a4d;}.cls-20{opacity:0.35;}.cls-21{fill:#ebebeb;}.cls-22{opacity:0.6;}.cls-23{opacity:0.05;}.cls-24{opacity:0.85;}.cls-25{opacity:0.7;}</style></defs><g id="freepik--Floor--inject-2"><ellipse id="freepik--floor--inject-2-2" data-name="freepik--floor--inject-2" class="cls-1" cx="243.71" cy="279.6" rx="243.71" ry="147.16"/></g><g id="freepik--Shadows--inject-2"><path id="freepik--Shadow--inject-2" class="cls-2" d="M13.91,290.26l216.8,125.18a9.32,9.32,0,0,0,8.42,0l114-65.82c2.33-1.35,2.33-3.52,0-4.87L136.35,219.57a9.34,9.34,0,0,0-8.43,0l-114,65.83C11.58,286.74,11.58,288.92,13.91,290.26Z"/><path id="freepik--shadow--inject-2-2" data-name="freepik--shadow--inject-2" class="cls-2" d="M241.22,160c8.72,5.09,8.72,13.34,0,18.43s-22.85,5.09-31.57,0-8.72-13.34,0-18.43S232.5,154.88,241.22,160Z"/><path id="freepik--shadow--inject-2-3" data-name="freepik--shadow--inject-2" class="cls-2" d="M452.05,227.24,314.71,147.93a5.44,5.44,0,0,0-5.07-.08l-76.41,44.28c-1.41.82-1.41,2.13,0,3l33.06,19-28.58,19.28c-9.16,6.17-11.13,14.33-4.4,18.21s22.53,4.16,32.43-.74l32.77-18.18,13.72,7.92,58.1,33.58a5.68,5.68,0,0,0,5.11,0l76.62-44C453.42,229.44,453.44,228.13,452.05,227.24Z"/></g><g id="freepik--character-2--inject-2"><g id="freepik--Mobile--inject-2"><g id="freepik--mobile--inject-2-2" data-name="freepik--mobile--inject-2"><path class="cls-3" d="M341.34,347.34l-100.8,58.19a10.8,10.8,0,0,1-10.51.19L27.1,288.55c-3.2-1.84-5.79-6-5.79-9.22s2.59-7.37,5.78-9.22l100.43-58a12.82,12.82,0,0,1,11.57,0L341.34,328.9c3.2,1.85,5.79,6,5.79,9.22S344.54,345.5,341.34,347.34Z"/><path class="cls-4" d="M127.52,212.13l-100.43,58c-3.19,1.85-5.79,6-5.78,9.22s2.59,7.38,5.78,9.22L230,405.72a11.18,11.18,0,0,0,5,1.25V267.54l-96-55.41A12.81,12.81,0,0,0,127.52,212.13Z"/><path class="cls-5" d="M240.54,405.53l100.8-58.19c3.2-1.84,5.79-6,5.79-9.22s-2.59-7.37-5.79-9.22L235.06,267.54V407A10.65,10.65,0,0,0,240.54,405.53Z"/><path class="cls-3" d="M238.15,395.13a11.33,11.33,0,0,1-10.21,0l-200.87-116c-4.32-2.5-4.32-6.58,0-9.07l100.44-57.93a12.84,12.84,0,0,1,11.58,0L341.33,328.9c3.19,1.84,3.19,4.85,0,6.68Z"/><path class="cls-6" d="M238.15,395.13a11.33,11.33,0,0,1-10.21,0l-200.87-116c-4.32-2.5-4.32-6.58,0-9.07l100.44-57.93a12.84,12.84,0,0,1,11.58,0L341.33,328.9c3.19,1.84,3.19,4.85,0,6.68Z"/><path class="cls-7" d="M228.39,383.48a12.12,12.12,0,0,1-11,0L44.55,283.69c-3-1.75-3-4.6,0-6.35L139,222.79a12.24,12.24,0,0,1,11,0l172.84,99.79c3,1.75,3,4.61,0,6.36Z"/><path class="cls-8" d="M144.2,221.5a11.22,11.22,0,0,0-5.17,1.29L44.55,277.34c-3,1.75-3,4.6,0,6.35L63.28,294.5l80.92-51.67Z"/><path class="cls-3" d="M150.1,226.92a12.24,12.24,0,0,0-11,0L44.61,281.47a5.48,5.48,0,0,0-1.43,1.15,5.45,5.45,0,0,0,1.37,1.07l172.84,99.79a12.12,12.12,0,0,0,11,0l94.49-54.54a5.79,5.79,0,0,0,1.42-1.14,5.53,5.53,0,0,0-1.36-1.09Z"/><path class="cls-9" d="M150.1,226.92a12.24,12.24,0,0,0-11,0L44.61,281.47a5.48,5.48,0,0,0-1.43,1.15,5.45,5.45,0,0,0,1.37,1.07l172.84,99.79a12.12,12.12,0,0,0,11,0l94.49-54.54a5.79,5.79,0,0,0,1.42-1.14,5.53,5.53,0,0,0-1.36-1.09Z"/><path class="cls-7" d="M79.08,251.83l16.75-9.7c1-.58,1-1.48.11-2a3.86,3.86,0,0,0-3.5.07l-16.73,9.67c-1,.57-1,1.48-.11,2A3.88,3.88,0,0,0,79.08,251.83Z"/><path class="cls-7" d="M107.84,235.25a1,1,0,1,0,0-2,3.75,3.75,0,0,0-3.39,0,1,1,0,1,0,0,2A3.75,3.75,0,0,0,107.84,235.25Z"/><path class="cls-7" d="M114.63,231.32a1,1,0,0,0,.75-1.2,1,1,0,0,0-.75-.75,3.71,3.71,0,0,0-3.4,0,1,1,0,0,0,0,1.95A3.71,3.71,0,0,0,114.63,231.32Z"/><path class="cls-7" d="M60.32,262.68a1,1,0,0,0,0-2,3.75,3.75,0,0,0-3.39,0,1,1,0,0,0,0,2A3.75,3.75,0,0,0,60.32,262.68Z"/><path class="cls-7" d="M67.11,258.76c.94-.55.94-1.42,0-2a3.75,3.75,0,0,0-3.39,0c-.94.54-.94,1.41,0,2A3.75,3.75,0,0,0,67.11,258.76Z"/><path class="cls-3" d="M90.71,318.67a3.86,3.86,0,0,1,1.81,3,1.14,1.14,0,0,1-.5,1.06c-.22.12-1,.61-1.27.73a1.29,1.29,0,0,1-1.3-.15L66,309.73a3.86,3.86,0,0,1-1.81-3,1.15,1.15,0,0,1,.45-1l1.31-.76a1.34,1.34,0,0,1,1.31.15Z"/><path class="cls-5" d="M90.71,318.67a3.86,3.86,0,0,1,1.81,3,1.14,1.14,0,0,1-.5,1.06c-.22.12-1,.61-1.27.73a1.29,1.29,0,0,1-1.3-.15L66,309.73a3.86,3.86,0,0,1-1.81-3,1.15,1.15,0,0,1,.45-1l1.31-.76a1.34,1.34,0,0,1,1.31.15Z"/><path class="cls-3" d="M89.49,319.4,66,305.81c-1-.58-1.81-.17-1.81.91a3.86,3.86,0,0,0,1.81,3L89.49,323.3c1,.58,1.81.17,1.81-.91A3.84,3.84,0,0,0,89.49,319.4Z"/><path class="cls-6" d="M89.49,319.4,66,305.81c-1-.58-1.81-.17-1.81.91a3.86,3.86,0,0,0,1.81,3L89.49,323.3c1,.58,1.81.17,1.81-.91A3.84,3.84,0,0,0,89.49,319.4Z"/><path class="cls-3" d="M59.25,300.48a3.87,3.87,0,0,1,1.81,3,1.12,1.12,0,0,1-.5,1.06l-1.27.74a1.35,1.35,0,0,1-1.3-.15l-11.1-6.41a3.86,3.86,0,0,1-1.81-3,1.18,1.18,0,0,1,.46-1c.23-.14,1.08-.64,1.31-.76a1.34,1.34,0,0,1,1.31.14Z"/><path class="cls-5" d="M59.25,300.48a3.87,3.87,0,0,1,1.81,3,1.12,1.12,0,0,1-.5,1.06l-1.27.74a1.35,1.35,0,0,1-1.3-.15l-11.1-6.41a3.86,3.86,0,0,1-1.81-3,1.18,1.18,0,0,1,.46-1c.23-.14,1.08-.64,1.31-.76a1.34,1.34,0,0,1,1.31.14Z"/><path class="cls-3" d="M58,301.21l-11.1-6.41c-1-.57-1.81-.16-1.81.92a3.86,3.86,0,0,0,1.81,3L58,305.13c1,.57,1.81.16,1.81-.92A3.86,3.86,0,0,0,58,301.21Z"/><path class="cls-6" d="M58,301.21l-11.1-6.41c-1-.57-1.81-.16-1.81.92a3.86,3.86,0,0,0,1.81,3L58,305.13c1,.57,1.81.16,1.81-.92A3.86,3.86,0,0,0,58,301.21Z"/></g></g><g id="freepik--Keyboard--inject-2"><path id="freepik--shadow--inject-2-4" data-name="freepik--shadow--inject-2" class="cls-10" d="M148.11,328.75l26.15,15.16a3.12,3.12,0,0,0,2.85,0l75.06-43.27a.87.87,0,0,0,.55-1.1.88.88,0,0,0-.55-.55L226,283.83a3.18,3.18,0,0,0-2.85,0l-75.06,43.3a.87.87,0,0,0,0,1.62Z"/><g id="freepik--keyboard--inject-2-2" data-name="freepik--keyboard--inject-2"><path class="cls-8" d="M249.11,296.76a1,1,0,0,0-.58-.81l-23.39-13.5a3.05,3.05,0,0,0-2.79,0L151,323.73a1,1,0,0,0-.58.81V327a1,1,0,0,0,.58.81l23.39,13.5a3.11,3.11,0,0,0,2.79,0l71.39-41.17a1,1,0,0,0,.58-.8Z"/><path class="cls-7" d="M174.35,338.78,151,325.34a.85.85,0,0,1,0-1.61l71.39-41.28a3.05,3.05,0,0,1,2.79,0L248.53,296a.85.85,0,0,1,.53,1.08.82.82,0,0,1-.53.53l-71.39,41.22A3.05,3.05,0,0,1,174.35,338.78Z"/><path class="cls-8" d="M175.65,339.13v2.51a2.82,2.82,0,0,1-1.31-.32L151,327.82a1,1,0,0,1-.58-.81v-2.48a1,1,0,0,0,.58.81l23.37,13.45A3,3,0,0,0,175.65,339.13Z"/><path class="cls-3" d="M223.57,284.58h0l2.32,1.33-3.14,1.82-2.4-1.35,3.14-1.81Zm3.63,2.09h0l2.31,1.34-2.46,1.42-2.34-1.3,2.47-1.43Zm-8,.44h.05l2.32,1.34-2.47,1.42-2.39-1.33,2.46-1.43Zm11.64,1.65h0l2.32,1.34-4,2.3-2.39-1.34,4-2.3Zm-7.34.05h0l2.32,1.34-2,1.13-2.39-1.34,2-1.13Zm-8,.45h.05l2.32,1.33L215.4,292,213,290.67l2.46-1.42Zm4.8,1.41h.06l2.31,1.33-2,1.13-2.39-1.34,2-1.13Zm14.18.19h0l2.31,1.33L233.71,294l-2.39-1.35,3.14-1.81Zm-22.69.54h0l2.31,1.34L196.28,303l-2.4-1.35,17.83-10.28Zm13.83.38h0l2.32,1.34-2,1.13-2.4-1.34,2-1.13Zm-8.52.74h0l2.32,1.33-2,1.13-2.4-1.34,2-1.13Zm21,.43h0l2.32,1.34-2,1.13-2.4-1.35,2-1.13Zm-8,.44h.05l2.31,1.34-2,1.13-2.39-1.35,2-1.13Zm-7.68.25h.05l2.32,1.33-2,1.13-2.4-1.34,2-1.13Zm-8.52.73h0l2.32,1.34-2,1.13-2.4-1.35,2-1.13Zm21,.43H235l2.31,1.34-2,1.13-2.39-1.35,2-1.13Zm-8,.44h0l2.32,1.34-2,1.13-2.4-1.35,2-1.13Zm-7.68.25h.06l2.31,1.33-2,1.13-2.39-1.34,2-1.13Zm23.3,0h0l2.32,1.33-2.47,1.43L240,296.9l2.46-1.42Zm-31.82.73h0l2.31,1.34-2,1.13-2.31-1.34,1.95-1.13Zm21,.43h0L234,298l-2,1.13-2.31-1.34,2-1.13Zm-8,.44h0l2.32,1.34-2,1.13-2.31-1.33,2-1.13Zm-7.67.25h.05l2.31,1.34-2,1.13L214,298.46l2-1.13Zm-8.52.73h0l2.31,1.34-2,1.13-2.39-1.35,2-1.13Zm29.91.37h0l2.32,1.33-2,1.14-2.4-1.35,2-1.13Zm-8.91.06h0l2.32,1.34-2,1.13-2.4-1.34,2-1.13Zm-8,.44h.06l2.31,1.34-2,1.13-2.43-1.28,2-1.13Zm-7.67.25h0l2.32,1.34-2,1.13-2.4-1.35,2-1.13Zm-8.52.73h.05l2.32,1.34-2,1.13-2.4-1.34,2-1.13Zm29.91.37h.06l2.31,1.34-2,1.13-2.39-1.35,1.95-1.13Zm-8.91.06h.05l2.32,1.34-2,1.13-2.4-1.34,2-1.13Zm-8,.45h0l2.32,1.33-2,1.13-2.4-1.34,2-1.13Zm-7.68.24h0l2.32,1.34-2,1.13-2.39-1.38,2-1.13Zm-8.52.74h0l2.32,1.33-2,1.13-2.39-1.34,2-1.13Zm29.92.36h0l2.31,1.34-2,1.13L229,303.26l2-1.13Zm-8.92.07h.06l2.31,1.33-2,1.13-2.39-1.34,2-1.13Zm-29.35.2h-.06l2.32,1.34-2.47,1.42-2.39-1.34,2.46-1.43Zm21.34.24h0l2.32,1.33-2,1.14-2.4-1.35,2-1.13Zm-7.67.24h.05l2.31,1.34-2,1.13L204.41,304l2-1.13Zm-8.52.74h0l2.31,1.33-2,1.13-2.39-1.34,2-1.13Zm29.91.36h0l2.32,1.34-2,1.13-2.49-1.33,2-1.13Zm-8.91.07h0l2.32,1.33-2,1.14-2.39-1.35,2-1.13Zm-8,.44H211l2.31,1.34-2,1.13-2.39-1.35,2-1.13Zm-21.84.06h0l2.32,1.33L189,307.32,186.59,306l2.46-1.42Zm14.17.18h0l2.26,1.39-2,1.13-2.4-1.34,2-1.13Zm-8.52.74h0l2.32,1.34L195,308l-2.4-1.35,2-1.13Zm21,.43h0l2.32,1.34-2,1.13-2.4-1.35,2-1.13Zm-8,.44h0l2.32,1.34-2,1.13-2.39-1.35,2-1.13Zm-7.68.25h0l2.32,1.33-2,1.13-2.4-1.34,2-1.13Zm23.21,0h0l2.31,1.34-2,1.13-2.39-1.35,2-1.13Zm-37.88,0h0l2.31,1.34-2.46,1.42-2.4-1.35,2.47-1.42Zm6.15.63h.05l2.32,1.34-2,1.13-2.39-1.35,2-1.13Zm21,.43h.06l2.31,1.34-2,1.13-2.39-1.35,2-1.13Zm-8,.44h.05l2.32,1.34-2,1.13-2.4-1.35,2-1.13Zm-7.68.25h.06l2.31,1.34-2,1.13-2.51-1.29,2-1.13Zm23.21.05h.05l2.32,1.34-2,1.13-2.4-1.35,2-1.13Zm-38.39.34h0l2.32,1.34-3.14,1.81-2.4-1.34,3.14-1.81Zm6.66.34h.06l2.31,1.34-6.31,3.66L182,312.78l6.18-3.57Zm21,.43h0l2.31,1.34-2,1.13-2.39-1.35,2-1.12Zm-8,.44h.06l2.31,1.34-2,1.13-2.39-1.34,1.95-1.13Zm-7.67.25h.05l2.32,1.34-2,1.13-2.4-1.35,2-1.13Zm23.2.05h0l2.32,1.34-2,1.13-2.52-1.28,1.95-1.13Zm-10.72,1.11h.05l2.32,1.34-2,1.13-2.4-1.34,2-1.13Zm-29.52.31h0l2.32,1.33-2,1.13-2.4-1.34,2-1.13Zm21.51.14h.05l2.31,1.33-2,1.13L196.1,313l2-1.13Zm-7.68.24h.05l2.32,1.34-1.79,1a.38.38,0,0,0-.2.33.38.38,0,0,0,.21.34l3,1.75-2.3,1.33-6-3.44,4.66-2.69Zm23.21,0h.05l2.31,1.34-2,1.13-2.39-1.34,2-1.13Zm-10.73,1.12h0l2.32,1.33-2,1.13-2.39-1.34,2-1.13Zm-29.52.3h.05l2.32,1.33-2.07,1.23-2.39-1.35,2-1.13Zm21.51.14H195l2.32,1.33-2,1.13-2.4-1.34,2-1.13Zm14.13,1.1h.06l2.31,1.34-2,1.13L207,315.93,209,314.8Zm-9.32.31h.05l2.31,1.33-2,1.14-2.39-1.35,2-1.13Zm-29.53.3h.06l2.31,1.34-2,1.13-2.39-1.35,2-1.13Zm6.84.24h.05L179.4,317l-2,1.13L175,316.78l2-1.13Zm28.81,1h.05l2.31,1.34-2,1.13-2.5-1.28,2-1.13Zm-9.33.31h0l2.32,1.33-3.48,2L193,319l3.48-2Zm-30.2.69h.05l2.32,1.34-5.17,3-2.39-1.35,5.16-3Zm21.17.33h.06l2.31,1.34-2,1.13-2.39-1.34,2-1.13Zm15.15.53h.05l2.32,1.34L203,321l-2.4-1.34,2-1.13ZM170,319.75H170l2.31,1.34-2,1.13-2.39-1.34,2-1.13Zm14.34.1h.05l2.31,1.33-2,1.13L182.26,321l2-1.13Zm6.83.24h0l2.32,1.33-2,1.14-2.4-1.35,2-1.13Zm8.31.28h0l2.32,1.33-2,1.13-2.39-1.34,2-1.13Zm-39.52,1H160l2.32,1.34-2,1.13-2.4-1.34,2-1.13Zm6.83.25h0l2.32,1.33-2,1.13-2.4-1.34,2-1.13Zm14.34.09h0l2.18,1.42-2,1.14-2.4-1.35,2-1.13Zm-7.51.15h.05l2.32,1.33-2,1.13L171.55,323l1.95-1.13Zm14.34.09H188l2.32,1.34-2,1.13-2.4-1.35,2-1.13Zm7.61.69h0l2.31,1.33-2,1.14-2.39-1.35,2-1.13Zm-38.82.59h.05l5.94,3.42-2,1.14-6-3.44,2-1.13Zm6.83.24h.06l2.31,1.33-2,1.14-2.39-1.35,2-1.13Zm6.83.24h.06l2.31,1.33-2,1.14-2.39-1.35,2-1.13Zm14.34.09h.06l2.31,1.34-2,1.13-2.39-1.35,1.95-1.13Zm-7.5.15h.05l2.31,1.34-2,1.13-2.49-1.29,2-1.13Zm15.11.54h0l2.32,1.34-2,1.13-2.4-1.35,2-1.13Zm-25.15,1.07h.05l2.32,1.34-2,1.13-2.4-1.35,2-1.13Zm6.83.24h0l2.32,1.34-2,1.13-2.4-1.35,2-1.13Zm6.72.33h0l2.32,1.34-2,1.13-2.4-1.35,2-1.13Zm8.28.3h0l2.32,1.34-2,1.13L187,327.55l1.95-1.13Zm-25.15,1.07h0l5.94,3.43-2,1.13-6-3.44,2-1.13Zm6.83.24h0l2.32,1.34-2,1.13-2.28-1.39,2-1.12Zm6.83.24h.05l2.32,1.34-2,1.13-2.39-1.34,2-1.13Zm8.51,1.15h0l1,.57-2,1.13-1.08-.58,2-1.13Zm-11.74.62h0l2.31,1.34-2,1.13-2.39-1.34,2-1.13ZM182.8,331h.06l1,.57-2,1.13-1.07-.58,1.94-1.13Zm-11.74.63h.05l2.32,1.33-2,1.13-2.4-1.34,2-1.13Zm8.54,1.22h.05l1,.57-2,1.13-1.07-.58,2-1.12Zm-3.21,1.85h0l1,.57-2,1.13-1.08-.58,2-1.12Z"/></g></g><g id="freepik--Character--inject-2"><path id="freepik--shadow--inject-2-5" data-name="freepik--shadow--inject-2" class="cls-11" d="M89.71,300.41c1.08,2.73,3.41,4.15,6.86,5.69,10.1,4.55,34.31,10,47.9,12.42,7.91,1.41,16,4,24.08,4.35,7.23.29,14.73-1,20.73-5.08a4.47,4.47,0,0,0,1.94-2.11,3.4,3.4,0,0,0-1.69-3.75,10.24,10.24,0,0,0-4.27-1.13,174.21,174.21,0,0,1-46.81-12.41c6.71-.71,13.53-1.44,19.77-4s12-7.23,14.16-13.61c.44-1.28.8-2.7,1.86-3.55a4.3,4.3,0,0,1,4.08-.38c4.39,1.57,6.13,6.71,7.43,11.19s3.46,9.59,8,10.62c-1.65-1-1-3.86.74-4.55s3.87.39,4.93,2,1.33,3.44,2.21,5.07,2.77,3,4.48,2.33a4.21,4.21,0,0,0,2-2.14c2.42-4.73,2-10.56-.14-15.43s-5.73-8.95-9.57-12.62c-5.35-5.11-11.37-9.7-18.3-12.3-14.5-5.45-30.81-1.48-45.18,4.32a187.37,187.37,0,0,0-31.09,16.05,52.5,52.5,0,0,0-10.24,8c-2.19,2.34-4.49,5.66-4.26,9A6.63,6.63,0,0,0,89.71,300.41Z"/><g id="freepik--character--inject-2-2" data-name="freepik--character--inject-2"><g id="freepik--Arm--inject-2"><path class="cls-12" d="M212.61,284.84c-2.12-3.28-5.92-10-7.11-11.38-3.25-3.7-9.95-9.55-9.95-9.55-6.32-5.15-25.73-22.29-25.73-22.29s-3-38-6.36-44.08c-3.88-7.08-11.26-7.37-18.9-7.83a149,149,0,0,0-2.78,15s6.87,42.62,7.69,46.58,2.83,5.7,6.92,8.33c6.25,4,28.86,16.15,28.86,16.15l1.11.77a4.44,4.44,0,0,1,1.64,2.18,13.15,13.15,0,0,1,.59,2.7c.36,3.15,0,4,.27,7.44s1,3.33,2.35,6.28c1.21,2.73,1.57,4.44,2.57,4.54s2.28-2.12,2.28-4.37-1.37-4.73-1.42-5.68.45-2.13,2.59-.87,4.14,5.09,5.73,7.74,2.44,6.15,4,8.06,2.21-.21,3-2,4.35-4.71,5.3-7.57S214.71,288.13,212.61,284.84Z"/><path class="cls-7" d="M144.56,189.47c5.26,0,9.53-.58,14.16,2.24s5.88,6.68,6.93,12.68c.95,5.46,2.88,24.26,2.88,24.26s-13.36,7.37-25,2.67Z"/></g><path class="cls-8" d="M155.62,163.69a29.68,29.68,0,0,1,6.34,2.94,5.58,5.58,0,0,1,1.93,7.58l-2.41-.48s1.24-2.83-.21-4.34-5.69-2.82-5.69-2.82Z"/><path class="cls-3" d="M162.89,172.64c-2-.95-2.9.27-4.28,3.59s-.43,4.23,1.25,4.89,3-.45,4-3.2C165,174.83,165,173.67,162.89,172.64Z"/><path class="cls-11" d="M163.05,172.67c-2-.95-2.9.27-4.28,3.59s-.43,4.23,1.25,4.89,3-.45,4-3.2C165.19,174.86,165.16,173.7,163.05,172.67Z"/><path id="freepik--Chest--inject-2" class="cls-13" d="M122.86,191.89c-11,2.47-22.82,6-31.68,9.85,0,0-.71,37.91,5.43,56s4.37,38.7,4.37,38.7c30,4.85,66.39-9.09,65.49-24.21a67.38,67.38,0,0,0-5.06-9.1s-.75-12.15-.42-17.56c22-20.59-8.55-47-16.43-56.06C139.76,190.13,132.71,189.68,122.86,191.89Z"/><path class="cls-7" d="M121.05,136.18c-1.42,2.55-.83,5.56-.25,8.26.45,2.06,1.68,4.61,1.16,6.7a13.58,13.58,0,0,1-5,7.18,14.68,14.68,0,0,1-1.89,1.34c-.57.31-1.23.45-1.81.77a8.09,8.09,0,0,0-3,3,22.29,22.29,0,0,0-2.14,5.68,20.05,20.05,0,0,1-2.25,5.63,11.63,11.63,0,0,1-10.34,4.89,13.91,13.91,0,0,1-6.23-2,15.76,15.76,0,0,1-2.67-2,6.76,6.76,0,0,1-1.76-2.34,11.28,11.28,0,0,0,1.88,7.57A13.26,13.26,0,0,1,71.35,166c.36-2.56,1.45-5,2-7.49,1.52-6.8-4.58-10.52-5.58-16.72a9.61,9.61,0,0,1,4.9-9.8c2.09-1.1,4.84-1.65,5.71-3.84.67-1.68-.15-3.55-.12-5.36,0-3.58,3.38-6.31,6.78-7.39s7.09-1.07,10.52-2.09c3.66-1.08,7-3.31,10.72-4a13.84,13.84,0,0,1,12.2,4.16c1.41,1.5,2.18,3.25,3.43,4.8s3.16,2.35,4.08,4.17a8.4,8.4,0,0,1,.26,7.74C125,132.56,122.35,133.87,121.05,136.18Z"/><path class="cls-13" d="M154.88,144.26c-.42-11.9-7.33-28.88-32.9-26.71C97.06,119.67,89.73,141.9,92,154c3.17,16.66,15.29,17.73,18.44,28.62Z"/><path class="cls-12" d="M99.15,153.36a6,6,0,0,1,6.26-2.08,6.19,6.19,0,0,1,3.08,2c1.15,1.27,1.13,3,1.94,4.45a3.29,3.29,0,0,0,2.44,1.77c3.43.31,2.15-5.26,2.34-7.24,6.48-2.3,6.3-4.7,7.18-10.42,4.54-4.9,12.42-5.62,19.24-.93,4.16-8,8.67-7,10.62-4.53a32.12,32.12,0,0,1,2.91,9.31,61.9,61.9,0,0,1,1.09,14.69c-.84,19.11-7.14,23.7-10.28,25s-7,.36-12.77-.73v11.48c6,11.45,10.79,28.78,10.56,40.1-9.23-17.48-23.68-26.83-30.51-33.18a26.06,26.06,0,0,1-4.13-4.76V168.13s-2.52,2.69-6.52-.49C97.25,163.36,95.61,157.36,99.15,153.36Z"/><path class="cls-14" d="M133.2,184.67c-5-1.3-10.35-3.19-14-6a17.23,17.23,0,0,1-5.42-7.61s.43,7.37,4.14,10.69,15.32,7.15,15.32,7.15Z"/><path class="cls-8" d="M134,158a2.65,2.65,0,1,1-3-2.37,2.71,2.71,0,0,1,3,2.36Z"/><path class="cls-8" d="M152.76,155.7a2.43,2.43,0,0,1-2,2.79,2.3,2.3,0,0,1-2.68-1.84,2.91,2.91,0,0,1,0-.31,2.4,2.4,0,0,1,4.76-.64Z"/><polygon class="cls-14" points="139.53 152.39 141.41 168.31 149.59 165.19 139.53 152.39"/><path class="cls-8" d="M132.56,150l-6,2.74a3.43,3.43,0,0,1,1.67-4.47,3.22,3.22,0,0,1,4.27,1.59Z"/><path class="cls-15" d="M130.63,170.31l8.61,2.92a4.78,4.78,0,0,1-5.94,2.9,4.43,4.43,0,0,1-2.73-5.65Z"/><path class="cls-14" d="M130.84,172.32a4.47,4.47,0,0,1,4.22,4,4.38,4.38,0,0,1-1.76-.22,4.33,4.33,0,0,1-2.9-3.74A3.27,3.27,0,0,1,130.84,172.32Z"/><path class="cls-8" d="M153.53,150.69,147.47,148a3.17,3.17,0,0,1,4.09-1.84l.17.07A3.48,3.48,0,0,1,153.53,150.69Z"/><path class="cls-8" d="M133.2,188.34c3.86,1.12,15.14,16.38,18.8,21.88l-4.14,10.56a48.49,48.49,0,0,1,6.53,8.43L146,253.76s.76-32.71-12.76-57.6Z"/><path class="cls-7" d="M144.84,235c3,7.79,3.42,25.85,3.42,25.85s-3-16.85-17.17-22.75c0-.81.15-12.35.15-12.35s-19-4.82-23-6.63l-4.09-22s2.73-6.82,5-7v4.75a220.13,220.13,0,0,1,17.93,15.78C137.44,220.68,141.86,227.25,144.84,235Z"/><path class="cls-12" d="M194,312.7c-3.06-2.57-7.49-6.13-11-7a19.42,19.42,0,0,0-2.49-.55,26.69,26.69,0,0,0,3.49-1,6.31,6.31,0,0,0,2.84-2.24c.26-.41.42-1,0-1.32a.84.84,0,0,0-.51-.14c-2.59.13-4.66-.1-7-.08a10.21,10.21,0,0,0-3.16.32c-.94.35-1.88.71-2.8,1.11-4.17,1.84-8,3.5-14.16,2.59l-2.58-.68-43.38-22.35L105,236.56S103,208.78,91.73,202c-6,2.28-12.57,7.92-14.35,14-2.1,7.23-1.28,17.5,2.3,33.43,3,13.33,6.13,27,9.52,37.15s4.69,13.74,11.35,15.73c11.17,3.34,51.47,14.39,51.47,14.39a25.59,25.59,0,0,0,2.52.83c1.39.39,2.69,1.35,6,2.07,3.93.86,8.71-.93,12-1.39s9.07.62,12.26,1.62,6.5-4.06,8.09-3.61S197,315.28,194,312.7Z"/><path class="cls-14" d="M178.85,303.45a11.72,11.72,0,0,0-4.65,1.15,25.59,25.59,0,0,1,6.23.56,26.69,26.69,0,0,0,3.49-1,6.74,6.74,0,0,0,2.59-1.89C184.71,303.69,181.11,303.49,178.85,303.45Z"/><path class="cls-7" d="M91.18,201.74c-7.77,3.32-12.92,7.38-15,15.93s-.61,16.06,1.14,25.11,5.85,23.76,5.85,23.76,16.63,1,26.22-5.65l-5.25-34.12s-2.77-20.26-12.43-24.72"/><path class="cls-3" d="M104.55,121.52c-5.84,5.41-11.44,13.08-7.29,30.83a9.63,9.63,0,0,0-2.41,10c1.6,5.48,6.86,9.09,11.75,8s7.54-6.31,5.94-11.8c-1.21-4.1-5.61-8.07-9.23-7.81,0,0-3.47-7.59-.22-18.35,4.44-14.66,21.53-15.88,29-14.69C129.62,114.13,112.27,114.37,104.55,121.52Z"/><path class="cls-5" d="M104.55,121.52c-5.84,5.41-11.44,13.08-7.29,30.83a9.63,9.63,0,0,0-2.41,10c1.6,5.48,6.86,9.09,11.75,8s7.54-6.31,5.94-11.8c-1.21-4.1-5.61-8.07-9.23-7.81,0,0-3.47-7.59-.22-18.35,4.44-14.66,21.53-15.88,29-14.69C129.62,114.13,112.27,114.37,104.55,121.52Z"/><path class="cls-3" d="M113.58,158.36c-1.78-6.08-7.61-10.07-13-8.93a8.24,8.24,0,0,0-2.35.88c-.61.34-2.45,1.6-2.81,1.84-3.46,2.29-5,7-3.63,11.84,1.78,6.08,7.61,10.07,13,8.93a8.44,8.44,0,0,0,2.8-1.14c.44-.28,2.16-1.43,2.58-1.73C113.48,167.72,115,163.13,113.58,158.36Z"/><path class="cls-6" d="M113.58,158.36c-1.78-6.08-7.61-10.07-13-8.93a8.24,8.24,0,0,0-2.35.88c-.61.34-2.45,1.6-2.81,1.84-3.46,2.29-5,7-3.63,11.84,1.78,6.08,7.61,10.07,13,8.93a8.44,8.44,0,0,0,2.8-1.14c.44-.28,2.16-1.43,2.58-1.73C113.48,167.72,115,163.13,113.58,158.36Z"/><path class="cls-3" d="M111.37,159.84c-1.78-6.07-7.61-10.07-13-8.92s-8.36,7-6.58,13.07,7.61,10.07,13,8.93S113.15,165.92,111.37,159.84Z"/><path class="cls-11" d="M111.37,159.84c-1.78-6.07-7.61-10.07-13-8.92s-8.36,7-6.58,13.07,7.61,10.07,13,8.93S113.15,165.92,111.37,159.84Z"/><path class="cls-7" d="M106.2,160.94c-.84-2.87-3.6-4.75-6.15-4.21s-4,3.3-3.11,6.17,3.6,4.75,6.15,4.21S107,163.8,106.2,160.94Z"/></g></g><g id="freepik--Monitor--inject-2"><path id="freepik--shadow--inject-2-6" data-name="freepik--shadow--inject-2" class="cls-11" d="M225.46,376l-20.22-11.84a1,1,0,0,1,0-2l79.29-45.78a3.69,3.69,0,0,1,3.36,0l20.2,11.75a1,1,0,0,1,0,1.94L228.81,376A3.67,3.67,0,0,1,225.46,376Z"/><g id="freepik--monitor--inject-2-2" data-name="freepik--monitor--inject-2"><path class="cls-8" d="M299.25,309.27l5.31-63a5.38,5.38,0,0,0-2.36-4.72,6,6,0,0,0-5.4.1l-79.2,45.73a6.91,6.91,0,0,0-3.06,4.82l-5.3,63a5.34,5.34,0,0,0,2.35,4.72,6,6,0,0,0,5.41-.1l79.2-45.69A6.86,6.86,0,0,0,299.25,309.27Z"/><path class="cls-7" d="M304.55,246.26l-5.3,63,3.85-62.54c.14-1.77-.5-2.44-2-1.56l-78.23,45.21a6.32,6.32,0,0,0-2,2.05l-5.23-3a6.16,6.16,0,0,1,2-2l79.19-45.73a6,6,0,0,1,5.42-.1A5.37,5.37,0,0,1,304.55,246.26Z"/><path class="cls-13" d="M214.47,358.22l5.31-63a6.87,6.87,0,0,1,3.05-4.82l78.23-45.27c1.54-.89,2.18-.21,2,1.56l-3.85,62.54a6.87,6.87,0,0,1-3,4.83L217,359.78C215.46,360.71,214.33,360,214.47,358.22Z"/><polygon class="cls-8" points="253.38 320.14 252.77 339.12 274.77 326.47 269.41 310.93 253.38 320.14"/><polygon class="cls-13" points="256.59 322.23 271.95 313.31 269.33 311.8 253.98 320.73 256.59 322.23"/><path class="cls-7" d="M280.35,340,272,313.31l-15.36,8.93-2.6-1.52,1.72,20.52.43,5.9.25,1.26-1.12-.64-5-2.86a.83.83,0,0,0-.75-.1h0a.77.77,0,0,0-.35.73V346a2.4,2.4,0,0,0,1.08,1.9h0l8.22,4.75h0a2.32,2.32,0,0,0,1,.26,2.26,2.26,0,0,0,1.19-.27l18.71-10.8A1.92,1.92,0,0,0,280.35,340Zm-11.81-2.28a3.24,3.24,0,0,1-5-2,6.19,6.19,0,0,1,2.75-6.54,3.21,3.21,0,0,1,4.47.77,3.29,3.29,0,0,1,.53,1.23,6.18,6.18,0,0,1-2.75,6.54Z"/><polygon points="249.54 344.81 255.92 341.13 257.21 349.71 249.54 344.81"/><path class="cls-8" d="M256.59,322.24,254,320.73l2.16,26.4c.14.7-.26,1-.86.62l-5-2.86c-.61-.36-1.1-.06-1.1.64V346a2.41,2.41,0,0,0,1.06,1.91h0l8.24,4.75h0a2.32,2.32,0,0,0,1,.26Z"/><path class="cls-8" d="M268.54,337.68a3.21,3.21,0,0,1-4.18-.45,3.6,3.6,0,0,0,2.33-.54,6.17,6.17,0,0,0,2.75-6.53,3.86,3.86,0,0,0-.83-1.59,3.26,3.26,0,0,1,2.67,2.57A6.18,6.18,0,0,1,268.54,337.68Z"/><path class="cls-3" d="M255.38,297.58l-1,12.15c-.07.8.37,1.17,1,.82a2.88,2.88,0,0,0,1.22-2.07l1-12.14c.07-.81-.37-1.17-1-.83A2.93,2.93,0,0,0,255.38,297.58Z"/><path class="cls-3" d="M259.32,295.31l-1,12.14c-.07.8.37,1.17,1,.83a2.9,2.9,0,0,0,1.22-2.08l1-12.14c.07-.8-.37-1.17-1-.82A2.9,2.9,0,0,0,259.32,295.31Z"/><path class="cls-3" d="M263.26,293l-1,12.15c-.07.8.37,1.17,1,.82a2.88,2.88,0,0,0,1.22-2.07l1-12.14c.07-.81-.37-1.17-1-.83A2.93,2.93,0,0,0,263.26,293Z"/><path class="cls-3" d="M267.2,290.76l-1,12.14c-.06.8.37,1.17,1,.83a2.9,2.9,0,0,0,1.22-2.08l1-12.14c.07-.8-.37-1.17-1-.82A2.9,2.9,0,0,0,267.2,290.76Z"/></g></g></g><g id="freepik--Plant--inject-2"><g id="freepik--Pot--inject-2"><g id="freepik--pot--inject-2-2" data-name="freepik--pot--inject-2"><path class="cls-3" d="M213.46,171.2c-6.4-6.61-10.17-33.51-3.92-38.76h31.79c6.25,5.24,2.49,32.14-3.91,38.75l-.18.18-.22.22a7.17,7.17,0,0,1-.58.52l-.15.12c-.16.13-.31.25-.48.37s-.54.37-.83.54c-5.27,3.07-13.81,3.07-19.08,0h0c-.29-.16-.56-.35-.84-.54a4.25,4.25,0,0,1-.45-.35,2,2,0,0,1-.19-.15l-.56-.5-.25-.25Z"/><path class="cls-6" d="M213.46,171.2c-6.4-6.61-10.17-33.51-3.92-38.76h31.79c6.25,5.24,2.49,32.14-3.91,38.75l-.18.18-.22.22a7.17,7.17,0,0,1-.58.52l-.15.12c-.16.13-.31.25-.48.37s-.54.37-.83.54c-5.27,3.07-13.81,3.07-19.08,0h0c-.29-.16-.56-.35-.84-.54a4.25,4.25,0,0,1-.45-.35,2,2,0,0,1-.19-.15l-.56-.5-.25-.25Z"/><path class="cls-3" d="M238.57,130.33c7.25,4.24,7.25,11.1,0,15.34s-19,4.23-26.27,0-7.25-11.1,0-15.34S231.32,126.13,238.57,130.33Z"/><path class="cls-11" d="M238.57,130.33c7.25,4.24,7.25,11.1,0,15.34s-19,4.23-26.27,0-7.25-11.1,0-15.34S231.32,126.13,238.57,130.33Z"/><path class="cls-13" d="M235.08,132.37c5.33,3.11,5.33,8.15,0,11.26s-14,3.11-19.29,0-5.33-8.15,0-11.26S229.76,129.26,235.08,132.37Z"/><path class="cls-1" d="M215.79,137.71c5.33-3.11,14-3.11,19.29,0a8.91,8.91,0,0,1,3.19,3,8.75,8.75,0,0,1-3.19,3c-5.32,3.11-14,3.11-19.29,0a8.91,8.91,0,0,1-3.19-3A9,9,0,0,1,215.79,137.71Z"/></g><g id="freepik--Plants--inject-2"><path class="cls-3" d="M243.06,85.52l-12.71,8.69,12-4.55A21.87,21.87,0,0,1,240,98.9s-7.94,3.85-12.25,7.91l10.57-3.32a51.46,51.46,0,0,1-1.71,11.64c-.91,3.36-4,9.61-5.9,12.84a39.08,39.08,0,0,1-2.91,4.3c-.06.09-.13.17-.2.26-2-1.31-4-2.6-6.12-3.85-1.23-3.12-2.57-10.7-2.82-16.85-.92-23.55,17.69-35.69,32.21-39.18A42.44,42.44,0,0,0,243.06,85.52Z"/><path class="cls-16" d="M243.06,85.52l-12.71,8.69,12-4.55A21.87,21.87,0,0,1,240,98.9s-7.94,3.85-12.25,7.91l10.57-3.32a51.46,51.46,0,0,1-1.71,11.64c-.91,3.36-4,9.61-5.9,12.84a39.08,39.08,0,0,1-2.91,4.3c-.06.09-.13.17-.2.26-2-1.31-4-2.6-6.12-3.85-1.23-3.12-2.57-10.7-2.82-16.85-.92-23.55,17.69-35.69,32.21-39.18A42.44,42.44,0,0,0,243.06,85.52Z"/><path class="cls-17" d="M232.92,85.78a17.64,17.64,0,0,0-3.3,4,35.3,35.3,0,0,0-2.33,4.64,47.75,47.75,0,0,0-2.85,10,44,44,0,0,0,1.12,20.47h0a.33.33,0,0,1-.29.38.34.34,0,0,1-.35-.18h0a44.45,44.45,0,0,1-.8-20.73,48,48,0,0,1,3-10,33.79,33.79,0,0,1,2.41-4.62A17.83,17.83,0,0,1,232.92,85.78Z"/><path class="cls-3" d="M186.71,92.49h0a180.65,180.65,0,0,1,12.06,18.1L211,112.94l-9.07,1.3,4.61,7.82,12,2.87L209,126.17s2.33,9.26,8.94,13.29c3.65,2.23,5.46,2.61,6.61,1.58.8-.72,1.12-5.12,1.89-9s1-10.29-2.45-18.12a23.82,23.82,0,0,0-3.68-5.78C211.76,97.93,195.07,92.63,186.71,92.49Z"/><path class="cls-18" d="M186.71,92.49h0a180.65,180.65,0,0,1,12.06,18.1L211,112.94l-9.07,1.3,4.61,7.82,12,2.87L209,126.17s2.33,9.26,8.94,13.29c3.65,2.23,5.46,2.61,6.61,1.58.8-.72,1.12-5.12,1.89-9s1-10.29-2.45-18.12a23.82,23.82,0,0,0-3.68-5.78C211.76,97.93,195.07,92.63,186.71,92.49Z"/><path class="cls-11" d="M221.47,117.92h0a36.63,36.63,0,0,1,2.5,10.2h0a109,109,0,0,1-.06,13.28,2.05,2.05,0,0,0,.69-.39c.8-.72,1.12-5.12,1.89-9s1-10.29-2.45-18.12a23.82,23.82,0,0,0-3.68-5.78c-8.61-10.2-25.3-15.5-33.63-15.64,12.72,2.49,26.2,11.41,32.68,21.51A25.45,25.45,0,0,1,221.47,117.92Z"/><path class="cls-17" d="M199.43,96.89a49.87,49.87,0,0,1,16.66,12.29,33.19,33.19,0,0,1,5.57,8.83A31.51,31.51,0,0,1,224,128.13h0a40.2,40.2,0,0,0-2.91-9.88,38.17,38.17,0,0,0-5.35-8.76,44.19,44.19,0,0,0-7.49-7.1,58.63,58.63,0,0,0-8.79-5.47h0S199.41,96.89,199.43,96.89Z"/><path class="cls-3" d="M262.71,101.18h0a26.37,26.37,0,0,0-3.08,0,49.31,49.31,0,0,0-11.92,2.18c-1.44.45-2.88,1-4.3,1.55-.72.29-1.42.6-2.12.93a34.35,34.35,0,0,0-9.4,6.32,21.44,21.44,0,0,0-3.34,4.19l-.37.59h0c-.29.52-.55,1-.81,1.54a29.49,29.49,0,0,0-3.45,14.34c-.07,3.52.9,7.59,1.55,8.29a1.68,1.68,0,0,0,.29.24c1,.7,2.58.41,5.64-1.09,6.15-3,9-11.31,9-11.31l-8.2-1.87L243,125.55l4.69-6.5-7.93-1.92,10.86-1a161.65,161.65,0,0,1,12.08-14.92Z"/><path class="cls-11" d="M259.59,101.13a49,49,0,0,0-11.88,2.23c-1.44.45-2.88,1-4.3,1.55-.72.29-1.42.6-2.12.93a34.35,34.35,0,0,0-9.4,6.32,21.44,21.44,0,0,0-3.34,4.19l-.37.59h0c-.29.52-.55,1-.81,1.54a29.49,29.49,0,0,0-3.45,14.34c-.07,3.52.9,7.59,1.55,8.29a1.94,1.94,0,0,0,.93.52c-.43-5.48,3-19.13,7.37-24.58,4.55-5.67,15-13.67,28.93-15.87h0A24.8,24.8,0,0,0,259.59,101.13Z"/><path class="cls-17" d="M226.32,141.64a46.66,46.66,0,0,1,1.45-12,38.87,38.87,0,0,1,4.62-11.19,27.36,27.36,0,0,1,3.91-4.68,37.78,37.78,0,0,1,4.67-3.89,44.93,44.93,0,0,1,10.74-5.63h0a59.44,59.44,0,0,0-10.33,6.13,49.52,49.52,0,0,0-4.61,3.83,26.59,26.59,0,0,0-3.92,4.49,38.8,38.8,0,0,0-4.75,11,46.53,46.53,0,0,0-1.7,11.9h0Z"/></g></g></g><g id="freepik--character-1--inject-2"><g id="freepik--character-on-the-couch--inject-2"><g id="freepik--Couch--inject-2"><path class="cls-17" d="M320,225.43h10.15l-1.63,9.9h0a1.85,1.85,0,0,1-1,1.23,5.44,5.44,0,0,1-4.91,0,1.85,1.85,0,0,1-1-1.23h0Z"/><path class="cls-17" d="M375.71,195.57h10.15l-1.62,9.9h0a1.86,1.86,0,0,1-1,1.22,5.44,5.44,0,0,1-4.91,0,1.83,1.83,0,0,1-1-1.22h0Z"/><path class="cls-17" d="M244.79,183.32h10.15l-1.62,9.9h0a1.81,1.81,0,0,1-1,1.22,5.38,5.38,0,0,1-4.91,0,1.81,1.81,0,0,1-1-1.22h0Z"/><path class="cls-17" d="M296.42,153.29h10.15l-1.62,9.9h0a1.81,1.81,0,0,1-1,1.22,5.44,5.44,0,0,1-4.91,0,1.81,1.81,0,0,1-1-1.22h0Z"/><path class="cls-7" d="M236.71,131.29v47.28a10.93,10.93,0,0,0,4.9,8.56l4,2.32h.07a11.15,11.15,0,0,0,6.15,1.05l60.25,31.88a11,11,0,0,0,4.86,8.18H317l4,2.3a1.9,1.9,0,0,0,.37.2l.21.1h.06a11.13,11.13,0,0,0,7.63.35,8.82,8.82,0,0,0,.86-.31l.13-.06a6.36,6.36,0,0,0,.58-.3l58-33.38a10.93,10.93,0,0,0,4.92-8.52l.08-59.85V108.38a11,11,0,0,0-4.92-8.53L324.07,62.49a10.17,10.17,0,0,0-9.5.16l-4,2.31a13.09,13.09,0,0,0-5.67,8.48L301,98.77l-3.57-2.06a10.68,10.68,0,0,0-10.71,0l-45.15,26.06A10.93,10.93,0,0,0,236.71,131.29Z"/><path class="cls-13" d="M310.56,65l4-2.31a10.17,10.17,0,0,1,9.5-.16l64.83,37.36c.29.17.6.39.51.32a11.24,11.24,0,0,1,4.36,7.38c-.36-2.52-2.41-3.43-4.86-2l-4,2.32a10.87,10.87,0,0,1-9.84,0l-64.49-37.2C307.84,69.13,307.84,66.53,310.56,65Z"/><path class="cls-8" d="M236.71,131.29v47.28a10.93,10.93,0,0,0,4.9,8.56l4,2.32h.07a10.56,10.56,0,0,0,5.77,1.09,9.68,9.68,0,0,0,4-1.13L301,163.13A10.92,10.92,0,0,0,306,154.6V107.3A10.92,10.92,0,0,0,301,98.77l-3.57-2.06a10.68,10.68,0,0,0-10.71,0l-45.14,26.06A10.93,10.93,0,0,0,236.71,131.29Z"/><path class="cls-13" d="M297.45,96.71,301,98.77c2.71,1.56,2.71,4.12,0,5.68l-45.56,26.31a10.91,10.91,0,0,0-4.93,8.53v47.27c0,3.13-2.22,4.41-4.93,2.85l-4-2.32a10.93,10.93,0,0,1-4.92-8.52V131.29a11,11,0,0,1,4.92-8.53l45.14-26A10.68,10.68,0,0,1,297.45,96.71Z"/><path class="cls-7" d="M250.54,139.29v47.27c0,3.13-2.22,4.41-4.93,2.85l-4-2.32a10.93,10.93,0,0,1-4.92-8.52V131.29a10,10,0,0,1,1.45-4.85l13.85,8A10,10,0,0,0,250.54,139.29Z"/><path class="cls-8" d="M252.59,190.54a11.67,11.67,0,0,0,1.8,2.7,20.62,20.62,0,0,0,4.63,3.24c17.31,10,29.8,17.18,47.11,27.18a5.46,5.46,0,0,0,4.92,0l16-9.25,32-18.48a9.25,9.25,0,0,0,0-16.35l-18.14-10.45-13.85-8L312,152.47a10.89,10.89,0,0,0-9.85,0l-45.55,26.28a10.56,10.56,0,0,0-4.93,8.17A8.76,8.76,0,0,0,252.59,190.54Z"/><path class="cls-7" d="M306.13,213l-52-30c-1.35-.78-2.46-.14-2.46,1.43v5a5.47,5.47,0,0,0,2.46,4.26l52,30c1.36.78,2.46.14,2.46-1.42v-5A5.43,5.43,0,0,0,306.13,213Z"/><path class="cls-7" d="M312,128.06l47.07,27.14a10.9,10.9,0,0,1,4.92,8.53v10a10.9,10.9,0,0,1-4.92,8.52l-45.57,26.27a10.87,10.87,0,0,1-9.84,0L256.6,181.37a10.9,10.9,0,0,1-4.92-8.52v-10a10.92,10.92,0,0,1,4.92-8.53L302.17,128A10.87,10.87,0,0,1,312,128.06Z"/><path class="cls-8" d="M308.59,188.36V209.7a10.05,10.05,0,0,0,4.92-1.19l45.57-26.3a10.9,10.9,0,0,0,4.92-8.52v-10a11,11,0,0,0-4.42-8.21c2.2,1.58,2,3.9-.5,5.37l-45.57,26.3A9.94,9.94,0,0,1,308.59,188.36Z"/><path class="cls-13" d="M303.71,187.19,256.64,160c-2.71-1.57-2.71-4.11,0-5.68l45.57-26.3a10.87,10.87,0,0,1,9.84,0l47.07,27.14c2.72,1.57,2.72,4.12,0,5.69l-45.57,26.3A10.87,10.87,0,0,1,303.71,187.19Z"/></g><g id="freepik--character--inject-2-3" data-name="freepik--character--inject-2"><path class="cls-15" d="M270.06,189.78s3.8,12.16,3.66,16.82c-.16,4.86.88,6.56-.39,11.75-.27,1.13-1.07,3.37-1.29,4.29a1.36,1.36,0,0,0,.82,1.75.9.9,0,0,0,.27.07c2.06.61,5.88-3,7.9-7.19a128.44,128.44,0,0,0,5.43-14.76,6.62,6.62,0,0,0-.38-3.44,10.12,10.12,0,0,0-.82-1.84c-.52-2.16-.51-6.19-.86-9Z"/><path class="cls-8" d="M290.19,207.26a5.18,5.18,0,0,1,.43,1.63c0,1-2.48,4-3.43,5.05a7.78,7.78,0,0,0-2,5.36,13.39,13.39,0,0,1-3.95,8.33,21.34,21.34,0,0,1-11.13,6c-5.22,1.14-6.8-1.56-6.8-1.56s-1.38-2.59-.34-3.52S290.19,207.26,290.19,207.26Z"/><path class="cls-13" d="M285.26,197.23c.16,0,.43,0,.79.51.14.19.87,2.56,1.54,3.83s2.5,3.72,2.6,5.69c-1.5,3.67-5.26,6-6.09,9.52s-1.25,7.65-7.09,11.55-11.51,3.88-13.44,2.55-1.56-3.48,1.61-7.37c3.36-4.13,6.18-13.46,6.18-13.46a33.91,33.91,0,0,0,.87-4,26.7,26.7,0,0,0,0-4,3,3,0,0,1,.41-1.79,3.13,3.13,0,0,1,1.59-.92,13.81,13.81,0,0,1,2.9-.71,4.49,4.49,0,0,1,2.87.59,21.51,21.51,0,0,0,1.71,1.31,2.62,2.62,0,0,0,2.73-.25,2.24,2.24,0,0,0,.94-2.41C285.35,197.66,285.31,197.44,285.26,197.23Z"/><path class="cls-17" d="M280.51,225.13a8.77,8.77,0,0,0-7.58-5c-5.82-.46-8.08,2.33-9.11,4-1.23,2-2.64,5.65-.33,6.93,2.49,1.38,5.52,1.28,10.45-.69S280.51,225.13,280.51,225.13Z"/><path class="cls-17" d="M280.92,207.5a.62.62,0,0,1-.53-.05c-.86-.53-5.53-1.93-8.51.41-.34-.32-.22-.84.3-1.54,3.42-1.79,7.84-.49,8.88.16a.55.55,0,0,1,.17.77v0A.57.57,0,0,1,280.92,207.5Z"/><path class="cls-17" d="M271,211.2a1.82,1.82,0,0,1,.48-1.57,10.85,10.85,0,0,1,8.44.37.55.55,0,0,1,.17.77v0a.61.61,0,0,1-.82.18C278.41,210.46,274,209.13,271,211.2Z"/><path class="cls-17" d="M268,218.86a3.37,3.37,0,0,1,.92-2.05c3.39-1.67,7.71-.4,8.74.23a.58.58,0,0,1,.17.79h0a.76.76,0,0,1-.3.23.62.62,0,0,1-.53,0C276.05,217.46,270.9,215.94,268,218.86Z"/><path class="cls-17" d="M278.63,214.54a.55.55,0,0,1-.53,0c-.85-.53-5.42-1.89-8.41.33a2,2,0,0,1,.63-1.68,10.85,10.85,0,0,1,8.44.37.57.57,0,0,1,.11.81.5.5,0,0,1-.24.19Z"/><path class="cls-15" d="M263.71,203.78s-3.59,14.15-6.7,19.49-4.7,7.92-8.7,11.82c-.87.85-2.82,2.4-3.53,3.09a1.44,1.44,0,0,0-.19,2l.19.19c1.49,1.69,8.33,2.63,12.42.07s8.12-8.41,10.61-10.54c.94-.8,1.82-1.62,2.68-2.5s.69-1.74.84-2.75c.07-.5.11-1.85.11-1.85.73-2.37,2.48-6,3.43-8.33Z"/><path class="cls-8" d="M271.81,233.78a5.16,5.16,0,0,1-.33,1.74c-.46.9-4.11,2.64-5.5,3.24a8.17,8.17,0,0,0-4.27,4.17,14,14,0,0,1-7.46,6.11,22.19,22.19,0,0,1-13.22.72c-5.45-1.26-5.73-4.52-5.73-4.52s-.15-3.06,1.25-3.48S271.81,233.78,271.81,233.78Z"/><path class="cls-13" d="M271.62,222.13c.15.08.42.19.53.83a41.86,41.86,0,0,0-.25,4.31c.07,1.49.7,4.64-.09,6.55-3.06,2.81-7.66,3.33-10,6.29s-4.59,6.69-11.87,7.77-12.62-1.48-13.85-3.59.07-4,4.81-6.26c5-2.41,11.86-10,11.87-10a31.71,31.71,0,0,0,2.6-3.39,28.27,28.27,0,0,0,1.77-3.83,3.2,3.2,0,0,1,1.18-1.51,3.23,3.23,0,0,1,1.92-.15,14.43,14.43,0,0,1,3.06.61,4.76,4.76,0,0,1,2.45,1.85c.39.64.58,1.4,1,2a2.74,2.74,0,0,0,2.7,1,2.33,2.33,0,0,0,2-1.86A4.37,4.37,0,0,0,271.62,222.13Z"/><path class="cls-17" d="M254.71,246.35a9.16,9.16,0,0,0-5-8.08c-5.3-3.05-8.68-1.42-10.4-.3-2.05,1.33-5,4.16-3.41,6.41,1.74,2.42,4.66,3.67,10.2,4S254.71,246.35,254.71,246.35Z"/><path class="cls-17" d="M262.93,229.87a.64.64,0,0,1-.48-.28c-.57-.89-4.37-4.3-8.24-3.42-.17-.45.17-.89,1-1.32,4-.16,7.63,3,8.33,4.11a.58.58,0,0,1-.18.8l0,0A.7.7,0,0,1,262.93,229.87Z"/><path class="cls-17" d="M251.89,228.93a1.88,1.88,0,0,1,1.14-1.27,11.43,11.43,0,0,1,7.83,4.12.58.58,0,0,1-.18.8l0,0a.64.64,0,0,1-.86-.19C259.24,231.55,255.63,228.32,251.89,228.93Z"/><path class="cls-17" d="M245.59,234.83a3.57,3.57,0,0,1,1.79-1.53c4-.06,7.48,3.07,8.16,4.13a.58.58,0,0,1-.17.8l0,0a.64.64,0,0,1-.38.08.6.6,0,0,1-.48-.28C253.87,237.13,249.71,233.37,245.59,234.83Z"/><path class="cls-17" d="M257.62,235.51a.58.58,0,0,1-.48-.28c-.57-.88-4.29-4.21-8.11-3.44a2.15,2.15,0,0,1,1.34-1.31,11.47,11.47,0,0,1,7.83,4.12.59.59,0,0,1-.18.82h0A.64.64,0,0,1,257.62,235.51Z"/><path class="cls-3" d="M302.21,124.77c-6.25,3.81-27.73,13.91-36.69,20.91-2.59,2-3.63,4.88-3.58,11.31.07,8.73,4.39,38.81,4.39,38.81.8,1.75,2.71-1.28,2.71-1.28L305,156.06Z"/><path class="cls-6" d="M302.21,124.77c-6.25,3.81-27.73,13.91-36.69,20.91-2.59,2-3.63,4.88-3.58,11.31.07,8.73,4.39,38.81,4.39,38.81.8,1.75,2.71-1.28,2.71-1.28L305,156.06Z"/><path class="cls-6" d="M268.51,186.73c8-5.64,35.53-41.87,35.53-41.87h0C301,141.79,300,132,300,132c-1.62,3.62-.72,9.37.13,11.51-2.05,1.49-13.59,9.46-21.59,14.76a10.74,10.74,0,0,0-5,6.34C271.37,172.56,268.48,185.07,268.51,186.73Z"/><path class="cls-3" d="M302.21,124.77h0l41,12.77c-2.68,7.5-3.6,11.41-6.07,15.27s-5.21,8-16.52,12.42c-10.9,4.27-24.13,8.5-26.79,9.5-2,.75-3.24,4.53-4.54,9.45-1.35,5.16-1.78,9.26-7.89,19.81-6,10.34-7.21,12.58-7.21,12.58s-7.92.15-12.75-4.87c0,0,10.22-36.31,12.3-42.83,1.16-3.64,1.34-5.59,6.29-9.28,4.25-3.17,23-15,23-15S296.83,134.55,302.21,124.77Z"/><path class="cls-6" d="M302.21,124.77h0l41,12.77c-2.68,7.5-3.6,11.41-6.07,15.27s-5.21,8-16.52,12.42c-10.9,4.27-24.13,8.5-26.79,9.5-2,.75-3.24,4.53-4.54,9.45-1.35,5.16-1.78,9.26-7.89,19.81-6,10.34-7.21,12.58-7.21,12.58s-7.92.15-12.75-4.87c0,0,10.22-36.31,12.3-42.83,1.16-3.64,1.34-5.59,6.29-9.28,4.25-3.17,23-15,23-15S296.83,134.55,302.21,124.77Z"/><path class="cls-15" d="M304.34,68.13c-.79-.47-1.14-5.74-.3-9.5s-.9-4.68-1.76-3.5a6,6,0,0,0-1.06,2.19,10.49,10.49,0,0,0-4.9,2.61c-2.11,2.09-4.59,4.64-3.86,10.21a14.57,14.57,0,0,1-.38,5.54c-3,8.18-13.66,18.42-16.06,29.33-2.22,10,5.61,11,12.45,8,7.86-3.53,22.92-16.9,22.92-16.9l6.53-21.91c-4.15,0-7.24.67-12.75,6-.92.89-4.75,4.16-4.75,4.16a45.16,45.16,0,0,1,3.92-7.68"/><path class="cls-19" d="M294.86,98.74a47.82,47.82,0,0,1-4,7.25,14.29,14.29,0,0,0,5.13-6Z"/><path class="cls-17" d="M318.82,74.19c-4.5-.42-8.14.28-11.67,3.69-3.25,3.15-6.73,6.47-6.73,6.47-2.33,5.42-4,10.68-5.56,14.39a19.59,19.59,0,0,0,4.18,7.87L317.28,92Z"/><path class="cls-19" d="M302,74.2c1.26-2-.59-3.94-.59-3.94l3-2v-.13h0l-12-.54a14.7,14.7,0,0,0,.11,2.57,18.78,18.78,0,0,1,.09,2.6l1.56.93a1.17,1.17,0,0,0,1.12,0l5.05-2.61C302,71.81,302,74.2,302,74.2Z"/><path class="cls-7" d="M292.28,57.49l21-9.91a1.18,1.18,0,0,1,1.18,0c.26.17,1.34.84,1.64,1a1.13,1.13,0,0,1,.53,1l.68,10.87a2.67,2.67,0,0,1-1.44,2.38l-21,9.91a1.21,1.21,0,0,1-1.11,0c-.3-.17-1.47-.89-1.78-1.09a1.16,1.16,0,0,1-.46-.92c-.17-2.73-.51-8.14-.68-10.87A2.66,2.66,0,0,1,292.28,57.49Z"/><path class="cls-3" d="M315.86,60.7a1.49,1.49,0,0,1-.72,1.19l-19.87,9.39v.48l-.81-11.57a1.43,1.43,0,0,1,.71-1.17l20.32-9.63h0l-.44.21Z"/><path class="cls-9" d="M315.86,60.7a1.49,1.49,0,0,1-.72,1.19l-19.87,9.39v.48l-.81-11.57a1.43,1.43,0,0,1,.71-1.17l20.32-9.63h0l-.44.21Z"/><path class="cls-8" d="M316.35,61a1.48,1.48,0,0,1-.72,1.18L295.3,71.76v-.48l19.87-9.39a1.49,1.49,0,0,0,.72-1.19l-.78-11.09.44-.21Z"/><path class="cls-8" d="M293.82,72.78h-.06c-.3-.17-1.47-.89-1.78-1.09a1.16,1.16,0,0,1-.46-.92c-.17-2.73-.51-8.14-.68-10.87a2.63,2.63,0,0,1,.73-1.84l1.71,1a2.62,2.62,0,0,0-.74,1.85l.68,10.88A1.11,1.11,0,0,0,293.82,72.78Z"/><path class="cls-13" d="M316.11,48.58a1.27,1.27,0,0,0-1.08,0L294,58.5a2.29,2.29,0,0,0-.71.52l-1.72-1a2.57,2.57,0,0,1,.72-.54l21-9.91a1.22,1.22,0,0,1,1.17,0A17.35,17.35,0,0,0,316.11,48.58Z"/><path class="cls-20" d="M294,65.43a.78.78,0,0,0-.41.71.3.3,0,0,0,.28.32.27.27,0,0,0,.19,0,.8.8,0,0,0,.41-.71.3.3,0,0,0-.28-.32A.27.27,0,0,0,294,65.43Z"/><path class="cls-15" d="M304.71,68.13c.63-.52.86-2.15,1.93-3.62,1.24-1.69,4.1-1.25,3.21.12s-1.2,2.61-1.85,6.1-2.05,4-3.61,6V68.32Z"/><path class="cls-21" d="M333.62,75.86c3.45.91,14.6,5.31,14.6,5.31,2.4,1.88,1.39,6,1.35,10.73-.93,34.3-6.87,49.58-6.87,49.58-13.42,2.94-37.93-5.59-42.49-15.83,4.1-6.23,6.86-15.54,7.44-33.82.43-13.57,6.6-17.67,10.6-17.64A65.7,65.7,0,0,1,333.62,75.86Z"/><path class="cls-8" d="M316.52,47.64a4.87,4.87,0,0,0,0-2.4c-.24-.85-.56-1.67-.77-2.52-.27-1.15-.58-2.3-.92-3.43a16.42,16.42,0,0,1-1.12-4.88,2.67,2.67,0,0,1,3.75-2.66,8.82,8.82,0,0,1,2.65,1.59,5.52,5.52,0,0,1,1-3.45,3.21,3.21,0,0,1,3.23-1.22c1.12.31,1.89,1.32,2.79,2.06,1.64,1.35,3.8,1.83,5.86,2.36a14.58,14.58,0,0,1,5.95,2.53,9.33,9.33,0,0,1,3.52,7c0,1-.42,3.47-.58,4.79-.25,2-.46,4-.78,5.93-1.64,10-4.91,17.26-15,16.52-3.84-.29-9.2-2.67-10.2-6.85a14.6,14.6,0,0,1-.19-2.19c-.1-1.47-.14-3-.11-4.42A52.6,52.6,0,0,1,316.52,47.64Z"/><path class="cls-13" d="M342.5,42.65s1.94.07,3,2.6c.89,2.2,1.3,5.67-.86,11-2.28,5.65-4.07,7.42-5.31,9.52-.89,1.51-2.31,4.35-2.31,4.35l.63-6.64.57-4.61s-2.84-.65-3.66-5.26c-.93-5.18.05-5.83.05-5.83Z"/><path class="cls-15" d="M338,58.33a1.14,1.14,0,0,0,1.09-.08c.92-.54,1.35-1.7,2.13-2.4,1-.91,4.16-2,5.45,1.3s-1.95,7.64-4.31,8.54c-3.47,1.32-4.73-2.17-4.73-2.17l-1.34,14c-4,6.12-8.29,6.61-12.39,6.32s-3.79-4.1-1.16-6.72l.35-4.56a26.4,26.4,0,0,1-5.62-.12c-3-.7-4.45-3.11-5.13-6.49a45,45,0,0,1-.48-11.87,49.5,49.5,0,0,1,2.3-10.76s1.74-1.58,6.79-1.66c3.57,0,8.07-.3,9.94,1.94a5.12,5.12,0,0,0,3.7,4.26C333.49,55,337.38,58.07,338,58.33Z"/><path class="cls-8" d="M331,44.18c-.74-1.36-3.37-2-4.89-1.78A35.69,35.69,0,0,0,320,44.3a14.26,14.26,0,0,1-4.62.77A8.31,8.31,0,0,1,311,44a5,5,0,0,1-.21-7.74,2.08,2.08,0,0,0,1,1.68,6.11,6.11,0,0,0,1.89.72,3.73,3.73,0,0,1-1.25-3.51,4.92,4.92,0,0,1,2.87-3.29c1.2-.34,2.59-.7,5.25,1.5S332.28,36.85,331,44.18Z"/><path class="cls-19" d="M323.07,72.52s6.91-.87,9.38-2a7.9,7.9,0,0,0,3.54-3,10.69,10.69,0,0,1-2.16,3.7c-1.9,2.1-10.9,3.08-10.9,3.08Z"/><path class="cls-8" d="M325.92,54.84a1.37,1.37,0,1,0,1.47-1.32A1.4,1.4,0,0,0,325.92,54.84Z"/><path class="cls-8" d="M326.81,49.78l2.9,1.58A1.76,1.76,0,0,0,329,49a1.64,1.64,0,0,0-2.19.73Z"/><path class="cls-19" d="M326.18,63.39l-5.87,1.74a3,3,0,0,0,3.62,2.21l.12,0A3.2,3.2,0,0,0,326.18,63.39Z"/><path class="cls-14" d="M324.05,67.29a3.06,3.06,0,0,1-1.59,0,2.77,2.77,0,0,1,3-2.46,2.6,2.6,0,0,1,.77.17A3.13,3.13,0,0,1,324.05,67.29Z"/><path class="cls-8" d="M313.71,50.13l3.24-1A1.61,1.61,0,0,0,315,48H315A1.77,1.77,0,0,0,313.71,50.13Z"/><path class="cls-8" d="M314.71,54a1.38,1.38,0,0,0,1.23,1.52h0a1.42,1.42,0,1,0-1.26-1.57Z"/><polygon class="cls-19" points="321.86 52.38 320.87 61.62 316.24 59.65 321.86 52.38"/></g><path class="cls-8" d="M325.92,230.06V182.78a11,11,0,0,1,4.92-8.53l45.63-26.33a3.25,3.25,0,0,0,0-5.62l-1.12-.64,3.87-25.33a13.09,13.09,0,0,1,5.67-8.48l4-2.31c2.71-1.57,4.92-.29,4.92,2.84v22.75l-.1,59.86a10.9,10.9,0,0,1-4.92,8.52l-58,33.39C328.14,234.46,325.92,233.18,325.92,230.06Z"/><path class="cls-13" d="M312.08,174.78v47.6a11,11,0,0,0,4.86,8.18H317l4,2.3a1.9,1.9,0,0,0,.37.2l.21.1h.06a3.12,3.12,0,0,0,.39.15,11.43,11.43,0,0,0,7.24.2,8.82,8.82,0,0,0,.86-.31c-2.37,1-4.2-.36-4.21-3.19h0V182.78a10.92,10.92,0,0,1,4.92-8.53l8.94-5.16,36.69-21.17a3.25,3.25,0,0,0,0-5.62L372.39,140a10.93,10.93,0,0,0-9.84,0l-36.63,21.18L317,166.28A10.9,10.9,0,0,0,312.08,174.78Z"/><path class="cls-7" d="M325.92,182.78v47.27h0c0,2.83,1.84,4.16,4.21,3.19a8.82,8.82,0,0,1-.86.31,11.43,11.43,0,0,1-7.24-.2,3.12,3.12,0,0,1-.39-.15h-.06l-.21-.1a1.9,1.9,0,0,1-.37-.2l-4-2.3H317a11,11,0,0,1-4.86-8.18V174.78a10.15,10.15,0,0,1,1.44-4.85l13.85,8A10.06,10.06,0,0,0,325.92,182.78Z"/><g id="freepik--arm--inject-2-2" data-name="freepik--arm--inject-2"><path class="cls-15" d="M366.58,129.13c-1.33-10.42-2.44-15.84-3.81-22.83-3.19-16.22-2.44-20.88-14.17-23.93,0,0-4.25,3.74-4.43,13.34-.13,7.25,2,11.24,2,11.24l5,24c-4.33,4-15.43,12.72-18.14,14.15-3.65,1.94-7.7,2.69-11.6,4-2.59.89-5,2-7.54,3.06a1,1,0,0,0-.38.21.79.79,0,0,0-.16.83,1.45,1.45,0,0,0,.58.67,4.88,4.88,0,0,0,4.2.57c1.19-.27,2.21-.9,3.62-.86.27,0,.56.08.45.42a2.32,2.32,0,0,1-.43.64,9.82,9.82,0,0,1-3.94,1.9,15.73,15.73,0,0,1-4.2.6,17.06,17.06,0,0,0-3.42.23,2.62,2.62,0,0,0-1,.43c-1.55,1.21.91,2.14,1.41,3,.26.44.72,1.22,1,1.63a3.23,3.23,0,0,0,1.2.76,15.27,15.27,0,0,1,1.61,1.16,7.77,7.77,0,0,0,4.43,1.15,24.84,24.84,0,0,0,3.94-.41,16.69,16.69,0,0,0,7.61-3,22,22,0,0,0,2.6-2.41c.7-.73,1.39-1.48,2.14-2.18a44,44,0,0,1,3.86-2.93c1.95-1.13,13.13-6.42,24.34-14.24C368.27,136.92,367.17,133.69,366.58,129.13Z"/><path class="cls-17" d="M348.22,81.13c8.31,2.7,10.57,6.21,11.36,8.87,1.15,3.83,2,8.2,3.38,14.67,2,9.68,2.36,13.51,2.36,13.51s-4.58,3.71-16.48,3.56l-4-15.74S339.05,92.23,348.22,81.13Z"/></g></g></g><g id="freepik--side-table--inject-2"><g id="freepik--side-table--inject-2-2" data-name="freepik--side-table--inject-2"><g id="freepik--side-table--inject-2-3" data-name="freepik--side-table--inject-2"><polygon class="cls-3" points="360.35 237.85 366.72 234.17 360.35 232.33 360.35 237.85"/><polygon class="cls-22" points="360.35 237.85 366.72 234.17 360.35 232.33 360.35 237.85"/><polygon class="cls-23" points="360.35 237.85 366.72 234.17 360.35 232.33 360.35 237.85"/><polygon class="cls-3" points="360.35 237.85 357.16 236.01 357.16 230.49 360.35 232.33 360.35 237.85"/><polygon class="cls-9" points="360.35 237.85 357.16 236.01 357.16 230.49 360.35 232.33 360.35 237.85"/><polygon class="cls-3" points="392.27 250.76 392.27 256.63 438.37 230.02 438.37 224.15 392.27 250.76"/><polygon class="cls-22" points="392.27 250.76 392.27 256.63 438.37 230.02 438.37 224.15 392.27 250.76"/><polygon class="cls-11" points="392.27 250.76 392.27 256.63 438.37 230.02 438.37 224.15 392.27 250.76"/><polygon class="cls-3" points="392.27 256.63 389.08 254.79 389.08 248.92 392.27 250.76 392.27 256.63"/><polygon class="cls-9" points="392.27 256.63 389.08 254.79 389.08 248.92 392.27 250.76 392.27 256.63"/><polygon class="cls-3" points="441.56 178.16 395.45 204.77 395.45 252.6 441.56 225.99 441.56 178.16"/><polygon class="cls-22" points="441.56 178.16 395.45 204.77 395.45 252.6 441.56 225.99 441.56 178.16"/><polygon class="cls-3" points="395.45 204.77 353.97 180.82 353.97 228.65 395.45 252.6 395.45 204.77"/><polygon class="cls-9" points="395.45 204.77 353.97 180.82 353.97 228.65 395.45 252.6 395.45 204.77"/><polygon class="cls-3" points="353.97 180.82 400.08 154.21 441.56 178.16 395.45 204.77 353.97 180.82"/><polygon class="cls-24" points="353.97 180.82 400.08 154.21 441.56 178.16 395.45 204.77 353.97 180.82"/><polygon class="cls-3" points="392.27 221.33 357.16 201.06 357.16 226.81 392.27 247.08 392.27 221.33"/><polygon class="cls-25" points="392.27 221.33 357.16 201.06 357.16 226.81 392.27 247.08 392.27 221.33"/><polygon class="cls-11" points="357.16 226.81 379.31 213.85 392.27 221.33 392.27 247.08 357.16 226.81"/><polygon class="cls-23" points="357.16 226.81 379.31 213.85 357.16 201.06 357.16 226.81"/><polygon class="cls-3" points="392.27 206.61 357.16 186.34 357.16 197.38 392.27 217.65 392.27 206.61"/><polygon class="cls-24" points="392.27 206.61 357.16 186.34 357.16 197.38 392.27 217.65 392.27 206.61"/><path class="cls-13" d="M381.38,202.65c0,.51-1.52,0-3.39-1L372,198.13c-1.88-1.08-3.4-2.37-3.4-2.88v-.92l12.74,7.36Z"/></g><g id="freepik--shadow--inject-2-7" data-name="freepik--shadow--inject-2" class="cls-26"><path id="freepik--shadow--inject-2-8" data-name="freepik--shadow--inject-2" d="M418.54,184.42a15.77,15.77,0,0,0,8.66-2.36c2-1.34,3.13-3,3.13-4.73s-1.11-3.39-3.13-4.73a17.07,17.07,0,0,0-17.33,0c-2,1.34-3.13,3-3.13,4.73s1.11,3.39,3.13,4.73A15.78,15.78,0,0,0,418.54,184.42Z"/></g><g id="freepik--Lamp--inject-2"><path class="cls-7" d="M410.79,176.76a3.15,3.15,0,0,1,.06-.61,9.24,9.24,0,0,1,3.74-5.58h7.83a9.24,9.24,0,0,1,3.74,5.58,3.18,3.18,0,0,1,.06.62v.1a4,4,0,0,1-2.25,3,12.05,12.05,0,0,1-10.91,0,4,4,0,0,1-2.25-3A.43.43,0,0,1,410.79,176.76Z"/><path class="cls-13" d="M422.21,170.44c2.05,1.19,2.05,3.1,0,4.29a8.22,8.22,0,0,1-7.42,0c-2-1.19-2-3.1,0-4.29A8.22,8.22,0,0,1,422.21,170.44Z"/><path class="cls-8" d="M417.44,144.34h2.13v27.43h0a.48.48,0,0,1-.3.48,1.67,1.67,0,0,1-1.51,0,.49.49,0,0,1-.3-.48h0Z"/><path class="cls-3" d="M402.77,140.23h0l7.41-18.89h16.66l7.41,18.89h0c1.05,3-.4,6.15-4.37,8.45-6.28,3.62-16.45,3.62-22.73,0C403.17,146.38,401.71,143.19,402.77,140.23Z"/><path class="cls-3" d="M424.53,125.86a13.32,13.32,0,0,1-12,0c-3.33-1.92-3.33-5,0-7a13.32,13.32,0,0,1,12,0C427.86,120.82,427.86,123.94,424.53,125.86Z"/><path class="cls-18" d="M424.53,125.86a13.32,13.32,0,0,1-12,0c-3.33-1.92-3.33-5,0-7a13.32,13.32,0,0,1,12,0C427.86,120.82,427.86,123.94,424.53,125.86Z"/><path class="cls-3" d="M418.5,126.32A11.34,11.34,0,0,0,424,125c1.29-.75,2-1.68,2-2.63a3.33,3.33,0,0,0-2-2.62,12.33,12.33,0,0,0-11.07,0,3.33,3.33,0,0,0-2,2.62c0,1,.71,1.88,2,2.63A11.33,11.33,0,0,0,418.5,126.32Z"/><path class="cls-10" d="M418.5,126.32A11.34,11.34,0,0,0,424,125c1.29-.75,2-1.68,2-2.63a3.33,3.33,0,0,0-2-2.62,12.33,12.33,0,0,0-11.07,0,3.33,3.33,0,0,0-2,2.62c0,1,.71,1.88,2,2.63A11.33,11.33,0,0,0,418.5,126.32Z"/></g></g></g><g id="freepik--speech-bubbles--inject-2"><g id="freepik--speech-bubble--inject-2"><g id="freepik--speech-bubble--inject-2-2" data-name="freepik--speech-bubble--inject-2"><path class="cls-3" d="M247.76,1.78l36.56,21.1a1.64,1.64,0,0,1,.74,1.28v25.6a1.63,1.63,0,0,1-.74,1.27l-2.61,1.51a1.59,1.59,0,0,1-1.47,0L243.65,31.43a1.66,1.66,0,0,1-.73-1.28V4.51a1.6,1.6,0,0,1,.74-1.26l2.63-1.48A1.62,1.62,0,0,1,247.76,1.78Z"/><path class="cls-3" d="M281,52.13V26.47a1.64,1.64,0,0,0-.74-1.28L243.65,4.13c-.4-.24-.73,0-.73.42V30.13a1.66,1.66,0,0,0,.73,1.28l36.56,21.12C280.62,52.77,281,52.58,281,52.13Z"/><path class="cls-3" d="M281,52.13V26.47a1.64,1.64,0,0,0-.74-1.28L243.65,4.13c-.4-.24-.73,0-.73.42V30.13a1.66,1.66,0,0,0,.73,1.28l36.56,21.12C280.62,52.77,281,52.58,281,52.13Z"/><path class="cls-16" d="M280.21,52.53a1.67,1.67,0,0,0,1.48,0L284.32,51a1.63,1.63,0,0,0,.74-1.27V24.13a1.42,1.42,0,0,0-.24-.75l-4.11,2.36a1.56,1.56,0,0,1,.22.73V52.13C281,52.54,280.64,52.78,280.21,52.53Z"/><path class="cls-27" d="M242.93,4.38c.06-.37.36-.5.72-.29l36.56,21.1a1.52,1.52,0,0,1,.52.55l4.1-2.33a1.44,1.44,0,0,0-.51-.53L247.76,1.78a1.65,1.65,0,0,0-1.47,0l-2.58,1.46A1.63,1.63,0,0,0,242.93,4.38Z"/><path class="cls-3" d="M287.07,42.81l4-2.28a.68.68,0,0,0,.23-.93l-.09-.12L285,31.68,281,34l6.24,7.8a.68.68,0,0,1-.06,1A.2.2,0,0,1,287.07,42.81Z"/><path class="cls-27" d="M287.07,42.81l4-2.28a.68.68,0,0,0,.23-.93l-.09-.12L285,31.68,281,34l6.24,7.8a.68.68,0,0,1-.06,1A.2.2,0,0,1,287.07,42.81Z"/><path class="cls-3" d="M281,34l6.25,7.8a.66.66,0,0,1,0,.93.64.64,0,0,1-.43.2l-5.83.63Z"/></g><path class="cls-17" d="M272.16,30.13c0,1-.72,1.34-1.6.82l-20.31-11.7a3.53,3.53,0,0,1-1.6-2.72c0-1,.72-1.34,1.6-.82l20.31,11.72A3.51,3.51,0,0,1,272.16,30.13Z"/><path class="cls-17" d="M276.71,40.63c0,1-.72,1.34-1.6.82L250.25,27.13a3.53,3.53,0,0,1-1.6-2.72c0-1,.72-1.34,1.6-.82l24.84,14.33A3.51,3.51,0,0,1,276.71,40.63Z"/></g><g id="freepik--speech-bubble--inject-2-3" data-name="freepik--speech-bubble--inject-2"><g id="freepik--speech-bubble--inject-2-4" data-name="freepik--speech-bubble--inject-2"><path class="cls-3" d="M120.71,80.3l-4-7.38,3.16-9.12V58.21L110.2,63.8v5.58l4.15,7.2a.64.64,0,0,0,.29.25h0Z"/><path class="cls-16" d="M120.71,80.3l-4-7.38,3.16-9.12V58.21L110.2,63.8v5.58l4.15,7.2a.64.64,0,0,0,.29.25h0Z"/><path class="cls-3" d="M145.71,24.39a6.43,6.43,0,0,0-2.9-5L140.45,18a6.38,6.38,0,0,0-5.8,0L88.51,44.64a6.41,6.41,0,0,0-2.9,5V77.92a6.41,6.41,0,0,0,2.9,5l2.36,1.37a6.44,6.44,0,0,0,5.8,0l19.64-11.43L120.46,80a.62.62,0,0,0,.85.23.67.67,0,0,0,.27-.33L126,67.28l16.83-9.62a6.43,6.43,0,0,0,2.9-5Z"/><path class="cls-16" d="M85.61,77.94a6.41,6.41,0,0,0,2.9,5l2.36,1.37a6.49,6.49,0,0,0,5.3.23c-1.36.52-2.4-.25-2.4-1.91V54.37a5.85,5.85,0,0,1,.85-2.85L86.46,46.8a5.92,5.92,0,0,0-.85,2.86Z"/><path class="cls-27" d="M145.6,23.57c-.34-1.23-1.46-1.62-2.8-.85L96.71,49.35a5.87,5.87,0,0,0-2,2.17l-8.15-4.71a5.84,5.84,0,0,1,2-2.16L134.68,18a6.44,6.44,0,0,1,5.8,0l2.37,1.37A6.42,6.42,0,0,1,145.6,23.57Z"/></g><path class="cls-17" d="M105.55,57.25a8.52,8.52,0,0,0-3.87,6.7c0,2.47,1.73,3.47,3.87,2.23a8.52,8.52,0,0,0,3.87-6.7C109.42,57,107.71,56,105.55,57.25Z"/><path class="cls-17" d="M119.81,49a8.57,8.57,0,0,0-3.87,6.7c0,2.46,1.74,3.46,3.87,2.23a8.52,8.52,0,0,0,3.9-6.7C123.71,48.76,122,47.76,119.81,49Z"/><path class="cls-17" d="M134.08,40.74a8.57,8.57,0,0,0-3.87,6.7c0,2.47,1.73,3.47,3.87,2.24A8.57,8.57,0,0,0,138,43C138,40.51,136.22,39.51,134.08,40.74Z"/></g></g></svg>