<?xml version="1.0" encoding="utf-8"?>
<!-- Generator: Adobe Illustrator 25.0.0, SVG Export Plug-In . SVG Version: 6.00 Build 0)  -->
<svg version="1.0" id="Capa_1" xmlns="http://www.w3.org/2000/svg" xmlns:xlink="http://www.w3.org/1999/xlink" x="0px" y="0px"
	 viewBox="0 0 130 147" style="enable-background:new 0 0 130 147;" xml:space="preserve">
<style type="text/css">
	.Sombra_x0020_paralela{fill:none;}
	.Esquinas_x0020_redondeadas_x0020_2_x0020_pt_x002E_{fill:#FFFFFF;stroke:#1D1D1B;stroke-miterlimit:10;}
	.Reflejo_x0020_vivo_x0020_X{fill:none;}
	.Bisel_x0020_suave{fill:url(#SVGID_1_);}
	.Atardecer{fill:#FFFFFF;}
	.Follaje_GS{fill:#FFDD00;}
	.Pompadour_GS{fill-rule:evenodd;clip-rule:evenodd;fill:#51AEE2;}
	.st0{fill:#FFFFFF;}
	.st1{fill:#FF0600;}
</style>
<linearGradient id="SVGID_1_" gradientUnits="userSpaceOnUse" x1="0" y1="0" x2="0.7071" y2="0.7071">
	<stop  offset="0" style="stop-color:#E6E6EB"/>
	<stop  offset="0.1754" style="stop-color:#E2E2E7"/>
	<stop  offset="0.3552" style="stop-color:#D6D6DB"/>
	<stop  offset="0.5371" style="stop-color:#C2C3C6"/>
	<stop  offset="0.7204" style="stop-color:#A5A7A9"/>
	<stop  offset="0.9031" style="stop-color:#818485"/>
	<stop  offset="1" style="stop-color:#6B6E6E"/>
</linearGradient>
<g>
	<path class="st0" d="M0,42.06l0,62.88c0,3.77,2.01,7.25,5.27,9.13l54.46,31.44c3.26,1.88,7.28,1.88,10.54,0l54.46-31.44
		c3.26-1.88,5.27-5.36,5.27-9.13V42.06c0-3.77-2.01-7.25-5.27-9.13L70.27,1.49c-3.26-1.88-7.28-1.88-10.54,0L5.27,32.93
		C2.01,34.81,0,38.29,0,42.06z"/>
	<g>
		<path class="st1" d="M72.98,74.62c0.65-1.91,1.07-3.92,1.25-5.98l-4.13-2c0-0.67-0.02-1.34-0.08-2.02
			c-0.02-0.23-0.05-0.46-0.07-0.7l3.88-2.45c-0.4-2.04-1.05-3.99-1.9-5.8l-4.59,0.33c-0.45-0.79-0.95-1.56-1.49-2.28l2.13-4.06
			c-1.35-1.53-2.88-2.9-4.55-4.07l-3.8,2.58c-0.78-0.46-1.59-0.87-2.43-1.23l-0.18-4.58c-1.91-0.65-3.92-1.07-5.98-1.25l-2,4.13
			c-0.67-0.01-1.34,0.02-2.02,0.08c-0.24,0.02-0.47,0.05-0.7,0.08l-2.45-3.89c-2.04,0.41-3.99,1.05-5.81,1.9l0.33,4.59
			c-0.79,0.45-1.56,0.95-2.28,1.49l-4.06-2.14c-1.54,1.35-2.9,2.88-4.07,4.56l2.58,3.8c-0.46,0.78-0.88,1.59-1.24,2.43l-4.58,0.18
			c-0.65,1.91-1.07,3.92-1.25,5.99l4.13,2c0,0.67,0.02,1.34,0.08,2.02c0.02,0.23,0.05,0.46,0.08,0.7l-3.89,2.45
			c0.41,2.04,1.05,3.99,1.9,5.81l4.58-0.33c0.45,0.79,0.95,1.55,1.49,2.28l-2.14,4.06c1.35,1.54,2.88,2.91,4.56,4.08l3.8-2.58
			c0.78,0.46,1.59,0.88,2.43,1.24l0.18,4.58c1.91,0.65,3.91,1.07,5.98,1.25l2-4.13c0.67,0,1.34-0.02,2.02-0.08
			c0.23-0.02,0.46-0.05,0.69-0.08l2.45,3.89c2.04-0.41,3.99-1.05,5.81-1.9l-0.33-4.59c0.79-0.45,1.55-0.95,2.28-1.49l4.06,2.13
			c1.53-1.35,2.9-2.88,4.07-4.56l-2.57-3.8c0.46-0.78,0.87-1.59,1.23-2.43L72.98,74.62z M48.86,81.42
			c-8.26,0-14.97-6.71-14.97-14.97c0-8.25,6.71-14.97,14.97-14.97c8.25,0,14.97,6.72,14.97,14.97
			C63.83,74.71,57.11,81.42,48.86,81.42z"/>
		<path class="st1" d="M48.87,52.55c-7.66,0-13.9,6.23-13.9,13.9s6.23,13.9,13.9,13.9c7.66,0,13.9-6.23,13.9-13.9
			S56.53,52.55,48.87,52.55z M49.77,76.91c-5.77,0.52-10.87-3.77-11.37-9.54c-0.5-5.77,3.77-10.87,9.56-11.37
			c5.77-0.5,10.87,3.77,11.37,9.54C59.83,71.32,55.55,76.42,49.77,76.91z"/>
		<path class="st1" d="M87.52,74.76c-6.57-0.13-12.02,5.1-12.16,11.66c-0.13,6.57,5.1,12.03,11.66,12.16
			c6.58,0.13,12.03-5.1,12.16-11.66C99.31,80.36,94.08,74.91,87.52,74.76z M90.99,92.74c-3.49,2.07-8.02,0.86-10.03-2.69
			c-1.88-3.34-0.75-7.73,2.52-9.76c3.47-2.14,8.01-1.01,10.07,2.49C95.59,86.24,94.44,90.69,90.99,92.74z"/>
		<path class="st1" d="M106.41,88.57c0.13-1.39,0.12-2.78-0.04-4.18l-3.24-0.78c-0.17-0.85-0.41-1.7-0.71-2.53l2.37-2.34
			c-0.29-0.63-0.61-1.25-0.97-1.86c-0.36-0.6-0.75-1.18-1.16-1.74l-3.2,0.96c-0.58-0.67-1.21-1.29-1.87-1.84l0.89-3.21
			c-1.14-0.82-2.36-1.5-3.64-2.05l-2.3,2.43c-0.83-0.29-1.68-0.5-2.54-0.65l-0.85-3.23c-1.38-0.13-2.78-0.12-4.17,0.05l-0.78,3.24
			c-0.85,0.16-1.69,0.4-2.52,0.71l-2.35-2.37c-0.63,0.28-1.25,0.6-1.86,0.96c-0.61,0.36-1.19,0.75-1.74,1.16l0.95,3.2
			c-0.67,0.58-1.28,1.21-1.84,1.87l-3.21-0.88c-0.82,1.14-1.5,2.36-2.05,3.64l2.43,2.3c-0.29,0.83-0.5,1.68-0.65,2.54l-3.23,0.85
			c-0.14,1.38-0.12,2.78,0.04,4.18l3.25,0.77c0.17,0.85,0.4,1.7,0.71,2.53l-2.37,2.34c0.28,0.63,0.6,1.25,0.96,1.85
			c0.36,0.61,0.75,1.19,1.16,1.74l3.2-0.95c0.58,0.67,1.21,1.28,1.87,1.84l-0.88,3.22c1.14,0.82,2.36,1.5,3.63,2.05l2.3-2.42
			c0.83,0.29,1.67,0.5,2.54,0.65l0.85,3.23c1.38,0.13,2.78,0.12,4.18-0.04l0.77-3.24c0.85-0.16,1.7-0.4,2.53-0.71l2.35,2.37
			c0.63-0.28,1.25-0.6,1.85-0.96c0.61-0.36,1.18-0.75,1.74-1.16l-0.95-3.2c0.67-0.58,1.28-1.21,1.84-1.87l3.22,0.88
			c0.82-1.14,1.51-2.36,2.05-3.64l-2.43-2.3c0.28-0.82,0.5-1.67,0.65-2.53L106.41,88.57z M87.01,99.1
			c-6.85-0.14-12.31-5.83-12.16-12.69c0.14-6.85,5.83-12.31,12.69-12.16c6.85,0.14,12.31,5.83,12.17,12.69
			C99.55,93.79,93.86,99.25,87.01,99.1z"/>
	</g>
</g>
</svg>
