<svg xmlns="http://www.w3.org/2000/svg" xmlns:xlink="http://www.w3.org/1999/xlink" width="58" height="35" viewBox="0 0 58 35"><defs><style>.a,.d{fill:#fff;}.a{stroke:#707070;}.b{clip-path:url(#a);}.c{fill:#004a98;}</style><clipPath id="a"><rect class="a" width="58" height="35" transform="translate(0.421 0)"/></clipPath></defs><g class="b" transform="translate(-0.421)"><g transform="translate(6.301 1.724)"><path class="c" d="M18.717,17.539a9.117,9.117,0,0,0,9.209-8.7A8.959,8.959,0,0,0,18.717,0H14.586A8.643,8.643,0,0,0,5.746,8.843a8.775,8.775,0,0,0,8.841,8.7Z" transform="translate(5.016 0.002)"/><path class="d" d="M16.016,13.133V3.582a5.078,5.078,0,0,1,0,9.5m-6.907-4.7a5.1,5.1,0,0,1,3.263-4.8v9.5A5.078,5.078,0,0,1,9.109,8.331M14.2.359a8.038,8.038,0,1,0,8.025,8.025A8.038,8.038,0,0,0,14.2.359" transform="translate(5.428 0.368)"/><path class="c" d="M2.213,14.38c0,.71.513.8.974.8a2.631,2.631,0,0,0,2.631-2.894A2.789,2.789,0,0,0,2.924,9.276a6.789,6.789,0,0,0-.724,0Zm-.908-4.341C1.305,9.2.871,9.25.45,9.25V9h2.7a3.381,3.381,0,0,1,3.71,3.249c0,.921-.539,3.223-3.815,3.223H.411v-.237c.566,0,.829-.079.855-.71Z" transform="translate(-0.411 9.146)"/><path class="c" d="M4.749,9.86A.474.474,0,0,1,4.3,9.387a.487.487,0,0,1,.447-.447.46.46,0,0,1,.46.447.474.474,0,0,1-.46.474m-.987,5.42h.171c.263,0,.447,0,.447-.3V12.465c0-.408-.132-.474-.474-.658v-.145c.434-.132.947-.3.987-.329a.316.316,0,0,1,.171,0s0,0,0,.132v3.513c0,.3.2.3.46.3h.158v.237H3.762Z" transform="translate(3 9.101)"/><path class="c" d="M5.561,11.35c0-.342-.105-.434-.539-.618v-.171a12.933,12.933,0,0,0,1.223-.447s0,0,0,.092v.579a2.71,2.71,0,0,1,1.605-.7c.789,0,1.066.579,1.066,1.316V13.81c0,.3.21.3.46.3h.132v.237H7.548v-.237h.171c.263,0,.447,0,.447-.3V11.4c0-.526-.329-.789-.855-.789a2.526,2.526,0,0,0-1.079.447v2.75c0,.3.21.3.46.3h.184v.237h-2v-.237h.171c.263,0,.447,0,.447-.3Z" transform="translate(4.135 10.269)"/><path class="c" d="M9.557,11.483c.224,0,.25-.118.25-.224A.789.789,0,0,0,9,10.4c-.566,0-.96.408-1.066,1.079Zm-1.644.3a1.658,1.658,0,0,0,0,.539A1.539,1.539,0,0,0,9.228,13.93a1.776,1.776,0,0,0,1.25-.631l.132.132A2.158,2.158,0,0,1,8.9,14.482a1.868,1.868,0,0,1-1.723-2.026c0-1.816,1.223-2.355,1.881-2.355a1.473,1.473,0,0,1,1.566,1.46.816.816,0,0,1,0,.171h-.079Z" transform="translate(6.467 10.281)"/><path class="c" d="M8.978,14.113h.3c.263,0,.447,0,.447-.3V11.179c0-.289-.342-.342-.487-.421v-.145c.684-.289,1.052-.526,1.131-.526s.092,0,.092.118v.842h0c.237-.368.618-.96,1.184-.96a.5.5,0,0,1,.526.5.447.447,0,0,1-.434.474c-.289,0-.289-.224-.605-.224a.789.789,0,0,0-.684.763v2.21c0,.3.184.3.447.3h.526v.237H8.978Z" transform="translate(8.308 10.268)"/><path class="c" d="M10.825,13.05A1.237,1.237,0,0,0,12,14.181c.553,0,.75-.329.75-.658,0-1.092-2.013-.737-2.013-2.236A1.316,1.316,0,0,1,12.167,10.1a2.46,2.46,0,0,1,1.052.276l.066.934h-.21a.947.947,0,0,0-1.013-.908.645.645,0,0,0-.724.605c0,1.092,2.158.75,2.158,2.21a1.423,1.423,0,0,1-1.605,1.316,2.487,2.487,0,0,1-1.131-.316l-.092-1.066Z" transform="translate(10.027 10.279)"/><path class="c" d="M19.145,10.756h-.224A1.763,1.763,0,0,0,16.935,9.23,2.631,2.631,0,0,0,14.3,12.177a3.013,3.013,0,0,0,2.763,3.21,1.881,1.881,0,0,0,1.868-1.605l.21.066-.21,1.316a5.118,5.118,0,0,1-2.052.5,3.3,3.3,0,0,1-3.539-3.486,3.407,3.407,0,0,1,3.513-3.263A6.657,6.657,0,0,1,19.04,9.4Z" transform="translate(12.745 9.073)"/><path class="c" d="M16.386,15.533h.171c.263,0,.447,0,.447-.3V10.06c0-.605-.145-.618-.5-.724V9.191a6.131,6.131,0,0,0,.96-.395.71.71,0,0,1,.2-.105s.079,0,.079.132V15.23c0,.3.21.3.46.3h.158v.237H16.386Z" transform="translate(15.846 8.849)"/><path class="c" d="M21.3,13.75c0,.171.105.184.263.184h.368v.2a10.853,10.853,0,0,0-1.316.289h0v-.75a2.539,2.539,0,0,1-1.644.776,1,1,0,0,1-1.013-1.105V10.974c0-.25,0-.474-.566-.526v-.171l1.2-.066c.105,0,.105.066.105.263v2.394c0,.276,0,1.079.8,1.079a2.171,2.171,0,0,0,1.131-.566v-2.5c0-.184-.447-.289-.789-.382v-.2l1.447-.132c.079,0,.079.066.079.158Z" transform="translate(16.875 10.355)"/><path class="c" d="M20.876,14.69a1.013,1.013,0,0,0,.96.947c.987,0,1.408-.987,1.408-1.8a1.776,1.776,0,0,0-1.487-1.842,1.447,1.447,0,0,0-.881.434Zm0-2.526a2.368,2.368,0,0,1,1.381-.671,1.8,1.8,0,0,1,1.723,1.987,2.342,2.342,0,0,1-2.21,2.434,2.631,2.631,0,0,1-1.316-.329l-.276.21-.2-.092a11.578,11.578,0,0,0,.132-1.658V10.1c0-.605-.145-.618-.487-.724V9.231a6.459,6.459,0,0,0,.947-.395.579.579,0,0,1,.21-.105s.066,0,.066.132Z" transform="translate(19.144 8.889)"/><path class="c" d="M.424,16.565h0c.184,0,.368,0,.368-.289V13.644c0-.263-.184-.289-.368-.289h0V13.21H1.963v.145H1.884c-.184,0-.368,0-.368.289v2.631c0,.263.184.289.368.289h.079v.158H.424Z" transform="translate(-0.398 13.447)"/><path class="c" d="M1.95,16.723v-.105h0c-.184,0-.395,0-.395-.316V13.671c0-.276.21-.3.395-.3h0v-.105H.45v.105h0c.184,0,.395,0,.395.3V16.3c0,.276-.21.316-.395.316h0v.105h1.5m0,0H.411v-.184H.5c.184,0,.342,0,.355-.263V13.645c0-.237-.171-.263-.355-.263H.411v-.2H1.95v.2H1.9c-.184,0-.342,0-.355.263v2.631c0,.25.171.263.355.263h.092v.2Z" transform="translate(-0.411 13.421)"/><path class="c" d="M4.541,15.73h0V13.822a.421.421,0,0,0-.447-.474H3.948V13.2H5.264v.145h0c-.21,0-.447,0-.447.645v2.3a3.1,3.1,0,0,0,0,.5H4.646L2.015,13.9V15.98c0,.447.092.592.474.592h.145v.158H1.291v-.158h.026c.355,0,.46-.237.46-.645V13.809a.46.46,0,0,0-.46-.46h0V13.2H2.343Z" transform="translate(0.485 13.44)"/><path class="c" d="M4.554,15.73Zm0,0Zm.105,1.052h.158V14.006c0-.605.263-.658.474-.658h0v-.105H3.975v.105h.079a.434.434,0,0,1,.46.5v1.894h0l-2.2-2.5H1.344v.105h0a.474.474,0,0,1,.487.474V15.94c0,.408-.118.671-.487.671h0v.105H2.633v-.105h0c-.395,0-.487-.171-.5-.618V13.862Zm.184,0h-.2l-2.552-2.8v2.013c0,.447.066.566.447.566h.118v.2H1.265v-.184h.079c.342,0,.434-.21.434-.618V13.822a.434.434,0,0,0-.434-.434H1.265v-.2H2.4l2.21,2.5V13.848c0-.408-.263-.46-.421-.46h-.21v-.2H5.3v.2H5.291c-.21,0-.421,0-.421.618v2.3a3.1,3.1,0,0,0,0,.5h0Z" transform="translate(0.458 13.427)"/><path class="c" d="M3.976,13.533c-.382,0-.395.092-.46.46H3.358a4.289,4.289,0,0,0,0-.434v-.421h.118c0,.145.171.145.3.145H6.41c.145,0,.263,0,.276-.158H6.8v.816H6.66c0-.184,0-.487-.382-.487H5.45v2.631c0,.395.184.434.421.434h.092v.158H4.292V16.52h.092c.289,0,.421,0,.421-.421V13.467Z" transform="translate(2.588 13.361)"/><path class="c" d="M5.976,16.816h-1.7v-.184H4.4c.289,0,.395,0,.395-.395V13.606h.053v2.723c0,.408-.171.447-.447.447h0v.105H6.029v-.105H5.884c-.237,0-.434,0-.434-.46V13.5h.842c.342,0,.382.289.395.487h.105V13.2H6.779c0,.145-.158.158-.289.158H3.858c-.118,0-.25,0-.289-.158H3.49a2.276,2.276,0,0,1,0,.421v.395h.105c0-.342.118-.46.487-.46h0c-.368,0-.355.066-.447.434H3.345v-.434a2.263,2.263,0,0,0,0-.421h.171c0,.132.132.132.25.132H6.4c.145,0,.25,0,.25-.132h.145v.816H6.608c0-.184,0-.46-.355-.46H5.489v2.631c0,.382.158.408.395.408H6v.2Z" transform="translate(2.575 13.367)"/><path class="c" d="M5.177,16.565h.079c.171,0,.368,0,.368-.289V13.644c0-.263-.2-.289-.368-.289H5.177V13.21H7.729a7.708,7.708,0,0,0,0,.776H7.571c0-.329-.079-.592-.618-.592H6.269V14.71h.605c.3,0,.368-.171.395-.434h.158v1.158H7.269c0-.3,0-.5-.395-.5H6.269v1.184c0,.329.289.329.618.329.605,0,.868,0,1.026-.618h.132a4.613,4.613,0,0,1-.171.8H5.243Z" transform="translate(4.44 13.447)"/><path class="c" d="M7.894,16.677a3.937,3.937,0,0,1,.158-.763H7.96c-.158.566-.447.618-1.039.605-.316,0-.631,0-.645-.342V14.953h.631c.355,0,.395.21.408.487h.118V14.308H7.289c0,.263-.105.447-.408.447H6.249V13.44h.724c.526,0,.618.263.645.592h.105v-.724H5.263v.105h0c.171,0,.395,0,.395.3v2.631c0,.276-.224.316-.395.316h0v.105H7.894m0,0H5.171v-.184h.092c.184,0,.342,0,.342-.263V13.69c0-.237-.158-.263-.342-.263H5.171v-.2H7.8a1.671,1.671,0,0,0,0,.263v.5H7.631c0-.329-.079-.566-.605-.579H6.3v1.316h.579c.289,0,.342-.158.368-.434h.2v1.158H7.276c0-.316,0-.487-.368-.487H6.3v1.158c0,.3.263.3.592.3.605,0,.855,0,1-.605h.158c-.066.263-.118.539-.171.8h0Z" transform="translate(4.433 13.467)"/><path class="c" d="M7.808,14.9h.25c.5,0,.776-.184.776-.776a.684.684,0,0,0-.737-.737H7.808Zm-.645-1.158c0-.368-.2-.395-.355-.395H6.716V13.2H8.308c.645,0,1.21.171,1.21.881a.947.947,0,0,1-.71.895L9.676,16.3a.553.553,0,0,0,.487.3v.158H9.189A15.853,15.853,0,0,1,8.15,15.111H7.808V16.19c0,.395.184.408.421.408h.092v.158H6.716V16.6h.092c.184,0,.355-.079.355-.276Z" transform="translate(6.006 13.44)"/><path class="c" d="M8.071,14.9c.5,0,.75-.184.763-.763a.671.671,0,0,0-.724-.724,1.158,1.158,0,0,0-.263,0v1.46Zm-.25,0h0V13.4h0a1.315,1.315,0,0,1,.289,0,.724.724,0,0,1,.763.763c0,.605-.289.8-.8.8Zm0,.145h.355A16.2,16.2,0,0,0,9.2,16.664h.947v-.105a.618.618,0,0,1-.487-.316l-.868-1.316h0a.908.908,0,0,0,.684-.868c0-.7-.553-.855-1.184-.855H6.756v.105h0c.158,0,.382,0,.382.408v2.592c0,.21-.2.3-.382.3h0v.105H8.308v-.105H8.242c-.237,0-.434,0-.434-.434V15.085Zm2.355,1.671H9.189A13.748,13.748,0,0,1,8.15,15.085h-.3v1.052c0,.382.158.382.395.382h.105v.2H6.7v-.184h.118c.184,0,.329-.079.342-.25V13.756c0-.368-.184-.368-.342-.368H6.7v-.2H8.295c.645,0,1.223.184,1.223.908a.974.974,0,0,1-.684.908l.842,1.316a.539.539,0,0,0,.474.289h0v.171Z" transform="translate(5.992 13.427)"/><path class="c" d="M11.792,15.73h0V13.822a.421.421,0,0,0-.434-.474h-.118V13.2h1.316v.145h-.079c-.21,0-.447,0-.447.645v2.3a3.078,3.078,0,0,0,0,.5H11.9L9.266,13.9V15.98c0,.447.079.592.474.592h.079v.158H8.476v-.158h.079c.342,0,.447-.237.447-.645V13.809a.447.447,0,0,0-.46-.46H8.476V13.2H9.516Z" transform="translate(7.797 13.44)"/><path class="c" d="M11.779,15.73Zm0,0Zm.105,1.052h.171a3.025,3.025,0,0,1,0-.487V14.006c0-.605.25-.658.46-.658h0v-.105H11.2v.105h.092a.434.434,0,0,1,.46.487v1.908h0L9.516,13.217H8.5v.105h0a.46.46,0,0,1,.487.474v2.118c0,.408-.118.671-.474.671h0v.105H9.805v-.105h0c-.408,0-.5-.171-.5-.618v-2.1Zm.2,0h-.21L9.305,13.94v2.013c0,.447.079.566.46.566h.105v.2H8.476v-.184h.092c.329,0,.421-.21.434-.618V13.822a.434.434,0,0,0-.447-.434H8.476v-.2H9.516l2.21,2.5V13.835c0-.395-.263-.447-.408-.447h-.132v-.2h1.329v.2H12.41c-.2,0-.421,0-.421.618v2.3a3.1,3.1,0,0,0,0,.5h0Z" transform="translate(7.797 13.427)"/><path class="c" d="M12.1,13.829h0l-.474,1.421h.947Zm-.737,2.236a1.986,1.986,0,0,0-.118.395c0,.145.224.171.382.171h0v.158H10.478v-.158h0a.447.447,0,0,0,.434-.329l.816-2.315a3.671,3.671,0,0,0,.184-.618,3.789,3.789,0,0,0,.46-.224h0a.907.907,0,0,1,0,.132l.934,2.631a1.5,1.5,0,0,0,.184.513.3.3,0,0,0,.329.2h0v.158H12.373v-.158h0c.118,0,.316,0,.316-.145a2.144,2.144,0,0,0-.105-.368l.079-.539H11.517Z" transform="translate(9.834 13.381)"/><path class="c" d="M12.057,13.842Zm-.368,1.408h.881l-.447-1.316Zm-.066,0,.487-1.473h0l.474,1.473Zm1.039,1.487H14.07v-.105h0a.342.342,0,0,1-.355-.224,3.855,3.855,0,0,1-.184-.513L12.6,13.263v-.132h0a1.868,1.868,0,0,1-.46.21,4.223,4.223,0,0,1-.184.631l-.8,2.315a.5.5,0,0,1-.46.342h0v.105h1.118v-.105h0c-.158,0-.395,0-.395-.2a1.684,1.684,0,0,1,.105-.408h0l.171-.539h1.171l.21.605a1.644,1.644,0,0,1,.105.368c0,.158-.224.171-.342.171h0Zm1.421,0H12.557v-.184h.079c.118,0,.289,0,.289-.118a1.737,1.737,0,0,0-.092-.355l-.2-.5H11.517l-.158.5a3.052,3.052,0,0,0-.105.395c0,.118.184.145.355.145h.079v.2h-1.2v-.184h0a.447.447,0,0,0,.421-.3l.8-2.315a6.025,6.025,0,0,0,.2-.645,3.105,3.105,0,0,0,.46-.21h0v.132l.934,2.631c.066.184.118.368.184.513a.3.3,0,0,0,.316.184h0v.2Z" transform="translate(9.848 13.367)"/><path class="c" d="M12.7,13.533c-.382,0-.395.092-.46.46h-.158a1.029,1.029,0,0,1,.066-.434c.066-.158,0-.276,0-.421h.118c0,.145.171.145.3.145H15.2c.132,0,.263,0,.276-.158h.118a3.828,3.828,0,0,0,0,.408v.408h-.158c0-.184,0-.487-.368-.487H14.24v2.631c0,.395.184.434.421.434h.092v.158H13.082V16.52h.092c.276,0,.421,0,.421-.421V13.467Z" transform="translate(11.467 13.361)"/><path class="c" d="M14.621,16.816h-1.7v-.184h.118c.276,0,.395,0,.395-.395V13.606h.118v2.723c0,.408-.171.447-.447.447h-.066v.105h1.631v-.105h-.079c-.25,0-.434,0-.447-.46V13.5H15c.342,0,.382.289.395.487H15.5V13.2h-.079c0,.145-.158.158-.289.158H12.5c-.118,0-.25,0-.289-.158h-.079v.816h.105c.066-.342.105-.46.487-.46h0c-.368,0-.368.066-.447.434h-.2a1,1,0,0,1,.066-.434c.066-.145,0-.276,0-.421h.171c0,.132.118.132.25.132H15.2c.145,0,.237,0,.25-.132h.145a3.775,3.775,0,0,0-.066.408v.408h-.171c0-.184,0-.46-.355-.46h-.8v2.631c0,.382.158.408.395.408h.118v.2Z" transform="translate(11.467 13.367)"/><path class="c" d="M13.882,16.565h.066c.184,0,.382,0,.382-.289V13.644c0-.263-.2-.289-.382-.289h-.066V13.21h1.539v.145h-.066c-.184,0-.382,0-.382.289v2.631c0,.263.2.289.382.289h.066v.158H13.882Z" transform="translate(13.298 13.447)"/><path class="c" d="M15.408,16.723v-.105h0c-.184,0-.395,0-.395-.316V13.671c0-.276.21-.3.395-.3h0v-.105H13.921v.105h0c.184,0,.395,0,.395.3V16.3c0,.276-.21.316-.395.316h0v.105h1.487m0,0H13.869v-.184h.092c.184,0,.355,0,.355-.263V13.645c0-.237-.171-.263-.355-.263h-.092v-.2h1.539v.2h-.092c-.184,0-.355,0-.355.263v2.631c0,.25.171.263.355.263h.092v.2Z" transform="translate(13.285 13.421)"/><path class="c" d="M16.67,16.615c.974,0,1.145-.855,1.145-1.592s-.395-1.631-1.237-1.631-1.145.789-1.145,1.46c0,.908.421,1.763,1.237,1.763M16.6,13.168a1.776,1.776,0,0,1,1.934,1.75A1.842,1.842,0,0,1,16.6,16.865a1.789,1.789,0,0,1-1.894-1.8A1.842,1.842,0,0,1,16.6,13.168" transform="translate(14.14 13.397)"/><path class="c" d="M15.414,14.862c0-.671.276-1.487,1.171-1.487S17.9,14.3,17.9,15.033s-.171,1.618-1.171,1.618h0c.96,0,1.118-.842,1.131-1.579s-.395-1.605-1.223-1.605-1.118.763-1.118,1.434c0,.908.408,1.75,1.21,1.75h0c-.842,0-1.25-.881-1.316-1.789m-.7.184a1.868,1.868,0,0,1,1.894-1.894h0a1.816,1.816,0,0,0-1.842,1.842,1.763,1.763,0,0,0,1.842,1.881,1.829,1.829,0,0,0,1.881-1.921,1.737,1.737,0,0,0-1.881-1.75h0a1.815,1.815,0,0,1,1.96,1.763,1.881,1.881,0,0,1-1.96,1.908A1.8,1.8,0,0,1,14.7,15.046" transform="translate(14.134 13.387)"/><path class="c" d="M19.956,15.73h0V13.822a.421.421,0,0,0-.434-.474H19.4V13.2h1.316v.145H20.64c-.21,0-.447,0-.447.645v2.3a3.079,3.079,0,0,0,0,.5H20L17.364,13.9V15.98c0,.447.092.592.487.592h.079v.158H16.588v-.158h.079c.342,0,.447-.237.447-.645V13.809a.447.447,0,0,0-.46-.46h-.066V13.2h1.039Z" transform="translate(16.052 13.44)"/><path class="c" d="M19.889,15.73Zm0,0Zm.105,1.052h.171a3.026,3.026,0,0,1,0-.487V14.006c0-.605.25-.658.46-.658h.066v-.105H19.376v.105h.092a.434.434,0,0,1,.46.5v1.894h0l-2.236-2.526H16.679v.105h0a.474.474,0,0,1,.487.474v2.118c0,.408-.118.671-.474.671h0v.105h1.289v-.105h-.066c-.395,0-.487-.171-.487-.618v-2.1Zm.2,0h-.21L17.416,13.94v2.013c0,.447.079.566.447.566h.118v.2H16.653v-.184h.092c.329,0,.421-.21.434-.618V13.822a.434.434,0,0,0-.447-.434h-.079v-.2h1.052L19.889,15.7V13.848c0-.408-.263-.46-.408-.46H19.35v-.2h1.329v.2h-.105c-.2,0-.421,0-.421.618v2.3a3.105,3.105,0,0,0,0,.5h0Z" transform="translate(16.118 13.427)"/><path class="c" d="M20.26,13.829h0l-.474,1.421h.947Zm-.737,2.236a1.987,1.987,0,0,0-.118.395c0,.145.224.171.382.171h0v.158H18.642v-.158h0a.447.447,0,0,0,.434-.329l.816-2.315a3.671,3.671,0,0,0,.184-.618,3.79,3.79,0,0,0,.46-.224h0a.907.907,0,0,1,0,.132l.921,2.631.2.513a.3.3,0,0,0,.329.2h0v.158H20.536v-.158h0c.118,0,.316,0,.316-.145a2.144,2.144,0,0,0-.105-.368l.079-.539H19.681Z" transform="translate(18.142 13.381)"/><path class="c" d="M20.22,13.842ZM19.8,15.25h.881l-.447-1.316Zm-.066,0,.487-1.473h0l.474,1.473Zm1.026,1.487H22.18v-.105h0a.342.342,0,0,1-.355-.224,3.854,3.854,0,0,1-.184-.513l-.934-2.631v-.132h0a1.868,1.868,0,0,1-.46.21,4.223,4.223,0,0,1-.184.631l-.895,2.355a.5.5,0,0,1-.46.342h0v.105h1.118v-.105h0c-.158,0-.395,0-.395-.2a2.632,2.632,0,0,1,.105-.408h0l.171-.539h1.171l.21.605a1.46,1.46,0,0,1,.092.368c0,.158-.21.171-.329.171h0Zm1.434,0H20.72v-.184H20.8c.118,0,.289,0,.289-.118a1.316,1.316,0,0,0-.105-.355l-.184-.5H19.681l-.158.5a3.054,3.054,0,0,0-.105.395c0,.118.184.145.355.145h.079v.2h-1.2v-.184h0a.447.447,0,0,0,.421-.3l.8-2.315a6.025,6.025,0,0,0,.2-.645,3.105,3.105,0,0,0,.46-.21h0v.132l.934,2.631c.066.184.118.368.184.513a.3.3,0,0,0,.316.184h0v.2Z" transform="translate(18.155 13.367)"/><path class="c" d="M21.579,16.243c0,.2.145.263.3.289a3.854,3.854,0,0,0,.671,0,.7.7,0,0,0,.474-.276,1.013,1.013,0,0,0,.158-.368h.145a4.093,4.093,0,0,1-.184.868H20.513V16.6h0c.184,0,.382,0,.382-.342V13.625c0-.263-.2-.289-.382-.289h0v-.145h1.566v.145h-.132c-.2,0-.342,0-.342.276Z" transform="translate(20.046 13.427)"/><path class="c" d="M23.138,16.75a4.5,4.5,0,0,1,.171-.816H23.2a1.013,1.013,0,0,1-.145.355.789.789,0,0,1-.5.276h-.671a.3.3,0,0,1-.329-.3V13.632c0-.276.184-.289.368-.289h.105v-.105H20.506v.105h0c.184,0,.395,0,.395.3v2.631c0,.329-.21.368-.395.368h0v.105h2.631m0,0H20.506v-.184H20.6c.184,0,.355,0,.355-.316V13.618c0-.237-.171-.263-.355-.263h-.092v-.2h1.566v.2h-.145c-.2,0-.316,0-.329.25v2.631c0,.184.132.237.289.263h.658a.737.737,0,0,0,.474-.263,1.408,1.408,0,0,0,.158-.355h.184a4.967,4.967,0,0,1-.184.855h0Z" transform="translate(20.04 13.394)"/><path class="c" d="M22.1,13.675h0c.066,0,.105,0,.105-.145a.092.092,0,0,0-.105-.105h0Zm-.171.276h0v-.395H22.2c.105,0,.184,0,.184.145a.171.171,0,0,1-.132.158l.092.118.118.132h-.105a2.278,2.278,0,0,1-.184-.25h0v.184h.079Zm.263.145a.434.434,0,1,0-.359-.428.434.434,0,0,0,.359.428m0-.96a.539.539,0,1,1-.536.239.539.539,0,0,1,.536-.239" transform="translate(21.126 13.364)"/></g></g></svg>