<svg xmlns="http://www.w3.org/2000/svg" width="29" height="29" viewBox="0 0 29 29"><defs><style>.a{fill:#2a2a2a;}</style></defs><g transform="translate(-3.541 -3.542)"><path class="a" d="M19.218,24.055v1.858h-2V24.055a8.914,8.914,0,0,1-4.236-1.27l1.1-2.432A7.364,7.364,0,0,0,17.935,21.5c1.336,0,1.911-.388,1.911-.949,0-1.858-6.682-.508-6.682-4.865,0-1.831,1.336-3.394,4.009-3.729V10.183h2v1.844a7.885,7.885,0,0,1,3.394.989l-1.016,2.459a6.923,6.923,0,0,0-3.247-.909c-1.336,0-1.884.468-1.884,1.056,0,1.791,6.682.454,6.682,4.771C23.106,22.118,21.837,23.668,19.218,24.055Z"/><path class="a" d="M18.041,32.541a14.5,14.5,0,1,1,14.5-14.5,14.5,14.5,0,0,1-14.5,14.5Zm0-26.915A12.415,12.415,0,1,0,30.457,18.041,12.415,12.415,0,0,0,18.041,5.626Z"/></g></svg>