<svg id="Capa_1" data-name="Capa 1" xmlns="http://www.w3.org/2000/svg" xmlns:xlink="http://www.w3.org/1999/xlink" viewBox="0 0 225.44 205.02"><defs><style>.cls-1{fill:none;}.cls-2{fill:#ebebeb;}.cls-3{fill:#a6a6a6;}.cls-4{fill:#c7c7c7;}.cls-5{fill:#b80000;}.cls-6{fill:#fff;}.cls-7{fill:#263238;}.cls-8{fill:#455a64;}.cls-9{fill:#37474f;}.cls-10{fill:#dbdbdb;}.cls-11{opacity:0.1;isolation:isolate;}.cls-12{clip-path:url(#clip-path);}.cls-13{fill:#dd6a57;}.cls-14{fill:#ff99ba;}.cls-15{clip-path:url(#clip-path-2);}.cls-16{fill:#eb9481;}.cls-17{fill:#ad6359;}.cls-18{clip-path:url(#clip-path-3);}</style><clipPath id="clip-path"><path class="cls-1" d="M213.88,97.35a15,15,0,0,1-5.38,11.55,15.29,15.29,0,0,1-3.69,2.29l-.47.2-.26.1a14.3,14.3,0,0,1-2.64.71,14.65,14.65,0,0,1-2.64.24,13.64,13.64,0,0,1-1.57-.09,4.91,4.91,0,0,1-.67-.08c-.27,0-.53-.08-.79-.14l-.24,0a11.34,11.34,0,0,1-1.18-.31,11.58,11.58,0,0,1-1.24-.44l-.1,0a1,1,0,0,1-.22-.09,12.29,12.29,0,0,1-1.45-.73,15.08,15.08,0,0,1-2-24.87c.16-.58.32-1.13.47-1.64-2.6-1.77-1.45-5.11-1-5.82s2.09,1,2.09,1,.52-2.09,1.12-2.22,1,1.24,1,1.24a27.77,27.77,0,0,1,8.32-.12c3.85.69,5.18,4.87,5.18,4.87s2,.74,2.45,2.28a2.65,2.65,0,0,1,0,1A15.09,15.09,0,0,1,213.88,97.35Z"/></clipPath><clipPath id="clip-path-2"><path class="cls-1" d="M87.94,127.31a15.36,15.36,0,1,1-23.18-13.19c.72-2.29,2.57-4.48,6.69-5.51,8.06-2,9.85,3.8,10,4.44v0h0v0a23.17,23.17,0,0,1,.72,2.28A15.31,15.31,0,0,1,87.94,127.31Z"/></clipPath><clipPath id="clip-path-3"><path class="cls-1" d="M86.92,61.76H85.56c-.14-1.74-1.24-4.4-.94-3.06a13.05,13.05,0,0,1,.18,3.06H80.56a15.82,15.82,0,0,1-7,3.45,15.51,15.51,0,0,1-3.33.36,16.25,16.25,0,0,1-3.86-.47,15.81,15.81,0,0,1-4.46-1.89,14.72,14.72,0,0,1-2-1.46H58.43a6.75,6.75,0,0,1,0-1.42L58,59.86c-.15.69-.26,1.38-.33,1.89h-2.5a14.5,14.5,0,0,1,.8-5,16,16,0,0,1,3.15-18.66,13.41,13.41,0,0,1,3.8-4h0a10.26,10.26,0,0,1,12.2-3.54l.1,0a12.4,12.4,0,0,1,7.85,9c0,.24.07.47.1.7a15.91,15.91,0,0,1,2.55,13.07A24.5,24.5,0,0,1,86.92,61.76Z"/></clipPath></defs><path class="cls-2" d="M202.35,126.18c-6.66,9-13.59,19.44-15.28,30.75,0,.17.26.23.3.06a67.29,67.29,0,0,1,2.94-9.05c4.37-1.2,8.66-2.19,11-6.53s2-10.27,1.6-15.13C202.83,126,202.48,126,202.35,126.18Z"/><path class="cls-3" d="M190.38,147.86a74.59,74.59,0,0,1,11.69-19s.08,0,.06.06a79.87,79.87,0,0,0-8,12.55c2.2-2.24,4.61-4.24,6.7-6.59,0-.05.1,0,.07.06a36.86,36.86,0,0,1-7,7c-.73,1.34-1.45,2.67-2.19,4,.17-.1.36-.19.55-.28,0,0,.06,0,0,.05-.2.1-.41.21-.62.3-.35.63-.69,1.27-1,1.89C190.51,148.13,190.31,148,190.38,147.86Z"/><path class="cls-3" d="M192.59,145.52a39.78,39.78,0,0,0,5.11-3.4s.11,0,.06.06a27.56,27.56,0,0,1-5.09,3.47C192.59,145.69,192.51,145.57,192.59,145.52Z"/><path class="cls-2" d="M186.3,155.25c0,.14.25.14.25,0,0-3.72,0-7.46.06-11.19.94-1.92,3-3,4.42-4.53a19.73,19.73,0,0,0,2.65-3.69,26.43,26.43,0,0,0,3.07-10.26c.4-4-1.11-17.1-2.79-16.65-.87.24-3.68,6.74-4.43,8.89a62.56,62.56,0,0,0-2.65,10.9A117.11,117.11,0,0,0,186.3,155.25Z"/><path class="cls-3" d="M186.28,139.21h0a83.76,83.76,0,0,1,2.25-14c1.07-4.92,2.32-9.55,4.85-13.93a.07.07,0,0,1,.1,0,.07.07,0,0,1,0,.1h0a51.45,51.45,0,0,0-3.9,10.69c.17-.26.38-.51.55-.77.07-.1.23,0,.17.1a7.3,7.3,0,0,1-.79,1.12h0c-.87,3.51-1.49,7.11-2,10.69l.12-.14a0,0,0,0,1,0,0,.06.06,0,0,1,0,0l-.21.35c-.28,1.82-.53,3.64-.78,5.44a25.55,25.55,0,0,0,7.57-10.06h0a20.86,20.86,0,0,1-7.65,10.41c-.07.48-.14,1-.2,1.46,0,.1-.18.07-.18,0,0-.43,0-.87,0-1.29a.1.1,0,0,1,0-.14Z"/><path class="cls-3" d="M187.8,132.39A74.94,74.94,0,0,0,194.4,121s.1,0,.08,0a37.1,37.1,0,0,1-6.56,11.43C187.87,132.55,187.76,132.47,187.8,132.39Z"/><path class="cls-3" d="M191.1,120.11c1-1.82,2.1-3.59,3.07-5.43,0-.06.1,0,.08,0a29.25,29.25,0,0,1-3,5.46C191.19,120.29,191,120.21,191.1,120.11Z"/><path class="cls-3" d="M190.7,120.9v0S190.68,120.9,190.7,120.9Z"/><path class="cls-2" d="M183.79,144.5a37.73,37.73,0,0,1-.87,7.33c0,.26.08.52.12.8a35.34,35.34,0,0,0,1.3-8.17.28.28,0,0,0,0-.25h0a54.73,54.73,0,0,0-.82-11.07c-1.15-6.83-3.67-13.39-8.44-18.52a.34.34,0,0,0-.48,0l0,.06c-1.92,4.89-1.25,10.73.39,15.61a28.61,28.61,0,0,0,3.77,7.41C180.38,140,182.45,142,183.79,144.5Z"/><path class="cls-3" d="M175.67,116.9c4.51,7.34,7.66,16,8,24.69,0,.15-.25.19-.27,0-.11-.78-.23-1.55-.35-2.32h0a29.55,29.55,0,0,1-5.13-5.92,0,0,0,0,1,0,0h0a59.45,59.45,0,0,0,5,5.42c-.33-1.92-.71-3.8-1.17-5.65l-.36-.42c-.07-.09.06-.23.14-.13l.11.11a65.7,65.7,0,0,0-2.36-7.49A23.15,23.15,0,0,1,176.1,121s0-.07.06,0a32.92,32.92,0,0,0,2.09,2.77c.3.35.64.68.94,1a58.66,58.66,0,0,0-3.7-7.71.1.1,0,0,1,0-.13A.12.12,0,0,1,175.67,116.9Z"/><path class="cls-3" d="M176.58,126c1.46,2,3.12,3.84,4.48,5.87a.06.06,0,0,1-.09.07,29.54,29.54,0,0,1-4.49-5.88C176.44,125.94,176.53,125.89,176.58,126Z"/><path class="cls-3" d="M181.26,132.27l.06.07c.05,0,0,.11-.06.07l-.06-.07a0,0,0,0,1,0-.07A0,0,0,0,1,181.26,132.27Z"/><path class="cls-2" d="M168.58,131a22.66,22.66,0,0,0,4.77,11.18,11.87,11.87,0,0,0,3.87,3c1.67.83,3.43,1.78,5.18,2.46a33.32,33.32,0,0,1,1.83,6.49l.17-.58c-1.12-9.55-7.3-17.71-15.2-23a.38.38,0,0,0-.54.07A.43.43,0,0,0,168.58,131Z"/><path class="cls-3" d="M171.32,133.84c-.06,0,0-.14.08-.1a32.44,32.44,0,0,1,10.07,12.41.12.12,0,0,1-.2.12c-.36-.63-.74-1.26-1.12-1.89h0a10.76,10.76,0,0,1-4.85-2.82s0-.09,0-.06a11.11,11.11,0,0,0,2.29,1.61c.73.37,1.52.6,2.29.91-.67-1.07-1.37-2.09-2.1-3.07a21.46,21.46,0,0,1-5.42-3s0-.12.05-.09a54.21,54.21,0,0,0,5,2.7,43.9,43.9,0,0,0-3.55-4.15c-.62-.33-1.24-.65-1.84-1a0,0,0,0,1,0-.07s0,0,0,0a6.35,6.35,0,0,1,1.41.69C172.84,135.23,172.09,134.52,171.32,133.84Z"/><path class="cls-3" d="M171.49,137.14l.3.22a0,0,0,0,1,0,0h0a2.58,2.58,0,0,1-.32-.18,0,0,0,0,1,0-.07A.06.06,0,0,1,171.49,137.14Z"/><polygon class="cls-4" points="196.71 174.83 175.05 174.83 176.8 155.11 177.18 150.76 194.58 150.76 194.96 155.11 196.71 174.83"/><polygon class="cls-3" points="194.96 155.11 176.8 155.11 177.18 150.76 194.58 150.76 194.96 155.11"/><rect class="cls-4" x="176.15" y="147.71" width="19.47" height="4.31"/><path class="cls-2" d="M88.85,117.51H29.18V76.69H88.85ZM29.65,117H88.38V77.16H29.65Z"/><path class="cls-3" d="M33.85,79.32a1.19,1.19,0,1,1-1.19-1.19,1.18,1.18,0,0,1,1.19,1.19Z"/><path class="cls-2" d="M38.7,79.32a1.19,1.19,0,1,1-1.19-1.19,1.19,1.19,0,0,1,1.19,1.19Z"/><path class="cls-5" d="M43.54,79.32a1.19,1.19,0,1,1-1.18-1.19,1.18,1.18,0,0,1,1.18,1.19Z"/><rect class="cls-2" x="29.42" y="81.41" width="59.2" height="0.47"/><path class="cls-2" d="M178.35,97.3a10,10,0,0,1-3,1.27,10.49,10.49,0,1,1,3-1.27Z"/><path class="cls-6" d="M176,87.2A3.19,3.19,0,1,1,172.83,84h0A3.19,3.19,0,0,1,176,87.2Z"/><path class="cls-6" d="M178.35,96V97.3a10,10,0,0,1-3,1.27,10.39,10.39,0,0,1-8-1.27V96a5.52,5.52,0,0,1,11,0Z"/><g id="freepik--Desk--inject-61"><polygon class="cls-7" points="7.26 174.97 33.63 174.86 59.99 174.82 112.72 174.74 165.45 174.82 191.81 174.86 218.17 174.97 191.81 175.09 165.45 175.13 112.72 175.21 59.99 175.13 33.63 175.09 7.26 174.97"/></g><g id="freepik--Device--inject-61"><rect class="cls-8" x="30.09" y="170" width="60.03" height="4.97"/><rect class="cls-9" x="90.11" y="170" width="114.29" height="4.97"/><polygon class="cls-7" points="144.4 170 30.09 170 14.51 96.7 128.81 96.7 144.4 170"/><polygon class="cls-6" points="66.19 165.37 33.73 165.37 20.12 101.33 52.58 101.33 66.19 165.37"/><path class="cls-4" d="M33.06,125.36a2.39,2.39,0,0,1-.76.35,3.1,3.1,0,0,1-2.25-.35,3.88,3.88,0,0,1-1.65-1.75,2.34,2.34,0,0,1,1.37-3.45,3.58,3.58,0,0,1,3.9,2.09A2.44,2.44,0,0,1,33.06,125.36Z"/><path class="cls-6" d="M31.84,122.62a.69.69,0,0,1-.49.84l-.2,0a1.13,1.13,0,0,1-1-.87.67.67,0,0,1,.46-.84.56.56,0,0,1,.22,0A1.15,1.15,0,0,1,31.84,122.62Z"/><path class="cls-6" d="M33,125l.08.36a2.17,2.17,0,0,1-.76.34,3.05,3.05,0,0,1-2.25-.34L30,125a1.19,1.19,0,0,1,.81-1.46,1.2,1.2,0,0,1,.38,0A2,2,0,0,1,33,125Z"/><polygon class="cls-4" points="48.58 121.21 35.56 121.21 35.32 120.09 48.34 120.09 48.58 121.21"/><polygon class="cls-4" points="53.79 123.27 36 123.27 35.86 122.63 53.65 122.63 53.79 123.27"/><polygon class="cls-4" points="54.08 124.67 36.29 124.67 36.16 124.02 53.94 124.02 54.08 124.67"/><path class="cls-5" d="M35,134.31a2.14,2.14,0,0,1-.75.35,3.08,3.08,0,0,1-2.26-.35,3.76,3.76,0,0,1-1.64-1.75,2.34,2.34,0,0,1,1.36-3.45,3.59,3.59,0,0,1,3.9,2.09A2.51,2.51,0,0,1,35,134.31Z"/><path class="cls-6" d="M33.73,131.56a.67.67,0,0,1-.46.84.78.78,0,0,1-.22,0,1.11,1.11,0,0,1-1-.87.67.67,0,0,1,.46-.84.83.83,0,0,1,.22,0A1.12,1.12,0,0,1,33.73,131.56Z"/><path class="cls-6" d="M34.88,134l.1.35a2.14,2.14,0,0,1-.75.35,3.08,3.08,0,0,1-2.26-.35L31.9,134a1.18,1.18,0,0,1,.8-1.46,1.2,1.2,0,0,1,.38-.05A2,2,0,0,1,34.88,134Z"/><polygon class="cls-4" points="50.48 130.15 37.46 130.15 37.22 129.03 50.24 129.03 50.48 130.15"/><polygon class="cls-4" points="55.69 132.21 37.9 132.21 37.76 131.56 55.55 131.56 55.69 132.21"/><polygon class="cls-4" points="55.98 133.6 38.2 133.6 38.05 132.96 55.85 132.96 55.98 133.6"/><path class="cls-8" d="M36.86,143.27a2.22,2.22,0,0,1-.75.34,3.08,3.08,0,0,1-2.26-.34,3.9,3.9,0,0,1-1.65-1.76,2.34,2.34,0,0,1,1.36-3.45,3.61,3.61,0,0,1,3.91,2.1A2.47,2.47,0,0,1,36.86,143.27Z"/><path class="cls-6" d="M35.63,140.5a.67.67,0,0,1-.44.85.5.5,0,0,1-.24,0,1.13,1.13,0,0,1-1.06-.87.68.68,0,0,1,.47-.84.83.83,0,0,1,.22,0A1.13,1.13,0,0,1,35.63,140.5Z"/><path class="cls-6" d="M36.78,142.9l.08.37a2.22,2.22,0,0,1-.75.34,3.08,3.08,0,0,1-2.26-.34l-.08-.36A1.19,1.19,0,0,1,35,141.38,2,2,0,0,1,36.78,142.9Z"/><polygon class="cls-4" points="52.38 139.09 39.36 139.09 39.12 137.97 52.14 137.97 52.38 139.09"/><polygon class="cls-4" points="57.58 141.15 39.8 141.15 39.66 140.5 57.45 140.5 57.58 141.15"/><polygon class="cls-4" points="57.88 142.54 40.09 142.54 39.96 141.9 57.74 141.9 57.88 142.54"/><path class="cls-7" d="M38.75,152.22a2.34,2.34,0,0,1-.75.35,3.13,3.13,0,0,1-2.26-.35,3.91,3.91,0,0,1-1.64-1.75A2.38,2.38,0,0,1,35.45,147a3.61,3.61,0,0,1,3.9,2.1A2.45,2.45,0,0,1,38.75,152.22Z"/><path class="cls-6" d="M37.54,149.44a.69.69,0,0,1-.45.86.58.58,0,0,1-.23,0,1.12,1.12,0,0,1-1-.87.7.7,0,0,1,.48-.85l.21,0A1.15,1.15,0,0,1,37.54,149.44Z"/><path class="cls-6" d="M38.68,151.84l.07.38a2.34,2.34,0,0,1-.75.35,3.13,3.13,0,0,1-2.26-.35l-.07-.36a1.18,1.18,0,0,1,.78-1.48,1.4,1.4,0,0,1,.41,0A2,2,0,0,1,38.68,151.84Z"/><polygon class="cls-4" points="54.28 148.03 41.26 148.03 41.02 146.9 54.04 146.9 54.28 148.03"/><polygon class="cls-4" points="59.48 150.08 41.7 150.08 41.56 149.44 59.35 149.44 59.48 150.08"/><polygon class="cls-4" points="59.78 151.48 41.99 151.48 41.86 150.83 59.64 150.83 59.78 151.48"/><path class="cls-4" d="M40.66,161.13a2.39,2.39,0,0,1-.76.35,3.1,3.1,0,0,1-2.25-.35A3.88,3.88,0,0,1,36,159.38a2.34,2.34,0,0,1,1.37-3.45,3.58,3.58,0,0,1,3.9,2.1A2.43,2.43,0,0,1,40.66,161.13Z"/><path class="cls-6" d="M39.44,158.38a.68.68,0,0,1-.47.84.83.83,0,0,1-.22,0,1.12,1.12,0,0,1-1-.87.68.68,0,0,1,.46-.85.83.83,0,0,1,.22,0A1.15,1.15,0,0,1,39.44,158.38Z"/><path class="cls-6" d="M40.58,160.77l.08.36a2.39,2.39,0,0,1-.76.35,3.1,3.1,0,0,1-2.25-.35l-.08-.36a1.17,1.17,0,0,1,.83-1.44,1,1,0,0,1,.35,0A2,2,0,0,1,40.58,160.77Z"/><polygon class="cls-4" points="56.18 156.97 43.16 156.97 42.92 155.84 55.94 155.84 56.18 156.97"/><polygon class="cls-4" points="61.39 159.02 43.6 159.02 43.46 158.38 61.24 158.38 61.39 159.02"/><polygon class="cls-4" points="61.68 160.42 43.89 160.42 43.76 159.77 61.54 159.77 61.68 160.42"/><path class="cls-4" d="M28.17,110.13a1.19,1.19,0,0,1-.47.22,1.93,1.93,0,0,1-1.41-.22,2.39,2.39,0,0,1-1-1.08,1.47,1.47,0,0,1,.85-2.16,2.24,2.24,0,0,1,2.43,1.31A1.52,1.52,0,0,1,28.17,110.13Z"/><path class="cls-6" d="M27.41,108.4a.44.44,0,0,1-.29.53H27a.69.69,0,0,1-.65-.54.41.41,0,0,1,.29-.52.3.3,0,0,1,.13,0A.7.7,0,0,1,27.41,108.4Z"/><path class="cls-6" d="M28.12,109.91l.05.22a1.19,1.19,0,0,1-.47.22,1.93,1.93,0,0,1-1.41-.22l-.05-.22a.73.73,0,0,1,.51-.91.85.85,0,0,1,.23,0A1.23,1.23,0,0,1,28.12,109.91Z"/><path class="cls-4" d="M50.46,109a.11.11,0,0,1,.07-.14h0a.2.2,0,0,1,.19.14.13.13,0,0,1-.09.15h0A.17.17,0,0,1,50.46,109Z"/><path class="cls-4" d="M50.33,108.4a.12.12,0,0,1,.08-.15h0a.19.19,0,0,1,.18.15.12.12,0,0,1-.08.15h0A.18.18,0,0,1,50.33,108.4Z"/><path class="cls-4" d="M50.2,107.83a.12.12,0,0,1,.08-.15h0a.2.2,0,0,1,.18.16.11.11,0,0,1-.08.14h0A.22.22,0,0,1,50.2,107.83Z"/><polygon class="cls-4" points="48.27 108.8 46.55 108.8 46.3 107.67 48.02 107.67 48.27 108.8"/><polygon class="cls-4" points="46.55 108.8 46.62 109.16 46.92 108.8 46.55 108.8"/><polygon class="cls-6" points="47.76 107.98 46.7 107.98 46.67 107.87 47.74 107.87 47.76 107.98"/><polygon class="cls-6" points="47.81 108.2 46.74 108.2 46.72 108.09 47.79 108.09 47.81 108.2"/><polygon class="cls-6" points="47.85 108.42 46.79 108.42 46.77 108.32 47.84 108.32 47.85 108.42"/><polygon class="cls-9" points="125.91 104.79 20.86 104.79 20.12 101.33 125.17 101.33 125.91 104.79"/><path class="cls-4" d="M23.24,103.06a.66.66,0,0,1-.46.83.76.76,0,0,1-.21,0,1.11,1.11,0,0,1-1-.86.66.66,0,0,1,.46-.83.76.76,0,0,1,.21,0A1.11,1.11,0,0,1,23.24,103.06Z"/><path class="cls-6" d="M26.75,103.06a.67.67,0,0,1-.47.83.76.76,0,0,1-.21,0,1.13,1.13,0,0,1-1-.86.67.67,0,0,1,.47-.83.76.76,0,0,1,.21,0A1.11,1.11,0,0,1,26.75,103.06Z"/><path class="cls-5" d="M30.27,103.06a.67.67,0,0,1-.46.83.78.78,0,0,1-.22,0,1.12,1.12,0,0,1-1-.86.67.67,0,0,1,.47-.83.66.66,0,0,1,.21,0A1.12,1.12,0,0,1,30.27,103.06Z"/><polygon class="cls-2" points="125.91 104.79 53.31 104.79 66.19 165.37 138.78 165.37 125.91 104.79"/><polygon class="cls-6" points="132.51 162.45 72.23 162.45 71.48 158.92 131.76 158.92 132.51 162.45"/><path class="cls-5" d="M131.31,160.73a.68.68,0,0,1-.47.84.78.78,0,0,1-.22,0,1.14,1.14,0,0,1-1.05-.87.68.68,0,0,1,.47-.84.78.78,0,0,1,.22,0A1.14,1.14,0,0,1,131.31,160.73Z"/><polygon class="cls-6" points="130.17 160.23 130.82 160.73 130.39 161.23 130.25 161.11 130.58 160.73 130.09 160.35 130.17 160.23"/><polygon class="cls-7" points="73.07 161.74 72.84 161.74 72.39 159.63 72.62 159.63 73.07 161.74"/><path class="cls-3" d="M134.86,162.48a.11.11,0,0,1-.09-.08l-.17-.84a.06.06,0,0,1,0-.08h0a.09.09,0,0,1,.09.08l.18.84s0,.07,0,.07Z"/><path class="cls-3" d="M135.33,162.48h-.94a.11.11,0,0,1-.09-.08.08.08,0,0,1,0-.07h1a.09.09,0,0,1,.09.07s0,.07,0,.07Z"/><path class="cls-3" d="M134.86,159.52l.26,1.23a.47.47,0,0,1-.32.58.38.38,0,0,1-.15,0,.73.73,0,0,1-.6-.33.68.68,0,0,1-.12-.26l-.26-1.23a.47.47,0,0,1,.32-.58.39.39,0,0,1,.15,0,.73.73,0,0,1,.47.17.72.72,0,0,1,.26.4A.1.1,0,0,0,134.86,159.52Z"/><path class="cls-3" d="M134.69,161.64a1.06,1.06,0,0,1-.65-.24,1.15,1.15,0,0,1-.4-.63l-.11-.51a.07.07,0,0,1,0-.08h0a.09.09,0,0,1,.09.08l.11.51a1,1,0,0,0,.33.53,1,1,0,0,0,.58.2.58.58,0,0,0,.55-.61.68.68,0,0,0,0-.14l-.11-.49a.07.07,0,0,1,0-.08h0a.08.08,0,0,1,.08.08l.11.49a.69.69,0,0,1-.46.86l-.18,0Z"/><path class="cls-6" d="M70.57,160.7a1.41,1.41,0,0,1-1,1.73,1.58,1.58,0,0,1-.38,0,2.31,2.31,0,0,1-2.14-1.76,1.41,1.41,0,0,1,1-1.73,1.65,1.65,0,0,1,.38-.05A2.29,2.29,0,0,1,70.57,160.7Z"/><path class="cls-3" d="M68.14,160.34a.19.19,0,0,1-.13.24H68a.34.34,0,0,1-.31-.25.2.2,0,0,1,.14-.24h.06A.32.32,0,0,1,68.14,160.34Z"/><path class="cls-3" d="M69.84,160.33a.19.19,0,0,1-.12.24h-.07a.33.33,0,0,1-.3-.25.19.19,0,0,1,.13-.24h.06A.32.32,0,0,1,69.84,160.33Z"/><path class="cls-3" d="M69.09,160.26a.31.31,0,0,1,0,.23.27.27,0,0,1-.26.14.46.46,0,0,1-.32-.13.47.47,0,0,1-.13-.24Z"/><path class="cls-10" d="M69.06,160.49a.27.27,0,0,1-.26.14.46.46,0,0,1-.32-.13.35.35,0,0,1,.27-.11A.5.5,0,0,1,69.06,160.49Z"/><path class="cls-3" d="M28.54,116.19l-.22.21-.63-.65-.22-.24.09-.05a.4.4,0,0,0,.1-.18l.24.25Z"/><path class="cls-3" d="M27.7,114.69a.75.75,0,0,0-1-.14.71.71,0,0,0,.06,1h0a.78.78,0,0,0,.94.19l.08-.06a.48.48,0,0,0,.12-.16A.76.76,0,0,0,27.7,114.69Zm-.14.77-.09.05a.46.46,0,0,1-.53-.13.42.42,0,0,1-.06-.59h0a.46.46,0,0,1,.62.08.51.51,0,0,1,.15.42.44.44,0,0,1-.1.19Z"/><path class="cls-3" d="M31.36,115.71h.06a.79.79,0,0,0,.47.17.41.41,0,0,0,.26-.09.17.17,0,0,0,.07-.19.26.26,0,0,0-.14-.17,1.21,1.21,0,0,0-.32-.11h0a.81.81,0,0,1-.33-.11.32.32,0,0,1-.17-.22.24.24,0,0,1,.08-.24.42.42,0,0,1,.29-.09,1,1,0,0,1,.43.14.06.06,0,0,1,0,.06,0,0,0,0,1-.05,0h0a.82.82,0,0,0-.38-.13.42.42,0,0,0-.24.07.19.19,0,0,0-.07.18.26.26,0,0,0,.13.16,1.06,1.06,0,0,0,.3.1h0a.89.89,0,0,1,.35.11.35.35,0,0,1,.19.25.25.25,0,0,1-.09.25.45.45,0,0,1-.31.1,1,1,0,0,1-.51-.18A0,0,0,0,1,31.36,115.71Z"/><path class="cls-3" d="M32.51,115.5a.35.35,0,0,1,.24-.43l.11,0a.6.6,0,0,1,.52.42h0a0,0,0,0,1,0,0h-.72a.48.48,0,0,0,.42.35.26.26,0,0,0,.26-.17h.05a.05.05,0,0,1,0,.07.33.33,0,0,1-.32.2A.59.59,0,0,1,32.51,115.5Zm.08-.07h.68a.46.46,0,0,0-.39-.29.28.28,0,0,0-.29.26Z"/><path class="cls-3" d="M34.37,115.1l.16.81s0,0,0,0h0a.07.07,0,0,1,0,0l0-.14a.32.32,0,0,1-.3.18.57.57,0,0,1-.52-.47.34.34,0,0,1,.22-.43l.11,0a.53.53,0,0,1,.37.18l0-.13s0,0,0,0a.06.06,0,0,1,.06,0Zm0,.4a.48.48,0,0,0-.42-.36.28.28,0,0,0-.27.28.19.19,0,0,0,0,.08.47.47,0,0,0,.42.36.26.26,0,0,0,.26-.28.22.22,0,0,0,0-.08Z"/><path class="cls-3" d="M34.75,115.1a0,0,0,0,1,0,0h0s0,0,.06,0l0,.19h0a.33.33,0,0,1,.31-.22.07.07,0,0,1,.06,0s0,0,0,0a.25.25,0,0,0-.23.15.66.66,0,0,0-.06.2h0l.09.4s0,0,0,0a.05.05,0,0,1,0,0Z"/><path class="cls-3" d="M35.53,115.5a.35.35,0,0,1,.24-.43.3.3,0,0,1,.13,0,.54.54,0,0,1,.3.1s0,0,0,.06,0,0-.06,0a.44.44,0,0,0-.25-.08.28.28,0,0,0-.3.27.18.18,0,0,0,0,.1.47.47,0,0,0,.47.36.32.32,0,0,0,.21-.08s0,0,.06,0v.06a.35.35,0,0,1-.26.1A.6.6,0,0,1,35.53,115.5Z"/><path class="cls-3" d="M37.28,115.41a.35.35,0,0,0-.34-.27.21.21,0,0,0-.23.18.14.14,0,0,0,0,.09l.11.5h-.07l-.1-.5h0l-.15-.69a.05.05,0,0,1,0,0h0s.05,0,.05,0l.11.47a.3.3,0,0,1,.25-.13.47.47,0,0,1,.47.36l.11.5s0,0,0,0h0s-.05,0-.05,0Z"/><path class="cls-3" d="M38.28,115.5a.34.34,0,0,1,.24-.43.25.25,0,0,1,.12,0,.57.57,0,0,1,.31.1.06.06,0,0,1,0,.06,0,0,0,0,1-.06,0,.44.44,0,0,0-.25-.08.29.29,0,0,0-.31.27.38.38,0,0,0,0,.1.48.48,0,0,0,.47.36.35.35,0,0,0,.22-.08,0,0,0,0,1,.06,0v.06a.37.37,0,0,1-.26.1A.59.59,0,0,1,38.28,115.5Z"/><path class="cls-3" d="M40,115.41a.37.37,0,0,0-.35-.27.21.21,0,0,0-.23.18.14.14,0,0,0,0,.09l.1.5h-.06l-.11-.5h0l-.15-.7s0,0,0,0h0a.05.05,0,0,1,.06,0l.1.47a.28.28,0,0,1,.26-.13.47.47,0,0,1,.47.35l.1.5s0,0,0,0h0s0,0-.05,0Z"/><path class="cls-3" d="M41.23,115.1l.17.81s0,0,0,0h0a.07.07,0,0,1-.06,0l0-.14a.33.33,0,0,1-.3.18.58.58,0,0,1-.53-.47.35.35,0,0,1,.23-.43l.1,0a.55.55,0,0,1,.38.18l0-.13s0,0,0,0A.07.07,0,0,1,41.23,115.1Zm0,.4a.47.47,0,0,0-.41-.36.28.28,0,0,0-.28.28.19.19,0,0,0,0,.08.46.46,0,0,0,.41.36.28.28,0,0,0,.27-.28s0,0,0-.08Z"/><path class="cls-3" d="M41.92,115.1s0,0,0,0h-.12l.13.65a.08.08,0,0,0,.08.07.06.06,0,0,1,.06,0s0,0,0,0h0a.2.2,0,0,1-.19-.16l-.14-.65h-.11s0,0,0,0,0,0,0,0h.11l-.07-.33a0,0,0,0,1,0,0h0s.06,0,.06,0l.07.33h.12S41.92,115.07,41.92,115.1Z"/><rect class="cls-3" x="23.69" y="118.05" width="32.46" height="0.12"/><rect class="cls-3" x="22.52" y="112.52" width="32.46" height="0.12"/></g><g id="freepik--Mug--inject-61"><rect class="cls-5" x="25.64" y="173.21" width="11.26" height="1.76"/><rect class="cls-11" x="25.64" y="173.21" width="11.26" height="1.16"/><path class="cls-5" d="M12.28,168.49a6.21,6.21,0,0,0,7.48,2.36,8.14,8.14,0,0,0,1.6-.84l-1.42-2.12a3.85,3.85,0,0,1-.84.47A3.72,3.72,0,0,1,14.39,167c-1.55-2.16-2.1-7.11-.53-9,.1-.14.55-.37,2.35,0,.34.08.71.16,1.14.28a4.62,4.62,0,0,0,1,.22l.05-1.27.12-1.27a2.62,2.62,0,0,1-.53-.14,17.23,17.23,0,0,0-2.57-.53,3.84,3.84,0,0,0-3.58,1.07C9.32,159.48,10.35,165.77,12.28,168.49Z"/><path class="cls-11" d="M19.92,167.92a4.9,4.9,0,0,1-.84.47l.68,2.48a8.14,8.14,0,0,0,1.6-.84Z"/><path class="cls-11" d="M15.45,155.29l.76,2.72c.33.07.71.16,1.14.28a4.5,4.5,0,0,0,1,.22l0-1.27.13-1.28a3.3,3.3,0,0,1-.54-.13A16,16,0,0,0,15.45,155.29Z"/><path class="cls-5" d="M46.24,152s-1.34,11.48-3.68,16.31S37,173.64,35,173.64H27.59c-2,0-5.28-.54-7.61-5.36S16.3,152,16.3,152Z"/></g><g id="freepik--speech-bubbles--inject-61"><polygon class="cls-8" points="107.38 124 172.71 124 172.71 96.69 107.38 96.69 107.38 96.69 107.38 124 107.38 124"/><polygon class="cls-8" points="172.71 104.74 172.71 96.69 181.09 96.69 172.71 104.74"/><rect class="cls-6" x="112.36" y="101.41" width="55.36" height="0.52"/><rect class="cls-6" x="112.36" y="104.21" width="39.38" height="0.52"/><rect class="cls-6" x="112.36" y="109.82" width="49.03" height="0.52"/><rect class="cls-6" x="112.36" y="112.62" width="55.36" height="0.52"/><rect class="cls-6" x="112.36" y="115.42" width="55.36" height="0.52"/><rect class="cls-6" x="112.36" y="118.22" width="34.04" height="0.52"/><rect class="cls-5" x="98.45" y="46.36" width="65.33" height="23.04"/><polygon class="cls-5" points="98.46 54.42 98.46 46.36 90.07 46.36 98.46 54.42"/><rect class="cls-6" x="103.53" y="50.62" width="42.49" height="0.52"/><rect class="cls-6" x="103.53" y="53.42" width="55.36" height="0.52"/><rect class="cls-6" x="103.53" y="56.22" width="55.36" height="0.52"/><rect class="cls-6" x="103.53" y="59.02" width="49.26" height="0.52"/><rect class="cls-6" x="103.53" y="61.83" width="55.36" height="0.52"/><rect class="cls-6" x="103.53" y="64.63" width="35.26" height="0.52"/><rect class="cls-5" x="98.45" y="73.13" width="65.33" height="17.08"/><polygon class="cls-5" points="98.46 81.18 98.46 73.13 90.07 73.13 98.46 81.18"/><rect class="cls-6" x="103.53" y="77.38" width="55.22" height="0.52"/><rect class="cls-6" x="103.53" y="80.19" width="41.63" height="0.52"/><rect class="cls-6" x="103.53" y="82.99" width="47.98" height="0.52"/><rect class="cls-6" x="103.53" y="85.79" width="32.07" height="0.52"/><rect class="cls-5" x="98.45" y="129.31" width="65.33" height="15.76"/><polygon class="cls-5" points="98.45 137.36 98.45 129.31 90.06 129.31 98.45 137.36"/><rect class="cls-6" x="103.53" y="133.56" width="51.08" height="0.52"/><rect class="cls-6" x="103.53" y="136.36" width="37.85" height="0.52"/><rect class="cls-6" x="103.53" y="139.16" width="47.53" height="0.52"/></g><g id="freepik--character-3--inject-61"><circle class="cls-3" cx="198.79" cy="97.35" r="15.09"/><g class="cls-12"><path class="cls-5" d="M194.47,107.35l1.33,6.05,9.77-7.21,3.5,3.22s-7.84,9.14-14.2,9.14c-3.34,0-4-7.65-4-7.65Z"/><path class="cls-13" d="M196,114.23c2.45.76,7-2.75,8.9-5.73a51.6,51.6,0,0,0-.12-5.2c0-1.67,0-3.53.07-5.23,0-.35-10.83,1.85-10.83,1.85a27.08,27.08,0,0,1,.57,6.6,4.16,4.16,0,0,1-.12.69v.11C194.16,108.62,193.63,113.49,196,114.23Z"/><path class="cls-7" d="M204.23,98.06c-.74,3-3.07,9.69-8.67,9.43a6.63,6.63,0,0,1-1.09-.14v-.11a2.78,2.78,0,0,0,.12-.7v0a20.19,20.19,0,0,0-.07-3.3A32.27,32.27,0,0,0,194,100h0l.07,0C194.94,99.74,202.06,98.31,204.23,98.06Z"/><path class="cls-13" d="M205.78,84.56c1.31,3.74-.22,14.73-2.81,17.28-3.74,3.7-10.11,4.3-13.3-.25s-.85-18.72,2.05-21.06C196,77.09,203.84,79.06,205.78,84.56Z"/><path class="cls-7" d="M204.81,93.79c-2.58-.39-2.39-5.14-2.39-5.14s-4.32-1.39-4.47-4.81c0,0-4.6,2.06-7.72.37s-1.89-5.32-1.41-6.06,2.09,1,2.09,1,.52-2.09,1.12-2.22,1,1.24,1,1.24a27.74,27.74,0,0,1,8.31-.12c3.85.68,5.19,4.86,5.19,4.86A4.36,4.36,0,0,1,209,85.21C209.46,86.76,206.45,94,204.81,93.79Z"/><path class="cls-7" d="M195.17,92.19s.05,0,.05.07c-.12.74-.14,1.61.5,1.94v0C194.92,94,195,92.85,195.17,92.19Z"/><path class="cls-7" d="M196,91.5c1.21.07,1,2.47-.13,2.41S195,91.44,196,91.5Z"/><path class="cls-7" d="M190.87,91.91s-.07,0-.07.06c0,.75-.22,1.59-.94,1.78v0C190.71,93.74,190.93,92.62,190.87,91.91Z"/><path class="cls-7" d="M190.28,91.06c-1.2-.21-1.52,2.19-.41,2.38S191.27,91.23,190.28,91.06Z"/><path class="cls-7" d="M197,90.5a9.23,9.23,0,0,1-.9-.42,1.59,1.59,0,0,1-.84-.6.51.51,0,0,1,.14-.61,1.27,1.27,0,0,1,1.28,0,1.86,1.86,0,0,1,1,.91.55.55,0,0,1-.31.71A.59.59,0,0,1,197,90.5Z"/><path class="cls-7" d="M189.46,89.76a8,8,0,0,0,1-.16,1.58,1.58,0,0,0,1-.35.51.51,0,0,0,0-.62,1.29,1.29,0,0,0-1.23-.36,1.89,1.89,0,0,0-1.21.61.55.55,0,0,0,.09.76A.52.52,0,0,0,189.46,89.76Z"/><path class="cls-7" d="M195.22,99.17c-.19.15-.39.37-.67.37a2,2,0,0,1-.78-.26s0,0,0,0a1,1,0,0,0,.9.5.79.79,0,0,0,.65-.61S195.25,99.14,195.22,99.17Z"/><path class="cls-7" d="M194.66,96.9a2.56,2.56,0,0,1-1.82.95,3.49,3.49,0,0,1-.91-.06l-.18,0-.16-.05a.18.18,0,0,1-.13-.18h0v-.07h0v-.07c0-.58.19-1.44.19-1.44-.22.08-1.34.47-1.29.15a38.08,38.08,0,0,1,1.8-7.57.07.07,0,0,1,.09,0,.07.07,0,0,1,0,.08c-.3,2.38-1,4.71-1.36,7.1a4.4,4.4,0,0,1,1.24-.24c.08,0-.32,1.67-.32,1.93v0a3.6,3.6,0,0,0,2.71-.54C194.65,96.79,194.7,96.85,194.66,96.9Z"/><path class="cls-7" d="M192.3,97.63a2.93,2.93,0,0,0,1.16,1,1.35,1.35,0,0,0,.82.1c.6-.12.65-.67.57-1.14a3.15,3.15,0,0,0-.22-.74A3.89,3.89,0,0,1,192.3,97.63Z"/><path class="cls-14" d="M193.46,98.65a1.35,1.35,0,0,0,.82.1c.6-.12.65-.67.57-1.14A1.39,1.39,0,0,0,193.46,98.65Z"/><path class="cls-13" d="M203.82,93.56s2.39-3.59,4-2.74-.12,6-2,6.75a1.93,1.93,0,0,1-2.56-.91l0-.07Z"/><path class="cls-7" d="M207.3,92.32s0,0,0,.06a4.82,4.82,0,0,0-2.43,3.08,1.05,1.05,0,0,1,1.57-.33,0,0,0,0,1,0,.07,1.18,1.18,0,0,0-1.29.45,5.26,5.26,0,0,0-.6,1.06c-.06.11-.27.06-.23-.08v0C204.24,94.92,205.49,92.54,207.3,92.32Z"/><path class="cls-6" d="M194.59,106.59l1.31,6.25,9-8,2.24,2.53s-8.78,12.72-8.84,12.15l-2.67-5.39-3.7,3.81,1.49-9.46Z"/><path class="cls-7" d="M193.37,108.53c0-.06.11-.09.11,0-.09,1.93-1.32,7.47-1.3,8.9h0c.16-.16,3.43-3.35,3.47-3.3.57.86,2.51,4.78,2.65,5.14,1.24-1.84,7-9.37,8.42-11.28a.07.07,0,0,1,.08,0,.08.08,0,0,1,0,.08h0c-1,2.13-8.35,12-8.44,12a60.19,60.19,0,0,1-2.74-5.73,42.34,42.34,0,0,1-3.86,4.06C191.66,116.79,192.84,110.46,193.37,108.53Z"/></g></g><g id="freepik--character-2--inject-61"><circle class="cls-3" cx="72.58" cy="127.31" r="15.35"/><g class="cls-15"><path class="cls-5" d="M77,137.49l-1.36,6.12-9.29-6.37-2.3,3.4s6.07,8.22,12.54,8.22c3.4,0,4.06-7.79,4.06-7.79Z"/><path class="cls-16" d="M75.42,144.48c-2.49.78-7.12-2.8-9.06-5.82-.13-.21,0-2.5.12-5.3,0-1.7,0-3.59-.07-5.31,0-.36,1.22.21,1.22.21l2.27.38,7.52,1.29a27.28,27.28,0,0,0-.59,6.69,4.21,4.21,0,0,0,.12.71v.11C77.29,138.78,77.85,143.74,75.42,144.48Z"/><path class="cls-7" d="M77,137.37v.12a6.74,6.74,0,0,1-1.1.13c-7.31.35-8.86-8.86-8.86-8.86l2.89-.08L77.39,130a27.56,27.56,0,0,0-.58,6.7A3.47,3.47,0,0,0,77,137.37Z"/><path class="cls-16" d="M65.47,114.3c-1.33,3.8.22,15,2.85,17.58,3.81,3.77,10.29,4.38,13.54-.26s.87-19-2.09-21.42C75.41,106.69,67.45,108.7,65.47,114.3Z"/><path class="cls-7" d="M76.24,122.06s0,0,0,.07c.13.76.15,1.64-.5,2v0C76.52,123.92,76.48,122.75,76.24,122.06Z"/><path class="cls-7" d="M75.46,121.36c-1.22.07-1,2.52.15,2.45S76.49,121.3,75.46,121.36Z"/><path class="cls-7" d="M80.64,121.77s.06,0,.06.06c0,.76.23,1.62,1,1.81v0C80.79,123.64,80.56,122.49,80.64,121.77Z"/><path class="cls-7" d="M81.24,120.91c1.21-.21,1.54,2.23.42,2.42S80.21,121.08,81.24,120.91Z"/><path class="cls-7" d="M74.39,120.33a7.64,7.64,0,0,0,.92-.42,1.63,1.63,0,0,0,.85-.61.52.52,0,0,0-.14-.62,1.33,1.33,0,0,0-1.31,0,1.9,1.9,0,0,0-1,.92.55.55,0,0,0,.69.73Z"/><path class="cls-7" d="M82.09,119.59c-.33,0-.66-.09-1-.16a1.62,1.62,0,0,1-1-.36.53.53,0,0,1,0-.63,1.29,1.29,0,0,1,1.26-.36,1.87,1.87,0,0,1,1.22.61.56.56,0,0,1-.47.9Z"/><path class="cls-7" d="M76.21,129.16c.2.16.4.38.68.38a1.86,1.86,0,0,0,.79-.27,0,0,0,0,1,0,0,0,0,0,0,1,0,0h0a1,1,0,0,1-.94.5.81.81,0,0,1-.66-.61A.06.06,0,0,1,76.21,129.16Z"/><path class="cls-7" d="M76.67,127.14c.77.63,3.36.63,3.36.54l-.21-1.81c.23.09,1.36.47,1.31.17a38.3,38.3,0,0,0-1.74-7.72.08.08,0,0,0-.09,0,.06.06,0,0,0,0,.08c.28,2.42,1,4.78,1.3,7.21a4.94,4.94,0,0,0-1.26-.25c-.08,0,.31,1.7.31,2a7.67,7.67,0,0,1-2.78-.37C76.53,126.82,76.46,127,76.67,127.14Z"/><path class="cls-7" d="M66.83,123.34c1-.24,1.86-3.37,1.89-6.42,0-2,.8-4.42,3-5.16,1.45-.47,4,.71,5.42.36s1.71-1.18,2.56-1.16,1.81,2.12,1.81,2.12-1.53-6.62-10-4.49c-9,2.25-7.18,9.93-6.31,12.4A3.87,3.87,0,0,0,66.83,123.34Z"/><path class="cls-16" d="M67.49,123.48s-2.44-3.65-4.09-2.79.13,6.12,2,6.86a2,2,0,0,0,2.6-.9l0-.08Z"/><path class="cls-7" d="M63.93,122.2s0,0,0,0l0,0a4.9,4.9,0,0,1,2.47,3.14,1.07,1.07,0,0,0-1.6-.33s0,.08,0,.07a1.21,1.21,0,0,1,1.31.44,6.33,6.33,0,0,1,.6,1.08c.06.13.28.07.24-.07v0C67,124.83,65.76,122.41,63.93,122.2Z"/></g></g><g id="freepik--character-1--inject-61"><circle class="cls-3" cx="70.21" cy="49.58" r="15.97"/><path class="cls-7" d="M86.92,61.76H85.56c-.14-1.74-1.24-4.4-.94-3.06a13.61,13.61,0,0,1,.17,3.06H61.73c-.27-2.62.9-6.92.9-6.92a18,18,0,0,0-2,6.92H58.41a16,16,0,0,1,.33-4.24,14.35,14.35,0,0,0-1.12,4.24H55.14A16.25,16.25,0,0,1,58,52.58c1.67-2.5-.4-4-.36-8.83,0-6.48,4.49-9,5.23-9.65,10.06-9.32,19.19-.67,20.17,5.49s-.79,6.82,2,12.29C87.2,56,86.92,61.76,86.92,61.76Z"/><path class="cls-8" d="M59.81,65.12s0,0,.06,0c3.35,2.28,9.95,6.29,13.49,5a7.89,7.89,0,0,0,4.49-4.67,35.85,35.85,0,0,0-4.36-3C68.27,59,63.57,61.09,59.81,65.12Z"/><path class="cls-17" d="M64.84,63.14c.24.77,4.33,5.61,7.9,5.21,1.16-.14.71-6.52.71-6.52l.07-.47,1-6.71-8.09-4.46L65.3,49.6s-.16,1.86-.34,4.16l0,.33c0,.14,0,.26,0,.38,0,.35-.06.7-.08,1.05s0,.53,0,.81,0,.55,0,.84A44.07,44.07,0,0,0,64.84,63.14Z"/><path class="cls-7" d="M65,53.75a13.62,13.62,0,0,0,8.56,7.59l1-6.71-8.09-4.46-1.17-.58S65.13,51.45,65,53.75Z"/><path class="cls-17" d="M82.85,43.48c1.88,11.78-5,14.21-7.5,14.61-2.3.36-10.19,1.31-13.26-10.2s1.8-16.08,7-17.19S81,31.73,82.85,43.48Z"/><path class="cls-7" d="M63.05,48.72c2.94-.35,3-9.5,3-10.63,0,.72.24,4.46.54,4.59a2.81,2.81,0,0,0,.91-.26h0a10,10,0,0,1,0-1.34,5.56,5.56,0,0,1,.3,1.24l.53-.2a11,11,0,0,1,.05-2.87c.06-.35.28,1.23.74,2.59a35.82,35.82,0,0,1,7.62-2c.73-.09,1.37-.13,1.93-.15-.08-1.11-.31-2.27-.21-2a10,10,0,0,1,.63,2H80c0-1.57-1-4-.72-3.63a11.16,11.16,0,0,1,1.82,3.71c1.08.12,1.42.3,1.42,0A13,13,0,0,0,77.89,32c-4-3.17-11.42-3.43-15.13,2.27,0,0-3.23,2.52-3.48,6.16S61.36,48.92,63.05,48.72Z"/><path class="cls-6" d="M77.94,50.33a3.32,3.32,0,0,1-1.1,1.28,1.51,1.51,0,0,1-.88.23c-.68,0-.82-.62-.8-1.16a4.63,4.63,0,0,1,.13-.83A4.29,4.29,0,0,0,77.94,50.33Z"/><path class="cls-7" d="M80.39,42a5.6,5.6,0,0,1-.81-.1,1.25,1.25,0,0,1-.81-.26.42.42,0,0,1,0-.51,1,1,0,0,1,1-.34,1.57,1.57,0,0,1,1,.47.48.48,0,0,1-.11.66A.41.41,0,0,1,80.39,42Z"/><path class="cls-7" d="M72.76,43a7,7,0,0,0,.78-.23,1.37,1.37,0,0,0,.76-.4.44.44,0,0,0,0-.52,1.07,1.07,0,0,0-1-.15,1.56,1.56,0,0,0-.92.63.48.48,0,0,0,.22.63A.46.46,0,0,0,72.76,43Z"/><path class="cls-7" d="M74.6,45.87s-.06.05,0,.08c.11.8.11,1.74-.59,2.09,0,0,0,.05,0,0C74.85,47.86,74.84,46.61,74.6,45.87Z"/><path class="cls-7" d="M73.79,45.1c-1.31,0-1.12,2.66.09,2.62S74.89,45.07,73.79,45.1Z"/><path class="cls-7" d="M73.28,45.27c-.21.16-.42.43-.69.47a1.14,1.14,0,0,1-.8-.45s-.05,0,0,0c0,.5.25,1,.79,1s.82-.44.91-.94C73.46,45.35,73.37,45.22,73.28,45.27Z"/><path class="cls-7" d="M79.09,45.13s.07,0,.07.07c0,.81.19,1.74.94,2v0C79.2,47.15,79,45.91,79.09,45.13Z"/><path class="cls-7" d="M79.74,44.24c1.29-.18,1.57,2.42.37,2.59S78.67,44.4,79.74,44.24Z"/><path class="cls-7" d="M80.32,44.36c.22.11.47.34.69.34s.48-.32.63-.61c0,0,0,0,0,0,.07.49,0,1-.51,1.17s-.79-.26-.94-.74C80.18,44.46,80.23,44.32,80.32,44.36Z"/><path class="cls-7" d="M74.9,52c.2.19.39.44.69.47a2,2,0,0,0,.87-.23s0,0,0,0,0,0,0,0a1,1,0,0,1-1,.47.85.85,0,0,1-.66-.69C74.8,52,74.87,52,74.9,52Z"/><path class="cls-7" d="M78,48.84a16.89,16.89,0,0,1,.31,1.76c0,.06-.12.09-.32.12h0a2.7,2.7,0,0,1-2.71-.8c-.05-.05,0-.11.08-.08a4,4,0,0,0,2.53.5c0-.16-.53-2-.44-2a4.94,4.94,0,0,1,1.32.18c-.47-2.5-1.37-4.9-1.82-7.39A.07.07,0,0,1,77,41a.08.08,0,0,1,.07,0,41.1,41.1,0,0,1,2.3,7.89C79.47,49.25,78.26,48.92,78,48.84Z"/><path class="cls-5" d="M73.25,49.91a3.55,3.55,0,1,1,3.46-4.4h0a3.56,3.56,0,0,1-2.59,4.3A3.69,3.69,0,0,1,73.25,49.91Zm0-6.62a3.22,3.22,0,0,0-.76.09,3.07,3.07,0,1,0,.76-.09Z"/><path class="cls-5" d="M81.33,49c-1.36,0-2.58-1.41-2.78-3.25A4.24,4.24,0,0,1,79,43.18,2.22,2.22,0,0,1,82,42.09a2.16,2.16,0,0,1,.83.67,4.22,4.22,0,0,1,1,2.38C84,47.08,83,48.8,81.58,49ZM81,42.37h-.17a1.9,1.9,0,0,0-1.42,1A3.78,3.78,0,0,0,79,45.66c.19,1.69,1.3,3,2.49,2.83s2-1.61,1.82-3.3a3.88,3.88,0,0,0-.9-2.12A2,2,0,0,0,81,42.37Z"/><path class="cls-5" d="M76.64,45.93l-.34-.33c.47-.5,1.65-1.24,2.61-.42l-.31.36C77.74,44.79,76.68,45.89,76.64,45.93Z"/><path class="cls-5" d="M61,48.56l-.44-.17c.08-.2.81-2,1.84-2.31s7.35-.37,7.62-.38v.47c-1.83,0-6.75.16-7.5.37S61.23,48.09,61,48.56Z"/><path class="cls-17" d="M64.1,48.5S61.24,45,59.63,46s.72,6.28,2.74,6.88A2,2,0,0,0,65,51.7l0-.07Z"/><path class="cls-7" d="M60.34,47.51s0,0,0,0h0a5,5,0,0,1,2.82,3,1.12,1.12,0,0,0-1.67-.19,0,0,0,0,0,0,.06,0,0,0,0,0,.06,0h0a1.23,1.23,0,0,1,1.41.33,6.8,6.8,0,0,1,.73,1c.07.12.29,0,.23-.1v0C63.79,49.92,62.24,47.55,60.34,47.51Z"/><g class="cls-18"><path class="cls-8" d="M77.85,65.53a7.9,7.9,0,0,1-4.49,4.65c-3.54,1.28-10.15-2.73-13.49-5l-.06-.05a17.9,17.9,0,0,1,2.07-1.92,15.78,15.78,0,0,0,4.46,1.88,16.25,16.25,0,0,0,3.86.47,15.51,15.51,0,0,0,3.33-.36,14.61,14.61,0,0,0,2.8-.86A15.93,15.93,0,0,1,77.85,65.53Z"/><path class="cls-13" d="M73.53,65.19c0,1.56-.23,3.09-.79,3.15-2.31.27-4.83-1.66-6.4-3.27a15.75,15.75,0,0,0,3.86.47A16.16,16.16,0,0,0,73.53,65.19Z"/></g></g></svg>