<svg id="Capa_1" data-name="Capa 1"
    xmlns="http://www.w3.org/2000/svg" viewBox="0 0 68.53 68.47">
    <defs>
        <style>.cls-1{fill:#d4d4d4;}.cls-2{fill:#848484;}</style>
    </defs>
    <circle id="Elipse_16" data-name="Elipse 16" class="cls-1" cx="34.26" cy="34.24" r="33.5"/>
    <path class="cls-2" d="M41.76,31.94a11.71,11.71,0,1,0-14.95,0,22.27,22.27,0,0,0-14.76,21,2,2,0,0,0,4,0A18.26,18.26,0,0,1,34.28,34.65h0A18.26,18.26,0,0,1,52.53,52.89a2,2,0,0,0,4,0A22.28,22.28,0,0,0,41.76,31.94Zm-15.18-9a7.71,7.71,0,1,1,7.71,7.71h0A7.72,7.72,0,0,1,26.58,22.94Z"/>
</svg>