<svg xmlns="http://www.w3.org/2000/svg"
    xmlns:xlink="http://www.w3.org/1999/xlink" width="109" height="38" viewBox="0 0 109 38">
    <defs>
        <style>.a{fill:#bfbebe;}.b{clip-path:url(#a);}.c{fill:#fae922;}.d{fill:#000100;fill-rule:evenodd;}</style>
        <clipPath id="a">
            <rect class="a" width="109" height="38" transform="translate(-0.075 -0.009)"/>
        </clipPath>
    </defs>
    <g class="b" transform="translate(0.075 0.009)">
        <g transform="translate(-0.001 0)">
            <rect class="c" width="109" height="38" transform="translate(-0.073 -0.009)"/>
            <path class="d" d="M22.484,2c8.6,0,14.241,6.9,12.621,15.44A19.668,19.668,0,0,1,16.587,32.782c-8.6,0-14.241-6.9-12.621-15.44A19.652,19.652,0,0,1,22.484,2ZM26.6,3.944a11.341,11.341,0,0,1,7.21,13.447A18.129,18.129,0,0,1,18.4,31.47c-.583,0-.583-.34-.6-.826V27.6c0-.146,0-.194-.113-.211a11.616,11.616,0,0,1-2.155-.47,14.127,14.127,0,0,1-2.382-1.264c-.356-.178-.324-1.021-.308-1.361s.5-1.977,1.215-2.041,1.247.389,2.09.81a6.48,6.48,0,0,0,5.087.389A1.312,1.312,0,0,0,21.8,21.62c-.6-1.247-3.467-2.268-4.763-2.9a6.48,6.48,0,0,1-4.277-7.226A5.832,5.832,0,0,1,17.7,7.006V5.872a16.428,16.428,0,0,0-7.031,4.391A15.1,15.1,0,0,0,6.024,21a10.936,10.936,0,0,0,6.043,9.721,11.341,11.341,0,0,1-6.8-13.334A18.113,18.113,0,0,1,21.253,3.264c.308.178.324.211.486.616-.081.94-.13,1.879-.194,2.819a8.732,8.732,0,0,1,4.018,1.62c0,2.171-1.62,3.078-2.2,2.754a21.661,21.661,0,0,0-2.965-.842,3.24,3.24,0,0,0-1.863.211c-.729.356-1.069.859-.729,1.62a3.418,3.418,0,0,0,1.345,1.328l4.682,2.527a7.145,7.145,0,0,1,2.916,2.932,6.221,6.221,0,0,1,.292,3.6,5.525,5.525,0,0,1-1.247,2.382,5.346,5.346,0,0,1-1.62,1.264,7.89,7.89,0,0,1-2.414.923,9.4,9.4,0,0,1-.081,1.507h.211a17.594,17.594,0,0,0,4.86-2.657,16.784,16.784,0,0,0,4.763-5.9A14.581,14.581,0,0,0,32.9,15.512,10.66,10.66,0,0,0,26.6,3.944Z" transform="translate(1.184 1.753)"/>
            <path class="d" d="M68.572,12.477v7.048a3.678,3.678,0,0,0,.292,1.328c.94,2.074,4.245,1.9,6.156.648l-.842-1.766a3.24,3.24,0,0,1-2.268.47c-.794-.227-.745-1.166-.745-2.09V12.429h5.314l4.277,9.721a6.691,6.691,0,0,1-1.069,2.4c-1.474,2.074-2.851,1.2-4.034.94l-.583,2.106A5.427,5.427,0,0,0,81,26.7a15.116,15.116,0,0,0,2.576-5.055l4.1-11.341H84.967l-2.884,8.749c-.292-.324-2.527-5.9-2.932-6.853a2.851,2.851,0,0,0-3.078-1.863h-4.86v-3.5a18.243,18.243,0,0,0-2.608.842V10.29l-2.074.032v2.106ZM38.7,10.339V7.73a3.58,3.58,0,0,1,1.912-2.884,5.1,5.1,0,0,1,4.05.13L44.173,7.05c-2.965-.664-2.949-.1-2.949,3.24h3.24l-.778,2.122h-2.4v9.721a13.788,13.788,0,0,1-2.592,0V12.413H37.368l-.794-2.058ZM56.178,16.56c.162,6.967,7.712,6.578,9.721,4.731a9.2,9.2,0,0,0-.761-1.766A4.86,4.86,0,0,1,60.7,19.9c-2.625-1.28-2.43-6.156.227-7.372a4.6,4.6,0,0,1,3.5,0c.389.178.664.356.972.486v-2.22a6.837,6.837,0,0,0-4.6-.616,6.156,6.156,0,0,0-4.617,6.351ZM28.619,15.037c.194-1.62.794-2.9,2.479-2.916s2.4,1.3,2.463,2.916Zm7.258,6.27-.729-1.717a18.015,18.015,0,0,1-2.009.68c-2.317.389-4.439-.68-4.472-3.337h7.566c0-2.657-.47-5.7-3.435-6.626a5.3,5.3,0,0,0-4.148.405c-4.1,2.463-3.9,11.811,3.24,11.73a6.74,6.74,0,0,0,3.937-1.134Zm11.341-6.254c.13-1.62.859-2.916,2.495-2.932s2.4,1.3,2.414,2.916Zm-2.641,1.7c.275,4.374,3.678,6.48,7.858,5.46a16.363,16.363,0,0,0,2.041-.794l-.729-1.847a5.93,5.93,0,0,1-4.326.567,3.24,3.24,0,0,1-2.171-3.24h7.582c0-3.451-1.037-6.837-5.022-6.869s-5.444,3.24-5.233,6.691Z" transform="translate(14.993 3.297)"/>
        </g>
    </g>
</svg>