<svg xmlns="http://www.w3.org/2000/svg" width="68" height="68" viewBox="0 0 68 68"><defs><style>.a{fill:#e4e4e4;}.b{fill:#068cf3;}</style></defs><g transform="translate(0.002 -0.387)"><circle class="a" cx="34" cy="34" r="34" transform="translate(-0.002 0.387)"/><g transform="translate(11.094 11.63)"><path class="b" d="M33.334,67.268V85.93h41.99V67.268ZM73.681,82.644a1.643,1.643,0,0,0-1.642,1.643c0,.023.005.043.006.066H36.613c0-.023.007-.043.007-.066a1.643,1.643,0,0,0-1.643-1.643c-.022,0-.043.006-.066.007v-12.1c.023,0,.044.007.066.007A1.643,1.643,0,0,0,36.62,68.91c0-.023-.006-.043-.007-.065H72.045c0,.022-.006.043-.006.065a1.642,1.642,0,0,0,1.642,1.643c.023,0,.044-.006.066-.007v12.1C73.725,82.65,73.7,82.644,73.681,82.644ZM58.83,76.6c0,3.448-2.016,6.243-4.5,6.243s-4.5-2.795-4.5-6.243,2.016-6.242,4.5-6.242S58.83,73.151,58.83,76.6Z" transform="translate(-29.274 -44.629)"/><g transform="translate(7.476 11.574)"><path class="b" d="M61.314,62.85a3.7,3.7,0,0,0-1.946,1.324h6.026A4.325,4.325,0,0,0,61.314,62.85Z" transform="translate(-45.454 -54.687)"/><path class="b" d="M44.559,60.133l26.556-7.115c.005.021,0,.043.01.065a1.644,1.644,0,0,0,2.012,1.162c.021-.007.04-.017.062-.023l1.584,5.911h1.633l-2.543-9.487L38.466,60.133Z" transform="translate(-38.466 -50.646)"/></g><g transform="translate(0 0)"><path class="b" d="M55.694,52.469a4.3,4.3,0,0,0-1.945,3.758l8.006-2.146C59.926,52.167,57.483,51.436,55.694,52.469Z" transform="translate(-36.099 -39.525)"/><path class="b" d="M27.628,54.587l4.08-1.093L61.548,36.264c.011.021.016.041.027.06a1.643,1.643,0,0,0,2.244.6c.02-.012.035-.027.054-.039l3.993,6.917,1.578-.423L63.6,33.26l-36.364,21Z" transform="translate(-27.235 -33.26)"/></g></g></g></svg>