<svg id="Capa_1" data-name="Capa 1" xmlns="http://www.w3.org/2000/svg" xmlns:xlink="http://www.w3.org/1999/xlink" viewBox="0 0 227 227"><defs><style>.cls-1,.cls-15,.cls-5{fill:none;}.cls-2{clip-path:url(#clip-path);}.cls-3{fill:#4997d0;}.cls-4{fill:#fff;}.cls-5,.cls-6,.cls-7{stroke:#24420e;}.cls-5{stroke-width:0.1px;}.cls-6{fill:#406325;}.cls-15,.cls-20,.cls-21,.cls-22,.cls-23,.cls-24,.cls-25,.cls-26,.cls-27,.cls-28,.cls-29,.cls-6,.cls-7{stroke-width:0.04px;}.cls-7{fill:#67923d;}.cls-8,.cls-9{fill:#ba1f3e;stroke:#511124;}.cls-8{stroke-width:0.04px;}.cls-13,.cls-14,.cls-16,.cls-31,.cls-32,.cls-33,.cls-9{stroke-width:0.05px;}.cls-10,.cls-11{fill:#8c959d;}.cls-10,.cls-14,.cls-15{stroke:#485654;}.cls-10,.cls-17{stroke-width:0.03px;}.cls-12{fill:#485654;}.cls-13,.cls-19{fill:#6c301e;}.cls-13{stroke:#351710;stroke-linejoin:round;}.cls-14{fill:#b2b6ba;}.cls-16,.cls-17,.cls-18{fill:#fab81c;}.cls-16,.cls-17{stroke:#6c301e;}.cls-20,.cls-21,.cls-22,.cls-23,.cls-24,.cls-25,.cls-26,.cls-27,.cls-28,.cls-29{stroke:#999270;}.cls-20{fill:url(#Degradado_sin_nombre_7);}.cls-21{fill:url(#Degradado_sin_nombre_7-2);}.cls-22{fill:url(#Degradado_sin_nombre_7-3);}.cls-23{fill:url(#Degradado_sin_nombre_7-4);}.cls-24{fill:#f9f0aa;}.cls-25{fill:url(#Degradado_sin_nombre_6);}.cls-26{fill:url(#Degradado_sin_nombre_6-2);}.cls-27{fill:url(#Degradado_sin_nombre_7-5);}.cls-28{fill:url(#Degradado_sin_nombre_9);}.cls-29{fill:url(#Degradado_sin_nombre_9-2);}.cls-30{fill:#b07e09;}.cls-31{stroke:#4c0505;fill:url(#Degradado_sin_nombre_10);}.cls-32,.cls-38{fill:#448127;}.cls-32{stroke:#34541f;}.cls-33{fill:#eac102;stroke:#a08307;}.cls-34{fill:#a08307;}.cls-35{stroke:#000;stroke-width:0.02px;}.cls-36{fill:url(#Degradado_sin_nombre_11);}.cls-37{fill:#34541f;}</style><clipPath id="clip-path"><circle class="cls-1" cx="113.49" cy="113.5" r="113.49"/></clipPath><radialGradient id="Degradado_sin_nombre_7" cx="105" cy="110.94" r="3.89" gradientTransform="matrix(1.01, 0, 0, -1.03, -0.76, 230.12)" gradientUnits="userSpaceOnUse"><stop offset="0.22" stop-color="#f9f0aa"/><stop offset="1" stop-color="#b07e09"/></radialGradient><radialGradient id="Degradado_sin_nombre_7-2" cx="105.97" cy="109.83" r="2.57" xlink:href="#Degradado_sin_nombre_7"/><radialGradient id="Degradado_sin_nombre_7-3" cx="106.57" cy="110.86" r="2.3" xlink:href="#Degradado_sin_nombre_7"/><radialGradient id="Degradado_sin_nombre_7-4" cx="107.58" cy="111.23" r="4.09" xlink:href="#Degradado_sin_nombre_7"/><linearGradient id="Degradado_sin_nombre_6" x1="111.23" y1="122.5" x2="110.87" y2="128.91" gradientTransform="matrix(1.01, 0, 0, -1.03, -0.76, 230.12)" gradientUnits="userSpaceOnUse"><stop offset="0.22" stop-color="#b07e09" stop-opacity="0"/><stop offset="1" stop-color="#b07e09"/></linearGradient><linearGradient id="Degradado_sin_nombre_6-2" x1="113.4" y1="113.68" x2="113.96" y2="106.63" xlink:href="#Degradado_sin_nombre_6"/><radialGradient id="Degradado_sin_nombre_7-5" cx="104.66" cy="124.11" r="3.06" xlink:href="#Degradado_sin_nombre_7"/><linearGradient id="Degradado_sin_nombre_9" x1="105.97" y1="124.77" x2="106.87" y2="126.88" gradientTransform="matrix(1.01, 0, 0, -1.03, -0.76, 230.12)" xlink:href="#Degradado_sin_nombre_7"/><linearGradient id="Degradado_sin_nombre_9-2" x1="111.1" y1="127.66" x2="111.71" y2="119.85" gradientTransform="matrix(1.01, 0, 0, -1.03, -0.76, 230.12)" xlink:href="#Degradado_sin_nombre_7"/><radialGradient id="Degradado_sin_nombre_10" cx="112.16" cy="132.84" r="0.08" gradientTransform="matrix(1.01, 0, 0, -1.03, -0.76, 230.12)" gradientUnits="userSpaceOnUse"><stop offset="0.26" stop-color="#a50a0a"/><stop offset="1" stop-color="#4c0505"/></radialGradient><radialGradient id="Degradado_sin_nombre_11" cx="124.79" cy="138.14" r="0.08" gradientTransform="matrix(0.99, 0, 0, -1.06, -10.67, 238.94)" gradientUnits="userSpaceOnUse"><stop offset="0" stop-color="#fff"/><stop offset="1" stop-color="#fff" stop-opacity="0"/></radialGradient></defs><g class="cls-2"><path class="cls-3" d="M.5,0h226V228H.5Z"/><path class="cls-4" d="M75.83,1h75.34V228H75.83Z"/><path class="cls-5" d="M106.84,132.34a6.37,6.37,0,0,0,1.44-.43"/><path class="cls-5" d="M108.81,130.92a3.14,3.14,0,0,1,.72,1.13"/><path class="cls-5" d="M107.59,130.82a3.63,3.63,0,0,1,.75,1"/><path class="cls-5" d="M96.5,98.61a2.49,2.49,0,0,1-1.14.83"/><path class="cls-5" d="M95.28,99.4a6.36,6.36,0,0,1,0-1.07"/><path class="cls-5" d="M94.82,99.55c0,.09.1.34.16.49"/><path class="cls-5" d="M95.46,100.27l-.48.08"/><path class="cls-5" d="M94,100.14a19,19,0,0,0,.12,1.9"/><path class="cls-5" d="M93.74,101.8a1.25,1.25,0,0,0,.37.46"/><path class="cls-5" d="M93,103.83a3.24,3.24,0,0,1,.31,1"/><path class="cls-5" d="M94.21,103.67a3.58,3.58,0,0,0-.46.38"/><path class="cls-5" d="M94.13,105.12a4,4,0,0,1-.82.51"/><path class="cls-5" d="M92.4,115.46a4,4,0,0,0,.94,1.14"/><path class="cls-5" d="M93.48,117a1.74,1.74,0,0,1-.7-.24"/><path class="cls-5" d="M93.83,118.82l.4.23"/><path class="cls-5" d="M94.13,119.9a4.29,4.29,0,0,1,.9.94"/><path class="cls-5" d="M94.68,121.53a2.73,2.73,0,0,1,.77.26"/><path class="cls-5" d="M95.2,122.38h.51"/><path class="cls-5" d="M96,121.08a9.79,9.79,0,0,1-.11,1"/><path class="cls-5" d="M96.12,122.5l.11-.39"/><path class="cls-5" d="M97.34,123.56l0,.79"/><path class="cls-5" d="M106.67,131.14l-.28.38"/><path class="cls-5" d="M105.82,130.57l-.16-.45"/><path class="cls-6" d="M115,134.16a1.94,1.94,0,0,0-.78-.65,17.68,17.68,0,0,0-5.76-1.76A6.65,6.65,0,0,1,107,131c-1.19-.57-2.51-.8-3.66-1.38a1.77,1.77,0,0,1-.5-.38c-.46-.54-1.29-.7-1.8-1.21-2-1.91-4.11-3.67-5.2-6.21-1.33-3.09-3-6.27-2.76-9.78.14-2.22-.18-4.47.35-6.58a25.85,25.85,0,0,1,3.68-8.83l-.31.2a25.3,25.3,0,0,0-3.69,8.83c-.54,2.11-.21,4.36-.36,6.58-.22,3.51,1.43,6.69,2.76,9.79,1.1,2.53,3.22,4.29,5.2,6.21.52.5,1.34.66,1.8,1.21a2.43,2.43,0,0,0,.51.38c1.15.59,2.47.81,3.65,1.37a6.11,6.11,0,0,0,1.46.78,17.87,17.87,0,0,1,5.75,1.76,1.9,1.9,0,0,1,.79.65l.32-.2"/><path class="cls-7" d="M95.91,121.19a11.65,11.65,0,0,1,0-5.72C97.45,118.63,96.92,121.24,95.91,121.19Z"/><path class="cls-7" d="M106.86,132.23c-1.69.09-4.92,2.26-5.22,2.77C105.24,135,107.38,133.22,106.86,132.23Z"/><path class="cls-7" d="M108.64,131.19c-1.63-1.33-3.38-5.76-3.35-6.45C108.9,127.38,109.81,130.65,108.64,131.19Z"/><path class="cls-7" d="M107.44,131.2c-1.66-1-3.77-4.89-3.81-5.53C107.26,127.66,108.46,130.56,107.44,131.2Z"/><path class="cls-7" d="M103.72,129.55c.24-1.9-1.35-5.89-1.81-6.32C101.21,127.24,102.63,129.94,103.72,129.55Z"/><path class="cls-7" d="M97.2,123.65a10.42,10.42,0,0,1,.12-5.11C98.63,121.39,98.09,123.7,97.2,123.65Z"/><path class="cls-7" d="M93.93,105c.86-1.61,4.39-3.82,5-3.87C97.32,104.63,94.63,105.91,93.93,105Z"/><path class="cls-7" d="M94.1,103.61c.51-1.77,3.55-4.68,4.14-4.87C97.35,102.55,95,104.38,94.1,103.61Z"/><path class="cls-7" d="M100.74,127.72c-1.19-1.5-1.91-5.8-1.74-6.41C101.69,124.36,101.87,127.45,100.74,127.72Z"/><path class="cls-7" d="M93.9,118.86c-1.65.26-5.1-1.13-5.47-1.54C91.9,116.55,94.23,117.82,93.9,118.86Z"/><path class="cls-7" d="M93.37,116.5a9.78,9.78,0,0,1,2.47-4C95.58,115.36,94.06,117,93.37,116.5Z"/><path class="cls-7" d="M105.62,130.74c-2,.1-5.88,2.7-6.23,3.31C103.69,134.09,106.24,131.92,105.62,130.74Z"/><path class="cls-6" d="M95.93,121.15c1,.06,1.53-2.52-.06-5.68C96.16,118.47,96.15,120.89,95.93,121.15Z"/><path class="cls-6" d="M98.6,126a11.56,11.56,0,0,0-5.18-2.71C95.54,126.24,98.16,127,98.6,126Z"/><path class="cls-6" d="M92.77,113.13c-.27-1.95-3-5.52-3.52-5.83C89.61,111.48,91.77,113.8,92.77,113.13Z"/><path class="cls-6" d="M94.77,121.47a10.27,10.27,0,0,0-5-1.15C92.19,122.34,94.6,122.38,94.77,121.47Z"/><path class="cls-6" d="M92.54,115.43a10.06,10.06,0,0,0-4-3.33C89.82,115.11,92,116.22,92.54,115.43Z"/><path class="cls-6" d="M93.19,103.87c.22-1.84-1.32-5.7-1.75-6.12C90.75,101.63,92.13,104.24,93.19,103.87Z"/><path class="cls-6" d="M94.26,100.24a12.13,12.13,0,0,0-.13-5.93c-1.53,3.28-.91,6,.13,5.93Z"/><path class="cls-6" d="M95.46,98.38a10.07,10.07,0,0,0,.83-4.73C94.56,96,94.63,98.25,95.46,98.38Z"/><path class="cls-6" d="M96.88,96.89A9.44,9.44,0,0,0,99,92.65C96.72,94.34,96.13,96.5,96.88,96.89Z"/><path class="cls-6" d="M93,107.4a9.77,9.77,0,0,0-2.4-4.46C90.74,106.54,92.14,107.91,93,107.4Z"/><path class="cls-6" d="M100.82,128.26c-1.48-1.11-5.59-1.64-6.15-1.45C97.67,129.33,100.61,129.38,100.82,128.26Z"/><path class="cls-6" d="M103.7,129.53c-1.08.39-2.49-2.29-1.8-6.29C102.57,126.63,103.38,129.33,103.7,129.53Z"/><path class="cls-6" d="M106.87,132.24c.51,1-1.59,2.78-5.2,2.75C104.53,133.8,106.74,132.6,106.87,132.24Z"/><path class="cls-6" d="M108.64,131.15c1.16-.54.26-3.77-3.35-6.41C107.35,128,108.75,130.73,108.64,131.15Z"/><path class="cls-6" d="M107.43,131.17c1-.64-.17-3.51-3.8-5.5C105.88,128.39,107.48,130.77,107.43,131.17Z"/><path class="cls-6" d="M97.21,123.64c.89,0,1.42-2.25.12-5.09C97.5,121.22,97.43,123.41,97.21,123.64Z"/><path class="cls-6" d="M93.93,105c.7.94,3.35-.32,5-3.88C96.48,103.37,94.31,105,93.93,105Z"/><path class="cls-6" d="M94.13,103.61c.88.77,3.23-1,4.12-4.86C96.32,101.49,94.52,103.55,94.13,103.61Z"/><path class="cls-6" d="M100.75,127.71c1.13-.27.94-3.35-1.74-6.39C100.21,124.58,100.93,127.34,100.75,127.71Z"/><path class="cls-6" d="M93.85,118.84c.34-1-2-2.28-5.44-1.52C91.34,117.85,93.67,118.55,93.85,118.84Z"/><path class="cls-6" d="M93.39,116.5c.69.46,2.19-1.13,2.46-4A16.4,16.4,0,0,1,93.39,116.5Z"/><path class="cls-6" d="M105.61,130.78c.62,1.18-1.9,3.32-6.21,3.28C102.81,132.64,105.46,131.2,105.61,130.78Z"/><path class="cls-6" d="M94.25,119.9a10.81,10.81,0,0,0-4.06-3.85C91.37,119.36,93.59,120.7,94.25,119.9Z"/><path class="cls-7" d="M92.59,107.16A9.87,9.87,0,0,1,97.27,105C95.35,107.53,93,108.05,92.59,107.16Z"/><path class="cls-7" d="M98.58,126c-.44,1-3,.22-5.17-2.71C96,125,98.24,126.12,98.58,126Z"/><path class="cls-7" d="M92.75,113.13c-1,.66-3.13-1.64-3.5-5.81C90.83,110.53,92.36,113,92.75,113.13Z"/><path class="cls-7" d="M94.76,121.48c-.18.91-2.55.87-5-1.15C92.34,121.16,94.49,121.63,94.76,121.48Z"/><path class="cls-7" d="M92.51,115.41c-.56.79-2.7-.31-4-3.32C90.45,114,92.19,115.43,92.51,115.41Z"/><path class="cls-7" d="M93.17,103.85c-1.06.38-2.43-2.21-1.75-6.08C92.06,101.05,92.84,103.65,93.17,103.85Z"/><path class="cls-7" d="M94.23,100.23c-1,.06-1.64-2.63-.11-5.91C93.93,97.43,94,100,94.23,100.23Z"/><path class="cls-7" d="M95.44,98.37c-.83-.13-.89-2.35.84-4.71A16.09,16.09,0,0,0,95.44,98.37Z"/><path class="cls-7" d="M96.86,96.89c-.74-.4-.16-2.54,2.16-4.22A16.66,16.66,0,0,0,96.86,96.89Z"/><path class="cls-7" d="M93,107.4c-.91.51-2.29-.85-2.39-4.46C91.86,105.78,92.7,107.27,93,107.4Z"/><path class="cls-7" d="M100.8,128.26c-.21,1.13-3.13,1.07-6.13-1.43C97.82,127.87,100.46,128.46,100.8,128.26Z"/><path class="cls-7" d="M98.85,126a10.08,10.08,0,0,1-1.61-4.68C99.39,123.4,99.68,125.7,98.85,126Z"/><path class="cls-7" d="M94.82,119.88a11,11,0,0,1-.69-5.58C96.1,117.17,95.86,119.79,94.82,119.88Z"/><path class="cls-7" d="M94.19,119.9c-.65.81-2.84-.52-4-3.85C92.11,118.27,93.86,119.9,94.19,119.9Z"/><path class="cls-6" d="M92.58,107.18c.38.88,2.73.37,4.65-2.16C94.37,106.67,93.24,107.39,92.58,107.18Z"/><path class="cls-6" d="M94.81,119.84c1-.09,1.27-2.68-.7-5.55C94.74,117.17,95,119.56,94.81,119.84Z"/><path class="cls-6" d="M98.86,126c.83-.26.53-2.54-1.61-4.67C98.31,123.65,99,125.66,98.86,126Z"/><path class="cls-6" d="M93,111.5a10.19,10.19,0,0,0-1-6.22C90.87,109,91.94,111.75,93,111.5Z"/><path class="cls-7" d="M93,112c-1.41.32-2.06-2.93-1-6.59C92.23,108.7,92.65,111.76,93,112Z"/><path class="cls-7" d="M92.66,112c-.13-1.83,1.66-5.61,2.13-6C95.27,109.81,93.73,112.36,92.66,112Z"/><path class="cls-6" d="M92.69,112c1,.4,2.59-2.13,2.11-6C94,109.2,93,111.75,92.69,112Z"/><path class="cls-7" d="M93,114.29c0-1.85,2-5.4,2.52-5.74C95.72,112.48,94,114.83,93,114.29Z"/><path class="cls-6" d="M93,114.33c1,.54,2.7-1.79,2.5-5.72C94.47,111.74,93.36,114.18,93,114.33Z"/><ellipse class="cls-8" cx="93.64" cy="101.65" rx="0.26" ry="0.26"/><ellipse class="cls-8" cx="95.64" cy="100.14" rx="0.26" ry="0.26"/><ellipse class="cls-8" cx="94.77" cy="99.33" rx="0.26" ry="0.26"/><ellipse class="cls-9" cx="92.61" cy="116.69" rx="0.3" ry="0.31"/><ellipse class="cls-9" cx="93.21" cy="112.8" rx="0.3" ry="0.31"/><ellipse class="cls-9" cx="96.36" cy="121.88" rx="0.3" ry="0.31"/><ellipse class="cls-9" cx="94.97" cy="122.36" rx="0.3" ry="0.31"/><ellipse class="cls-9" cx="105.55" cy="129.95" rx="0.3" ry="0.31"/><ellipse class="cls-9" cx="106.25" cy="131.67" rx="0.3" ry="0.31"/><path class="cls-5" d="M132.87,103.52c.15.15.29.2.55.46"/><path class="cls-5" d="M131.84,99.38a8.3,8.3,0,0,0-.22-1.21"/><path class="cls-5" d="M132.44,98.89a2.75,2.75,0,0,1-.25,1.34"/><path class="cls-5" d="M131.2,100.1a5.67,5.67,0,0,0,1.25,1"/><path class="cls-5" d="M133.37,101.35a4.73,4.73,0,0,1-.17,1.44"/><path class="cls-5" d="M133.28,103.16l.31-.55"/><path class="cls-5" d="M133.15,105.58a1.49,1.49,0,0,1,.84.85"/><path class="cls-5" d="M134.1,106.11l.39-.53"/><path class="cls-5" d="M134.9,113.05a5.54,5.54,0,0,1-.59.85"/><path class="cls-5" d="M133.37,113.88a4.32,4.32,0,0,0,.62,1"/><path class="cls-5" d="M134.57,116.29a3.16,3.16,0,0,1-1.06,1"/><path class="cls-5" d="M133.55,118.37a5.32,5.32,0,0,0-.88,1.14"/><path class="cls-5" d="M134.68,114.6l-.51.21"/><path class="cls-5" d="M133.84,113l.3.27"/><path class="cls-5" d="M131.92,122.36a2.13,2.13,0,0,0-.51,0"/><path class="cls-5" d="M130.94,121.9l.14.4"/><path class="cls-5" d="M129.24,123.55a4.78,4.78,0,0,0,0,1.36"/><path class="cls-5" d="M130.32,122.72l.24.54"/><path class="cls-5" d="M131.48,123.21l-.61.1"/><path class="cls-5" d="M123.51,129.46l-.22.42"/><path class="cls-5" d="M126.13,128.93a3.9,3.9,0,0,1-1-.05"/><path class="cls-5" d="M123.85,130.32a7.2,7.2,0,0,0-.71-.23"/><path class="cls-5" d="M119.62,130.74a5.51,5.51,0,0,0-.73,1"/><path class="cls-5" d="M118.76,130.62c-.58.31-.76.9-1.06,1.41"/><path class="cls-5" d="M118.37,132.73a11.38,11.38,0,0,1-1.27-.5"/><path class="cls-5" d="M121.1,132.07a4.84,4.84,0,0,0-1.7-.36"/><path class="cls-5" d="M122,131.63a7,7,0,0,0-2.45,0"/><path class="cls-5" d="M121.37,131l-.34-.14"/><path class="cls-5" d="M119.71,132.16l-.55-.32"/><path class="cls-5" d="M133,119.88a4.29,4.29,0,0,0-.9.94"/><path class="cls-5" d="M132.53,101.45l-.52-.17"/><path class="cls-6" d="M112.16,134.14a1.94,1.94,0,0,1,.78-.65,17.68,17.68,0,0,1,5.76-1.76,6.65,6.65,0,0,0,1.45-.78c1.19-.57,2.51-.8,3.66-1.38a1.77,1.77,0,0,0,.5-.38c.46-.54,1.29-.7,1.8-1.21,2-1.91,4.11-3.67,5.2-6.21,1.33-3.09,3-6.27,2.76-9.78-.14-2.22.18-4.46-.35-6.58A26,26,0,0,0,130,96.58l.31.2a25.65,25.65,0,0,1,3.69,8.83c.54,2.11.21,4.36.36,6.58.22,3.51-1.43,6.69-2.76,9.79-1.1,2.53-3.22,4.29-5.2,6.21-.52.5-1.35.66-1.8,1.21a2.43,2.43,0,0,1-.51.38c-1.15.59-2.47.81-3.65,1.37a6.11,6.11,0,0,1-1.46.78,18.12,18.12,0,0,0-5.75,1.76,1.9,1.9,0,0,0-.79.65l-.32-.2"/><path class="cls-6" d="M131.08,121.92c.66-1.81,0-6-.35-6.56C129.14,119.1,129.93,122.05,131.08,121.92Z"/><path class="cls-6" d="M129.39,123.63a10.42,10.42,0,0,0-.12-5.11C128,121.37,128.49,123.68,129.39,123.63Z"/><path class="cls-6" d="M133.4,105.6c-.79-1.49-4-3.51-4.6-3.56C130.28,105.29,132.75,106.47,133.4,105.6Z"/><path class="cls-6" d="M133,103.65a10.41,10.41,0,0,0-3.45-4.06C130.31,102.76,132.29,104.28,133,103.65Z"/><path class="cls-6" d="M134.15,107.28a8.67,8.67,0,0,0-4.06-1.87C131.76,107.61,133.81,108.05,134.15,107.28Z"/><path class="cls-6" d="M133.48,118.55a9.47,9.47,0,0,0,4.86-1.37C135.26,116.5,133.19,117.63,133.48,118.55Z"/><path class="cls-6" d="M133.45,117.18a9.71,9.71,0,0,0-1.9-4.36C131.42,115.73,132.7,117.55,133.45,117.18Z"/><path class="cls-6" d="M133.55,113.85c0-1.85-2-5.4-2.53-5.74C130.82,112,132.54,114.39,133.55,113.85Z"/><path class="cls-6" d="M120.92,132.16c1.07,1.33,4.69,2.7,5.27,2.65C124.09,131.83,121.4,131.15,120.92,132.16Z"/><path class="cls-7" d="M131.06,121.87c-1.15.14-1.93-2.78-.33-6.51C130.61,118.81,130.79,121.59,131.06,121.87Z"/><path class="cls-7" d="M118.32,132.49c1.69.09,4.92,2.26,5.22,2.77C119.94,135.29,117.81,133.48,118.32,132.49Z"/><path class="cls-7" d="M118.32,130.56c.5-1.94,3.58-5.16,4.18-5.39-.86,4.17-3.28,6.21-4.18,5.39Z"/><path class="cls-7" d="M123.4,129.53c-.24-1.9,1.35-5.89,1.81-6.32C125.91,127.22,124.49,129.92,123.4,129.53Z"/><path class="cls-7" d="M128.52,126a11.54,11.54,0,0,1,5.19-2.71C131.58,126.23,129,127,128.52,126Z"/><path class="cls-7" d="M134.68,113a10.94,10.94,0,0,1,2.77-4.58C137.17,111.74,135.47,113.57,134.68,113Z"/><path class="cls-7" d="M131.89,122.3c1.39-1,5.28-1.51,5.82-1.34C134.89,123.31,132.09,123.36,131.89,122.3Z"/><path class="cls-7" d="M134.34,116.34a10.47,10.47,0,0,1,4.24-3.5C137.19,116,134.93,117.16,134.34,116.34Z"/><path class="cls-7" d="M134,105.26c0-1.86,1.9-5.53,2.38-5.9.27,3.93-1.37,6.38-2.38,5.9Z"/><path class="cls-7" d="M132.33,99a10.07,10.07,0,0,1,0-4.88C133.64,96.74,133.19,99,132.33,99Z"/><path class="cls-7" d="M131.32,98.42c-1.26-1.13-2.54-4.8-2.48-5.37C131.64,95.3,132.27,98,131.32,98.42Z"/><path class="cls-7" d="M134.1,106.82a9.66,9.66,0,0,1,3.39-3.72C136.54,106.57,134.86,107.55,134.1,106.82Z"/><path class="cls-7" d="M126,128.69c1.67-1.26,6.33-1.86,7-1.64C129.53,129.91,126.2,130,126,128.69Z"/><path class="cls-7" d="M129.38,123.62c-.89,0-1.42-2.25-.11-5.09C129.09,121.2,129.17,123.39,129.38,123.62Z"/><path class="cls-7" d="M133.4,105.61c-.64.87-3.08-.3-4.56-3.56C131.06,104.14,133.05,105.64,133.4,105.61Z"/><path class="cls-7" d="M133,103.65c-.74.63-2.7-.88-3.44-4.05C131.17,101.88,132.67,103.6,133,103.65Z"/><path class="cls-7" d="M134.16,107.3c-.33.77-2.37.32-4-1.87C132.6,106.86,133.59,107.48,134.16,107.3Z"/><path class="cls-7" d="M133.52,118.54c-.3-.92,1.76-2,4.83-1.35C135.76,117.66,133.68,118.28,133.52,118.54Z"/><path class="cls-7" d="M133.43,117.18c-.75.35-2-1.43-1.89-4.35A16.91,16.91,0,0,0,133.43,117.18Z"/><path class="cls-7" d="M133.53,113.89c-1,.54-2.7-1.79-2.5-5.72C132.08,111.29,133.19,113.74,133.53,113.89Z"/><path class="cls-7" d="M121,132.14c.48-1,3.14-.33,5.24,2.65C123.57,133.15,121.3,132,121,132.14Z"/><path class="cls-6" d="M123.42,129.51c1.08.39,2.49-2.29,1.8-6.29C124.55,126.61,123.74,129.31,123.42,129.51Z"/><path class="cls-6" d="M125.87,128.24c1-1.62,1.33-6,1.1-6.56C124.59,125,124.72,128.08,125.87,128.24Z"/><path class="cls-6" d="M118.31,132.5c-.51,1,1.6,2.78,5.2,2.75C120.66,134.06,118.44,132.86,118.31,132.5Z"/><path class="cls-6" d="M118.35,130.54c.9.82,3.29-1.2,4.15-5.37C120.56,128.19,118.75,130.48,118.35,130.54Z"/><path class="cls-6" d="M128.54,126c.44.95,3,.22,5.17-2.71C131.11,125,128.88,126.1,128.54,126Z"/><path class="cls-6" d="M134.69,113c.79.52,2.47-1.29,2.76-4.57C136.21,111,135,112.94,134.69,113Z"/><path class="cls-6" d="M131.9,122.31c.21,1,3,1,5.81-1.34C134.72,121.94,132.21,122.48,131.9,122.31Z"/><path class="cls-6" d="M134.37,116.32c.59.82,2.84-.33,4.22-3.49C136.54,114.86,134.7,116.34,134.37,116.32Z"/><path class="cls-6" d="M134,105.24c1,.49,2.65-1.94,2.37-5.86C135.4,102.57,134.36,105.07,134,105.24Z"/><path class="cls-6" d="M132.35,98.94c.85,0,1.29-2.19,0-4.86A17,17,0,0,1,132.35,98.94Z"/><path class="cls-6" d="M131.34,98.4c.95-.42.32-3.09-2.49-5.34C130.4,95.74,131.44,98.06,131.34,98.4Z"/><path class="cls-6" d="M134.11,106.83c.76.72,2.43-.26,3.38-3.73C135.63,105.56,134.46,106.79,134.11,106.83Z"/><path class="cls-6" d="M126,128.7c.24,1.27,3.57,1.21,7-1.63C129.36,128.25,126.36,128.92,126,128.7Z"/><path class="cls-6" d="M127.62,126.82a10.15,10.15,0,0,0,.85-4.89C126.68,124.38,126.76,126.69,127.62,126.82Z"/><path class="cls-6" d="M132.3,119.86c.85-1.41.92-5.09.7-5.58C131,117.15,131.26,119.77,132.3,119.86Z"/><path class="cls-7" d="M125.87,128.22c-1.16-.15-1.28-3.23,1.08-6.53C126.09,125.06,125.65,127.88,125.87,128.22Z"/><path class="cls-7" d="M134.26,111.61a9.18,9.18,0,0,1,1.58-5.48C136.46,109.63,135.21,112,134.26,111.61Z"/><path class="cls-7" d="M127.61,126.8c-.86-.12-.93-2.42.85-4.86A16.55,16.55,0,0,0,127.61,126.8Z"/><path class="cls-7" d="M133.19,101.45a10.92,10.92,0,0,1,.29-5.29C134.75,99.14,134.11,101.54,133.19,101.45Z"/><path class="cls-7" d="M119.32,130.67c.59-2,3.87-5.12,4.49-5.33C122.78,129.58,120.22,131.55,119.32,130.67Z"/><path class="cls-7" d="M132.34,120.56a10.89,10.89,0,0,1,4.06-3.85C135.22,120,133,121.36,132.34,120.56Z"/><path class="cls-7" d="M132.31,119.82c-1-.09-1.27-2.68.7-5.55C132.38,117.15,132.11,119.54,132.31,119.82Z"/><path class="cls-6" d="M134.27,112.05c1.23.45,2.17-2.4,1.58-5.81C135.27,109.17,134.56,111.88,134.27,112.05Z"/><path class="cls-6" d="M134.46,112c.13-1.83-1.66-5.61-2.13-6C131.85,109.79,133.39,112.34,134.46,112Z"/><path class="cls-6" d="M133.21,101.44c.91.09,1.54-2.29.28-5.27A19.08,19.08,0,0,1,133.21,101.44Z"/><path class="cls-6" d="M119.35,130.65c.9.88,3.43-1.07,4.47-5.31-2.12,3-4.06,5.26-4.47,5.31Z"/><path class="cls-6" d="M132.39,120.56c.66.81,2.85-.52,4-3.85C134.48,118.93,132.73,120.56,132.39,120.56Z"/><path class="cls-7" d="M134.43,111.93c-1.05.4-2.59-2.13-2.11-6C133.16,109.18,134.1,111.73,134.43,111.93Z"/><ellipse class="cls-9" cx="133.7" cy="102.53" rx="0.26" ry="0.26"/><ellipse class="cls-9" cx="134.61" cy="105.43" rx="0.26" ry="0.26"/><ellipse class="cls-9" cx="134.93" cy="114.55" rx="0.3" ry="0.31"/><ellipse class="cls-9" cx="133.71" cy="112.84" rx="0.3" ry="0.31"/><ellipse class="cls-9" cx="130.19" cy="122.54" rx="0.3" ry="0.31"/><ellipse class="cls-9" cx="131.69" cy="123.2" rx="0.3" ry="0.31"/><ellipse class="cls-9" cx="121.57" cy="131.07" rx="0.3" ry="0.31"/><ellipse class="cls-9" cx="119.9" cy="132.3" rx="0.3" ry="0.31"/><ellipse class="cls-9" cx="131.9" cy="101.16" rx="0.26" ry="0.26"/><g id="b"><path class="cls-10" d="M102.58,122.32a.46.46,0,0,0,.51.51c.09,0,.14-.15,0-.12a.35.35,0,0,1-.29-.09.41.41,0,0,1-.09-.47l-.16.17Z"/><path class="cls-11" d="M103.29,122.83c-.24.28-.61.4-.82.2a.42.42,0,0,1-.11-.47l-.27.3a1.06,1.06,0,0,0,.41.43,1.07,1.07,0,0,0,1.19-1.26.94.94,0,0,0-.47-.41l-.24.27a.36.36,0,0,1,.4.07c.31.25.13.61-.09.86Z"/><path class="cls-12" d="M103.29,122.83a1,1,0,0,1-.28.23.67.67,0,0,1-.35.08.38.38,0,0,1-.17-.08.41.41,0,0,1-.12-.14.48.48,0,0,1-.06-.18.37.37,0,0,1,0-.18l0,0-.26.3v0a1.31,1.31,0,0,0,.25.32l.17.11a.58.58,0,0,0,.19,0,.81.81,0,0,0,.37-.12,1.07,1.07,0,0,0,.31-.25,1.56,1.56,0,0,0,.23-.34,1,1,0,0,0,.09-.39.7.7,0,0,0-.06-.19.57.57,0,0,0-.12-.15.86.86,0,0,0-.33-.23h0l-.25.27,0,0a.38.38,0,0,1,.18,0,.49.49,0,0,1,.17.06.48.48,0,0,1,.22.28.53.53,0,0,1-.05.35,1,1,0,0,1-.2.29Zm0,0a1.32,1.32,0,0,0,.19-.29.51.51,0,0,0,0-.34.43.43,0,0,0-.21-.26.35.35,0,0,0-.33,0l0,0,.25-.27h0a.89.89,0,0,1,.34.23.7.7,0,0,1,.13.17.39.39,0,0,1,.06.21.82.82,0,0,1-.09.41,1.41,1.41,0,0,1-.23.35,1.18,1.18,0,0,1-.32.27,1.09,1.09,0,0,1-.4.12.52.52,0,0,1-.21,0,.57.57,0,0,1-.18-.12,1,1,0,0,1-.25-.33h0l.27-.3,0,0a.33.33,0,0,0,0,.17.49.49,0,0,0,.06.17.45.45,0,0,0,.11.13.29.29,0,0,0,.16.07.59.59,0,0,0,.34-.06,1.18,1.18,0,0,0,.28-.22Z"/><path class="cls-13" d="M121.91,101.16l-9.58,9.61c-.73.74-9.06,8.85-9.81,9.58-.27.32-1,1.18-1.09,1.3-.51.56-1.06,1.29-1.72,1.95-.12.15-.27.1-.41.18a5.62,5.62,0,0,0-1.21,1.06l-2.92,3.29c-.18.21-.23.33-.11.45l1.59,2.16c.29.29.63.44.76.19.75-1.32,2.62-3.34,3.32-4.94a21.48,21.48,0,0,1,1.33-3.11c.46-.52,1.71-1.88,2.82-3.09l.22-.24c.07-.09.15-.17.22-.25,5.62-5.82,12.11-12.9,16.84-17.89-.18-.19-.07-.07-.25-.25Z"/><path class="cls-10" d="M102,120.34a1,1,0,0,1-.68-.34,1.27,1.27,0,0,0,.83.08l-.15.26Z"/><path class="cls-14" d="M131.9,94.07l-7.6,6.38c-.07.09-.15.06-.22,0l-.69-.59v0a.22.22,0,0,0,0-.11l.34-.35c0-.06,0-.08,0-.14l-.14-.14c-.05,0-.1,0-.15,0l-.34.36a.35.35,0,0,0-.33.33c-4.59,4.56-8.54,8.62-13.11,13.1l-5.39,5.24a10.67,10.67,0,0,1-1.58,1.08,1.37,1.37,0,0,0-.43.37l-.44,1.32c-.14.29-.58,1-.6,1,.57.58.54.54.92.91.44-.49,1.6-1.73,2.66-2.88l.2-.24a4.23,4.23,0,0,0-.34-.4l-.28-.27a1.08,1.08,0,0,1-.15-.13s0-.11.1-.15c6.32-6.23,13.12-13.06,18.69-18.63h.09a.37.37,0,0,0,.15,0l.67.78a.33.33,0,0,0,.41.09l7.61-6.94Z"/><path class="cls-12" d="M101.79,120.89h.14a.33.33,0,0,0,.14,0h0c.05-.19.11-.38.17-.57l.18-.58h0a.33.33,0,0,0-.17-.12.34.34,0,0,1,.18.11h0c-.05.19-.11.38-.17.57l-.18.58h0a.28.28,0,0,1-.15,0l-.14,0Z"/><circle class="cls-15" cx="103.52" cy="120.34" r="0.15"/><circle class="cls-15" cx="102.62" cy="121.25" r="0.15"/><path class="cls-12" d="M104.18,118.94a1.81,1.81,0,0,1-.21-.18l-.2-.21.21.19.2.2Z"/><path class="cls-10" d="M118.79,103.55l.84.82.15-.14-.83-.83-.16.15Z"/></g><g id="b-2" data-name="b"><path class="cls-10" d="M123.82,122.75a.45.45,0,0,1-.54.47c-.09,0-.14-.14,0-.12a.31.31,0,0,0,.29-.07.42.42,0,0,0,.12-.46l.15.18Z"/><path class="cls-11" d="M123.08,123.21c.23.3.59.44.81.25A.4.4,0,0,0,124,123l.25.31a1,1,0,0,1-.43.41c-.29.12-.7-.11-.94-.43a.91.91,0,0,1-.18-.89,1,1,0,0,1,.49-.39l.23.28a.4.4,0,0,0-.41.06c-.32.23-.16.6,0,.86Z"/><path class="cls-12" d="M123.08,123.21a.88.88,0,0,0,.26.25.56.56,0,0,0,.35.09.27.27,0,0,0,.17-.06.46.46,0,0,0,.2-.31.41.41,0,0,0,0-.19l0,0,.25.31v0a1.25,1.25,0,0,1-.26.3.59.59,0,0,1-.17.1.41.41,0,0,1-.19,0,.82.82,0,0,1-.37-.13,1.27,1.27,0,0,1-.3-.27,2,2,0,0,1-.21-.35.87.87,0,0,1-.07-.39.44.44,0,0,1,.07-.19,1.58,1.58,0,0,1,.12-.15,1.2,1.2,0,0,1,.34-.21h0l.23.27,0,0a.3.3,0,0,0-.18,0,.41.41,0,0,0-.18.05.51.51,0,0,0-.23.27.53.53,0,0,0,0,.35,1.17,1.17,0,0,0,.19.3Zm0,0a1.49,1.49,0,0,1-.18-.3.53.53,0,0,1,0-.35.45.45,0,0,1,.23-.24.31.31,0,0,1,.32,0l0,0-.23-.28h0a1.13,1.13,0,0,0-.36.22,1,1,0,0,0-.13.16.48.48,0,0,0-.07.2.85.85,0,0,0,.07.42,1.31,1.31,0,0,0,.21.36,1.18,1.18,0,0,0,.31.28.8.8,0,0,0,.39.14.53.53,0,0,0,.22,0l.18-.11a1.18,1.18,0,0,0,.27-.32h0L124,123l0,0a.47.47,0,0,1,0,.17.52.52,0,0,1-.06.16.49.49,0,0,1-.12.13.31.31,0,0,1-.16.06.51.51,0,0,1-.34-.08.88.88,0,0,1-.27-.24Z"/><path class="cls-13" d="M105.53,100.63l9.11,10.09c.69.77,8.62,9.29,9.33,10.06.25.33,1,1.23,1,1.35.48.59,1,1.35,1.62,2,.11.16.26.11.4.2a5.87,5.87,0,0,1,1.16,1.12l2.75,3.43c.17.22.22.35.08.46l-1.68,2.07c-.31.28-.65.41-.77.16-.69-1.36-2.45-3.47-3.08-5.11a22.84,22.84,0,0,0-1.17-3.17c-.44-.55-1.62-2-2.67-3.23l-.21-.25-.21-.26c-5.32-6.1-11.47-13.49-16-18.72.2-.17.07-.07.26-.24Z"/><path class="cls-10" d="M124.47,120.79a.94.94,0,0,0,.7-.3,1.25,1.25,0,0,1-.83,0l.13.26Z"/><path class="cls-14" d="M95.91,93.05l7.27,6.75c.07.1.15.07.22,0l.72-.55v0a.43.43,0,0,1,0-.11l-.32-.37s0-.07,0-.13l.15-.14s.1,0,.15,0l.32.38a.35.35,0,0,1,.31.35c4.36,4.78,8.11,9,12.46,13.75l5.13,5.5a11.06,11.06,0,0,0,1.52,1.15,1.3,1.3,0,0,1,.41.4l.38,1.34c.12.3.53,1,.55,1-.59.55-.56.51-1,.86-.41-.51-1.51-1.81-2.51-3-.08-.1-.08-.11-.18-.25a2.46,2.46,0,0,1,.35-.38l.3-.26.15-.12s0-.11-.09-.16c-6-6.53-12.47-13.71-17.76-19.55h-.09a.33.33,0,0,1-.15,0l-.7.74a.34.34,0,0,1-.42.08l-7.26-7.32Z"/><path class="cls-12" d="M124.67,121.36a.65.65,0,0,1-.14,0,.34.34,0,0,1-.14,0h0l-.15-.59-.15-.58h0a.42.42,0,0,1,.18-.11.35.35,0,0,0-.19.1h0c0,.2.09.39.14.59l.15.58h0l.15,0Z"/><circle class="cls-15" cx="122.98" cy="120.72" r="0.15"/><circle class="cls-15" cx="123.82" cy="121.68" r="0.15"/><path class="cls-12" d="M122.38,119.29a1.24,1.24,0,0,0,.22-.18,1.9,1.9,0,0,0,.21-.19,1.84,1.84,0,0,0-.22.17,2,2,0,0,0-.21.2Z"/><path class="cls-10" d="M108.53,103.17l-.87.79-.15-.15.88-.79.14.15Z"/></g><path class="cls-7" d="M102.5,129.4c-1.88-.81-6.42-.17-7,.22C99.41,131.57,102.57,130.74,102.5,129.4Z"/><path class="cls-7" d="M123.75,130.2c1.88-.8,6.42-.16,7,.23C126.84,132.37,123.67,131.54,123.75,130.2Z"/><path class="cls-6" d="M102.46,129.43c.08,1.33-3,2.16-6.94.22C99.17,129.87,102.15,129.74,102.46,129.43Z"/><path class="cls-6" d="M123.79,130.23c-.08,1.33,3,2.16,6.94.22C127.08,130.67,124.09,130.54,123.79,130.23Z"/><g id="c"><path class="cls-14" d="M120.3,128.09a57,57,0,0,0-18.17-16.53,9.15,9.15,0,0,1,3.51,1.44c5.71,3.75,10.57,8.71,15.67,14.55a8.18,8.18,0,0,1-.82.74l-.19-.2Z"/><path class="cls-11" d="M120.79,128l-.34.34c-5.5-7.2-13.16-14.09-18.31-16.81,7.18,3.37,13.23,10.16,18.63,16.45l0,0Z"/><path class="cls-12" d="M120.8,128l-.35.34h0c-1.27-1.66-2.62-3.25-4-4.8s-2.87-3-4.38-4.46-3.09-2.79-4.73-4.07c-.82-.64-1.66-1.26-2.52-1.84a29.94,29.94,0,0,0-2.66-1.62l0,0a31.62,31.62,0,0,1,5.34,3.23,49.57,49.57,0,0,1,4.78,4c1.52,1.44,3,3,4.38,4.5s2.77,3.13,4.14,4.72Zm0,0c-1.37-1.58-2.75-3.16-4.16-4.7s-2.87-3.06-4.38-4.49a51.17,51.17,0,0,0-4.79-4,32.51,32.51,0,0,0-5.34-3.22l0,0a25.86,25.86,0,0,1,2.66,1.62c.86.58,1.69,1.2,2.51,1.84,1.64,1.29,3.21,2.66,4.73,4.09s3,2.92,4.38,4.47,2.75,3.15,4,4.81h0l.35-.34Z"/><path class="cls-16" d="M122.45,126.89a4.31,4.31,0,0,0-1.25.55,1.22,1.22,0,0,1-.86.8l-.14-.19h0l-.14.09a.34.34,0,0,0-.39.23.81.81,0,0,0,.29.75.67.67,0,0,0,.59.23A.91.91,0,0,0,121,129a14.92,14.92,0,0,0,2.68,2.58c.5,0,.77-.31.6-.68a.28.28,0,0,0-.32-.16.2.2,0,0,0,0-.11c.59-.55.84-1.23.22-2.4-.53-1-1.13-1.31-1.69-1.31Zm1.49,1.11c.11.18.17.33.25.49a1.41,1.41,0,0,1-.56,1.88h0c.1-.16-.2-.52-.35-.39.07-.19-.16-.5-.35-.42.1-.17-.12-.46-.34-.36a.28.28,0,0,0-.29-.41.3.3,0,0,0-.33-.39.36.36,0,0,0-.12-.35,9.31,9.31,0,0,1,.82-.67c.65-.28,1.06.26,1.32.62Z"/><path class="cls-17" d="M124.22,128.77c-.13-.07-.18-.19-.14-.27s.17-.11.29-.05.19.19.15.27a.23.23,0,0,1-.3.05Z"/><path class="cls-17" d="M124.15,128.52a.22.22,0,0,1-.14-.27c0-.08.16-.11.29,0s.19.18.15.26a.23.23,0,0,1-.3.05Z"/><path class="cls-17" d="M124,128.24a.22.22,0,0,1-.14-.27c0-.08.17-.1.29,0s.19.18.15.27a.22.22,0,0,1-.3,0Z"/><path class="cls-17" d="M123.81,128c-.12-.07-.18-.19-.14-.27s.17-.11.29,0,.19.18.15.27a.23.23,0,0,1-.3,0Z"/><path class="cls-17" d="M123.57,127.75c-.13-.06-.18-.18-.14-.26s0,0,0,0,.15,0,.14,0l0,0a.49.49,0,0,1,.16,0c.12.07.19.19.15.27a.23.23,0,0,1-.3.05Z"/><path class="cls-18" d="M121,129a1.49,1.49,0,0,1,.83-.93"/><path class="cls-18" d="M121,129a1,1,0,0,0,.91-.63"/><path class="cls-18" d="M121.3,129.38c.4.09.79-.29.94-.58"/><path class="cls-18" d="M121.66,129.77a1,1,0,0,0,.89-.59"/><path class="cls-18" d="M122,130.14a1,1,0,0,0,.87-.59"/><path class="cls-18" d="M122.37,130.48a.92.92,0,0,0,.86-.51"/><path class="cls-18" d="M122.76,130.82a.83.83,0,0,0,.82-.45"/><path class="cls-18" d="M123.19,131.18a.78.78,0,0,0,.75-.46"/><path class="cls-19" d="M121,129a1.3,1.3,0,0,1,.13-.3,2.11,2.11,0,0,1,.18-.27,1.58,1.58,0,0,1,.23-.22,1.11,1.11,0,0,1,.29-.14.92.92,0,0,0-.27.16,1.2,1.2,0,0,0-.23.22,1.92,1.92,0,0,0-.33.55Z"/><path class="cls-19" d="M121,129a.54.54,0,0,0,.28-.05.77.77,0,0,0,.25-.14,1.37,1.37,0,0,0,.22-.2,1,1,0,0,0,.16-.24.76.76,0,0,1-.15.26,1.34,1.34,0,0,1-.21.2.94.94,0,0,1-.26.14.57.57,0,0,1-.29,0Z"/><path class="cls-19" d="M121.3,129.38a.57.57,0,0,0,.29,0,1.26,1.26,0,0,0,.26-.13,2.09,2.09,0,0,0,.22-.2,2,2,0,0,0,.17-.23,1,1,0,0,1-.16.25,1.42,1.42,0,0,1-.22.2.91.91,0,0,1-.26.13.51.51,0,0,1-.3,0Z"/><path class="cls-19" d="M121.66,129.77a1.17,1.17,0,0,0,.27-.05,1,1,0,0,0,.25-.12,1,1,0,0,0,.21-.19,1.34,1.34,0,0,0,.16-.23,1.09,1.09,0,0,1-.35.44.88.88,0,0,1-.26.12.89.89,0,0,1-.28,0Z"/><path class="cls-19" d="M122,130.14a1,1,0,0,0,.51-.19,1.12,1.12,0,0,0,.2-.18.89.89,0,0,0,.16-.22.84.84,0,0,1-.14.24.91.91,0,0,1-.21.18.85.85,0,0,1-.25.13.8.8,0,0,1-.27,0Z"/><path class="cls-19" d="M122.37,130.48a1.19,1.19,0,0,0,.26,0l.24-.09a.8.8,0,0,0,.21-.15,1.07,1.07,0,0,0,.15-.22.68.68,0,0,1-.14.23.65.65,0,0,1-.21.16,1.16,1.16,0,0,1-.51.12Z"/><path class="cls-19" d="M122.76,130.82a.93.93,0,0,0,.24,0,.9.9,0,0,0,.23-.08l.2-.14a1,1,0,0,0,.15-.2.74.74,0,0,1-.13.21.8.8,0,0,1-.21.15.63.63,0,0,1-.23.08A.7.7,0,0,1,122.76,130.82Z"/><path class="cls-19" d="M123.19,131.18l.23,0,.21-.09a1.22,1.22,0,0,0,.17-.15l.14-.19a.87.87,0,0,1-.3.36.85.85,0,0,1-.22.09.91.91,0,0,1-.23,0Z"/></g><g id="c-2" data-name="c"><path class="cls-14" d="M106.36,127.47a57,57,0,0,1,19.1-15.41,9.07,9.07,0,0,0-3.58,1.24c-5.92,3.39-11.06,8-16.5,13.57a9.71,9.71,0,0,0,.78.79l.2-.19Z"/><path class="cls-11" d="M105.87,127.38l.33.36c5.9-6.86,14-13.27,19.25-15.67-7.36,2.92-13.79,9.34-19.55,15.29l0,0Z"/><path class="cls-12" d="M105.87,127.38l.33.36h0c1.36-1.58,2.8-3.09,4.3-4.55s3-2.85,4.64-4.18,3.24-2.61,5-3.78c.85-.59,1.72-1.16,2.61-1.69a30.1,30.1,0,0,1,2.75-1.45l0,0a32.28,32.28,0,0,0-5.52,2.9,52.26,52.26,0,0,0-5,3.75c-1.6,1.35-3.13,2.77-4.63,4.23s-3,3-4.41,4.46Zm0,0c1.46-1.5,2.93-3,4.43-4.45s3-2.87,4.63-4.21a50.55,50.55,0,0,1,5-3.74,32.23,32.23,0,0,1,5.52-2.89l0,0a28.93,28.93,0,0,0-2.75,1.46c-.89.53-1.76,1.1-2.62,1.69-1.71,1.18-3.36,2.46-5,3.79s-3.14,2.74-4.63,4.19-2.92,3-4.28,4.57h0l-.33-.36Z"/><path class="cls-16" d="M104.28,126.14a4.58,4.58,0,0,1,1.23.62,1.19,1.19,0,0,0,.8.86l.16-.18s0,0,0,0l.13.09a.37.37,0,0,1,.38.26c.08.24-.12.54-.34.73s-.34.24-.59.19a.79.79,0,0,1-.44-.4,15,15,0,0,1-2.83,2.42c-.5,0-.75-.36-.56-.71a.27.27,0,0,1,.33-.14.4.4,0,0,1,0-.11,1.75,1.75,0,0,1-.07-2.41c.58-.95,1.2-1.24,1.76-1.21Zm-1.55,1c-.11.18-.18.33-.27.49a1.4,1.4,0,0,0,.45,1.9h0c-.09-.17.22-.51.37-.38-.06-.19.19-.48.37-.39-.09-.17.15-.45.36-.34a.28.28,0,0,1,.32-.39.29.29,0,0,1,.34-.37.38.38,0,0,1,.15-.34,8.41,8.41,0,0,0-.78-.72c-.64-.32-1.07.2-1.36.53Z"/><path class="cls-17" d="M102.41,127.91a.23.23,0,0,0,.16-.26c0-.09-.16-.12-.29-.06s-.2.16-.16.25.17.12.29.07Z"/><path class="cls-17" d="M102.5,127.66a.22.22,0,0,0,.16-.26.23.23,0,0,0-.29-.06c-.13.06-.2.17-.17.26a.23.23,0,0,0,.3.06Z"/><path class="cls-17" d="M102.66,127.4a.23.23,0,0,0,.16-.26c0-.09-.16-.12-.29-.06s-.2.17-.16.25.17.12.29.07Z"/><path class="cls-17" d="M102.86,127.16a.22.22,0,0,0,.16-.26c0-.08-.16-.11-.29-.06s-.2.17-.16.26a.21.21,0,0,0,.29.06Z"/><path class="cls-17" d="M103.12,126.94a.23.23,0,0,0,.16-.26s0,0,0,0-.16,0-.14,0,0-.06,0,0a.49.49,0,0,0-.16.05c-.13,0-.2.17-.16.25s.17.12.29.07Z"/><path class="cls-18" d="M105.65,128.3a1.51,1.51,0,0,0-.78-1"/><path class="cls-18" d="M105.59,128.36c-.3,0-.77-.35-.87-.68"/><path class="cls-18" d="M105.29,128.7c-.4.07-.77-.35-.91-.64"/><path class="cls-18" d="M104.91,129.06a1,1,0,0,1-.86-.64"/><path class="cls-18" d="M104.53,129.41a1.06,1.06,0,0,1-.84-.64"/><path class="cls-18" d="M104.16,129.73a.93.93,0,0,1-.83-.56"/><path class="cls-18" d="M103.75,130.05a.87.87,0,0,1-.8-.5"/><path class="cls-18" d="M103.3,130.37a.76.76,0,0,1-.72-.5"/><path class="cls-19" d="M105.65,128.3c0-.1-.07-.2-.11-.3a2.61,2.61,0,0,0-.17-.28,1.7,1.7,0,0,0-.22-.24,1.08,1.08,0,0,0-.28-.15.9.9,0,0,1,.26.17,1.26,1.26,0,0,1,.22.24,2.32,2.32,0,0,1,.3.56Z"/><path class="cls-19" d="M105.59,128.36a.55.55,0,0,1-.28-.06,1,1,0,0,1-.24-.16,1.34,1.34,0,0,1-.2-.21.79.79,0,0,1-.15-.25.64.64,0,0,0,.13.26,1.42,1.42,0,0,0,.2.22,1.32,1.32,0,0,0,.25.16.48.48,0,0,0,.29,0Z"/><path class="cls-19" d="M105.29,128.7a.7.7,0,0,1-.29,0,1.28,1.28,0,0,1-.25-.15,1.34,1.34,0,0,1-.2-.21,1.38,1.38,0,0,1-.17-.25,1.27,1.27,0,0,0,.36.48.79.79,0,0,0,.25.15.61.61,0,0,0,.3,0Z"/><path class="cls-19" d="M104.91,129.06a1.18,1.18,0,0,1-.27-.06,1,1,0,0,1-.24-.14,1.26,1.26,0,0,1-.2-.2,2.52,2.52,0,0,1-.15-.24,1.09,1.09,0,0,0,.33.46.89.89,0,0,0,.25.14.86.86,0,0,0,.28,0Z"/><path class="cls-19" d="M104.53,129.41a.94.94,0,0,1-.5-.22,1.31,1.31,0,0,1-.34-.42.92.92,0,0,0,.13.24,1.26,1.26,0,0,0,.2.2.72.72,0,0,0,.24.14.6.6,0,0,0,.27.06Z"/><path class="cls-19" d="M104.16,129.73l-.26-.06-.23-.11a.82.82,0,0,1-.2-.17.64.64,0,0,1-.14-.22.68.68,0,0,0,.12.24,1.2,1.2,0,0,0,.21.17,1.08,1.08,0,0,0,.5.15Z"/><path class="cls-19" d="M103.75,130.05a.93.93,0,0,1-.24-.05.67.67,0,0,1-.23-.1.9.9,0,0,1-.19-.15,1.43,1.43,0,0,1-.14-.2.57.57,0,0,0,.13.21.77.77,0,0,0,.19.17.92.92,0,0,0,.23.09A1.07,1.07,0,0,0,103.75,130.05Z"/><path class="cls-19" d="M103.3,130.37a.57.57,0,0,1-.22,0,.68.68,0,0,1-.21-.1,1.29,1.29,0,0,1-.17-.16l-.12-.2a.76.76,0,0,0,.28.38.68.68,0,0,0,.21.1.62.62,0,0,0,.23,0Z"/></g><path class="cls-6" d="M96.61,98.92c1.72-.58,4.47-3.76,4.65-4.36-3.73,1-5.44,3.49-4.65,4.36Z"/><path class="cls-6" d="M131.4,100.06c-.4-1.71-3.17-4.62-3.72-4.84C128.34,98.9,130.53,100.75,131.4,100.06Z"/><path class="cls-7" d="M96.61,98.92c-.8-.87.9-3.33,4.61-4.34-2.61,2-4.58,3.94-4.61,4.34Z"/><path class="cls-7" d="M131.4,100.06c-.87.7-3-1.13-3.7-4.81C129.41,97.94,131,100,131.4,100.06Z"/><path class="cls-20" d="M106.87,117.9s-1.48.16-1.89-1.9,1.27-2.45,1.27-2.45,1.93-.19,3.14-.22l.53,4.37-3,.2Z"/><path class="cls-21" d="M107.06,117.24s-1,.18-1.15-1.35c-.14-1.09.52-1.25.52-1.25l2.21.38v2l-1.59.21Z"/><path class="cls-22" d="M106.43,114.64s1.41-.1,2.15-.2l.3,1.39-1.69.11S107.07,114.69,106.43,114.64Z"/><path class="cls-23" d="M106.14,113.59a1.61,1.61,0,0,1,2,1.58,2.14,2.14,0,0,1-1.11,2.07l3.31-.36-.3-3.65-1.11.1a19.12,19.12,0,0,0-2.82.26Z"/><path class="cls-24" d="M106.86,117.9s12.39-.85,13.66-.79c3.76-2.1,0-10.35-3.18-15,.36-1-7.13-3.37-10.52-3.16l-1.23.08c-1.84.2-1.86,2.6-1.11,4.12s7.24,13.4,2.66,14.67l-.28.05Z"/><path class="cls-25" d="M120.14,107a37.57,37.57,0,0,0-2.8-4.88c.36-1-7.13-3.38-10.52-3.16l-1.23.08c-1.84.2-1.86,2.6-1.11,4.12.23.46,1,1.95,1.88,3.82"/><path class="cls-26" d="M107.54,109.84c1.33,3.56,2.07,7.33-.39,8l-.28.06s12.39-.85,13.66-.79c2-1.14,1.86-4.09.76-7.29"/><path class="cls-27" d="M105.72,99.76c-.89,0-1.11.87-1.1,1.41,0,1.44,1.1,1.51,1.1,1.51l1.42-.08.68-3-2.1.12Z"/><path class="cls-28" d="M105.72,99.77l2.1-.12.22,2.21-1.84.08s.6-1.77-.48-2.17Z"/><path class="cls-29" d="M117.35,102.14c1.59-.26,1.57-2.45.48-3.32a118,118,0,0,0-12.09.23,1.52,1.52,0,0,1,1.64,1.58,2,2,0,0,1-.73,1.7,1.61,1.61,0,0,1-.93.36,7,7,0,0,0,.86,0l.73-.08a64.85,64.85,0,0,1,10-.45Z"/><path class="cls-30" d="M108.36,105.58c0-.08-.08-.18-.17-.2s-.16,0-.14-.09.13,0,.19,0l.4,0c.08,0,.06.13,0,.11s0,.14,0,.2c.1.25.2.5.31.75a.23.23,0,0,0,.18.15.47.47,0,0,0,.26,0c.07,0,.05-.15,0-.23s.13-.07.12,0a2.83,2.83,0,0,0,.11.31s-.07,0-.1,0c-.24,0-.48,0-.71.06-.08,0-.19.06-.24,0s.12,0,.14-.11a.57.57,0,0,0-.07-.22c-.09-.23-.19-.45-.28-.67Z"/><path class="cls-30" d="M109.51,105.5c0-.08-.07-.18-.16-.2s-.16,0-.15-.09.11,0,.16,0a3,3,0,0,0,.42,0c.07,0,.1.13,0,.11s-.09.1-.06.16c.11.28.23.55.35.83,0,.06,0,.13.12.14s.16,0,.17.08-.1,0-.15,0a1.54,1.54,0,0,0-.37,0s-.13,0-.13-.07.14,0,.14-.1a1.19,1.19,0,0,0-.08-.22l-.27-.65Z"/><path class="cls-30" d="M110.58,105.67s.09,0,.14,0,.13-.06.12-.13a.37.37,0,0,0-.15-.28.35.35,0,0,0-.28,0,.3.3,0,0,0,0,.11l.13.32Zm.16.39a.7.7,0,0,0,.13.24.24.24,0,0,0,.2,0,.11.11,0,0,0,.1-.15.47.47,0,0,0-.3-.35h-.22a.45.45,0,0,0,0,.11l.06.13Zm-.49-.58c0-.08-.07-.19-.16-.23s-.16,0-.17-.07.14,0,.19,0a1.62,1.62,0,0,1,.62,0,.45.45,0,0,1,.35.38.24.24,0,0,1-.14.21s.09,0,.12,0a.53.53,0,0,1,.33.27.31.31,0,0,1,0,.32.48.48,0,0,1-.34.11,4.9,4.9,0,0,0-.54,0c-.06,0-.11-.11,0-.11s.09-.1.06-.16l-.31-.74Z"/><path class="cls-30" d="M112,105c.08,0,.09.07.11.13a.84.84,0,0,1,.08.2c-.06.07-.11,0-.14-.09a.22.22,0,0,0-.17-.11,1.42,1.42,0,0,0-.29,0s0,.09,0,.14a3.05,3.05,0,0,0,.13.32c.07,0,.15,0,.2,0s-.07-.18,0-.15.06.14.09.21.1.18.12.27-.12,0-.15-.08-.15-.08-.22-.08,0,0,0,.07a3.88,3.88,0,0,0,.15.36c0,.08.16.07.24.07a.25.25,0,0,0,.22-.08c.05-.06-.06-.19,0-.2s.08.09.1.14,0,.14.07.2-.06,0-.1,0l-.73.05c-.07,0-.19.06-.21-.05s.15,0,.13-.13a1.7,1.7,0,0,0-.09-.24l-.27-.66c0-.07-.09-.15-.17-.15s-.15,0-.11-.1a2.09,2.09,0,0,1,.25,0l.66,0Z"/><path class="cls-30" d="M112.57,105.34a.35.35,0,0,0-.16-.23c-.06,0-.17,0-.16-.09s.15,0,.23,0a2.18,2.18,0,0,1,.57,0,.54.54,0,0,1,.38.45.23.23,0,0,1-.17.21c-.07,0,.06,0,.08,0a.77.77,0,0,1,.33.36s.13.17.14.06.16,0,.12.06a.15.15,0,0,1-.16.14.28.28,0,0,1-.27-.15c-.11-.13-.17-.3-.31-.4a.2.2,0,0,0-.2,0s0,.07,0,.1a1.6,1.6,0,0,0,.13.3.26.26,0,0,0,.22.09c.09,0,.06.14,0,.1a2,2,0,0,0-.42,0c-.06,0-.2,0-.15-.09s.16,0,.11-.13-.16-.42-.25-.63l-.06-.15Zm.34.22c0,.07.14,0,.2,0s.09-.12.06-.19-.09-.25-.21-.29-.2,0-.21,0,.1.26.15.39v0Z"/><path class="cls-30" d="M114.63,106c0,.07.05.15.13.16s.16,0,.17.08-.1,0-.15,0a1.2,1.2,0,0,0-.38,0c-.06,0-.14,0-.13-.08s.16,0,.15-.1-.07-.18-.1-.28l-.27-.7c0-.07-.11-.07-.17-.07s-.16,0-.16.1,0,.15,0,.18-.09-.06-.11-.12a2,2,0,0,0-.09-.22s.08,0,.12,0l1,0a.11.11,0,0,1,.12.12,1.15,1.15,0,0,0,.1.23c0,.08-.12,0-.13,0a.33.33,0,0,0-.23-.17c-.06,0-.15,0-.19,0a.43.43,0,0,0,0,.16l.29.75Z"/><path class="cls-30" d="M115.52,105.75s0,.06,0,.09,0,.14,0,.21.13,0,.19.07,0,.13,0,.1a.81.81,0,0,0-.31,0c-.06,0-.17,0-.11-.1s.1,0,.11-.08a3,3,0,0,0,0-.31v-.9c0-.07.12,0,.14,0,.29.37.57.74.86,1.1a.29.29,0,0,0,.19.11c.06,0,.09.13,0,.1a1.09,1.09,0,0,0-.36,0c-.06,0-.12,0-.17,0s0-.11,0-.1,0-.11,0-.16l-.14-.18s-.09,0-.14,0Zm.28-.12s0,0,0-.06l-.3-.4s0,0,0,.06v.41Z"/><path class="cls-30" d="M116.53,105.18c0-.1-.08-.22-.19-.24s-.17,0-.11-.11.26,0,.39,0a1.07,1.07,0,0,1,1.2.86.39.39,0,0,1-.15.39.94.94,0,0,1-.59.09,1.88,1.88,0,0,0-.34,0c-.07,0-.08-.13,0-.11s.08-.11,0-.17l-.27-.73Zm.47.6c0,.09.06.19.14.24a.36.36,0,0,0,.23,0,.21.21,0,0,0,.17-.22,1,1,0,0,0-.15-.52A.62.62,0,0,0,117,105a.65.65,0,0,0-.24,0s0,.06,0,.09l.26.73Z"/><path class="cls-30" d="M112,108.8a.24.24,0,0,0,.19.16c.07,0,.17,0,.17.08s-.12,0-.18,0a2.31,2.31,0,0,0-.37,0,.66.66,0,0,1-.2,0,.06.06,0,0,1,0-.11c.06,0,.14,0,.15-.11a1.46,1.46,0,0,0-.07-.19c-.09-.22-.18-.45-.28-.67s-.1-.08-.17-.07-.14,0-.16,0,.12-.06.17-.1l.22-.08c.06,0,.08,0,.09.08.14.33.28.66.41,1Z"/><path class="cls-30" d="M112.14,107.71c.16,0,.33,0,.49,0s0-.12.09-.12.08.12.08.18a.12.12,0,0,1-.13.14c-.13,0-.26,0-.39,0a2.49,2.49,0,0,0,.11.29s.11,0,.15,0a.68.68,0,0,1,.63.37.37.37,0,0,1,0,.38.48.48,0,0,1-.38.13.35.35,0,0,1-.32-.13s0-.17.05-.16.16.07.14.15.13,0,.19,0a.14.14,0,0,0,.14-.13.62.62,0,0,0-.11-.33.35.35,0,0,0-.31-.17c-.07,0-.13,0-.2,0s-.08-.09-.11-.14-.11-.29-.15-.44a0,0,0,0,1,0,0Z"/><path class="cls-30" d="M113.78,108c0-.09-.09-.21-.2-.23s-.17,0-.11-.11h.4a1,1,0,0,1,1.2.86.38.38,0,0,1-.15.38,1,1,0,0,1-.58.1,1.66,1.66,0,0,0-.32,0c-.07,0-.09-.12,0-.11s.08-.11,0-.17c-.1-.25-.2-.49-.29-.74Zm.48.6c0,.09.06.19.14.24a.48.48,0,0,0,.24,0,.23.23,0,0,0,.16-.23,1,1,0,0,0-.17-.51.64.64,0,0,0-.45-.33.59.59,0,0,0-.23,0s0,.06,0,.09c.1.25.2.49.29.73Z"/><path class="cls-30" d="M115.8,107.52c.07,0,.08.07.1.12l.09.2c0,.08-.12,0-.14-.07s-.09-.12-.16-.12a1.51,1.51,0,0,0-.3,0s0,.09,0,.13.09.23.13.33a.3.3,0,0,0,.19,0s-.06-.18,0-.17.07.14.1.21.09.18.12.27-.13,0-.14-.07a.2.2,0,0,0-.2-.09c-.05,0-.09,0-.05.06s.09.25.15.37.16.08.24.07.18,0,.23-.07,0-.16,0-.2.1.07.12.13a1.11,1.11,0,0,0,.07.22s-.07,0-.11,0l-.73,0c-.07,0-.17.05-.21,0s.12,0,.12-.13a.42.42,0,0,0-.06-.21c-.09-.23-.17-.47-.27-.7a.24.24,0,0,0-.18-.17s-.14,0-.1-.1h.26l.66,0Z"/><path class="cls-30" d="M109.29,111c0,.12.16.17.26.2a1,1,0,0,1,.51.28.45.45,0,0,1,.12.33.29.29,0,0,1-.22.24.58.58,0,0,1-.41,0c-.07,0,0,.12-.12.07s0-.14-.07-.2l-.09-.23c0-.08.11,0,.12,0a.45.45,0,0,0,.38.27c.09,0,.2,0,.2-.14a.34.34,0,0,0-.2-.29c-.15-.08-.33-.1-.48-.19a.47.47,0,0,1-.22-.39.23.23,0,0,1,.18-.22.59.59,0,0,1,.37,0c.06,0,.08-.06.15,0s0,.11,0,.16a1.67,1.67,0,0,1,.08.2c0,.06-.11,0-.12-.05a.34.34,0,0,0-.24-.2.3.3,0,0,0-.24.07.15.15,0,0,0,0,.13Z"/><path class="cls-30" d="M110.88,110.59c.08,0,.08.07.1.13s0,.12.07.19-.12,0-.13,0-.08-.14-.16-.13a1.43,1.43,0,0,0-.29,0s0,.1,0,.14.07.22.11.33a.31.31,0,0,0,.19,0s0-.15,0-.17.08.11.11.17.08.2.11.31-.13,0-.13-.06a.17.17,0,0,0-.19-.09s-.1,0-.07,0,.08.25.13.37.11.08.18.08.2,0,.27-.07,0-.14,0-.21.13,0,.12.08a1.82,1.82,0,0,0,.07.25c0,.05-.07,0-.11,0l-.73.06c-.06,0-.16.06-.2,0s.11,0,.13-.12,0-.14,0-.21l-.24-.72c0-.07-.08-.16-.17-.16s-.14,0-.1-.1h.25l.66,0Z"/><path class="cls-30" d="M111.88,111.6a.23.23,0,0,0,.15.17c.06,0,.16,0,.17.06s-.12,0-.17,0a2.19,2.19,0,0,0-.36,0s-.13,0-.15,0,.11,0,.14-.09,0-.13,0-.19l-.24-.73c0-.07-.07-.17-.15-.17s-.15,0-.14-.09.12,0,.17,0,.35,0,.52,0a.47.47,0,0,1,.42.3.31.31,0,0,1,0,.31.56.56,0,0,1-.38.15s0,0,0,.07,0,.16.07.24Zm-.13-.42.16,0A.14.14,0,0,0,112,111a.51.51,0,0,0-.13-.29.3.3,0,0,0-.26,0s0,.08,0,.12.09.26.13.4Z"/><path class="cls-30" d="M113.21,111.52c0,.07,0,.15.12.16s.16,0,.17.08-.11,0-.16,0a1.63,1.63,0,0,0-.38,0s-.13,0-.12-.08.16,0,.15-.1a2.86,2.86,0,0,0-.07-.28c-.08-.23-.15-.47-.23-.7,0-.08-.1-.07-.16-.07s-.15,0-.17.09,0,.13,0,.19-.11,0-.11-.08a1.83,1.83,0,0,0-.08-.25s.07,0,.11,0l1-.06c.07,0,.12,0,.12.11a2.25,2.25,0,0,0,.08.24c0,.07-.12,0-.12,0a.29.29,0,0,0-.21-.19.37.37,0,0,0-.21,0,.4.4,0,0,0,0,.15c.09.26.17.52.25.77Z"/><path class="cls-30" d="M113.72,110.72c0-.07-.06-.16-.14-.19s-.16,0-.15-.08.1,0,.14,0,.29,0,.43,0,.12.1,0,.1-.13.05-.11.12.08.25.12.38l.17.53c0,.06.06.11.12.11s.16,0,.14.09-.12,0-.17,0a1.58,1.58,0,0,0-.38,0c-.06,0-.13,0-.1-.09s.16,0,.15-.1-.06-.19-.09-.29-.12-.38-.17-.57Z"/><path class="cls-30" d="M115.09,110.34c.08,0,.08.07.1.12l.06.2c0,.07-.11,0-.12,0s-.08-.14-.16-.14h-.3s0,.1,0,.14.06.22.1.33a.3.3,0,0,0,.19,0s0-.15,0-.17.08.11.1.17a2.83,2.83,0,0,0,.11.31c0,.07-.13,0-.13,0a.15.15,0,0,0-.17-.1s-.12,0-.09,0a2.43,2.43,0,0,0,.13.38c0,.07.1.08.17.08s.2,0,.28-.06,0-.15,0-.21a.08.08,0,0,1,.12.08l.06.25c0,.05-.06,0-.1,0l-.74,0c-.06,0-.15.05-.2,0s.09-.06.12-.12,0-.13,0-.2c-.08-.24-.15-.48-.23-.72,0-.08-.08-.17-.17-.18s-.14,0-.1-.1h.25l.67,0Z"/><path class="cls-30" d="M115.57,110.57c0-.09-.08-.17-.18-.15s-.12-.14,0-.11a1.51,1.51,0,0,1,.37,0l.16.21.52.71s0,0,0-.08l.09-.86c.06,0,.17,0,.26,0s.22,0,.17.09-.18,0-.12.16c.08.29.17.58.26.87a.17.17,0,0,0,.21.12c.07,0,.08.14,0,.11a3,3,0,0,0-.42,0c-.06,0-.2,0-.15-.08s.19,0,.14-.14l-.24-.77s0,.06,0,.09c0,.24,0,.48-.07.72,0,.06,0,.14,0,.19s-.09,0-.12-.06l-.68-.9s0,0,0,.07c.08.23.15.47.22.7a.2.2,0,0,0,.2.12c.1,0,0,.14-.05.1a1.45,1.45,0,0,0-.36,0,.06.06,0,1,1,0-.11c.11,0,.08-.12,0-.19l-.24-.8Z"/><path class="cls-30" d="M117.65,110.78s.09,0,.13,0,.15,0,.15-.12a.38.38,0,0,0-.12-.29.37.37,0,0,0-.27,0,.2.2,0,0,0,0,.11Zm.12.38a.71.71,0,0,0,.11.25c.06,0,.13,0,.2,0a.11.11,0,0,0,.11-.12A.42.42,0,0,0,118,111a.53.53,0,0,0-.25,0s0,.07,0,.1l0,.13Zm-.42-.58c0-.08-.06-.19-.14-.23s-.16,0-.16-.08.13,0,.18,0a2,2,0,0,1,.64,0,.41.41,0,0,1,.3.38.23.23,0,0,1-.16.21s.09,0,.12,0a.48.48,0,0,1,.29.27.31.31,0,0,1,0,.32.42.42,0,0,1-.34.11,3.63,3.63,0,0,0-.57,0c-.07,0-.09-.12,0-.11s.11-.09.08-.16c-.07-.25-.15-.49-.22-.74Z"/><path class="cls-30" d="M118.54,110.54a.3.3,0,0,0-.14-.23c-.05,0-.16,0-.15-.09s.15,0,.22,0,.33,0,.49,0a.48.48,0,0,1,.41.35.23.23,0,0,1-.08.29s-.12.05-.11.05a.65.65,0,0,1,.34.31,1.18,1.18,0,0,0,.11.19c.06,0,.07,0,.08-.08s.13.08.1.14a.2.2,0,0,1-.26.1.3.3,0,0,1-.18-.15,2,2,0,0,0-.24-.4.23.23,0,0,0-.21,0s0,.07,0,.1a2.46,2.46,0,0,0,.09.29c0,.08.13.09.21.1s.08.13,0,.1a2.16,2.16,0,0,0-.44,0c-.05,0-.12,0-.16,0s.1-.05.14-.11a.34.34,0,0,0,0-.2c-.06-.22-.12-.44-.19-.66Zm.32.22c0,.08.13,0,.19,0a.11.11,0,0,0,.09-.15.46.46,0,0,0-.13-.31.33.33,0,0,0-.26,0s0,.08,0,.12.06.22.1.33Z"/><path class="cls-30" d="M120.5,110.14c.07,0,.08.08.09.13a1.52,1.52,0,0,1,.06.2c0,.06-.11,0-.12,0s-.07-.14-.15-.15h-.31s0,.1,0,.14.06.22.1.33a.52.52,0,0,0,.18,0c.07,0,0-.15.05-.17s.09.09.1.15.07.22.1.33-.13,0-.13-.06a.16.16,0,0,0-.16-.11s-.13,0-.1,0a2.4,2.4,0,0,0,.12.38c0,.07.1.09.17.09s.2,0,.28-.06,0-.14,0-.2.13,0,.12.09,0,.16,0,.25-.07,0-.11,0l-.74,0c-.06,0-.15,0-.2,0s.08-.07.12-.11,0-.12,0-.18l-.21-.75c0-.08-.06-.17-.15-.18s-.15,0-.12-.1a1,1,0,0,1,.24,0l.7,0Z"/><path class="cls-30" d="M112.66,113.34c0-.09,0-.21-.15-.23s-.15,0-.12-.1a.93.93,0,0,1,.24,0,2,2,0,0,1,.59,0,.88.88,0,0,1,.62.58.6.6,0,0,1-.06.54.62.62,0,0,1-.53.21,2.22,2.22,0,0,0-.44,0s-.15,0-.1-.08.16,0,.14-.13-.06-.25-.08-.37-.07-.28-.11-.42Zm.4.59a.46.46,0,0,0,.09.23.42.42,0,0,0,.22,0,.27.27,0,0,0,.21-.23.85.85,0,0,0-.09-.54.51.51,0,0,0-.34-.3.88.88,0,0,0-.28,0s0,.07,0,.1l.18.73Z"/><path class="cls-30" d="M114.74,112.85c.08,0,.08.08.09.13s0,.13,0,.2-.12,0-.12-.05-.06-.14-.14-.14a1.61,1.61,0,0,0-.31,0s0,.1,0,.14,0,.22.08.33a.31.31,0,0,0,.19,0c0-.05,0-.15,0-.17s.07.11.09.17a2.81,2.81,0,0,0,.08.31c0,.07-.13,0-.12,0a.15.15,0,0,0-.17-.1s-.12,0-.09,0a2.36,2.36,0,0,0,.1.38c0,.07.1.08.17.08A.44.44,0,0,0,115,114c0-.05,0-.14,0-.2s.11,0,.1.1,0,.16,0,.24-.07,0-.11,0l-.73,0c-.07,0-.14,0-.19,0s0-.1.08-.11.06-.11,0-.16c-.06-.27-.12-.53-.19-.79,0-.07,0-.17-.14-.17s-.14,0-.11-.1.16,0,.23,0l.7-.05Z"/><path class="cls-30" d="M116.29,113.85a.18.18,0,0,0,.14.15c.06,0,.15,0,.18.06s-.09.06-.14.06a2.75,2.75,0,0,0-.41,0,1.48,1.48,0,0,1-.21,0,.06.06,0,0,1,0-.11c.06,0,.15,0,.17-.1a1.08,1.08,0,0,0,0-.19c0-.23-.1-.45-.16-.68,0-.08-.09-.08-.15-.07s-.14,0-.16,0,.11-.06.16-.1l.27-.09c.05,0,.07,0,.07.08.08.33.16.67.23,1Z"/><path class="cls-30" d="M117.17,113c0-.09-.06-.19-.16-.2a.15.15,0,0,0-.19.08.24.24,0,0,0,.09.25,1.06,1.06,0,0,0,.21.11.26.26,0,0,0,.06-.14.34.34,0,0,0,0-.1Zm.2.71c0-.12-.13-.19-.24-.24s-.1-.06-.13,0a.28.28,0,0,0-.08.27.3.3,0,0,0,.24.24.17.17,0,0,0,.21-.11.24.24,0,0,0,0-.12Zm.21-.06a.28.28,0,0,1-.11.32.54.54,0,0,1-.48.06.39.39,0,0,1-.28-.31.3.3,0,0,1,.12-.32s.12,0,0,0a.46.46,0,0,1-.26-.3.29.29,0,0,1,.13-.31.46.46,0,0,1,.62.16.29.29,0,0,1,0,.3.26.26,0,0,1-.14.11.46.46,0,0,1,.3.19.47.47,0,0,1,.06.15Z"/><path class="cls-30" d="M118.36,113.83a.12.12,0,0,0,.13-.1s0-.15.06-.14.07.09.08.15,0,.21-.08.27a.35.35,0,0,1-.2,0,1.88,1.88,0,0,0-.41,0s-.11.07-.17,0a.19.19,0,0,1,0-.18,1,1,0,0,1,.26-.38.45.45,0,0,0,.18-.27.48.48,0,0,0-.06-.29.26.26,0,0,0-.34-.08s-.1.12,0,.18.14,0,.16.09a.09.09,0,0,1-.07.14.21.21,0,0,1-.22-.16.29.29,0,0,1,.11-.35.58.58,0,0,1,.41,0,.43.43,0,0,1,.29.28.4.4,0,0,1,0,.32c-.09.18-.28.27-.4.41a.15.15,0,0,0,0,.14s.09,0,.14,0l.24,0Z"/><path class="cls-30" d="M119.3,113.73a.18.18,0,0,0,.14.15c.06,0,.14,0,.17.06s-.08.07-.12.06a3.09,3.09,0,0,0-.43,0,1.34,1.34,0,0,1-.2,0,.06.06,0,0,1,0-.11c.07,0,.16,0,.18-.1a.63.63,0,0,0,0-.19c-.05-.23-.09-.45-.14-.67s-.07-.09-.13-.08-.13,0-.17,0,.08-.09.13-.11l.29-.09c.06,0,.08,0,.08.08.07.33.14.66.2,1Z"/><path class="cls-31" d="M112.5,93.9,111.6,95c-.29,1.28.42,2.24,1.82,3.07,1.14.72,3.24.9,3.9.32l-3.27-3.18-1.55-1.3Z"/><path class="cls-32" d="M119.13,126.7l-.49-.59a24.16,24.16,0,0,1-7.78,7c3.6-1,6-3.71,8.27-6.36Z"/><path class="cls-32" d="M115.44,135.38c1.27-2.62,2.8-5.24,4.35-7.86l-.51-.64c-1.76,3-3.82,6.49-3.84,8.5Z"/><path class="cls-32" d="M125.41,107.54a16.35,16.35,0,0,0-1-3.18,19.23,19.23,0,0,0-2.83-4.08,30.2,30.2,0,0,0-7.62-6.63l0,0h0l0,0h.11l-.06-.06h.1l-.08-.1h.11l-.08-.08h.12l-.07-.09h.1l-.09-.1.13,0-.11-.07.12,0-.1-.07.14,0-.12-.08.15-.07-.15-.11.16-.06-.17-.07.15-.08-.18,0,.12-.13h-.17l.08-.14H114l.09-.11-.17,0,.08-.15-.16.08,0-.17-.15.1,0-.17-.14.12v-.17l-.12.13v-.18l-.12.15v-.17l-.1.14,0-.17-.08.17,0-.18-.08.18,0-.18-.06.18,0-.17,0,.17,0-.15-.06.17-.05-.16-.06.19-.07-.17,0,.2-.08-.16v.19l-.09-.15V92l-.1-.14V92l-.1-.09,0,.18-.13-.08,0,.16-.1-.06,0,.16-.09,0,0,.11v0l-.07,0,0,.09h0a2.18,2.18,0,0,0-.08.86s.14.11.16.14.05.16.05.16a3.74,3.74,0,0,0-.75,1.84c.3-.4.62-.88,1.06-.88-.22.37-.32,1.5-.08,1.67l.19-.33a1.57,1.57,0,0,0,.09.57,4.19,4.19,0,0,1,.23-.43,1.69,1.69,0,0,0,.17.81,1.06,1.06,0,0,1,.38-.38,1.73,1.73,0,0,0-.09.66,5,5,0,0,1,.46-.62,2.21,2.21,0,0,0,.1,1.1c.1-.5.14-.55.36-.77a5.49,5.49,0,0,0,0,1.14c.21-.4.35-.34.47-.61a3.69,3.69,0,0,0,0,1.15,1.09,1.09,0,0,1,.46-.65c0,.53.14.44-.19.9a1.88,1.88,0,0,0,.86-.21c-.12.29-.08.51-.21.72a2.87,2.87,0,0,0,.7-.57c-.1.33-.37.66-.24,1a.79.79,0,0,1,.54-.61c0,.18-.06.53-.3.7.58.07.81-.34,1.1-.65a1.2,1.2,0,0,0,.37,1.06c-.08-.6.06-.47.32-.83a2.3,2.3,0,0,0,.81,1.46,1.53,1.53,0,0,1-.14-1.18c.07.36.41.79.49,1.13a3.21,3.21,0,0,1,.23-1,5.38,5.38,0,0,1,.32,1.37,4.57,4.57,0,0,0,.28-.75c4.71,5,5.76,11.39.6,18.12,1.85-1.27,2.33-3.3,3.36-5-1,2.26-1.45,4.8-3.23,6.67,1.72-1.51,2.08-2.89,3.12-4.35a41.42,41.42,0,0,1-4.74,9.42l1.13,1.27c.33-.56.66-1.11,1-1.67,2.24-3.75,5.89-9.12,4-17.3Z"/><path class="cls-33" d="M111.87,92.9a.9.9,0,0,0-.51.35,3.36,3.36,0,0,0,.61.07c.06,0,.08-.09.06-.15l0-.23s-.14,0-.21,0l.08,0Z"/><path class="cls-34" d="M111.36,93.25l.25-.07.26-.05-.25.07-.26,0Z"/><ellipse class="cls-35" cx="112.95" cy="92.93" rx="0.19" ry="0.2"/><ellipse class="cls-36" cx="112.99" cy="92.89" rx="0.08" ry="0.09"/><path class="cls-37" d="M115.45,135.31c.11-.36.24-.72.37-1.08s.27-.7.42-1c.3-.7.64-1.38,1-2.05s.73-1.34,1.11-2l.59-1,.6-1-.58,1-.57,1c-.38.66-.75,1.32-1.1,2s-.69,1.35-1,2c-.15.35-.3.7-.44,1.05S115.57,135,115.45,135.31Z"/><path class="cls-37" d="M111,133c.39-.18.78-.37,1.16-.58s.76-.42,1.12-.65a18.61,18.61,0,0,0,2.09-1.56,20.08,20.08,0,0,0,1.85-1.84c.29-.33.57-.66.85-1s.55-.68.81-1l-.79,1.05c-.27.34-.55.67-.84,1a19.1,19.1,0,0,1-1.85,1.86,16.72,16.72,0,0,1-2.1,1.55c-.36.23-.74.45-1.13.65s-.78.38-1.17.55Z"/><path class="cls-37" d="M119.86,125.88c.18-.26.35-.53.52-.8l.5-.82c.33-.55.64-1.11,1-1.67s.6-1.13.89-1.7l.88-1.71-.42.87-.42.86c-.29.57-.58,1.14-.89,1.7s-.62,1.12-1,1.67-.68,1.08-1.06,1.6Z"/><path class="cls-37" d="M121.26,119.77a13.4,13.4,0,0,0,1.12-1.56,13.18,13.18,0,0,0,.91-1.7,17.4,17.4,0,0,0,1.19-3.66c0-.16.07-.32.1-.47s0-.32.07-.48q.06-.48.09-1a12.43,12.43,0,0,0,0-1.93,12.25,12.25,0,0,0-.3-1.91,12.66,12.66,0,0,0-.57-1.84,14.5,14.5,0,0,1,.6,1.83,12.44,12.44,0,0,1,.3,1.91,14,14,0,0,1,0,1.94c0,.32-.05.64-.09,1,0,.16,0,.31-.07.48s-.07.31-.1.47a18.15,18.15,0,0,1-1.21,3.67,13.82,13.82,0,0,1-.92,1.69,12.36,12.36,0,0,1-1.14,1.55Z"/><path class="cls-37" d="M120.87,118.38A8.84,8.84,0,0,0,122,117a13.34,13.34,0,0,0,.91-1.61q.39-.84.72-1.71c.11-.29.22-.58.32-.87l.08-.21c0-.08.05-.15.07-.22s.09-.3.14-.45h0a9.8,9.8,0,0,0,.19-1.87,11.68,11.68,0,0,0-.13-1.87,14.27,14.27,0,0,0-.42-1.83,18.67,18.67,0,0,0-.61-1.78,18.69,18.69,0,0,1,.64,1.77,14.27,14.27,0,0,1,.42,1.83,11.82,11.82,0,0,1,.15,1.88,10.8,10.8,0,0,1-.19,1.88h0c0,.14-.09.29-.14.44s0,.15-.07.22l-.08.22-.33.87c-.23.58-.46,1.15-.73,1.7a12.18,12.18,0,0,1-.92,1.61,8.46,8.46,0,0,1-1.19,1.41Z"/><path class="cls-37" d="M119.48,125.47c.29-.4.57-.81.85-1.21l.43-.61c.14-.21.29-.4.41-.62a13.65,13.65,0,0,0,.69-1.31l.65-1.34c.43-.9.84-1.8,1.19-2.73a19,19,0,0,0,.82-2.86c.2-1,.34-2,.45-3a14.84,14.84,0,0,0,0-3,13.18,13.18,0,0,0-.65-2.91,16.89,16.89,0,0,0-1.22-2.71,17.92,17.92,0,0,1,1.24,2.71,12.46,12.46,0,0,1,.66,2.9,14.23,14.23,0,0,1,0,3c-.11,1-.24,2-.44,3a19.08,19.08,0,0,1-.83,2.86c-.36.93-.77,1.84-1.2,2.73-.21.45-.43.89-.65,1.34s-.44.89-.7,1.32a6,6,0,0,1-.42.61l-.43.61-.86,1.2Z"/><path class="cls-37" d="M120.14,126.21c.56-.93,1.12-1.87,1.66-2.82s1.07-1.9,1.54-2.88a19.51,19.51,0,0,0,1.2-3.05q.22-.78.39-1.59c.06-.27.1-.53.14-.8l.12-.82a27.49,27.49,0,0,0,.22-3.27,18.73,18.73,0,0,0-.29-3.26,14.15,14.15,0,0,0-1-3.13,13.24,13.24,0,0,0-1.66-2.81,13.25,13.25,0,0,1,1.68,2.8,13.66,13.66,0,0,1,1,3.13,17.92,17.92,0,0,1,.3,3.27,27.64,27.64,0,0,1-.21,3.28l-.12.81c0,.27-.09.54-.14.81-.11.54-.24,1.07-.4,1.6a19.84,19.84,0,0,1-1.21,3c-.47,1-1,1.94-1.55,2.88s-1.11,1.88-1.68,2.81Z"/><path class="cls-37" d="M113.5,94.23a2,2,0,0,1,.34,0l.33.07a4.88,4.88,0,0,1,.64.23,6.29,6.29,0,0,1,1.17.71,8.92,8.92,0,0,1,1,.92c.16.17.31.34.45.52a5.56,5.56,0,0,1,.42.54c-.14-.18-.28-.36-.44-.53s-.3-.34-.46-.5a9.75,9.75,0,0,0-1-.91,6.47,6.47,0,0,0-1.15-.71,4.93,4.93,0,0,0-.64-.24,2.42,2.42,0,0,0-.66-.13Z"/><path class="cls-38" d="M117.41,96.86a3.88,3.88,0,0,1,1.13,1.08,3.73,3.73,0,0,1-1.93-1.13"/><path class="cls-37" d="M117.41,96.86a3.7,3.7,0,0,1,.33.21l.31.25a3.71,3.71,0,0,1,.27.29,1.91,1.91,0,0,1,.24.32l0,0h-.06q-.27-.07-.54-.18a3.44,3.44,0,0,1-.51-.25,3.38,3.38,0,0,1-.87-.73,3.77,3.77,0,0,0,.89.7,4.74,4.74,0,0,0,.51.24,2.49,2.49,0,0,0,.53.16l0,0a3.55,3.55,0,0,0-.23-.31l-.27-.29a3.61,3.61,0,0,0-.3-.25,2.34,2.34,0,0,0-.31-.24Z"/><path class="cls-38" d="M115.79,96.65s1.72,1.12,2,1.21a2.63,2.63,0,0,0-1.2-1.21"/><path class="cls-37" d="M115.79,96.65l1,.6.49.3.25.15a1.49,1.49,0,0,0,.25.13l0,0a2.26,2.26,0,0,0-.22-.37,2.88,2.88,0,0,0-.27-.34l-.32-.29a2.77,2.77,0,0,0-.37-.22,2,2,0,0,1,.38.2,3.41,3.41,0,0,1,.62.62,3.48,3.48,0,0,1,.23.38l0,.06-.06,0a5.05,5.05,0,0,1-.51-.28l-.49-.31-1-.64Z"/><path class="cls-38" d="M116.47,96.08s.9.39,1.11,1.06a8.6,8.6,0,0,1-1.9-1"/><path class="cls-37" d="M116.47,96.08a1.92,1.92,0,0,1,.35.18,1.86,1.86,0,0,1,.32.23,1.28,1.28,0,0,1,.28.29,1.22,1.22,0,0,1,.18.36l0,0-.05,0-.5-.23-.49-.24-.48-.27-.22-.16a.91.91,0,0,1-.21-.18,1.57,1.57,0,0,0,.21.17l.24.15a5.39,5.39,0,0,0,.48.25c.32.16.65.32,1,.46l0,0a1.35,1.35,0,0,0-.17-.34,2.43,2.43,0,0,0-.26-.29,2.34,2.34,0,0,0-.31-.24,3.79,3.79,0,0,0-.34-.2Z"/><path class="cls-38" d="M115.11,96.78a8,8,0,0,0,2.06,1.16,3.15,3.15,0,0,0-1.29-1.16"/><path class="cls-37" d="M115.11,96.78l.5.33.5.32c.17.1.34.2.52.29s.17.09.26.12a.72.72,0,0,0,.28.07l0,0a2.88,2.88,0,0,0-.26-.35c-.09-.11-.19-.22-.29-.32a2.88,2.88,0,0,0-.34-.27,3,3,0,0,0-.38-.23,2.73,2.73,0,0,1,.74.47c.11.1.21.21.31.32a3.32,3.32,0,0,1,.26.36l0,0h0a.69.69,0,0,1-.29-.07,1.69,1.69,0,0,1-.27-.13,5.39,5.39,0,0,1-.52-.3c-.17-.1-.33-.21-.5-.33l-.48-.35Z"/><path class="cls-38" d="M115.11,97.14s.83.71,1.3.71a3.17,3.17,0,0,0-1.29-1.15"/><path class="cls-37" d="M115.11,97.14l.31.22a3.37,3.37,0,0,0,.31.21l.33.17.17.06a.57.57,0,0,0,.18,0l0,0a2.27,2.27,0,0,0-.26-.35,3,3,0,0,0-.29-.32l-.34-.28a2.88,2.88,0,0,0-.38-.22,2.51,2.51,0,0,1,.74.47,3.14,3.14,0,0,1,.31.32,3.18,3.18,0,0,1,.26.35l0,0h0a1,1,0,0,1-.37-.09l-.33-.18-.31-.22-.29-.25Z"/><path class="cls-38" d="M114.7,95.55s1.72,1.24,1.93,1.92a8.91,8.91,0,0,1-1.85-1.1"/><path class="cls-37" d="M114.7,95.55c.19.13.37.27.55.41l.53.44c.17.15.33.31.49.48l.22.27a1.82,1.82,0,0,1,.16.31l0,.06-.06,0q-.24-.1-.48-.24c-.16-.08-.32-.16-.47-.25l-.47-.28-.21-.16a.61.61,0,0,1-.2-.19,1.12,1.12,0,0,0,.2.18l.23.15.47.26c.31.17.63.33,1,.49l0,0a.87.87,0,0,0-.16-.3,2.47,2.47,0,0,0-.21-.27,5.44,5.44,0,0,0-.48-.48c-.17-.16-.34-.31-.52-.45s-.35-.29-.53-.43Z"/><path class="cls-6" d="M105.15,130.6a9.81,9.81,0,0,1-4.88,1.17C102.64,129.76,105,129.71,105.15,130.6Z"/><path class="cls-6" d="M121.8,131.68c1.26,1.16,5,2,5.61,1.82C124.89,130.88,122.13,130.61,121.8,131.68Z"/><path class="cls-7" d="M105.14,130.6c-.17-.9-2.5-.84-4.87,1.16C102.77,130.92,104.87,130.44,105.14,130.6Z"/><path class="cls-7" d="M121.83,131.67c.33-1.07,3-.81,5.58,1.81C124.57,132.26,122.17,131.52,121.83,131.67Z"/></g></svg>