<svg id="Capa_1" data-name="Capa 1" xmlns="http://www.w3.org/2000/svg" viewBox="0 0 17 17.29"><defs><style>.cls-1{fill:#2a2a2a;}</style></defs><path class="cls-1" d="M10.05,6.45c0-.79-.58-1.32-1.53-1.32a2.21,2.21,0,0,0-2,1.08L5.34,5.33A3.73,3.73,0,0,1,8.66,3.61c1.8,0,3,.94,3,2.56,0,2.29-2.1,2.5-2.1,4.15H8C8,8.25,10.05,7.85,10.05,6.45ZM7.81,12.59a1,1,0,1,1,2,0,1,1,0,1,1-1.95,0Zm.69,4.63a8.57,8.57,0,1,1,8.57-8.57A8.58,8.58,0,0,1,8.5,17.22ZM8.5,1a7.7,7.7,0,1,0,7.7,7.7A7.71,7.71,0,0,0,8.5,1Z"/></svg>