<?xml version="1.0" encoding="utf-8"?>
<!-- Generator: Adobe Illustrator 25.0.1, SVG Export Plug-In . SVG Version: 6.00 Build 0)  -->
<svg version="1.1" id="Capa_1" xmlns="http://www.w3.org/2000/svg" xmlns:xlink="http://www.w3.org/1999/xlink" x="0px" y="0px"
	 viewBox="0 0 227 227" style="enable-background:new 0 0 227 227;" xml:space="preserve">
<style type="text/css">
	.st0{clip-path:url(#SVGID_2_);}
	.st1{fill:#0032A0;}
	.st2{fill:#FFFFFF;}
	.st3{fill:#0033A1;}
</style>
<g>
	<g>
		<defs>
			
				<ellipse id="SVGID_1_" transform="matrix(0.9999 -1.015567e-02 1.015567e-02 0.9999 -1.1468 1.1585)" cx="113.5" cy="113.5" rx="113.5" ry="113.5"/>
		</defs>
		<clipPath id="SVGID_2_">
			<use xlink:href="#SVGID_1_"  style="overflow:visible;"/>
		</clipPath>
		<g class="st0">
			<rect x="-20.1" y="-3" class="st1" width="274.6" height="78.8"/>
			<rect x="-20.1" y="75.3" class="st2" width="274.6" height="78.8"/>
			<rect x="-20.1" y="153.5" class="st1" width="274.6" height="78.8"/>
		</g>
	</g>
	<g>
		<polygon class="st3" points="56.4,87.7 59,95.7 67.5,95.8 60.6,100.8 63.2,108.8 56.4,103.9 49.5,108.8 52.1,100.8 45.2,95.8 
			53.7,95.7 		"/>
		<polygon class="st3" points="56.4,120.6 59,128.7 67.5,128.7 60.6,133.7 63.2,141.8 56.4,136.8 49.5,141.8 52.1,133.7 45.2,128.7 
			53.7,128.7 		"/>
		<polygon class="st3" points="110.9,105.4 113.5,113.5 122,113.5 115.1,118.5 117.7,126.6 110.9,121.6 104,126.6 106.6,118.5 
			99.7,113.5 108.2,113.5 		"/>
		<polygon class="st3" points="165.4,87.7 168,95.7 176.5,95.8 169.6,100.8 172.2,108.8 165.4,103.9 158.5,108.8 161.1,100.8 
			154.2,95.8 162.7,95.7 		"/>
		<polygon class="st3" points="165.4,120.6 168,128.7 176.5,128.7 169.6,133.7 172.2,141.8 165.4,136.8 158.5,141.8 161.1,133.7 
			154.2,128.7 162.7,128.7 		"/>
	</g>
</g>
</svg>
