<?xml version="1.0" encoding="utf-8"?>
<!-- Generator: Adobe Illustrator 25.0.0, SVG Export Plug-In . SVG Version: 6.00 Build 0)  -->
<svg version="1.0" id="Capa_1" xmlns="http://www.w3.org/2000/svg" xmlns:xlink="http://www.w3.org/1999/xlink" x="0px" y="0px"
	 viewBox="0 0 130 147" style="enable-background:new 0 0 130 147;" xml:space="preserve">
<style type="text/css">
	.st0{fill:#FFFFFF;}
	.st1{fill:#FF0600;}
</style>
<linearGradient id="SVGID_1_" gradientUnits="userSpaceOnUse" x1="0" y1="0" x2="0.7071" y2="0.7071">
	<stop  offset="0" style="stop-color:#E6E6EB"/>
	<stop  offset="0.1754" style="stop-color:#E2E2E7"/>
	<stop  offset="0.3552" style="stop-color:#D6D6DB"/>
	<stop  offset="0.5371" style="stop-color:#C2C3C6"/>
	<stop  offset="0.7204" style="stop-color:#A5A7A9"/>
	<stop  offset="0.9031" style="stop-color:#818485"/>
	<stop  offset="1" style="stop-color:#6B6E6E"/>
</linearGradient>
<path class="st0" d="M0,42.06l0,62.88c0,3.77,2.01,7.25,5.27,9.13l54.46,31.44c3.26,1.88,7.28,1.88,10.54,0l54.46-31.44
	c3.26-1.88,5.27-5.36,5.27-9.13V42.06c0-3.77-2.01-7.25-5.27-9.13L70.27,1.49c-3.26-1.88-7.28-1.88-10.54,0L5.27,32.93
	C2.01,34.81,0,38.29,0,42.06z"/>
<g>
	<g>
		<path class="st1" d="M81.55,33.74L43.62,60.36h2.59L81.2,35.81l14.16,19.84l-7.43,4.71h2.77l6.78-4.3L81.55,33.74z"/>
	</g>
	<g>
		<path class="st1" d="M88.04,51.89l0.77-0.38l-6.43-9.11l-0.61,0.75c-0.66,0.79-1.64,1.26-2.7,1.26c-0.94,0-1.81-0.36-2.46-1.03
			l-0.44-0.44L50.8,60.36h2.61l22.6-15.51c0.87,0.68,1.93,1.05,3.06,1.05c1.18,0,2.29-0.4,3.16-1.13L86.64,51
			c-1.27,0.93-2.03,2.4-2.03,4.01c0,0.87,0.23,1.71,0.64,2.45l-4.45,2.9h2.74l3.85-2.51l-0.52-0.64c-0.5-0.64-0.78-1.39-0.78-2.2
			C86.09,53.7,86.86,52.47,88.04,51.89z"/>
	</g>
	<g>
		<path class="st1" d="M67.6,54.6c-2.95,0-5.35,2.41-5.35,5.36c0,0.13,0,0.26,0.01,0.4h2.24c-0.01-0.13-0.03-0.26-0.03-0.4
			c0-1.72,1.4-3.12,3.12-3.12c1.72,0,3.12,1.4,3.12,3.12c0,0.13-0.01,0.26-0.03,0.4h2.25c0.01-0.13,0.01-0.26,0.01-0.4
			C72.96,57.01,70.55,54.6,67.6,54.6z"/>
	</g>
	<g>
		<g>
			<path class="st1" d="M52.26,90.79c0,2.04-0.61,3.57-1.84,4.62s-2.85,1.56-4.83,1.56h-0.03l-0.44,3.45
				c-1.44-0.05-2.17-0.13-2.17-0.21l0.41-3.4c-1.44-0.17-2.66-0.38-3.63-0.61l-0.6-0.11l0.38-3.04c1.55,0.21,2.97,0.36,4.28,0.44
				l0.65-5.1c-2.01-0.61-3.44-1.34-4.28-2.2c-0.83-0.86-1.26-2.03-1.26-3.52c0-1.93,0.58-3.38,1.76-4.32
				c1.18-0.95,2.78-1.42,4.83-1.42h0.38l0.53-4.04h2.17l-0.53,4.22c1.2,0.12,2.33,0.28,3.34,0.46l0.5,0.12l-0.32,3.11
				c-1.43-0.16-2.74-0.28-3.96-0.36l-0.58,4.71c2.03,0.65,3.42,1.35,4.14,2.12C51.89,88.07,52.26,89.23,52.26,90.79z M42.79,82.43
				c0,0.46,0.15,0.85,0.44,1.14c0.29,0.29,0.86,0.6,1.69,0.91l0.5-4.08C43.68,80.48,42.79,81.16,42.79,82.43z M48.37,91.06
				c0-0.46-0.13-0.85-0.4-1.15s-0.74-0.6-1.42-0.86L46,93.53C47.57,93.35,48.37,92.53,48.37,91.06z"/>
		</g>
		<g>
			<path class="st1" d="M80.26,87.02c0,2.34,1.91,4.26,4.26,4.26c2.34,0,4.26-1.91,4.26-4.26c0-2.34-1.91-4.26-4.26-4.26
				C82.18,82.76,80.26,84.67,80.26,87.02z M84.52,84.82c1.2,0,2.2,0.98,2.2,2.2c0,1.2-0.98,2.2-2.2,2.2s-2.2-0.98-2.2-2.2
				C82.32,85.8,83.31,84.82,84.52,84.82z"/>
			<path class="st1" d="M100.75,78.62h-2.44v-9.95v-1.46c0-3.77-3.07-6.84-6.84-6.84H36.1c-3.77,0-6.84,3.07-6.84,6.84v1.46v36.92
				v0.83c0,3.77,3.07,6.84,6.84,6.84h55.37c3.77,0,6.84-3.07,6.84-6.84v-0.83V94.7h2.44V78.62z M31.29,67.21
				c0-2.65,2.16-4.82,4.81-4.82h55.37c2.65,0,4.82,2.16,4.82,4.82v1.46H31.29V67.21z M96.27,106.41c0,2.65-2.16,4.82-4.82,4.82H36.1
				c-2.65,0-4.81-2.16-4.81-4.82v-0.83h64.99v0.83H96.27z M96.27,103.55H31.29V70.7h64.99v7.9H83.86c-4.43,0-8.05,3.61-8.05,8.05
				s3.61,8.05,8.05,8.05h12.43v8.86H96.27z M96.27,80.67v11.97H83.84c-3.3,0-5.98-2.69-5.98-5.98s2.69-5.98,5.98-5.98H96.27z
				 M98.69,92.65h-0.38V80.68h0.38V92.65z"/>
		</g>
	</g>
</g>
</svg>
