<svg id="Capa_1" data-name="Capa 1"
    xmlns="http://www.w3.org/2000/svg"
    xmlns:xlink="http://www.w3.org/1999/xlink" viewBox="0 0 200 308.66">
    <defs>
        <style>.cls-1{fill:#fff;}.cls-2{fill:url(#Nueva_muestra_de_degradado_1);}</style>
        <linearGradient id="Nueva_muestra_de_degradado_1" x1="27.81" y1="115.36" x2="199.83" y2="115.36" gradientUnits="userSpaceOnUse">
            <stop offset="0.01" stop-color="#6d0000"/>
            <stop offset="0.1" stop-color="#7e0000"/>
            <stop offset="0.39" stop-color="#ad0000"/>
            <stop offset="0.65" stop-color="#cf0000"/>
            <stop offset="0.86" stop-color="#e30000"/>
            <stop offset="1" stop-color="#eb0000"/>
        </linearGradient>
    </defs>
    <path class="cls-1" d="M183.12,108.59a60,60,0,0,0-18.29-43.18,45.39,45.39,0,0,1-29.18,62.37l-.16.09.09-.07a.33.33,0,0,0,.13-.13,18.83,18.83,0,0,0,5.15-6.51,19.16,19.16,0,0,0-2.93-21,17,17,0,0,1-17,19c-7.27,0-14.08-3.46-16.44-4.55A48.89,48.89,0,0,1,86.41,94a29.83,29.83,0,0,1-2.18-9.47,1.66,1.66,0,0,1,0-.38c0-5.89,2.44-10.29,7.13-13.83a13.57,13.57,0,0,0-7.29-11.24l-.06,0a14.12,14.12,0,0,0-13.83.16,15.67,15.67,0,0,1,.09,1.69,16.48,16.48,0,0,1-9,14.72A91.51,91.51,0,0,0,40.7,50.8a91.69,91.69,0,0,0-12.92-9.16L0,57.68V173.05l36,20.78a91.6,91.6,0,0,0,27.18-32.22c.19.07.51-.39,1-1.36a62.78,62.78,0,0,0,52.14,19,24.33,24.33,0,0,0,31.83.75c-.32,0-.62,0-.93,0a20.46,20.46,0,0,1-13.63-5.15l-.25-.22.37.18a20.6,20.6,0,0,0,20-1.37A24.29,24.29,0,0,0,157,161.21a25.41,25.41,0,0,0-.17-2.91A60.11,60.11,0,0,0,183.12,108.59Zm-67.48,29.84a7.89,7.89,0,0,1-14.06-6.83,12.91,12.91,0,0,1-.75-2.64,14.06,14.06,0,0,0,1.06,1.85,14.78,14.78,0,0,0,12.33,6.6,12.81,12.81,0,0,0,2.06-.15,14,14,0,0,0,3.48-.93A11.74,11.74,0,0,1,115.64,138.43Zm30.86,25.06-4.25-2.85,7.54,1.38Z"/>
    <path d="M0,297.86V296.4H7.33v1.46H4.5v8.58H2.86v-8.58Z"/>
    <path d="M17.67,305.37a3.69,3.69,0,0,1-3.18,1.23,3.72,3.72,0,0,1-3.18-1.23,6.71,6.71,0,0,1-.91-3.9,6.86,6.86,0,0,1,.92-3.94,3.62,3.62,0,0,1,3.17-1.29,3.61,3.61,0,0,1,3.17,1.29,6.9,6.9,0,0,1,.91,3.94A6.68,6.68,0,0,1,17.67,305.37Zm-5.08-1.05a2,2,0,0,0,1.9.86,2,2,0,0,0,1.9-.85,6,6,0,0,0,.49-2.85,6.41,6.41,0,0,0-.5-2.91,2,2,0,0,0-1.89-.91,2,2,0,0,0-1.89.91,6.21,6.21,0,0,0-.51,2.9A6.07,6.07,0,0,0,12.59,304.32Z"/>
    <path d="M25.13,306.44H21.65v-10h3.48c1.54,0,2.6.39,3.16,1.18a6.27,6.27,0,0,1,.85,3.67,11.23,11.23,0,0,1-.17,2.17,4.94,4.94,0,0,1-.59,1.6C27.82,306,26.74,306.44,25.13,306.44Zm2.33-5.19a5.52,5.52,0,0,0-.46-2.62,2,2,0,0,0-1.87-.8H23.28V305h1.85a1.91,1.91,0,0,0,1.93-1.07,4.42,4.42,0,0,0,.32-1.16A12.85,12.85,0,0,0,27.46,301.25Z"/>
    <path d="M39.49,305.37a3.68,3.68,0,0,1-3.17,1.23,3.69,3.69,0,0,1-3.18-1.23,6.64,6.64,0,0,1-.91-3.9,6.78,6.78,0,0,1,.92-3.94,3.61,3.61,0,0,1,3.17-1.29,3.59,3.59,0,0,1,3.16,1.29,6.82,6.82,0,0,1,.91,3.94A6.68,6.68,0,0,1,39.49,305.37Zm-5.08-1.05a2,2,0,0,0,1.91.86,2,2,0,0,0,1.9-.85,6.1,6.1,0,0,0,.49-2.85,6.25,6.25,0,0,0-.51-2.91,2,2,0,0,0-1.88-.91,2,2,0,0,0-1.89.91,6.19,6.19,0,0,0-.52,2.9A6.07,6.07,0,0,0,34.41,304.32Z"/>
    <path d="M57.69,306.44H52.07v-10h1.62V305h4Z"/>
    <path d="M68,305.37a3.68,3.68,0,0,1-3.17,1.23,3.69,3.69,0,0,1-3.18-1.23,6.64,6.64,0,0,1-.91-3.9,6.87,6.87,0,0,1,.91-3.94,3.63,3.63,0,0,1,3.18-1.29A3.6,3.6,0,0,1,68,297.53a6.82,6.82,0,0,1,.91,3.94A6.68,6.68,0,0,1,68,305.37Zm-5.08-1.05a2,2,0,0,0,1.91.86,2,2,0,0,0,1.89-.85,6,6,0,0,0,.49-2.85,6.27,6.27,0,0,0-.5-2.91,2,2,0,0,0-1.88-.91,2,2,0,0,0-1.9.91,6.21,6.21,0,0,0-.51,2.9A6.07,6.07,0,0,0,62.94,304.32Z"/>
    <path d="M82.37,306.6a3.71,3.71,0,0,1-3.19-1.23,6.64,6.64,0,0,1-.9-3.89,6.87,6.87,0,0,1,.92-4,4.54,4.54,0,0,1,6.34,0,6.91,6.91,0,0,1,.9,3.94,9,9,0,0,1-.37,2.85A3.19,3.19,0,0,1,84.85,306l1.23,2-1.51.71-1.31-2.14A3.66,3.66,0,0,1,82.37,306.6Zm-1.9-2.27a2.56,2.56,0,0,0,3.8,0,6,6,0,0,0,.49-2.85,6.27,6.27,0,0,0-.51-2.92,2,2,0,0,0-1.88-.91,2,2,0,0,0-1.89.91,6.23,6.23,0,0,0-.51,2.9A6,6,0,0,0,80.47,304.33Z"/>
    <path d="M91.1,303.23c0,1.3.68,1.95,2.05,1.95s2-.65,2-1.95V296.4h1.64v6.8a3.26,3.26,0,0,1-.93,2.59,5.12,5.12,0,0,1-5.53,0,3.29,3.29,0,0,1-.92-2.59v-6.8H91.1Z"/>
    <path d="M99.92,306.44v-10h6.33v1.43h-4.7v2.84h3.82v1.41h-3.82V305h4.7v1.43Z"/>
    <path d="M118.57,306.44v-10h2.84l3,8.61h.22V296.4h1.62v10h-2.78l-3.12-8.61h-.21v8.61Z"/>
    <path d="M129.4,306.44v-10h6.33v1.43H131v2.84h3.83v1.41H131V305h4.71v1.43Z"/>
    <path d="M142.58,306.6a3.28,3.28,0,0,1-3-1.21,7.72,7.72,0,0,1-.78-4,7.41,7.41,0,0,1,.79-4,3.35,3.35,0,0,1,3-1.18,13.07,13.07,0,0,1,2.88.37l-.06,1.32a14.73,14.73,0,0,0-2.64-.24,1.92,1.92,0,0,0-1.79.79,6.33,6.33,0,0,0-.47,2.94,6.41,6.41,0,0,0,.46,2.95,1.87,1.87,0,0,0,1.77.78,16.21,16.21,0,0,0,2.67-.22l0,1.35A13.4,13.4,0,0,1,142.58,306.6Z"/>
    <path d="M148.53,306.44v-10h6.33v1.43h-4.7v2.84H154v1.41h-3.82V305h4.7v1.43Z"/>
    <path d="M161.43,297.66c-1.24,0-1.86.44-1.86,1.31a1,1,0,0,0,.44,1,8.52,8.52,0,0,0,1.94.7,5.16,5.16,0,0,1,2.12,1,2.38,2.38,0,0,1,.61,1.82,3,3,0,0,1-.9,2.37,3.62,3.62,0,0,1-2.45.78,14.25,14.25,0,0,1-2.76-.29l-.53-.1.16-1.31a24.27,24.27,0,0,0,3,.27c1.21,0,1.82-.54,1.82-1.61a1.12,1.12,0,0,0-.41-.94,6.32,6.32,0,0,0-1.85-.65,5.08,5.08,0,0,1-2.14-1,2.56,2.56,0,0,1-.7-2,2.47,2.47,0,0,1,.89-2.06,3.9,3.9,0,0,1,2.45-.69,16.8,16.8,0,0,1,2.67.26l.51.09-.13,1.32C163,297.74,162,297.66,161.43,297.66Z"/>
    <path d="M167.35,306.44v-10H169v10Z"/>
    <path d="M172.05,297.86V296.4h7.33v1.46h-2.83v8.58h-1.64v-8.58Z"/>
    <path d="M182.46,306.44l2.47-10h3.24l2.49,10H189l-.54-2.15h-3.86l-.54,2.15Zm3.73-8.67L185,302.85h3.21l-1.23-5.08Z"/>
    <path d="M196.75,297.66c-1.24,0-1.86.44-1.86,1.31a1.06,1.06,0,0,0,.43,1,8.66,8.66,0,0,0,2,.7,5.11,5.11,0,0,1,2.11,1,2.38,2.38,0,0,1,.62,1.82,3,3,0,0,1-.9,2.37,3.63,3.63,0,0,1-2.46.78,14.07,14.07,0,0,1-2.75-.29l-.53-.1.16-1.31a24.27,24.27,0,0,0,3,.27c1.21,0,1.82-.54,1.82-1.61a1.12,1.12,0,0,0-.41-.94,6.44,6.44,0,0,0-1.85-.65,5,5,0,0,1-2.14-1,2.56,2.56,0,0,1-.7-2,2.44,2.44,0,0,1,.89-2.06,3.88,3.88,0,0,1,2.45-.69,16.8,16.8,0,0,1,2.67.26l.51.09-.13,1.32C198.28,297.74,197.31,297.66,196.75,297.66Z"/>
    <path class="cls-2" d="M101.19,134a8.21,8.21,0,0,1,.37-2.45,14.07,14.07,0,0,1-.73-2.62,12.77,12.77,0,0,0,1.06,1.84,14.78,14.78,0,0,0,12.32,6.59,18.31,18.31,0,0,0,2.09-.12,15.09,15.09,0,0,0,3.48-.95,11.81,11.81,0,0,1-4.14,2.09A7.88,7.88,0,0,1,101.19,134Zm48.59,28-7.53-1.39,4.25,2.82ZM99.93,0,27.81,41.62A94.47,94.47,0,0,1,40.7,50.79,90.94,90.94,0,0,1,61.21,75.64a16.49,16.49,0,0,0,9-14.74,11.61,11.61,0,0,0-.08-1.68,13.91,13.91,0,0,1,7-1.88A14.08,14.08,0,0,1,84,59.06h0a13.46,13.46,0,0,1,7.29,11.26c-4.67,3.52-7.08,7.94-7.12,13.83a1.3,1.3,0,0,0,0,.37A29.54,29.54,0,0,0,86.42,94a48.73,48.73,0,0,0,18.09,20.63c2.37,1.11,9.17,4.54,16.45,4.54A17.08,17.08,0,0,0,138,102.12c0-.66,0-1.31-.08-1.93a19.14,19.14,0,0,1,2.9,21,18.55,18.55,0,0,1-5.15,6.51c0,.08,0,.12-.13.12a.09.09,0,0,1-.08.08.33.33,0,0,0,.17-.08A45.4,45.4,0,0,0,164.84,65.4a60.17,60.17,0,0,1-8,92.91,23.23,23.23,0,0,1,.16,2.91,24.42,24.42,0,0,1-3.27,12.24,20.83,20.83,0,0,1-11.26,3.31,20.33,20.33,0,0,1-8.76-2c-.12,0-.24-.13-.37-.17.09.09.17.13.25.21A20.4,20.4,0,0,0,147.24,180a5.93,5.93,0,0,0,.94,0,24.35,24.35,0,0,1-31.84-.73,62.78,62.78,0,0,1-52.15-19c-.49,1-.81,1.43-1,1.39A91.43,91.43,0,0,1,36,193.84l63.94,36.88,99.9-57.67V57.67Z"/>
    <path d="M76.58,286.67H64.11V241.26H76.58Z"/>
    <path class="cls-3" d="M145.13,241.26l.58,0v0Z"/>
    <path d="M145.13,286.67h0Z"/>
    <path d="M157,264a14.47,14.47,0,0,1-11.32,22.69H122.37V274.2h22.76a2,2,0,1,0,0-4H122.37V257.73h22.76a2,2,0,1,0,0-4H122.37V241.26h22.76l.58,0A14.47,14.47,0,0,1,157,264Z"/>
    <polygon points="186.3 241.15 181.22 252.3 187.97 267.16 200 241.15 186.3 241.15"/>
    <polygon points="171.62 241.15 163.92 253.6 172.98 273.5 172.98 286.67 185.44 286.67 185.44 271.48 171.62 241.15"/>
    <polygon points="0 241.26 20.62 286.67 28.64 274.2 13.62 241.26 0 241.26"/>
    <polygon points="46.09 241.26 38.79 257.26 31.49 241.26 23.75 253.62 38.79 286.67 59.79 241.26 46.09 241.26"/>
    <path class="cls-4" d="M103.83,241.26h0Z"/>
    <path d="M118.11,255.78v30.89H105.63v-30.9a2,2,0,0,0-2-2H93.37v32.94H80.89V241.26h22.94A14.53,14.53,0,0,1,118.11,255.78Z"/>
</svg>