<svg xmlns="http://www.w3.org/2000/svg" width="48.69" height="37.837" viewBox="0 0 48.69 37.837"><defs><style>.a{fill:#e00d17;}.b{fill:#e8610a;}.c{fill:#f39c00;}</style></defs><g transform="translate(2.456 32.006)"><path d="M796.5,327.128a1.437,1.437,0,0,0-.5-.326,1.659,1.659,0,0,0-.63-.117,2.46,2.46,0,0,0-.376.031,1.62,1.62,0,0,0-.382.111,1.411,1.411,0,0,0-.356.217,1.313,1.313,0,0,0-.293.353,1.425,1.425,0,0,0-.545-.523,1.6,1.6,0,0,0-.786-.189,1.941,1.941,0,0,0-.309.026,1.482,1.482,0,0,0-.315.094,1.266,1.266,0,0,0-.56.47v-.485h-.836v3.982h.846v-2.208a1.2,1.2,0,0,1,.079-.451,1.013,1.013,0,0,1,.215-.331.885.885,0,0,1,.317-.2,1.083,1.083,0,0,1,.385-.069.832.832,0,0,1,.662.27,1.142,1.142,0,0,1,.236.774v2.216h.846v-2.208a1.2,1.2,0,0,1,.08-.451.965.965,0,0,1,.215-.331.893.893,0,0,1,.315-.2,1.1,1.1,0,0,1,.387-.069.832.832,0,0,1,.662.27,1.142,1.142,0,0,1,.236.774v2.216h.844v-2.5a1.727,1.727,0,0,0-.114-.64A1.424,1.424,0,0,0,796.5,327.128Z" transform="translate(-790.611 -325.17)"/><path d="M798.4,327.272a1.55,1.55,0,0,0-.515-.426,1.569,1.569,0,0,0-.736-.161,1.946,1.946,0,0,0-1.414.59,2.041,2.041,0,0,0-.424.663,2.395,2.395,0,0,0,0,1.684,2.04,2.04,0,0,0,.424.663,1.93,1.93,0,0,0,1.414.59,1.588,1.588,0,0,0,.736-.158,1.528,1.528,0,0,0,.515-.424v.479h.869V326.79H798.4Zm-.033,2.016a1.229,1.229,0,0,1-.247.4,1.133,1.133,0,0,1-.378.268,1.281,1.281,0,0,1-1,0,1.1,1.1,0,0,1-.376-.275,1.187,1.187,0,0,1-.237-.4,1.52,1.52,0,0,1,0-.989,1.194,1.194,0,0,1,.237-.406,1.116,1.116,0,0,1,.376-.275,1.3,1.3,0,0,1,1,0,1.134,1.134,0,0,1,.378.268,1.22,1.22,0,0,1,.247.4,1.542,1.542,0,0,1,0,1.014Z" transform="translate(-788.062 -325.17)"/><path d="M801.488,328.773a2.143,2.143,0,0,0-1.019-.381l-.41-.062c-.092-.014-.178-.03-.259-.048a.871.871,0,0,1-.208-.072.409.409,0,0,1-.139-.117.286.286,0,0,1-.051-.175.4.4,0,0,1,.2-.343,1,1,0,0,1,.555-.131,2.068,2.068,0,0,1,.368.034,3.165,3.165,0,0,1,.343.083,2.4,2.4,0,0,1,.3.111,2.506,2.506,0,0,1,.225.114l.373-.677a2.507,2.507,0,0,0-.727-.31,3.455,3.455,0,0,0-.885-.109,2.441,2.441,0,0,0-.687.089,1.573,1.573,0,0,0-.518.253,1.127,1.127,0,0,0-.328.4,1.211,1.211,0,0,0-.114.534.982.982,0,0,0,.342.779,1.917,1.917,0,0,0,1.008.389l.417.055a1.3,1.3,0,0,1,.524.159.326.326,0,0,1,.165.281.4.4,0,0,1-.228.356,1.4,1.4,0,0,1-.679.131,2.661,2.661,0,0,1-.438-.033,2.329,2.329,0,0,1-.353-.091,1.69,1.69,0,0,1-.287-.128,2.354,2.354,0,0,1-.236-.156l-.4.652a2.173,2.173,0,0,0,.452.262,3.1,3.1,0,0,0,.467.156,2.923,2.923,0,0,0,.432.075c.136.013.254.019.357.019a2.89,2.89,0,0,0,.768-.1,1.768,1.768,0,0,0,.569-.268,1.2,1.2,0,0,0,.353-.412,1.143,1.143,0,0,0,.123-.526A.951.951,0,0,0,801.488,328.773Z" transform="translate(-786.284 -325.168)"/><path d="M806.769,327.266a1.719,1.719,0,0,0-.594-.429,1.888,1.888,0,0,0-.763-.151,2.067,2.067,0,0,0-.8.151,1.828,1.828,0,0,0-.626.429,1.93,1.93,0,0,0-.407.663,2.407,2.407,0,0,0-.145.852,2.362,2.362,0,0,0,.15.86,1.9,1.9,0,0,0,.42.661,1.837,1.837,0,0,0,.644.423,2.2,2.2,0,0,0,.822.15,2.91,2.91,0,0,0,.863-.125,2.159,2.159,0,0,0,.775-.435l-.432-.619a1.955,1.955,0,0,1-.551.309,1.744,1.744,0,0,1-.6.111,1.459,1.459,0,0,1-.407-.058,1.084,1.084,0,0,1-.354-.181,1.131,1.131,0,0,1-.27-.314,1.28,1.28,0,0,1-.153-.462h2.943c0-.05.009-.1.013-.158s0-.111,0-.167a2.468,2.468,0,0,0-.141-.85A2,2,0,0,0,806.769,327.266Zm-2.431,1.173a1.5,1.5,0,0,1,.117-.4,1.048,1.048,0,0,1,.214-.312.9.9,0,0,1,.312-.2,1.138,1.138,0,0,1,.414-.072.925.925,0,0,1,.677.259,1.237,1.237,0,0,1,.332.722Z" transform="translate(-783.429 -325.17)"/><path d="M814.13,327.272a1.551,1.551,0,0,0-.515-.426,1.57,1.57,0,0,0-.736-.161,1.946,1.946,0,0,0-1.414.59,2.011,2.011,0,0,0-.423.663,2.371,2.371,0,0,0,0,1.684,2.011,2.011,0,0,0,.423.663,1.93,1.93,0,0,0,1.414.59,1.588,1.588,0,0,0,.736-.158,1.529,1.529,0,0,0,.515-.424v.479H815V326.79h-.869Zm-.033,2.016a1.222,1.222,0,0,1-.245.4,1.156,1.156,0,0,1-.379.268,1.282,1.282,0,0,1-1,0,1.111,1.111,0,0,1-.376-.275,1.213,1.213,0,0,1-.237-.4,1.52,1.52,0,0,1,0-.989,1.22,1.22,0,0,1,.237-.406,1.132,1.132,0,0,1,.376-.275,1.3,1.3,0,0,1,1,0,1.156,1.156,0,0,1,.379.268,1.213,1.213,0,0,1,.245.4,1.515,1.515,0,0,1,0,1.014Z" transform="translate(-779.249 -325.17)"/><path d="M803.717,330.373a1.163,1.163,0,0,1-.413.08.713.713,0,0,1-.248-.042.53.53,0,0,1-.2-.131.628.628,0,0,1-.134-.231,1,1,0,0,1-.05-.34v-1.734h1.395v-.79h-1.395v-1.206H801.8v1.206H801v.79h.794v1.749a1.6,1.6,0,0,0,.376,1.17,1.424,1.424,0,0,0,1.055.376,1.866,1.866,0,0,0,.679-.115,3.024,3.024,0,0,0,.371-.175l-.3-.727A2.407,2.407,0,0,1,803.717,330.373Z" transform="translate(-784.787 -325.566)"/><path d="M808.468,326.685a1.585,1.585,0,0,0-.662.133,1.409,1.409,0,0,0-.495.493v-.521h-.788v3.982h.8v-2.191a1.372,1.372,0,0,1,.072-.454.969.969,0,0,1,.2-.336.812.812,0,0,1,.3-.209,1.011,1.011,0,0,1,.382-.07,1.7,1.7,0,0,1,.34.038,1.336,1.336,0,0,1,.175.047l.258-.832a1.657,1.657,0,0,0-.214-.053A2.267,2.267,0,0,0,808.468,326.685Z" transform="translate(-781.695 -325.17)"/><path d="M816.208,326.685a1.6,1.6,0,0,0-.662.133,1.423,1.423,0,0,0-.495.493v-.521h-.788v3.982h.8v-2.191a1.373,1.373,0,0,1,.07-.454.973.973,0,0,1,.2-.336.811.811,0,0,1,.3-.209,1.015,1.015,0,0,1,.382-.07,1.715,1.715,0,0,1,.342.038,1.314,1.314,0,0,1,.173.047l.258-.832a1.662,1.662,0,0,0-.214-.053A2.268,2.268,0,0,0,816.208,326.685Z" transform="translate(-777.358 -325.17)"/><path d="M819.275,325.714v2.1a1.542,1.542,0,0,0-.516-.426,1.558,1.558,0,0,0-.735-.161,1.938,1.938,0,0,0-.782.156,1.914,1.914,0,0,0-.632.434,2.041,2.041,0,0,0-.424.663,2.393,2.393,0,0,0,0,1.684,2.041,2.041,0,0,0,.424.663,1.941,1.941,0,0,0,.632.435,1.964,1.964,0,0,0,.782.154,1.578,1.578,0,0,0,.735-.158,1.522,1.522,0,0,0,.516-.424v.479h.869v-5.6Zm-.034,4.118a1.2,1.2,0,0,1-.245.4,1.133,1.133,0,0,1-.378.268,1.281,1.281,0,0,1-1,0,1.1,1.1,0,0,1-.376-.275,1.188,1.188,0,0,1-.237-.4,1.522,1.522,0,0,1,0-.989,1.2,1.2,0,0,1,.237-.406,1.118,1.118,0,0,1,.376-.275,1.3,1.3,0,0,1,1,0,1.133,1.133,0,0,1,.378.268,1.19,1.19,0,0,1,.245.4,1.513,1.513,0,0,1,0,1.014Z" transform="translate(-776.366 -325.714)"/><path d="M809.551,327.86a1.182,1.182,0,0,1,.395-.262,1.3,1.3,0,0,1,.495-.094h0a1.548,1.548,0,0,1,.545.094,1.267,1.267,0,0,1,.421.251l.418-.7a2.109,2.109,0,0,0-.529-.307,2.351,2.351,0,0,0-1.708,0,2.02,2.02,0,0,0-1.125,1.1,2.213,2.213,0,0,0,0,1.663,2.037,2.037,0,0,0,.448.662,2.059,2.059,0,0,0,.677.442,2.372,2.372,0,0,0,1.708,0,2.067,2.067,0,0,0,.529-.309l-.418-.694a1.321,1.321,0,0,1-.421.251,1.549,1.549,0,0,1-.545.094h0a1.3,1.3,0,0,1-.495-.094,1.182,1.182,0,0,1-.395-.262,1.219,1.219,0,0,1-.262-.4,1.453,1.453,0,0,1,0-1.035A1.229,1.229,0,0,1,809.551,327.86Z" transform="translate(-780.699 -325.17)"/></g><g transform="translate(47.645 37.024)"><path d="M819.992,328.93a.436.436,0,0,1,.162.031.457.457,0,0,1,.133.087.417.417,0,0,1,.089.129.38.38,0,0,1,.033.158.385.385,0,0,1-.033.158.416.416,0,0,1-.089.13.4.4,0,0,1-.133.087.426.426,0,0,1-.328,0,.391.391,0,0,1-.134-.087.412.412,0,0,1-.089-.13.407.407,0,0,1-.031-.158.4.4,0,0,1,.031-.158.413.413,0,0,1,.089-.129.423.423,0,0,1,.3-.119Zm0,.7a.285.285,0,0,0,.114-.022.317.317,0,0,0,.092-.064.308.308,0,0,0,.062-.092.318.318,0,0,0,.022-.115.31.31,0,0,0-.022-.114.3.3,0,0,0-.062-.094.312.312,0,0,0-.092-.062.286.286,0,0,0-.114-.023.291.291,0,0,0-.117.023.287.287,0,0,0-.156.156.279.279,0,0,0-.022.114.286.286,0,0,0,.022.115.311.311,0,0,0,.062.092.3.3,0,0,0,.093.064A.291.291,0,0,0,819.992,329.629Zm.023-.473a.172.172,0,0,1,.112.033.111.111,0,0,1,.037.087.1.1,0,0,1-.026.072.137.137,0,0,1-.081.039l.112.128h-.12l-.1-.125h-.011v.125h-.1v-.359Zm-.078.087v.066h.075a.081.081,0,0,0,.037-.006.029.029,0,0,0,.013-.027.03.03,0,0,0-.013-.025.079.079,0,0,0-.037-.008Z" transform="translate(-819.572 -328.93)"/></g><path class="a" d="M807.655,320.211a14.981,14.981,0,0,1,5.7-11.768,15.009,15.009,0,1,0,0,23.536A14.978,14.978,0,0,1,807.655,320.211Z" transform="translate(-789.037 -305.202)"/><ellipse class="b" cx="5.699" cy="11.768" rx="5.699" ry="11.768" transform="translate(18.619 3.241)"/><path class="c" d="M819.619,320.225v-.44h-.178v-.12h.487v.12h-.178v.44Zm.941,0v-.389l-.126.335h-.139l-.126-.334v.387h-.131v-.56h.189l.139.359.137-.359h.189v.56Z" transform="translate(-772.001 -297.098)"/><path class="c" d="M813.931,305.2a14.941,14.941,0,0,0-9.309,3.241,15,15,0,0,1,0,23.536,15.007,15.007,0,1,0,9.309-26.777Z" transform="translate(-780.304 -305.202)"/></svg>