<svg id="Capa_1" data-name="Capa 1" xmlns="http://www.w3.org/2000/svg" viewBox="0 0 282.84 170.56"><defs><style>.cls-1{fill:#f5f5f5;}.cls-2{fill:#ebebeb;}.cls-3{fill:#e0e0e0;}.cls-4{fill:#fff;}.cls-5{opacity:0.5;}.cls-6{fill:#ff0300;}.cls-7{opacity:0.3;}.cls-8{fill:#263238;}.cls-9{fill:#fafafa;}.cls-10{fill:#ffbe9d;}.cls-11{fill:#eb996e;}.cls-12{opacity:0.78;}.cls-13{fill:#455a64;}.cls-14{opacity:0.6;}.cls-15{opacity:0.2;}</style></defs><path class="cls-1" d="M170.92,18.79a17.81,17.81,0,1,1-20.23-15h.06a17.78,17.78,0,0,1,20.17,15Z"/><path class="cls-2" d="M166.73,19.4A13.57,13.57,0,1,1,151.32,8h0A13.57,13.57,0,0,1,166.73,19.4Z"/><path class="cls-3" d="M166.66,19a9.18,9.18,0,0,1-.59-1.57,14,14,0,0,0-4.26-6.07,14,14,0,0,0-3-1.83,13.39,13.39,0,0,0-1.77-.66,13.16,13.16,0,0,0-3.95-.52,13.36,13.36,0,0,0-4.11.73,12.88,12.88,0,0,0-1.87.81,12.46,12.46,0,0,0-1.66,1,11.18,11.18,0,0,0-1.43,1.23,13.38,13.38,0,0,0-3.4,5.51A14.22,14.22,0,0,0,140,22a12.07,12.07,0,0,1,0,1.67,3.68,3.68,0,0,1-.39-1.65,12.37,12.37,0,0,1,.37-4.61,13.71,13.71,0,0,1,1.18-3,13.47,13.47,0,0,1,2.22-3,12,12,0,0,1,1.52-1.34A12.29,12.29,0,0,1,146.66,9a13.24,13.24,0,0,1,2-.89,14.7,14.7,0,0,1,2.19-.58,16.8,16.8,0,0,1,2.25-.21,13.44,13.44,0,0,1,2.19.15,12.47,12.47,0,0,1,2.06.46,12.9,12.9,0,0,1,1.88.7,13.67,13.67,0,0,1,5.29,4.45,12.33,12.33,0,0,1,1.92,4.2A3.77,3.77,0,0,1,166.66,19Z"/><path class="cls-3" d="M156,29.13l.37,2.34-2.09.33-.36-2.27a9.82,9.82,0,0,1-5.46-.85L149.2,26a8.53,8.53,0,0,0,4.28.85l-.56-3.48c-2.41-.19-5.12-.55-5.59-3.53-.35-2.21.95-4.36,4.18-5.26l-.37-2.32,2.08-.33.37,2.27a9.57,9.57,0,0,1,4.43.59l-.63,2.73a8.81,8.81,0,0,0-3.36-.57l.56,3.54c2.4.17,5.07.54,5.54,3.48C160.48,26.09,159.19,28.22,156,29.13Zm-3.54-8.87-.48-3c-1.06.43-1.4,1.11-1.29,1.79S151.46,20.12,152.45,20.26Zm4.38,4.45c-.11-.73-.78-1-1.73-1.2l.47,2.88c1-.4,1.35-1,1.24-1.68Z"/><path class="cls-3" d="M113.18,124.16,32.35,99a3.93,3.93,0,0,1-2.59-4.93L45.3,44.15a3.94,3.94,0,0,1,4.92-2.61h0l80.83,25.16a3.94,3.94,0,0,1,2.59,4.93L118.1,121.57A3.93,3.93,0,0,1,113.18,124.16Z"/><path class="cls-4" d="M117.64,77.2a6.38,6.38,0,1,1-4.2-8,6.38,6.38,0,0,1,4.2,8Z"/><path class="cls-4" d="M118.1,84.19a7.5,7.5,0,0,1-1.16-.26,6.54,6.54,0,1,1,1.16.26Zm1.58-12.68a6.13,6.13,0,1,0,5.09,7.9h0a6.14,6.14,0,0,0-4-7.68,6.67,6.67,0,0,0-1.08-.22Z"/><path class="cls-4" d="M42.85,79.58l-1.51,4.9-.51-.16,1.39-4.45-1.16-.36.14-.45Z"/><path class="cls-4" d="M46.51,85.6l-.14.45L42.93,85l.12-.36,2.65-1.36c.73-.38.93-.67,1-1,.18-.57-.12-1-.85-1.27a1.74,1.74,0,0,0-1.51.13l-.26-.42a2.3,2.3,0,0,1,2-.16c1,.31,1.48,1,1.22,1.83-.15.47-.42.85-1.27,1.27l-2.18,1.12Z"/><path class="cls-4" d="M51.94,86.37l-1-.31-.39,1.28-.51-.16.4-1.28-2.76-.84.11-.37,3.61-2.44.56.18-3.5,2.38,2.12.67L51,84.34l.48.15-.35,1.14,1,.3Z"/><path class="cls-4" d="M59.45,88.71l-1-.31-.4,1.27-.5-.15.4-1.28L55.2,87.4l.11-.37,3.61-2.44.56.17L56,87.15l2.12.66.36-1.13.49.15L58.6,88l1,.31Z"/><path class="cls-4" d="M63.79,89.89c-.26.84-1,1.3-2.25.93A2.64,2.64,0,0,1,60,89.64l.37-.32a2.22,2.22,0,0,0,1.33,1c.85.27,1.4,0,1.59-.6s-.08-1.14-1.32-1.54l-1.05-.32,1-2.38,2.69.85-.14.45-2.25-.7-.65,1.51.63.2C63.68,88.26,64.06,89,63.79,89.89Z"/><path class="cls-4" d="M68.64,91.37a1.59,1.59,0,0,1-2.12,1c-1.3-.42-1.73-1.53-1.25-3.08s1.7-2.25,3-1.84a2.36,2.36,0,0,1,1.08.63l-.32.34a1.91,1.91,0,0,0-.89-.52c-1-.33-2,.14-2.36,1.47,0,.13-.08.27-.11.4a1.66,1.66,0,0,1,1.77-.37A1.56,1.56,0,0,1,68.64,91.37Zm-.5-.14a1.14,1.14,0,0,0-.9-1.45,1.2,1.2,0,0,0-1.6.68c-.17.55.12,1.19,1,1.46a1.12,1.12,0,0,0,1.48-.57A.61.61,0,0,0,68.14,91.23Z"/><path class="cls-4" d="M75.34,93.52c-.26.82-1,1.27-2.23.9a2.68,2.68,0,0,1-1.57-1.18l.37-.33a2.19,2.19,0,0,0,1.34,1c.81.26,1.38,0,1.56-.59s-.11-1.1-1-1.39l-.36-.11.12-.37,1.89-1.27-2.51-.78.14-.45,3.16,1-.12.36-1.93,1.32C75.23,92,75.58,92.74,75.34,93.52Z"/><path class="cls-4" d="M80.27,95a1.61,1.61,0,0,1-2.14,1c-1.31-.42-1.73-1.53-1.25-3.08s1.7-2.25,3-1.84a2.41,2.41,0,0,1,1.08.63l-.33.35a1.71,1.71,0,0,0-.88-.53c-1.06-.33-2,.14-2.36,1.47,0,.14-.08.28-.11.42A1.66,1.66,0,0,1,79.07,93,1.54,1.54,0,0,1,80.27,95Zm-.5-.15a1.13,1.13,0,0,0-.91-1.44,1.19,1.19,0,0,0-1.59.68c-.17.54.12,1.19,1,1.46A1.13,1.13,0,0,0,79.72,95s0-.09,0-.13Z"/><path class="cls-4" d="M85.87,93l-.12.36-3.46,3.91-.55-.18,3.39-3.81-2.52-.79-.29.92-.49-.16.42-1.36Z"/><path class="cls-4" d="M92.86,95.14l-.11.36-3.47,3.91-.54-.17,3.39-3.82-2.54-.78-.29.92-.5-.16L89.22,94Z"/><path class="cls-4" d="M96.59,100.18c-.27.87-1.18,1.18-2.35.82s-1.72-1.13-1.45-2a1.27,1.27,0,0,1,1.32-.91,1.15,1.15,0,0,1-.42-1.32c.24-.8,1.08-1.08,2.12-.76s1.57,1,1.32,1.83a1.16,1.16,0,0,1-1.12.85A1.28,1.28,0,0,1,96.59,100.18Zm-.52-.17c.19-.6-.21-1.14-1.08-1.41s-1.5,0-1.7.55.21,1.15,1.07,1.42S95.88,100.62,96.07,100Zm-.95-1.81c.76.24,1.32,0,1.48-.49s-.2-1-.94-1.28-1.31,0-1.48.51S94.35,98,95.12,98.2Z"/><path class="cls-4" d="M101.7,100.56c-.52,1.66-1.69,2.25-3,1.83a2.24,2.24,0,0,1-1.08-.63l.33-.34a1.78,1.78,0,0,0,.88.53c1.06.33,2-.14,2.36-1.47a2.51,2.51,0,0,0,.11-.42,1.66,1.66,0,0,1-1.77.37,1.56,1.56,0,0,1-1.19-2,1.6,1.6,0,0,1,2.12-1C101.76,97.86,102.19,99,101.7,100.56Zm-.39-1.2a1.19,1.19,0,0,0-1-1.45,1.12,1.12,0,0,0-1.48.58,1.17,1.17,0,0,0,0,.11,1.12,1.12,0,0,0,.91,1.44,1.18,1.18,0,0,0,1.59-.69Z"/><path class="cls-4" d="M107.43,99.67l-1.53,4.91-.5-.16,1.38-4.45-1.16-.36.14-.45Z"/><path class="cls-4" d="M111.08,105.7l-.14.45-3.45-1.07.12-.36,2.65-1.36c.73-.37.94-.67,1-1,.18-.56-.11-1-.84-1.27a1.77,1.77,0,0,0-1.51.12l-.26-.42a2.3,2.3,0,0,1,2-.16c1,.31,1.47,1,1.21,1.83-.14.47-.42.85-1.27,1.27l-2.17,1.12Z"/><path class="cls-4" d="M115.78,106.11c-.25.82-1,1.27-2.23.9a2.78,2.78,0,0,1-1.57-1.18l.37-.32a2.27,2.27,0,0,0,1.34,1c.82.26,1.38,0,1.57-.59s-.11-1.1-1-1.39l-.35-.11.11-.37,1.9-1.27-2.51-.78.14-.45,3.15,1-.11.36-1.93,1.31C115.67,104.61,116,105.33,115.78,106.11Z"/><rect class="cls-4" x="94.75" y="86.04" width="2.23" height="41.14" transform="translate(-34.42 166.45) rotate(-72.71)"/><rect class="cls-4" x="102.99" y="103.29" width="2.23" height="21.1" transform="translate(-35.53 179.41) rotate(-72.71)"/><g class="cls-5"><rect class="cls-2" x="44.89" y="62.19" width="12.9" height="17.26" rx="2.1" transform="translate(-31.54 98.79) rotate(-72.71)"/></g><path class="cls-3" d="M42.24,71l.25-.79L51,72.86a1.86,1.86,0,0,0,1.2-3.53l-.1,0-8.48-2.64.25-.79,8.48,2.65a2.69,2.69,0,0,1-1.44,5.18l-.16,0Z"/><rect class="cls-3" x="55.92" y="70.14" width="0.82" height="6.08" transform="translate(-30.41 104.86) rotate(-72.47)"/><rect class="cls-4" x="68.84" y="38.79" width="3.81" height="44.4" transform="translate(-8.51 110.41) rotate(-72.71)"/><path class="cls-1" d="M63.27,147.84a11.26,11.26,0,1,1-12.78-9.49h0a11.24,11.24,0,0,1,12.76,9.5Z"/><path class="cls-2" d="M60.62,148.22A8.58,8.58,0,1,1,50.88,141h0A8.58,8.58,0,0,1,60.62,148.22Z"/><path class="cls-3" d="M60.58,148a5.14,5.14,0,0,1-.37-1,8.83,8.83,0,0,0-1.36-2.46,8.42,8.42,0,0,0-4.34-3,7.25,7.25,0,0,0-1.21-.26,7.85,7.85,0,0,0-1.28-.07,9.81,9.81,0,0,0-1.32.12,11.33,11.33,0,0,0-1.27.34,8.75,8.75,0,0,0-1.18.51,8.57,8.57,0,0,0-2,1.43,8.86,8.86,0,0,0-1.36,1.74,8.45,8.45,0,0,0-.79,1.76,9,9,0,0,0-.42,2.77,4.7,4.7,0,0,1,0,1.06,2.49,2.49,0,0,1-.25-1,8,8,0,0,1,.24-2.92,8.48,8.48,0,0,1,2.17-3.79,7,7,0,0,1,1-.85,8.28,8.28,0,0,1,1.12-.73,10.21,10.21,0,0,1,1.27-.56,10.9,10.9,0,0,1,1.39-.36,9.62,9.62,0,0,1,1.42-.14,9.06,9.06,0,0,1,1.38.1,8.27,8.27,0,0,1,1.31.29,8.14,8.14,0,0,1,1.19.46,8.61,8.61,0,0,1,3.34,2.82,7.88,7.88,0,0,1,1.23,2.66A2.46,2.46,0,0,1,60.58,148Z"/><path class="cls-3" d="M53.83,154.38l.23,1.48-1.32.21-.22-1.44a6.37,6.37,0,0,1-3.45-.52l.46-1.73a5.42,5.42,0,0,0,2.71.53l-.35-2.2c-1.52-.12-3.23-.35-3.53-2.24-.23-1.39.59-2.75,2.64-3.32l-.24-1.47,1.32-.21.23,1.44a6,6,0,0,1,2.81.38l-.4,1.72a5.5,5.5,0,0,0-2.12-.36l.36,2.24c1.51.11,3.2.34,3.5,2.2C56.67,152.46,55.86,153.8,53.83,154.38Zm-2.25-5.61-.3-1.87c-.68.27-.89.7-.82,1.13S51,148.68,51.58,148.77Zm2.77,2.81c-.07-.46-.49-.65-1.09-.76l.29,1.82c.64-.25.87-.64.8-1.06Z"/><g id="freepik--credit-card--inject-2"><path class="cls-6" d="M139.3,129.61,73.66,60.18a1.83,1.83,0,0,1,.07-2.58l43.09-40.73a1.82,1.82,0,0,1,2.58.08h0L185,86.38A1.83,1.83,0,0,1,185,89l-43.09,40.71a1.82,1.82,0,0,1-2.57,0Z"/><g class="cls-7"><path d="M139.3,129.61,73.66,60.18a1.83,1.83,0,0,1,.07-2.58l43.09-40.73a1.82,1.82,0,0,1,2.58.08h0L185,86.38A1.83,1.83,0,0,1,185,89l-43.09,40.71a1.82,1.82,0,0,1-2.57,0Z"/></g><path class="cls-6" d="M184.56,85.87,119.87,17.45a2.51,2.51,0,0,0-3.56-.1h0L104.07,28.93a1,1,0,0,0-.31.9c1.23,6.84,6.12,13,12,17,7,4.9,15.4,7.49,23.32,10.76S155,65.17,159.71,72.32c4.49,6.75,5.55,15.11,7.84,22.9a45,45,0,0,0,2.32,6.18,1,1,0,0,0,1.35.5,1.27,1.27,0,0,0,.27-.18l13-12.27a2.51,2.51,0,0,0,.11-3.56Z"/><path class="cls-4" d="M118.92,37.37c-.59.55-1.37.42-2.21-.48l-1.65-1.75,3.39-3.2L120,33.59c.81.85.85,1.62.34,2.12a1.11,1.11,0,0,1-1.17.26A1.16,1.16,0,0,1,118.92,37.37Zm-.33-4.1-.8.76.73.79c.36.38.69.46,1,.21s.2-.58-.16-1Zm-.34,3.23c.29-.27.22-.61-.17-1l-.84-.91-.85.79.85.91c.39.41.73.51,1,.25Z"/><path class="cls-4" d="M121.39,40.38,119.9,38.8l-1,.39-.75-.8,4.8-1.7.73.78-2,4.71-.78-.82Zm.36-.81.79-1.76-1.8.68Z"/><path class="cls-4" d="M128.37,42.46,125,45.65l-.6-.65.46-3.63-2.06,1.93-.73-.77,3.4-3.2.61.65-.46,3.62,2.05-1.94Z"/><path class="cls-4" d="M128.24,46.41h-.91l-.84.81-.76-.78,3.39-3.2.74.78-1.58,1.49h3l.83.85-2.84,0-.46,3.28-.85-.91Z"/><path class="cls-4" d="M104.25,50l-.57-.63-.85.78-.3-.32.82-.77-1.66-1.75.23-.23,3.62-.3.33.36-3.51.31,1.28,1.35.71-.68.3.31-.72.68.58.62Z"/><path class="cls-4" d="M106.48,52.25c-.52.49-1.27.49-2-.26a2.23,2.23,0,0,1-.66-1.5l.4-.08a1.83,1.83,0,0,0,.55,1.3c.49.52,1,.57,1.38.21s.37-.85-.18-1.42l-.21-.22.24-.23,1.89-.16-1.5-1.59.28-.26,1.89,2-.22.22-1.94.16A1.24,1.24,0,0,1,106.48,52.25Z"/><path class="cls-4" d="M108.88,54.75c-.53.5-1.27.53-2-.23a2.22,2.22,0,0,1-.65-1.5l.4-.08a1.84,1.84,0,0,0,.54,1.27c.5.53,1,.57,1.4.21s.42-.85-.34-1.65l-.62-.66,1.69-1.31,1.61,1.69-.28.27-1.33-1.4-1.1.83.38.42C109.46,53.51,109.42,54.22,108.88,54.75Z"/><path class="cls-4" d="M111.48,57.46a1.34,1.34,0,0,1-1.88-.06l-.08-.1c-.78-.82-.63-1.81.35-2.74a1.92,1.92,0,0,1,2.95-.1,2,2,0,0,1,.53.9l-.38.11a1.54,1.54,0,0,0-.43-.74,1.5,1.5,0,0,0-2.31.1,3.2,3.2,0,0,0-.24.26,1.37,1.37,0,0,1,1.43.44A1.3,1.3,0,0,1,111.48,57.46Zm-.31-.31a.91.91,0,0,0-.07-1.41,1,1,0,0,0-1.38-.19l0,0a1,1,0,0,0,.11,1.44.94.94,0,0,0,1.31.2Z"/><path class="cls-4" d="M116.9,65.05l.27-1.66-1.69.18-.34-.36,2.08-.21.3-2,.34.35L117.6,63l1.58-.17.33.35-2,.2-.32,2.06Z"/><path class="cls-4" d="M119.14,67.42l.27-1.67-1.69.18-.34-.35,2.07-.21.31-2,.33.35-.25,1.57,1.57-.17.33.35-2,.2-.32,2.06Z"/><path class="cls-4" d="M121.38,69.79l.27-1.66-1.7.17-.33-.35,2.07-.21.3-2,.34.36-.25,1.57,1.58-.17.32.35-2,.19-.32,2.07Z"/><path class="cls-4" d="M123.61,72.14l.28-1.66-1.7.18-.34-.36,2.07-.21.31-2,.33.35-.25,1.57,1.58-.17.33.35-2,.2-.31,2.06Z"/><path class="cls-4" d="M131.35,80.34l.28-1.66-1.7.18-.34-.36,2.07-.21.31-2,.33.35-.25,1.57,1.58-.17.33.35-2,.19-.32,2.07Z"/><path class="cls-4" d="M133.59,82.71l.28-1.67-1.7.18-.34-.35,2.07-.21.31-2,.33.35-.25,1.57,1.58-.17.33.35-2,.2-.32,2.06Z"/><path class="cls-4" d="M135.83,85.08l.28-1.67-1.7.18-.33-.35,2.07-.21.3-2,.34.35L136.54,83l1.57-.16.33.35-2,.19-.31,2.07Z"/><path class="cls-4" d="M138.07,87.45l.28-1.67-1.7.18-.33-.35,2.07-.21.3-2,.34.36-.25,1.56,1.57-.16.33.35-2,.19-.31,2.07Z"/><path class="cls-4" d="M148.12,91.86,145,94.8l-.31-.33,2.83-2.66-.69-.73.28-.27Z"/><path class="cls-4" d="M148.55,96.74c-.52.49-1.27.49-2-.26a2.23,2.23,0,0,1-.66-1.5l.4-.08a1.86,1.86,0,0,0,.55,1.3c.49.52,1,.58,1.38.21s.37-.85-.18-1.42l-.2-.22.23-.22,1.89-.16-1.5-1.59.28-.27,1.89,2-.22.21-1.94.17C149.09,95.62,149.06,96.28,148.55,96.74Z"/><path class="cls-4" d="M151.4,99.91l-.59-.63-.82.78-.3-.32.82-.77-1.66-1.76.23-.22,3.61-.29.34.35-3.51.31,1.27,1.35.72-.68.3.31-.72.68.59.62Z"/><path class="cls-4" d="M153.13,102.81l-.29.27-2.06-2.18.23-.22,2.49.1a1.44,1.44,0,0,0,1.16-.31c.36-.34.34-.8-.11-1.27a1.45,1.45,0,0,0-1.15-.52v-.42a1.91,1.91,0,0,1,1.49.68c.59.63.65,1.33.13,1.82a1.87,1.87,0,0,1-1.45.42l-2-.07Z"/><path class="cls-4" d="M92.93,52.63a1.13,1.13,0,0,1,1.84.94l-.43,0a.66.66,0,1,0-1.12.36.65.65,0,0,0,.53.2v.42a1.12,1.12,0,0,1-.88-1.84Z"/><path class="cls-4" d="M95,55.6l-.65-.68-.43.16-.33-.35L95.67,54l.32.34-.85,2.07L94.77,56Zm.16-.35.34-.77-.79.3Z"/><path class="cls-4" d="M96.15,57.5l.14-.68h0L96,56.53l-.42.39-.33-.35,1.49-1.4.6.64A.76.76,0,0,1,97.41,57a.64.64,0,0,1-.75.14l-.17.78Zm.9-1.46-.27-.28-.52.49.27.28c.19.21.39.22.55.07s.16-.35,0-.57Z"/><path class="cls-4" d="M96.76,57.86l.37-.13a1.2,1.2,0,0,0,.31.64c.19.2.33.22.42.13.28-.26-.73-.94-.17-1.46.25-.24.65-.23,1,.19a1.26,1.26,0,0,1,.35.64l-.36.14a1,1,0,0,0-.27-.52c-.19-.21-.34-.21-.42-.13-.27.26.73,1,.18,1.46-.25.23-.65.23-1-.19A1.52,1.52,0,0,1,96.76,57.86Z"/><path class="cls-4" d="M101.34,60l-1.48,1.4-.33-.34.61-.58-.64-.68-.6.58-.33-.34,1.49-1.4.32.34-.59.55.64.68.58-.56Z"/><path class="cls-4" d="M100.85,61a1.12,1.12,0,0,1,1.63,1.53,1.13,1.13,0,0,1-1.59,0l0,0a1.05,1.05,0,0,1,0-1.5Zm1.2,1.27a.62.62,0,0,0,.07-.87l0,0a.65.65,0,0,0-.92-.05.64.64,0,0,0,0,.92.65.65,0,0,0,.92.05Z"/><path class="cls-4" d="M103.37,62.17l.32.34-1.2,1.15.7.74-.28.26-1-1.08Z"/><path class="cls-4" d="M104.58,63.45l.63.68a1,1,0,0,1-1.36,1.52l-.12-.12-.63-.68ZM104,65.24a.62.62,0,0,0,.87.2.63.63,0,0,0,.2-.88.8.8,0,0,0-.15-.17l-.3-.31-.92.85Z"/><path class="cls-4" d="M106.11,67.48l-.27.26-1.09-1.15,1.49-1.4,1.05,1.12-.27.26-.74-.78-.32.3.65.7-.27.25-.65-.69-.34.32Z"/><path class="cls-4" d="M107,69l.14-.67h0l-.28-.3-.43.39-.32-.34,1.48-1.41.61.65a.76.76,0,0,1,.06,1.15.66.66,0,0,1-.75.14l-.16.78Zm.9-1.46-.27-.28-.51.49.26.28c.2.21.4.22.56.07S108.08,67.72,107.89,67.51Z"/><path class="cls-4" d="M87,57.94l.79,0a1,1,0,0,0,.19.83c.25.26.54.25.85,0l1.35-1.28-1-1,.54-.5,1.57,1.66-1.85,1.75a1.28,1.28,0,0,1-2,0A1.61,1.61,0,0,1,87,57.94Z"/><path class="cls-4" d="M89.26,60.32a.54.54,0,1,1,.75.79h0a.54.54,0,0,1-.75-.79Z"/><path class="cls-4" d="M96.87,63.4l-3.74,1.76-.67-.71L93.8,62l-2.55,1.18-.66-.71,2-3.64.65.69-1.4,2.54,2.65-1.22.58.61L93.62,64l2.65-1.24Z"/><path class="cls-4" d="M97.13,63.68a.5.5,0,0,1,.7,0l0,0a.49.49,0,0,1,.06.69l0,0a.49.49,0,0,1-.7,0l0,0a.5.5,0,0,1,0-.7Zm-.59.7.61.64L95,67.09l-.6-.64Z"/><path class="cls-4" d="M98.54,64.82l.6.64-3,2.86-.6-.63Z"/><path class="cls-4" d="M99.7,66.05l.6.63-3,2.87-.6-.64Z"/><path class="cls-4" d="M100.61,67.36a.5.5,0,0,1,.71,0l0,0a.49.49,0,0,1,0,.7l0,0a.55.55,0,0,1-.76-.78Zm-.59.7.6.64-2.19,2.07-.6-.63Z"/><path class="cls-4" d="M102.07,72.14l-1.27,1.18-.56-.59.27-.26a1.18,1.18,0,0,1-1-1.83c.38-.35.91-.34,1.54.32l.48.51c.28-.26.28-.57,0-.91a1.37,1.37,0,0,0-.8-.43l.23-.64a2.31,2.31,0,0,1,1.16.69A1.21,1.21,0,0,1,102.07,72.14Zm-1.15-.1.22-.22-.42-.42c-.28-.3-.48-.29-.63-.15s-.14.38.08.61a.64.64,0,0,0,.75.15Z"/><path class="cls-4" d="M106.13,76.38l-1.27,1.19-.6-.64,1.16-1.09c.35-.34.36-.65.12-.9a.68.68,0,0,0-1,0l-1.1,1-.61-.63L104,74.3c.36-.33.38-.64.13-.9a.69.69,0,0,0-1,.06L102,74.51l-.6-.63,2.19-2.08.58.61-.26.24a1.24,1.24,0,0,1,.94.42,1.13,1.13,0,0,1,.32,1.07,1.4,1.4,0,0,1,1.12.45A1.16,1.16,0,0,1,106.13,76.38Z"/><path class="cls-4" d="M105.41,77.75l.66-.22a2,2,0,0,0,.51,1c.27.29.46.33.58.22.36-.34-1.27-1.32-.39-2.15.43-.39,1.07-.3,1.67.34a2.46,2.46,0,0,1,.61,1l-.65.22a1.7,1.7,0,0,0-.43-.79c-.26-.29-.47-.32-.59-.22-.37.36,1.25,1.34.38,2.16-.42.38-1.05.28-1.69-.38A2.53,2.53,0,0,1,105.41,77.75Z"/><path class="cls-4" d="M130.75,102.27a1.71,1.71,0,1,1,2.31,2.45,1.71,1.71,0,1,1-2.31-2.45Zm1.7,1.78c.65-.61.7-1.09.39-1.42s-.79-.3-1.44.31-.71,1.1-.4,1.42.79.31,1.44-.31Z"/><path class="cls-4" d="M135.06,107.9a1.35,1.35,0,0,1-2-.19,1.69,1.69,0,0,1,.21-2.61,1.92,1.92,0,0,1,2.91,0,2.1,2.1,0,0,1,.56,1l-.72.21a1.38,1.38,0,0,0-.36-.67,1,1,0,0,0-1.47-.13l-.12.11a1.35,1.35,0,0,1,.92.47,1.27,1.27,0,0,1,.07,1.8Zm-.64-.61a.6.6,0,0,0,0-.84l-.06,0a.61.61,0,0,0-.86-.12l0,0a.59.59,0,0,0,0,.85.12.12,0,0,0,.05,0,.59.59,0,0,0,.83.12l.05,0Z"/><path class="cls-4" d="M138.88,106.83l.54.57-5.12,2.29-.54-.57Z"/><path class="cls-4" d="M138.5,112.25l-.54.51-2.05-2.16.42-.4,2.09.11a1,1,0,0,0,.81-.19c.22-.22.2-.5-.09-.8a1,1,0,0,0-.84-.32l-.15-.78a1.84,1.84,0,0,1,1.61.64c.6.64.67,1.37.15,1.86a1.56,1.56,0,0,1-1.35.37l-1.24-.07Z"/><path class="cls-4" d="M141.25,115l-.43-.46-.59.57-.61-.65.6-.56-1.46-1.54.45-.43,3.08-.36.66.69-2.9.37.72.77.54-.5.59.62-.54.5.43.47Z"/><path class="cls-6" d="M154.65,79.71a6.14,6.14,0,0,0-1.19-7.78,7.61,7.61,0,0,0-2.25-1.47c-2.06-.85-4.8-.24-5.89,1.72-.88,1.6-.53,3.6.1,5.32s1.69,3.64,3.48,4.34A4.73,4.73,0,0,0,154,80.57,5.2,5.2,0,0,0,154.65,79.71Z"/></g><g id="freepik--Wallet--inject-2"><rect class="cls-6" x="78.13" y="80.73" width="123.25" height="89.45" rx="7.4"/><path class="cls-8" d="M201.38,88.13v-.27a7,7,0,0,0-.08-.79,7.26,7.26,0,0,0-1.09-2.9,7.37,7.37,0,0,0-3.92-3c-.24-.08-.49-.12-.74-.2a6.35,6.35,0,0,0-.78-.12l-.82,0h-4.57l-44.22,0H86.45a12.09,12.09,0,0,0-2.25.12,7.32,7.32,0,0,0-3.93,2.12A7.13,7.13,0,0,0,79,84.92a7,7,0,0,0-.66,2.2,18.09,18.09,0,0,0-.07,2.33v73.29a7.3,7.3,0,0,0,1.81,4.82A7.18,7.18,0,0,0,84.54,170a22.86,22.86,0,0,0,2.62.08h106.2a10.2,10.2,0,0,0,2-.14,7.14,7.14,0,0,0,1.86-.62,8.92,8.92,0,0,0,.85-.49,6.26,6.26,0,0,0,.76-.6,7.25,7.25,0,0,0,2.45-5c0-5.09,0-10,0-14.64,0-18.66,0-33.78,0-44.22,0-5.22,0-9.27,0-12v0c0,2.75,0,6.78,0,12,0,10.44,0,25.55,0,44.22,0,4.66,0,9.55,0,14.65a7.5,7.5,0,0,1-1.2,3.67,7.58,7.58,0,0,1-1.28,1.49,9.22,9.22,0,0,1-.78.62,7.2,7.2,0,0,1-.85.49,7.12,7.12,0,0,1-1.9.65,9.85,9.85,0,0,1-2,.13H87.14a21.11,21.11,0,0,1-2.64-.07,7.41,7.41,0,0,1-4.63-2.49A7.57,7.57,0,0,1,78,162.72V89.46a18.55,18.55,0,0,1,.08-2.36,7.45,7.45,0,0,1,2-4.18A7.89,7.89,0,0,1,82,81.51a7.8,7.8,0,0,1,2.19-.76l.57-.09.58,0c.38,0,.76,0,1.14,0h58.7l44.22,0h4.55l.83,0c.27.05.54.07.79.13s.5.12.74.2a7.7,7.7,0,0,1,2.43,1.34,7.89,7.89,0,0,1,1.52,1.74A7.24,7.24,0,0,1,201.27,87a4.22,4.22,0,0,1,.07.79A1.85,1.85,0,0,1,201.38,88.13Z"/><path class="cls-8" d="M197.06,86.25a7.22,7.22,0,0,1,2.54,0A7.73,7.73,0,0,1,197.06,86.25Z"/><path class="cls-8" d="M186.68,86.25a30,30,0,0,1,5.19,0A32.12,32.12,0,0,1,186.68,86.25Z"/><path class="cls-8" d="M176.3,86.25a30,30,0,0,1,5.19,0A32.12,32.12,0,0,1,176.3,86.25Z"/><path class="cls-8" d="M165.92,86.25a30,30,0,0,1,5.19,0A32.12,32.12,0,0,1,165.92,86.25Z"/><path class="cls-8" d="M155.54,86.25a30,30,0,0,1,5.19,0A32.12,32.12,0,0,1,155.54,86.25Z"/><path class="cls-8" d="M145.16,86.25a30,30,0,0,1,5.19,0A32.12,32.12,0,0,1,145.16,86.25Z"/><path class="cls-8" d="M134.78,86.25a30,30,0,0,1,5.19,0A32.12,32.12,0,0,1,134.78,86.25Z"/><path class="cls-8" d="M124.4,86.25a30,30,0,0,1,5.19,0A32.12,32.12,0,0,1,124.4,86.25Z"/><path class="cls-8" d="M114,86.25a30,30,0,0,1,5.19,0A32.12,32.12,0,0,1,114,86.25Z"/><path class="cls-8" d="M103.64,86.25a14.86,14.86,0,0,1,2.58-.11,15,15,0,0,1,2.6.11,15,15,0,0,1-2.6.11A15.92,15.92,0,0,1,103.64,86.25Z"/><path class="cls-8" d="M93.26,86.25a15,15,0,0,1,2.59-.11,15,15,0,0,1,2.6.11,15,15,0,0,1-2.6.11A15,15,0,0,1,93.26,86.25Z"/><path class="cls-8" d="M85.53,88.79a14.36,14.36,0,0,1-.11-2.54l.11-.11h1l.81,0a2.63,2.63,0,0,1,.74.08,2.63,2.63,0,0,1-.74.08l-.81,0h-1l.11-.11A15.63,15.63,0,0,1,85.53,88.79Z"/><path class="cls-8" d="M85.53,98.3a12.58,12.58,0,0,1-.11-2.38,12.55,12.55,0,0,1,.11-2.37,13.44,13.44,0,0,1,.11,2.37A13.47,13.47,0,0,1,85.53,98.3Z"/><path class="cls-8" d="M85.53,107.82a25.23,25.23,0,0,1,0-4.76A27,27,0,0,1,85.53,107.82Z"/><path class="cls-8" d="M85.53,117.33a25.23,25.23,0,0,1,0-4.76A27,27,0,0,1,85.53,117.33Z"/><path class="cls-8" d="M85.53,126.85a25.23,25.23,0,0,1,0-4.76A27,27,0,0,1,85.53,126.85Z"/><path class="cls-8" d="M85.53,136.35a25.13,25.13,0,0,1,0-4.75A26.91,26.91,0,0,1,85.53,136.35Z"/><path class="cls-8" d="M85.53,145.86a25.13,25.13,0,0,1,0-4.75A26.91,26.91,0,0,1,85.53,145.86Z"/><path class="cls-8" d="M85.53,155.37a25.13,25.13,0,0,1,0-4.75A26.91,26.91,0,0,1,85.53,155.37Z"/><path class="cls-8" d="M88.07,162.68a15.38,15.38,0,0,1-2.54.11c-.22-.22-.07-.07-.11-.12h0v-1.79a2.06,2.06,0,0,1,.08-.74,2.62,2.62,0,0,1,.07.74,7.49,7.49,0,0,0,0,.81v1h0s.11.12-.11-.1A13.9,13.9,0,0,1,88.07,162.68Z"/><path class="cls-8" d="M98.3,162.68a15.38,15.38,0,0,1-2.54.11,15.55,15.55,0,0,1-2.55-.11,14.48,14.48,0,0,1,2.55-.11A14.36,14.36,0,0,1,98.3,162.68Z"/><path class="cls-8" d="M108.53,162.68a15.43,15.43,0,0,1-2.54.11,15.5,15.5,0,0,1-2.55-.11,14.48,14.48,0,0,1,2.55-.11A14.41,14.41,0,0,1,108.53,162.68Z"/><path class="cls-8" d="M118.76,162.68a31.26,31.26,0,0,1-5.12,0A29.18,29.18,0,0,1,118.76,162.68Z"/><path class="cls-8" d="M129,162.68a31.26,31.26,0,0,1-5.12,0A29.18,29.18,0,0,1,129,162.68Z"/><path class="cls-8" d="M139.22,162.68a31.26,31.26,0,0,1-5.12,0A29.18,29.18,0,0,1,139.22,162.68Z"/><path class="cls-8" d="M149.45,162.68a31.26,31.26,0,0,1-5.12,0A29.18,29.18,0,0,1,149.45,162.68Z"/><path class="cls-8" d="M159.66,162.68a31.26,31.26,0,0,1-5.12,0A29.18,29.18,0,0,1,159.66,162.68Z"/><path class="cls-8" d="M169.9,162.68a31.14,31.14,0,0,1-5.11,0A29.07,29.07,0,0,1,169.9,162.68Z"/><path class="cls-8" d="M180.13,162.68a31.14,31.14,0,0,1-5.11,0A29.07,29.07,0,0,1,180.13,162.68Z"/><path class="cls-8" d="M190.37,162.68a31.26,31.26,0,0,1-5.12,0A29.18,29.18,0,0,1,190.37,162.68Z"/><path class="cls-8" d="M198,162.68a7.79,7.79,0,0,1-2.55,0A7.28,7.28,0,0,1,198,162.68Z"/><g class="cls-7"><path d="M120.64,130.34s0,4.25-1.27,6.79-1.7,3.55-4.41,4.54S78.1,146.4,78.1,146.4V134.88Z"/></g><g class="cls-7"><path d="M120,114.36s.39-4.33-10.47-5.94c-12.42-1.84-31.44-4.09-31.44-4.09v8.19Z"/></g><rect class="cls-6" x="73.19" y="110.43" width="47.47" height="27.96" rx="6.07"/><path class="cls-8" d="M79.26,138.38H78.9a5.4,5.4,0,0,1-1.06-.14,5.86,5.86,0,0,1-1.61-.63,6,6,0,0,1-1.79-1.54,6.14,6.14,0,0,1-1.21-2.69,8.78,8.78,0,0,1-.1-1.7V116.29a6.14,6.14,0,0,1,2.43-4.7,6.06,6.06,0,0,1,2.63-1.16,8,8,0,0,1,1.47-.1h35a6.18,6.18,0,0,1,6.15,5.58c0,.6,0,1.18,0,1.76v13.45c0,.54,0,1.06,0,1.61a7.25,7.25,0,0,1-.09.8,6.77,6.77,0,0,1-.22.77,6.17,6.17,0,0,1-4.48,4,6,6,0,0,1-.74.13l-.75,0H99.82l-15,0-4.1,0h0l4.1,0,15,0h13.24a12.78,12.78,0,0,0,2.9-.17,6,6,0,0,0,4.28-3.9,9,9,0,0,0,.31-3.12V117.72c0-.58,0-1.17,0-1.74a5.9,5.9,0,0,0-1.3-3.17,6.77,6.77,0,0,0-1.27-1.18,6.29,6.29,0,0,0-1.59-.76,6.5,6.5,0,0,0-1.75-.26h-35a7.58,7.58,0,0,0-1.43.09,5.86,5.86,0,0,0-2.55,1.12,6,6,0,0,0-2.37,4.56c0,1.73,0,3.4,0,5v10.4a9.31,9.31,0,0,0,.09,1.67,6.07,6.07,0,0,0,4.51,4.83,6.38,6.38,0,0,0,1,.17Z"/><circle class="cls-8" cx="106.36" cy="125.46" r="10.16"/><path class="cls-9" d="M109,133.76a11,11,0,0,0,2.43-1.27,9,9,0,0,0,2-2.12,8,8,0,0,0,1.1-6.91,8.72,8.72,0,0,0-1.3-2.65,10.14,10.14,0,0,0-1.91-2,.64.64,0,0,1,.17.09,3.65,3.65,0,0,1,.45.32,7.8,7.8,0,0,1,1.42,1.45,8.53,8.53,0,0,1,1.36,2.69,8,8,0,0,1-1.12,7.08,8.71,8.71,0,0,1-2.12,2.12,7.72,7.72,0,0,1-1.8.94,4.64,4.64,0,0,1-.53.16A.66.66,0,0,1,109,133.76Z"/></g><g id="freepik--Money--inject-2"><path class="cls-6" d="M265.44,60.33a18.78,18.78,0,1,1-20.44-17h.08A18.77,18.77,0,0,1,265.44,60.33Z"/><g class="cls-7"><path d="M260.94,60.27a9.63,9.63,0,0,1-.53-1.7,15.08,15.08,0,0,0-2-4.22,15.26,15.26,0,0,0-2.12-2.42,14.35,14.35,0,0,0-3-2.12,12.32,12.32,0,0,0-1.83-.79,14,14,0,0,0-2-.54,12.63,12.63,0,0,0-2.12-.24,14.8,14.8,0,0,0-2.21.08,17.56,17.56,0,0,0-2.16.43,14.27,14.27,0,0,0-2,.75,13.76,13.76,0,0,0-3.4,2.2,14.48,14.48,0,0,0-2.42,2.76,14.63,14.63,0,0,0-2.44,7.44,8.49,8.49,0,0,1-.12,1.76c-.09,0-.24-.61-.31-1.76a13.25,13.25,0,0,1,.66-4.84,14.27,14.27,0,0,1,4-6.11,15,15,0,0,1,3.61-2.43,13.79,13.79,0,0,1,2.17-.81,15.29,15.29,0,0,1,2.33-.48,17.17,17.17,0,0,1,2.38-.1,16.23,16.23,0,0,1,2.3.28,14.51,14.51,0,0,1,4.08,1.5,14.26,14.26,0,0,1,5.31,5,13.1,13.1,0,0,1,1.8,4.55A4.42,4.42,0,0,1,260.94,60.27Z"/></g><g class="cls-7"><path d="M249.11,70.35l.26,2.48-2.22.23-.25-2.41a10.55,10.55,0,0,1-5.69-1.2l.93-2.83a8.94,8.94,0,0,0,4.46,1.13l-.39-3.7c-2.51-.34-5.34-.87-5.67-4-.25-2.34,1.25-4.53,4.7-5.29L245,52.26,247.2,52l.25,2.41a10.23,10.23,0,0,1,4.63.88l-.82,2.83a9,9,0,0,0-3.5-.8l.39,3.76c2.51.32,5.3.85,5.62,4C254,67.4,252.53,69.57,249.11,70.35Zm-3.23-9.55-.33-3.14c-1.14.38-1.54,1.08-1.46,1.81S244.87,60.59,245.88,60.8Zm4.36,4.94c-.08-.78-.77-1.13-1.75-1.36l.32,3.05C249.89,67.07,250.31,66.45,250.24,65.74Z"/></g><path class="cls-8" d="M232.49,63.31a.2.2,0,0,1,0,.11c0,.09,0,.2.06.34s0,.33.09.54a6,6,0,0,0,.14.74,14.48,14.48,0,0,0,3.87,7l.67.61c.12.1.22.21.35.3l.37.28c.26.19.51.4.78.57l.85.52a14.52,14.52,0,0,0,3.88,1.5,14.23,14.23,0,0,0,12.33-3l.74-.65c.24-.22.42-.47.66-.7l.31-.35c.11-.11.19-.24.29-.36s.37-.49.55-.72A15.29,15.29,0,0,0,260,67.11a14.66,14.66,0,0,0,1-4.67q0-.37,0-.75V60.8a.24.24,0,0,1,0-.12v.12a2.25,2.25,0,0,0,0,.34c0,.13,0,.34,0,.55a4.82,4.82,0,0,1,0,.76,13.85,13.85,0,0,1-.93,4.71,14.65,14.65,0,0,1-1.53,3l-.53.74-.29.37-.32.35c-.22.24-.43.49-.67.71L256,73a14.78,14.78,0,0,1-3.59,2.23,14.24,14.24,0,0,1-8.9.82,14.68,14.68,0,0,1-3.94-1.54l-.85-.52c-.27-.18-.52-.39-.78-.58l-.38-.29-.35-.31-.69-.65a14.88,14.88,0,0,1-2.05-2.63,14,14,0,0,1-1.77-4.46,6.54,6.54,0,0,1-.13-.75c0-.21,0-.39-.07-.55s0-.25,0-.34A.34.34,0,0,1,232.49,63.31Z"/><path class="cls-6" d="M239,115.67a10.91,10.91,0,1,1-5.11-14.55l0,0A10.88,10.88,0,0,1,239,115.67Z"/><g class="cls-7"><path d="M236.75,114.31a5.5,5.5,0,0,1,.24-1,8.84,8.84,0,0,0,.24-2.71,8.17,8.17,0,0,0-.33-1.84,8.57,8.57,0,0,0-.88-2,8.9,8.9,0,0,0-.67-.94,8.26,8.26,0,0,0-3-2.23,8.66,8.66,0,0,0-1.21-.42,8.34,8.34,0,0,0-1.23-.23,8,8,0,0,0-1.2,0,9,9,0,0,0-1.15.13,8.43,8.43,0,0,0-3.62,1.64,9,9,0,0,0-1.84,2,5.54,5.54,0,0,1-.58.85,2.25,2.25,0,0,1,.37-1,7.57,7.57,0,0,1,1.78-2.24,8.3,8.3,0,0,1,1.64-1.11,8.6,8.6,0,0,1,2.15-.76,8.32,8.32,0,0,1,2.54-.13,8.6,8.6,0,0,1,1.33.23,10,10,0,0,1,1.3.46,9.58,9.58,0,0,1,1.22.66,8.42,8.42,0,0,1,1.06.83,7.92,7.92,0,0,1,.89.94,7.09,7.09,0,0,1,.7,1,8.39,8.39,0,0,1,1.17,4.08,7.62,7.62,0,0,1-.46,2.8A2.48,2.48,0,0,1,236.75,114.31Z"/></g><g class="cls-7"><path d="M227.85,115.82l-.61,1.31-1.17-.54.59-1.27a6,6,0,0,1-2.48-2.3l1.31-1.13a5.09,5.09,0,0,0,1.88,1.89l.92-2c-1.16-.92-2.41-2-1.63-3.7.57-1.25,2-1.89,3.92-1.25l.61-1.3,1.17.55-.6,1.27a5.88,5.88,0,0,1,2.05,1.82l-1.27,1.17a5.45,5.45,0,0,0-1.51-1.44l-.93,2c1.16.91,2.39,2,1.62,3.66C231.18,115.82,229.79,116.45,227.85,115.82Zm1.23-5.73.78-1.66c-.69-.15-1.1.08-1.27.46s.06.79.49,1.2Zm.71,3.77c.19-.42,0-.79-.47-1.2l-.75,1.62c.64.13,1.06-.06,1.22-.43Z"/></g><path class="cls-8" d="M221.66,107.34s-.13.35-.34,1a8.39,8.39,0,0,0-.39,2.73,8.61,8.61,0,0,0,.26,1.89,9,9,0,0,0,.81,2,8.7,8.7,0,0,0,1.48,1.89,8.22,8.22,0,0,0,4.61,2.21,8.4,8.4,0,0,0,2.4,0,8.07,8.07,0,0,0,3.72-1.61,8.21,8.21,0,0,0,1.89-2c.35-.55.52-.88.54-.87a.88.88,0,0,1-.11.24,4.32,4.32,0,0,1-.36.67,8.31,8.31,0,0,1-8.11,3.84,9.12,9.12,0,0,1-2.55-.75,8.8,8.8,0,0,1-2.17-1.51,8.16,8.16,0,0,1-1.51-2A8.58,8.58,0,0,1,221,113a8.94,8.94,0,0,1-.24-1.93,7.89,7.89,0,0,1,.47-2.76,6.07,6.07,0,0,1,.29-.7A1.12,1.12,0,0,1,221.66,107.34Z"/><path class="cls-6" d="M58.91,114.13a17.81,17.81,0,1,1-20.23-15h.06a17.79,17.79,0,0,1,20.17,15Z"/><g class="cls-7"><path d="M54.65,114.31a9.18,9.18,0,0,1-.59-1.57,14.21,14.21,0,0,0-2.14-3.89,14.57,14.57,0,0,0-2.12-2.18,13.58,13.58,0,0,0-3-1.83,12.08,12.08,0,0,0-1.77-.65,12.68,12.68,0,0,0-1.92-.43,13.75,13.75,0,0,0-2-.12,14.51,14.51,0,0,0-2.08.21,14.05,14.05,0,0,0-2,.52,15.38,15.38,0,0,0-1.86.81,13.29,13.29,0,0,0-3.1,2.27,13.51,13.51,0,0,0-3.4,5.51,14.32,14.32,0,0,0-.67,4.4A12.13,12.13,0,0,1,28,119a4,4,0,0,1-.39-1.65,12.41,12.41,0,0,1,.38-4.62,13.63,13.63,0,0,1,1.2-3,13.82,13.82,0,0,1,2.22-3,12.9,12.9,0,0,1,1.52-1.34,13.86,13.86,0,0,1,1.78-1.15,13.24,13.24,0,0,1,2-.89,14,14,0,0,1,4.44-.79,14.66,14.66,0,0,1,2.19.15,12.06,12.06,0,0,1,2.06.47,12.73,12.73,0,0,1,1.89.73,13.7,13.7,0,0,1,5.29,4.44,12.91,12.91,0,0,1,1.94,4.21A4.29,4.29,0,0,1,54.65,114.31Z"/></g><g class="cls-7"><path d="M44,124.47l.38,2.33-2.08.33-.37-2.27a9.87,9.87,0,0,1-5.45-.85l.73-2.72a8.45,8.45,0,0,0,4.28.84l-.55-3.47c-2.41-.19-5.11-.56-5.59-3.53-.35-2.21,1-4.37,4.18-5.27l-.37-2.31,2.08-.33.36,2.27a9.59,9.59,0,0,1,4.44.59l-.63,2.73a8.79,8.79,0,0,0-3.37-.57l.57,3.54c2.4.17,5.07.54,5.54,3.47C48.47,121.42,47.18,123.55,44,124.47Zm-3.55-8.88-.48-3c-1.06.43-1.4,1.1-1.29,1.79S39.45,115.45,40.42,115.59ZM44.81,120c-.12-.73-.79-1-1.73-1.2l.45,2.87c1-.37,1.38-1,1.28-1.67Z"/></g><path class="cls-8" d="M27.87,118.66l0,.11.08.31.11.51a3.88,3.88,0,0,0,.18.69,13.7,13.7,0,0,0,1.95,4.08,14.32,14.32,0,0,0,2.07,2.33l.67.54.34.27.38.25c.25.16.49.34.76.5l.82.42A13.46,13.46,0,0,0,39,129.89a14.35,14.35,0,0,0,4.24.05,14.73,14.73,0,0,0,4-1.27,14,14,0,0,0,3.24-2.26l.66-.66c.22-.22.4-.47.59-.69l.28-.35a3.9,3.9,0,0,0,.25-.36l.49-.71a14.51,14.51,0,0,0,1.3-2.83,13.57,13.57,0,0,0,.7-4.47c0-.24,0-.48,0-.71s0-.37,0-.52a2.63,2.63,0,0,0,0-.33.2.2,0,0,1,0-.11.52.52,0,0,1,0,.11,2.14,2.14,0,0,0,0,.32c0,.13,0,.32.06.52a4.36,4.36,0,0,1,0,.72,13,13,0,0,1-.63,4.51,13.9,13.9,0,0,1-1.3,2.89l-.48.72c-.08.12-.16.25-.25.37l-.29.34a7.93,7.93,0,0,1-.59.71c-.22.23-.42.45-.67.68a13.85,13.85,0,0,1-3.28,2.3A13.59,13.59,0,0,1,39,130.11a13.87,13.87,0,0,1-3.82-1.28l-.85-.45c-.27-.15-.52-.34-.77-.5l-.38-.25-.35-.28-.67-.56a13.82,13.82,0,0,1-2.07-2.38,13.22,13.22,0,0,1-1.91-4.14,4.18,4.18,0,0,1-.16-.7l-.1-.52-.05-.31S27.87,118.69,27.87,118.66Z"/></g><g id="freepik--Floor--inject-2"><path class="cls-8" d="M282.84,170.19c0,.07-63.32.12-141.41.12S0,170.26,0,170.19s63.31-.11,141.43-.11S282.84,170.13,282.84,170.19Z"/></g><g id="freepik--Character--inject-2"><path class="cls-10" d="M216.91,90.52a22.72,22.72,0,0,0-.15-2.84L211,89a53,53,0,0,0-.67,5.45l6.53,1.81S216.91,90.69,216.91,90.52Z"/><path class="cls-10" d="M216.91,95.8a.31.31,0,0,0,0-.13c.06-.63,0-3.39-.31-3.51s-1.32.08-1.39.45.16,3.47.16,3.47.06.49.89.6C216.8,96.74,216.91,95.8,216.91,95.8Z"/><path class="cls-10" d="M215.27,96.79a.51.51,0,0,0,0-.13c.07-.63,0-3.39-.31-3.51s-1.32.09-1.38.45.16,3.47.16,3.47.06.49.88.61C215.15,97.75,215.27,96.79,215.27,96.79Z"/><path class="cls-10" d="M213.65,97.28a.58.58,0,0,0,0-.13c.06-.63,0-3.39-.31-3.5s-1.33.08-1.39.45.16,3.46.16,3.46.06.49.88.61C213.52,98.24,213.65,97.28,213.65,97.28Z"/><path class="cls-10" d="M212,97.75a.41.41,0,0,1,0-.13c.07-.63,0-3.39-.31-3.51s-1.31.09-1.38.45.15,3.47.15,3.47.07.49.89.6C211.92,98.71,212,97.75,212,97.75Z"/><path class="cls-11" d="M215.24,93.41a5.62,5.62,0,0,1,.13,1.35,5,5,0,0,1-.05,1.33,5.56,5.56,0,0,1-.12-1.35A4.94,4.94,0,0,1,215.24,93.41Z"/><path class="cls-11" d="M213.61,93.41a10.09,10.09,0,0,1,.16,1.9,11.19,11.19,0,0,1,0,1.92,20.35,20.35,0,0,1-.14-3.82Z"/><g class="cls-12"><path class="cls-11" d="M212,93.54a10.18,10.18,0,0,1,.15,1.91,10.26,10.26,0,0,1,0,1.92,11.1,11.1,0,0,1-.15-1.91A10.26,10.26,0,0,1,212,93.54Z"/></g><path class="cls-10" d="M210.92,89.11s-2.29,5.21-2,5.54a8.32,8.32,0,0,0,1.42.82Z"/><path class="cls-10" d="M198.25,19.16l-1.7,19.51-9.75-.78c-.06-1.14,0-5.55,0-5.55s-4.07-.64-4.12-4.7c0-2,.26-6.05.56-9.73a7.52,7.52,0,0,1,7.93-6.9h0a7.53,7.53,0,0,1,7.08,8C198.26,19,198.26,19.1,198.25,19.16Z"/><path class="cls-11" d="M186.8,32.28a9.48,9.48,0,0,0,5.3-1.51s-1.28,2.92-5.31,2.54Z"/><path class="cls-8" d="M184.32,20.76a.59.59,0,0,0,.56.59.56.56,0,0,0,.6-.5v0a.58.58,0,0,0-.56-.59.55.55,0,0,0-.6.51Z"/><path class="cls-8" d="M184.11,20c.07.07.51-.25,1.13-.25s1.09.32,1.15.24,0-.17-.23-.32a1.72,1.72,0,0,0-.93-.28,1.53,1.53,0,0,0-.9.29C184.14,19.79,184.07,19.93,184.11,20Z"/><path class="cls-8" d="M190.47,20.76a.59.59,0,0,0,.57.59.55.55,0,0,0,.59-.52h0a.58.58,0,0,0-.56-.59.55.55,0,0,0-.6.51Z"/><path class="cls-8" d="M190.24,20.08c.08.08.52-.25,1.14-.25s1.09.31,1.15.24,0-.17-.24-.32a1.66,1.66,0,0,0-.92-.28,1.53,1.53,0,0,0-.9.29C190.28,19.91,190.19,20.05,190.24,20.08Z"/><path class="cls-8" d="M188,24.71a4.37,4.37,0,0,0-1-.18c-.17,0-.31-.05-.34-.16a.77.77,0,0,1,.1-.47l.48-1.22a19.83,19.83,0,0,0,1-3.17A21.23,21.23,0,0,0,187,22.59c-.15.42-.31.85-.45,1.22a.92.92,0,0,0-.08.63.4.4,0,0,0,.26.23,1.26,1.26,0,0,0,.27,0A4.44,4.44,0,0,0,188,24.71Z"/><path class="cls-8" d="M189.82,25.14c-.11,0-.11.67-.69,1.16a3.42,3.42,0,0,1-1.3.5c0,.07.16.13.46.14a1.7,1.7,0,0,0,1.09-.38,1.43,1.43,0,0,0,.53-1C189.94,25.3,189.86,25.14,189.82,25.14Z"/><path class="cls-8" d="M190.08,17.63c.07.17.69.09,1.42.18s1.33.29,1.42.14-.06-.24-.29-.4a2.48,2.48,0,0,0-2.17-.24C190.19,17.43,190.06,17.55,190.08,17.63Z"/><path class="cls-8" d="M184.34,18.15c.11.15.53,0,1,0s1,.1,1.06,0,0-.21-.21-.34a1.53,1.53,0,0,0-1.7,0C184.35,17.94,184.29,18.09,184.34,18.15Z"/><path class="cls-8" d="M199.1,16.65c-.23,2-.77,4.47-.93,6.49a1.11,1.11,0,0,1-.14.54c-.29.38-1,1.21-1.34.88-.84-.8-1.18-3-1.36-4.19s-.14-2.33-.29-3.5v-.08a3.21,3.21,0,0,0-1.19-2.06,1.92,1.92,0,0,0-.47-.25c-1.2-.42-3.19.36-4.38.79-.61.23-1.21.5-1.8.77a4.22,4.22,0,0,1-4.2-.35c-.72-.53-.78-2.18-.47-3.23.85-2.83,4.42-3.82,9-2.72S199.57,12.59,199.1,16.65Z"/><path class="cls-10" d="M196.86,21c.07,0,2.79-.84,2.7,2a2.09,2.09,0,0,1-2.86,2C196.69,24.91,196.86,21,196.86,21Z"/><path class="cls-11" d="M197.59,24l.12.08a.55.55,0,0,0,.36,0,1.19,1.19,0,0,0,.59-1.06,1.52,1.52,0,0,0-.11-.7.56.56,0,0,0-.35-.38.24.24,0,0,0-.29.12c0,.08,0,.13,0,.14s-.05-.05,0-.16a.25.25,0,0,1,.11-.17.38.38,0,0,1,.27-.07.69.69,0,0,1,.49.45,1.62,1.62,0,0,1,.14.78,1.27,1.27,0,0,1-.74,1.18.52.52,0,0,1-.42-.09C197.59,24,197.57,24,197.59,24Z"/><path class="cls-13" d="M199.06,16.84a4.27,4.27,0,0,1-4,.07,11.15,11.15,0,0,0,2,.24A12.29,12.29,0,0,0,199.06,16.84Z"/><path class="cls-13" d="M199,17.64a3.28,3.28,0,0,1-1.9.53,3.43,3.43,0,0,1-1.93-.46,11.43,11.43,0,0,0,1.92.23A12.25,12.25,0,0,0,199,17.64Z"/><path class="cls-8" d="M179.62,156.05l1.81,8.32s-7.84,4.62-7.66,6.19L190,167.64l-2.28-13.07Z"/><path class="cls-13" d="M190,167.64l-.27-1.31-15.48,3.29s-.66.42-.49.94Z"/><path class="cls-8" d="M198.1,157l.27,8.5s-8.55,3.13-8.66,4.71l16.51.07.13-13.27Z"/><g class="cls-14"><path class="cls-13" d="M206.22,170.24l0-1.33-15.81.42s-.74.32-.66.85Z"/></g><path class="cls-8" d="M178.74,163.18s-8.48-41.5-8.48-42.34l15.12-8,5.86,48.71Z"/><path class="cls-8" d="M197.77,164.59,186.08,92.64V77.12l16,1.48c.2.61,5.42,86.07,5.42,86.07l-1.64-.1h-8.06"/><polygon class="cls-8" points="176.89 76.02 170.27 120.84 185.08 117.25 191.12 77.48 176.89 76.02"/><path class="cls-13" d="M190.62,79.82V80c0,.15,0,.37.07.65.06.57.16,1.4.28,2.47.25,2.14.63,5.24,1.13,9.07,1,7.66,2.49,18.24,4.1,29.89.8,5.83,1.54,11.4,2.17,16.46.17,1.27.29,2.51.47,3.7s.36,2.36.53,3.48l.95,6.24c.57,3.82,1,6.91,1.32,9.05.15,1.07.26,1.9.33,2.46,0,.29.05.5.06.65v.16c0,.05,0,0,0,0h0a.49.49,0,0,0,0-.17,4.28,4.28,0,0,0,0-.64c-.05-.57-.15-1.4-.28-2.47-.28-2.14-.71-5.24-1.28-9.06l-.92-6.25c-.17-1.11-.34-2.28-.52-3.47s-.3-2.44-.46-3.7c-.62-5.07-1.36-10.63-2.16-16.47-1.61-11.67-3.13-22.23-4.16-29.88l-1.17-9c-.13-1.07-.24-1.89-.32-2.47l-.09-.64C190.62,79.9,190.62,79.82,190.62,79.82Z"/><path class="cls-13" d="M181.71,162.8a1.17,1.17,0,0,0,0-.22c0-.14-.06-.35-.1-.62-.09-.55-.23-1.36-.42-2.39l-1.54-8.77-5.15-28.93a6.74,6.74,0,0,1-.13-2.1c.09-.69.21-1.4.31-2.08q.32-2.09.63-4.08c.43-2.68.85-5.25,1.24-7.71.82-4.9,1.61-9.33,2.31-13s1.32-6.67,1.8-8.72c.22-1,.42-1.82.54-2.36.07-.27.11-.47.15-.62a1.13,1.13,0,0,0,0-.21.71.71,0,0,1,0,.21,5.17,5.17,0,0,0-.17.61c-.14.54-.35,1.32-.58,2.35-.5,2-1.14,5-1.86,8.71s-1.53,8.1-2.35,13c-.42,2.46-.85,5-1.27,7.71q-.31,2-.63,4.08c-.11.69-.22,1.37-.31,2.09a6.74,6.74,0,0,0,.13,2.15c2,11.29,3.87,21.51,5.2,28.92.68,3.7,1.22,6.69,1.61,8.77l.44,2.38.12.62A.5.5,0,0,0,181.71,162.8Z"/><path class="cls-13" d="M186.08,92.13c-.06,0,.64,4.66,1.54,10.38s1.7,10.35,1.75,10.34-.64-4.66-1.55-10.37S186.14,92.12,186.08,92.13Z"/><path class="cls-13" d="M197.63,164.44a1.22,1.22,0,0,0,.38.07l1.05.1c.89.07,2.12.13,3.48.15s2.59,0,3.48,0c.42,0,.8,0,1-.06a1.74,1.74,0,0,0,.39,0,11.54,11.54,0,0,0-1.44,0h-3.48c-1.35,0-2.58-.07-3.47-.1A11.54,11.54,0,0,0,197.63,164.44Z"/><path class="cls-13" d="M178.74,163.18a2.79,2.79,0,0,0,.5,0l1.34-.15,4.42-.54c1.73-.22,3.29-.42,4.42-.6l1.33-.21a2.66,2.66,0,0,0,.49-.1h-.5l-1.34.14-4.42.54c-1.73.23-3.29.43-4.42.61l-1.33.2A2.72,2.72,0,0,0,178.74,163.18Z"/><path class="cls-13" d="M156.49,49.53,166,56.78s8.86-15.13,9.65-16.07a11.08,11.08,0,0,1,2.77-1.94l-1.09,19.38S172.55,70.39,166,69.72c-5-.51-13.75-13.8-13.75-13.8Z"/><g class="cls-15"><path d="M165.85,56.55a8.37,8.37,0,0,0-1,7,1,1,0,0,0,.39.61.74.74,0,0,0,.95-.31,2.23,2.23,0,0,0,.25-1.08,2.45,2.45,0,0,0,.7.92.86.86,0,0,0,1.08,0c.31-.35.14-.9-.05-1.34q-1.22-2.74-2.44-5.51"/></g><path class="cls-8" d="M158.89,51.7a35.57,35.57,0,0,1-2.18,3.66,35.35,35.35,0,0,1-2.4,3.51,33.73,33.73,0,0,1,2.18-3.65A37.27,37.27,0,0,1,158.89,51.7Z"/><path class="cls-8" d="M156.46,51.43s.1-.15.32-.06a.4.4,0,0,1,.25.3.42.42,0,0,1-.32.5.44.44,0,0,1-.4-.12.44.44,0,0,1-.1-.38c.06-.23.23-.26.23-.22s-.06.1-.05.24.12.28.3.19a.2.2,0,0,0,.08-.26.24.24,0,0,0-.08-.09C156.59,51.45,156.48,51.47,156.46,51.43Z"/><path class="cls-8" d="M166,61.37a5.13,5.13,0,0,1-.42-2.29,5.07,5.07,0,0,1,.36-2.29c.06,0-.13,1-.11,2.29S166.11,61.35,166,61.37Z"/><path class="cls-8" d="M167.88,61.3a7.43,7.43,0,0,1-1.22-2.14,7.78,7.78,0,0,1-.72-2.36c.07,0,.42,1,1,2.26A24.12,24.12,0,0,1,167.88,61.3Z"/><path class="cls-13" d="M198.39,36.94l-1.45-2.85H186.52l-1.64,3.24-6.43,1.46L175.67,80.3a2.85,2.85,0,0,0,.37,1.51h0l25.32.93,1,.43c.9-.56.34-2.88.35-4l.32-20.56,5-16.43Z"/><g class="cls-15"><path d="M187.58,38.37l1.85-1.85,2.07,5a52.13,52.13,0,0,0,6.78-4.74l-7,2.25-1.78-4.72a18,18,0,0,1-1.76,4.09"/></g><path class="cls-13" d="M217,89l-6.83.35V69.75l-7-11.09,5-16.43c1,.43,8.8,19.94,10.78,25.23a5.9,5.9,0,0,1,.37,2.39Z"/><path class="cls-8" d="M178.45,47.34c.07,0-.27,4-.76,9s-.94,9-1,9,.26-4,.76-9S178.38,47.33,178.45,47.34Z"/><path class="cls-8" d="M189.48,34.32a24.66,24.66,0,0,1-1.24,3.33l-.14.34a.89.89,0,0,1-.23.35.43.43,0,0,1-.45,0,1.75,1.75,0,0,1-.29-.18l-.94-.63a3.93,3.93,0,0,1-.82-.64,4.29,4.29,0,0,1,.92.49l1,.58c.18.12.37.26.46.16a2.22,2.22,0,0,0,.28-.58A23.39,23.39,0,0,1,189.48,34.32Z"/><path class="cls-8" d="M197.77,36.86a12,12,0,0,1-1.59.64c-1,.37-2.38.85-3.9,1.38l-.85.28-.12,0,0-.11c-.54-1.3-1-2.45-1.32-3.28a8.35,8.35,0,0,1-.48-1.35,7.51,7.51,0,0,1,.63,1.27c.36.81.85,2,1.4,3.25l-.15-.07.84-.29c1.54-.52,2.92-1,3.93-1.3A10.64,10.64,0,0,1,197.77,36.86Z"/><path class="cls-8" d="M207,42.82c0,.08-1.45.47-3.15,1.23s-3,1.58-3,1.52a3.34,3.34,0,0,1,.79-.61,16.37,16.37,0,0,1,4.4-2A3.22,3.22,0,0,1,207,42.82Z"/><path class="cls-8" d="M189.48,34.32a.24.24,0,0,1,0,.12v.36c0,.33,0,.8,0,1.41,0,1.22,0,3-.08,5.16-.15,4.35-.7,10.35-1.56,16.94-.43,3.3-.89,6.43-1.21,9.29a60.77,60.77,0,0,0-.42,7.63,40,40,0,0,0,.42,5.13c.08.6.18,1.07.23,1.38,0,.15,0,.27.05.36v.13a.56.56,0,0,1,0-.12c0-.1-.05-.21-.08-.36-.06-.31-.18-.77-.27-1.38a35.34,35.34,0,0,1-.48-5.14,58.89,58.89,0,0,1,.35-7.63c.3-2.87.77-6,1.19-9.29.84-6.59,1.44-12.58,1.64-16.92.11-2.17.14-3.93.16-5.15V34.47A.35.35,0,0,1,189.48,34.32Z"/><path class="cls-8" d="M217.34,86a23,23,0,0,1-3.62,0,25.28,25.28,0,0,1-3.6-.31,25.32,25.32,0,0,1,3.61.05A27.32,27.32,0,0,1,217.34,86Z"/><path class="cls-8" d="M211.27,86.75v.18a.12.12,0,0,0,.2.08c.09-.08.06-.16,0-.22s-.15,0-.18-.06,0-.14.23-.11a.32.32,0,0,1,.25.2.34.34,0,0,1-.11.39.36.36,0,0,1-.43,0,.37.37,0,0,1-.14-.29C211.13,86.76,211.26,86.72,211.27,86.75Z"/><g class="cls-15"><path d="M203.16,58.61l-2.22-4a55,55,0,0,0,1.47,21.18l.68-17.07"/></g><path class="cls-8" d="M191.89,51.23l.42,0,1.19,0c1,0,2.52,0,4.31-.05h.11v.12c-.11,1.57-.24,3.39-.39,5.32v.07l-.06,0-.27.14-2.88,1.52-.07,0-.06-.05-2.72-2.18-.05,0v0c.13-1.44.23-2.64.31-3.53,0-.38.07-.7.1-1a1.65,1.65,0,0,1,0-.32,2.16,2.16,0,0,1,0,.36c0,.26,0,.59,0,1-.05.85-.11,2.06-.2,3.47l0-.09,2.7,2.16h-.14L197,56.59l.26-.14-.07.1c.16-1.94.3-3.75.43-5.32l.11.13c-1.74,0-3.2,0-4.24-.06l-1.21,0A3,3,0,0,1,191.89,51.23Z"/><path class="cls-8" d="M179.36,82c0,.07-.54,0-.88-.54s-.24-1-.17-1a6.14,6.14,0,0,0,.39.84C179,81.72,179.38,81.93,179.36,82Z"/><path class="cls-8" d="M180,81.72a2.35,2.35,0,0,1-.64-2.54c.08,0,0,.61.18,1.31S180.07,81.68,180,81.72Z"/><path class="cls-8" d="M199.12,78.87a3.38,3.38,0,0,1-.39,2.09,3.65,3.65,0,0,1-1.36,1.64,13.42,13.42,0,0,0,1.12-1.75A19.17,19.17,0,0,0,199.12,78.87Z"/><path class="cls-10" d="M156,50.32s-7.71-5.84-8.79-6.23c-1.79-.65-2.22-.47-2.22-.47l4.24,4.55s-4.47,1.51-4.79,1.7S143.92,51,145,51c.9,0,5.18.1,5.18.1l3.54,2.58Z"/></g><g id="freepik--speech-bubble--inject-2"><path class="cls-8" d="M224.18,0h.25l.75,0h.55l.66.09.77.11.85.22a14.13,14.13,0,0,1,4.17,1.83A14.69,14.69,0,0,1,239,13.34a15,15,0,0,1,0,2,8.91,8.91,0,0,1-.07,1c-.07.35-.11.69-.16,1a14.52,14.52,0,0,1-1.4,4.1,15.9,15.9,0,0,1-2.68,3.69A15.58,15.58,0,0,1,230.84,28a14.1,14.1,0,0,1-4.7,1.44,9.07,9.07,0,0,1-1.27.11c-.43,0-.85,0-1.28,0a15.61,15.61,0,0,1-2.54-.32A15,15,0,0,1,216,27.09h.16L211,29.16l-.3.12.09-.32,1.51-5.51,0,.14a14.8,14.8,0,0,1-2.75-6.3,13.36,13.36,0,0,1-.2-3.22,11.45,11.45,0,0,1,.14-1.55c0-.25.09-.5.12-.75s.12-.49.18-.73a14.7,14.7,0,0,1,5.75-8.38A14.23,14.23,0,0,1,219,.89l.78-.27.73-.19.67-.16c.21-.05.42-.07.61-.1.39-.05.73-.12,1-.13l.76,0h.62L224,0l-.46,0-.75,0c-.3,0-.64.1-1,.16a14.65,14.65,0,0,0-11.72,10.86c0,.24-.13.48-.17.72s-.07.49-.11.74a9.65,9.65,0,0,0-.14,1.52,13.93,13.93,0,0,0,.21,3.16,14.55,14.55,0,0,0,2.71,6.16l.05.06v.07q-.72,2.68-1.5,5.52l-.22-.19,5.15-2.08.08,0,.07.05a14.45,14.45,0,0,0,7.43,2.39,10.26,10.26,0,0,0,1.24,0,8.52,8.52,0,0,0,1.23-.11,13.56,13.56,0,0,0,4.6-1.4A15.56,15.56,0,0,0,234.48,25a15.78,15.78,0,0,0,2.63-3.6,14.55,14.55,0,0,0,1.38-4c0-.34.11-.68.16-1s0-.67.07-1a16.36,16.36,0,0,0,0-2,14.58,14.58,0,0,0-6.58-10.92A14,14,0,0,0,228,.6l-.85-.22L226.4.25l-.65-.11-.55,0-.77,0Z"/><path class="cls-6" d="M229,18.28h-.68l-1.85,0-6.22.06h-.06v-.05c-.05-.33-.1-.68-.15-1-.42-3-.81-5.71-1.06-7.47l0,0h-1.65l1.65,0h0v0c.26,1.76.66,4.45,1.11,7.46l.14,1,0-.05H229Z"/><path class="cls-6" d="M220.4,18.45h-.21l0-.21h0v0l-.13-.85L219,9.93h-2c-.18,0-.21,0-.21-.06v0h0l.2,0h.42l1.56,0V9.75l0,0h.14v.15l0,0h0c.26,1.76.65,4.41,1.09,7.36l.14.93h8.48c.2,0,.22,0,.22.07s0,.06-.22.06h-.5l-1.86,0-6.09,0Zm0-.13Zm-.57-3,.42,2.9h0l-.13-.92C220,16.62,219.92,16,219.83,15.31Z"/><path class="cls-6" d="M220,16.52h.68l1.87,0,6.46-.06-.06.05c.19-1.09.39-2.27.59-3.49.11-.62.22-1.23.31-1.82l.06.06-7.61,0h-2.24l2.25,0,7.62-.06H230v.06c-.09.59-.2,1.2-.31,1.83-.2,1.22-.42,2.39-.59,3.48v.05H220Z"/><path class="cls-6" d="M222.55,16.59H220s-.09,0-.09-.06.05-.06.09-.06h.63l1.88,0,6.36-.06.58-3.39c.1-.58.19-1.15.29-1.7l-7.48,0h-3c-.06,0-.11,0-.11-.06s.05-.06.11-.06H220l2.26,0,7.52-.07h.24l0,.21h0l-.84,5.08h0l0,.21h-6.59Zm6.36-.13h0Zm1-5.2c-.09.55-.19,1.13-.29,1.7L229,16.35h0l.84-5.09Zm-.09-.11h0Z"/><path class="cls-6" d="M222.47,20.69a.65.65,0,0,0-.05-.21.87.87,0,0,0-.33-.45.84.84,0,0,0-.78-.1.82.82,0,0,0-.53.77.85.85,0,0,0,.54.77.84.84,0,0,0,.78-.11.92.92,0,0,0,.32-.46c0-.13,0-.21.05-.21a.41.41,0,0,1,0,.22.88.88,0,0,1-.31.51A.92.92,0,1,1,221,20a.81.81,0,0,1,.27-.15.9.9,0,0,1,.88.14.89.89,0,0,1,.32.5C222.49,20.61,222.48,20.69,222.47,20.69Z"/><path class="cls-6" d="M221.58,21.67a.86.86,0,0,1-.32-.05,1,1,0,0,1,.31-1.9,1,1,0,0,1,.6.2.9.9,0,0,1,.34.54.88.88,0,0,1,0,.23.89.89,0,0,1,0,.23.9.9,0,0,1-.33.54A1,1,0,0,1,221.58,21.67Zm-.19-1.83-.11,0a.87.87,0,0,0-.53,1.11.9.9,0,0,0,.53.53l.11,0-.1,0a.87.87,0,0,1-.52-1.12.84.84,0,0,1,.52-.52Zm.21.09a.66.66,0,0,0-.28.05.76.76,0,0,0-.49.72.77.77,0,0,0,.78.77.87.87,0,0,0,.79-.74v-.07a1.24,1.24,0,0,0,0-.16.8.8,0,0,0-.3-.42.75.75,0,0,0-.46-.15Z"/><path class="cls-6" d="M228.1,20.66a.65.65,0,0,0,0-.21.91.91,0,0,0-.32-.45.85.85,0,0,0-1.18.23.77.77,0,0,0-.14.44.86.86,0,0,0,.54.77.84.84,0,0,0,.78-.12.8.8,0,0,0,.32-.45c0-.13,0-.21,0-.21a.41.41,0,0,1,0,.22.88.88,0,0,1-.31.51.93.93,0,1,1,0-1.46,1,1,0,0,1,.32.51A.55.55,0,0,1,228.1,20.66Z"/><path class="cls-6" d="M227.21,21.64a1.19,1.19,0,0,1-.32-.05,1,1,0,0,1,.61-1.86.92.92,0,0,1,.31.16,1,1,0,0,1,.34.54.88.88,0,0,1,0,.23.89.89,0,0,1,0,.23,1,1,0,0,1-.94.75ZM227,19.81l-.1,0a.88.88,0,0,0-.53,1.12.87.87,0,0,0,.53.53l.12,0-.12,0a.89.89,0,0,1,0-1.65Zm.21.08a.86.86,0,0,0-.27.05.78.78,0,0,0,.55,1.45,1.18,1.18,0,0,0,.19-.11.84.84,0,0,0,.3-.42,1.1,1.1,0,0,0,0-.16v-.07a.36.36,0,0,0,0-.16.83.83,0,0,0-.77-.58Z"/></g></svg>