<svg id="Capa_1" data-name="Capa 1" xmlns="http://www.w3.org/2000/svg" xmlns:xlink="http://www.w3.org/1999/xlink" viewBox="0 0 386.97 237.51"><defs><style>.cls-1{fill:url(#Degradado_sin_nombre);}.cls-2{fill:url(#Degradado_sin_nombre_2);}.cls-10,.cls-100,.cls-101,.cls-102,.cls-103,.cls-104,.cls-105,.cls-106,.cls-11,.cls-12,.cls-13,.cls-14,.cls-19,.cls-20,.cls-21,.cls-22,.cls-23,.cls-24,.cls-25,.cls-26,.cls-27,.cls-28,.cls-29,.cls-3,.cls-30,.cls-33,.cls-34,.cls-35,.cls-36,.cls-37,.cls-38,.cls-39,.cls-4,.cls-40,.cls-41,.cls-42,.cls-43,.cls-44,.cls-47,.cls-48,.cls-49,.cls-5,.cls-50,.cls-51,.cls-52,.cls-53,.cls-54,.cls-55,.cls-56,.cls-57,.cls-58,.cls-59,.cls-6,.cls-60,.cls-61,.cls-62,.cls-65,.cls-66,.cls-67,.cls-68,.cls-69,.cls-7,.cls-70,.cls-71,.cls-72,.cls-73,.cls-74,.cls-75,.cls-76,.cls-79,.cls-8,.cls-80,.cls-81,.cls-82,.cls-83,.cls-84,.cls-85,.cls-86,.cls-87,.cls-88,.cls-89,.cls-9,.cls-90,.cls-93,.cls-94,.cls-95,.cls-96,.cls-97,.cls-98,.cls-99{fill:none;stroke-miterlimit:10;}.cls-10,.cls-11,.cls-12,.cls-13,.cls-14,.cls-3,.cls-4,.cls-5,.cls-6,.cls-7,.cls-8,.cls-9{stroke-width:0.47px;}.cls-3{stroke:url(#Degradado_sin_nombre_3);}.cls-4,.cls-8{stroke-dasharray:1.89 1.89;}.cls-4{stroke:url(#Degradado_sin_nombre_4);}.cls-5{stroke:url(#Degradado_sin_nombre_5);}.cls-10,.cls-12,.cls-14,.cls-6{stroke-dasharray:1.89 1.89;}.cls-6{stroke:url(#Degradado_sin_nombre_6);}.cls-7{stroke:url(#Degradado_sin_nombre_7);}.cls-8{stroke:url(#Degradado_sin_nombre_8);}.cls-9{stroke:url(#Degradado_sin_nombre_9);}.cls-10{stroke:url(#Degradado_sin_nombre_10);}.cls-11{stroke:url(#Degradado_sin_nombre_11);}.cls-12{stroke:url(#Degradado_sin_nombre_12);}.cls-13{stroke:url(#Degradado_sin_nombre_13);}.cls-14{stroke:url(#Degradado_sin_nombre_14);}.cls-15{fill:#fff;}.cls-16{fill:#878787;}.cls-17{fill:url(#Degradado_sin_nombre_15);}.cls-18{fill:url(#Degradado_sin_nombre_16);}.cls-100,.cls-101,.cls-102,.cls-103,.cls-104,.cls-19,.cls-20,.cls-21,.cls-22,.cls-23,.cls-24,.cls-25,.cls-26,.cls-27,.cls-28,.cls-29,.cls-30,.cls-33,.cls-34,.cls-35,.cls-36,.cls-37,.cls-38,.cls-39,.cls-40,.cls-41,.cls-42,.cls-43,.cls-44,.cls-47,.cls-48,.cls-49,.cls-50,.cls-51,.cls-52,.cls-53,.cls-54,.cls-55,.cls-56,.cls-57,.cls-58,.cls-65,.cls-66,.cls-67,.cls-68,.cls-69,.cls-70,.cls-71,.cls-72,.cls-73,.cls-74,.cls-75,.cls-76,.cls-79,.cls-80,.cls-81,.cls-82,.cls-83,.cls-84,.cls-85,.cls-86,.cls-87,.cls-88,.cls-89,.cls-90,.cls-93,.cls-94,.cls-95,.cls-96,.cls-97,.cls-98,.cls-99{stroke-width:0.37px;}.cls-19{stroke:url(#Degradado_sin_nombre_17);}.cls-100,.cls-102,.cls-104,.cls-20,.cls-22,.cls-24,.cls-26,.cls-28,.cls-30,.cls-34,.cls-36,.cls-38,.cls-40,.cls-42,.cls-44,.cls-48,.cls-50,.cls-52,.cls-54,.cls-56,.cls-58,.cls-66,.cls-68,.cls-70,.cls-72,.cls-74,.cls-76,.cls-80,.cls-82,.cls-84,.cls-86,.cls-88,.cls-90,.cls-94,.cls-96,.cls-98{stroke-dasharray:1.48 1.48;}.cls-20{stroke:url(#Degradado_sin_nombre_18);}.cls-21{stroke:url(#Degradado_sin_nombre_19);}.cls-22{stroke:url(#Degradado_sin_nombre_20);}.cls-23{stroke:url(#Degradado_sin_nombre_21);}.cls-24{stroke:url(#Degradado_sin_nombre_22);}.cls-25{stroke:url(#Degradado_sin_nombre_23);}.cls-26{stroke:url(#Degradado_sin_nombre_24);}.cls-27{stroke:url(#Degradado_sin_nombre_25);}.cls-28{stroke:url(#Degradado_sin_nombre_26);}.cls-29{stroke:url(#Degradado_sin_nombre_27);}.cls-30{stroke:url(#Degradado_sin_nombre_28);}.cls-31{fill:url(#Degradado_sin_nombre_29);}.cls-32{fill:url(#Degradado_sin_nombre_30);}.cls-33{stroke:url(#Degradado_sin_nombre_31);}.cls-34{stroke:url(#Degradado_sin_nombre_32);}.cls-35{stroke:url(#Degradado_sin_nombre_33);}.cls-36{stroke:url(#Degradado_sin_nombre_34);}.cls-37{stroke:url(#Degradado_sin_nombre_35);}.cls-38{stroke:url(#Degradado_sin_nombre_36);}.cls-39{stroke:url(#Degradado_sin_nombre_37);}.cls-40{stroke:url(#Degradado_sin_nombre_38);}.cls-41{stroke:url(#Degradado_sin_nombre_39);}.cls-42{stroke:url(#Degradado_sin_nombre_40);}.cls-43{stroke:url(#Degradado_sin_nombre_41);}.cls-44{stroke:url(#Degradado_sin_nombre_42);}.cls-45{fill:url(#Degradado_sin_nombre_43);}.cls-46{fill:url(#Degradado_sin_nombre_44);}.cls-47{stroke:url(#Degradado_sin_nombre_45);}.cls-48{stroke:url(#Degradado_sin_nombre_46);}.cls-49{stroke:url(#Degradado_sin_nombre_47);}.cls-50{stroke:url(#Degradado_sin_nombre_48);}.cls-51{stroke:url(#Degradado_sin_nombre_49);}.cls-52{stroke:url(#Degradado_sin_nombre_50);}.cls-53{stroke:url(#Degradado_sin_nombre_51);}.cls-54{stroke:url(#Degradado_sin_nombre_52);}.cls-55{stroke:url(#Degradado_sin_nombre_53);}.cls-56{stroke:url(#Degradado_sin_nombre_54);}.cls-57{stroke:url(#Degradado_sin_nombre_55);}.cls-58{stroke:url(#Degradado_sin_nombre_56);}.cls-105,.cls-106,.cls-59,.cls-60,.cls-61,.cls-62{stroke-width:0.5px;stroke-dasharray:2;}.cls-59{stroke:url(#Degradado_sin_nombre_57);}.cls-60{stroke:url(#Degradado_sin_nombre_58);}.cls-61{stroke:url(#Degradado_sin_nombre_59);}.cls-62{stroke:url(#Degradado_sin_nombre_60);}.cls-63{fill:url(#Degradado_sin_nombre_61);}.cls-64{fill:url(#Degradado_sin_nombre_62);}.cls-65{stroke:url(#Degradado_sin_nombre_63);}.cls-66{stroke:url(#Degradado_sin_nombre_64);}.cls-67{stroke:url(#Degradado_sin_nombre_65);}.cls-68{stroke:url(#Degradado_sin_nombre_66);}.cls-69{stroke:url(#Degradado_sin_nombre_67);}.cls-70{stroke:url(#Degradado_sin_nombre_68);}.cls-71{stroke:url(#Degradado_sin_nombre_69);}.cls-72{stroke:url(#Degradado_sin_nombre_70);}.cls-73{stroke:url(#Degradado_sin_nombre_71);}.cls-74{stroke:url(#Degradado_sin_nombre_72);}.cls-75{stroke:url(#Degradado_sin_nombre_73);}.cls-76{stroke:url(#Degradado_sin_nombre_74);}.cls-77{fill:url(#Degradado_sin_nombre_75);}.cls-78{fill:url(#Degradado_sin_nombre_76);}.cls-79{stroke:url(#Degradado_sin_nombre_77);}.cls-80{stroke:url(#Degradado_sin_nombre_78);}.cls-81{stroke:url(#Degradado_sin_nombre_79);}.cls-82{stroke:url(#Degradado_sin_nombre_80);}.cls-83{stroke:url(#Degradado_sin_nombre_81);}.cls-84{stroke:url(#Degradado_sin_nombre_82);}.cls-85{stroke:url(#Degradado_sin_nombre_83);}.cls-86{stroke:url(#Degradado_sin_nombre_84);}.cls-87{stroke:url(#Degradado_sin_nombre_85);}.cls-88{stroke:url(#Degradado_sin_nombre_86);}.cls-89{stroke:url(#Degradado_sin_nombre_87);}.cls-90{stroke:url(#Degradado_sin_nombre_88);}.cls-91{fill:url(#Degradado_sin_nombre_89);}.cls-92{fill:url(#Degradado_sin_nombre_90);}.cls-93{stroke:url(#Degradado_sin_nombre_91);}.cls-94{stroke:url(#Degradado_sin_nombre_92);}.cls-95{stroke:url(#Degradado_sin_nombre_93);}.cls-96{stroke:url(#Degradado_sin_nombre_94);}.cls-97{stroke:url(#Degradado_sin_nombre_95);}.cls-98{stroke:url(#Degradado_sin_nombre_96);}.cls-99{stroke:url(#Degradado_sin_nombre_97);}.cls-100{stroke:url(#Degradado_sin_nombre_98);}.cls-101{stroke:url(#Degradado_sin_nombre_99);}.cls-102{stroke:url(#Degradado_sin_nombre_100);}.cls-103{stroke:url(#Degradado_sin_nombre_101);}.cls-104{stroke:url(#Degradado_sin_nombre_102);}.cls-105{stroke:url(#Degradado_sin_nombre_103);}.cls-106{stroke:url(#Degradado_sin_nombre_104);}</style><linearGradient id="Degradado_sin_nombre" x1="165.53" y1="194.35" x2="229.23" y2="194.35" gradientTransform="matrix(1, 0, 0, -1, 0, 240)" gradientUnits="userSpaceOnUse"><stop offset="0" stop-color="#eb0000"/><stop offset="0.14" stop-color="#e30000"/><stop offset="0.35" stop-color="#cf0000"/><stop offset="0.61" stop-color="#ad0000"/><stop offset="0.9" stop-color="#7e0000"/><stop offset="0.99" stop-color="#6d0000"/></linearGradient><linearGradient id="Degradado_sin_nombre_2" x1="170.83" y1="194.35" x2="223.93" y2="194.35" gradientTransform="matrix(1, 0, 0, -1, 0, 240)" gradientUnits="userSpaceOnUse"><stop offset="0.01" stop-color="#6d0000"/><stop offset="0.1" stop-color="#7e0000"/><stop offset="0.39" stop-color="#ad0000"/><stop offset="0.65" stop-color="#cf0000"/><stop offset="0.86" stop-color="#e30000"/><stop offset="1" stop-color="#eb0000"/></linearGradient><linearGradient id="Degradado_sin_nombre_3" x1="157.85" y1="239.53" x2="236.92" y2="239.53" xlink:href="#Degradado_sin_nombre"/><linearGradient id="Degradado_sin_nombre_4" x1="157.85" y1="228.15" x2="236.92" y2="228.15" xlink:href="#Degradado_sin_nombre"/><linearGradient id="Degradado_sin_nombre_5" x1="157.85" y1="216.91" x2="236.92" y2="216.91" xlink:href="#Degradado_sin_nombre"/><linearGradient id="Degradado_sin_nombre_6" x1="157.85" y1="193.88" x2="236.92" y2="193.88" xlink:href="#Degradado_sin_nombre"/><linearGradient id="Degradado_sin_nombre_7" x1="157.85" y1="171.79" x2="236.92" y2="171.79" xlink:href="#Degradado_sin_nombre"/><linearGradient id="Degradado_sin_nombre_8" x1="157.85" y1="160.08" x2="236.92" y2="160.08" xlink:href="#Degradado_sin_nombre"/><linearGradient id="Degradado_sin_nombre_9" x1="157.85" y1="149.17" x2="236.92" y2="149.17" xlink:href="#Degradado_sin_nombre"/><linearGradient id="Degradado_sin_nombre_10" x1="157.85" y1="160.55" x2="236.92" y2="160.55" xlink:href="#Degradado_sin_nombre"/><linearGradient id="Degradado_sin_nombre_11" x1="157.85" y1="171.79" x2="236.92" y2="171.79" xlink:href="#Degradado_sin_nombre"/><linearGradient id="Degradado_sin_nombre_12" x1="157.85" y1="194.82" x2="236.92" y2="194.82" xlink:href="#Degradado_sin_nombre"/><linearGradient id="Degradado_sin_nombre_13" x1="157.85" y1="216.91" x2="236.92" y2="216.91" xlink:href="#Degradado_sin_nombre"/><linearGradient id="Degradado_sin_nombre_14" x1="157.85" y1="228.62" x2="236.92" y2="228.62" xlink:href="#Degradado_sin_nombre"/><linearGradient id="Degradado_sin_nombre_15" x1="67.47" y1="138.81" x2="117.28" y2="138.81" xlink:href="#Degradado_sin_nombre"/><linearGradient id="Degradado_sin_nombre_16" x1="71.61" y1="138.81" x2="113.13" y2="138.81" xlink:href="#Degradado_sin_nombre_2"/><linearGradient id="Degradado_sin_nombre_17" x1="61.46" y1="174.14" x2="123.29" y2="174.14" xlink:href="#Degradado_sin_nombre"/><linearGradient id="Degradado_sin_nombre_18" x1="61.46" y1="165.24" x2="123.29" y2="165.24" xlink:href="#Degradado_sin_nombre"/><linearGradient id="Degradado_sin_nombre_19" x1="61.46" y1="156.45" x2="123.29" y2="156.45" xlink:href="#Degradado_sin_nombre"/><linearGradient id="Degradado_sin_nombre_20" x1="61.46" y1="138.44" x2="123.29" y2="138.44" xlink:href="#Degradado_sin_nombre"/><linearGradient id="Degradado_sin_nombre_21" x1="61.46" y1="121.17" x2="123.29" y2="121.17" xlink:href="#Degradado_sin_nombre"/><linearGradient id="Degradado_sin_nombre_22" x1="61.46" y1="112.02" x2="123.29" y2="112.02" xlink:href="#Degradado_sin_nombre"/><linearGradient id="Degradado_sin_nombre_23" x1="61.46" y1="103.48" x2="123.29" y2="103.48" xlink:href="#Degradado_sin_nombre"/><linearGradient id="Degradado_sin_nombre_24" x1="61.46" y1="112.38" x2="123.29" y2="112.38" xlink:href="#Degradado_sin_nombre"/><linearGradient id="Degradado_sin_nombre_25" x1="61.46" y1="121.17" x2="123.29" y2="121.17" xlink:href="#Degradado_sin_nombre"/><linearGradient id="Degradado_sin_nombre_26" x1="61.46" y1="139.18" x2="123.29" y2="139.18" xlink:href="#Degradado_sin_nombre"/><linearGradient id="Degradado_sin_nombre_27" x1="61.46" y1="156.45" x2="123.29" y2="156.45" xlink:href="#Degradado_sin_nombre"/><linearGradient id="Degradado_sin_nombre_28" x1="61.46" y1="165.61" x2="123.29" y2="165.61" xlink:href="#Degradado_sin_nombre"/><linearGradient id="Degradado_sin_nombre_29" x1="120.76" y1="38.19" x2="170.57" y2="38.19" xlink:href="#Degradado_sin_nombre"/><linearGradient id="Degradado_sin_nombre_30" x1="124.9" y1="38.19" x2="166.43" y2="38.19" xlink:href="#Degradado_sin_nombre_2"/><linearGradient id="Degradado_sin_nombre_31" x1="114.75" y1="73.52" x2="176.58" y2="73.52" xlink:href="#Degradado_sin_nombre"/><linearGradient id="Degradado_sin_nombre_32" x1="114.75" y1="64.62" x2="176.58" y2="64.62" xlink:href="#Degradado_sin_nombre"/><linearGradient id="Degradado_sin_nombre_33" x1="114.75" y1="55.83" x2="176.58" y2="55.83" xlink:href="#Degradado_sin_nombre"/><linearGradient id="Degradado_sin_nombre_34" x1="114.75" y1="37.82" x2="176.58" y2="37.82" xlink:href="#Degradado_sin_nombre"/><linearGradient id="Degradado_sin_nombre_35" x1="114.75" y1="20.55" x2="176.58" y2="20.55" xlink:href="#Degradado_sin_nombre"/><linearGradient id="Degradado_sin_nombre_36" x1="114.75" y1="11.39" x2="176.58" y2="11.39" xlink:href="#Degradado_sin_nombre"/><linearGradient id="Degradado_sin_nombre_37" x1="114.75" y1="2.86" x2="176.58" y2="2.86" xlink:href="#Degradado_sin_nombre"/><linearGradient id="Degradado_sin_nombre_38" x1="114.75" y1="11.76" x2="176.58" y2="11.76" xlink:href="#Degradado_sin_nombre"/><linearGradient id="Degradado_sin_nombre_39" x1="114.75" y1="20.55" x2="176.58" y2="20.55" xlink:href="#Degradado_sin_nombre"/><linearGradient id="Degradado_sin_nombre_40" x1="114.75" y1="38.56" x2="176.58" y2="38.56" xlink:href="#Degradado_sin_nombre"/><linearGradient id="Degradado_sin_nombre_41" x1="114.75" y1="55.83" x2="176.58" y2="55.83" xlink:href="#Degradado_sin_nombre"/><linearGradient id="Degradado_sin_nombre_42" x1="114.75" y1="64.99" x2="176.58" y2="64.99" xlink:href="#Degradado_sin_nombre"/><linearGradient id="Degradado_sin_nombre_43" x1="6.01" y1="38.19" x2="55.82" y2="38.19" xlink:href="#Degradado_sin_nombre"/><linearGradient id="Degradado_sin_nombre_44" x1="10.15" y1="38.19" x2="51.67" y2="38.19" xlink:href="#Degradado_sin_nombre_2"/><linearGradient id="Degradado_sin_nombre_45" x1="0" y1="73.52" x2="61.83" y2="73.52" xlink:href="#Degradado_sin_nombre"/><linearGradient id="Degradado_sin_nombre_46" x1="0" y1="64.62" x2="61.83" y2="64.62" xlink:href="#Degradado_sin_nombre"/><linearGradient id="Degradado_sin_nombre_47" x1="0" y1="55.83" x2="61.83" y2="55.83" xlink:href="#Degradado_sin_nombre"/><linearGradient id="Degradado_sin_nombre_48" x1="0" y1="37.82" x2="61.83" y2="37.82" xlink:href="#Degradado_sin_nombre"/><linearGradient id="Degradado_sin_nombre_49" x1="0" y1="20.55" x2="61.83" y2="20.55" xlink:href="#Degradado_sin_nombre"/><linearGradient id="Degradado_sin_nombre_50" x1="0" y1="11.39" x2="61.83" y2="11.39" xlink:href="#Degradado_sin_nombre"/><linearGradient id="Degradado_sin_nombre_51" x1="0" y1="2.86" x2="61.83" y2="2.86" xlink:href="#Degradado_sin_nombre"/><linearGradient id="Degradado_sin_nombre_52" x1="0" y1="11.76" x2="61.83" y2="11.76" xlink:href="#Degradado_sin_nombre"/><linearGradient id="Degradado_sin_nombre_53" x1="0" y1="20.55" x2="61.83" y2="20.55" xlink:href="#Degradado_sin_nombre"/><linearGradient id="Degradado_sin_nombre_54" x1="0" y1="38.56" x2="61.83" y2="38.56" xlink:href="#Degradado_sin_nombre"/><linearGradient id="Degradado_sin_nombre_55" x1="0" y1="55.83" x2="61.83" y2="55.83" xlink:href="#Degradado_sin_nombre"/><linearGradient id="Degradado_sin_nombre_56" x1="0" y1="64.99" x2="61.83" y2="64.99" xlink:href="#Degradado_sin_nombre"/><linearGradient id="Degradado_sin_nombre_57" x1="236.68" y1="181.9" x2="291.96" y2="181.9" xlink:href="#Degradado_sin_nombre"/><linearGradient id="Degradado_sin_nombre_58" x1="509.07" y1="181.9" x2="563.61" y2="181.9" gradientTransform="translate(666.81 240) rotate(180)" xlink:href="#Degradado_sin_nombre"/><linearGradient id="Degradado_sin_nombre_59" x1="108.73" y1="88.97" x2="130.91" y2="88.97" xlink:href="#Degradado_sin_nombre"/><linearGradient id="Degradado_sin_nombre_60" x1="303.03" y1="88.97" x2="325.22" y2="88.97" gradientTransform="translate(375.29 240) rotate(180)" xlink:href="#Degradado_sin_nombre"/><linearGradient id="Degradado_sin_nombre_61" x1="277.86" y1="138.81" x2="327.67" y2="138.81" xlink:href="#Degradado_sin_nombre"/><linearGradient id="Degradado_sin_nombre_62" x1="282" y1="138.81" x2="323.53" y2="138.81" xlink:href="#Degradado_sin_nombre_2"/><linearGradient id="Degradado_sin_nombre_63" x1="271.85" y1="174.14" x2="333.68" y2="174.14" xlink:href="#Degradado_sin_nombre"/><linearGradient id="Degradado_sin_nombre_64" x1="271.85" y1="165.24" x2="333.68" y2="165.24" xlink:href="#Degradado_sin_nombre"/><linearGradient id="Degradado_sin_nombre_65" x1="271.85" y1="156.45" x2="333.68" y2="156.45" xlink:href="#Degradado_sin_nombre"/><linearGradient id="Degradado_sin_nombre_66" x1="271.85" y1="138.44" x2="333.68" y2="138.44" xlink:href="#Degradado_sin_nombre"/><linearGradient id="Degradado_sin_nombre_67" x1="271.85" y1="121.17" x2="333.68" y2="121.17" xlink:href="#Degradado_sin_nombre"/><linearGradient id="Degradado_sin_nombre_68" x1="271.85" y1="112.02" x2="333.68" y2="112.02" xlink:href="#Degradado_sin_nombre"/><linearGradient id="Degradado_sin_nombre_69" x1="271.85" y1="103.48" x2="333.68" y2="103.48" xlink:href="#Degradado_sin_nombre"/><linearGradient id="Degradado_sin_nombre_70" x1="271.85" y1="112.38" x2="333.68" y2="112.38" xlink:href="#Degradado_sin_nombre"/><linearGradient id="Degradado_sin_nombre_71" x1="271.85" y1="121.17" x2="333.68" y2="121.17" xlink:href="#Degradado_sin_nombre"/><linearGradient id="Degradado_sin_nombre_72" x1="271.85" y1="139.18" x2="333.68" y2="139.18" xlink:href="#Degradado_sin_nombre"/><linearGradient id="Degradado_sin_nombre_73" x1="271.85" y1="156.45" x2="333.68" y2="156.45" xlink:href="#Degradado_sin_nombre"/><linearGradient id="Degradado_sin_nombre_74" x1="271.85" y1="165.61" x2="333.68" y2="165.61" xlink:href="#Degradado_sin_nombre"/><linearGradient id="Degradado_sin_nombre_75" x1="331.15" y1="38.19" x2="380.96" y2="38.19" xlink:href="#Degradado_sin_nombre"/><linearGradient id="Degradado_sin_nombre_76" x1="335.3" y1="38.19" x2="376.82" y2="38.19" xlink:href="#Degradado_sin_nombre_2"/><linearGradient id="Degradado_sin_nombre_77" x1="325.15" y1="73.52" x2="386.97" y2="73.52" xlink:href="#Degradado_sin_nombre"/><linearGradient id="Degradado_sin_nombre_78" x1="325.15" y1="64.62" x2="386.97" y2="64.62" xlink:href="#Degradado_sin_nombre"/><linearGradient id="Degradado_sin_nombre_79" x1="325.15" y1="55.83" x2="386.97" y2="55.83" xlink:href="#Degradado_sin_nombre"/><linearGradient id="Degradado_sin_nombre_80" x1="325.15" y1="37.82" x2="386.97" y2="37.82" xlink:href="#Degradado_sin_nombre"/><linearGradient id="Degradado_sin_nombre_81" x1="325.15" y1="20.55" x2="386.97" y2="20.55" xlink:href="#Degradado_sin_nombre"/><linearGradient id="Degradado_sin_nombre_82" x1="325.15" y1="11.39" x2="386.97" y2="11.39" xlink:href="#Degradado_sin_nombre"/><linearGradient id="Degradado_sin_nombre_83" x1="325.15" y1="2.86" x2="386.97" y2="2.86" xlink:href="#Degradado_sin_nombre"/><linearGradient id="Degradado_sin_nombre_84" x1="325.15" y1="11.76" x2="386.97" y2="11.76" xlink:href="#Degradado_sin_nombre"/><linearGradient id="Degradado_sin_nombre_85" x1="325.15" y1="20.55" x2="386.97" y2="20.55" xlink:href="#Degradado_sin_nombre"/><linearGradient id="Degradado_sin_nombre_86" x1="325.15" y1="38.56" x2="386.97" y2="38.56" xlink:href="#Degradado_sin_nombre"/><linearGradient id="Degradado_sin_nombre_87" x1="325.15" y1="55.83" x2="386.97" y2="55.83" xlink:href="#Degradado_sin_nombre"/><linearGradient id="Degradado_sin_nombre_88" x1="325.15" y1="64.99" x2="386.97" y2="64.99" xlink:href="#Degradado_sin_nombre"/><linearGradient id="Degradado_sin_nombre_89" x1="216.4" y1="38.19" x2="266.21" y2="38.19" xlink:href="#Degradado_sin_nombre"/><linearGradient id="Degradado_sin_nombre_90" x1="220.54" y1="38.19" x2="262.07" y2="38.19" xlink:href="#Degradado_sin_nombre_2"/><linearGradient id="Degradado_sin_nombre_91" x1="210.39" y1="73.52" x2="272.22" y2="73.52" xlink:href="#Degradado_sin_nombre"/><linearGradient id="Degradado_sin_nombre_92" x1="210.39" y1="64.62" x2="272.22" y2="64.62" xlink:href="#Degradado_sin_nombre"/><linearGradient id="Degradado_sin_nombre_93" x1="210.39" y1="55.83" x2="272.22" y2="55.83" xlink:href="#Degradado_sin_nombre"/><linearGradient id="Degradado_sin_nombre_94" x1="210.39" y1="37.82" x2="272.22" y2="37.82" xlink:href="#Degradado_sin_nombre"/><linearGradient id="Degradado_sin_nombre_95" x1="210.39" y1="20.55" x2="272.22" y2="20.55" xlink:href="#Degradado_sin_nombre"/><linearGradient id="Degradado_sin_nombre_96" x1="210.39" y1="11.39" x2="272.22" y2="11.39" xlink:href="#Degradado_sin_nombre"/><linearGradient id="Degradado_sin_nombre_97" x1="210.39" y1="2.86" x2="272.22" y2="2.86" xlink:href="#Degradado_sin_nombre"/><linearGradient id="Degradado_sin_nombre_98" x1="210.39" y1="11.76" x2="272.22" y2="11.76" xlink:href="#Degradado_sin_nombre"/><linearGradient id="Degradado_sin_nombre_99" x1="210.39" y1="20.55" x2="272.22" y2="20.55" xlink:href="#Degradado_sin_nombre"/><linearGradient id="Degradado_sin_nombre_100" x1="210.39" y1="38.56" x2="272.22" y2="38.56" xlink:href="#Degradado_sin_nombre"/><linearGradient id="Degradado_sin_nombre_101" x1="210.39" y1="55.83" x2="272.22" y2="55.83" xlink:href="#Degradado_sin_nombre"/><linearGradient id="Degradado_sin_nombre_102" x1="210.39" y1="64.99" x2="272.22" y2="64.99" xlink:href="#Degradado_sin_nombre"/><linearGradient id="Degradado_sin_nombre_103" x1="319.12" y1="88.97" x2="341.31" y2="88.97" xlink:href="#Degradado_sin_nombre"/><linearGradient id="Degradado_sin_nombre_104" x1="92.64" y1="88.97" x2="114.82" y2="88.97" gradientTransform="translate(375.29 240) rotate(180)" xlink:href="#Degradado_sin_nombre"/></defs><polygon class="cls-1" points="213.5 18.17 197.38 8.87 165.53 27.26 165.53 45.49 165.53 64.04 187.41 76.67 197.38 82.43 229.23 64.04 229.23 27.26 213.5 18.17"/><polygon class="cls-2" points="223.93 30.33 223.93 60.98 217.9 64.47 197.38 76.31 189.06 71.5 176.87 64.47 170.83 60.98 170.83 30.33 197.38 14.99 210.82 22.75 223.93 30.33"/><polyline class="cls-3" points="198.19 0.74 197.38 0.27 196.57 0.74"/><line class="cls-4" x1="194.94" y1="1.68" x2="159.71" y2="22.02"/><polyline class="cls-5" points="158.89 22.49 158.08 22.96 158.08 23.89"/><polyline class="cls-6" points="158.08 25.79 158.08 45.45 158.08 66.46"/><polyline class="cls-7" points="158.08 67.4 158.08 68.34 158.89 68.81"/><polyline class="cls-8" points="160.53 69.75 185.07 83.92 195.75 90.09"/><polyline class="cls-9" points="196.57 90.56 197.38 91.03 198.19 90.56"/><line class="cls-10" x1="199.83" y1="89.62" x2="235.05" y2="69.28"/><polyline class="cls-11" points="235.87 68.81 236.68 68.34 236.68 67.4"/><line class="cls-12" x1="236.68" y1="65.51" x2="236.68" y2="24.84"/><polyline class="cls-13" points="236.68 23.89 236.68 22.96 235.87 22.49"/><polyline class="cls-14" points="234.24 21.55 217.26 11.75 199.01 1.21"/><polygon class="cls-15" points="222.18 31.34 222.18 59.97 216.54 63.23 197.38 74.29 189.61 69.8 178.22 63.23 172.58 59.97 172.58 31.34 197.38 17.02 209.93 24.26 222.18 31.34"/><path class="cls-16" d="M216.54,57.2v6L197.38,74.29l-7.77-4.49-11.39-6.57v-6a6.16,6.16,0,0,1,3.08-5.34l9.12-5.26a.94.94,0,0,1,1.35.46l4.73,11.76a1,1,0,0,0,1.76,0L203,47.06a.94.94,0,0,1,1.35-.47l2.75,1.59,6.4,3.7A6.15,6.15,0,0,1,216.54,57.2Z"/><ellipse class="cls-16" cx="197.38" cy="35.55" rx="6.35" ry="8.53"/><rect class="cls-16" x="196.37" y="46.04" width="2.02" height="2.02"/><rect class="cls-16" x="196.37" y="48.78" width="2.02" height="8.59"/><polygon class="cls-17" points="104.97 79.7 92.37 72.43 67.47 86.81 67.47 101.06 67.47 115.57 84.57 125.44 92.37 129.95 117.28 115.57 117.28 86.81 104.97 79.7"/><polygon class="cls-18" points="113.13 89.21 113.13 113.17 108.41 115.9 92.37 125.16 85.87 121.4 76.33 115.9 71.61 113.17 71.61 89.21 92.37 77.22 102.88 83.28 113.13 89.21"/><polyline class="cls-19" points="93.01 66.07 92.37 65.7 91.74 66.07"/><line class="cls-20" x1="90.46" y1="66.81" x2="62.92" y2="82.71"/><polyline class="cls-21" points="62.28 83.08 61.64 83.45 61.64 84.18"/><polyline class="cls-22" points="61.64 85.66 61.64 101.03 61.64 117.46"/><polyline class="cls-23" points="61.64 118.2 61.64 118.93 62.28 119.3"/><polyline class="cls-24" points="63.56 120.03 82.75 131.11 91.1 135.94"/><polyline class="cls-25" points="91.74 136.31 92.37 136.67 93.01 136.31"/><line class="cls-26" x1="94.29" y1="135.57" x2="121.83" y2="119.66"/><polyline class="cls-27" points="122.47 119.3 123.1 118.93 123.1 118.2"/><line class="cls-28" x1="123.1" y1="116.72" x2="123.1" y2="84.92"/><polyline class="cls-29" points="123.1 84.18 123.1 83.45 122.47 83.08"/><polyline class="cls-30" points="121.19 82.34 107.92 74.68 93.65 66.44"/><polygon class="cls-15" points="111.76 90 111.76 112.38 107.35 114.93 92.37 123.58 86.3 120.07 77.39 114.93 72.98 112.38 72.98 90 92.37 78.8 102.19 84.46 111.76 90"/><path class="cls-16" d="M107.35,110.22v4.72l-15,8.65-6.08-3.51-8.91-5.14v-4.71a4.81,4.81,0,0,1,2.41-4.18l7.13-4.11a.75.75,0,0,1,1.06.36l3.7,9.2a.74.74,0,0,0,1.38,0l3.68-9.2a.74.74,0,0,1,1.06-.37l2.15,1.24,5,2.89A4.79,4.79,0,0,1,107.35,110.22Z"/><ellipse class="cls-16" cx="92.37" cy="93.29" rx="4.97" ry="6.67"/><rect class="cls-16" x="91.58" y="101.49" width="1.58" height="1.58"/><rect class="cls-16" x="91.58" y="103.64" width="1.58" height="6.72"/><polygon class="cls-31" points="158.27 180.33 145.67 173.05 120.76 187.43 120.76 201.69 120.76 216.19 137.87 226.07 145.67 230.57 170.57 216.19 170.57 187.43 158.27 180.33"/><polygon class="cls-32" points="166.43 189.83 166.43 213.8 161.71 216.53 145.67 225.79 139.16 222.03 129.63 216.53 124.9 213.8 124.9 189.83 145.67 177.84 156.17 183.9 166.43 189.83"/><polyline class="cls-33" points="146.3 166.69 145.67 166.33 145.03 166.69"/><line class="cls-34" x1="143.75" y1="167.43" x2="116.21" y2="183.34"/><polyline class="cls-35" points="115.57 183.7 114.94 184.07 114.94 184.8"/><polyline class="cls-36" points="114.94 186.28 114.94 201.66 114.94 218.08"/><polyline class="cls-37" points="114.94 218.82 114.94 219.55 115.57 219.92"/><polyline class="cls-38" points="116.85 220.66 136.04 231.74 144.39 236.56"/><polyline class="cls-39" points="145.03 236.93 145.67 237.3 146.3 236.93"/><line class="cls-40" x1="147.58" y1="236.19" x2="175.12" y2="220.29"/><polyline class="cls-41" points="175.76 219.92 176.4 219.55 176.4 218.82"/><line class="cls-42" x1="176.4" y1="217.34" x2="176.4" y2="185.54"/><polyline class="cls-43" points="176.4 184.8 176.4 184.07 175.76 183.7"/><polyline class="cls-44" points="174.48 182.97 161.21 175.3 146.94 167.06"/><polygon class="cls-15" points="165.06 190.62 165.06 213.01 160.65 215.56 145.67 224.21 139.59 220.69 130.68 215.56 126.27 213.01 126.27 190.62 145.67 179.42 155.48 185.08 165.06 190.62"/><path class="cls-16" d="M160.65,210.84v4.72l-15,8.65-6.08-3.51-8.91-5.14v-4.71a4.81,4.81,0,0,1,2.41-4.18l7.13-4.11a.75.75,0,0,1,1.06.36l3.7,9.2a.74.74,0,0,0,1.38,0l3.68-9.2a.74.74,0,0,1,1.06-.37l2.15,1.24,5,2.89A4.82,4.82,0,0,1,160.65,210.84Z"/><ellipse class="cls-16" cx="145.67" cy="193.91" rx="4.97" ry="6.67"/><rect class="cls-16" x="144.88" y="202.12" width="1.58" height="1.58"/><rect class="cls-16" x="144.88" y="204.26" width="1.58" height="6.72"/><polygon class="cls-45" points="43.51 180.33 30.91 173.05 6.01 187.43 6.01 201.69 6.01 216.19 23.11 226.07 30.91 230.57 55.82 216.19 55.82 187.43 43.51 180.33"/><polygon class="cls-46" points="51.67 189.83 51.67 213.8 46.95 216.53 30.91 225.79 24.41 222.03 14.87 216.53 10.15 213.8 10.15 189.83 30.91 177.84 41.42 183.9 51.67 189.83"/><polyline class="cls-47" points="31.55 166.69 30.91 166.33 30.28 166.69"/><line class="cls-48" x1="29" y1="167.43" x2="1.46" y2="183.34"/><polyline class="cls-49" points="0.82 183.7 0.18 184.07 0.18 184.8"/><polyline class="cls-50" points="0.18 186.28 0.18 201.66 0.18 218.08"/><polyline class="cls-51" points="0.18 218.82 0.18 219.55 0.82 219.92"/><polyline class="cls-52" points="2.1 220.66 21.29 231.74 29.64 236.56"/><polyline class="cls-53" points="30.28 236.93 30.91 237.3 31.55 236.93"/><line class="cls-54" x1="32.83" y1="236.19" x2="60.37" y2="220.29"/><polyline class="cls-55" points="61.01 219.92 61.64 219.55 61.64 218.82"/><line class="cls-56" x1="61.64" y1="217.34" x2="61.64" y2="185.54"/><polyline class="cls-57" points="61.64 184.8 61.64 184.07 61.01 183.7"/><polyline class="cls-58" points="59.73 182.97 46.46 175.3 32.19 167.06"/><polygon class="cls-15" points="50.3 190.62 50.3 213.01 45.89 215.56 30.91 224.21 24.84 220.69 15.93 215.56 11.52 213.01 11.52 190.62 30.91 179.42 40.73 185.08 50.3 190.62"/><path class="cls-16" d="M45.89,210.84v4.72l-15,8.65-6.08-3.51-8.91-5.14v-4.71a4.81,4.81,0,0,1,2.41-4.18l7.13-4.11a.75.75,0,0,1,1.06.36l3.7,9.2a.74.74,0,0,0,1.38,0l3.68-9.2a.74.74,0,0,1,1.06-.37l2.15,1.24,5,2.89A4.8,4.8,0,0,1,45.89,210.84Z"/><ellipse class="cls-16" cx="30.91" cy="193.91" rx="4.97" ry="6.67"/><rect class="cls-16" x="30.12" y="202.12" width="1.58" height="1.58"/><rect class="cls-16" x="30.12" y="204.26" width="1.58" height="6.72"/><path class="cls-59" d="M236.68,44.07h30a17.37,17.37,0,0,1,15.46,9.44l9.62,18.75"/><path class="cls-60" d="M157.74,44.07H128.5A17.37,17.37,0,0,0,113,53.51l-9.62,18.75"/><line class="cls-61" x1="108.96" y1="127.09" x2="130.68" y2="174.98"/><line class="cls-62" x1="72.03" y1="127.09" x2="50.3" y2="174.98"/><polygon class="cls-63" points="315.36 79.7 302.76 72.43 277.86 86.81 277.86 101.06 277.86 115.57 294.96 125.44 302.76 129.95 327.67 115.57 327.67 86.81 315.36 79.7"/><polygon class="cls-64" points="323.53 89.21 323.53 113.17 318.8 115.9 302.76 125.16 296.26 121.4 286.72 115.9 282 113.17 282 89.21 302.76 77.22 313.27 83.28 323.53 89.21"/><polyline class="cls-65" points="303.4 66.07 302.76 65.7 302.13 66.07"/><line class="cls-66" x1="300.85" y1="66.81" x2="273.31" y2="82.71"/><polyline class="cls-67" points="272.67 83.08 272.03 83.45 272.03 84.18"/><polyline class="cls-68" points="272.03 85.66 272.03 101.03 272.03 117.46"/><polyline class="cls-69" points="272.03 118.2 272.03 118.93 272.67 119.3"/><polyline class="cls-70" points="273.95 120.03 293.14 131.11 301.49 135.94"/><polyline class="cls-71" points="302.13 136.31 302.76 136.67 303.4 136.31"/><line class="cls-72" x1="304.68" y1="135.57" x2="332.22" y2="119.66"/><polyline class="cls-73" points="332.86 119.3 333.49 118.93 333.49 118.2"/><line class="cls-74" x1="333.49" y1="116.72" x2="333.49" y2="84.92"/><polyline class="cls-75" points="333.49 84.18 333.49 83.45 332.86 83.08"/><polyline class="cls-76" points="331.58 82.34 318.31 74.68 304.04 66.44"/><polygon class="cls-15" points="322.16 90 322.16 112.38 317.75 114.93 302.76 123.58 296.69 120.07 287.78 114.93 283.37 112.38 283.37 90 302.76 78.8 312.58 84.46 322.16 90"/><path class="cls-16" d="M317.75,110.22v4.72l-15,8.65-6.08-3.51-8.91-5.14v-4.71a4.81,4.81,0,0,1,2.41-4.18l7.13-4.11a.75.75,0,0,1,1.06.36l3.7,9.2a.74.74,0,0,0,1.38,0l3.68-9.2a.74.74,0,0,1,1.06-.37l2.15,1.24,5,2.89A4.81,4.81,0,0,1,317.75,110.22Z"/><ellipse class="cls-16" cx="302.76" cy="93.29" rx="4.97" ry="6.67"/><rect class="cls-16" x="301.98" y="101.49" width="1.58" height="1.58"/><rect class="cls-16" x="301.98" y="103.64" width="1.58" height="6.72"/><polygon class="cls-77" points="368.66 180.33 356.06 173.05 331.15 187.43 331.15 201.69 331.15 216.19 348.26 226.07 356.06 230.57 380.96 216.19 380.96 187.43 368.66 180.33"/><polygon class="cls-78" points="376.82 189.83 376.82 213.8 372.1 216.53 356.06 225.79 349.55 222.03 340.02 216.53 335.3 213.8 335.3 189.83 356.06 177.84 366.56 183.9 376.82 189.83"/><polyline class="cls-79" points="356.69 166.69 356.06 166.33 355.43 166.69"/><line class="cls-80" x1="354.14" y1="167.43" x2="326.6" y2="183.34"/><polyline class="cls-81" points="325.96 183.7 325.33 184.07 325.33 184.8"/><polyline class="cls-82" points="325.33 186.28 325.33 201.66 325.33 218.08"/><polyline class="cls-83" points="325.33 218.82 325.33 219.55 325.96 219.92"/><polyline class="cls-84" points="327.24 220.66 346.43 231.74 354.79 236.56"/><polyline class="cls-85" points="355.43 236.93 356.06 237.3 356.69 236.93"/><line class="cls-86" x1="357.97" y1="236.19" x2="385.52" y2="220.29"/><polyline class="cls-87" points="386.16 219.92 386.79 219.55 386.79 218.82"/><line class="cls-88" x1="386.79" y1="217.34" x2="386.79" y2="185.54"/><polyline class="cls-89" points="386.79 184.8 386.79 184.07 386.16 183.7"/><polyline class="cls-90" points="384.87 182.97 371.6 175.3 357.33 167.06"/><polygon class="cls-15" points="375.45 190.62 375.45 213.01 371.04 215.56 356.06 224.21 349.98 220.69 341.08 215.56 336.67 213.01 336.67 190.62 356.06 179.42 365.87 185.08 375.45 190.62"/><path class="cls-16" d="M371,210.84v4.72l-15,8.65L350,220.7l-8.91-5.14v-4.71a4.81,4.81,0,0,1,2.41-4.18l7.13-4.11a.75.75,0,0,1,1.06.36l3.7,9.2a.74.74,0,0,0,1.38,0l3.68-9.2a.74.74,0,0,1,1.06-.37l2.15,1.24,5,2.89A4.82,4.82,0,0,1,371,210.84Z"/><ellipse class="cls-16" cx="356.06" cy="193.91" rx="4.97" ry="6.67"/><rect class="cls-16" x="355.27" y="202.12" width="1.58" height="1.58"/><rect class="cls-16" x="355.27" y="204.26" width="1.58" height="6.72"/><polygon class="cls-91" points="253.9 180.33 241.3 173.05 216.4 187.43 216.4 201.69 216.4 216.19 233.5 226.07 241.3 230.57 266.21 216.19 266.21 187.43 253.9 180.33"/><polygon class="cls-92" points="262.07 189.83 262.07 213.8 257.34 216.53 241.3 225.79 234.8 222.03 225.26 216.53 220.54 213.8 220.54 189.83 241.3 177.84 251.81 183.9 262.07 189.83"/><polyline class="cls-93" points="241.94 166.69 241.3 166.33 240.67 166.69"/><line class="cls-94" x1="239.39" y1="167.43" x2="211.85" y2="183.34"/><polyline class="cls-95" points="211.21 183.7 210.57 184.07 210.57 184.8"/><polyline class="cls-96" points="210.57 186.28 210.57 201.66 210.57 218.08"/><polyline class="cls-97" points="210.57 218.82 210.57 219.55 211.21 219.92"/><polyline class="cls-98" points="212.49 220.66 231.68 231.74 240.03 236.56"/><polyline class="cls-99" points="240.67 236.93 241.3 237.3 241.94 236.93"/><line class="cls-100" x1="243.22" y1="236.19" x2="270.76" y2="220.29"/><polyline class="cls-101" points="271.4 219.92 272.03 219.55 272.03 218.82"/><line class="cls-102" x1="272.03" y1="217.34" x2="272.03" y2="185.54"/><polyline class="cls-103" points="272.03 184.8 272.03 184.07 271.4 183.7"/><polyline class="cls-104" points="270.12 182.97 256.85 175.3 242.58 167.06"/><polygon class="cls-15" points="260.7 190.62 260.7 213.01 256.29 215.56 241.3 224.21 235.23 220.69 226.32 215.56 221.91 213.01 221.91 190.62 241.3 179.42 251.12 185.08 260.7 190.62"/><path class="cls-16" d="M256.29,210.84v4.72l-15,8.65-6.08-3.51-8.91-5.14v-4.71a4.81,4.81,0,0,1,2.41-4.18l7.13-4.11a.75.75,0,0,1,1.06.36l3.7,9.2a.74.74,0,0,0,1.38,0l3.68-9.2a.74.74,0,0,1,1.06-.37l2.15,1.24,5,2.89A4.82,4.82,0,0,1,256.29,210.84Z"/><ellipse class="cls-16" cx="241.3" cy="193.91" rx="4.97" ry="6.67"/><rect class="cls-16" x="240.51" y="202.12" width="1.58" height="1.58"/><rect class="cls-16" x="240.51" y="204.26" width="1.58" height="6.72"/><line class="cls-105" x1="319.35" y1="127.09" x2="341.08" y2="174.98"/><line class="cls-106" x1="282.42" y1="127.09" x2="260.7" y2="174.98"/></svg>