<svg id="Capa_1" data-name="Capa 1" xmlns="http://www.w3.org/2000/svg" xmlns:xlink="http://www.w3.org/1999/xlink" viewBox="0 0 227 227"><defs><style>.cls-1{fill:none;}.cls-2{clip-path:url(#clip-path);}.cls-3{fill:#0067c6;}.cls-4{fill:#fff;}.cls-5{fill:#c8a400;}.cls-6{clip-path:url(#clip-path-2);}.cls-10,.cls-11,.cls-12,.cls-13,.cls-14,.cls-15,.cls-16,.cls-17,.cls-18,.cls-19,.cls-20,.cls-21,.cls-22,.cls-23,.cls-24,.cls-25,.cls-26,.cls-27,.cls-28,.cls-29,.cls-30,.cls-31,.cls-32,.cls-33,.cls-34,.cls-35,.cls-36,.cls-37,.cls-38,.cls-39,.cls-7,.cls-8,.cls-9{fill:#17c0eb;stroke:#17c0eb;opacity:0.62;isolation:isolate;}.cls-7{stroke-width:0.05px;}.cls-8{stroke-width:0.05px;}.cls-9{stroke-width:0.05px;}.cls-10{stroke-width:0.05px;}.cls-11{stroke-width:0.05px;}.cls-12{stroke-width:0.05px;}.cls-13{stroke-width:0.05px;}.cls-14{stroke-width:0.05px;}.cls-15{stroke-width:0.05px;}.cls-16{stroke-width:0.05px;}.cls-17{stroke-width:0.05px;}.cls-18,.cls-21{stroke-width:0.05px;}.cls-19,.cls-20{stroke-width:0.05px;}.cls-22{stroke-width:0.05px;}.cls-23{stroke-width:0.05px;}.cls-24{stroke-width:0.05px;}.cls-25{stroke-width:0.05px;}.cls-26{stroke-width:0.05px;}.cls-27{stroke-width:0.05px;}.cls-28{stroke-width:0.05px;}.cls-29{stroke-width:0.05px;}.cls-30{stroke-width:0.05px;}.cls-31{stroke-width:0.05px;}.cls-32,.cls-35{stroke-width:0.05px;}.cls-33{stroke-width:0.05px;}.cls-34{stroke-width:0.05px;}.cls-36{stroke-width:0.05px;}.cls-37,.cls-39{stroke-width:0.05px;}.cls-38{stroke-width:0.05px;}.cls-40{fill:red;}.cls-41{fill:#f60;}.cls-42{fill:#ff0;}.cls-43{fill:lime;}.cls-44{fill:#0cf;}.cls-45{fill:blue;}.cls-46{fill:purple;}.cls-47{fill:#510000;}.cls-48{fill:url(#Degradado_sin_nombre_3);}.cls-49{fill:#ff2a2a;}.cls-50{fill:url(#Degradado_sin_nombre_2);}.cls-51{fill:#910000;}.cls-52{fill:#ff3a3a;}.cls-53{fill:url(#Degradado_sin_nombre_27);}.cls-54{fill:url(#Degradado_sin_nombre_27-2);}.cls-55{fill:url(#Degradado_sin_nombre_27-3);}.cls-56{fill:url(#Degradado_sin_nombre_27-4);}.cls-57{fill:url(#Degradado_sin_nombre_27-5);}.cls-58{fill:url(#Degradado_sin_nombre_27-6);}.cls-59{fill:url(#Degradado_sin_nombre_27-7);}.cls-60{fill:url(#Degradado_sin_nombre_27-8);}.cls-61{fill:url(#Degradado_sin_nombre_27-9);}.cls-62{fill:url(#Degradado_sin_nombre_27-10);}.cls-63{fill:url(#Degradado_sin_nombre_17);}.cls-64{fill:#97c924;}.cls-65{fill:#ede71f;}.cls-66{fill:#c6cb24;}.cls-67{fill:#9ecb34;}.cls-68{fill:url(#Degradado_sin_nombre_17-2);}.cls-69{fill:url(#Degradado_sin_nombre_17-3);}.cls-70{fill:url(#Degradado_sin_nombre_17-4);}.cls-71{fill:#93bc30;}.cls-72{fill:#ccd11e;}.cls-73{fill:url(#Degradado_sin_nombre_17-5);}.cls-74{fill:url(#Degradado_sin_nombre_27-11);}.cls-75{fill:url(#Degradado_sin_nombre_27-12);}.cls-76{fill:url(#Degradado_sin_nombre_27-13);}.cls-77{fill:url(#Degradado_sin_nombre_27-14);}.cls-78{fill:url(#Degradado_sin_nombre_27-15);}.cls-79{fill:url(#Degradado_sin_nombre_27-16);}.cls-80{fill:url(#Degradado_sin_nombre_27-17);}.cls-81{fill:url(#Degradado_sin_nombre_27-18);}.cls-82{fill:url(#Degradado_sin_nombre_27-19);}.cls-83{fill:url(#Degradado_sin_nombre_27-20);}</style><clipPath id="clip-path"><circle class="cls-1" cx="113.5" cy="113.5" r="113.5"/></clipPath><clipPath id="clip-path-2"><polygon class="cls-1" points="113.5 86.16 88.97 128.65 138.03 128.65 113.5 86.16"/></clipPath><linearGradient id="Degradado_sin_nombre_3" x1="113.29" y1="117.61" x2="114.02" y2="119.78" gradientTransform="matrix(1, 0, 0, -1, 0, 228)" gradientUnits="userSpaceOnUse"><stop offset="0" stop-color="#510000"/><stop offset="0.3" stop-color="#8a0000"/><stop offset="1" stop-color="#a00"/></linearGradient><linearGradient id="Degradado_sin_nombre_2" x1="113.26" y1="117.11" x2="113.83" y2="118.62" gradientTransform="matrix(1, 0, 0, -1, 0, 228)" gradientUnits="userSpaceOnUse"><stop offset="0" stop-color="#ff2a2a"/><stop offset="1" stop-color="red"/></linearGradient><linearGradient id="Degradado_sin_nombre_27" x1="92.13" y1="105.01" x2="165.25" y2="105.01" gradientTransform="matrix(1, 0, 0, -1, 0, 228)" gradientUnits="userSpaceOnUse"><stop offset="0" stop-color="#025"/><stop offset="0.5" stop-color="#04a"/><stop offset="1" stop-color="#025"/></linearGradient><linearGradient id="Degradado_sin_nombre_27-2" x1="92.13" y1="104.32" x2="165.25" y2="104.32" gradientTransform="matrix(1, 0, 0, -1, 0, 226.89)" xlink:href="#Degradado_sin_nombre_27"/><linearGradient id="Degradado_sin_nombre_27-3" x1="92.13" y1="103.64" x2="165.25" y2="103.64" gradientTransform="matrix(1, 0, 0, -1, 0, 225.77)" xlink:href="#Degradado_sin_nombre_27"/><linearGradient id="Degradado_sin_nombre_27-4" x1="92.13" y1="102.95" x2="165.25" y2="102.95" gradientTransform="matrix(1, 0, 0, -1, 0, 224.66)" xlink:href="#Degradado_sin_nombre_27"/><linearGradient id="Degradado_sin_nombre_27-5" x1="92.13" y1="102.27" x2="165.25" y2="102.27" gradientTransform="matrix(1, 0, 0, -1, 0, 223.54)" xlink:href="#Degradado_sin_nombre_27"/><linearGradient id="Degradado_sin_nombre_27-6" x1="92.13" y1="101.58" x2="165.25" y2="101.58" gradientTransform="matrix(1, 0, 0, -1, 0, 222.43)" xlink:href="#Degradado_sin_nombre_27"/><linearGradient id="Degradado_sin_nombre_27-7" x1="92.13" y1="100.89" x2="165.25" y2="100.89" gradientTransform="matrix(1, 0, 0, -1, 0, 221.31)" xlink:href="#Degradado_sin_nombre_27"/><linearGradient id="Degradado_sin_nombre_27-8" x1="92.13" y1="100.21" x2="165.25" y2="100.21" gradientTransform="matrix(1, 0, 0, -1, 0, 220.2)" xlink:href="#Degradado_sin_nombre_27"/><linearGradient id="Degradado_sin_nombre_27-9" x1="92.13" y1="99.52" x2="165.25" y2="99.52" gradientTransform="matrix(1, 0, 0, -1, 0, 219.08)" xlink:href="#Degradado_sin_nombre_27"/><linearGradient id="Degradado_sin_nombre_27-10" x1="92.13" y1="109.63" x2="165.25" y2="109.63" xlink:href="#Degradado_sin_nombre_27"/><linearGradient id="Degradado_sin_nombre_17" x1="124.46" y1="108.98" x2="124.46" y2="106.69" gradientTransform="matrix(1, 0, 0, -1, 0, 228)" gradientUnits="userSpaceOnUse"><stop offset="0" stop-color="#f5f549"/><stop offset="1" stop-color="#97c924"/></linearGradient><linearGradient id="Degradado_sin_nombre_17-2" x1="133.9" y1="108.98" x2="133.9" y2="106.69" gradientTransform="matrix(1, 0, 0, -1, -15.34, 228)" xlink:href="#Degradado_sin_nombre_17"/><linearGradient id="Degradado_sin_nombre_17-3" x1="113.49" y1="108.98" x2="113.49" y2="106.69" xlink:href="#Degradado_sin_nombre_17"/><linearGradient id="Degradado_sin_nombre_17-4" x1="106.08" y1="108.98" x2="106.08" y2="106.69" xlink:href="#Degradado_sin_nombre_17"/><linearGradient id="Degradado_sin_nombre_17-5" x1="115.57" y1="108.98" x2="115.57" y2="106.69" gradientTransform="matrix(1, 0, 0, -1, -15.43, 228)" xlink:href="#Degradado_sin_nombre_17"/><linearGradient id="Degradado_sin_nombre_27-11" x1="-425.35" y1="374.7" x2="-424.96" y2="374.7" gradientTransform="matrix(116.2, 0, 0, -5.85, 49514.72, 2316.17)" xlink:href="#Degradado_sin_nombre_27"/><linearGradient id="Degradado_sin_nombre_27-12" x1="-425.38" y1="410.36" x2="-425" y2="410.36" gradientTransform="matrix(126.73, 0, 0, -1.52, 53995.92, 752.74)" xlink:href="#Degradado_sin_nombre_27"/><linearGradient id="Degradado_sin_nombre_27-13" x1="-425.38" y1="409.84" x2="-425" y2="409.84" gradientTransform="matrix(126.73, 0, 0, -1.52, 53995.92, 751.45)" xlink:href="#Degradado_sin_nombre_27"/><linearGradient id="Degradado_sin_nombre_27-14" x1="-425.38" y1="409.32" x2="-425" y2="409.32" gradientTransform="matrix(126.73, 0, 0, -1.52, 53995.92, 750.17)" xlink:href="#Degradado_sin_nombre_27"/><linearGradient id="Degradado_sin_nombre_27-15" x1="-425.38" y1="408.8" x2="-425" y2="408.8" gradientTransform="matrix(126.73, 0, 0, -1.52, 53995.92, 748.87)" xlink:href="#Degradado_sin_nombre_27"/><linearGradient id="Degradado_sin_nombre_27-16" x1="-425.38" y1="408.28" x2="-425" y2="408.28" gradientTransform="matrix(126.73, 0, 0, -1.52, 53995.92, 747.59)" xlink:href="#Degradado_sin_nombre_27"/><linearGradient id="Degradado_sin_nombre_27-17" x1="-425.38" y1="407.76" x2="-425" y2="407.76" gradientTransform="matrix(126.73, 0, 0, -1.52, 53995.92, 746.3)" xlink:href="#Degradado_sin_nombre_27"/><linearGradient id="Degradado_sin_nombre_27-18" x1="-425.38" y1="407.24" x2="-425" y2="407.24" gradientTransform="matrix(126.73, 0, 0, -1.52, 53995.92, 745.01)" xlink:href="#Degradado_sin_nombre_27"/><linearGradient id="Degradado_sin_nombre_27-19" x1="-425.38" y1="406.72" x2="-425" y2="406.72" gradientTransform="matrix(126.73, 0, 0, -1.52, 53995.92, 743.72)" xlink:href="#Degradado_sin_nombre_27"/><linearGradient id="Degradado_sin_nombre_27-20" x1="-425.38" y1="406.2" x2="-425" y2="406.2" gradientTransform="matrix(126.73, 0, 0, -1.52, 53995.92, 742.44)" xlink:href="#Degradado_sin_nombre_27"/></defs><g class="cls-2"><path class="cls-3" d="M0-1H227V230H0Z"/><path class="cls-4" d="M0,76H227v77H0Z"/><path class="cls-5" d="M78.85,114.25l3.84.26c0-.19,0-.37,0-.56l-1.51-.1c0-.62.08-1.24.11-1.85l1.6-1.17,0-.71-1.69,1.23a1.13,1.13,0,0,0-.68-.95,1.1,1.1,0,0,0-1.08.1,1.67,1.67,0,0,0-.51,1.24c-.07.84-.11,1.68-.17,2.51Zm.58-.52c0-.63.08-1.26.14-1.89a1.22,1.22,0,0,1,.37-.87.49.49,0,0,1,.71.24,3.21,3.21,0,0,1,.09,1.51l-.07,1.09-1.24-.08Zm-.08-5.38,3.75.88.85-3.65-.53-.12-.73,3.1-1.14-.27.65-2.79-.53-.13-.65,2.8-1-.24.7-3-.54-.13-.82,3.53Zm1.35-5,3.63,1.26.19-.53-1.43-.5c.19-.55.39-1.09.56-1.64a1.77,1.77,0,0,0-.05-1.41,1.18,1.18,0,0,0-1-.5,1.2,1.2,0,0,0-1,.69,12.74,12.74,0,0,0-.62,1.63l-.35,1Zm.7-.35c.19-.55.37-1.1.58-1.64.13-.29.29-.63.62-.72a.49.49,0,0,1,.59.42,3.46,3.46,0,0,1-.32,1.48l-.3.86Zm1.31-4.31c.68.4,1.36.81,2.05,1.2a1.32,1.32,0,0,0,1.29.09,3.06,3.06,0,0,0,1.17-1.43,1.64,1.64,0,0,0,.1-1.52A3.47,3.47,0,0,0,86,96l-1.33-.78-.28.48,2,1.15a1,1,0,0,1,.51.91A2.82,2.82,0,0,1,86.31,99a1,1,0,0,1-1,.46,4,4,0,0,1-1.06-.53L83,98.18l-.28.48Zm2.77-4.53,3.06,2.34L90,94.61a1.51,1.51,0,0,0,.34-1.39,1.19,1.19,0,0,0-1-.7,1,1,0,0,0-.54.19.8.8,0,0,0-.6-.91,1.21,1.21,0,0,0-1.22.45c-.36.39-.65.82-1,1.23l-.49.65Zm.77-.12c.36-.45.7-.93,1.08-1.37.17-.2.45-.42.72-.27a.45.45,0,0,1,.19.64,7.19,7.19,0,0,1-.75,1.08l-.42.55L86.25,94Zm1.25,1c.37-.48.72-1,1.11-1.43.2-.21.46-.47.77-.41a.51.51,0,0,1,.38.63,4.8,4.8,0,0,1-.84,1.31l-.47.62-1-.72ZM89,90.05l2.64,2.79,2.27-2.14-.38-.39L91.67,92l0,0,0,0-2.24-2.37Zm3.39-3,2.34,3,.46-.35-2.35-3Zm3.44-2.34a3.1,3.1,0,0,0-.92.84,1.88,1.88,0,0,0-.38,1,1.77,1.77,0,0,0,.28,1,2.07,2.07,0,0,0,.76.71,1.74,1.74,0,0,0,1,.19,3,3,0,0,0,1.26-.5,2.64,2.64,0,0,0,1-1,1.72,1.72,0,0,0,.16-1.14l-.54.21c.14.77-.35,1.14-.91,1.49a1.51,1.51,0,0,1-2.24-.3c-.53-.9,0-1.64.79-2.12.53-.33,1-.55,1.54-.24l.42-.37a1.55,1.55,0,0,0-1-.27,2.63,2.63,0,0,0-1.23.44Zm4.55-2.27-.4,4.31.6-.24.12-1.34h0l1.95-.78,1,.87.6-.24-3.29-2.83-.6.25Zm.53.44L102.14,84l-1.43.58.15-1.69Zm7.91-2.82.24,3.84c.7-.05,1.4-.08,2.09-.14a2.21,2.21,0,0,0,1.5-.64,2,2,0,0,0,.34-2,1.7,1.7,0,0,0-1.3-1.15,7.49,7.49,0,0,0-1.77,0l-1.1.07Zm.6.51c.55,0,1.1-.09,1.66-.09a1.48,1.48,0,0,1,.88.27,1.32,1.32,0,0,1,.56,1.2,1.31,1.31,0,0,1-.94,1.17,7.12,7.12,0,0,1-.91.13l-1.08.07-.17-2.75Zm4.77-.74-.22,3.84,3.74.22,0-.55-3.18-.18c0-.39,0-.78.07-1.17l2.87.16,0-.54-2.87-.16.06-1,3.06.17,0-.54-3.62-.21Zm10,1.6-1.39,3.59.5.2,1.1-2.85.06-.15.06.17,1.33,3.81.65.26,1.39-3.59-.5-.2-1.1,2.85-.06.14-.06-.16-1.33-3.82Zm5.18,2.22-1.75,3.43-.52-.26,1.75-3.43Zm2.9,1.71a3.13,3.13,0,0,0-1.15-.49,1.83,1.83,0,0,0-1.07.07,1.68,1.68,0,0,0-.81.69,1.91,1.91,0,0,0-.33,1,1.7,1.7,0,0,0,.26,1,3,3,0,0,0,1,.93,2.49,2.49,0,0,0,1.29.47,1.64,1.64,0,0,0,1.1-.32l-.42-.4c-.64.45-1.18.15-1.73-.21a1.5,1.5,0,0,1-.66-2.16c.59-.86,1.51-.63,2.26-.16.51.34.93.72.85,1.29l.51.23a1.56,1.56,0,0,0-.16-1,2.58,2.58,0,0,0-.91-.93Zm3.67,2.76-4,1.61.49.42,1.25-.5h0l1.58,1.38-.32,1.3.49.43,1-4.21-.49-.43Zm-.16.67-.4,1.65-1.17-1,1.57-.63Zm3.07,2-3,2.45.36.43,1.17-1c.4.47.78,1,1.19,1.42-.13.65-.25,1.3-.37,2l.45.55.39-2a1.12,1.12,0,0,0,1.22.19,1.07,1.07,0,0,0,.66-.87,2.09,2.09,0,0,0-.64-1.35Zm-.07.78c.42.51.85,1,1.25,1.54.18.27.41.65.2,1a.54.54,0,0,1-.78.08A6.44,6.44,0,0,1,138.29,93l-.47-.57,1-.79ZM143.35,97l-4.33.19.32.56,1.34-.06h0l1,1.82L141,100.6l.33.56,2.34-3.64-.32-.57Zm-.37.58L142.06,99l-.77-1.34,1.69-.08Zm2.84,4.51a2.9,2.9,0,0,0-1.26-1.65,1.82,1.82,0,0,0-2.18.45,2.28,2.28,0,0,0-.34,1.9,4.14,4.14,0,0,0,1,2l-.28.1.18.52,1.8-.65-.7-2-.41.15.51,1.44-.61.22a3.34,3.34,0,0,1-1-1.83,1.67,1.67,0,0,1,.26-1.53,1.4,1.4,0,0,1,1.77-.21,2.83,2.83,0,0,1,1,1.63,1.28,1.28,0,0,1-.22,1.21c-.09.07,0,.16.07.24l.15.24a1.37,1.37,0,0,0,.52-1.08,3.31,3.31,0,0,0-.22-1.2Zm1.11,3-2.16.42a2,2,0,0,0-.9.37,1.2,1.2,0,0,0-.38.72,2.88,2.88,0,0,0,0,1.16h0a3.33,3.33,0,0,0,.4,1.09,1.23,1.23,0,0,0,.63.52,2,2,0,0,0,1,0l2.15-.42-.11-.55-2.1.41c-.94.18-1.26-.31-1.42-1.16h0c-.17-.85-.06-1.43.88-1.61l2.1-.41-.1-.55Zm1.18,6.55-4-1.7,0,.64,1.24.53h0l.15,2.09-1.15.7.05.65,3.69-2.26,0-.65Zm-.58.37-1.45.88-.11-1.54,1.56.66Zm-65.7,9.59-.56.15.62,2.35.56-.15Zm63.35,0,.56.15-.62,2.35-.55-.15Zm-57.39,9.88-4.31.5.36.53,1.33-.16h0l1.17,1.74-.65,1.18.36.53L88.15,132Zm-.33.61-.82,1.48-.86-1.29Zm2,1.74-2.74,2.57.37.39,2.31-2.16-1.21,3.34.42.45,3.31-1-2.27,2.12.37.39,2.74-2.56-.56-.6-3.37,1,1.27-3.26Zm4,4.08L91.11,141l3,2.25.33-.44-2.55-1.91.71-.94,2.29,1.73.33-.44-2.3-1.73.63-.82L96,140.5l.33-.44-2.9-2.18Zm3.77,2.76L95.38,144l.5.27.71-1.34c.55.29,1.09.59,1.64.87.14.65.27,1.29.4,1.94l.63.34-.42-2.05a1.12,1.12,0,0,0,1.2-.28,1.09,1.09,0,0,0,.29-1c-.14-.5-.63-.76-1-1l-2.08-1.11Zm.24.75c.58.31,1.17.61,1.74.94.26.18.6.43.56.78a.52.52,0,0,1-.65.42,5.44,5.44,0,0,1-1.54-.68l-.7-.37.59-1.09Zm4.11,1.52-1.46,3.57.54.21,1.45-3.56Zm3.47,1.2a3.16,3.16,0,0,0-1.23-.17,1.81,1.81,0,0,0-1,.35,1.67,1.67,0,0,0-.61.87,2,2,0,0,0-.06,1,1.7,1.7,0,0,0,.51.91,3,3,0,0,0,1.19.65,2.51,2.51,0,0,0,1.36.12,1.67,1.67,0,0,0,1-.6l-.51-.28c-.5.6-1.1.46-1.73.25-1-.33-1.47-1-1.19-1.91s1.29-1,2.13-.74c.59.19,1.09.44,1.17,1l.55.09a1.53,1.53,0,0,0-.42-.93,2.62,2.62,0,0,0-1.12-.67Zm3.87.87-2.52,3.52.64.1.78-1.1h0l2.08.3.44,1.27.64.1-1.42-4.1Zm.23.64.55,1.61-1.53-.22,1-1.38Zm8.8-.61a3.17,3.17,0,0,0-1.17.45,1.81,1.81,0,0,0-.71.8,1.72,1.72,0,0,0-.11,1.06,2,2,0,0,0,.46.93,1.63,1.63,0,0,0,.89.55,3.11,3.11,0,0,0,1.36,0,2.51,2.51,0,0,0,1.24-.57,1.6,1.6,0,0,0,.56-1h-.57c-.15.77-.74.93-1.39,1.06-1,.19-1.78-.15-2-1.08s.64-1.51,1.5-1.7c.61-.11,1.17-.14,1.52.33l.52-.2a1.57,1.57,0,0,0-.82-.6,2.56,2.56,0,0,0-1.3,0Zm2.57-.46,1.09,3.69,3.6-1.07-.16-.52-3.06.91-.33-1.13,2.75-.81-.15-.53-2.75.82-.3-1,2.94-.88-.15-.52Zm4.16-1.31,1.62,3.5.48-.23-1.35-2.91c1.25.56,2.49,1.14,3.73,1.72.09.07.17,0,.25,0l.49-.23-1.62-3.49-.48.22,1.34,2.91L125.28,143l-.63.29Zm4.23-2,.3.46,1.38-.9.05,0,0,0,1.79,2.72.46-.31-1.79-2.71,0,0,0,0,1.38-.91-.3-.46Zm3.88-2.65,2.6,2.83.42-.38-1-1.11c.46-.42.92-.83,1.36-1.26l2,.26.53-.49-2.07-.27a1.13,1.13,0,0,0,.12-1.23,1.07,1.07,0,0,0-.9-.61,2.1,2.1,0,0,0-1.32.72l-1.67,1.54Zm.78,0c.49-.44,1-.9,1.47-1.33.26-.2.63-.45,1-.25a.55.55,0,0,1,.12.78,6.7,6.7,0,0,1-1.17,1.21l-.54.51Zm3.7-4.5,1.72,4,.41-.5-.54-1.23h0l1.33-1.62,1.31.28.41-.5-4.24-.9-.4.5Zm.67.13,1.66.36-1,1.19-.68-1.55Zm1-2.31,3.23,2.09,1.7-2.61-.46-.3L142,133.21l0,0,0,0-2.73-1.77Z"/><g class="cls-6"><path class="cls-4" d="M113.5,86.18l-12.12,21-5.94,10.29h36.12l-5.67-9.82L113.5,86.18Z"/><g id="d"><g id="c"><path class="cls-7" d="M113.5,86.18l-.91,1.57.91,21.17.91-21.17Z"/><path class="cls-4" d="M113.5,105.84h0l0,1.2,0-1.2Z"/></g><g id="c-2" data-name="c"><path class="cls-8" d="M135.13,101.89l-1.78-.38-19.85,7.41,20.41-5.68Z"/><path class="cls-4" d="M116.43,108l0,0-1.12.42,1.15-.32Z"/></g><g id="c-3" data-name="c"><path class="cls-9" d="M126.87,127.31l-.19-1.8L113.5,108.92l11.71,17.66Z"/><path class="cls-4" d="M115.31,111.41l0,0-.75-.93.67,1Z"/></g><g id="c-4" data-name="c"><path class="cls-9" d="M100.13,127.31l1.66-.73,11.71-17.66-13.18,16.59Z"/><path class="cls-4" d="M111.69,111.41l0,0,.67-1-.75.93Z"/></g><g id="c-5" data-name="c"><path class="cls-8" d="M91.87,101.89l1.22,1.35,20.41,5.68-19.85-7.41Z"/><path class="cls-4" d="M110.57,108v0l1.15.32-1.12-.42Z"/></g></g><g id="d-2" data-name="d"><g id="c-6" data-name="c"><path class="cls-10" d="M116.67,86.4l-1.12,1.43-2,21.09,3.85-20.84Z"/><path class="cls-4" d="M113.93,105.87h-.05l-.12,1.2.22-1.18Z"/></g><g id="c-7" data-name="c"><path class="cls-11" d="M135.9,105l-1.71-.62-20.69,4.57,21-2.79Z"/><path class="cls-4" d="M116.53,108.38v0l-1.17.26,1.19-.16Z"/></g><g id="c-8" data-name="c"><path class="cls-12" d="M124.18,129l.06-1.82L113.5,108.92,122.64,128Z"/><path class="cls-4" d="M115,111.63l0,0-.61-1,.52,1.08Z"/></g><g id="c-9" data-name="c"><path class="cls-13" d="M97.7,125.27l1.75-.5,14-15.85L98.14,123.51Z"/><path class="cls-4" d="M111.36,111.13l0,0,.8-.9-.87.82Z"/></g><g id="c-10" data-name="c"><path class="cls-11" d="M93.06,99l1,1.5,19.42,8.47L94.87,98.82Z"/><path class="cls-4" d="M110.73,107.57l0,0,1.1.48-1-.57Z"/></g></g><g id="d-3" data-name="d"><g id="c-11" data-name="c"><path class="cls-14" d="M119.77,87.06l-1.31,1.26-5,20.6,6.71-20.1Z"/><path class="cls-4" d="M114.35,106h0l-.28,1.16.38-1.14Z"/></g><g id="c-12" data-name="c"><path class="cls-15" d="M136.23,108.12l-1.61-.85-21.12,1.65,21.19.16Z"/><path class="cls-4" d="M116.58,108.81v0l-1.19.09h1.2Z"/></g><g id="c-13" data-name="c"><path class="cls-16" d="M121.28,130.29l.31-1.79-8.09-19.58,6.39,20.2Z"/><path class="cls-4" d="M114.55,111.81l0,0-.46-1.11.36,1.14Z"/></g><g id="c-14" data-name="c"><path class="cls-16" d="M95.58,122.92l1.8-.26,16.12-13.74L96.26,121.23Z"/><path class="cls-4" d="M111.08,110.81l0,0,.91-.78-1,.7Z"/></g><g id="c-15" data-name="c"><path class="cls-15" d="M94.65,96.2l.79,1.63,18.06,11.09-17-12.59Z"/><path class="cls-4" d="M111,107.2l0,0,1,.63-1-.72Z"/></g></g><g id="d-4" data-name="d"><g id="c-16" data-name="c"><path class="cls-17" d="M122.75,88.14l-1.47,1.07-7.78,19.71,9.44-19Z"/><path class="cls-4" d="M114.75,106.11l0,0-.44,1.11.54-1.07Z"/></g><g id="c-17" data-name="c"><path class="cls-18" d="M136.12,111.29l-1.47-1.06-21.15-1.31,21,3.11Z"/><path class="cls-4" d="M116.56,109.24v0l-1.2-.08,1.18.18Z"/></g><g id="c-18" data-name="c"><path class="cls-19" d="M118.23,131.16l.56-1.73-5.29-20.51L117,129.81Z"/><path class="cls-4" d="M114.14,111.93l0,0-.3-1.16.2,1.19Z"/></g><g id="c-19" data-name="c"><path class="cls-20" d="M93.81,120.29h1.81l17.88-11.37-18.79,9.79Z"/><path class="cls-4" d="M110.84,110.46l0,0,1-.64-1.06.55Z"/></g><g id="c-20" data-name="c"><path class="cls-21" d="M96.6,93.7l.56,1.73,16.34,13.49L98.38,94.08Z"/><path class="cls-4" d="M111.21,106.86l0,0,.92.76-.85-.84Z"/></g></g><g id="d-5" data-name="d"><g id="c-21" data-name="c"><path class="cls-22" d="M125.55,89.63l-1.6.85L113.5,108.92l12-17.47Z"/><path class="cls-4" d="M115.13,106.31l0,0-.59,1,.67-1Z"/></g><g id="c-22" data-name="c"><path class="cls-23" d="M135.57,114.42l-1.31-1.26-20.76-4.24,20.32,6Z"/><path class="cls-4" d="M116.49,109.66v0l-1.18-.24,1.15.34Z"/></g><g id="c-23" data-name="c"><path class="cls-24" d="M115.09,131.6l.79-1.63-2.38-21,.57,21.18Z"/><path class="cls-4" d="M113.72,112h0l-.14-1.19,0,1.2Z"/></g><g id="c-24" data-name="c"><path class="cls-24" d="M92.42,117.44l1.79.25,19.29-8.77-20,7.09Z"/><path class="cls-4" d="M110.65,110.07l0,.05,1.09-.5-1.13.4Z"/></g><g id="c-25" data-name="c"><path class="cls-23" d="M98.88,91.5l.32,1.78,14.3,15.64-12.91-16.8Z"/><path class="cls-4" d="M111.52,106.56l0,0,.81.89-.73-1Z"/></g></g><g id="d-6" data-name="d"><g id="c-26" data-name="c"><path class="cls-25" d="M128.12,91.5l-1.71.62-12.91,16.8,14.3-15.64Z"/><path class="cls-4" d="M115.48,106.56l0,0-.73,1,.81-.89Z"/></g><g id="c-27" data-name="c"><path class="cls-26" d="M134.59,117.44,133.47,116l-20-7.09,19.29,8.77Z"/><path class="cls-4" d="M116.35,110.07l0,0-1.13-.4,1.09.5Z"/></g><g id="c-28" data-name="c"><path class="cls-27" d="M111.91,131.6l1-1.5.57-21.18-2.38,21Z"/><path class="cls-4" d="M113.29,112h0l0-1.2-.14,1.19Z"/></g><g id="c-29" data-name="c"><path class="cls-27" d="M91.44,114.42l1.74.5,20.32-6-20.76,4.24Z"/><path class="cls-4" d="M110.51,109.66l0,0,1.15-.34-1.18.24Z"/></g><g id="c-30" data-name="c"><path class="cls-26" d="M101.45,89.63l.06,1.82,12,17.47L103.05,90.48Z"/><path class="cls-4" d="M111.87,106.31l0,0,.68,1-.6-1Z"/></g></g><g id="d-7" data-name="d"><g id="c-31" data-name="c"><path class="cls-28" d="M130.4,93.7l-1.78.38L113.5,108.92l16.34-13.49Z"/><path class="cls-4" d="M115.79,106.86l0,0-.85.84.92-.76Z"/></g><g id="c-32" data-name="c"><path class="cls-29" d="M133.19,120.29l-.9-1.58-18.79-9.79,17.88,11.37Z"/><path class="cls-4" d="M116.17,110.46l0,0-1.06-.55,1,.64Z"/></g><g id="c-33" data-name="c"><path class="cls-30" d="M108.77,131.16l1.22-1.35,3.51-20.89-5.29,20.51Z"/><path class="cls-4" d="M112.86,111.93h0l.2-1.19-.3,1.16Z"/></g><g id="c-34" data-name="c"><path class="cls-30" d="M90.89,111.29l1.65.74,21-3.11-21.15,1.31Z"/><path class="cls-4" d="M110.44,109.24v.05l1.18-.18-1.19.08Z"/></g><g id="c-35" data-name="c"><path class="cls-29" d="M104.25,88.14,104.06,90l9.44,19-7.78-19.71Z"/><path class="cls-4" d="M112.25,106.11l0,0,.54,1.07-.44-1.11Z"/></g></g><g id="d-8" data-name="d"><g id="c-36" data-name="c"><path class="cls-31" d="M132.35,96.2l-1.81.13-17,12.59,18.06-11.09Z"/><path class="cls-4" d="M116.05,107.2l0,0-1,.72,1-.63Z"/></g><g id="c-37" data-name="c"><path class="cls-32" d="M131.42,122.92l-.68-1.69L113.5,108.92l16.12,13.74Z"/><path class="cls-4" d="M115.93,110.81l0,0-1-.7.91.78Z"/></g><g id="c-38" data-name="c"><path class="cls-33" d="M105.72,130.29l1.39-1.17,6.39-20.2-8.09,19.58Z"/><path class="cls-4" d="M112.45,111.81h0l.36-1.14-.46,1.11Z"/></g><g id="c-39" data-name="c"><path class="cls-34" d="M90.77,108.12l1.54,1,21.19-.16-21.12-1.65Z"/><path class="cls-4" d="M110.43,108.81v0h1.2l-1.19-.09Z"/></g><g id="c-40" data-name="c"><path class="cls-35" d="M107.23,87.06l-.44,1.76,6.71,20.1-5-20.6Z"/><path class="cls-4" d="M112.65,106h-.05l.38,1.14L112.7,106Z"/></g></g><g id="d-9" data-name="d"><g id="c-41" data-name="c"><path class="cls-36" d="M133.94,99l-1.81-.13-18.63,10.1,19.42-8.47Z"/><path class="cls-4" d="M116.27,107.57l0,0-1,.57,1.1-.48Z"/></g><g id="c-42" data-name="c"><path class="cls-37" d="M129.3,125.27l-.44-1.76L113.5,108.92l14,15.85Z"/><path class="cls-4" d="M115.64,111.13l0,0-.86-.82.79.9Z"/></g><g id="c-43" data-name="c"><path class="cls-38" d="M102.82,129l1.54-1,9.14-19.11-10.74,18.26Z"/><path class="cls-4" d="M112.06,111.63l0,0,.52-1.08-.61,1Z"/></g><g id="c-44" data-name="c"><path class="cls-38" d="M91.11,105l1.39,1.16,21,2.79-20.69-4.57Z"/><path class="cls-4" d="M110.47,108.38v.05l1.19.16-1.17-.26Z"/></g><g id="c-45" data-name="c"><path class="cls-39" d="M110.34,86.4l-.68,1.68,3.84,20.84-2-21.09Z"/><path class="cls-4" d="M113.07,105.87h0l.22,1.18-.12-1.2Z"/></g></g><path class="cls-40" d="M113.5,101.36a17,17,0,0,0-11.15,4.14l-5.65,9.78a17.83,17.83,0,0,0-.29,3.18h1.94a15.15,15.15,0,0,1,30.3,0h1.94a17.58,17.58,0,0,0-.29-3.18l-5.65-9.78A17,17,0,0,0,113.5,101.36Z"/><path class="cls-41" d="M113.5,101.67a16.72,16.72,0,0,0-11.66,4.72l-4.63,8a16.19,16.19,0,0,0-.49,4h1.63a15.15,15.15,0,0,1,30.3,0h1.64a17,17,0,0,0-.5-4.06l-4.63-8a16.72,16.72,0,0,0-11.66-4.72Z"/><path class="cls-42" d="M113.5,102a16.41,16.41,0,0,0-12.3,5.51l-3.35,5.81a16.37,16.37,0,0,0-.82,5.15h1.32a15.15,15.15,0,0,1,30.3,0H130a16.24,16.24,0,0,0-.82-5.15l-3.35-5.81A16.41,16.41,0,0,0,113.5,102Z"/><path class="cls-43" d="M113.5,102.29a16.15,16.15,0,0,0-13.44,7.18L99,111.35a16.06,16.06,0,0,0-1.65,7.11h1a15.15,15.15,0,0,1,30.3,0h1a16,16,0,0,0-1.65-7.1l-1.09-1.9a16.15,16.15,0,0,0-13.43-7.17Z"/><path class="cls-44" d="M113.5,102.6a15.86,15.86,0,0,0-15.86,15.86h.71a15.15,15.15,0,0,1,30.3,0h.71A15.86,15.86,0,0,0,113.5,102.6Z"/><path class="cls-45" d="M113.5,102.9A15.56,15.56,0,0,0,98,118.46h.52a15,15,0,0,1,30.06,0h.53A15.56,15.56,0,0,0,113.5,102.9Z"/><path class="cls-46" d="M113.5,103.21a15.24,15.24,0,0,0-15.24,15.25v.28h.31v-.28a14.94,14.94,0,1,1,29.87,0c0,.09,0,.19,0,.28h.31v-.28A15.24,15.24,0,0,0,113.5,103.21Z"/><path class="cls-47" d="M113.65,109.94c-.25,0-.47-.18-.68-.23a.85.85,0,0,0-.28.8c.1,0,.12.14.34.33s.19.3.17.76c0,.19,0,.61.23.65s.36-.14.42-.45a1.85,1.85,0,0,1,.26-.66c.12-.71-.07-1-.46-1.2Z"/><path class="cls-40" d="M112.41,108.17c-.23,0-.59.39-.75.18a.54.54,0,0,1,0-.54,1.8,1.8,0,0,1,.83-.89c.92-.54,1.5-.37,2,.4a5.15,5.15,0,0,1,.86,2.07c0,.2.11.54-.06.72-.52.53-1.77-.55-2.5-.38-.25.06-.53.24-.76.08s0-.38.1-.5a2,2,0,0,0,.53-1.21c0-.18,0,.06-.2.07Z"/><path class="cls-48" d="M112.32,107.79c-.42.17-.37.42-.58.61a.44.44,0,0,0,.52-.11,1.39,1.39,0,0,1,.26-.14,2.09,2.09,0,0,0-.26.26,2,2,0,0,0-.52.71,1.78,1.78,0,0,0-.14.69,1.07,1.07,0,0,0,.6.47c.78.32.93.94,1.72.94.63,0,.53-.4,1-.32s.66-.26.25-.47a5.34,5.34,0,0,0-2.07,0,9.12,9.12,0,0,1-.06-1.69c0-.68-.24-.72,0-1.27-.22.34-.49.28-.77.31Z"/><path class="cls-49" d="M113.86,106.73a1.16,1.16,0,0,0,0,.23c0,.13.07.27.11.39s.06.22.09.35.15.2.27.28,0,.4.12.41.19-.41.19-.48a2.29,2.29,0,0,0,0-.25c0-.11-.1-.22-.16-.33h0a.75.75,0,0,0-.07-.12,1.36,1.36,0,0,0-.3-.33l0,0-.1-.07-.08,0Z"/><path class="cls-50" d="M114,109.66c-.28-.07-.55-.21-.78-.28-.47-.14-1-.44-1.3-.31-.12.05-.11.17-.15.35s-.23.51,0,.41,1,.28,1.19.42a1,1,0,0,1,.42.4,2.88,2.88,0,0,1,0,.88c0,.22.05.71.27.77s.41-.13.5-.48a2.48,2.48,0,0,1,.29-.74.75.75,0,0,1,.51-.33c.22,0,.54.18.54-.08s-.15-.33-.09-.56-.15-.14-.32-.22c-.4-.12-.76-.16-1-.23Z"/><path class="cls-51" d="M112.87,110.24c-.13-.07-.89-.57-1.17-.41-.09,0-.12,0-.12-.1a1.15,1.15,0,0,1,.07-.34.74.74,0,0,1,.19-.4c.27-.23.88.22,1.2.34,0,.16-.18.9-.17.91Z"/><path class="cls-52" d="M114.18,111.19c.35-.62.58-.54,1-.53.14,0,.18-.13.15-.26-.11.24-.64,0-.93.1-.61.27-.5,1.45-.78,1.57.3.25.43-.67.55-.88Z"/><path class="cls-4" d="M95.44,117.46l-3.83,6.63h43.78l-3.83-6.63Z"/><g id="i"><path id="h" class="cls-53" d="M94.13,122.74a15,15,0,0,0-1.81.13l-.19.33c.94-.08,1.81-.25,2.75-.27,1.27,0,2.42.32,3.77.32.59,0,1.17,0,1.74,0,1.35,0,2.5-.29,3.77-.32s2.43.32,3.78.32c.58,0,1.22,0,1.74,0,1.35,0,2.49-.29,3.76-.32s2.41.32,3.76.32c.59,0,1.17,0,1.75,0,1.35,0,2.5-.29,3.77-.32s2.42.32,3.77.32c.58,0,1.16,0,1.74,0,1.35,0,2.49-.29,3.76-.32,1,0,1.89.2,2.88.28l-.2-.35a14.92,14.92,0,0,0-1.68-.12c-.59,0-1.17,0-1.75,0-1.35,0-2.49.29-3.76.32s-2.42-.32-3.77-.32c-.58,0-1.16,0-1.74,0-1.35,0-2.5.29-3.77.32s-2.42-.32-3.76-.32c-.59,0-1.18,0-1.76,0-1.34,0-2.49.29-3.76.32s-2.41-.32-3.76-.32c-.58,0-1.16,0-1.74,0-1.35,0-2.5.29-3.77.32s-2.42-.32-3.76-.32c-.59,0-1.18,0-1.76,0Z"/><path id="h-2" data-name="h" class="cls-54" d="M94.13,122.31a13.15,13.15,0,0,0-1.81.14l-.19.32c.94-.08,1.81-.25,2.75-.27,1.27,0,2.42.32,3.77.32h1.74c1.35,0,2.5-.29,3.77-.32s2.43.32,3.78.32h1.74c1.35,0,2.49-.29,3.76-.32s2.41.32,3.76.32H119c1.35,0,2.5-.29,3.77-.32s2.42.32,3.77.32h1.74c1.35,0,2.49-.29,3.76-.32,1,0,1.89.2,2.88.28l-.2-.35a14.92,14.92,0,0,0-1.68-.12c-.59,0-1.17,0-1.75,0-1.35,0-2.49.29-3.76.32s-2.42-.32-3.77-.32c-.58,0-1.16,0-1.74,0-1.35,0-2.5.29-3.77.32s-2.42-.32-3.76-.32c-.59,0-1.18,0-1.76,0-1.34,0-2.49.29-3.76.32s-2.41-.32-3.76-.32c-.58,0-1.16,0-1.74,0-1.35,0-2.5.29-3.77.32s-2.42-.32-3.76-.32c-.59,0-1.18,0-1.76,0Z"/><path id="h-3" data-name="h" class="cls-55" d="M94.13,121.88a13.15,13.15,0,0,0-1.81.14l-.19.32c.94-.08,1.81-.25,2.75-.27,1.27,0,2.42.32,3.77.32.59,0,1.17,0,1.74,0,1.35,0,2.5-.29,3.77-.32s2.43.32,3.78.32c.58,0,1.22,0,1.74,0,1.35,0,2.49-.29,3.76-.32s2.41.32,3.76.32c.59,0,1.17,0,1.75,0,1.35,0,2.5-.29,3.77-.32s2.42.32,3.77.32c.58,0,1.16,0,1.74,0,1.35,0,2.49-.29,3.76-.32,1,0,1.89.2,2.88.28l-.2-.35a14.92,14.92,0,0,0-1.68-.12c-.59,0-1.17,0-1.75,0-1.35,0-2.49.29-3.76.32s-2.42-.32-3.77-.32c-.58,0-1.16,0-1.74,0-1.35,0-2.5.29-3.77.32s-2.42-.32-3.76-.32c-.59,0-1.18,0-1.76,0-1.34,0-2.49.29-3.76.32s-2.41-.32-3.76-.32c-.58,0-1.16,0-1.74,0-1.35,0-2.5.29-3.77.32s-2.42-.32-3.76-.32c-.59,0-1.18,0-1.76,0Z"/></g><g id="i-2" data-name="i"><path id="h-4" data-name="h" class="cls-56" d="M94.13,121.45a14.93,14.93,0,0,0-1.81.14l-.19.32c.94-.08,1.81-.25,2.75-.27,1.27,0,2.42.32,3.77.32h1.74c1.35,0,2.5-.29,3.77-.32s2.43.32,3.78.32h1.74c1.35,0,2.49-.29,3.76-.32s2.41.32,3.76.32H119c1.35,0,2.5-.29,3.77-.32s2.42.32,3.77.32h1.74c1.35,0,2.49-.29,3.76-.32,1,0,1.89.2,2.88.28l-.2-.35a14.92,14.92,0,0,0-1.68-.12c-.59,0-1.17,0-1.75,0-1.35,0-2.49.29-3.76.32s-2.42-.32-3.77-.32c-.58,0-1.16,0-1.74,0-1.35,0-2.5.29-3.77.32s-2.42-.32-3.76-.32c-.59,0-1.18,0-1.76,0-1.34,0-2.49.29-3.76.32s-2.41-.32-3.76-.32c-.58,0-1.16,0-1.74,0-1.35,0-2.5.29-3.77.32s-2.42-.32-3.76-.32c-.59,0-1.18,0-1.76,0Z"/><path id="h-5" data-name="h" class="cls-57" d="M94.13,121a14.93,14.93,0,0,0-1.81.14l-.19.32c.94-.08,1.81-.25,2.75-.27,1.27,0,2.42.32,3.77.32.59,0,1.17,0,1.74,0,1.35,0,2.5-.29,3.77-.32s2.43.32,3.78.32c.58,0,1.22,0,1.74,0,1.35,0,2.49-.29,3.76-.32s2.41.32,3.76.32c.59,0,1.17,0,1.75,0,1.35,0,2.5-.29,3.77-.32s2.42.32,3.77.32c.58,0,1.16,0,1.74,0,1.35,0,2.49-.29,3.76-.32,1,0,1.89.2,2.88.28l-.2-.34A12.86,12.86,0,0,0,133,121c-.59,0-1.17,0-1.75,0-1.35,0-2.49.29-3.76.32s-2.42-.32-3.77-.32c-.58,0-1.16,0-1.74,0-1.35,0-2.5.29-3.77.32s-2.42-.32-3.76-.32c-.59,0-1.18,0-1.76,0-1.34,0-2.49.29-3.76.32s-2.41-.32-3.76-.32c-.58,0-1.16,0-1.74,0-1.35,0-2.5.29-3.77.32s-2.42-.32-3.76-.32c-.59,0-1.18,0-1.76,0Z"/><path id="h-6" data-name="h" class="cls-58" d="M94.13,120.59a14.93,14.93,0,0,0-1.81.14l-.19.32c.94-.08,1.81-.25,2.75-.27,1.27,0,2.42.32,3.77.32.59,0,1.17,0,1.74,0,1.35,0,2.5-.29,3.77-.32s2.43.32,3.78.32h1.74c1.35,0,2.49-.29,3.76-.32s2.41.32,3.76.32c.59,0,1.17,0,1.75,0,1.35,0,2.5-.29,3.77-.32s2.42.32,3.77.32c.58,0,1.16,0,1.74,0,1.35,0,2.49-.29,3.76-.32,1,0,1.89.2,2.88.28l-.2-.34a12.86,12.86,0,0,0-1.68-.13c-.59,0-1.17,0-1.75,0-1.35,0-2.49.29-3.76.32s-2.42-.32-3.77-.32c-.58,0-1.16,0-1.74,0-1.35,0-2.5.29-3.77.32s-2.42-.32-3.76-.32c-.59,0-1.18,0-1.76,0-1.34,0-2.49.29-3.76.32s-2.41-.32-3.76-.32c-.58,0-1.16,0-1.74,0-1.35,0-2.5.29-3.77.32s-2.42-.32-3.76-.32c-.59,0-1.18,0-1.76,0Z"/></g><g id="i-3" data-name="i"><path id="h-7" data-name="h" class="cls-59" d="M94.13,120.16a14.93,14.93,0,0,0-1.81.14l-.19.32c.94-.08,1.81-.25,2.75-.27,1.27,0,2.42.32,3.77.32.59,0,1.17,0,1.74,0,1.35,0,2.5-.29,3.77-.32s2.43.32,3.78.32c.58,0,1.22,0,1.74,0,1.35,0,2.49-.29,3.76-.32s2.41.32,3.76.32c.59,0,1.17,0,1.75,0,1.35,0,2.5-.29,3.77-.32s2.42.32,3.77.32c.58,0,1.16,0,1.74,0,1.35,0,2.49-.29,3.76-.32,1,0,1.89.2,2.88.28l-.2-.34a12.86,12.86,0,0,0-1.68-.13c-.59,0-1.17,0-1.75,0-1.35,0-2.49.29-3.76.32s-2.42-.32-3.77-.32c-.58,0-1.16,0-1.74,0-1.35,0-2.5.29-3.77.32s-2.42-.32-3.76-.32c-.59,0-1.18,0-1.76,0-1.34,0-2.49.29-3.76.32s-2.41-.32-3.76-.32c-.58,0-1.16,0-1.74,0-1.35,0-2.5.29-3.77.32s-2.42-.32-3.76-.32c-.59,0-1.18,0-1.76,0Z"/><path id="h-8" data-name="h" class="cls-60" d="M94.13,119.73a14.93,14.93,0,0,0-1.81.14l-.19.33c.94-.09,1.81-.25,2.75-.28,1.27,0,2.42.32,3.77.32.59,0,1.17,0,1.74,0,1.35,0,2.5-.29,3.77-.32s2.43.32,3.78.32h1.74c1.35,0,2.49-.29,3.76-.32s2.41.32,3.76.32c.59,0,1.17,0,1.75,0,1.35,0,2.5-.29,3.77-.32s2.42.32,3.77.32c.58,0,1.16,0,1.74,0,1.35,0,2.49-.29,3.76-.32,1,0,1.89.2,2.88.28l-.2-.34a12.86,12.86,0,0,0-1.68-.13c-.59,0-1.17,0-1.75,0-1.35,0-2.49.29-3.76.32s-2.42-.32-3.77-.32c-.58,0-1.16,0-1.74,0-1.35,0-2.5.29-3.77.32s-2.42-.32-3.76-.32c-.59,0-1.18,0-1.76,0-1.34,0-2.49.29-3.76.32s-2.41-.32-3.76-.32c-.58,0-1.16,0-1.74,0-1.35,0-2.5.29-3.77.32s-2.42-.32-3.76-.32c-.59,0-1.18,0-1.76,0Z"/><path id="h-9" data-name="h" class="cls-61" d="M94.13,119.3a14.93,14.93,0,0,0-1.81.14l-.19.33c.94-.09,1.81-.25,2.75-.28,1.27,0,2.42.32,3.77.32.59,0,1.17,0,1.74,0,1.35,0,2.5-.29,3.77-.32s2.43.32,3.78.32c.58,0,1.22,0,1.74,0,1.35,0,2.49-.29,3.76-.32s2.41.32,3.76.32c.59,0,1.17,0,1.75,0,1.35,0,2.5-.29,3.77-.32s2.42.32,3.77.32c.58,0,1.16,0,1.74,0,1.35,0,2.49-.29,3.76-.32,1,0,1.89.2,2.88.28l-.2-.34a12.86,12.86,0,0,0-1.68-.13c-.59,0-1.17,0-1.75,0-1.35,0-2.49.29-3.76.32s-2.42-.32-3.77-.32c-.58,0-1.16,0-1.74,0-1.35,0-2.5.29-3.77.32s-2.42-.32-3.76-.32c-.59,0-1.18,0-1.76,0-1.34,0-2.49.29-3.76.32s-2.41-.32-3.76-.32c-.58,0-1.16,0-1.74,0-1.35,0-2.5.29-3.77.32s-2.42-.32-3.76-.32c-.59,0-1.18,0-1.76,0Z"/></g><path class="cls-62" d="M95.49,117.38l0,.09h36.12l-.05-.09Zm-.08.15,0,.08h36.28l0-.08Zm-.08.13-.08.14h36.5l-.08-.14Zm-.12.21-.1.17h36.78l-.1-.17Zm-.16.27-.09.17H132l-.09-.17Zm-.15.27-.09.16H132.2l-.1-.16Zm-.15.26-.1.17h37.7l-.1-.17Zm-.17.29-.11.2h38.07l-.12-.2Zm2.5.28c1.33.26,1.46,0,1.46,0Zm31.38,0s.13.26,1.46,0Z"/><g id="k"><path class="cls-63" d="M125.29,113.37a1,1,0,0,0-.85.34c-1.06,4.07-4.55,8.21-8.71,8.21h-3.11v4.15h23.69l-2.38-4.22c-3.74-.56-6.8-4.38-7.77-8.14a1,1,0,0,0-.87-.34Z"/><path class="cls-64" d="M125.29,113.54a1.19,1.19,0,0,0-.59.13.39.39,0,0,0-.12.11h0a12.85,12.85,0,0,1-3.21,5.66,8,8,0,0,1-5.62,2.63h-3v3.82h23.44L134,122a8.41,8.41,0,0,1-4.8-2.58,13,13,0,0,1-3.21-5.66h0a.93.93,0,0,0-.13-.1,1.08,1.08,0,0,0-.6-.14Z"/><path class="cls-65" d="M125.29,113.54h.16c0,1.16,0,3.12,0,4.16a5.28,5.28,0,0,1-.77,2.48c-.21.6-.38.37-.91,1.1a10,10,0,0,1-2,.47,15,15,0,0,1-4.19,0,8.85,8.85,0,0,0,3.76-2.36,10.17,10.17,0,0,0,.82-.92,12.74,12.74,0,0,0,1.16-1.73c.14-.24.27-.48.39-.73s.34-.75.48-1.13c.05-.12.09-.25.13-.38s.16-.51.23-.77h0a.39.39,0,0,1,.12-.11l.22-.09h0a1.71,1.71,0,0,1,.36,0Z"/><path class="cls-66" d="M125,114.09a11.38,11.38,0,0,1-2.56,6.86,3,3,0,0,1-2.17.87A14.86,14.86,0,0,0,125,114.09Z"/><path class="cls-67" d="M122.93,118.09a11.94,11.94,0,0,1-3.4,3.86,9.91,9.91,0,0,1-1.08,0c1-.09,3.16-2,4.48-3.88Z"/></g><g id="k-2" data-name="k"><path class="cls-68" d="M119.39,113.37a1,1,0,0,0-.86.34c-1.06,4.07-4.55,8.21-8.7,8.21h-3.11v4.15H130.4L128,121.85c-3.74-.56-6.79-4.38-7.77-8.14a1,1,0,0,0-.86-.34Z"/><path class="cls-64" d="M119.39,113.54a1.16,1.16,0,0,0-.59.13.38.38,0,0,0-.13.11h0a12.83,12.83,0,0,1-3.2,5.66,8,8,0,0,1-5.63,2.63h-3v3.82h23.43L128.12,122a8.42,8.42,0,0,1-4.79-2.58,12.85,12.85,0,0,1-3.21-5.66h0a.49.49,0,0,0-.13-.1,1.07,1.07,0,0,0-.59-.14Z"/><path class="cls-65" d="M119.39,113.54h.15c0,1.16,0,3.12,0,4.16a5.28,5.28,0,0,1-.77,2.48c-.21.6-.38.37-.91,1.1a9.93,9.93,0,0,1-2,.47,15.1,15.1,0,0,1-4.2,0,8.88,8.88,0,0,0,3.77-2.36,12,12,0,0,0,.82-.92,12.74,12.74,0,0,0,1.16-1.73c.13-.24.26-.48.38-.73s.34-.75.48-1.13c0-.12.09-.25.14-.38s.16-.51.23-.77h0a.38.38,0,0,1,.13-.11,1,1,0,0,1,.22-.09h0a1.82,1.82,0,0,1,.37,0Z"/><path class="cls-66" d="M119.12,114.09a11.38,11.38,0,0,1-2.56,6.86,3,3,0,0,1-2.17.87A14.8,14.8,0,0,0,119.12,114.09Z"/><path class="cls-67" d="M117,118.09a11.94,11.94,0,0,1-3.4,3.86,9.91,9.91,0,0,1-1.08,0c.95-.09,3.17-2,4.48-3.88Z"/></g><path class="cls-69" d="M114.35,113.71c1.06,4.07,4.54,8.21,8.7,8.21h3.11v4.15H100.82v-4.15h3.11c4.15,0,7.64-4.14,8.7-8.21a1.26,1.26,0,0,1,1.72,0Z"/><path class="cls-64" d="M113.49,113.54a1.07,1.07,0,0,1,.59.14c.11.06.13.1.13.1h0a12.85,12.85,0,0,0,3.21,5.66,8,8,0,0,0,5.63,2.63H126v3.82H101v-3.82h3a8,8,0,0,0,5.62-2.63,13,13,0,0,0,3.21-5.66h0a1.54,1.54,0,0,1,.13-.11A1.19,1.19,0,0,1,113.49,113.54Z"/><path class="cls-65" d="M113.22,113.56l-.1,0h0a.73.73,0,0,0-.22.09.62.62,0,0,0-.13.11h0c-.07.26-.15.51-.23.77s-.09.25-.14.38q-.21.57-.48,1.14c-.12.24-.25.49-.38.72a12.74,12.74,0,0,1-1.16,1.73,12,12,0,0,1-.82.92,8.88,8.88,0,0,1-3.77,2.36,5.35,5.35,0,0,0,2.53-.18,12.71,12.71,0,0,0,2.32-.46,2.27,2.27,0,0,0,.56-1.1,9.28,9.28,0,0,0,1.28-2.58,10.22,10.22,0,0,0,.74-3.93Z"/><path class="cls-66" d="M113.22,114.09a11.38,11.38,0,0,1-2.56,6.86,3,3,0,0,1-2.17.87A14.8,14.8,0,0,0,113.22,114.09Z"/><path class="cls-67" d="M111.13,118.09a12.11,12.11,0,0,1-3.41,3.86,9.91,9.91,0,0,1-1.08,0c1-.09,3.17-2,4.49-3.88Z"/><path class="cls-65" d="M113.87,113.58h0a1,1,0,0,1,.22.09.62.62,0,0,1,.13.11h0c.07.26.15.51.23.77s.09.25.14.38c.14.38.3.76.48,1.13s.25.49.38.73a12.74,12.74,0,0,0,1.16,1.73,12,12,0,0,0,.82.92,9.27,9.27,0,0,0,3.76,2.51c-2.78,0-4-.24-5-1.55a7.1,7.1,0,0,1-1.59-2.67,14.32,14.32,0,0,1-.72-4.16Z"/><path class="cls-66" d="M114.07,114.09a10.09,10.09,0,0,0,2.53,6.4,3,3,0,0,0,2.18.87,11.94,11.94,0,0,1-4.71-7.27Z"/><g id="l"><path class="cls-70" d="M107.63,113.37a1,1,0,0,0-.87.34c-1,3.75-4.55,8.59-8.27,9.16l-1.85,3.2h18.87V121.7c-3.39-.92-6.11-4.48-7-8a1,1,0,0,0-.86-.34Z"/><path class="cls-64" d="M107.63,113.54a1,1,0,0,0-.59.14c-.11.06-.13.1-.13.1h0a16.67,16.67,0,0,1-3.11,5.77c-1.31,1.65-3.74,3.32-5.41,3.5l-1.65,2.84h18.51v-4.11a8.9,8.9,0,0,1-3.68-2.34,13,13,0,0,1-3.21-5.66h0a.39.39,0,0,0-.12-.11,1.19,1.19,0,0,0-.59-.13Z"/><path class="cls-71" d="M107.13,114.09c-.24,3.48-2.18,7.88-4.37,8.63a12.71,12.71,0,0,1-2.4.39C104.19,121.29,106.46,117,107.13,114.09Z"/><path class="cls-65" d="M107.63,113.54h-.16c0,1.16,0,3.12,0,4.16a5.18,5.18,0,0,0,.78,2.48c0,.07,0,.13.07.19.16.42.28.56.88,1a8.48,8.48,0,0,0,5.7,1.55c-.44-.34-.9-.66-1.32-1a9.93,9.93,0,0,0,1.74-.19,8.85,8.85,0,0,1-3.76-2.36,7.7,7.7,0,0,1-.54-.6l-.23-.31a13.17,13.17,0,0,1-1.21-1.74c-.14-.24-.26-.48-.38-.73a11.68,11.68,0,0,1-.62-1.51c-.09-.26-.16-.51-.23-.77h0a.39.39,0,0,0-.12-.11.85.85,0,0,0-.22-.09h0a1.47,1.47,0,0,0-.36,0Z"/><path class="cls-72" d="M107.9,114.09a11.37,11.37,0,0,0,2.55,6.86,3,3,0,0,0,2.18.87A14.8,14.8,0,0,1,107.9,114.09Z"/><path class="cls-67" d="M109.5,117.3c.91,2.25,3.22,4.35,5.6,5.76.44,0,.58,0,1,0A15,15,0,0,1,109.5,117.3Z"/></g><g id="l-2" data-name="l"><path class="cls-73" d="M101.69,113.37a1,1,0,0,0-.87.34c-1,3.75-4.55,8.59-8.28,9.16l-1.84,3.2h18.87V121.7c-3.4-.92-6.12-4.48-7-8a1,1,0,0,0-.86-.34Z"/><path class="cls-64" d="M101.69,113.54a1.11,1.11,0,0,0-.6.14.93.93,0,0,0-.13.1h0a16.67,16.67,0,0,1-3.11,5.77c-1.31,1.65-3.75,3.32-5.41,3.5l-1.65,2.84H109.3v-4.11a8.9,8.9,0,0,1-3.68-2.34,13,13,0,0,1-3.21-5.66h0a.39.39,0,0,0-.12-.11,1.19,1.19,0,0,0-.59-.13Z"/><path class="cls-71" d="M101.18,114.09c-.23,3.48-2.17,7.88-4.36,8.63a12.83,12.83,0,0,1-2.4.39C98.25,121.29,100.52,117,101.18,114.09Z"/><path class="cls-65" d="M101.69,113.54h-.16c0,1.16,0,3.12,0,4.16a5.28,5.28,0,0,0,.77,2.48c0,.07.06.13.08.19.16.42.28.56.88,1A8.48,8.48,0,0,0,109,123c-.44-.34-.91-.66-1.32-1a9.93,9.93,0,0,0,1.74-.19,8.85,8.85,0,0,1-3.76-2.36,7.7,7.7,0,0,1-.54-.6l-.23-.31a13.17,13.17,0,0,1-1.21-1.74c-.14-.24-.27-.48-.39-.73a13.23,13.23,0,0,1-.61-1.51c-.09-.26-.16-.51-.23-.77h0a.39.39,0,0,0-.12-.11,1,1,0,0,0-.22-.09h0a1.47,1.47,0,0,0-.36,0Z"/><path class="cls-66" d="M102,114.09a11.31,11.31,0,0,0,2.55,6.86,3,3,0,0,0,2.18.87A14.8,14.8,0,0,1,102,114.09Z"/><path class="cls-67" d="M103.56,117.3c.91,2.25,3.22,4.35,5.6,5.76.44,0,.57,0,1,0A15,15,0,0,1,103.56,117.3Z"/></g><path class="cls-4" d="M135.26,124c-.23.08-1.71-.07-2.48,0l-.49.13c-.44,0-.87,0-1.29,0-1.38,0-2.56.37-3.88.37s-2.49-.37-3.88-.37c-.43,0-.86,0-1.28,0-1.38,0-2.56.37-3.88.37s-2.49-.37-3.88-.37c-.43,0-.86,0-1.29,0-1.38,0-2.55.37-3.87.37s-2.48-.37-3.87-.37h-1.28c-1.39,0-2.56.37-3.88.37s-2.5-.37-3.88-.37H94.84c-1.11,0-2.39.24-3.44.33L89,128.64h49Z"/><path class="cls-74" d="M132,123.41h-.23c-1.25,0-2.14.43-4.31.43s-2.4-.39-4.85-.34c-2.29.06-3.25.49-4.49.47a43.8,43.8,0,0,0-4.82-.1c-1.55.16-3.4.49-4.61.49a43.28,43.28,0,0,0-4.58-.12,28.24,28.24,0,0,1-4.26.57c-1.68,0-3.5-.27-4.91-.27a24.11,24.11,0,0,0-3.88.56l-.33.56c.87-.1,3.29-.47,4.16-.49s4.13.19,5.91.13,2-.45,4.08-.45c1.47,0,2.57.15,4.07.15.94,0,1.79-.48,3.22-.48l1.07,0a26,26,0,0,1,4.64.09c1.28.06,2.1-.24,3.43-.29.58,0,1.16,0,1.72-.05,1.34,0,2.48.24,3.73.24s2.47-.36,3.8-.4l1.73-.06a18.21,18.21,0,0,1,3.18.19l-.32-.55c-.92,0-2-.25-3.15-.25Z"/><g id="n"><path id="m" class="cls-75" d="M94.37,127.89c-1.33,0-2.47.33-3.72.37a12.28,12.28,0,0,1-1.36-.14l-.19.33.58,0H91.4c1.33,0,2.46-.32,3.71-.36s2.39.36,3.72.36h1.72c1.33,0,2.47-.32,3.72-.36s2.4.36,3.73.36h1.72c1.34,0,2.47-.32,3.72-.36s2.38.36,3.72.36h1.73c1.33,0,2.46-.32,3.72-.36s2.39.36,3.72.36h1.72c1.33,0,2.47-.32,3.72-.36s2.39.36,3.72.36h1.72c.24,0,.46,0,.69,0l-.18-.3c-.41.05-.82.1-1.25.12-1.25,0-2.38-.37-3.71-.37-.58,0-1.16,0-1.73,0-1.33,0-2.47.33-3.72.37s-2.39-.37-3.72-.37c-.58,0-1.15,0-1.72,0-1.33,0-2.47.33-3.72.37s-2.39-.37-3.73-.37c-.57,0-1.15,0-1.72,0-1.34,0-2.47.33-3.72.37s-2.38-.37-3.72-.37c-.58,0-1.15,0-1.72,0-1.33,0-2.47.33-3.72.37s-2.39-.37-3.72-.37c-.58,0-1.16,0-1.73,0Z"/><path id="m-2" data-name="m" class="cls-76" d="M94.37,127.4c-1.33,0-2.47.32-3.72.36a12.27,12.27,0,0,1-1.36-.13l-.19.32a5.49,5.49,0,0,0,.58,0c.57,0,1.15,0,1.72,0,1.33,0,2.46-.33,3.71-.37s2.39.37,3.72.37c.58,0,1.15,0,1.72,0,1.33,0,2.47-.33,3.72-.37s2.4.37,3.73.37c.58,0,1.16,0,1.72,0,1.34,0,2.47-.33,3.72-.37s2.38.37,3.72.37c.58,0,1.15,0,1.73,0,1.33,0,2.46-.33,3.72-.37s2.39.37,3.72.37c.58,0,1.15,0,1.72,0,1.33,0,2.47-.33,3.72-.37s2.39.37,3.72.37c.58,0,1.15,0,1.72,0,.24,0,.46,0,.69,0l-.18-.31a10.18,10.18,0,0,1-1.25.12c-1.25,0-2.38-.36-3.71-.36-.58,0-1.16,0-1.73,0-1.33,0-2.47.32-3.72.36s-2.39-.36-3.72-.36c-.58,0-1.15,0-1.72,0-1.33,0-2.47.32-3.72.36s-2.39-.36-3.73-.36c-.57,0-1.15,0-1.72,0-1.34,0-2.47.32-3.72.36s-2.38-.36-3.72-.36c-.58,0-1.15,0-1.72,0-1.33,0-2.47.32-3.72.36s-2.39-.36-3.72-.36c-.58,0-1.16,0-1.73,0Z"/><path id="m-3" data-name="m" class="cls-77" d="M94.37,126.9c-1.33,0-2.47.33-3.72.36a12.27,12.27,0,0,1-1.36-.13l-.19.33.58,0c.57,0,1.15,0,1.72,0,1.33,0,2.46-.33,3.71-.36s2.39.36,3.72.36c.58,0,1.15,0,1.72,0,1.33,0,2.47-.33,3.72-.36s2.4.36,3.73.36c.58,0,1.16,0,1.72,0,1.34,0,2.47-.33,3.72-.36s2.38.36,3.72.36c.58,0,1.15,0,1.73,0,1.33,0,2.46-.33,3.72-.36s2.39.36,3.72.36c.58,0,1.15,0,1.72,0,1.33,0,2.47-.33,3.72-.36s2.39.36,3.72.36c.58,0,1.15,0,1.72,0,.24,0,.46,0,.69,0l-.18-.3c-.41,0-.82.1-1.25.11-1.25,0-2.38-.36-3.71-.36-.58,0-1.16,0-1.73,0-1.33,0-2.47.33-3.72.36s-2.39-.36-3.72-.36c-.58,0-1.15,0-1.72,0-1.33,0-2.47.33-3.72.36s-2.39-.36-3.73-.36c-.57,0-1.15,0-1.72,0-1.34,0-2.47.33-3.72.36s-2.38-.36-3.72-.36c-.58,0-1.15,0-1.72,0-1.33,0-2.47.33-3.72.36s-2.39-.36-3.72-.36c-.58,0-1.16,0-1.73,0Z"/></g><g id="n-2" data-name="n"><path id="m-4" data-name="m" class="cls-78" d="M94.37,126.4c-1.33,0-2.47.33-3.72.37a12.28,12.28,0,0,1-1.36-.14l-.19.33c.19,0,.38,0,.58,0,.57,0,1.15,0,1.72,0,1.33,0,2.46-.33,3.71-.37s2.39.37,3.72.37c.58,0,1.15,0,1.72,0,1.33,0,2.47-.33,3.72-.37s2.4.37,3.73.37c.58,0,1.16,0,1.72,0,1.34,0,2.47-.33,3.72-.37s2.38.37,3.72.37c.58,0,1.15,0,1.73,0,1.33,0,2.46-.33,3.72-.37s2.39.37,3.72.37c.58,0,1.15,0,1.72,0,1.33,0,2.47-.33,3.72-.37s2.39.37,3.72.37c.58,0,1.15,0,1.72,0,.24,0,.46,0,.69,0l-.18-.31c-.41,0-.82.11-1.25.12-1.25,0-2.38-.37-3.71-.37H131c-1.33,0-2.47.33-3.72.37s-2.39-.37-3.72-.37h-1.72c-1.33,0-2.47.33-3.72.37s-2.39-.37-3.73-.37H112.7c-1.34,0-2.47.33-3.72.37s-2.38-.37-3.72-.37h-1.72c-1.33,0-2.47.33-3.72.37s-2.39-.37-3.72-.37Z"/><path id="m-5" data-name="m" class="cls-79" d="M94.37,125.91c-1.33,0-2.47.33-3.72.36a12.27,12.27,0,0,1-1.36-.13l-.19.32a5.49,5.49,0,0,0,.58,0c.57,0,1.15,0,1.72,0,1.33,0,2.46-.33,3.71-.36s2.39.36,3.72.36c.58,0,1.15,0,1.72,0,1.33,0,2.47-.33,3.72-.36s2.4.36,3.73.36c.58,0,1.16,0,1.72,0,1.34,0,2.47-.33,3.72-.36s2.38.36,3.72.36c.58,0,1.15,0,1.73,0,1.33,0,2.46-.33,3.72-.36s2.39.36,3.72.36c.58,0,1.15,0,1.72,0,1.33,0,2.47-.33,3.72-.36s2.39.36,3.72.36c.58,0,1.15,0,1.72,0,.24,0,.46,0,.69,0l-.18-.31a10.18,10.18,0,0,1-1.25.12c-1.25,0-2.38-.36-3.71-.36-.58,0-1.16,0-1.73,0-1.33,0-2.47.33-3.72.36s-2.39-.36-3.72-.36c-.58,0-1.15,0-1.72,0-1.33,0-2.47.33-3.72.36s-2.39-.36-3.73-.36c-.57,0-1.15,0-1.72,0-1.34,0-2.47.33-3.72.36s-2.38-.36-3.72-.36c-.58,0-1.15,0-1.72,0-1.33,0-2.47.33-3.72.36s-2.39-.36-3.72-.36c-.58,0-1.16,0-1.73,0Z"/><path id="m-6" data-name="m" class="cls-80" d="M94.37,125.41c-1.33,0-2.47.33-3.72.37-.46,0-.91-.08-1.36-.14l-.19.33.58,0c.57,0,1.15,0,1.72,0,1.33,0,2.46-.32,3.71-.36s2.39.36,3.72.36c.58,0,1.15,0,1.72,0,1.33,0,2.47-.32,3.72-.36s2.4.36,3.73.36c.58,0,1.16,0,1.72,0,1.34,0,2.47-.32,3.72-.36s2.38.36,3.72.36c.58,0,1.15,0,1.73,0,1.33,0,2.46-.32,3.72-.36s2.39.36,3.72.36c.58,0,1.15,0,1.72,0,1.33,0,2.47-.32,3.72-.36s2.39.36,3.72.36c.58,0,1.15,0,1.72,0,.24,0,.46,0,.69,0l-.18-.3c-.41,0-.82.1-1.25.12-1.25,0-2.38-.37-3.71-.37-.58,0-1.16,0-1.73,0-1.33,0-2.47.33-3.72.37s-2.39-.37-3.72-.37c-.58,0-1.15,0-1.72,0-1.33,0-2.47.33-3.72.37s-2.39-.37-3.73-.37c-.57,0-1.15,0-1.72,0-1.34,0-2.47.33-3.72.37s-2.38-.37-3.72-.37c-.58,0-1.15,0-1.72,0-1.33,0-2.47.33-3.72.37s-2.39-.37-3.72-.37c-.58,0-1.16,0-1.73,0Z"/></g><g id="n-3" data-name="n"><path id="m-7" data-name="m" class="cls-81" d="M94.37,124.92c-1.33,0-2.47.32-3.72.36a12.27,12.27,0,0,1-1.36-.13l-.19.32a5.49,5.49,0,0,0,.58,0c.57,0,1.15,0,1.72,0,1.33,0,2.46-.33,3.71-.37s2.39.37,3.72.37c.58,0,1.15,0,1.72,0,1.33,0,2.47-.33,3.72-.37s2.4.37,3.73.37c.58,0,1.16,0,1.72,0,1.34,0,2.47-.33,3.72-.37s2.38.37,3.72.37c.58,0,1.15,0,1.73,0,1.33,0,2.46-.33,3.72-.37s2.39.37,3.72.37c.58,0,1.15,0,1.72,0,1.33,0,2.47-.33,3.72-.37s2.39.37,3.72.37c.58,0,1.15,0,1.72,0,.24,0,.46,0,.69,0l-.18-.31a10.18,10.18,0,0,1-1.25.12c-1.25,0-2.38-.36-3.71-.36-.58,0-1.16,0-1.73,0-1.33,0-2.47.32-3.72.36s-2.39-.36-3.72-.36c-.58,0-1.15,0-1.72,0-1.33,0-2.47.32-3.72.36s-2.39-.36-3.73-.36c-.57,0-1.15,0-1.72,0-1.34,0-2.47.32-3.72.36s-2.38-.36-3.72-.36c-.58,0-1.15,0-1.72,0-1.33,0-2.47.32-3.72.36s-2.39-.36-3.72-.36c-.58,0-1.16,0-1.73,0Z"/><path id="m-8" data-name="m" class="cls-82" d="M94.37,124.42c-1.33,0-2.47.33-3.72.36a12.27,12.27,0,0,1-1.36-.13l-.19.33.58,0c.57,0,1.15,0,1.72,0,1.33,0,2.46-.33,3.71-.36s2.39.36,3.72.36c.58,0,1.15,0,1.72,0,1.33,0,2.47-.33,3.72-.36s2.4.36,3.73.36c.58,0,1.16,0,1.72,0,1.34,0,2.47-.33,3.72-.36s2.38.36,3.72.36c.58,0,1.15,0,1.73,0,1.33,0,2.46-.33,3.72-.36s2.39.36,3.72.36c.58,0,1.15,0,1.72,0,1.33,0,2.47-.33,3.72-.36s2.39.36,3.72.36c.58,0,1.15,0,1.72,0,.24,0,.46,0,.69,0l-.18-.3c-.41,0-.82.1-1.25.11-1.25,0-2.38-.36-3.71-.36-.58,0-1.16,0-1.73,0-1.33,0-2.47.33-3.72.36s-2.39-.36-3.72-.36c-.58,0-1.15,0-1.72,0-1.33,0-2.47.33-3.72.36s-2.39-.36-3.73-.36c-.57,0-1.15,0-1.72,0-1.34,0-2.47.33-3.72.36s-2.38-.36-3.72-.36c-.58,0-1.15,0-1.72,0-1.33,0-2.47.33-3.72.36s-2.39-.36-3.72-.36c-.58,0-1.16,0-1.73,0Z"/><path id="m-9" data-name="m" class="cls-83" d="M94.37,123.92c-1.33,0-2.47.33-3.72.37a12.27,12.27,0,0,1-1.36-.13l-.19.32a5.49,5.49,0,0,0,.58,0c.57,0,1.15,0,1.72,0,1.33,0,2.46-.33,3.71-.37s2.39.37,3.72.37c.58,0,1.15,0,1.72,0,1.33,0,2.47-.33,3.72-.37s2.4.37,3.73.37c.58,0,1.16,0,1.72,0,1.34,0,2.47-.33,3.72-.37s2.38.37,3.72.37c.58,0,1.15,0,1.73,0,1.33,0,2.46-.33,3.72-.37s2.39.37,3.72.37c.58,0,1.15,0,1.72,0,1.33,0,2.47-.33,3.72-.37s2.39.37,3.72.37c.58,0,1.15,0,1.72,0,.24,0,.46,0,.69,0l-.18-.31a10.18,10.18,0,0,1-1.25.12c-1.25,0-2.38-.37-3.71-.37-.58,0-1.16,0-1.73,0-1.33,0-2.47.33-3.72.37s-2.39-.37-3.72-.37c-.58,0-1.15,0-1.72,0-1.33,0-2.47.33-3.72.37s-2.39-.37-3.73-.37c-.57,0-1.15,0-1.72,0-1.34,0-2.47.33-3.72.37s-2.38-.37-3.72-.37c-.58,0-1.15,0-1.72,0-1.33,0-2.47.33-3.72.37s-2.39-.37-3.72-.37c-.58,0-1.16,0-1.73,0Z"/></g><path class="cls-64" d="M91.88,124l-.94,1.62A26.24,26.24,0,0,1,95,125c1.41,0,3.11.35,4.79.35a28.24,28.24,0,0,0,4.26-.57,45.81,45.81,0,0,1,4.58.21c1.21,0,3.06-.42,4.61-.58a43.29,43.29,0,0,1,4.85.14c1.88,0,2.17-.45,4.46-.5,2.45-.06,2.68.34,4.85.34a33,33,0,0,0,4.49-.44,24.91,24.91,0,0,1,3.2,0l-.71-1.26h0l-39,.85Z"/><path class="cls-4" d="M132.78,124s1,.06,1.48.11l1.14.1-.15-.19C135,124.1,133.55,124,132.78,124Z"/></g><path class="cls-5" d="M113.5,85.59,101.12,107,88.47,128.94h50.06L126.15,107.5Zm0,1.15,12.15,21.05,11.88,20.57H89.47l12.15-21Z"/></g></svg>