<svg id="Capa_1" data-name="Capa 1" xmlns="http://www.w3.org/2000/svg" viewBox="0 0 19.83 17.69"><defs><style>.cls-1{fill:#2a2a2a;}</style></defs><path class="cls-1" d="M12.08,17.69a.51.51,0,0,1-.33-.13l-8.94-8a.49.49,0,0,1-.24-.32L.49.62A.49.49,0,0,1,.6.17.47.47,0,0,1,1,0L9.78,1h0a.51.51,0,0,1,.32.1l.09.09,9,8.07a.48.48,0,0,1,0,.7l-6.78,7.53A.5.5,0,0,1,12.08,17.69ZM3.49,8.78,12,16.48l6.11-6.79L9.63,2l-8-.94ZM5.18,6a1.86,1.86,0,0,1-1.24-.48A1.85,1.85,0,0,1,3.8,2.92h0A1.85,1.85,0,0,1,7,4.06a1.8,1.8,0,0,1-.47,1.33A1.85,1.85,0,0,1,5.18,6ZM4.55,3.59a.85.85,0,0,0-.22.61.83.83,0,0,0,.28.59.86.86,0,0,0,1.2-.06A.83.83,0,0,0,6,4.11a.85.85,0,0,0-1.48-.52Zm4.29,7.94a1.31,1.31,0,0,1-.9-.35,1.34,1.34,0,0,1-.45-.93,1.37,1.37,0,0,1,.35-1h0a1.35,1.35,0,0,1,1.91-.1,1.35,1.35,0,0,1,.1,1.9A1.35,1.35,0,0,1,8.84,11.53ZM8.58,9.94a.41.41,0,0,0-.09.26.36.36,0,0,0,.37.33.38.38,0,0,0,.25-.11.37.37,0,0,0,0-.5A.36.36,0,0,0,8.58,9.94Zm5,.39a1.36,1.36,0,0,1-1-2.26h0a1.35,1.35,0,1,1,1,2.26ZM13.3,8.74a.36.36,0,0,0,0,.5.34.34,0,0,0,.49,0,.35.35,0,0,0,0-.49.36.36,0,0,0-.5,0ZM12,13.86a.5.5,0,0,0,.4-.58L11,5.7a.5.5,0,0,0-1,.18l1.36,7.58a.49.49,0,0,0,.49.41Z"/></svg>