<svg id="Capa_1" data-name="Capa 1" xmlns="http://www.w3.org/2000/svg" xmlns:xlink="http://www.w3.org/1999/xlink" viewBox="0 0 227 227"><defs><style>.cls-1,.cls-8{fill:none;}.cls-2{clip-path:url(#clip-path);}.cls-3{fill:#0038a8;}.cls-4,.cls-6{fill:#fff;}.cls-5{fill:#d52b1e;}.cls-10,.cls-11,.cls-12,.cls-13,.cls-14,.cls-15,.cls-16,.cls-17,.cls-18,.cls-19,.cls-20,.cls-6,.cls-7,.cls-8,.cls-9{stroke:#000;}.cls-6,.cls-8{stroke-miterlimit:10;}.cls-6{stroke-width:1.28px;}.cls-10,.cls-11,.cls-12,.cls-13,.cls-14,.cls-15,.cls-16,.cls-17,.cls-18,.cls-19,.cls-20,.cls-7{fill:#009b3a;}.cls-7{stroke-width:0.34px;}.cls-8{stroke-width:0.51px;}.cls-9{fill:#fedf00;}.cls-11,.cls-9{stroke-width:0.21px;}.cls-10{stroke-width:0.26px;}.cls-12{stroke-width:0.28px;}.cls-13{stroke-width:0.29px;}.cls-14{stroke-width:0.3px;}.cls-15{stroke-width:0.29px;}.cls-16{stroke-width:0.34px;}.cls-17{stroke-width:0.29px;}.cls-18{stroke-width:0.22px;}.cls-19{stroke-width:0.29px;}.cls-20{stroke-width:0.27px;}</style><clipPath id="clip-path"><circle class="cls-1" cx="113.5" cy="113.49" r="113.49"/></clipPath></defs><g class="cls-2"><path class="cls-3" d="M0-.9H227V227.9H0Z"/><path class="cls-4" d="M0-.9H227V151.63H0Z"/><path class="cls-5" d="M0-.9H227V75.37H0Z"/><path class="cls-6" d="M142.5,113.49a29,29,0,1,1-29-29A29,29,0,0,1,142.5,113.49Z"/><path class="cls-7" d="M127.52,109c-.7,0-.71.75-.71.75s0-.23,0,0,.11.89.63.94.73-.6.74-.91c0-.12,0-.79-.67-.81"/><path d="M95.31,125.1l-.25-.41a1.39,1.39,0,0,0-.2-.23.27.27,0,0,0-.19-.1.33.33,0,0,0-.22,0,.32.32,0,0,0-.17.23.65.65,0,0,0,.13.42l.25.42Zm2.45-.14-3.15,1.88-1-1.62a2.91,2.91,0,0,1-.33-.74.81.81,0,0,1,.06-.55,1,1,0,0,1,.42-.46,1.17,1.17,0,0,1,.52-.16,1.09,1.09,0,0,1,.49.13,1.45,1.45,0,0,1,.33.27,1.6,1.6,0,0,1,0-.33s0-.13.08-.25a1.26,1.26,0,0,1,.11-.25l.64-1,.65,1.1-.65,1.1a.68.68,0,0,0-.14.32.47.47,0,0,0,.07.28l.05.09,1.28-.76Zm-5.55-2.57-1-2.88.75-.25.6,1.81.56-.19-.57-1.67.71-.24.56,1.67.69-.22-.62-1.86.79-.27,1,2.94Zm.1-5.86,0-.27a.73.73,0,0,0-.16-.44.4.4,0,0,0-.31-.1.45.45,0,0,0-.28.15.57.57,0,0,0-.06.44l0,.32Zm-1.43,1.32L90.66,116a1.4,1.4,0,0,1,.18-1,1.14,1.14,0,0,1,.8-.4,1.09,1.09,0,0,1,.9.23,1.45,1.45,0,0,1,.43,1l.07.61,1.35-.16.13,1.14Zm-.13-7.16.12-1.12,2.18.23a1.68,1.68,0,0,1,.59.17,1.14,1.14,0,0,1,.47.37,1.27,1.27,0,0,1,.26.48,2.27,2.27,0,0,1,0,.8,5.4,5.4,0,0,1-.11.58,1.4,1.4,0,0,1-.2.51,1.33,1.33,0,0,1-.36.35,1,1,0,0,1-.44.19,2,2,0,0,1-.63,0l-2.17-.23.12-1.12,2.22.24a.66.66,0,0,0,.49-.12.73.73,0,0,0,.1-.91.69.69,0,0,0-.45-.22Zm3.65-3.08.2-.54a.66.66,0,0,0,0-.43.34.34,0,0,0-.22-.2.33.33,0,0,0-.29,0,.64.64,0,0,0-.23.36l-.19.54ZM93,107.13l.17-.46a.58.58,0,0,0,0-.38.3.3,0,0,0-.21-.18.32.32,0,0,0-.27,0,.54.54,0,0,0-.2.31l-.18.47Zm-1.73.61.7-2a1.2,1.2,0,0,1,.52-.68.84.84,0,0,1,.71,0,.91.91,0,0,1,.46.38,1,1,0,0,1,.1.45,1,1,0,0,1,.49-.44,1,1,0,0,1,.62,0,1,1,0,0,1,.44.29,1.15,1.15,0,0,1,.22.46,1.82,1.82,0,0,1,0,.44c-.06.26-.1.43-.12.5L94.77,109Zm1.87-4.7.59-1,2.36,1.44.92-1.51.77.47-1.5,2.47Zm2.42-3.61.73-.86,2.8,2.36-.73.87Zm5.08-2,1-.4a1.91,1.91,0,0,1,.2.74,1.38,1.38,0,0,1-.14.66,2.12,2.12,0,0,1-.53.63,2.43,2.43,0,0,1-.87.49,1.62,1.62,0,0,1-.89,0,2.2,2.2,0,0,1-.93-.68A2,2,0,0,1,98,97.46a2.2,2.2,0,0,1,1.76-1.73,1.63,1.63,0,0,1,1,.28l-.63.81a.63.63,0,0,0-.24-.11.61.61,0,0,0-.3,0,.67.67,0,0,0-.28.14.67.67,0,0,0-.26.62,1.32,1.32,0,0,0,.34.65,1.34,1.34,0,0,0,.68.52.59.59,0,0,0,.54-.15.6.6,0,0,0,.26-.45,1.08,1.08,0,0,0-.15-.57m3.71-2.2-1-1,.25,1.36Zm.57.6-1.14.59.11.62-1,.52-.44-3.89,1.11-.56,2.89,2.64-1.06.54ZM109.42,92l.28,2,.28,0a1,1,0,0,0,.49-.15.49.49,0,0,0,.19-.31,1.66,1.66,0,0,0,0-.64,1.23,1.23,0,0,0-.3-.76.83.83,0,0,0-.66-.12Zm-1.23-.66,1.66-.24a1.94,1.94,0,0,1,.81,0,1.29,1.29,0,0,1,.56.31,1.58,1.58,0,0,1,.37.54,2.36,2.36,0,0,1,.19.69,2.33,2.33,0,0,1,0,.92,1.48,1.48,0,0,1-.29.59,1.14,1.14,0,0,1-.47.36,2.88,2.88,0,0,1-.65.2L108.7,95Zm5-.71,3,.22,0,.78-1.9-.14,0,.58,1.76.13-.07.74-1.74-.12-.06.71,2,.15-.06.83-3.08-.23Zm4.66.42,1.09.31-.75,2.66,1.7.48-.25.87-2.79-.79ZM124,95.16l.24.15a.74.74,0,0,0,.44.16.33.33,0,0,0,.27-.17A.41.41,0,0,0,125,95q0-.15-.3-.33l-.27-.18Zm-.09-1.93,1.58,1a1.26,1.26,0,0,1,.6.75,1.07,1.07,0,0,1-.2.87,1.12,1.12,0,0,1-.75.53,1.45,1.45,0,0,1-1-.29l-.52-.35-.74,1.14-1-.63Zm4,5.59.64-1.22-1.21.65Zm-.39.73-.92-.91-.55.31-.82-.81,1.69-.78,1.87-.87.87.87-1.59,3.58-.84-.83Zm3.41,1.59.26.41a1.05,1.05,0,0,0,.2.22.25.25,0,0,0,.2.09.31.31,0,0,0,.21,0,.36.36,0,0,0,.17-.24.71.71,0,0,0-.15-.41l-.26-.42Zm-2.45.22,3.09-2,1,1.59a3.52,3.52,0,0,1,.37.72,1,1,0,0,1,0,.56,1,1,0,0,1-.41.47.94.94,0,0,1-.51.17,1.09,1.09,0,0,1-.5-.1,2.78,2.78,0,0,1-.34-.26.83.83,0,0,1,.05.32,1.14,1.14,0,0,1-.06.25,2,2,0,0,1-.11.26l-.6,1-.69-1.09.62-1.1a.83.83,0,0,0,.12-.33.4.4,0,0,0-.07-.28l-.05-.09-1.26.81Zm4.33,4.93,1.1-.83-1.38.08Zm-.67.49-.44-1.21-.62,0-.4-1.08,3.91,0,.43,1.16-3,2.55-.4-1.12Zm1.76,3.9.75-.1.22,1.75-1.55.19a3.75,3.75,0,0,1-.57-.83,2.68,2.68,0,0,1-.24-.89,2.07,2.07,0,0,1,.09-1.08,1.56,1.56,0,0,1,.58-.72,2.25,2.25,0,0,1,1-.35,2.09,2.09,0,0,1,1.07.12,1.59,1.59,0,0,1,.76.63,2.23,2.23,0,0,1,.29,1,2.52,2.52,0,0,1,0,.91,1.12,1.12,0,0,1-.28.54,1.45,1.45,0,0,1-.54.37l-.33-1.06a.64.64,0,0,0,.29-.27.81.81,0,0,0,.06-.42.78.78,0,0,0-.33-.56,1.35,1.35,0,0,0-.85-.12,1.27,1.27,0,0,0-.81.33.8.8,0,0,0-.17.65,1.2,1.2,0,0,0,.09.35,2.55,2.55,0,0,0,.24.38l.34,0Zm2.32,5.5-.13,1.12-2.17-.24a2.06,2.06,0,0,1-.6-.17,1.43,1.43,0,0,1-.47-.38,1.3,1.3,0,0,1-.25-.48,2.58,2.58,0,0,1,0-.8c0-.18.06-.37.1-.58a1.51,1.51,0,0,1,.22-.51,1.45,1.45,0,0,1,.35-.35,1.32,1.32,0,0,1,.45-.19,2,2,0,0,1,.63,0l2.17.25-.13,1.12-2.22-.26a.66.66,0,0,0-.49.12.61.61,0,0,0-.21.43.58.58,0,0,0,.11.48.66.66,0,0,0,.44.22Zm-3.38,4.17,1.38.05-1.11-.81Zm-.82,0,.42-1.22-.51-.36.38-1.1,3,2.51-.41,1.17-3.91.09.39-1.12Zm2,3.37-.64,1.09H132l.69,1.27-.64,1.07-1.11-2.31-1.32-.78.58-1,1.32.79Z"/><path class="cls-8" d="M137.77,113.5A24.28,24.28,0,1,1,113.5,89.23a24.28,24.28,0,0,1,24.27,24.27Z"/><path class="cls-8" d="M131.56,113.41a18.07,18.07,0,1,1-18.07-18.06,18.06,18.06,0,0,1,18.07,18.06Z"/><path class="cls-9" d="M113.5,106.92l1.51,4.34,4.6.1L116,114.15l1.33,4.4-3.78-2.62-3.78,2.62,1.32-4.4-3.67-2.79,4.6-.1Z"/><path class="cls-10" d="M121.84,125.89a3.49,3.49,0,0,1-.93.22c-.17,0-.82,0-1.09,0s-.44,0-.59,0c-1.33-.15,2.15-.13,2.61-.31m-3.48-1c.09-.16.52-1.12.68-1.4s.52-1,.73-1.29.55-.63.65-.42a7.27,7.27,0,0,0-1.66,2.55c-.05.09-.29.51-.38.63s-.06.31-.2.33,0,0,0,0,.13-.28.22-.44Zm5,.74a6.71,6.71,0,0,1-1-.22,4.9,4.9,0,0,0-1.52-.21,4.23,4.23,0,0,0-1.43.33,3.49,3.49,0,0,1-1,.17s-.32,0-.17,0a7.48,7.48,0,0,0,.62-.45l.32-.43c.09,0,1.67-2.1,1.5-2.66.24-.41.53-1.15.42-1.28a4.58,4.58,0,0,0-1.49.62,2.61,2.61,0,0,0-.61,1.11c-.08.31-.54.57-.54.57a3.24,3.24,0,0,0-.76,1.8c-.13.68-1.81,1-1.81,1s-.47.18,0,.31c.07,0,.25.33.4.34s1.25-.43,1.41-.39a10.27,10.27,0,0,1,1,.29,1.58,1.58,0,0,0,1,.1,2,2,0,0,1,1,0,1.7,1.7,0,0,0,.82,0,6,6,0,0,0,.75-.36l.92-.41c.34-.16.13-.23.13-.23"/><path class="cls-11" d="M118.8,127.62s-2.31-1.2-2.43-1.23-1.05-.55-1.5-.69a3.2,3.2,0,0,0-.92-.12,7.69,7.69,0,0,0-1,.19l.57.24s.54.26.8.41.4.44.4.44l2.09.92.42.3s.39-.53,1.57-.46"/><path class="cls-12" d="M121.13,122.83c.72-.65,1.08-1.57,1.68-2.08.09.07.09.18,0,.39s-.27.27-.33.37a7.21,7.21,0,0,0-.59.65,1.25,1.25,0,0,1-.52.59c-.31.19-.21.49-.24.62s-.51.48-.74.92c-.05.44-.07.26-.34.41a20.87,20.87,0,0,0,1.1-1.87m-1.64,2c0,.1-1.48.91-1,.79s1.77-.6,2.15-.76a4.16,4.16,0,0,0,1.08-1,12.88,12.88,0,0,0,1.63-1.79c.19-.42.35-1-.39-2.29a1.54,1.54,0,0,1-.39.49,6.72,6.72,0,0,1-.67.52l-.48.45s-1.67,3.08-1.9,3.56"/><path class="cls-10" d="M125.32,123.79l-1-.08c-.09,0-.59-.07-1.32-.07a1.4,1.4,0,0,0-1.19.46c-.2.22-.77.75-.77.75l.31,0a1.92,1.92,0,0,1,1.53-.38,3.38,3.38,0,0,0,1.26-.25c.74-.26.7,0,.62,0a3.85,3.85,0,0,1-1.11.23c-.55,0-1,.13-1.26.13s-1.83.45-1.83.45,1.75.1,1.93.16a1,1,0,0,0,.73-.08,6,6,0,0,1,1.25-.43,2.34,2.34,0,0,0,.6-.24,1.11,1.11,0,0,0,.34-.4c.17-.31-.09-.23-.09-.23m.85-4.78a3.6,3.6,0,0,1,.68-1.17,2.34,2.34,0,0,1,.65-.3c.07,0,.57-.05,0,.13a1.29,1.29,0,0,0-.77.48,3.74,3.74,0,0,1-.82,1.53,3,3,0,0,0-.49.72l-.32.11a3.77,3.77,0,0,0,1.12-1.5Zm2.84-.35a1.93,1.93,0,0,0-.45.21,2.66,2.66,0,0,0-1.38,1.08,2.91,2.91,0,0,1-1.19.68,7.37,7.37,0,0,0-1.3.79s-.22,0-.18.16.21,0,.21,0a7.62,7.62,0,0,0,2.11-.59,2.65,2.65,0,0,0,1-1c.17-.25.36-.73.37-.42,0,.82-1.25,1.62-1.81,1.86a5.67,5.67,0,0,1-1.21.27c-.51.09-.83.06-.79,0s.11-.2.25-.36.83-.39,1.27-.6a3.91,3.91,0,0,0,1.25-.86,1.47,1.47,0,0,0,.4-.65,4.72,4.72,0,0,1,.38-1.23c.63-.78.72-1,.75-1.37,0-.08-.33.18-.5.28a3.65,3.65,0,0,1-1.16.38c-.7.17-.68.63-.79.84a1.8,1.8,0,0,1-.46.51,2.59,2.59,0,0,0-.59.84c-.09.2-.26.35-.39.33a6.67,6.67,0,0,1,.35-1.77,3,3,0,0,0,.12-.89c0-.15,0-.56-.27-.61s-.28-.41-.28-.41c-.65.56-.29,1.55-.22,2.14a7.52,7.52,0,0,1-.13,1.66c.63.27.13,1-.06,1.28s-.6.3-.77.52-1.5,2.06-1.5,2.06l1.63-.47s.16,0-.09-.15.08-.87.29-1a1,1,0,0,1,1-.08,3.61,3.61,0,0,0,1.69-.26,3.77,3.77,0,0,0,1.48-1.18,9.36,9.36,0,0,0,.8-1.28c.14-.23.39-.67.23-.62"/><path class="cls-13" d="M124.37,123.07c.13,0,.14-.08.37-.33a.39.39,0,0,0-.32-.65c-.17,0-.35,0-.69.42s.16.62.34.64a.84.84,0,0,0,.3-.08"/><path class="cls-14" d="M123.52,120.21c-.21.37-.33.78-.16.91a.73.73,0,0,0,.32.15,1.08,1.08,0,0,0,.68-.48c.21-.3.37-.64,0-.84a.55.55,0,0,0-.8.26"/><path class="cls-10" d="M124.76,115.78s0,0-.1-.2a5.35,5.35,0,0,1-.51-.65,1.22,1.22,0,0,0-.6.94,5.73,5.73,0,0,1,0,1.11,3.49,3.49,0,0,1-.27.9,1.72,1.72,0,0,0,.08,1.25c0,.17.23.73.23.73a2.2,2.2,0,0,1,.24-.13,2.93,2.93,0,0,1,.3,0,2.4,2.4,0,0,0,.29-.77,6,6,0,0,0-.13-1.06,3,3,0,0,1,0-1.4,1.31,1.31,0,0,1,.5-.72"/><path class="cls-15" d="M125.44,116.54a.65.65,0,0,0,.38-.29,1,1,0,0,0,.12-.58.52.52,0,0,0-.93-.15c-.48,1,.42,1,.42,1"/><path class="cls-16" d="M126.78,115.13c-.59,0-.88,1.1-.88,1.1a1,1,0,0,1-.41.46c-.33.21-.14.51-.14,1a5.69,5.69,0,0,1-.36,1.47l-.14.31s0,.24.23-.19c.36-.73.76-.55.91-1.33.1-.58,1.06-.77,1.06-.77l-.27,0c-1-.47.06-1.64.23-1.85s.36-.2-.23-.18"/><path class="cls-17" d="M126.61,116.39c-.27.58.5.61.68.51a1.83,1.83,0,0,0,.24-.23c.31-.45,0-.76-.14-.8s-.49-.09-.78.52"/><path class="cls-10" d="M125.15,114.14c.2.38.77,1.43.9,1.36s0-.25,0-.25a3.76,3.76,0,0,0-.11-.63,3.9,3.9,0,0,0-.25-1.07,5.81,5.81,0,0,1-.76-1.07,3.86,3.86,0,0,1,0-1.4c0-.1.07,0,0-.13a6.21,6.21,0,0,0-.8-.49,4.77,4.77,0,0,1,0,.78c0,.12,0,.26-.06.47a2.61,2.61,0,0,0,.4,1c.34.67.5,1.08.68,1.4m4.28-5a4.29,4.29,0,0,1-.28.42c-.08.08-1.24,1.08-1.3,1.12s-.67.24-1.22,1.73a6.17,6.17,0,0,0-.31,2.88l.27,0,0-.14s.09-.5.16-.87a4.45,4.45,0,0,1,.77-1.27,5.11,5.11,0,0,0,.47-.91,13.83,13.83,0,0,1,.77-1.62c0,.52-2,3.72-2.18,4.81l.59-.09a14.75,14.75,0,0,0,1.49-1.9,5,5,0,0,0,.67-1.9c.08-.4.06-2.22.06-2.22"/><path class="cls-10" d="M125.48,109.49a2,2,0,0,0-.53-.36s.07.55.07.88,0,.89,0,1.18a2.54,2.54,0,0,0,0,1.27,8.84,8.84,0,0,0,.63,1,13.76,13.76,0,0,1,.45,1.81,23.78,23.78,0,0,1,0-2.63,5.72,5.72,0,0,0,0-1.9,3.13,3.13,0,0,0-.64-1.26m1.37-2a3.33,3.33,0,0,0,.39-1.09,6.19,6.19,0,0,0,0-.88c0-.17-.07-.48,0-.5s0,.1,0,.36c0,.09,0,.35,0,.68a3,3,0,0,1-.15.84c-.1.31,0,.66-.07.75s-.25.48-.25.48a1.62,1.62,0,0,0-.09.58c0,.28,0,.59,0,.59a.6.6,0,0,1,.42-.28s.07-.48.07-.63a11.23,11.23,0,0,1,.28-1.41,4,4,0,0,0,0-2.07,9,9,0,0,1-.1-1A2,2,0,0,0,127,105c0,.25.06,1,0,1.68a17.15,17.15,0,0,1-.46,2.16"/><path class="cls-10" d="M126.85,107.49s0,0,0,0a.11.11,0,0,0,0,0"/><path class="cls-10" d="M125.74,103.22c.15,0,.15.16.12.29a3.57,3.57,0,0,0,0,.42,4.31,4.31,0,0,0,.11.59,1,1,0,0,1,.11.62c0,.24-.27.52-.18.92a3.05,3.05,0,0,0,.27.61,2.77,2.77,0,0,1,0,.69.71.71,0,0,0,.15.41s-.17.32-.23-.08a3.07,3.07,0,0,0-.17-.85,1.86,1.86,0,0,1,0-1.4A1.2,1.2,0,0,0,126,105a7.28,7.28,0,0,0-.15-.76c0-.17,0-.52,0-.65m-.78,1.88a3.18,3.18,0,0,0,.4,1,6,6,0,0,1,.32.79,2.25,2.25,0,0,1,.07.38s0,.39,0,.39v.15s-.79-.46-1.14-.71-.74-.59-1-.8a2.91,2.91,0,0,1-1-1.69l-.31-.28a2.67,2.67,0,0,0,.89,2.36,5.46,5.46,0,0,0,1.43.9c.76.35.66.67,1,1.34a9.78,9.78,0,0,1,.54,1.25c0,.2-.09,3.07-.09,3.07l0,.26a14.56,14.56,0,0,1,1-3s-.66-.1-.61-1.14l-.12-.69a2.71,2.71,0,0,1,.12-1.33,4.86,4.86,0,0,0,.19-1.74c-.06-.49-.08-.63-.14-1.1a16.53,16.53,0,0,0-.41-1.87,5.23,5.23,0,0,0-.25-.71c0-.1-.1-.43-.21-.44s-.15.43-.15.43-.14.47-.17.6a7.54,7.54,0,0,0-.4,1.56c0,.15,0,.57,0,.63a1.53,1.53,0,0,0,0,.38"/><path class="cls-10" d="M125.61,109.09a2.2,2.2,0,0,0-.23-.39,4.31,4.31,0,0,0-1.46-1c-.9-.44-1.14-1.18-1.6-1.48a1.88,1.88,0,0,0-.62-.22,8.11,8.11,0,0,1,.5.74,2.07,2.07,0,0,0,.65.87,3.3,3.3,0,0,0,1.48.74,5.69,5.69,0,0,1,1.28.7m-2.84-4.26a5.15,5.15,0,0,0,.75,1.48,7,7,0,0,0,2.18,1.61,6.41,6.41,0,0,0-.56-1.56,4.8,4.8,0,0,0-2.37-1.57s0,0,0,0m2.06.44c.39-.84-.77-1.65-1.09-2.24.12-.1.26.15.39.32l.72,1,.17-.78-1.37-1.24c0,.18-.45.33-.45.33-.2,1.15,1.63,2.63,1.63,2.63"/><path class="cls-10" d="M122.44,103.31a1.35,1.35,0,0,1-.45.15l.19.49.1.13s.43.63.69.7a8,8,0,0,1,.89.28,7.14,7.14,0,0,1,1.3.92,14.26,14.26,0,0,1-1.86-2.66l-.17-.65-.49,0s.13.46-.2.61"/><path class="cls-10" d="M117.4,102.34a4.75,4.75,0,0,0,.73.54,6.64,6.64,0,0,0,1.8.81l.95.12c0-.35.42-.38.42-.38l-1.14-.13a3.08,3.08,0,0,1-2.17-1.06,5.63,5.63,0,0,0,2.63,1.1c3.5-.34-1.05-.43-1.44-.68a3.82,3.82,0,0,1-.78-.69l-1,0s-.5,0,0,.41"/><path class="cls-10" d="M121.51,104.33c.23,0,.39-.06.44-.31a.44.44,0,0,0-.39-.55.53.53,0,0,0-.65.28c-.14.33.38.55.38.55a.54.54,0,0,0,.22,0m.39-2c-.29,0-.39.24-.33.71s.8.27.8.27l.14-.07s.1-.08,0-.46-.35-.45-.65-.45m1.19.33h0"/><path class="cls-10" d="M123.08,102.66l.11,0c.15-.05.3-.42.3-.42a.5.5,0,0,0-.28-.61c-.59-.12-.6.4-.6.4-.16.68.38.67.47.67m-2.63-2.32a1.56,1.56,0,0,0,.4.6,7.85,7.85,0,0,1,.6.67c.14.19.6,1,.6,1a.15.15,0,0,0,.11-.08,4.61,4.61,0,0,0-.34-1.25,3.2,3.2,0,0,0-.61-.8s-.24-.28-.45-.54a21,21,0,0,1,1.78,2.7s0-.71-.07-1.1A3.38,3.38,0,0,0,122,100a1.82,1.82,0,0,0-.88-.7c-.3-.11-.65-.26-1-.38s-.09.24,0,.54a3.44,3.44,0,0,1,.36.91"/><path class="cls-10" d="M119,102.17a2.11,2.11,0,0,0,1.36.68c.81.12.87.07.87.07s.42-.2.21-.38a8,8,0,0,1-2.88-1.84s.1-.1.51.32a5.13,5.13,0,0,0,.54.47,9,9,0,0,0,1.05.62,4.26,4.26,0,0,0,.8.26s.09-.17.16-.19,0-.29-.54-.69a4.2,4.2,0,0,1-.73-.79s-.59-.13-1.23-.24c-.47-.07-1.37-.77-1.35-.58a3.09,3.09,0,0,0,.37,1.18,4.68,4.68,0,0,0,.86,1.11"/><path class="cls-11" d="M112.32,126.3c-.34.1-3,1.08-3,1.08l-.73.3a2.5,2.5,0,0,1,1.79.28l2.92-1.35a.19.19,0,0,0-.08-.1,1.39,1.39,0,0,0-.93-.21"/><path class="cls-18" d="M108.51,127.77s0,.08,0,.1.11.12.77.2a1.76,1.76,0,0,0,1.22-.18c.13-.15-1.66-.42-2-.12"/><path class="cls-19" d="M104.31,118.33l-.12-.82a13.17,13.17,0,0,0-.4-2.66c-.05-.09,0-.32-.19-.33s-.3.7-.34,1.35c-.5,3.3,2.13,5.81,2.13,5.81Z"/><path class="cls-20" d="M117.31,128.09s-.27-.06-.1-.27a1.4,1.4,0,0,1,.77-.32,2.59,2.59,0,0,1,.58.08c.21,0,.5.24.41.37a1,1,0,0,1-.75.29,2.45,2.45,0,0,1-.65-.05l-.26-.1"/><path class="cls-11" d="M114.47,126.52s-.91-.41-1.76-.83a8.21,8.21,0,0,1-3.42-2.71,13.16,13.16,0,0,0-2.46-2.85c-.25-.19-.29-.26-.38-.13s0,.22,0,.34c.24.39.84,1.13,1.05,1.53.37.71,1.14,1.49,1.13,1.95,0,.06-.22,0-.22,0a4.43,4.43,0,0,1-2.51-2.77,9.34,9.34,0,0,1-.43-2.81,8.38,8.38,0,0,0-.94-3.07s-.42-.69-.47-.55a2.81,2.81,0,0,0,.06.89l.08.8s-.06,1.79-.06,1.9-.45,1.22,1.46,3.09c0,0,0,.32-.23,0a6.11,6.11,0,0,1-2-3,8.05,8.05,0,0,1-.17-4.17,6.88,6.88,0,0,0,.63-3.63c0-.14-.07-.57-.16-.45s-.21.75-.31,1-.37.66-.44.89a3.42,3.42,0,0,0-.67,2.1,6.94,6.94,0,0,0,.39,1.93c0,.16.18.58.09.63s-.34-.51-.34-.51-1.21-2.38-.47-4.3a12.82,12.82,0,0,1,2.65-3.75s1.54-1.27,1.85-1.57c.12-.11.09-.2,0-.18a5.85,5.85,0,0,0-4.38,4.23s0,.15-.13.11,0-.21,0-.21a6.75,6.75,0,0,1,2.48-3.63c2-1.24,1.76-1.06,2.42-1.45a3.78,3.78,0,0,0,1.25-1.37,2,2,0,0,0,.21-.61c0-.08-.11,0-.15.15a3.23,3.23,0,0,1-1.41,1.17c-.85.29-1.54-.13-2.39.81a12.79,12.79,0,0,0-1.53,2.26s-.22.34-.27.33,0-.36,0-.36,1.13-2.42,2-2.91a17,17,0,0,0,2.25-1.37,26.17,26.17,0,0,0,2.11-2.12,10.58,10.58,0,0,0,.8-.88c.08-.1.26-.25.23-.28s-.64.2-.64.2a9.46,9.46,0,0,0-4.88,3.67,5.08,5.08,0,0,1-.41.51,1.57,1.57,0,0,0-.3.55c-.12-.1,1.06-1.58,1.06-1.58l.21-1a8.16,8.16,0,0,1,1.08-2.45l.59-.62c.14-.16-.28.13-.21.07s-2.81,2-2.81,4.56a2.75,2.75,0,0,1-.67,1.44,4.4,4.4,0,0,0-.81,2c-.09.41-.17.82-.26,1.23,0,0,0,.36-.09.34s-.08-.33-.08-.33a22,22,0,0,1,.49-2.48l.33-1a6.17,6.17,0,0,1,.2-2.21,14.5,14.5,0,0,1,1-1.8,5,5,0,0,0,.45-1.46c0-.1-.07,0-.19.26a6.34,6.34,0,0,1-1.08,1.54s-1.3.94-1.77,3.75c0,0,0,1-.18,2.69a11.05,11.05,0,0,0,.12,3c.09.41.25.41.15.46s0,0-.11-.3a4.17,4.17,0,0,1-.32-1.76c0-1.46.13-2.64.13-2.64s.1-2.37-.89-3.44c0,0,.18.48.28,1a5.75,5.75,0,0,1-.17,1.93,8.48,8.48,0,0,0-.48,3.39,16.69,16.69,0,0,0,1.26,3.7s.45.52,0,0A18.89,18.89,0,0,1,100,111a7.2,7.2,0,0,0-1.17-1.85,9.17,9.17,0,0,0-1-.72s-.42-.32-.1.1.59.93.74,1.19a13.49,13.49,0,0,1,.89,1.68c.25.56.85,2.22.85,2.22l.38,1a4.49,4.49,0,0,1,1,.74,7.16,7.16,0,0,1,1.37,2.32,4.51,4.51,0,0,0,.66,1.08s-.09.18-.49-.5a11.68,11.68,0,0,0-1.7-3,9.54,9.54,0,0,0-2.61-1.55s1.22,2.13,1.53,2.52c.51.61,1.26,1.46,1.45,1.69s1.35,1.65,1.52,1.88a6,6,0,0,0,.58.66c.31.32,1.21.91,1.28,1s0,0,0,0c-.4-.24-.87-.62-1.36-.94a10.69,10.69,0,0,1-3.67-2.89c-.3-.52-.45-.73-.55-.68s.86,3.45,3,4.52c0,0,2.31,1,2.82,1.33.28.17.84.42,1.11.63s-.14.11-.16.11a10.61,10.61,0,0,1-4.06-.88s-.46-.33-.08.13a5.34,5.34,0,0,0,2,1.72,12.1,12.1,0,0,0,3.31.8,27.94,27.94,0,0,1,3,.17c.39.13,1,.55,1.43.67s1.37.51,1.37.51a4.57,4.57,0,0,0,.48.23c.19.07,1,.07,1-.08s-.22-.33-.22-.33"/><path class="cls-10" d="M127.86,109c.23.08.34.78.34.78s0-.4,0-.59-.1-.94-.1-.94l-.21.15a1.51,1.51,0,0,0-.38.54.87.87,0,0,1,.37.06"/></g></svg>