<svg id="Capa_1" data-name="Capa 1" xmlns="http://www.w3.org/2000/svg" viewBox="0 0 542.61 482.95"><defs><style>.cls-1{fill:#e1e1e1;}.cls-2{fill:#e30613;}.cls-3{opacity:0.15;}.cls-4{fill:#fff;}.cls-5{fill:#2b454e;}.cls-6{fill:#1a2e35;}.cls-7{fill:#375a64;}.cls-8{fill:#b06867;}.cls-9{fill:#994b4a;}.cls-10{opacity:0.45;}.cls-11{opacity:0.2;}.cls-12{fill:#ff9090;}.cls-13{fill:#fafafa;}.cls-14{fill:#ffaaa8;}</style></defs><ellipse id="Shadow" class="cls-1" cx="202.96" cy="420.28" rx="78.65" ry="45.41"/><ellipse id="Shadow-2" data-name="Shadow" class="cls-1" cx="358.24" cy="349.93" rx="112.21" ry="55.84" transform="translate(-123.17 211.98) rotate(-28.34)"/><g id="Plants"><path class="cls-2" d="M439,334.59c10.91-13,28-21.48,47.21-26.48,19-4.93,22.37-16.6,9.79-20.39-14.25-4.29-32,3.6-43.5,14.57C432.54,321.41,430,336,430,336Z"/><path class="cls-3" d="M439,334.59c10.91-13,28-21.48,47.21-26.48,19-4.93,22.37-16.6,9.79-20.39-14.25-4.29-32,3.6-43.5,14.57C432.54,321.41,430,336,430,336Z"/><path class="cls-4" d="M433.42,333.83a.54.54,0,0,1-.25-.06.55.55,0,0,1-.25-.74c16.19-33.22,52-41.39,60.72-40.77a.56.56,0,0,1,.51.59.55.55,0,0,1-.59.51c-8.51-.65-43.71,7.45-59.65,40.15A.54.54,0,0,1,433.42,333.83Z"/><path class="cls-2" d="M430,338a3,3,0,0,0,4.57,2.59c10.14-5.91,24.94-9.17,48.88-2.35,12.73,3.62,19,1.2,21.68-4,3-5.76-3.34-11.32-10.52-14-24.51-8.95-46.62-2.84-64.61,15Z"/><path class="cls-4" d="M431.43,338.52a.56.56,0,0,1-.41-.19.54.54,0,0,1,0-.78c21.16-18.91,53.93-15.23,66.34-7.85a.55.55,0,0,1,.19.76.56.56,0,0,1-.76.19c-12.15-7.23-44.28-10.82-65,7.73A.59.59,0,0,1,431.43,338.52Z"/></g><g id="Plants-2" data-name="Plants"><path class="cls-2" d="M193.3,382.13c-9.3-14.2-25.27-24.63-43.76-31.86-18.25-7.13-20.25-19.12-7.32-21.4,14.66-2.58,31.39,7.35,41.49,19.6,17.59,21.34,18.35,36.17,18.35,36.17Z"/><path class="cls-3" d="M193.3,382.13c-9.3-14.2-25.27-24.63-43.76-31.86-18.25-7.13-20.25-19.12-7.32-21.4,14.66-2.58,31.39,7.35,41.49,19.6,17.59,21.34,18.35,36.17,18.35,36.17Z"/><path class="cls-4" d="M199,382a.54.54,0,0,0,.25,0,.55.55,0,0,0,.34-.7c-12.16-34.89-46.76-47.23-55.49-47.65a.55.55,0,0,0-.57.53.57.57,0,0,0,.53.58c8.52.35,42.52,12.55,54.49,46.9A.54.54,0,0,0,199,382Z"/><path class="cls-2" d="M202.14,384a4.61,4.61,0,0,1-7.15,3.28c-9.38-6.29-23.37-10.37-46.28-6.7-13.06,2.1-19-1.05-21.06-6.51-2.28-6.07,4.65-10.85,12.1-12.61,25.39-6,46.63,2.68,62.39,22.54Z"/><path class="cls-4" d="M200.38,386.93a.53.53,0,0,0,.43-.13.55.55,0,0,0,.05-.78c-18.77-21.28-51.76-21.49-65-15.63a.57.57,0,0,0-.28.73.56.56,0,0,0,.74.28c12.92-5.74,45.24-5.52,63.66,15.35A.54.54,0,0,0,200.38,386.93Z"/></g><g id="Check_Mark" data-name="Check Mark"><g id="Circle"><path class="cls-5" d="M449,129.14h0l-.18-.09h0l-42.21-24.3,0,0-.25-.13h0c-19.72-9.94-46-7-74.33,11.34-56.85,36.76-100.17,121.37-96.75,189,1.7,33.71,14.69,56.82,34.33,67h0l.17.09h0l42.22,24.31h0l.21.11h0c19.72,10,46.05,7,74.38-11.31,56.84-36.76,100.16-121.37,96.75-189C481.6,162.41,468.61,139.3,449,129.14Z"/><path class="cls-6" d="M310.5,395.54,269.74,372h0l-.19-.11c-19.64-10.19-32.62-33.3-34.32-66.95-1.52-30.16,6.27-63.67,20.37-94.8l.28-.68,41.94,25c-14.13,31.13-21.89,64.65-20.37,94.8C279.08,362.21,291.56,385,310.5,395.54Z"/><path class="cls-7" d="M386.55,385.1c56.84-36.76,100.16-121.37,96.75-189S431,103.49,374.19,140.25,274,261.62,277.43,329.24,329.7,421.86,386.55,385.1Z"/></g><path id="Shadow-3" data-name="Shadow" class="cls-5" d="M434.69,123.9,363.44,270.65,348.1,254a25.21,25.21,0,0,0-37,34.21L351.47,332a25,25,0,0,0,17.15,8.06c.47,0,.93,0,1.4,0a26.69,26.69,0,0,0,3.65-.26,25.17,25.17,0,0,0,19-13.93L474.37,157.6C466,138.94,452.07,127.33,434.69,123.9Z"/><path class="cls-2" d="M492.55,75.55c-.44-.25-.9-.49-1.37-.72A21.92,21.92,0,0,0,461.93,85L371.26,271.7l-5.15-5.58A21.33,21.33,0,0,0,361,262l-16.05-9.27a21.89,21.89,0,0,0-27,33.79l40.4,43.77a22,22,0,0,0,5.21,4.15c2.64,1.5,14.09,8.14,16,9.22a21.72,21.72,0,0,0,9.79,2.91,22.33,22.33,0,0,0,4.38-.19,21.86,21.86,0,0,0,16.49-12.09L517.38,113.37a21.92,21.92,0,0,0-8.73-28.52Z"/><path class="cls-3" d="M492.55,75.55c-.44-.25-.9-.49-1.37-.72A21.92,21.92,0,0,0,461.93,85L371.26,271.7l-5.15-5.58A21.33,21.33,0,0,0,361,262l-16.05-9.27a21.89,21.89,0,0,0-27,33.79l40.4,43.77a22,22,0,0,0,5.21,4.15c2.64,1.5,14.09,8.14,16,9.22a21.72,21.72,0,0,0,9.79,2.91,22.33,22.33,0,0,0,4.38-.19,21.86,21.86,0,0,0,16.49-12.09L517.38,113.37a21.92,21.92,0,0,0-8.73-28.52Z"/><path class="cls-3" d="M379.45,343.67c-1.86-1.08-13.32-7.72-16-9.23a21.8,21.8,0,0,1-5.22-4.14l-40.4-43.76a22,22,0,0,1-4.17-6.65l16.06,9.27a21.5,21.5,0,0,0,4.2,6.66l40.4,43.76A22.11,22.11,0,0,0,379.45,343.67Z"/><path class="cls-3" d="M483.08,87.5A21.75,21.75,0,0,0,478,94.23L384.75,286.32,371.27,271.7,461.93,85A21.38,21.38,0,0,1,467,78.22Z"/><path id="Check" class="cls-2" d="M507.26,84.11A21.92,21.92,0,0,0,478,94.24L384.75,286.32l-18.64-20.2A21.88,21.88,0,0,0,334,295.82l40.4,43.76a21.73,21.73,0,0,0,14.89,7,22.33,22.33,0,0,0,4.38-.19,21.86,21.86,0,0,0,16.49-12.09L517.38,113.37A21.92,21.92,0,0,0,507.26,84.11Z"/></g><g id="Character"><path class="cls-8" d="M201.39,105.69c-8.44,0-14.23,2.2-20.23,10.74-5.5,7.84-20.64,34-20.64,34s-11-22.72-12.18-27.25-1.05-6.54,0-8.51c1.35-2.42,2.55-4.55,2.8-7.79.43-5.44,1.76-10.1.54-10.26-3.38-.19-3.51,4.15-5.28,6.71a2.12,2.12,0,0,1-3.41-.37c-.74-1.52-.34-4-.7-5.8a24,24,0,0,1,.48-3,13.17,13.17,0,0,0,3.87.11c1.46,2.29,2.46,3.26,4.5,2.32.27-.43-.88-3.37-2.2-5.49a1.57,1.57,0,0,0-.91-.69,17.11,17.11,0,0,0-7.51-.21,1.42,1.42,0,0,0-1,.54,18.74,18.74,0,0,0-2.16,4.39c-.15.47-.59.46-.7,0-1.08-5.35-1.09-12.94-1.09-16.5,0-2.8-4.1-3.23-4.24.77a130.87,130.87,0,0,0,.28,16.14c.06.48-.48.71-.68.18-.72-1.9-2.45-7.62-3.18-17.49-.2-2.66-4.49-3.09-4.46.64a94.72,94.72,0,0,0,2.46,19.66c.12.47-.3.88-.63.35a65.07,65.07,0,0,1-4.81-12.13c-.91-3.21-5.19-2.39-4.44,1.6,1.34,7.17,3.47,16.23,6.64,22.71,3.38,6.92,6.32,10.38,8,15.82s8.65,36.23,16.1,48.23c5.84,9.41,12.52,8.54,19.7,3.58S199.24,138,199.24,138Z"/><path class="cls-9" d="M160.52,150.4s3.61,6.11,4.15,11a19.16,19.16,0,0,0-2.54-13.75Z"/><path class="cls-7" d="M203.18,105.72c-4.29-.45-9.63-.6-15.6,3.16s-8,9-10.92,13.55-12.88,20.78-12.88,20.78,3.66,15.38,18.24,18.55l21.82-29.62Z"/><path class="cls-6" d="M222.76,376.12c1.06-.13,2.57,3.64,2.59,4.87s-1.21,3.88-2.85,6.35a45.09,45.09,0,0,0-5.36,9.55c-1.25,3.42-2.41,5.65-5.89,10.12-3.88,5-13,13.29-26.8,9.67-3.37-.88-5.06-1.95-6.28-3.17a4.12,4.12,0,0,1-1-4.23Z"/><path class="cls-5" d="M195.61,371.81l0,.12a8.81,8.81,0,0,0,.09,3.11,21.71,21.71,0,0,1-5.24,17,32.61,32.61,0,0,1-6.46,5.23c-7,4.47-7.76,7.45-6.77,12,2.34,5.26,18.22,8.46,27.34.62a26.81,26.81,0,0,0,8.69-11.81,84.79,84.79,0,0,1,4.6-9.74c1.77-3.32,5.12-7.07,5.21-10.49.06-1.88-1.81-5.38-3.61-8.26-1.66-2.64-3.37-5.16-4.87-4.86l.41,1.49c-1.24,1.3-3.05,1.78-4.14,3.3-1.34,1.87-1.29,4.38-2.13,6.53a.74.74,0,0,1-.41.5.53.53,0,0,1-.58-.3,1.6,1.6,0,0,1-.13-.69c0-1.07-.06-2.15-.1-3.22a2.63,2.63,0,0,0-.46-1.75c-.87-1-3-.86-4.18-.91a47.51,47.51,0,0,0-4.77.29,2.34,2.34,0,0,0-1.55.41A2.8,2.8,0,0,0,195.61,371.81Z"/><path class="cls-8" d="M172.15,307.44c3.69,12.12,20.93,54.09,22,56.62l3.43,8.33a12.9,12.9,0,0,0,7,.29c.36,4,1,10.32,1.21,13.5.08,3.69.4,8.24-.39,11.89-.68,3.1-1.46,6.36-2.05,9.47-.26,1.37-.51,2.75-.72,4.14a6.93,6.93,0,0,0,.35,4.35,5.45,5.45,0,0,0,1.36,1.55,12.2,12.2,0,0,0,8.69,2.55,9.13,9.13,0,0,0,4.6-1.52c2.68-1.92,3.62-5.26,5-8.09,1.48-3.08,1-3.41,1.12-6.7.09-2.31.73-8.15,1.65-14.26s4.89-27.6,6.79-49a175.26,175.26,0,0,0,0-28.57C247.27,270.9,254,246.47,256,232.82c2-13.86,1-18.79.79-26.77l-73.55,1.77C177.3,245.83,167.2,291.18,172.15,307.44Zm35.93-65.2Z"/><path class="cls-2" d="M171,277.09c1.52-14,12-67.69,12-67.69h74.1s.47,10.31.34,15-1.66,13.4-4.31,24.34-12.45,42-14.35,46.52-5.56,17.8-5.56,17.8c1.82,24.85-2.91,47.15-6.45,76.79,0,0-1,4-11.53,3.21-10.2-.77-12.26-4.54-12.26-4.54L202.26,363s-5.58,1.71-8.85.93c0,0-21.94-54.15-23-57.41S169.49,291.06,171,277.09Z"/><path class="cls-10" d="M171,277.09c1.52-14,12-67.69,12-67.69h74.1s.47,10.31.34,15-1.66,13.4-4.31,24.34-12.45,42-14.35,46.52-5.56,17.8-5.56,17.8c1.82,24.85-2.91,47.15-6.45,76.79,0,0-1,4-11.53,3.21-10.2-.77-12.26-4.54-12.26-4.54L202.26,363s-5.58,1.71-8.85.93c0,0-21.94-54.15-23-57.41S169.49,291.06,171,277.09Z"/><path class="cls-11" d="M202.43,244.42c-10.49-9.46-12.83-17-12.83-17a70,70,0,0,0,18.48,14.81s-10,52.61-9.24,63.43S202.26,363,202.26,363c0,.45-7.06-49.19-7.26-53.15C194.47,299.4,202.43,244.42,202.43,244.42Z"/><path class="cls-6" d="M225.53,416.25c1,.29.9,3.37.43,4.52a14,14,0,0,1-4.78,5,23.23,23.23,0,0,0-7,7.57,35.55,35.55,0,0,1-11,10.75,26.63,26.63,0,0,1-19.38,2.7c-6.95-2-7.6-3.68-7.53-6.3Z"/><path class="cls-7" d="M204,400.15c-1.83,8.9-5,15.36-12.37,20.83-5.86,4.36-10.12,6.57-14.8,10.46-2,1.66-2.16,5.2-.63,9,3.16,2.54,7.65,4,13.69,4,6.75,0,9.35-1.2,13.22-3.85a34.82,34.82,0,0,0,5.29-4.45c3.24-3.25,5.5-7.27,7.84-9.84s7.41-5.22,8.84-8.33c.8-1.71.46-5.67-.07-9-.48-3.09.46-8.51-1-8.83,0,0-.2,2.21-.2,2.21-.12.5-.44.75-1.48,1.12a7.58,7.58,0,0,1-2.85.08,1.69,1.69,0,0,0-1.91.54c-1,1.18-1.26,2.83-2.54,3.81a.71.71,0,0,1-.3.15.31.31,0,0,1-.31-.08.47.47,0,0,1,0-.37c.12-1.1.24-2.2.37-3.31a4.18,4.18,0,0,0,0-1,2.15,2.15,0,0,0-1.07-1.46,12.25,12.25,0,0,0-3-1.23,18.51,18.51,0,0,0-3.3-.56A9.9,9.9,0,0,0,204,400.15Z"/><path class="cls-2" d="M250.37,108.88s3.06,4.19,5.5,12.81a210.15,210.15,0,0,1,4.65,43.1c0,19.56-2.64,51.26-2.64,51.26-22.7,11.38-59.33,4.65-75.45-6.45.65-3.52,1.21-22,2.47-34.25.86-20.95,1.57-31.93,1.72-41.25.29-18.62,9.56-28.24,16.56-28.38L221,106Z"/><path class="cls-9" d="M256,210.3c-3.38,2.78-10,8.12-11.22,10.81-1.39,3.08-2.25,7.71-3.15,9.51s.48,2.62,2.42,2,3.12-2.29,4.62-6.32,5.69-7.18,5.69-7.18Z"/><path class="cls-8" d="M243.65,246.55c.8,1.56,2.69,1.56,4.44,1.7a14.12,14.12,0,0,0,6.28-.71,11.43,11.43,0,0,0,6-4.2c1.71-2.45,2.14-5.53,3.12-8.35,2-5.93,8.11-10.2,9.1-16.48.41-2.6.41-5.65,1.15-7.26.43-.95,10.4-18.12,14-25.56,3.42-7.15,6-10.52,2.88-19.11S277,127.74,269.48,117.24c-4.23-6-11-7.66-19.11-8.36-6.2,16.15,1,32.83,1,32.83l16.4,31.64s-6.37,21.79-10.36,33.91c-1.11,3.36-3.35,5.44-5.86,9.18-1.09,1.61-3.6,4.45-4.5,6.19-1.15,2.24-1.12,3.67-1.66,6.81C244.56,234.43,243.26,245.8,243.65,246.55Z"/><path class="cls-7" d="M249.5,108.79c4.28.17,10.44.89,14.12,2.75s6.23,4.16,10.47,12.64,10.41,25,10.41,25-2.05,12.43-21.71,15.65l-13.29-24.5S243.58,125,249.5,108.79Z"/><path class="cls-5" d="M198.42,69.21a25.81,25.81,0,0,1,1.5,3.24,19.34,19.34,0,0,0,2.49,4.11c2.55,2.94,6.13,5.09,9.39,7.16,2,1.27,4.23,2.45,6.65,2.11s5.11.18,7.61.4l8.71.78-.49,9.16s1.08-2.43,2.55-5.32c1.27-2.49,6.56-15.14,6.58-15.18,2.62-6.27,5.74-14.61,2.6-21.19a8.77,8.77,0,0,0-3.41-3.91,7.59,7.59,0,0,0,.29-3.12c-.42-3.54-2.22-5.56-4.62-7.33a22.05,22.05,0,0,0-8.22-3.39,52.92,52.92,0,0,0-11.89-1.32,71.44,71.44,0,0,0-11.67,1.34,41.78,41.78,0,0,1-6.5.68,12.62,12.62,0,0,1-2.82-.13,31.94,31.94,0,0,1-3.39-1.23.82.82,0,0,0-.61,0,.78.78,0,0,0-.33.52,9.87,9.87,0,0,0,1.81,8,5.54,5.54,0,0,1-1.44-.42,9.49,9.49,0,0,1-1.49-.84,8.31,8.31,0,0,1-2.1-2,.6.6,0,0,0-.35-.26c-.22,0-.41.15-.54.33a7.83,7.83,0,0,0-1.15,6.12,13.44,13.44,0,0,0,2.88,5.66,7.77,7.77,0,0,0-.39,7.43,10.15,10.15,0,0,0,2,2.81c1,1,2.17,1.85,3.21,2.8A19.15,19.15,0,0,1,198.42,69.21Z"/><path class="cls-8" d="M225,54a17.47,17.47,0,0,0,.62,4.9,9.69,9.69,0,0,0,2.48,3.64A27.93,27.93,0,0,1,231.48,66a14.6,14.6,0,0,1,1.93,6.38,4.51,4.51,0,0,0,1.69,3.44c2.37,1.46,3.78-1.38,5.05-2.77,1.63-1.51,6.46-3.35,8.69,1.79,2.32,5.32-2,12.36-5.84,13.44-6.7,1.87-8.15-2.69-8.15-2.69l-1.29,23.92c-3.78,7.16-12.66,9.44-18.5,8.3-5-1-7.8-4.51-3.06-9.64l.25-7.28s-6,.72-9,.17c-4.85-.91-7.26-5-8.57-10.37-2.1-8.56-3.06-17.56-.46-36.83,1.19-.66,6,3.07,13.23,3.58A33.77,33.77,0,0,0,225,54Z"/><path class="cls-9" d="M212.25,100.85s11-1.84,14.84-3.74a12.49,12.49,0,0,0,5.43-5,17.22,17.22,0,0,1-3.19,6.05c-2.9,3.47-17.17,5.63-17.17,5.63Z"/><path class="cls-6" d="M217.91,62.47,223,64a2.82,2.82,0,0,0-1.83-3.42A2.62,2.62,0,0,0,217.91,62.47Z"/><path class="cls-9" d="M216.14,86.7l-7.51,2.55a3.89,3.89,0,0,0,5,2.62A4.16,4.16,0,0,0,216.14,86.7Z"/><path class="cls-12" d="M215.53,88.54a4.42,4.42,0,0,0-4.28,3.36,3.75,3.75,0,0,0,2.34,0,4.07,4.07,0,0,0,2.67-3.26A4.4,4.4,0,0,0,215.53,88.54Z"/><path class="cls-6" d="M195.13,63.33l5.18-.68a2.52,2.52,0,0,0-2.87-2.21A2.66,2.66,0,0,0,195.13,63.33Z"/><path class="cls-6" d="M227.05,65.54l17.12,5.87a6.25,6.25,0,0,0-4.93,2.51l-12.13-4.61Z"/><path class="cls-6" d="M197.68,72.22a2,2,0,1,0,2.12-2.06A2.1,2.1,0,0,0,197.68,72.22Z"/><path class="cls-6" d="M217.25,72.23a2,2,0,1,0,2.11-2.06A2.08,2.08,0,0,0,217.25,72.23Z"/><path class="cls-6" d="M187.58,66.79a4.67,4.67,0,0,0,1.08,2.41,2,2,0,0,1,.43.86c.4,1.65.74,4.77,1.53,6.52a7.18,7.18,0,0,0,7,4.63A10.3,10.3,0,0,0,200,81l.18,0a6.77,6.77,0,0,0,1.94-.76l.12-.07.16-.11.21-.14.19-.15a1.84,1.84,0,0,0,.22-.17l.2-.18c.13-.12.25-.25.37-.38a9,9,0,0,0,1.56-2.48c1-2.28.75-5.47,2.42-5.83a.64.64,0,0,1,.2,0H208c2.27,0,2,3.5,3.28,6s3.36,4.91,8.27,5h.64c.17,0,.34,0,.5,0a8.16,8.16,0,0,0,1.18-.17c.13,0,.26,0,.38-.09l.35-.1.22-.07a6.3,6.3,0,0,0,1.33-.62l.45-.3a6.24,6.24,0,0,0,.77-.68,7.77,7.77,0,0,0,1.49-2.3c.76-1.72,1-4.84,1.34-6.47a2.85,2.85,0,0,1,.37-.94,4.38,4.38,0,0,0,1.11-2.33,2,2,0,0,0-1.37-2l-1.2-.16c-3.88-.47-8.93-.68-12,.14-3.79,1-5.11,2.25-7.22,2.22s-3.26-1.3-6.85-2.48c-2.87-.93-7.59-.9-11.2-.57-.38,0-.76.07-1.11.12C188.16,64.81,187.5,65.75,187.58,66.79Zm24.93,2.37a3.15,3.15,0,0,1,1.08-.88l.2-.11.1-.06c.17-.09.35-.17.54-.25l.49-.2a12.3,12.3,0,0,1,1.62-.51c.21-.06.42-.11.64-.15a13.48,13.48,0,0,1,1.67-.26l.39,0c3.65-.29,5.92.57,6.75,1.32s.47,4.14.12,5.86l0,.12,0,.14c0,.2-.09.44-.15.69s-.08.28-.12.43h0q-.1.35-.24.72h0l-.1.25s0,.09-.07.14-.05.11-.07.17a1.24,1.24,0,0,0-.1.2l-.13.23c0,.08-.09.16-.14.24s-.1.16-.16.24a5.76,5.76,0,0,1-5.1,2.41,7.05,7.05,0,0,1-5.39-2.06h0a7.65,7.65,0,0,1-1.77-3.46C212.06,72.43,211.8,70.2,212.51,69.16Zm-21.46-1.79a3,3,0,0,1,.89-.56s0,0,.07,0a3.52,3.52,0,0,1,.39-.16l.24-.08.21-.05.13,0H193l.2,0c.26,0,.54-.1.84-.13l.45-.05.28,0H195c.19,0,.38,0,.58,0H196a15.28,15.28,0,0,1,1.68.16c2.6.37,5.32,1.58,6,2.65s.55,3.29.21,5.19a8.65,8.65,0,0,1-.33,1.28.69.69,0,0,1,0,.1.93.93,0,0,1,0,.13l0,.08a.77.77,0,0,1-.07.16,2.92,2.92,0,0,1-.14.31l-.13.27-.06.1-.1.18-.1.15,0,0c-.9,1.39-2.52,2.58-5.42,2.47a6.28,6.28,0,0,1-2.73-.65c-2.58-1.31-3.24-4.22-3.55-5.57C190.78,71.51,190.28,68.12,191.05,67.37Z"/><path class="cls-9" d="M208.63,70.78,208.24,85l-7.94-2.29,7.4-12.06A2.17,2.17,0,0,1,208.63,70.78Z"/></g><g id="Speech_Bubble" data-name="Speech Bubble"><g id="Speech_Bubble-2" data-name="Speech Bubble"><ellipse class="cls-2" cx="319.64" cy="36.66" rx="41.02" ry="35.93"/><path class="cls-2" d="M286.89,57.43c-.22,4.82-4.3,13.44-11.67,16.57a.51.51,0,0,0,.08,1,22.11,22.11,0,0,0,22.7-8.6Z"/></g><path class="cls-13" d="M291.82,33.81a13.11,13.11,0,0,1,1.06-4.56,10.89,10.89,0,0,1,2.64-3.72,12.65,12.65,0,0,1,4.14-2.5,17.51,17.51,0,0,1,11.26,0,12.69,12.69,0,0,1,4.17,2.5,11,11,0,0,1,2.63,3.72,13.11,13.11,0,0,1,1.06,4.56c.06,1.23.09,2.53.09,3.88s0,2.62-.09,3.8a13.11,13.11,0,0,1-1.06,4.56,11.28,11.28,0,0,1-2.63,3.74,12.22,12.22,0,0,1-4.17,2.51,18.06,18.06,0,0,1-11.26,0,12.18,12.18,0,0,1-4.14-2.51,11.16,11.16,0,0,1-2.64-3.74,13.11,13.11,0,0,1-1.06-4.56c-.06-1.18-.08-2.44-.08-3.8S291.76,35,291.82,33.81Zm19,7.47c0-.52,0-1.09.08-1.73s.05-1.28.05-1.94,0-1.31-.05-1.92-.05-1.18-.08-1.67a6.66,6.66,0,0,0-.46-2,4.66,4.66,0,0,0-1-1.57,4.73,4.73,0,0,0-1.67-1.06,7.16,7.16,0,0,0-4.66,0,4.83,4.83,0,0,0-1.67,1.06,4.66,4.66,0,0,0-1,1.57,6.66,6.66,0,0,0-.46,2c-.05.49-.09,1-.1,1.67s0,1.25,0,1.92,0,1.31,0,1.94.05,1.21.1,1.73a5.9,5.9,0,0,0,1.49,3.59,5.19,5.19,0,0,0,4,1.42,5.13,5.13,0,0,0,4-1.42A6.17,6.17,0,0,0,310.79,41.28Z"/><path class="cls-13" d="M349.45,51.35a.73.73,0,0,1,.13.47,1,1,0,0,1-.95,1h-6.87a1.78,1.78,0,0,1-1-.26,3.72,3.72,0,0,1-.78-.73l-8.16-10.29V51.6a1.1,1.1,0,0,1-.35.82,1.08,1.08,0,0,1-.82.35H325a1.08,1.08,0,0,1-.82-.35,1.1,1.1,0,0,1-.35-.82V23.7A1.2,1.2,0,0,1,325,22.53h5.66a1.2,1.2,0,0,1,1.17,1.17v9.11l7.6-9.33c.14-.17.33-.37.56-.6a1.62,1.62,0,0,1,1.17-.35h6.74a.91.91,0,0,1,.67.28,1,1,0,0,1,.28.67.85.85,0,0,1-.13.48L338.05,37Z"/></g><g id="Like_icon" data-name="Like icon"><polygon class="cls-1" points="425.49 70.63 419.28 72.5 414.79 57.52 420.99 55.65 425.49 70.63"/><path class="cls-1" d="M444.88,57.33a2.86,2.86,0,0,1-1.76,2.89,4.26,4.26,0,0,1,.87,1.59c.36,1.16-.59,2.72-2.45,3.27l-14.21,4.28-4.18-13.91h0s2.41-6.16,2.53-7.08-1.3-4.34-1.5-5,2.11-1.48,3.93-.74a3.12,3.12,0,0,1,1.15.8,9.51,9.51,0,0,1,1.63,2.33,8.39,8.39,0,0,1,.87,3.93l8.58-2.58a2.65,2.65,0,0,1,1.84.06,2.42,2.42,0,0,1,.68,4.09,2.29,2.29,0,0,1,2.35,1.58,2.55,2.55,0,0,1-1.41,2.88A2.66,2.66,0,0,1,444.88,57.33Z"/></g><g id="Like_icon-2" data-name="Like icon"><polygon class="cls-1" points="502 225.96 494.04 224.05 498.67 204.85 506.63 206.76 502 225.96"/><path class="cls-1" d="M531.63,223.8a3.64,3.64,0,0,1-3.76,2,5.45,5.45,0,0,1-.06,2.28c-.35,1.49-2.38,2.59-4.77,2l-18.22-4.39,4.3-17.84h0s6.55-5.17,7.26-6.11,1.35-5.56,1.55-6.39c.16-.67,3.23-.27,4.75,1.68a4.12,4.12,0,0,1,.76,1.62,12.58,12.58,0,0,1,.29,3.58,10.7,10.7,0,0,1-1.56,4.84l11,2.65a3.4,3.4,0,0,1,2,1.23,3.15,3.15,0,0,1,.58,2.54,3.22,3.22,0,0,1-2.44,2.37,2.89,2.89,0,0,1,1.56,3.21,3.22,3.22,0,0,1-3.38,2.24A3.43,3.43,0,0,1,531.63,223.8Z"/></g><g id="Like_icon-3" data-name="Like icon"><polygon class="cls-1" points="305.68 117.59 314.37 120.2 320.66 99.23 311.98 96.62 305.68 117.59"/><path class="cls-1" d="M278.52,99A4,4,0,0,0,281,103a6,6,0,0,0-1.22,2.22c-.5,1.62.83,3.81,3.44,4.58l19.9,6L309,96.33h0s-3.37-8.62-3.54-9.91,1.83-6.08,2.1-7c.22-.74-2.95-2.07-5.5-1a4.55,4.55,0,0,0-1.62,1.12,14.07,14.07,0,0,0-2.28,3.27,11.86,11.86,0,0,0-1.21,5.5l-12-3.61a3.71,3.71,0,0,0-2.57.08,3.52,3.52,0,0,0-2,2.1,3.57,3.57,0,0,0,1,3.63,3.2,3.2,0,0,0-3.29,2.21,3.55,3.55,0,0,0,2,4A3.76,3.76,0,0,0,278.52,99Z"/></g><path class="cls-14" d="M1,188.64c.11-1.59,3.09-18.59,5.15-28.09l20,6.12L22.92,180,6.3,196.06C1,195,.88,190.23,1,188.64Z"/><path class="cls-6" d="M44.78,44.67h9.72a27,27,0,0,1,27,27v68.84a0,0,0,0,1,0,0H17.76a0,0,0,0,1,0,0V71.69A27,27,0,0,1,44.78,44.67Z"/><polygon class="cls-12" points="97.63 152.81 107.07 170.13 92.38 182.72 78.92 161.38 97.63 152.81"/><path class="cls-7" d="M62.19,114.22c9.37.1,19.68,3.51,23.23,10.85s14.64,30.22,14.64,30.22-8.28,12.12-21.41,11.26Z"/><path class="cls-6" d="M69.76,413.72a84.57,84.57,0,0,0,10.83,11.94,5.14,5.14,0,0,1,1.47,1.94c.43,1.25,1,4.29-4.66,5.53a20.23,20.23,0,0,1-16.47-3.58c-4.11-3.3-3.62-9.11-7.42-12.9-2.81-2.81-6.61-3.89-8.73-7.38-1.48-2.43-.68-5.33.67-8.88,1.47-3.88,2.28-6.84,3.57-6.38l-.44,1.81c1.34,2.83,9.79,4.62,13.81,3.26C62.39,399.08,67.68,410.81,69.76,413.72Z"/><path class="cls-14" d="M73.06,417.9s0,0,0,0c-1.15-1.33-2.26-2.69-3.31-4.15-1.34-1.88-4-7.42-5.75-11.12a10.07,10.07,0,0,1-.54-7.18l2.78-9.35-14.52-3.34-3.15,13.09h0c-.68,3,1.48,5.94,5.44,10.26s8.5,13.84,12.23,16.55,6.58,2.95,8.42,2S76.84,422.8,73.06,417.9Z"/><path class="cls-6" d="M30.59,422v-2c.81,2.4,4.56,12.75,10.25,17.94,4.52,4.12,10.69,8.88,12.26,13.48,1.63,4.79-8.59,6.39-12.81,5.64-4.91-.87-11.26-3.65-14.72-7.9-2.43-3-4-6.52-5.71-8.87s-5.73-5-6.67-7.69c-.52-1.49.1-4.76.82-7.52.66-2.53,1.38-5.32,2.25-5.08v1.56c1,1.15,3.92,2.3,7.17,2.42C25.52,424,30.61,423.56,30.59,422Z"/><path class="cls-14" d="M44.93,441.48c-1.4-1.26-2.81-2.48-4.09-3.65-4-3.62-7-9.77-8.74-14a19.56,19.56,0,0,1-1.51-7.54v-8.17H16.26v13.29h0v.35l.07,0c.69,3,7.27,10.9,11,16.07,2.5,3.46,7.26,7.86,13,8.62C45.68,447.26,48.43,445.56,44.93,441.48Z"/><path class="cls-5" d="M19.11,199.19C8,223.46,19.51,309,19.51,309c-.33,3.94-4.83,11.69-6.51,29-2,20.48,3.11,71.91,3.11,71.91a15.5,15.5,0,0,0,14.48.58S44.25,333,46.82,312.65C49.06,294.88,55,247.29,55,247.29L67.1,311.05s-5.7,8.69-8,15.94c-2.89,9-8.74,60.34-8.74,60.34a17.56,17.56,0,0,0,14.82,4.33s28-70.36,29.29-84.77c.75-8.62-11.82-111.25-11.82-111.25Z"/><path class="cls-6" d="M55,247.29l1.95-14s15.26-3.17,22.18-9.67c0,0-7.26,9-18,12l-2,13.54,2.55,31.4Z"/><path class="cls-7" d="M38.71,114.87h0A28.13,28.13,0,0,0,19.9,130.26a24.4,24.4,0,0,0-.67,18.36l9.93,28.72s-4.65,11.24-10,21.85c24.92,13.91,56,6.6,63.52-3.55.31-2.15-.12-11.85.49-22.89.64-11.77,2.26-25.06.41-32.34-3.44-13.51-9.87-26.19-22.68-26.19Z"/><path class="cls-7" d="M35,114.87c-8.5,1.21-21,2.92-25.29,23.13-4.37,20.48-5.63,27.6-5.63,27.6s7,8.12,21.09,8.05l4.38-15.53Z"/><path class="cls-6" d="M39.83,131.91h0a11.16,11.16,0,0,1-11.16-11.15V88.24H39.83Z"/><path class="cls-14" d="M71.05,57.56c3.37,2,7.54,10.47,7.12,28.22-.34,15-5.22,18.77-7.67,19.84s-7.18.42-11.77-.35v9s6.35,7.37,6,11.51-9.16,5.12-15.1,1.08a38.51,38.51,0,0,1-9.75-10.21V94.86s-3.1,4.14-8.17.77-5.27-11.7-2.32-14.69,9.3-2,10.49,2.09c0,0,7.32.26,17.07-5.1A27.35,27.35,0,0,0,71.05,57.56Z"/><path class="cls-6" d="M61.37,82a1.92,1.92,0,0,1-1.79,2,2,2,0,1,1,1.79-2Z"/><path class="cls-12" d="M61.88,94.76l4.39,1.4a2.27,2.27,0,0,1-2.86,1.58A2.41,2.41,0,0,1,61.88,94.76Z"/><path class="cls-6" d="M76.89,76.19l-3.83-2.65a2.23,2.23,0,0,1,3.18-.66A2.45,2.45,0,0,1,76.89,76.19Z"/><path class="cls-6" d="M76,80.63a1.9,1.9,0,1,1-2-1.87A1.93,1.93,0,0,1,76,80.63Z"/><polygon class="cls-12" points="67.08 79.55 67.38 90.94 73.38 89.08 67.08 79.55"/><path class="cls-12" d="M58.73,105.27c-4.84-.63-14.79-3.49-16.35-7.43a10.2,10.2,0,0,0,3.5,5c3,2.55,12.85,5.42,12.85,5.42Z"/><path class="cls-2" d="M96.89,172.81c2.75-5.11,3.43-5.33,5.06-6.45s11.64-2.62,15.8-3c4.88-.41,6.62.49,5.26,4.69-2.91,9-11.73,28.1-13.7,30.73-1.3,1.73-1.57,3.34-7.06,3.87-5.13.5-11.57.78-13.47.9s-4.51.58-2.81-5a183.77,183.77,0,0,1,7.5-18.53C95.58,175.48,96.89,172.81,96.89,172.81Z"/><path class="cls-14" d="M22.92,180s44.4,4.69,50.14,2.91S86.53,175.37,90.7,173s7.13-2.58,7.13-1.59-3.55,6.42-4.36,8.66,3.83,2.26,9.91.85,8.52-4.94,10.1-2.86S110.11,190.23,100,194s-17.6,1.28-25.94,1.63-56.18,4.09-67.77.44c0,0-1.34-5.42,4-9.87A35.46,35.46,0,0,1,22.92,180Z"/><path class="cls-5" d="M26.13,168.57A148.36,148.36,0,0,0,31,152.81s-.79,11.73-4.1,18Z"/></svg>