<?xml version="1.0" encoding="utf-8"?>
<!-- Generator: Adobe Illustrator 25.0.0, SVG Export Plug-In . SVG Version: 6.00 Build 0)  -->
<svg version="1.1" id="Capa_1" xmlns="http://www.w3.org/2000/svg" xmlns:xlink="http://www.w3.org/1999/xlink" x="0px" y="0px"
	 viewBox="0 0 441.5 423.4" style="enable-background:new 0 0 441.5 423.4;" xml:space="preserve"  width='500px'>
<style type="text/css">
	.Sombra_x0020_paralela{fill:none;}
	.Esquinas_x0020_redondeadas_x0020_2_x0020_pt_x002E_{fill:#FFFFFF;stroke:#1D1D1B;stroke-miterlimit:10;}
	.Reflejo_x0020_vivo_x0020_X{fill:none;}
	.Bisel_x0020_suave{fill:url(#SVGID_1_);}
	.Atardecer{fill:#FFFFFF;}
	.Follaje_GS{fill:#FFDB00;}
	.Pompadour_GS{fill-rule:evenodd;clip-rule:evenodd;fill:#51ACE0;}
	.st0{fill:none;}
	.st1{fill:#F5F5F5;}
	.st2{fill:#E0E0E0;}
	.st3{fill:#EBEBEB;}
	.st4{fill:#263238;}
	.st5{fill:#ED2003;}
	.st6{opacity:0.3;}
	.st7{fill:#7A0003;}
	.st8{fill:url(#SVGID_2_);}
	.st9{fill:url(#SVGID_3_);}
	.st10{opacity:0.4;}
	.st11{fill:#FFBE9D;}
	.st12{fill:#FFFFFF;}
	.st13{fill:#EB996E;}
	.st14{fill:#455A64;}
	.st15{fill:#FAFAFA;}
</style>
<linearGradient id="SVGID_1_" gradientUnits="userSpaceOnUse" x1="-1138.8698" y1="-3966.4531" x2="-1138.1627" y2="-3965.7461">
	<stop  offset="0" style="stop-color:#E5E5E9"/>
	<stop  offset="0.1768" style="stop-color:#E1E1E5"/>
	<stop  offset="0.3581" style="stop-color:#D5D5D9"/>
	<stop  offset="0.5415" style="stop-color:#C0C1C4"/>
	<stop  offset="0.7263" style="stop-color:#A4A5A7"/>
	<stop  offset="0.9105" style="stop-color:#7F8283"/>
	<stop  offset="1" style="stop-color:#6B6E6E"/>
</linearGradient>
<g>
	<g id="freepik--background-complete--inject-2_1_">
		<path class="st1" d="M249.2,421.4c-17.2-8.2-24.1-27.6-26.5-45.6c-0.4-3-1.3-6.1-0.3-9s4-5.2,6.9-4.4c2.4,0.7,3.8,3.1,5.4,5
			c2.1,2.6,5,4.5,8.2,5.5c2.1,0.7,4.5,0.9,6.3-0.5c2.3-1.9,2-5.5,1.5-8.5c-1-5.5-1.9-11.1-2.9-16.6c-0.7-2.9-0.9-6-0.6-9
			c0.4-3,2-6,4.8-7.2s6.5-0.2,7.6,2.6c0.3,1.2,0.6,2.4,0.7,3.7c0.3,1.2,1.1,2.5,2.3,2.6s2.3-0.9,3-1.9c2.6-3.5,4-7.8,5.3-12
			c1.3-4.2,2.5-8.5,4.8-12.2s5.7-7,9.9-8s9.2,0.9,11,4.9s0.1,8.7-2,12.6c-3.1,5.7-7.1,10.9-11.7,15.5c-0.9,0.7-1.6,1.7-1.9,2.9
			c-0.3,2.1,1.9,3.8,4,4.1c2.3,0.4,4.7-0.3,7.1-0.4s5.1,0.5,6.3,2.5c1.7,2.8-0.3,6.5-2.4,9c-4.3,5-9.5,9.3-15.2,12.6
			c-2.1,1.2-4.3,2.3-5.8,4.1s-2.1,4.7-0.7,6.6c1.4,1.9,4.3,2.1,6.5,1.3c2.2-0.8,4.1-2.4,6.1-3.6c3.8-2.2,9.2-2.9,12.4,0.2
			c2,2.2,2.9,5.2,2.4,8.2c-0.5,2.9-1.6,5.7-3.3,8.1c-5.2,8.9-12.6,16.3-21.6,21.4C267.9,420.9,259.3,423.2,249.2,421.4"/>
		<path class="st2" d="M251.9,409.3c1.3-10.3,3.2-20.5,5.7-30.6l1.9-7.9c0.6-2.6,1.3-5.2,2-7.7c1.5-4.8,3.3-9.4,5.3-14
			c1.9-4.4,3.8-8.5,5.7-12.3s3.7-7.3,5.4-10.5c2.8-5,5.9-9.7,9.5-14.2c1.3-1.6,2.3-2.8,3-3.6c0.3-0.4,0.6-0.7,0.8-0.9
			c0.2-0.2,0.3-0.3,0.3-0.3c-0.1,0.1-0.2,0.2-0.2,0.3l-0.8,0.9c-0.7,0.8-1.6,2-2.9,3.6c-3.5,4.5-6.6,9.3-9.3,14.2
			c-1.8,3.1-3.5,6.7-5.4,10.5c-1.8,3.8-3.8,7.9-5.6,12.3c-2,4.6-3.7,9.2-5.2,14c-0.8,2.5-1.4,5-2,7.6l-1.9,7.9
			c-2.5,10.1-4.4,20.2-5.8,30.5"/>
		<path class="st2" d="M261.8,363.1c-0.2-0.4-0.4-0.8-0.5-1.2c-0.3-0.8-0.7-2-1.1-3.4c-0.9-2.9-2.1-7-3.3-11.4
			c-1.2-4.5-2.4-8.5-3.4-11.4c-0.5-1.4-0.9-2.6-1.2-3.4c-0.2-0.4-0.3-0.8-0.4-1.3c0.2,0.4,0.4,0.8,0.6,1.2c0.4,0.8,0.8,1.9,1.3,3.3
			c1.1,2.9,2.3,6.9,3.6,11.4s2.3,8.4,3.1,11.4c0.4,1.4,0.7,2.5,1,3.5C261.6,362.2,261.7,362.7,261.8,363.1z"/>
		<path class="st2" d="M298.9,349.4c-0.5,0.2-1,0.4-1.5,0.5c-1,0.3-2.4,0.6-4.1,1.1c-3.5,1-8.2,2.5-13.3,4.4s-9.7,3.8-13,5.3
			c-1.6,0.7-3,1.4-3.9,1.8c-0.5,0.2-0.9,0.5-1.4,0.6c0.4-0.3,0.9-0.6,1.3-0.8c0.9-0.5,2.2-1.2,3.8-2c3.2-1.6,7.8-3.6,12.9-5.5
			c4.4-1.6,8.9-3.1,13.4-4.2c1.7-0.5,3.2-0.8,4.2-1C297.9,349.5,298.4,349.5,298.9,349.4z"/>
		<path class="st2" d="M252.3,408.5c-0.1-0.1-0.2-0.3-0.3-0.4l-0.9-1.3c-0.8-1.1-1.8-2.8-3.1-4.8c-2.6-4.1-6-9.8-9.7-16.2
			s-7-12.2-9.5-16.3l-3-4.9l-0.8-1.3c-0.1-0.1-0.2-0.3-0.3-0.5c0,0,0.1,0.1,0.3,0.4s0.5,0.8,0.9,1.3c0.8,1.1,1.8,2.7,3.1,4.8
			c2.6,4.1,6,9.8,9.7,16.2s7,12.2,9.5,16.3l3,4.9c0.3,0.5,0.6,1,0.8,1.3C252.1,408.2,252.2,408.4,252.3,408.5z"/>
		<path class="st2" d="M300.5,383.5c-0.1,0.1-0.3,0.2-0.5,0.3l-1.4,0.7l-5.2,2.7c-4.4,2.3-10.3,5.5-16.9,9s-12.6,6.7-17,8.9
			c-2.2,1.1-4,2-5.2,2.5l-1.5,0.7c-0.2,0.1-0.3,0.2-0.5,0.2c0.1-0.1,0.3-0.2,0.5-0.3l1.4-0.7l5.2-2.7c4.4-2.3,10.3-5.5,16.9-9
			s12.6-6.7,17-8.9c2.2-1.1,4-2,5.2-2.5l1.4-0.7C300.1,383.6,300.3,383.5,300.5,383.5z"/>
		<path class="st3" d="M124.2,206.7c0,0-11.9,1.6-5.2,27.7s12.3,39.4,12.3,39.4s0.9,5.9-3.9,5.7s-14.4-4-17.7,1.1
			c-3.4,5.3-0.4,11.7,7,18.4s23.2,22,24.7,23.4s2.5,4.3-0.8,4.6s-26.4-2.3-27,8.7s23.2,26.3,25.8,28s3,3.1,2.4,4.6
			s-8.3-0.1-14.9-0.7s-14.4,0.1-14.2,6.5s12.7,22.6,49.2,34.6l17.3,4.5l12.8-12.6c25.7-28.6,28.5-48.9,25.5-54.5s-10-2.3-15.5,1.4
			s-11.3,9-12.6,8s-1.6-2.4-0.2-5.1s14.5-27.9,8.4-37.1s-24.8,4.5-27.8,5.8s-3.5-1.8-3-3.6s6.6-23,9.8-32.5s2.5-16.6-3.1-19.5
			c-5.4-2.8-11.9,5.4-15.9,7.9s-6.2-3-6.2-3s-1.8-14.5-8.9-40.4S124,206.8,124,206.8"/>
		<path class="st2" d="M179.1,417.7c-5.2-19-13.8-53-21.4-82.2s-14.4-55.5-19.5-74.6c-2.5-9.5-4.6-17.2-6-22.6
			c-0.7-2.6-1.3-4.7-1.6-6.1l-0.4-1.6c-0.1-0.4-0.1-0.5-0.1-0.5s0.1,0.2,0.2,0.5s0.3,0.9,0.5,1.6c0.4,1.4,1,3.5,1.7,6.1
			c1.5,5.3,3.6,13,6.2,22.5c5.2,19,12.1,45.4,19.6,74.5s16.1,63.2,21.2,82.2"/>
		<path class="st2" d="M123,286.6c0.4,0.2,0.8,0.4,1.1,0.6c0.7,0.4,1.7,1.1,3,1.9c2.5,1.6,5.9,3.9,9.6,6.5l9.4,6.7l2.9,2
			c0.4,0.2,0.7,0.5,1,0.8c-0.4-0.2-0.8-0.4-1.1-0.6c-0.7-0.4-1.7-1.1-3-1.9c-2.5-1.6-5.8-4-9.5-6.6l-9.5-6.6l-2.9-2
			C123.7,287.1,123.3,286.9,123,286.6z"/>
		<path class="st2" d="M151.5,304.3c-0.1-0.1,4.3-7.3,9.9-16.1s10.3-15.9,10.4-15.8s-4.3,7.3-9.9,16.1S151.6,304.3,151.5,304.3z"/>
		<path class="st2" d="M161.1,349.5c0.3-0.3,0.6-0.7,0.9-0.9l2.7-2.4c2.3-2,5.4-4.8,8.7-7.9s6.3-6.1,8.4-8.3c1-1,1.8-1.9,2.5-2.6
			c0.3-0.3,0.6-0.6,1-0.9c-0.2,0.4-0.5,0.7-0.8,1c-0.5,0.6-1.4,1.6-2.4,2.7c-2,2.3-4.9,5.3-8.3,8.5s-6.5,5.9-8.9,7.8
			c-1.2,1-2.1,1.7-2.8,2.2C161.8,349.1,161.5,349.3,161.1,349.5z"/>
		<path class="st2" d="M131.8,339.2c0.4,0,0.8,0.1,1.2,0.3l3.2,1c2.7,0.9,6.3,2.1,10.4,3.4s7.7,2.6,10.3,3.6l3.1,1.1
			c0.4,0.1,0.8,0.3,1.1,0.5c-0.4,0-0.8-0.1-1.2-0.3l-3.2-1c-2.7-0.9-6.3-2.1-10.4-3.4s-7.7-2.6-10.3-3.6l-3.1-1.1
			C132.5,339.6,132.2,339.4,131.8,339.2z"/>
		<path class="st2" d="M135.2,380.3c0.5,0.1,1,0.2,1.5,0.4l4.1,1.2c3.4,1.1,8.1,2.6,13.3,4.3s9.9,3.3,13.3,4.4l4,1.4
			c0.5,0.2,1,0.4,1.4,0.6c-0.5-0.1-1-0.2-1.5-0.4l-4.1-1.2c-3.4-1.1-8.1-2.6-13.3-4.3s-9.9-3.3-13.3-4.4l-4-1.4
			C136.2,380.7,135.7,380.5,135.2,380.3z"/>
		<path class="st2" d="M172,392c0.4-0.4,0.7-0.8,1.2-1.2l3.3-3.1c2.8-2.6,6.6-6.3,10.8-10.4s7.8-8,10.4-10.8l3.1-3.3
			c0.4-0.4,0.8-0.8,1.2-1.2c-0.3,0.5-0.6,0.9-1,1.3c-0.7,0.8-1.7,2-3,3.4c-2.6,2.9-6.1,6.8-10.3,10.9s-8,7.8-10.9,10.3
			c-1.4,1.3-2.6,2.3-3.4,3C172.9,391.4,172.5,391.7,172,392z"/>
		<path class="st1" d="M72.6,51.6l-9.8-3c0,0-2.6,8.2-11.1,5.7c-3.4-0.9-5.8-3.9-6.1-7.4c-0.3-2.9,0.9-5.8,3.2-7.7
			c2.5-2.2,6.9-3.6,13.1-0.4l6.9-22l-9.7-3l-4,12.9c0,0-14.6-0.7-19.3,14.2c-4.5,14.3,7.3,21.6,12.8,23.3
			C52.8,65.4,67.4,68.8,72.6,51.6z"/>
		<rect x="62" y="1" transform="matrix(0.2979 -0.9546 0.9546 0.2979 41.0369 67.9949)" class="st1" width="9.6" height="10.3"/>
		<path class="st3" d="M99.5,26.7l3.9-1c-0.5-1.8,0.6-3.7,2.4-4.2c0,0,0.1,0,0.1,0c1.3-0.4,2.8,0.1,3.6,1.2c0.7,0.9,0.9,2.1,0.6,3.2
			c-0.4,1.3-1.6,2.7-4.3,2.9l2.3,8.8l3.9-1l-1.4-5.2c3-1.8,4.4-5.4,3.5-8.8c-1.5-5.7-7-5.7-9.2-5.1C103.2,17.9,97.6,19.8,99.5,26.7z
			"/>
		
			<rect x="109.8" y="38.4" transform="matrix(0.9659 -0.2589 0.2589 0.9659 -6.6111 30.3299)" class="st3" width="4.1" height="3.8"/>
		<path class="st3" d="M422.3,127.9l3.8,1.4c0.7-1.8,2.6-2.7,4.4-2c0,0,0.1,0,0.1,0c1.3,0.4,2.2,1.6,2.3,3c0,1.2-0.5,2.3-1.4,3
			c-1,0.8-2.8,1.3-5.2-0.1l-3.1,8.6l3.8,1.4l1.8-5c3.5,0.2,6.7-1.9,7.9-5.3c2-5.6-2.5-8.6-4.6-9.4
			C430.4,122.8,424.7,121.2,422.3,127.9z"/>
		
			<rect x="421.9" y="143.9" transform="matrix(0.3405 -0.9402 0.9402 0.3405 142.2717 494.7494)" class="st3" width="3.8" height="4.1"/>
		<path class="st1" d="M19,171.4l8-3.1c0,0-2.6-6.8,4.4-9.6c2.7-1.2,5.9-0.5,7.9,1.7c1.7,1.8,2.4,4.3,1.9,6.7
			c-0.5,2.8-2.7,6-8.5,7.1l7,18.1l8-3.1l-4.1-10.6c0,0,10-7.2,5.3-19.5c-4.6-11.8-16.2-10.4-20.7-8.7
			C24.9,151.9,13.4,157.3,19,171.4z"/>
		
			<rect x="42.4" y="194.4" transform="matrix(0.9331 -0.3595 0.3595 0.9331 -68.2123 30.0486)" class="st1" width="8.7" height="8.1"/>
		<path class="st1" d="M425.4,202l-5.7,2.2c0,0,1.8,4.8-3.1,6.8c-1.9,0.8-4.2,0.3-5.6-1.2c-1.2-1.3-1.7-3.1-1.4-4.8
			c0.4-2,1.9-4.2,6-5l-4.9-12.9l-5.6,2.2l2.9,7.5c-4.2,3.2-5.8,8.9-3.8,13.8c3.2,8.3,11.4,7.4,14.6,6.2
			C421.3,215.8,429.4,212,425.4,202z"/>
		
			<rect x="402.8" y="180" transform="matrix(0.9331 -0.3595 0.3595 0.9331 -38.5989 158.1295)" class="st1" width="6.1" height="5.7"/>
	</g>
	<g id="freepik--Floor--inject-2_2_">
		<path class="st4" d="M441.5,423.1c0,0.1-98.9,0.3-220.8,0.3S0,423.2,0,423.1s98.8-0.3,220.8-0.3S441.5,422.9,441.5,423.1z"/>
	</g>
	<g id="freepik--Plant--inject-2_1_">
		<path class="st5" d="M63.4,397.1c1-3.7-1.5-7.4-4.2-10s-5.9-5-7.3-8.6c-2.3-5.7,0.8-13.1-3.1-17.9c-2.3-2.8-6.4-3.7-8.4-6.7
			c-0.9-1.7-1.6-3.5-1.8-5.4c-2.2-9.5-6.8-18.2-13.5-25.3c-0.5,8.5,1.4,16.9,5.3,24.4c1.6,3,3.5,5.9,4,9.3c0.9,5.4-2.2,11-0.8,16.4
			c1.5,6.1,8.4,10.2,8.7,16.5c0.3,5.3-4.3,10-4,15.3c0.3,2.3,1.1,4.4,2.4,6.3c4.1,6.8,10.1,11.5,19.3,11.4l11.2,0.4L63.4,397.1z"/>
		<g class="st6">
			<path d="M63.4,397.1c1-3.7-1.5-7.4-4.2-10s-5.9-5-7.3-8.6c-2.3-5.7,0.8-13.1-3.1-17.9c-2.3-2.8-6.4-3.7-8.4-6.7
				c-0.9-1.7-1.6-3.5-1.8-5.4c-2.2-9.5-6.8-18.2-13.5-25.3c-0.5,8.5,1.4,16.9,5.3,24.4c1.6,3,3.5,5.9,4,9.3c0.9,5.4-2.2,11-0.8,16.4
				c1.5,6.1,8.4,10.2,8.7,16.5c0.3,5.3-4.3,10-4,15.3c0.3,2.3,1.1,4.4,2.4,6.3c4.1,6.8,10.1,11.5,19.3,11.4l11.2,0.4L63.4,397.1z"/>
		</g>
		<path class="st4" d="M73.3,423.3c1,0.2,2.1,0.1,3.1-0.1c1.2-0.2,2.5-0.5,3.6-0.9c1.6-0.6,3.1-1.4,4.5-2.5c0.8-0.7,1.5-1.5,1.8-2.5
			c0.3-1.1,0.5-2.2,0.5-3.3c0-1.2,0.1-2.4,0.3-3.6c0.2-1.3,0.7-2.5,1.4-3.6c1.3-2.3,3.5-4.5,4.2-7.7s0.2-6.5-0.3-9.8s-1-7,0.3-10.5
			s3.7-6.7,4.9-10.6s0.7-8.3,0.9-12.5c0.1-2.1,0.6-4.3,1.5-6.2c0.9-2,2.2-3.9,3.1-5.9c2-4.2,2.3-9,2.9-13.7c0.3-2.4,0.5-4.8,0.8-7.1
			c0.2-2.4,0.6-4.8,1.3-7.2c0.8-2.4,1.7-4.7,2.7-6.9c0.5-1.2,1-2.4,1.3-3.6c0.2-1.3,0.3-2.6,0.4-3.9c0.1-2.6,0-5.2-0.3-7.8
			c-0.3-2.6-0.8-5.1-1.1-7.7c0-0.2,0-0.3,0-0.5l-0.1-0.5l-0.4,0.2c-2.4,1.2-4.4,3-6,5.1c-1.6,2.1-2.8,4.4-3.7,6.8
			c-1.9,4.8-2.5,9.9-3.5,14.7s-2.1,9.5-4.6,13.5c-1.2,2-2.7,3.8-4,5.8c-1.4,1.9-2.3,4.1-2.8,6.4c-0.7,4.7,1.9,8.9,1.4,13.1
			c-0.2,2.1-0.9,4-2,5.8c-1,1.8-2.2,3.5-3.3,5.1c-1.2,1.6-2.2,3.4-3,5.2c-0.8,1.8-1.3,3.7-1.4,5.6c-0.3,3.8,0.3,7.4,0,10.7
			c-0.3,3.2-1.3,6.4-2.8,9.2c-1.3,2.8-2.9,5.2-4.1,7.7c-0.6,1.2-1.2,2.4-1.7,3.6c-0.5,1.1-0.8,2.3-1,3.5c-0.3,2.1-0.4,4.3-0.1,6.4
			c0.3,3,1.4,5.8,3.2,8.1c0.3,0.4,0.6,0.7,0.9,1c0.2,0.2,0.5,0.4,0.7,0.6c0.4,0.3,0.6,0.5,0.6,0.5c-0.8-0.6-1.5-1.3-2.2-2.1
			c-1.7-2.4-2.8-5.2-3-8.1c-0.3-2.1-0.2-4.2,0.1-6.3c0.2-1.2,0.5-2.3,1-3.5c0.5-1.2,1.1-2.4,1.7-3.5c1.3-2.4,2.8-4.9,4.2-7.6
			c1.6-2.9,2.5-6.1,2.9-9.4c0.3-3.5-0.2-7,0.1-10.7c0.1-1.9,0.6-3.7,1.3-5.4c0.8-1.8,1.8-3.5,3-5.1c1.1-1.7,2.3-3.3,3.4-5.1
			c1.1-1.8,1.9-3.9,2.1-6c0.5-4.5-2.1-8.6-1.4-13.1c0.4-2.2,1.4-4.3,2.7-6.1c1.3-1.9,2.8-3.7,4-5.8c2.6-4.1,3.8-8.9,4.7-13.8
			c0.9-4.8,1.6-9.8,3.5-14.5c0.9-2.4,2.1-4.6,3.6-6.6c1.5-2,3.5-3.7,5.8-4.9l-0.5-0.3c0,0.1,0,0.3,0.1,0.5c0.3,2.6,0.8,5.2,1,7.7
			c0.3,2.5,0.4,5.1,0.3,7.6c-0.1,1.3-0.2,2.5-0.3,3.7c-0.3,1.2-0.7,2.4-1.3,3.5c-1,2.3-1.9,4.6-2.7,7c-0.7,2.4-1.1,4.8-1.3,7.3
			c-0.3,2.4-0.5,4.8-0.8,7.2c-0.5,4.7-0.9,9.4-2.8,13.5c-1,2-2.2,3.9-3.1,6c-0.9,2-1.4,4.2-1.5,6.5c-0.3,4.3,0.3,8.5-0.9,12.4
			s-3.6,7-4.8,10.6s-0.8,7.4-0.2,10.8s1.1,6.6,0.4,9.6s-2.8,5.2-4.1,7.6c-0.7,1.1-1.2,2.4-1.4,3.8c-0.2,1.2-0.2,2.4-0.2,3.7
			c0,1.1-0.2,2.2-0.5,3.3c-0.4,0.9-1,1.7-1.7,2.4c-1.3,1.1-2.8,1.9-4.4,2.5c-1.2,0.4-2.4,0.8-3.6,1c-0.7,0.1-1.5,0.2-2.3,0.2
			C73.6,423.3,73.3,423.3,73.3,423.3z"/>
		<path class="st4" d="M108.7,291.4c-0.1,0.1-0.1,0.2-0.1,0.3l-0.2,1c-0.2,0.9-0.5,2.2-0.9,3.9s-1.4,3.5-2.3,5.9
			c-1,2.6-1.9,5.3-2.7,7.9c-0.9,3-1.6,6.3-2.4,9.9c-0.7,3.8-1.9,7.5-3.6,10.9c-0.9,1.8-2,3.7-2.8,5.7c-0.8,2.1-1.3,4.2-1.6,6.4
			c-0.6,4.6-1.4,9.1-2.4,13.5c-2.2,9.2-4.4,17.9-6.3,25.9s-3.8,15.1-5.3,21.1s-2.7,10.8-3.5,14.3c-0.4,1.6-0.7,2.9-0.9,3.9
			c-0.1,0.4-0.2,0.7-0.2,1c0,0.1,0,0.2,0,0.4c0.1-0.1,0.1-0.2,0.1-0.3c0.1-0.3,0.2-0.6,0.3-1c0.3-0.9,0.6-2.2,1.1-3.9
			c0.9-3.4,2.2-8.2,3.7-14.2s3.4-13.1,5.4-21.1s4.1-16.7,6.4-25.9c1-4.5,1.8-9,2.4-13.6c0.3-2.1,0.8-4.3,1.6-6.3
			c0.8-2,1.8-3.8,2.7-5.6c2-3.6,2.8-7.6,3.6-11.1s1.5-6.9,2.3-9.9s1.7-5.6,2.5-7.9s1.8-4.2,2.2-5.9s0.6-3,0.8-3.9
			c0.1-0.4,0.1-0.7,0.2-1C108.7,291.5,108.7,291.4,108.7,291.4z"/>
		<path class="st5" d="M75.3,423.4c7.3-4.4,9.4-17.5,6.4-25.5s-8.4-15.2-9.2-23.7c-0.6-6.5,1.5-13.2,0-19.5
			c-2.1-8.6-10.4-15.2-10.3-24.1c0.1-5,2.9-9.6,2.6-14.6c-0.3-6.1-4.9-10.9-7.8-16.2c-4.4-8.2-4.7-17.9-6.2-27s-5-19-13.1-23.5
			c-1.2,7.8-3.3,13.1-2.6,23.7c0.2,3.8,4.6,11,5.2,19.4c0.4,5,0.6,9.9,0.9,14.9s0.6,9.8,2.3,14.3c1.3,3.5,3.5,6.6,4.4,10.2
			c1.8,6.7-0.6,14,0.9,20.8c1.3,5.8,5.3,10.8,6.1,16.6c1.1,8.2-4.2,16.8-1.5,24.6c1.4,3.9,4.6,7,5.5,11c0.7,3.1-0.1,6.4,0.6,9.6
			c1,5.1,10.7,9,15.8,8.7"/>
		<path class="st4" d="M39.6,257c0,0.1,0,0.3,0,0.4c0,0.3,0.1,0.8,0.2,1.3c0.2,1.1,0.4,2.8,0.7,4.9s1.5,4.6,2.4,7.5s1.9,6.3,2.7,10
			s1.5,7.9,2.3,12.4s1.5,9.3,3.8,14c1,2.3,2.2,4.7,3,7.2c0.8,2.6,1.4,5.2,1.5,7.9c0.4,5.7,1.1,11.4,2.2,17
			c2.2,11.5,4.4,22.5,6.3,32.5s3.9,18.9,5.4,26.5s2.8,13.6,3.7,17.9l1,4.9c0.1,0.5,0.2,0.9,0.3,1.3c0,0.1,0.1,0.3,0.1,0.4
			c0-0.1,0-0.3,0-0.4c-0.1-0.3-0.1-0.7-0.2-1.3c-0.2-1.2-0.5-2.8-0.9-4.9c-0.8-4.3-2-10.4-3.5-17.9s-3.3-16.6-5.3-26.5
			s-4-21-6.3-32.5c-1-5.6-1.7-11.3-2.2-17c-0.2-2.7-0.7-5.5-1.6-8.1c-0.9-2.5-2.1-4.9-3.1-7.2c-2.2-4.6-3-9.4-3.8-13.8
			s-1.5-8.6-2.4-12.4s-1.8-7.1-2.8-10s-2.1-5.3-2.5-7.4s-0.7-3.8-0.9-4.9c-0.1-0.5-0.2-0.9-0.2-1.3C39.6,257.3,39.6,257.1,39.6,257z
			"/>
	</g>
	<g id="freepik--speech-bubble--inject-2_1_">
		<path class="st5" d="M392.2,48.1h-4c0,1.9-1.5,3.4-3.4,3.4c0,0-0.1,0-0.1,0c-1.4,0-2.6-0.8-3.1-2.1c-0.4-1.1-0.3-2.3,0.3-3.2
			c0.7-1.1,2.2-2.1,4.8-1.7v-9h-3.9v5.3c-3.3,1-5.6,4-5.5,7.5c0,5.8,5.2,7.2,7.5,7.2C386.5,55.5,392.3,55.1,392.2,48.1z"/>
		<rect x="382.8" y="30" class="st5" width="4" height="3.7"/>
		<path class="st4" d="M414,42.8c0-0.2,0-0.3,0-0.5c0-0.4,0-0.8,0-1.5c0-0.3,0-0.7,0-1.1c-0.1-0.4-0.1-0.8-0.2-1.3
			c-0.1-0.5-0.1-1-0.2-1.5l-0.4-1.7c-0.7-2.9-2-5.7-3.6-8.3c-4.8-7.6-12.9-12.6-21.9-13.4c-1.3-0.1-2.7-0.1-4-0.1
			c-0.7,0-1.4,0-2,0.1l-2.1,0.3c-2.8,0.5-5.6,1.5-8.1,2.8c-2.7,1.4-5.1,3.2-7.3,5.3c-2.2,2.2-4.1,4.8-5.5,7.6
			c-1.5,2.9-2.5,6.1-3,9.3c-0.1,0.8-0.2,1.7-0.2,2.5c-0.1,0.8-0.1,1.7,0,2.5c0.2,5.4,1.9,10.6,4.9,15.1v-0.3
			c-1.4,3.5-2.8,6.9-4.1,10.2l-0.2,0.6l0.6-0.2l10.9-3l-0.3-0.1c3.7,2.8,7.9,4.7,12.5,5.5c2.1,0.4,4.2,0.5,6.4,0.4
			c1,0,2.1-0.1,3.1-0.3l1.5-0.2c0.5-0.1,1-0.2,1.4-0.3c6.7-1.7,12.6-5.7,16.6-11.4c1.5-2.1,2.7-4.4,3.6-6.8c0.2-0.5,0.4-1,0.5-1.5
			s0.3-1,0.4-1.4c0.1-0.4,0.2-0.9,0.3-1.3s0.1-0.8,0.2-1.2c0.1-0.8,0.2-1.4,0.3-2c0-0.6,0-1.1,0-1.5s0-0.7,0-0.9S414,42.8,414,42.8
			c0,0.1,0,0.2,0,0.4c0,0.2,0,0.5-0.1,0.9s-0.1,0.9-0.1,1.5c0,0.6-0.2,1.3-0.3,2c-1.9,11.3-10.4,20.4-21.5,23.2
			c-0.5,0.1-0.9,0.3-1.4,0.3l-1.5,0.2c-1,0.2-2,0.3-3,0.3c-2.1,0.1-4.2,0-6.3-0.4c-4.4-0.8-8.6-2.7-12.2-5.4l-0.1-0.1h-0.1l-10.9,3
			l0.4,0.4l4.1-10.2l0.1-0.2l-0.1-0.2c-2-3-3.4-6.3-4.1-9.8c-0.3-1.6-0.6-3.3-0.6-4.9c0-0.8,0-1.6,0-2.4c0-0.8,0.1-1.6,0.2-2.4
			c0.4-3.2,1.3-6.3,2.8-9.1c1.4-2.8,3.2-5.3,5.4-7.5c2.1-2.1,4.5-3.8,7.1-5.2c2.5-1.3,5.2-2.2,7.9-2.8l2-0.3c0.7-0.1,1.3-0.1,2-0.1
			c1.3-0.1,2.6,0,3.9,0.1c8.8,0.8,16.8,5.6,21.6,13c1.7,2.5,2.9,5.2,3.7,8.1l0.5,1.7c0.1,0.5,0.2,1,0.3,1.5c0.1,0.5,0.1,0.9,0.2,1.3
			s0,0.8,0.1,1.1c0,0.6,0.1,1.1,0.1,1.5C414,42.4,414,42.6,414,42.8z"/>
	</g>
	<g id="freepik--question-mark--inject-2_1_">
		<path class="st7" d="M115.8,160.7h57.8c0,0,0-48.5,50.4-49.4c26.2-0.5,39.7,16.7,45.3,29.8c6.4,15.3,4.5,32.6-4.1,46.8
			c-9.8,16.1-30.9,32.4-69.8,25.5l-0.4,128.7h57.1v-76.3c0,0,80.1-20.7,80.1-109c0-84.4-68.3-102.7-105-103.9
			c-20.4-0.7-27.8-1.5-53.1,2.1C141.9,59.6,115.2,97,115.8,160.7z"/>
		<rect x="194.8" y="369" class="st7" width="58" height="54.1"/>
		<path class="st5" d="M91.9,160.7h57.8c0,0,0-48.5,50.4-49.4c26.2-0.5,39.7,16.7,45.2,29.8c6.4,15.3,4.5,32.6-4.1,46.8
			c-9.8,16.1-31.3,30.8-70.2,24v130.2h57.1v-76.3c0,0,80.1-20.7,80.1-109c0-84.4-75.7-104.1-108.1-104.1
			C175.3,52.8,90.8,58.8,91.9,160.7z"/>
		<linearGradient id="SVGID_2_" gradientUnits="userSpaceOnUse" x1="91.8996" y1="197.4641" x2="308.22" y2="197.4641">
			<stop  offset="1.058200e-02" style="stop-color:#6D0000"/>
			<stop  offset="0.1036" style="stop-color:#7E0000"/>
			<stop  offset="0.393" style="stop-color:#AD0000"/>
			<stop  offset="0.6493" style="stop-color:#CF0000"/>
			<stop  offset="0.8604" style="stop-color:#E30000"/>
			<stop  offset="1" style="stop-color:#EB0000"/>
		</linearGradient>
		<path class="st8" d="M91.9,160.7h57.8c0,0,0-48.5,50.4-49.4c26.2-0.5,39.7,16.7,45.2,29.8c6.4,15.3,4.5,32.6-4.1,46.8
			c-9.8,16.1-31.3,30.8-70.2,24v130.2h57.1v-76.3c0,0,80.1-20.7,80.1-109c0-84.4-75.7-104.1-108.1-104.1
			C175.3,52.8,90.8,58.8,91.9,160.7z"/>
		<rect x="170.9" y="369" class="st5" width="58" height="54.1"/>
		<linearGradient id="SVGID_3_" gradientUnits="userSpaceOnUse" x1="170.86" y1="396.0191" x2="228.82" y2="396.0191">
			<stop  offset="1.058200e-02" style="stop-color:#6D0000"/>
			<stop  offset="0.1036" style="stop-color:#7E0000"/>
			<stop  offset="0.393" style="stop-color:#AD0000"/>
			<stop  offset="0.6493" style="stop-color:#CF0000"/>
			<stop  offset="0.8604" style="stop-color:#E30000"/>
			<stop  offset="1" style="stop-color:#EB0000"/>
		</linearGradient>
		<rect x="170.9" y="369" class="st9" width="58" height="54.1"/>
		<path class="st4" d="M206.6,111.6c-0.3,0-0.6,0-0.9,0c-0.6,0-1.4-0.2-2.5-0.2c-3-0.1-6.1,0-9.1,0.4c-4.5,0.6-8.8,1.6-13.1,3.1
			c-2.5,0.9-4.9,1.9-7.3,3.1c-2.5,1.3-4.9,2.8-7.1,4.6c-2.2,1.8-4.1,3.9-5.8,6.2c-1.6,2.1-3.1,4.3-4.4,6.6
			c-2.2,3.9-3.9,8.1-5.2,12.4c-0.8,2.9-1.4,5.9-1.7,8.9c-0.1,1.1-0.1,1.9-0.2,2.5c0,0.3,0,0.6-0.1,0.9c0-0.3,0-0.6,0-0.9
			c0-0.6,0-1.4,0.1-2.5c0.2-3,0.8-6.1,1.6-9c1.2-4.4,2.9-8.6,5.1-12.5c1.3-2.3,2.8-4.6,4.4-6.7c1.7-2.3,3.7-4.4,5.9-6.3
			c2.2-1.8,4.6-3.4,7.2-4.7c2.4-1.2,4.8-2.3,7.3-3.2c4.3-1.5,8.7-2.5,13.2-3c3-0.4,6.1-0.4,9.1-0.2c0.8,0.1,1.6,0.2,2.5,0.3
			C206,111.5,206.3,111.5,206.6,111.6z"/>
		<path class="st4" d="M293.6,101.3c0,0-0.1-0.1-0.2-0.2s-0.3-0.4-0.5-0.7l-1.9-2.7c-0.4-0.6-0.9-1.3-1.4-1.9l-1.8-2.2l-2.1-2.5
			c-0.8-0.9-1.6-1.7-2.5-2.7s-1.8-1.9-2.8-2.9c-1-1-2.1-1.9-3.2-2.9c-0.6-0.5-1.1-1-1.7-1.5l-1.9-1.5c-1.3-1-2.5-2-3.9-3
			c-6-4.3-12.3-8-18.9-11.2l-5.3-2.4l-5.2-2c-1.7-0.7-3.5-1.2-5.1-1.8s-3.3-1.1-5-1.5l-4.8-1.3c-1.6-0.4-3.1-0.7-4.6-1
			s-2.9-0.6-4.3-0.8l-4-0.6c-2.5-0.4-4.9-0.5-6.9-0.7c-1-0.1-2-0.2-2.8-0.2l-2.4-0.1l-3.3-0.1h-0.9h-0.3c0.1,0,0.2,0,0.3,0h0.9h3.3
			h2.4c0.9,0,1.8,0.1,2.8,0.2c2,0.2,4.4,0.2,6.9,0.7l4,0.5c1.4,0.2,2.8,0.5,4.3,0.8s3,0.6,4.6,1l4.8,1.2c1.7,0.4,3.3,1,5,1.5
			s3.4,1,5.1,1.8l5.3,2L251,65c6.7,3.2,13,6.9,19,11.3c1.4,1,2.6,2.1,3.9,3.1l1.9,1.3c0.6,0.5,1.1,1,1.7,1.5l3.2,3
			c1,1,1.9,2,2.8,2.9s1.7,1.8,2.5,2.7l2,2.6l1.8,2.2c0.5,0.7,0.9,1.4,1.3,2c0.8,1.2,1.4,2.1,1.8,2.8l0.5,0.7
			C293.5,101.2,293.5,101.2,293.6,101.3z"/>
		<path class="st4" d="M287.6,225.3c-0.1,0.2-0.3,0.4-0.4,0.6l-1.4,1.6c-0.6,0.7-1.3,1.6-2.2,2.6c-0.9,1-1.8,2.1-3,3.3
			c-1.2,1.2-2.4,2.5-3.8,3.8s-2.9,2.7-4.6,4.2c-7.1,6.2-15,11.6-23.4,16.1c-1.9,1-3.8,2-5.5,2.8s-3.4,1.6-4.9,2.2s-2.9,1.2-4.1,1.6
			s-2.3,0.9-3.2,1.1l-2,0.6c-0.2,0.1-0.5,0.2-0.7,0.2c0.2-0.1,0.4-0.2,0.7-0.3l2-0.7c0.9-0.3,1.9-0.7,3.1-1.2s2.6-1,4.1-1.7
			s3.2-1.4,4.9-2.3s3.6-1.8,5.5-2.8c3.8-2.1,7.9-4.6,12.1-7.4c4.1-2.8,7.9-5.8,11.2-8.6c1.6-1.4,3.2-2.8,4.6-4.1s2.7-2.6,3.8-3.8
			c1.2-1.2,2.2-2.3,3.1-3.2s1.6-1.8,2.2-2.5l1.4-1.6C287.2,225.6,287.4,225.5,287.6,225.3z"/>
		<path class="st4" d="M227.1,337.6c-0.1,0-0.3-16.1-0.3-35.9s0.1-35.9,0.3-35.9s0.3,16.1,0.3,35.9S227.3,337.6,227.1,337.6z"/>
		<path class="st4" d="M229.3,419.4c-0.1,0-0.3-11.3-0.3-25.2s0.1-25.2,0.3-25.2s0.3,11.3,0.3,25.2S229.5,419.4,229.3,419.4z"/>
	</g>
	<g id="freepik--Character--inject-2_2_">
		<path class="st5" d="M286.2,153c-1,2,2.7,3.6,4.9,4.3c2.2,0.5,4.5,0.7,6.7,0.5c3-0.2,6.1-0.4,8.7-1.9c2.3-1.4,4.1-3.4,5.2-5.9
			c1.1-2.4,2-4.9,2.6-7.5C314.3,142.5,290.7,144.1,286.2,153z"/>
		<g class="st10">
			<path d="M286.2,153c-1,2,2.7,3.6,4.9,4.3c2.2,0.5,4.5,0.7,6.7,0.5c3-0.2,6.1-0.4,8.7-1.9c2.3-1.4,4.1-3.4,5.2-5.9
				c1.1-2.4,2-4.9,2.6-7.5C314.3,142.5,290.7,144.1,286.2,153z"/>
		</g>
		<path class="st5" d="M352.9,146.6c3.9,2.8,8.6,4.2,13.3,4.2c2.3,0.1,4.5-0.6,6.3-2c0.8-0.7,1.4-1.6,2.1-2.3
			c0.5-0.5,1.2-0.8,1.7-1.3c0.5-0.5,0.8-1.2,0.7-1.9c-0.2-0.9-0.7-1.6-1.4-2.2c-2.7-1.5-6-1.5-9.1-1.4c-3.1,0.1-6.2,0.7-9.1,1.8
			c-2.4,0.8-5,2-6.2,4.2"/>
		<g class="st10">
			<path d="M377.1,143.3c-0.4-0.8-1-1.5-1.8-2c-2.7-1.5-5.6-1.7-8.7-1.6c-3.1,0.1-6.2,0.7-9.1,1.8c-2.4,0.8-5,2-6.2,4.2l1.5,0.9
				c3.9,2.8,8.6,4.2,13.3,4.2c2.3,0.1,4.5-0.6,6.4-2c0.8-0.7,1.4-1.6,2.1-2.3c0.5-0.5,1.2-0.8,1.7-1.3
				C377,144.7,377.2,144,377.1,143.3z"/>
		</g>
		<path class="st5" d="M306.8,182.5l49.8,0.7c0.4,0,0.6-0.3,0.6-0.7c0-0.1,0-0.1,0-0.2l-5.9-18.2c0,0,0.9-9.1,2-20.1
			c1.8-16.6,4.2-37.6,4.3-37.5c-3.4-9.6-23.5-11.2-23.5-11.2l-22.9,1.4l-0.8-1.4l-6.6,3.1c-1.4,0.7-2.8,1.5-4.1,2.3
			c-4.4,2.9-14.9,9.6-16.8,17.1c-4.4,17.3,3.1,36.5,3.1,36.5l4.8-3.8c1.2-0.9,2.5-1.8,3.8-2.6l9.7,25.9c-1.2,0.7-1.9,2-2.1,3.3
			C302.1,179.3,303.2,181.8,306.8,182.5"/>
		<g class="st6">
			<path d="M328.2,152c1.6-8.5,0.8-17.2-0.1-25.8c-2.8,7-2.7,15-5.6,21.9c-0.4,0.7-0.6,1.5-0.8,2.3c-0.2,0.8,0.1,1.7,0.7,2.3
				c0.8,0.7,2,0.3,3.1,0.2C326.4,152.7,327.3,152.4,328.2,152"/>
		</g>
		<g class="st10">
			<path d="M309.8,171.7c4,1.4,8.3-1.2,12.5-1.7c2.8-0.3,5.6,0.3,8.4,0.8c5.6,0.9,11.3,1.1,17,0.4c0.9,0,1.7-0.3,2.5-0.6
				c0.8-0.6,1.3-1.5,1.3-2.5c-9.4-1-18.8-1.5-28.3-2.5c-2.3-0.4-4.7-0.3-7.1,0.2c-2.8,0.9-5,3.1-7,5.3"/>
		</g>
		<path class="st5" d="M375.7,140c-4.1-9.2-18.4-34.5-18.4-34.5l-11.1,13.9l2.6,27.4c0,0,5.9-6.6,22.3-6.7c2.4,0.1,4.7,1.3,6.1,3.2
			L375.7,140z"/>
		<path class="st4" d="M309,135.2c-0.8-1.9-1.4-4-1.9-6c-0.6-2-1.1-4-1.4-6.1c0.8,1.9,1.4,4,1.9,6
			C308.3,131.1,308.7,133.1,309,135.2z"/>
		<path class="st4" d="M345.3,117.6c0.4,0.3,0.7,0.5,1,0.9c0.9,0.9,1.7,1.8,2.5,2.7c2.6,3.2,4.4,6.9,5.3,10.9
			c0.5,2.2,0.6,4.5,0.3,6.7c-0.3,2.1-0.6,3.9-0.9,5.4c-0.3,1.5-0.4,2.8-0.5,3.6c0,0.4,0,0.9-0.1,1.3c-0.1-0.4-0.1-0.9-0.1-1.4
			c0-1.2,0.2-2.4,0.3-3.7c0.2-1.5,0.6-3.4,0.8-5.4c0.2-2.2,0.1-4.4-0.4-6.5c-0.9-3.9-2.6-7.6-5.1-10.7
			C346.7,118.9,345.3,117.7,345.3,117.6z"/>
		<path class="st4" d="M335.2,180.3c-0.3,0.2-0.7,0.3-1.1,0.3c-0.4,0.1-0.9,0.2-1.3,0.3c-0.5,0.1-1.1,0.2-1.7,0.2
			c-1.5,0.1-3.1,0.1-4.6,0c-1.9-0.2-3.7-0.6-5.5-1.1c-1.8-0.6-3.5-1.3-5.2-2.2c-1.3-0.7-2.6-1.6-3.8-2.6c-0.5-0.4-0.9-0.8-1.3-1.2
			c-0.3-0.3-0.6-0.6-0.9-0.9c-0.3-0.3-0.5-0.6-0.7-0.9c0.1-0.1,1.1,1.1,3.2,2.7c1.2,0.9,2.5,1.7,3.8,2.4c1.6,0.9,3.3,1.6,5.1,2.1
			c1.8,0.5,3.6,0.9,5.4,1.1c1.5,0.2,3,0.2,4.5,0.1C333.6,180.6,335.1,180.2,335.2,180.3z"/>
		<path class="st4" d="M350.5,174.6c0.2,0.5,0.4,1,0.4,1.5c0.2,1.2,0.1,2.5-0.3,3.6c-0.3,1.2-1,2.3-2,3.1c-0.7,0.6-1.3,0.8-1.3,0.8
			s0.4-0.4,1.1-1c0.8-0.8,1.4-1.9,1.7-3C350.9,176.9,350.4,174.6,350.5,174.6z"/>
		<path class="st4" d="M347.8,178.2c0.4,2.1-0.4,4.3-2.1,5.5c-0.1-0.1,0.8-1.1,1.4-2.6C347.7,179.5,347.7,178.2,347.8,178.2z"/>
		<path class="st4" d="M338.9,145.3c-0.5,0.9-1.1,1.8-1.8,2.6c-0.5,0.9-1.1,1.8-1.8,2.6c0.2-1.1,0.6-2,1.3-2.9
			C337.2,146.6,338,145.8,338.9,145.3z"/>
		<path class="st4" d="M304.7,121c-0.8-0.4-1.5-0.9-2.2-1.5c-3.6-2.3-7.6-3.8-11.8-4.4c-0.9-0.1-1.8-0.2-2.6-0.4
			c0.9-0.1,1.8-0.1,2.7,0c4.3,0.4,8.5,1.9,12,4.5C303.5,119.8,304.1,120.4,304.7,121z"/>
		<path class="st4" d="M357.3,105.2c-1.8,1.4-3.5,3-5,4.7c-1.4,1.8-2.7,3.8-3.8,5.8c0.1-0.7,0.4-1.3,0.7-1.9
			c0.7-1.5,1.6-2.9,2.7-4.2c1.1-1.3,2.3-2.4,3.7-3.4C356.1,105.8,356.7,105.4,357.3,105.2z"/>
		<path class="st4" d="M336.7,96.9c0.1,0.1,0.2,0.3,0.2,0.5c0.2,0.5,0.4,0.9,0.5,1.4c0.4,1.8,0.4,3.6,0,5.4c-0.6,2.7-2,5.1-4.1,6.9
			c-2.6,2.2-5.8,3.3-9.2,3.3c-3.4,0-6.6-1.1-9.3-3.1c-2.2-1.6-3.9-3.8-5.1-6.2c-0.8-1.6-1.4-3.4-1.7-5.1c-0.1-0.5-0.2-1-0.2-1.5
			c0-0.2,0-0.3,0-0.5c0,0,0.1,0.7,0.4,1.9c0.4,1.7,1,3.4,1.8,5c1.2,2.4,3,4.4,5.1,6c2.6,1.9,5.8,3,9,3c3.2,0.1,6.4-1,8.9-3.1
			c2-1.8,3.4-4.1,4-6.6c0.4-1.7,0.5-3.5,0.2-5.3C336.9,97.6,336.6,97,336.7,96.9z"/>
		<g class="st6">
			<path d="M340.2,147c0-0.5-0.1-1.1-0.5-1.3c-0.3-0.1-0.6-0.1-0.9,0c-0.3,0.2-0.5,0.4-0.7,0.6c-1.2,1.2-2.1,2.7-2.7,4.3l4.9-0.4
				C340.3,149.1,340.2,148.1,340.2,147z"/>
		</g>
		<g class="st6">
			<path d="M356.5,136.7c-0.5-2.8-1.7-5.4-3.6-7.6c2.1,6.9,1.4,10.8,0.2,15.6l0.3-0.7C354.8,141.3,356.8,139.5,356.5,136.7z"/>
		</g>
		<polygon class="st11" points="346.7,369.2 343.7,414 324.2,413.8 321.1,367.2 		"/>
		<path class="st5" d="M344.3,408.1v1.3c0,0,22,8.8,22.2,13l-43.7-0.2l0.7-14.5C330,410.7,336.8,411.1,344.3,408.1z"/>
		<path class="st12" d="M327.9,412.3c-0.9,0.3-1.4,1.1-1.2,2c0.2,0.9,1.1,1.4,2,1.3c0.9-0.3,1.5-1.2,1.3-2.1
			c-0.3-0.9-1.3-1.4-2.2-1.1"/>
		<path class="st4" d="M322.8,422.2l0.2-3.5l41.8,1.5c0,0,1.9,0.9,1.7,2.2L322.8,422.2z"/>
		<path class="st4" d="M344.4,409.5c0,0.2-1.1,0.3-2.1,1c-1,0.7-1.6,1.6-1.8,1.5s0.1-1.3,1.4-2.1S344.5,409.3,344.4,409.5z"/>
		<path class="st4" d="M349,411.5c0,0.2-0.9,0.6-1.6,1.5s-0.9,1.9-1.2,1.8s-0.3-1.2,0.6-2.3C347.7,411.4,349,411.3,349,411.5z"/>
		<path class="st4" d="M351.5,417c-0.2,0-0.5-1,0.1-2.2s1.5-1.6,1.6-1.5s-0.5,0.8-1,1.8C351.8,416.1,351.8,416.9,351.5,417z"/>
		<path class="st4" d="M343.1,41.2c1.1-2.8-0.2-6.2-2.7-8c-2.6-1.7-5.7-2.3-8.7-1.7c-3,0.6-5.8,1.6-8.5,3c-3.7-3.8-9.8-3.8-13.6-0.1
			c-1.5,1.5-2.4,3.4-2.7,5.4c-3.3-0.8-6.6,1.2-7.5,4.5c-0.3,1.2-0.2,2.4,0.2,3.6l13.5,4.8l14.8,26c5,4.2,12.4,3.6,16.6-1.3
			c3.5-4.1,3.8-10,0.7-14.4c0.8-0.7,1.5-1.6,2.1-2.6c2.4-1.4,4.1-3.7,4.8-6.4C353.4,48.2,348.9,41.8,343.1,41.2z"/>
		<path class="st11" d="M334.2,95.3c-0.8-4.2-1.4-7.1-1.4-7.1c0,0,8-3.1,7.4-14.2c-0.3-5.5-2.4-14.3-4.3-21.3
			c-1.8-6.4-7.7-13.4-14-11.4l-19.1,9.3c-1.9,0.6-2.2,2.4-1.8,4.4v1l7.4,30.7l3.1,13.7c1.4,5.8,7,9.6,12.9,8.8l0,0
			c6.3-0.9,10.7-6.7,9.9-13.1C334.3,95.8,334.2,95.5,334.2,95.3z"/>
		<path class="st4" d="M335.8,60c0.2,0.7-0.3,1.5-1,1.7c-0.7,0.2-1.5-0.2-1.7-0.9c0,0,0,0,0-0.1c-0.2-0.7,0.3-1.5,1-1.7
			C334.8,58.8,335.5,59.2,335.8,60C335.8,60,335.8,60,335.8,60z"/>
		<path class="st4" d="M334.9,57.9c-0.1,0.2-1.4-0.3-2.8,0s-2.4,1.3-2.6,1.1s0-0.4,0.4-0.9c0.6-0.6,1.3-1,2-1.1
			c0.8-0.2,1.6-0.1,2.3,0.3C334.8,57.5,335,57.8,334.9,57.9z"/>
		<path class="st4" d="M321.3,63.3c0.2,0.7-0.3,1.5-1,1.7c-0.7,0.2-1.5-0.2-1.7-0.9c0,0,0,0,0,0c-0.2-0.7,0.3-1.5,1-1.7
			C320.3,62.2,321,62.6,321.3,63.3C321.2,63.3,321.2,63.3,321.3,63.3z"/>
		<path class="st4" d="M320.5,61.4c-0.1,0.2-1.4-0.3-2.8,0s-2.4,1.3-2.6,1.1c-0.2-0.1,0-0.4,0.4-0.9c0.6-0.6,1.3-1,2-1.1
			c0.8-0.2,1.6-0.1,2.3,0.2C320.4,61,320.6,61.3,320.5,61.4z"/>
		<path class="st4" d="M328,70.8c0.7-0.4,1.5-0.7,2.3-0.9c0.4-0.1,0.7-0.3,0.7-0.5c-0.1-0.4-0.2-0.8-0.5-1.1l-1.7-2.7
			c-2.4-3.8-4.3-6.9-4.1-7c0.1-0.1,2.2,2.9,4.7,6.7l1.7,2.7c0.3,0.4,0.5,0.9,0.5,1.4c-0.1,0.3-0.2,0.5-0.5,0.7
			c-0.2,0.1-0.4,0.2-0.6,0.2C329.7,70.6,328.9,70.8,328,70.8z"/>
		<path class="st13" d="M332.8,88.2c-5.1,1.1-10.3,0.9-15.2-0.8c0,0,5.2,6.8,15.8,3.6L332.8,88.2z"/>
		<path class="st4" d="M320.8,59.3c-0.1,0.4-1.6,0.4-3.4,0.8s-3.1,1.1-3.4,0.7c-0.1-0.2,0.1-0.6,0.6-1c0.7-0.6,1.5-1,2.4-1.2
			c0.9-0.2,1.8-0.2,2.7,0C320.5,58.8,320.8,59.1,320.8,59.3z"/>
		<path class="st4" d="M334.3,53.2c-0.2,0.4-1.5,0.3-3,0.6s-2.6,0.8-3,0.5c-0.2-0.2,0-0.5,0.4-1c0.7-0.6,1.5-0.9,2.3-1.1
			c0.8-0.2,1.7-0.1,2.5,0.2C334.2,52.7,334.4,53,334.3,53.2z"/>
		<path class="st4" d="M307.5,43.4c0.8,4.1,4.8,6.7,8.9,5.9c0.5-0.1,0.9-0.2,1.3-0.4c1.6-0.6,3.2-1.8,4.8-1.3s2.3,2.9,3.8,3.7
			c2.3,1.3,5-0.9,7.5-0.7c2,0.2,3.5,1.7,5.1,3s3.7,2.3,5.4,1.3c-0.4-1.7-1-3.3-1.8-4.8c-0.8-1.5-2.1-2.8-3.7-3.5
			c-0.9-0.3-1.8-0.5-2.7-0.9c-1.8-0.9-2.6-3-3.9-4.6c-1.7-2-4.4-3-7-2.8c-2.2,0.2-4.2,1.3-6.4,1.2c-1.6-0.1-3.1-0.8-4.8-0.8
			c-3.1,0-5.5,2.8-7.2,5.4"/>
		<path class="st4" d="M318,45.7c-1.4-0.1-4.4-0.4-5.4-1.4c-2-2.2-5.1-3.2-8-2.6c-2.9,0.9-5,3.6-5,6.7c-3.6,0.9-6.4,3.6-7.3,7.2
			c-0.9,3.7,0,7.6,2.5,10.5c0.6,0.8,1.1,1.5,1.6,2.4c-0.7,0.8-1.3,1.7-1.8,2.7c-2.3,5.1,3.9,7,3.9,7c0,3.4,3.1,3.4,5.2,3.4
			c2,0,3.1,5.4,4.7,5.2L306.9,70c0.2,0.1,0.5,0.1,0.7,0.1c3.8,0.1,2.8-7.1,1.6-9c1.1-1.4,2.1-2.9,2.8-4.6c0.7-2.5,0.7-5.1,0.1-7.7
			C313.5,48.7,318.6,45.7,318,45.7z"/>
		<path class="st11" d="M307.4,70.9c-0.4-1.7-2.2-2.8-3.9-2.4c-0.5,0.1-0.9,0.3-1.3,0.6c-1,0.9-1.5,2.3-0.9,4.7
			c1.6,6.4,7.8,3.5,7.7,3.3C309,77,308.1,73.5,307.4,70.9z"/>
		<path class="st13" d="M306.5,75.2c0,0-0.1,0.1-0.3,0.2c-0.2,0.2-0.5,0.3-0.8,0.2c-0.7-0.1-1.6-1-1.9-2.2c-0.2-0.5-0.2-1.1-0.1-1.7
			c0-0.4,0.3-0.8,0.6-1.1c0.3-0.1,0.6-0.1,0.7,0.2c0.1,0.2,0.1,0.3,0.2,0.3s0.1-0.2,0-0.4c-0.1-0.1-0.2-0.3-0.4-0.3
			c-0.2-0.1-0.4-0.1-0.7,0c-0.5,0.2-0.9,0.7-0.9,1.3c-0.1,0.6-0.1,1.3,0.1,1.9c0.2,1.2,1.1,2.1,2.3,2.4c0.4,0,0.7-0.1,1-0.4
			C306.5,75.4,306.5,75.2,306.5,75.2z"/>
		<path class="st14" d="M341.9,61.9c0,0,0.6-0.4,1.4-1.4c1.1-1.4,1.8-3.2,2-5c0.1-1.2,0-2.5-0.4-3.7c-0.4-1.4-1.2-2.6-2.3-3.6
			c-2.5-2.2-6-2.9-9.2-1.8c-0.3,0.1-0.6,0.3-0.9,0.4s-0.5,0.3-0.8,0.4l-0.4,0.2v-0.4c0-0.8-0.3-1.5-0.8-2.1c-0.5-0.6-1.2-1-1.9-1.3
			c-1.4-0.6-2.9-0.7-4.3-0.3c-2.8,0.6-5.1,1.9-7.3,2.2c-1.7,0.3-3.5-0.1-5-1c-0.4-0.3-0.7-0.6-1-1c-0.2-0.3-0.2-0.4-0.2-0.4
			c0.4,0.5,0.8,0.9,1.3,1.3c1.5,0.8,3.2,1.1,4.8,0.8c1.2-0.2,2.3-0.6,3.4-1c1.3-0.5,2.6-0.9,3.9-1.3c0.7-0.2,1.5-0.3,2.3-0.2
			c0.8,0,1.6,0.2,2.3,0.5c0.8,0.3,1.4,0.8,2,1.4c0.6,0.7,0.9,1.5,0.9,2.4l-0.4-0.2l0.8-0.5c0.3-0.1,0.6-0.3,0.9-0.4
			c3.3-1.1,7-0.4,9.7,1.9c1.1,1,1.9,2.3,2.4,3.8c0.9,3.1,0.2,6.5-1.9,9c-0.3,0.4-0.7,0.7-1.1,1C342.2,61.7,342.1,61.8,341.9,61.9z"
			/>
		<path class="st14" d="M340.6,39.3c-0.7-0.3-1.4-0.6-2.1-0.7c-0.8-0.1-1.7,0-2.5,0.2c-1,0.3-1.9,1-2.5,1.8l-0.3,0.3l-0.1-0.4
			c-1.1-2.5-3.4-4.2-6.1-4.5c-2.1-0.1-4.1,0.5-5.9,1.7c-1.5,1-3,1.8-4.6,2.4c-1.1,0.4-2.3,0.6-3.5,0.4c-0.3-0.1-0.6-0.1-0.9-0.3
			c-0.2-0.1-0.3-0.1-0.3-0.2c0,0,0.4,0.1,1.3,0.2c1.2,0.1,2.3-0.1,3.4-0.6c1.6-0.7,3.1-1.5,4.5-2.5c0.9-0.5,1.8-1,2.8-1.4
			c1.1-0.4,2.2-0.5,3.4-0.4c2.9,0.3,5.4,2.2,6.5,4.9h-0.4c0.7-0.9,1.7-1.6,2.8-1.9c0.9-0.2,1.7-0.3,2.6-0.1c0.6,0.1,1.1,0.3,1.6,0.6
			C340.3,39,340.5,39.1,340.6,39.3z"/>
		<path class="st5" d="M327.5,73.8c-0.5-0.4-1.1-0.6-1.7-0.5c-0.7,0.2-1.3,0.6-1.7,1.2l0,0c0,0,0,0.1-0.1,0.1l0,0
			c-0.1,0.2-0.2,0.5-0.2,0.8c0.1,0.6,0.5,1.1,1,1.3c0.9,0.4,1.9,0.3,2.6-0.4C328.1,75.6,328.1,74.5,327.5,73.8z"/>
		<path class="st4" d="M328,76.9c-0.1,0-0.2-0.3-0.4-0.7c-0.7-1.1-2-1.7-3.3-1.5c-0.5,0.1-0.8,0.2-0.8,0.1s0.2-0.3,0.7-0.5
			c0.7-0.2,1.5-0.2,2.1,0.1c0.7,0.3,1.2,0.9,1.5,1.6C328.1,76.5,328,76.9,328,76.9z"/>
		<path class="st5" d="M307.6,78.1c0,0,0.3,0.5-0.1,1.3c-0.2,0.5-0.6,0.8-1.1,1c-0.6,0.2-1.2,0.1-1.8-0.2c-0.5-0.3-0.9-0.9-1-1.5
			c0-0.5,0.1-1,0.4-1.4c0.5-0.7,1.1-0.7,1.1-0.6s-0.4,0.2-0.8,0.8c-0.2,0.3-0.3,0.7-0.2,1.1c0.1,0.5,0.3,0.9,0.8,1.1
			c0.4,0.3,0.9,0.3,1.3,0.2c0.4-0.1,0.7-0.4,0.9-0.7C307.5,78.6,307.5,78.1,307.6,78.1z"/>
		<path class="st5" d="M304.2,77.8c0,0,0,0.3-0.5,0.6c-0.7,0.3-1.4,0-1.7-0.7c-0.1-0.3-0.1-0.6,0-0.9c0.1-0.3,0.3-0.5,0.5-0.7
			c0.4-0.3,0.7-0.2,0.7-0.1s-0.2,0.1-0.5,0.4c-0.3,0.4-0.3,1.1,0.2,1.4c0.2,0.2,0.5,0.2,0.7,0.2C303.9,77.9,304.1,77.7,304.2,77.8z"
			/>
		<path class="st11" d="M315.2,166.6c0,0,24.8,1.4,39.4,1.6c11.3,0.1,16.4-2.9,18.7-10.2c1.9-6.1-2.2-17.8-2.2-17.8
			c-7.7,0-12.4,1.1-17.3,3.4l1.3,5.4l-39.9,3.4L315.2,166.6z"/>
		<path class="st13" d="M363.3,154.6c-1.1-1.4-2.3-2.6-3.7-3.7c-1.5-0.9-3.1-1.6-4.8-2.1c0.5-0.1,1.1,0,1.6,0.1
			c1.3,0.3,2.5,0.8,3.5,1.6c1.1,0.7,2,1.7,2.7,2.7C363.2,154,363.4,154.6,363.3,154.6z"/>
		<path class="st11" d="M306.1,143.5L306.1,143.5c0,0-7.7,1.8-13.3,5.6l6,16.3c2,5.3,8.1,8,13,5.2c7.5-4.3,10.2-16.9,10.2-16.9
			l8.3-35.9l-13.7-8.6L306.1,143.5"/>
		<path class="st11" d="M316.5,109.2l0.6-11.8l-3.1-12c-0.2-0.7-0.3-1.5,0.3-1.9c0.6-0.4,1.3-0.4,1.9,0.1c0.8,0.9,4.8,11.4,4.8,11.4
			s6.1-3.6,7.1-3.8s2.4,3.1,2.5,3.3c0,0.7,0,1.5,0,2.2c0,0,3.8,0.1,4.1,0.6c0.3,1,0.4,2.1,0.4,3.2c0,0,1.6,0.5,1.8,1.7
			s0.8,3.2,0,3.6c-0.8,0.4-2.3,1.3-2.3,1.3s-0.6,6.1-0.8,6.7s-3.7,4-3.7,4L316.5,109.2z"/>
		<path class="st13" d="M303.8,170.8c0,0,0.4,0.2,1.1,0.5c1.1,0.4,2.3,0.5,3.5,0.3c1.9-0.3,3.7-1.1,5.1-2.4c1.9-1.7,3.5-3.8,4.8-6
			c0.7-1.3,1.4-2.7,1.9-4.1c0.5-1.6,1-3.2,1.3-4.8c0.8-3.4,1.6-7,2.5-10.9c1.8-7.7,3.8-16.3,6-25.6v-0.1h0c0.7-0.7,1.4-1.4,2.1-2.1
			c0.3-0.4,0.7-0.7,1-1.1c0.2-0.2,0.3-0.4,0.5-0.6c0.1-0.2,0.2-0.4,0.2-0.6c0.3-2,0.5-4.1,0.7-6.2V107l0.1-0.1l1.9-1.1
			c0.1-0.1,0.4-0.2,0.5-0.3c0.1-0.1,0.2-0.2,0.2-0.3c0-0.3,0-0.7,0-1c-0.1-0.7-0.2-1.5-0.5-2.2c-0.3-0.6-0.9-1.1-1.6-1.3l-0.2-0.1
			v-0.2c0-0.6-0.1-1.2-0.1-1.8c0-0.3-0.1-0.6-0.1-0.9c0-0.1-0.1-0.3-0.1-0.4c0-0.1,0,0-0.1-0.1c-0.1,0-0.1-0.1-0.2-0.1
			c-1.2-0.3-2.4-0.4-3.7-0.4h-0.3v-0.3c0-0.6,0-1.3,0-2c0-0.2-0.1-0.5-0.2-0.7c-0.1-0.2-0.2-0.5-0.3-0.7c-0.2-0.5-0.5-0.9-0.8-1.3
			c-0.1-0.2-0.3-0.4-0.5-0.5c-0.1-0.1-0.4-0.1-0.5-0.1c-0.5,0.2-1,0.4-1.4,0.6c-1.9,1-3.7,2-5.5,3.1l-0.3,0.2l-0.1-0.3
			c-0.9-2.4-1.9-4.7-2.8-7c-0.5-1.2-0.9-2.3-1.4-3.4c-0.1-0.5-0.6-0.9-1.1-1c-0.5-0.2-1,0-1.3,0.5c-0.1,0.2-0.2,0.5-0.1,0.7
			c0,0.2,0.1,0.6,0.2,0.8c0.2,0.6,0.3,1.2,0.5,1.7c0.3,1.1,0.6,2.3,0.9,3.4c0.6,2.3,1.2,4.5,1.7,6.6v0.1c-0.2,4.1-0.4,8-0.6,11.8v0
			l-9.1,29.6l-2.6,8.3c-0.3,0.9-0.5,1.7-0.7,2.2c-0.2,0.5-0.3,0.7-0.3,0.7s0-0.3,0.2-0.8l0.6-2.2c0.6-1.9,1.4-4.7,2.5-8.3
			c2.2-7.2,5.2-17.4,8.9-29.7v0.1c0.2-3.7,0.3-7.7,0.5-11.8v0.1c-0.6-2.1-1.2-4.4-1.8-6.6l-0.9-3.4c-0.1-0.6-0.3-1.2-0.5-1.7
			c-0.1-0.3-0.2-0.6-0.2-0.9c0-0.3,0-0.7,0.2-1c0.2-0.3,0.5-0.6,0.8-0.7c0.7-0.2,1.4,0,2,0.4c0.3,0.2,0.4,0.5,0.5,0.9l1.4,3.4
			c0.9,2.3,1.9,4.6,2.8,7l-0.4-0.1c1.8-1.1,3.6-2.1,5.5-3.1c0.5-0.3,1-0.5,1.5-0.7c0.2-0.1,0.3-0.1,0.5-0.1c0.2,0,0.3,0.1,0.5,0.2
			c0.2,0.2,0.5,0.4,0.6,0.6c0.3,0.4,0.6,0.9,0.9,1.4c0.1,0.3,0.3,0.5,0.4,0.7c0.1,0.3,0.2,0.6,0.3,0.9c0,0.7,0,1.4,0,2l-0.3-0.3
			c1.3,0,2.6,0.2,3.8,0.4c0.1,0,0.2,0.1,0.3,0.1c0.1,0.1,0.2,0.2,0.3,0.3c0.1,0.2,0.1,0.3,0.2,0.5c0.1,0.3,0.1,0.6,0.1,0.9
			c0.1,0.6,0.1,1.2,0.1,1.8l-0.2-0.2c0.8,0.2,1.5,0.8,1.9,1.6c0.2,0.8,0.4,1.5,0.5,2.3c0.1,0.4,0.1,0.8,0,1.2c0,0.2-0.2,0.5-0.4,0.6
			c-0.2,0.1-0.3,0.2-0.5,0.3l-1.9,1l0.1-0.2c-0.2,2.1-0.4,4.1-0.7,6.2l-0.1,0.4c0,0.2-0.1,0.3-0.2,0.4c-0.1,0.2-0.3,0.4-0.5,0.6
			c-0.3,0.4-0.7,0.8-1,1.1c-0.7,0.7-1.4,1.4-2.1,2.1l0.1-0.1c-2.2,9.3-4.2,17.9-6.1,25.6c-0.9,3.9-1.8,7.5-2.6,10.8
			c-0.3,1.6-0.8,3.2-1.3,4.8c-0.5,1.4-1.2,2.8-1.9,4.2c-1.3,2.3-2.9,4.3-4.9,6.1c-1.5,1.3-3.3,2.1-5.3,2.3c-1.2,0.2-2.4,0-3.6-0.4
			c-0.3-0.1-0.6-0.2-0.9-0.4L303.8,170.8z"/>
		<path class="st13" d="M330.7,96.7c0,0.1-0.3,0.1-0.9,0.1c-0.7,0-1.3,0.1-2,0.2c-0.6,0.2-1.2,0.5-1.7,0.9c-0.4,0.3-0.5,0.6-0.6,0.6
			c-0.1,0,0-0.4,0.3-0.9c0.5-0.6,1.1-1,1.8-1.2c0.7-0.2,1.4-0.2,2.1-0.1C330.3,96.5,330.7,96.6,330.7,96.7z"/>
		<path class="st13" d="M327.8,96.8c-0.1-0.1-0.1-0.4,0-0.7c0.1-0.3,0.3-0.6,0.5-0.5s0.1,0.4,0,0.7
			C328.1,96.6,327.9,96.8,327.8,96.8z"/>
		<path class="st13" d="M335.3,100.4c-1,0.3-2,0.4-3,0.4c-0.6,0-1.3,0.3-1.7,0.8c-0.3,0.4-0.2,0.8-0.3,0.8s-0.3-0.3-0.1-0.9
			c0.1-0.3,0.4-0.6,0.7-0.8c0.4-0.2,0.8-0.3,1.2-0.4C333.3,100.1,334.3,100.2,335.3,100.4z"/>
		<path class="st13" d="M334.7,104c0.1,0,0.2,0.7,0.2,1.6s-0.2,1.6-0.3,1.6c-0.1,0-0.2-0.8-0.2-1.7S334.5,104,334.7,104z"/>
		<path class="st12" d="M338.8,130.9l0.9-3.1c0.1-0.4,0.6-0.7,1-0.6c0.1,0,0.3,0.1,0.4,0.2l1.2,1.2l0.7-2.9c0.1-0.4,0.6-0.7,1-0.6
			c0.2,0.1,0.4,0.2,0.5,0.4l1.6,3.4L338.8,130.9z"/>
		<path class="st12" d="M346.2,130.4c-1.1,0.5-2.3,0.9-3.5,1.1c-1.2,0.4-2.4,0.6-3.7,0.6C341.4,131.2,343.8,130.6,346.2,130.4z"/>
		<path class="st12" d="M286.8,113.3c0,0-0.4,0.4-0.9,1.2c-0.7,1.2-1.2,2.4-1.4,3.8c-0.3,2-0.3,4-0.2,6c0.1,2.3,0.3,4.8,0.6,7.4
			c0.5,4.4,1.2,8.9,2.1,13.2c0.4,1.7,0.7,3,0.9,4c0.1,0.4,0.2,0.8,0.3,1.1c0.1,0.3,0.1,0.4,0.1,0.4s0-0.1-0.1-0.4
			c-0.1-0.2-0.2-0.7-0.3-1.1c-0.3-0.9-0.6-2.3-1-3.9c-1-4.4-1.7-8.8-2.2-13.2c-0.3-2.6-0.4-5.1-0.5-7.4c-0.2-2-0.1-4,0.2-6
			c0.2-1.4,0.7-2.6,1.4-3.8C286.1,114.1,286.4,113.7,286.8,113.3z"/>
		<path class="st12" d="M307.8,99.7l-0.2,0.1l-0.7,0.3c-0.6,0.3-1.4,0.7-2.4,1.2c-2.6,1.4-5.1,3-7.5,4.7c-2.9,2-5.4,3.8-7.2,5.1
			l-2.2,1.6l-0.6,0.4c-0.1,0.1-0.1,0.1-0.2,0.1c0.1-0.1,0.1-0.1,0.2-0.2l0.6-0.4l2.1-1.6c1.8-1.4,4.4-3.2,7.2-5.2
			c2.4-1.7,5-3.3,7.6-4.7c1-0.5,1.8-0.9,2.4-1.2l0.7-0.3C307.8,99.7,307.8,99.7,307.8,99.7z"/>
		<path class="st12" d="M355.5,106.2c-0.1,0-0.1-0.1-0.2-0.1l-0.5-0.4c-0.6-0.5-1.1-0.9-1.8-1.3c-2-1.3-4.2-2.4-6.4-3.3
			c-2.2-0.9-4.5-1.6-6.9-2.3c-0.9-0.3-1.6-0.4-2.1-0.6l-0.6-0.1c-0.1,0-0.1,0-0.2-0.1h0.2l0.6,0.1c0.5,0.1,1.2,0.3,2.1,0.5
			c2.3,0.6,4.7,1.3,6.9,2.2c2.3,0.9,4.4,2,6.4,3.3C354.1,104.8,354.8,105.5,355.5,106.2z"/>
		<path class="st12" d="M308.1,182.5c-0.1,0-0.3-0.1-0.4-0.1c-0.3-0.2-0.7-0.3-1-0.5c-1.1-0.7-1.9-1.7-2.2-2.9
			c-0.3-1.2-0.1-2.5,0.4-3.7c0.2-0.4,0.3-0.7,0.6-1c0.2-0.2,0.3-0.3,0.3-0.3c-0.3,0.4-0.5,0.9-0.7,1.3c-0.5,1.1-0.6,2.4-0.3,3.6
			c0.3,1.2,1,2.2,2,2.9C307.6,182.3,308.1,182.5,308.1,182.5z"/>
		<path class="st12" d="M304.9,171.7c0.2,0.4,0.4,0.8,0.5,1.3c0.2,0.4,0.3,0.9,0.3,1.3c-0.2-0.4-0.4-0.8-0.5-1.3
			C305,172.6,304.9,172.2,304.9,171.7z"/>
		<path class="st4" d="M318.4,395.9l30.5-0.1l-0.6-105.5L348.1,183l-41.3-0.5l-7.4,14c-3,5.6-5,11.8-5.7,18.1
			c-0.5,4.9,3.1,20.7,4.4,24.7l11.4,36.1L318.4,395.9z"/>
		<path class="st4" d="M357,183.2l33.5,91.4c4,11.9,2.5,25-4.1,35.7l-38.9,76l-21.9-27.4l32.6-68l-28.7-46.6l4.8-61l13.5-0.2
			L357,183.2z"/>
		<path class="st14" d="M345.3,213.8c0,0,0,0.2,0,0.5s0,0.8,0.1,1.4c0.1,1.2,0.2,3,0.3,5.3c0.2,4.6,0.5,11.3,1,19.5s0.8,18,1.3,28.9
			c0.2,5.4,0.5,11.1,0.8,17.1c0.2,3,0.1,6,0.1,9s0,6.2,0,9.3c0,25.1,0.1,47.9,0.1,64.4c0,8.2,0,14.9,0,19.5c0,2.3,0,4.1,0,5.3
			c0,0.6,0,1,0,1.4s0,0.5,0,0.5s0-0.2,0-0.5v-1.4c0-1.2,0-3-0.1-5.3c0-4.6-0.1-11.3-0.1-19.5c-0.1-16.5-0.2-39.2-0.3-64.4
			c0-3.1,0-6.2,0-9.3s0.1-6.1-0.1-9c-0.3-5.9-0.5-11.6-0.7-17.1c-0.5-10.9-0.9-20.7-1.2-28.9s-0.6-14.9-0.8-19.5
			c-0.1-2.3-0.1-4.1-0.2-5.3c0-0.6,0-1,0-1.4S345.3,213.8,345.3,213.8z"/>
		<path class="st14" d="M344.5,185c0.1,0.3,0.2,0.7,0.2,1c0.1,0.6,0.2,1.6,0.4,2.7c0.3,2.3,0.5,5.5,0.7,9.1s0.2,6.8,0.1,9.1
			c0,1.2-0.1,2.1-0.1,2.8c0,0.3,0,0.7-0.1,1c-0.1-1.2-0.2-2.5-0.1-3.8c0-2.3-0.1-5.5-0.3-9.1s-0.4-6.7-0.5-9
			C344.6,187.5,344.5,186.3,344.5,185z"/>
		<path class="st14" d="M337.8,187c0,0.1-0.5,0.3-0.7,1.1c-0.1,0.4,0.1,0.9,0.4,1.2c0.4,0.4,1,0.5,1.5,0.3c0.5-0.3,0.8-0.8,0.8-1.3
			c0-0.5-0.3-0.9-0.7-1.1C338.7,187.1,338.3,187,337.8,187c0,0,0.1-0.1,0.4-0.2c0.4-0.1,0.8-0.1,1.1,0.1c0.6,0.2,1,0.8,1,1.4
			c0.1,1-0.6,1.9-1.6,2c-0.6,0.1-1.1-0.1-1.5-0.5c-0.4-0.4-0.6-1.1-0.4-1.6c0.1-0.4,0.3-0.7,0.6-0.9C337.7,187,337.8,187,337.8,187z
			"/>
		<path class="st14" d="M321.8,185.2c0.1,0.3,0.2,0.7,0.3,1c0.2,0.9,0.2,1.8,0.1,2.7c-0.1,1.3-0.5,2.7-1.1,3.9
			c-1.5,3.1-4.4,5.2-7.8,5.6c-1.3,0.2-2.7,0.1-4-0.1c-0.9-0.2-1.7-0.5-2.5-0.9c-0.3-0.1-0.6-0.3-0.8-0.6c1.1,0.5,2.3,0.9,3.4,1.1
			c5.7,1.2,11.2-2.5,12.4-8.2c0.1-0.3,0.1-0.6,0.1-0.8C322,187.7,322,186.4,321.8,185.2z"/>
		<path class="st14" d="M361.1,194c-0.7,0.1-1.3,0-1.9-0.2c-1.5-0.5-2.9-1.3-3.9-2.5c-1.1-1.2-1.8-2.6-2.1-4.2
			c-0.2-0.6-0.2-1.3,0-1.9c0.1,0,0.1,0.7,0.4,1.9c0.8,2.9,3,5.3,5.8,6.4C360.3,193.8,361.1,193.9,361.1,194z"/>
		<path class="st14" d="M373,292.5c-0.5,0.6-1.1,1-1.8,1.4c-0.7,0.4-1.5,0.8-2.3,1c-1,0.3-2.1,0.2-3.1-0.1c-1.7-0.7-3.2-1.8-4.3-3.4
			c-0.5-0.6-0.9-1.2-1.2-1.9c0.5,0.5,1,1.1,1.5,1.7c1.1,1.4,2.5,2.5,4.1,3.1c1.7,0.5,3.5,0.2,5-0.7
			C371.7,293.2,372.3,292.8,373,292.5z"/>
		<path class="st14" d="M365.3,298.3c-1.2-1.2-2.2-2.6-3.2-4c-1.1-1.3-2-2.8-2.7-4.3c1.2,1.2,2.2,2.6,3.2,4
			C363.7,295.4,364.6,296.8,365.3,298.3z"/>
		<path class="st15" d="M314.1,217.3c-0.1,0-0.5-0.5-0.8-1.3s-0.4-1.4-0.3-1.5s0.5,0.5,0.8,1.3C314.1,216.6,314.2,217.3,314.1,217.3
			z"/>
		<path class="st15" d="M333.5,220.1c-0.1,0-0.3-0.5-0.3-1.1s0.1-1.1,0.3-1.1c0.2,0,0.3,0.5,0.3,1.1S333.6,220.1,333.5,220.1z"/>
		<path class="st15" d="M325.5,230.6c-0.1,0-0.3-0.6-0.4-1.4s0-1.4,0.2-1.4s0.3,0.6,0.4,1.4S325.6,230.6,325.5,230.6z"/>
		<path class="st15" d="M311,238.3c-0.1,0.1-0.5-0.3-1.1-0.7s-1-0.7-1-0.8s0.7-0.1,1.3,0.4S311.1,238.3,311,238.3z"/>
		<path class="st15" d="M336.6,248.1c-0.1-0.1,0-0.5,0.3-1c0.3-0.5,0.6-0.8,0.8-0.7c0.1,0.1,0,0.5-0.3,1
			C337,247.9,336.7,248.2,336.6,248.1z"/>
		<path class="st15" d="M320.8,250.9c-0.1,0-0.3-0.8-0.3-1.8s0.1-1.9,0.3-1.9c0.1,0,0.3,0.8,0.3,1.9S320.9,250.9,320.8,250.9z"/>
		<path class="st15" d="M315.6,262.1c-0.1,0.1-0.6-0.1-1.2-0.5s-1-0.8-0.9-1s0.6,0.1,1.2,0.5C315.3,261.6,315.7,262,315.6,262.1z"/>
		<path class="st15" d="M331.6,266c0.1,0.1-0.3,0.4-0.7,0.6s-0.9,0.3-0.9,0.1s0.3-0.4,0.7-0.6S331.6,265.9,331.6,266z"/>
		<path class="st15" d="M320.8,284.3c-0.1,0.1-0.6-0.7-1.2-1.7c-0.5-1-0.8-1.9-0.7-2s0.6,0.7,1.1,1.7S320.9,284.2,320.8,284.3z"/>
		<path class="st15" d="M338.4,282.6c-0.1-0.1,0.1-0.7,0.5-1.5c0.4-0.8,0.9-1.3,1-1.3c0.2,0.1-0.1,0.7-0.5,1.5
			C339,282.1,338.6,282.7,338.4,282.6z"/>
		<path class="st15" d="M330.7,298.1c-0.1,0-0.1-0.8-0.3-1.8s-0.4-1.7-0.3-1.8c0.1-0.1,0.6,0.6,0.8,1.7S330.8,298.1,330.7,298.1z"/>
		<path class="st15" d="M322.4,307c-0.1,0.1-0.6-0.3-1.1-0.8c-0.5-0.6-0.8-1.1-0.7-1.2s0.6,0.3,1.1,0.8S322.5,306.9,322.4,307z"/>
		<path class="st15" d="M342.5,310.3c-0.1-0.1,0.3-0.6,0.8-1.2s1.1-0.9,1.2-0.8s-0.3,0.6-0.8,1.2C343.2,310,342.6,310.4,342.5,310.3
			z"/>
		<path class="st15" d="M330.9,323.6c-0.1,0-0.1-0.8,0-1.7c0.1-0.9,0.4-1.6,0.5-1.6c0.2,0,0.1,0.8,0,1.7
			C331.3,322.9,331.1,323.6,330.9,323.6z"/>
		<path class="st15" d="M323.2,330c-0.1,0.1-0.6-0.5-1-1.2c-0.4-0.7-0.6-1.3-0.5-1.4c0.1-0.1,0.6,0.4,1,1.1S323.3,329.9,323.2,330z"
			/>
		<path class="st15" d="M341.9,338.1c0.1,0.1-0.4,0.6-1.1,1.1c-0.7,0.5-1.4,0.8-1.4,0.7s0.4-0.6,1.1-1.1S341.8,338,341.9,338.1z"/>
		<path class="st15" d="M326.3,348.6c-0.1,0,0-0.9,0.1-1.9s0-1.8,0.2-1.8c0.2,0,0.4,0.8,0.3,1.9S326.4,348.7,326.3,348.6z"/>
		<path class="st15" d="M332.5,363.8c-0.1,0.1-0.5-0.3-1-0.8c-0.4-0.5-0.6-1-0.5-1.1s0.5,0.3,0.9,0.8
			C332.4,363.2,332.6,363.7,332.5,363.8z"/>
		<path class="st15" d="M325.7,373.9c-0.1,0.1-0.7-0.5-1.2-1.3c-0.6-0.8-0.9-1.5-0.8-1.6c0.1-0.1,0.7,0.5,1.2,1.3
			S325.8,373.8,325.7,373.9z"/>
		<path class="st15" d="M344.5,361.2c-0.1,0-0.1-0.4,0-0.8c0.1-0.4,0.4-0.7,0.5-0.6s0.1,0.4,0,0.8S344.7,361.2,344.5,361.2z"/>
		<path class="st15" d="M336.2,385.3c-0.1-0.1,0.1-0.8,0.3-1.7c0.2-0.9,0.3-1.6,0.4-1.6s0.3,0.8,0.1,1.8S336.3,385.4,336.2,385.3z"
			/>
		<path class="st15" d="M341.6,230.8c-0.1,0.1-0.5-0.3-0.7-0.9s-0.4-1.1-0.2-1.1c0.1-0.1,0.5,0.3,0.7,0.9S341.8,230.7,341.6,230.8z"
			/>
		<path class="st15" d="M327.8,199.6c0.1,0.1-0.6,0.7-1.4,1.5s-1.3,1.5-1.4,1.5s0.2-1,1-1.8S327.7,199.5,327.8,199.6z"/>
		<path class="st15" d="M340.1,199.3c-0.1,0-0.4-0.6-0.7-1.3s-0.7-1.2-0.6-1.3s0.7,0.3,1,1.1C340.2,198.6,340.2,199.2,340.1,199.3z"
			/>
		<path class="st15" d="M301.6,209.4c-0.1-0.1,0-0.7,0.3-1.5s0.6-1.4,0.8-1.3c0.1,0.1,0,0.7-0.3,1.5S301.8,209.5,301.6,209.4z"/>
		<path class="st15" d="M302.8,224.5c-0.1,0.1-0.7-0.2-1.3-0.7c-0.6-0.5-1-1-0.9-1.1c0.1-0.1,0.7,0.2,1.3,0.7
			S302.9,224.4,302.8,224.5z"/>
		<path class="st15" d="M328.1,187.6c-0.1,0-0.4-0.3-0.6-0.8c-0.2-0.5-0.3-1-0.1-1c0.1,0,0.4,0.3,0.6,0.8
			C328.2,187.2,328.2,187.6,328.1,187.6z"/>
		<path class="st15" d="M352.3,195c-0.1,0-0.1-0.6,0-1.3s0.4-1.3,0.5-1.2s0.1,0.6,0,1.4S352.4,195.1,352.3,195z"/>
		<path class="st15" d="M358,206.5c-0.1-0.1,0-0.8,0.4-1.7c0.4-0.9,0.8-1.5,0.9-1.5c0.1,0.1,0,0.8-0.4,1.7
			C358.5,205.9,358.1,206.5,358,206.5z"/>
		<path class="st15" d="M353.9,215.7c-0.1,0.1-0.6-0.6-1.1-1.5s-0.7-1.7-0.6-1.8c0.1-0.1,0.6,0.6,1.1,1.5S354.1,215.6,353.9,215.7z"
			/>
		<path class="st15" d="M362.6,224.9c-0.1,0,0-0.6,0.2-1.3c0.2-0.7,0.6-1.2,0.7-1.1c0.1,0.1,0,0.6-0.2,1.3
			C363.1,224.4,362.8,224.9,362.6,224.9z"/>
		<path class="st15" d="M354.8,233.9c-0.1,0.1-0.4-0.2-0.7-0.6s-0.4-0.8-0.2-0.9s0.4,0.2,0.7,0.6S355,233.9,354.8,233.9z"/>
		<path class="st15" d="M356.5,252.6c-0.1,0.1-0.7-0.4-1.4-1.1c-0.7-0.7-1.1-1.4-1-1.5c0.1-0.1,0.7,0.4,1.4,1.1
			C356.2,251.8,356.6,252.5,356.5,252.6z"/>
		<path class="st15" d="M366.6,241.9c-0.1,0.1-0.7-0.4-1.2-1.1s-0.9-1.4-0.8-1.5s0.7,0.4,1.2,1.1
			C366.4,241.1,366.8,241.8,366.6,241.9z"/>
		<path class="st15" d="M372.2,256.6c-0.1-0.1,0.1-0.8,0.5-1.7s0.8-1.5,1-1.5s-0.1,0.8-0.5,1.7S372.3,256.7,372.2,256.6z"/>
		<path class="st15" d="M360.4,268.8c-0.1,0.1-0.6-0.5-1.2-1.1s-1.2-1-1.2-1.1c0.1-0.1,0.8,0.1,1.5,0.8
			C360.2,268,360.5,268.7,360.4,268.8z"/>
		<path class="st15" d="M361.1,281.3c0,0.1-0.5,0.3-1.1,0.3s-1.1-0.1-1.1-0.3s0.5-0.3,1.1-0.3S361.1,281.2,361.1,281.3z"/>
		<path class="st15" d="M373.3,277.8c-0.1-0.1,0.1-0.7,0.3-1.5s0.3-1.5,0.4-1.5s0.3,0.7,0.1,1.6
			C373.9,277.3,373.4,277.9,373.3,277.8z"/>
		<path class="st15" d="M385.4,282c-0.1,0-0.5-0.7-0.8-1.6s-0.5-1.7-0.3-1.7s0.5,0.6,0.8,1.6C385.4,281.2,385.5,282,385.4,282z"/>
		<path class="st15" d="M383.4,299.2c-0.1-0.1,0.2-0.9,0.7-1.9s1-1.7,1.1-1.6s-0.2,0.9-0.7,1.9S383.6,299.3,383.4,299.2z"/>
		<path class="st15" d="M372.4,309.3c-0.1,0-0.5-0.6-0.9-1.5c-0.4-0.9-0.6-1.7-0.4-1.8c0.1-0.1,0.5,0.6,0.9,1.5
			C372.3,308.5,372.5,309.3,372.4,309.3z"/>
		<path class="st15" d="M360.2,313.2c0,0.1-0.4,0.3-0.9,0.3c-0.5,0-0.9-0.1-0.9-0.3s0.4-0.3,0.9-0.3S360.2,313.1,360.2,313.2z"/>
		<path class="st15" d="M367.2,329.3c-0.1,0-0.4-0.5-0.6-1.3s-0.3-1.4-0.1-1.5c0.1,0,0.4,0.5,0.6,1.3
			C367.3,328.6,367.3,329.2,367.2,329.3z"/>
		<path class="st15" d="M358.3,323.9c-0.1-0.1,0-0.5,0.3-1s0.7-0.9,0.8-0.8c0.1,0.1,0,0.5-0.3,1.1
			C358.8,323.6,358.5,324,358.3,323.9z"/>
		<path class="st15" d="M358.2,341.6c-0.1,0-0.3-0.7-0.4-1.5c-0.1-0.9-0.1-1.6,0.1-1.6s0.3,0.7,0.4,1.5
			C358.3,340.9,358.3,341.6,358.2,341.6z"/>
	</g>
</g>
</svg>
