<svg xmlns="http://www.w3.org/2000/svg"
    xmlns:xlink="http://www.w3.org/1999/xlink" width="950" height="812" viewBox="0 0 950 812">
    <defs>
        <style>.a{fill:#707070;}.b{clip-path:url(#a);}.c{fill:#f5f5f5;}.d{fill:#e0e0e0;}.e{fill:#ff000b;}.f{opacity:0.15;}.g,.p{fill:#fff;}.h{opacity:0.07;}.i{fill:#263238;}.j{fill:#ebebeb;}.k{opacity:0.1;}.l{opacity:0.2;}.m{opacity:0.3;}.n{fill:#455a64;}.o{fill:#37474f;}.p{opacity:0.4;}.q{fill:none;}.r{fill:#ffa8a7;}.s{fill:#f28f8f;}</style>
        <clipPath id="a">
            <rect class="a" width="950" height="812" transform="translate(140 7070)"/>
        </clipPath>
    </defs>
    <g class="b" transform="translate(-140 -7070)">
        <g transform="translate(176.546 7070)">
            <path class="c" d="M128.557,746.365c171.2,87.513,448.777,87.513,619.959,0s171.2-229.448,0-316.961-448.744-87.644-619.959,0S-42.641,658.819,128.557,746.365Z"/>
            <path class="d" d="M223.321,743.839a15.1,15.1,0,0,1-7.463-1.857L150.146,704.05a8.741,8.741,0,0,1,0-15.691L335.292,581.522,299.152,560.65c-5.263-3.031-4.807-7.3-4.546-8.522s1.6-5.3,7.642-5.915l198.49-20.237h1.352a12.783,12.783,0,0,1,10.868,5.849h0a6.113,6.113,0,0,1,.7,5.067L478.969,650.069a9.919,9.919,0,0,1-9.532,7.283,10.676,10.676,0,0,1-5.263-1.434l-42.233-24.457L230.8,741.786A14.96,14.96,0,0,1,223.321,743.839Z"/>
            <ellipse class="d" cx="96.768" cy="52.596" rx="96.768" ry="52.596" transform="translate(639.821 557.684)"/>
            <path class="e" d="M766.325,556.918s.864-19.911,9.6-35.96c8.75-16.033,21.589-26.494,34.119-28.432s23.512,8.994,10.591,17.891c-12.921,8.913-36.3,18.738-45.231,49.3Z"/>
            <path class="f" d="M766.325,556.918s.864-19.911,9.6-35.96c8.75-16.033,21.589-26.494,34.119-28.432s23.512,8.994,10.591,17.891c-12.921,8.913-36.3,18.738-45.231,49.3Z"/>
            <path class="g" d="M769.649,551.541H769.5a.65.65,0,0,1-.424-.847h0c10.982-33.7,35.341-49.142,46.7-52.6a.655.655,0,0,1,.831.407c0,.016,0,.016.016.033a.669.669,0,0,1-.456.831c-11.112,3.405-34.966,18.591-45.8,51.749A.723.723,0,0,1,769.649,551.541Z"/>
            <path class="e" d="M837.316,547.142c-1.026,2.835-3.894,4.464-6.6,5.768s-5.621,2.737-6.957,5.426c-2.656,5.442,2.835,12.432,0,17.744a9.374,9.374,0,0,1-6.11,4.073,57.993,57.993,0,0,1-6.24.994c-.994.049-2,.049-3,0a13.475,13.475,0,0,0-8.587,1.532c-4.073,2.623-4.888,7.951-7.137,12.237a19.793,19.793,0,0,1-13.377,9.76,13.689,13.689,0,0,1-7.251,0l-.424-.228h0a9.418,9.418,0,0,1-.8-.815v-.13c-.945-2.656,0-5.556,0-8.359a2.616,2.616,0,0,0,0-.505c-.342-3.242-.652-6.469-.961-9.695-.57-5.98-1.059-11.943-1.45-17.923-.228-3.894-.994-8.147.391-11.878,1.532-4.073,6.11-4.546,7.479-8.6.57-1.629.815-3.34,1.369-4.97a13.912,13.912,0,0,1,11.063-9.092c7.87-.978,15.414,4.937,23.235,3.8a54.856,54.856,0,0,0,5.98-1.6c6.306-1.629,13.817-.342,17.793,4.807A8.165,8.165,0,0,1,837.316,547.142Z"/>
            <g class="h">
                <path class="i" d="M837.316,547.142c-1.026,2.835-3.894,4.464-6.6,5.768s-5.621,2.737-6.957,5.426c-2.656,5.442,2.835,12.432,0,17.744a9.374,9.374,0,0,1-6.11,4.073,33.644,33.644,0,0,1-6.24.994c-.994.049-2,.049-3,0a13.475,13.475,0,0,0-8.587,1.532c-4.073,2.623-4.888,7.951-7.137,12.237a19.793,19.793,0,0,1-13.377,9.76,13.689,13.689,0,0,1-7.251,0l-.424-.228h0a1.221,1.221,0,0,1-.326-.244,2.262,2.262,0,0,1-.473-.57v-.13c-1.222-2.167,0-5.931,0-8.359a2.616,2.616,0,0,0,0-.505c-.342-3.242-.652-6.469-.961-9.695-.57-5.98-1.059-11.943-1.45-17.923-.228-3.894-.994-8.147.391-11.878,1.532-4.073,6.11-4.546,7.479-8.6.57-1.629.815-3.34,1.369-4.97a13.912,13.912,0,0,1,11.063-9.092c7.87-.978,15.414,4.937,23.235,3.8a54.856,54.856,0,0,0,5.98-1.6c6.306-1.629,13.817-.342,17.793,4.807A8.165,8.165,0,0,1,837.316,547.142Z"/>
            </g>
            <path class="g" d="M769.16,591.119h0a.71.71,0,0,1-.538-.8c7.886-41.679,50.69-50.625,60.873-50.608a.668.668,0,0,1,0,1.336h0c-9.907,0-51.667,8.75-59.521,49.533a.646.646,0,0,1-.733.554A.179.179,0,0,1,769.16,591.119Z"/>
            <path class="g" d="M815.6,567.037a1.093,1.093,0,0,1-.375-.163,35.875,35.875,0,0,0-29.915-6.11.692.692,0,0,1-.8-.538.67.67,0,0,1,.505-.8,37.312,37.312,0,0,1,31.1,6.5.669.669,0,0,1,0,.945h0A.692.692,0,0,1,815.6,567.037Z"/>
            <path class="j" d="M226.5,10.314,208.413,20.742c.081-.8.13-1.58.147-2.379v-5.23c0-9.32-6.55-13.1-14.615-8.44a28.452,28.452,0,0,0-8.7,8.375c-1.32-11.715-10.509-16.082-21.671-9.646-12.09,6.974-21.866,23.935-21.866,37.867v7.821a20.518,20.518,0,0,0,1.857,9.076l-15.023,8.668A17.881,17.881,0,0,0,120.394,80.9c0,5.181,3.633,7.251,8.147,4.693L226.5,29.035a17.826,17.826,0,0,0,8.147-14.029C234.58,9.825,230.963,7.74,226.5,10.314Z"/>
            <path class="j" d="M301.645,56.865,288.4,64.523a15.92,15.92,0,0,0,.1-1.76V59.016c0-6.827-4.79-9.6-10.7-6.11a20.829,20.829,0,0,0-6.4,6.11c-.961-8.587-7.707-11.78-15.87-7.055A35.348,35.348,0,0,0,239.5,79.692v5.752a15.335,15.335,0,0,0,1.352,6.648l-11,6.355a13.152,13.152,0,0,0-5.931,10.184c0,3.8,2.656,5.312,5.931,3.422l71.806-41.467a13.132,13.132,0,0,0,5.931-10.3C307.511,56.523,304.855,54.959,301.645,56.865Z"/>
            <path class="e" d="M508.982,506.18v13.475a63.74,63.74,0,0,1-2.2,14.876L473.951,641.874a6.128,6.128,0,0,1-2.249,3.308,5.818,5.818,0,0,1-6.6.179L422.039,620.5,229.92,731.407a13.713,13.713,0,0,1-6.6,1.6,13.479,13.479,0,0,1-6.55-1.548l-61.346-35.439a14.6,14.6,0,0,1-6.648-11.454V671.088a15.072,15.072,0,0,1,6.746-11.471l167.271-96.54-18.216-10.509a14.629,14.629,0,0,1-6.632-11.454v-13.3a8.579,8.579,0,0,1,2.656-6.11h0a8.14,8.14,0,0,1,4.9-2.346l195.866-20.074a6.835,6.835,0,0,1,6.469,3A6.943,6.943,0,0,1,508.982,506.18Z"/>
            <path class="k" d="M223.321,706.429v26.494a13.479,13.479,0,0,1-6.55-1.548l-61.346-35.439a14.6,14.6,0,0,1-6.648-11.454v-13.41a13.565,13.565,0,0,1,2.037-6.517Z"/>
            <path class="k" d="M347.512,548.723,322.68,563l-18.216-10.509a14.659,14.659,0,0,1-6.632-11.471V527.8a8.514,8.514,0,0,1,2.656-6.11h0Z"/>
            <path class="k" d="M471.7,620.431V645.1a5.761,5.761,0,0,1-6.6.179l-43.064-24.848V591.754Z"/>
            <path class="l" d="M422.039,591.754v28.677L229.92,731.326a13.713,13.713,0,0,1-6.6,1.6V706.429Z"/>
            <path class="l" d="M508.982,506.18v13.475a63.74,63.74,0,0,1-2.2,14.876L473.951,641.874a6.128,6.128,0,0,1-2.249,3.308V620.415L507.825,502.2A7.129,7.129,0,0,1,508.982,506.18Z"/>
            <path class="e" d="M678.469,98.512l-58.25-33.63a94.755,94.755,0,0,0-6.632-30.046A56.27,56.27,0,0,1,647.4,40.685l1.287.75C665.418,51.1,676.4,70.763,678.469,98.512Z"/>
            <path class="m" d="M678.469,98.512l-58.25-33.63a94.755,94.755,0,0,0-6.632-30.046A56.27,56.27,0,0,1,647.4,40.685l1.287.75C665.418,51.1,676.4,70.763,678.469,98.512Z"/>
            <path class="n" d="M669.948,107.212h0a2.85,2.85,0,0,0-1.939.212l-21.8,9.825a2.588,2.588,0,0,1-3.454-1.206,4.043,4.043,0,0,1-.179-.473c-.864-2.754-15.789-5.931-17.011-8.293l8.293-20.807Z"/>
            <path class="i" d="M633.955,86.519h0a2.039,2.039,0,0,0-1.89,0l-16.1-37.264a3.334,3.334,0,0,0-1.287-4.285l-15.772-9.092a3.272,3.272,0,0,0-4.334.994L576.454,64.116a6.086,6.086,0,0,1-4.742,2.363,43.127,43.127,0,0,0-6.322.293V46.8l-12.106-6.99h0a2.031,2.031,0,0,0-2.037.179L526.791,54.128a6.7,6.7,0,0,0-2.982,4.627L521.365,86a9.122,9.122,0,0,1-2.542,5.1A149.722,149.722,0,0,0,505.2,105.5a4.743,4.743,0,0,1-4.807,1.369l-15.707-5.507a3.852,3.852,0,0,0-4.416,1.646l-18.021,31.186a3.825,3.825,0,0,0,.8,4.644l12.611,10.884a4.647,4.647,0,0,1,1.222,4.856,145.2,145.2,0,0,0-5.67,18.982,8.977,8.977,0,0,1-3.145,4.741l-22.42,15.756a6.666,6.666,0,0,0-2.509,4.823v28.286a2,2,0,0,0,.88,1.809h0l28.351,16.31-10.33,20.856a3.261,3.261,0,0,0,1.287,4.253l38.567,22.42a3.272,3.272,0,0,0,4.334-.994l17.532-17.939a2.017,2.017,0,0,0,.945,1.695L560.617,296.3l.961-28.123s-7.577-9.809-7.446-11.487l39.154-42.641a3.8,3.8,0,0,0,4.416-1.629l18.021-31.186a3.825,3.825,0,0,0-.8-4.644l17.336-55.236a6.559,6.559,0,0,0,2.493-4.807ZM539.044,205.529c-10.509,6.11-19.194,7.365-25.516,4.416-7.414-3.438,52.726-106.528,59.1-100.907,5.116,4.546,7.886,12.986,7.886,24.783-.081,26.428-18.624,58.511-41.467,71.709Z"/>
            <path class="n" d="M639.967,63.105,635.1,72.947,619.437,91,600.993,80.344,575.151,65.4a4.217,4.217,0,0,0,1.3-1.271l18.119-27.227a3.313,3.313,0,0,1,4.3-1.043L614.7,44.987,638.68,58.82A3.344,3.344,0,0,1,639.967,63.105Z"/>
            <path class="n" d="M469.763,176.591a7.217,7.217,0,0,1-1.646,1.727L445.7,194.074a6.036,6.036,0,0,0-1.548,1.792l37.638,21.768,29.785-16.9Z"/>
            <path class="n" d="M483.238,101.216a3.836,3.836,0,0,0-2.933,1.809l-18.021,31.186a3.859,3.859,0,0,0-.407,2.411l39.5,22.827,24.669-33.369Z"/>
            <path class="n" d="M589.278,60.661v8.962l-21.8,12.6L524.266,57.256a6.546,6.546,0,0,1,2.526-3.063L551.248,40.05a2.552,2.552,0,0,1,1.222-.375,1.692,1.692,0,0,1,.749.179l11.8,6.794.31.179,16.31,9.418Z"/>
            <path class="o" d="M670.844,137.356V109.07a1.818,1.818,0,0,0-2.77-1.792l-21.8,9.825a2.588,2.588,0,0,1-3.454-1.206,2.359,2.359,0,0,1-.179-.473,49.559,49.559,0,0,0-4.872-10.8,6.129,6.129,0,0,1-.326-5.279L651.976,70.03a3.334,3.334,0,0,0-1.287-4.285l-15.772-9.108a3.294,3.294,0,0,0-4.334,1.027L612.447,84.89a5.95,5.95,0,0,1-4.741,2.346,50.229,50.229,0,0,0-11.78,1.206,2.6,2.6,0,0,1-3.194-1.792,1.817,1.817,0,0,1-.081-.505L590.271,62.34a1.837,1.837,0,0,0-1.776-1.89,1.777,1.777,0,0,0-1.173.375L562.865,74.967a6.578,6.578,0,0,0-2.917,4.562l-2.46,27.276a9.123,9.123,0,0,1-2.542,5.1,149.712,149.712,0,0,0-13.622,14.4,4.743,4.743,0,0,1-4.807,1.369l-15.756-5.458a3.852,3.852,0,0,0-4.416,1.629l-18.021,31.2a3.825,3.825,0,0,0,.8,4.644l12.611,10.884a4.646,4.646,0,0,1,1.222,4.856,145.2,145.2,0,0,0-5.67,18.982,8.978,8.978,0,0,1-3.145,4.741l-22.42,15.756a6.666,6.666,0,0,0-2.509,4.823v28.286A1.834,1.834,0,0,0,482,249.815l21.8-9.825a2.588,2.588,0,0,1,3.454,1.206,4.049,4.049,0,0,1,.179.473,48.588,48.588,0,0,0,4.872,10.819,6.129,6.129,0,0,1,.326,5.279L498.1,287.079a3.276,3.276,0,0,0,1.238,4.3l15.772,9.108a3.257,3.257,0,0,0,4.334-1.027l18.119-27.227a6.1,6.1,0,0,1,4.725-2.363,47.81,47.81,0,0,0,11.8-1.206,2.6,2.6,0,0,1,3.194,1.841,2.2,2.2,0,0,1,.081.473l2.379,23.805a1.827,1.827,0,0,0,1.76,1.906,1.865,1.865,0,0,0,1.206-.375l24.457-14.143a6.591,6.591,0,0,0,2.917-4.579l2.46-27.243a9.123,9.123,0,0,1,2.542-5.1,147.4,147.4,0,0,0,13.589-14.4,4.7,4.7,0,0,1,4.823-1.369l15.707,5.507a3.861,3.861,0,0,0,4.416-1.646l18.021-31.2a3.843,3.843,0,0,0-.8-4.627l-12.611-10.884A4.646,4.646,0,0,1,637,181.772a151.446,151.446,0,0,0,5.67-19,9.136,9.136,0,0,1,3.145-4.741l22.42-15.756A6.536,6.536,0,0,0,670.844,137.356Zm-95.791,88.964c-22.86,13.182-41.386,2.493-41.386-23.9s18.526-58.494,41.386-71.676,41.386-2.509,41.386,23.887S597.9,213.105,575.053,226.319Z"/>
            <path class="e" d="M595.844,148.468l-10.9-6.289h-.1c-4.823-2.737-11.471-2.33-18.819,1.923-14.762,8.522-26.738,29.263-26.738,46.323,0,8.505,3,14.485,7.8,17.288h0l9.907,5.67,2.363-3.959a26.96,26.96,0,0,0,7.658-3c14.778-8.522,26.738-29.263,26.754-46.323a27.611,27.611,0,0,0-.864-6.827Z"/>
            <path class="k" d="M539.289,190.392c0,8.522,3,14.485,7.8,17.288h0L557,213.35l2.363-3.959a27.959,27.959,0,0,0,7.658-3,55.648,55.648,0,0,0,19.96-21.752l-38.73-22.42A55.572,55.572,0,0,0,539.289,190.392Z"/>
            <path class="p" d="M595.844,148.468l-10.9-6.289h-.13c-4.823-2.737-11.471-2.33-18.819,1.923a53.265,53.265,0,0,0-17.842,18.2l38.73,22.42a53.259,53.259,0,0,0,6.843-24.457,27.608,27.608,0,0,0-.864-6.827Z"/>
            <path class="e" d="M576.373,150c-14.778,8.522-26.738,29.263-26.738,46.323s11.96,23.968,26.738,15.43,26.738-29.263,26.738-46.323S591.151,141.446,576.373,150Z"/>
            <path class="o" d="M582.516,162.236a.375.375,0,0,1,.505,0,.878.878,0,0,1,.212.652v4.318a2.527,2.527,0,0,1-.179.912,7.166,7.166,0,0,1-.342.815l-3.194,6.811a3.7,3.7,0,0,1,3.357.815,5.785,5.785,0,0,1,1.3,4.367,15.658,15.658,0,0,1-2.037,8.147,15.326,15.326,0,0,1-5.768,5.638,8.955,8.955,0,0,1-3.357,1.271,4.274,4.274,0,0,1-2.493-.407,3.715,3.715,0,0,1-1.548-1.695,6.392,6.392,0,0,1-.57-2.623,1.625,1.625,0,0,1,.179-.733.86.86,0,0,1,.407-.489l3.34-1.939q.562-.318.831-.1l.652.473a1.832,1.832,0,0,0,.912.293,2.925,2.925,0,0,0,1.629-.554,6.73,6.73,0,0,0,2.037-1.857,3.968,3.968,0,0,0,.831-2.574c0-.961-.261-1.483-.831-1.6a3.03,3.03,0,0,0-2.037.554l-2.2,1.287a.354.354,0,0,1-.489,0,.869.869,0,0,1-.228-.652v-3.5a2.527,2.527,0,0,1,.179-.912q.2-.489.391-.88l2.786-5.98-6.909,3.976a.354.354,0,0,1-.489,0,.869.869,0,0,1-.228-.652v-4.3a1.926,1.926,0,0,1,.228-.9,1.346,1.346,0,0,1,.489-.635Z"/>
            <path class="e" d="M591.656,7.756l-.978-.57c-18.738-11.129-44.84-9.711-73.647,6.925C459.971,47.072,413.55,127.335,413.55,193.341S367.211,339.658,310.053,372.7a101.08,101.08,0,0,1-38.209,13.638,56.481,56.481,0,0,0,22.013,27.145l1.027.619c18.754,11.047,44.84,9.564,73.517-7.039,57.06-32.995,103.481-113.274,103.481-179.361S518.2,81.452,575.379,48.474A100.857,100.857,0,0,1,613.62,34.836a56.27,56.27,0,0,1,33.809,5.849Z"/>
            <path class="i" d="M409.851,263.355,460.2,252.063h-.1l-21.524-12.448L418.6,228.063a2.694,2.694,0,0,0-1.4-.407l-17.662-.994a2.9,2.9,0,0,1-2.982-2.77v-.1a96.036,96.036,0,0,0,0-17.043,8.4,8.4,0,0,1,2.037-5.214l28.27-2.3c1.206-1.466,24.343-23.789,24.343-23.789h-.13l-41.533-24.066a1.674,1.674,0,0,0-.8-.163c-11.96-6.909-32.93-19.064-33.418-19.357a3.4,3.4,0,0,0-2.037-.391l-20.612,2.037a5.714,5.714,0,0,0-4.5,3.145l-11.161,29.964a9.966,9.966,0,0,1-4.5,4.367c-2.183,1.027-4.367,2.183-6.566,3.438L304.334,161.91c-.864-.57-2.216-.212-3.34.978l-22.616,23.887a6.012,6.012,0,0,0-1.76,4.97l6.306,21.312a7.157,7.157,0,0,1-1.157,5.133,171.457,171.457,0,0,0-10.4,18.086,8.21,8.21,0,0,1-4.9,3.65l-19.357,4.66a6.348,6.348,0,0,0-4.383,3.65l-9.744,32.8a2.02,2.02,0,0,0,.733,2.379c.424.342,21.931,12.725,21.931,12.725a67.727,67.727,0,0,0,.375,8.782,8.355,8.355,0,0,1-1.923,5.214l-19.748,23.887a5.381,5.381,0,0,0-1.189,4.9l9.369,20.726a1.467,1.467,0,0,0,.587.668l41.6,24.066h0a.723.723,0,0,0,.13-.179l.619.375h0l33.451,19.341h0c.57-1.548,17.548-71.888,18.347-70.764l10.558,16.114a2.334,2.334,0,0,0,.326.375l20.123,11.683,21.7,12.579h0l-15.691-48.914C388.051,329.589,419.66,269.97,409.851,263.355ZM287.958,296.089l76.483-80.735a40.146,40.146,0,0,1,3.161,16.8,47.263,47.263,0,0,1,5.2-2.656q.244,2.664.244,5.621c0,26.494-18.526,58.494-41.386,71.708-1.678.961-3.324,1.809-4.888,2.542a43.374,43.374,0,0,1-.326-6C310.118,312.92,294.606,310.737,287.958,296.089Z"/>
            <path class="n" d="M284.618,384.287l-2.037-19.275-49.647-28.661a3.916,3.916,0,0,0,0,2.444L242.3,359.52a1.467,1.467,0,0,0,.587.668h.1Z"/>
            <path class="n" d="M290.908,274.223l-47.626-27.39a3.733,3.733,0,0,0-.7,1.271l-9.744,32.815a2.02,2.02,0,0,0,.733,2.379l.342.228,21.459,12.416h.13l19.96,11.552Z"/>
            <path class="n" d="M276.634,189.463l41.663,23.9,27.471-27.553-41.549-24.066h0c-.864-.554-2.2-.179-3.324.994l-22.648,23.887A7.255,7.255,0,0,0,276.634,189.463Z"/>
            <path class="n" d="M375.211,131.734a3.181,3.181,0,0,0-2.037-.391l-20.612,2.037a5.819,5.819,0,0,0-3.438,1.629L403.3,166.293l13.833-8.016-.391-2.509C416.76,155.784,375.9,132.158,375.211,131.734Z"/>
            <path class="o" d="M460.183,252.063h-.1a3.133,3.133,0,0,0-1.287-.326l-17.662-.994a2.9,2.9,0,0,1-2.982-2.77v-.1c.244-2.786.391-5.556.407-8.261a79.023,79.023,0,0,0-.391-8.782,8.566,8.566,0,0,1,1.939-5.214l19.732-23.9a5.388,5.388,0,0,0,1.206-4.9l-9.369-20.726a1.311,1.311,0,0,0-.57-.652h-.13a2.871,2.871,0,0,0-3.014.945l-21.068,19.243a3.749,3.749,0,0,1-4.611.782,32.412,32.412,0,0,0-9.01-5.23,3.348,3.348,0,0,1-2.037-3.682l6.5-29.492a1.839,1.839,0,0,0-.9-2.037,3.4,3.4,0,0,0-2.037-.342l-20.612,2.037a5.62,5.62,0,0,0-4.5,3.145l-11.161,29.964a9.586,9.586,0,0,1-4.5,4.334,92.129,92.129,0,0,0-12.758,7.4c-1.727,1.157-3.666,1.238-4.416,0l-10.542-16.1c-.75-1.141-2.444-.9-3.813.505l-22.616,23.9a5.961,5.961,0,0,0-1.76,4.953l6.306,21.345a7.227,7.227,0,0,1-1.141,5.132,171.12,171.12,0,0,0-10.412,18.053,8.188,8.188,0,0,1-4.9,3.666l-19.357,4.66a6.432,6.432,0,0,0-4.383,3.633L274.5,305.067a2.3,2.3,0,0,0,1.6,2.868,2.278,2.278,0,0,0,.815.081l17.695.994a2.876,2.876,0,0,1,3.014,2.721v.065a93.041,93.041,0,0,0,0,17.043,8.262,8.262,0,0,1-2.037,5.377l-19.732,23.9a5.388,5.388,0,0,0-1.206,4.9l9.369,20.709a1.311,1.311,0,0,0,.57.652h0a1.439,1.439,0,0,0,.733.179h0a3.58,3.58,0,0,0,2.3-1.075l21.051-19.259a3.775,3.775,0,0,1,4.611-.782,33.233,33.233,0,0,0,9.01,5.23,3.338,3.338,0,0,1,2.037,3.682L317.988,401.8a1.808,1.808,0,0,0,.864,2.037h0a3.155,3.155,0,0,0,2.037.342l20.612-2.037A5.714,5.714,0,0,0,346,399l11.194-29.964a9.81,9.81,0,0,1,4.5-4.367c2.167-1.026,4.367-2.183,6.55-3.438,2.183-1.271,4.073-2.526,6.224-3.927,1.711-1.189,3.666-1.271,4.4-.13l10.558,16.114a1.553,1.553,0,0,0,.505.473c.864.538,2.183.163,3.275-.994l22.616-23.887a6.024,6.024,0,0,0,1.727-4.953L411.2,322.615a7.237,7.237,0,0,1,1.157-5.133,169.834,169.834,0,0,0,10.4-18.086,8.168,8.168,0,0,1,4.937-3.65l19.341-4.66a6.347,6.347,0,0,0,4.383-3.65l9.809-32.75A2.18,2.18,0,0,0,460.183,252.063Zm-103.3,80.067-1.141.293-.815.179c-.619.13-1.222.228-1.841.31-.733.13-1.434.163-2.134.228h-1.939a20.7,20.7,0,0,1-19.406-13.068,35.406,35.406,0,0,1-2.835-10.8,43.369,43.369,0,0,1-.326-6c.13-18.689,9.727-41.842,25.565-58.576a71.191,71.191,0,0,1,15.609-12.66,47.268,47.268,0,0,1,5.2-2.656,32.987,32.987,0,0,1,14.615-3.1h1.646a6.673,6.673,0,0,1,.8.1,20.69,20.69,0,0,1,16.31,12.807c8.75,19.341-1.287,52.987-22.42,75.407C374.836,324.147,365.435,330.094,356.881,332.131Z"/>
            <line class="q" x2="41.663" y2="24.115" transform="translate(409.412 151.254)"/>
            <path class="e" d="M388.865,248.984l-10.884-6.273h0c-4.823-2.737-11.471-2.33-18.819,1.923-14.762,8.522-26.738,29.263-26.738,46.323,0,8.522,2.982,14.485,7.8,17.3h0l9.907,5.638,2.363-3.959a27.159,27.159,0,0,0,7.691-3c14.778-8.522,26.738-29.263,26.738-46.323a28.371,28.371,0,0,0-.831-6.827Z"/>
            <path class="k" d="M332.31,290.908c0,8.522,2.982,14.485,7.8,17.3h0l9.923,5.638,2.363-3.959a27.958,27.958,0,0,0,7.658-3,55.6,55.6,0,0,0,19.927-21.638l-38.73-22.42A56.1,56.1,0,0,0,332.31,290.908Z"/>
            <path class="p" d="M388.865,248.984l-10.884-6.273h0c-4.823-2.737-11.454-2.33-18.787,1.923a53.458,53.458,0,0,0-17.858,18.2l38.73,22.42a53.58,53.58,0,0,0,6.843-24.587,27.61,27.61,0,0,0-.864-6.827Z"/>
            <path class="e" d="M369.411,250.613c-14.778,8.522-26.754,29.263-26.754,46.323s11.992,23.968,26.754,15.446c14.778-8.522,26.738-29.263,26.738-46.323S384.189,241.978,369.411,250.613Z"/>
            <path class="o" d="M376.629,270.769a16.513,16.513,0,0,1-.163,2.379,15.57,15.57,0,0,1-.538,2.444,26.054,26.054,0,0,1-.994,2.656c-.424.912-.945,1.874-1.532,2.917l-3.715,6.469,6.648-3.845a.416.416,0,0,1,.505,0,.953.953,0,0,1,.212.652v4.318a1.91,1.91,0,0,1-.212.9,1.379,1.379,0,0,1-.505.635l-13.98,8.147a.416.416,0,0,1-.505,0,.952.952,0,0,1-.212-.652v-3.5a6.719,6.719,0,0,1,.163-1.4,4.935,4.935,0,0,1,.619-1.45l7.9-13.3a8.918,8.918,0,0,0,1.157-2.607,8.777,8.777,0,0,0,.244-1.841,5.751,5.751,0,0,0,0-.75,1.726,1.726,0,0,0-.31-.831,1.072,1.072,0,0,0-.668-.489,1.633,1.633,0,0,0-1.189.31A4.01,4.01,0,0,0,368.351,273a6.2,6.2,0,0,0-.717,1.287,5.307,5.307,0,0,0-.375,1.222l-.179.864a2.036,2.036,0,0,1-1.059,1.548l-3.259,1.874a.32.32,0,0,1-.407,0,.685.685,0,0,1-.163-.554,17.386,17.386,0,0,1,.473-3.666,18.3,18.3,0,0,1,1.369-3.878,18.068,18.068,0,0,1,2.281-3.552,11.206,11.206,0,0,1,3.226-2.7,6.155,6.155,0,0,1,3.079-.994,3.455,3.455,0,0,1,2.249.831,5.149,5.149,0,0,1,1.369,2.265A11.9,11.9,0,0,1,376.629,270.769Z"/>
            <path class="e" d="M271.844,386.291a101.714,101.714,0,0,1-6.892-39.089c0-32.6-11.275-55.594-29.573-66.592l-1.857-1.075a55.955,55.955,0,0,0-33.793-5.768,101.662,101.662,0,0,1,6.925,39.072c0,32.832,11.438,55.953,29.98,66.853l57.289,33.744A56.461,56.461,0,0,1,271.844,386.291Z"/>
            <path class="m" d="M271.844,386.291a101.714,101.714,0,0,1-6.892-39.089c0-32.6-11.275-55.594-29.573-66.592l-1.857-1.075a55.955,55.955,0,0,0-33.793-5.768,101.662,101.662,0,0,1,6.925,39.072c0,32.832,11.438,55.953,29.98,66.853l57.289,33.744A56.461,56.461,0,0,1,271.844,386.291Z"/>
            <path class="n" d="M256.414,345.98h0a2.75,2.75,0,0,0-1.939.179l-21.8,9.825a2.588,2.588,0,0,1-3.454-1.206,4.056,4.056,0,0,1-.179-.473c-.864-2.754-15.789-5.915-17.011-8.277l8.375-20.823Z"/>
            <path class="i" d="M220.421,325.287h0a2.039,2.039,0,0,0-1.89,0l-16.1-37.264a3.294,3.294,0,0,0-1.287-4.253L185.471,274.6a3.294,3.294,0,0,0-4.334,1.027l-18.119,27.243a6.07,6.07,0,0,1-4.741,2.346,43.133,43.133,0,0,0-6.322.31V285.6l-12.122-6.974h0a2.031,2.031,0,0,0-2.037.179l-24.457,14.143a6.636,6.636,0,0,0-3.014,4.546l-2.444,27.276a8.981,8.981,0,0,1-2.542,5.067,149.266,149.266,0,0,0-13.622,14.534,4.71,4.71,0,0,1-4.807,1.369L71.2,340.261a3.8,3.8,0,0,0-4.416,1.629L48.767,372.914a3.825,3.825,0,0,0,.8,4.644l12.611,10.868a4.647,4.647,0,0,1,1.222,4.855,145.428,145.428,0,0,0-5.67,19,9.04,9.04,0,0,1-3.145,4.741l-22.42,15.756a6.633,6.633,0,0,0-2.509,4.807v28.286a2,2,0,0,0,.88,1.809h0l28.351,16.31L48.555,504.86a3.261,3.261,0,0,0,1.287,4.253l38.567,22.42a3.294,3.294,0,0,0,4.334-1.026l17.532-17.923a2.028,2.028,0,0,0,.945,1.678l35.911,20.726.961-28.123s-7.446-9.646-7.446-11.389L179.8,452.834a3.852,3.852,0,0,0,4.416-1.629L202.237,420a3.825,3.825,0,0,0-.8-4.644l17.337-55.219a6.7,6.7,0,0,0,2.493-4.807ZM125.51,444.231c-10.509,6.11-19.194,7.381-25.516,4.448-7.414-3.471,52.726-106.544,59.1-100.923,5.116,4.562,7.886,13,7.886,24.8C166.9,398.984,148.354,431.082,125.51,444.231Z"/>
            <path class="e" d="M182.7,385.883l-10.884-6.273h0c-4.823-2.737-11.454-2.33-18.787,1.923-14.778,8.522-26.754,29.263-26.754,46.323,0,8.522,3,14.485,7.821,17.3h0L144,450.8l2.363-3.959a26.923,26.923,0,0,0,7.658-2.982c14.778-8.538,26.754-29.28,26.754-46.339a30.1,30.1,0,0,0-.831-6.827Z"/>
            <path class="k" d="M126.162,427.807c0,8.522,2.982,14.485,7.788,17.3h0l9.907,5.638,2.363-3.959a26.96,26.96,0,0,0,7.658-3,55.636,55.636,0,0,0,19.911-21.752l-38.73-22.42A55.863,55.863,0,0,0,126.162,427.807Z"/>
            <path class="p" d="M182.7,385.883l-10.884-6.273h-.1c-4.823-2.737-11.454-2.33-18.787,1.923a53.314,53.314,0,0,0-17.858,18.2l38.73,22.42a53.579,53.579,0,0,0,6.843-24.587,30.1,30.1,0,0,0-.831-6.827Z"/>
            <path class="e" d="M163.23,387.415c-14.778,8.538-26.738,29.263-26.738,46.323s11.96,23.968,26.738,15.446,26.754-29.263,26.754-46.323C190,385.8,178.009,378.893,163.23,387.415Z"/>
            <path class="o" d="M155.425,417.33a1.018,1.018,0,0,1-.147-.75,2.9,2.9,0,0,1,.293-.9l5.7-10c.13-.244.31-.538.505-.88a1.969,1.969,0,0,1,.7-.717l3.242-1.874a.354.354,0,0,1,.489,0,.869.869,0,0,1,.228.652v26.331a2.147,2.147,0,0,1-.228.9,1.151,1.151,0,0,1-.489.619l-3.471,2.037a.375.375,0,0,1-.505,0,.911.911,0,0,1-.212-.635V414.3l-3.161,5.475a1.147,1.147,0,0,1-.538.538.372.372,0,0,1-.473-.163Z"/>
            <path class="n" d="M226.417,301.808l-4.872,9.939L205.854,329.7l-18.347-10.656-25.842-14.941a4.217,4.217,0,0,0,1.3-1.271l18.119-27.227a3.313,3.313,0,0,1,4.3-1.043l15.821,9.124,23.935,13.784A3.344,3.344,0,0,1,226.417,301.808Z"/>
            <path class="n" d="M56.23,415.326a7.345,7.345,0,0,1-1.646,1.76l-22.42,15.756a5.462,5.462,0,0,0-1.548,1.792L68.3,456.468l29.72-16.9Z"/>
            <path class="n" d="M69.7,339.984a3.818,3.818,0,0,0-2.933,1.792L48.751,372.9a3.751,3.751,0,0,0-.407,2.411L87.774,398.12l24.669-33.337Z"/>
            <path class="n" d="M175.744,299.413v8.962l-21.8,12.6-43.211-24.962a6.546,6.546,0,0,1,2.526-3.063L137.714,278.8a2.552,2.552,0,0,1,1.222-.375,1.692,1.692,0,0,1,.749.179l11.8,6.794.31.179L168.1,295Z"/>
            <path class="o" d="M257.31,376.107V347.821a1.818,1.818,0,0,0-2.77-1.792l-21.8,9.825a2.588,2.588,0,0,1-3.454-1.206,4.056,4.056,0,0,1-.179-.473,50.221,50.221,0,0,0-4.9-10.819,6.129,6.129,0,0,1-.326-5.279l14.6-29.312a3.294,3.294,0,0,0-1.287-4.253L221.4,295.47a3.257,3.257,0,0,0-4.334,1.026l-18.119,27.227a6.086,6.086,0,0,1-4.741,2.363,47.762,47.762,0,0,0-11.78,1.206,2.6,2.6,0,0,1-3.194-1.841,2.2,2.2,0,0,1-.081-.473l-2.379-23.805a1.818,1.818,0,0,0-1.711-1.906,1.706,1.706,0,0,0-1.238.407l-24.457,14.143a6.474,6.474,0,0,0-2.917,4.562l-2.46,27.243a9.122,9.122,0,0,1-2.542,5.1,151.657,151.657,0,0,0-13.622,14.4,4.71,4.71,0,0,1-4.807,1.369l-15.707-5.475a3.8,3.8,0,0,0-4.416,1.629l-18.021,31.2a3.843,3.843,0,0,0,.8,4.627l12.611,10.884a4.647,4.647,0,0,1,1.222,4.855,144.579,144.579,0,0,0-5.687,18.933,9.04,9.04,0,0,1-3.145,4.741l-22.42,15.756a6.582,6.582,0,0,0-2.493,4.872v28.286a1.815,1.815,0,0,0,1.548,2.069,1.852,1.852,0,0,0,1.238-.261l21.8-9.841a2.588,2.588,0,0,1,3.454,1.206,2.356,2.356,0,0,1,.179.473,48.8,48.8,0,0,0,4.872,10.8,6.109,6.109,0,0,1,.326,5.3l-14.534,29.2A3.261,3.261,0,0,0,85.933,530l15.772,9.108a3.294,3.294,0,0,0,4.334-1.026l18.119-27.243a6.163,6.163,0,0,1,4.725-2.346,50.154,50.154,0,0,0,11.78-1.108,2.6,2.6,0,0,1,3.194,1.841,2.2,2.2,0,0,1,.081.473l2.379,23.805a1.837,1.837,0,0,0,1.776,1.89,1.777,1.777,0,0,0,1.173-.375l24.457-14.143a6.526,6.526,0,0,0,2.917-4.562l2.526-27.243a9.123,9.123,0,0,1,2.542-5.1A143.509,143.509,0,0,0,195.3,469.584a4.672,4.672,0,0,1,4.823-1.369l15.707,5.475a3.852,3.852,0,0,0,4.416-1.629l18.021-31.2a3.825,3.825,0,0,0-.8-4.644l-12.611-10.868a4.679,4.679,0,0,1-1.222-4.856,154.206,154.206,0,0,0,5.67-19,8.978,8.978,0,0,1,3.145-4.741L254.866,381A6.565,6.565,0,0,0,257.31,376.107Zm-95.791,88.964c-22.86,13.214-41.386,2.509-41.386-23.887s18.526-58.494,41.386-71.709,41.386-2.493,41.386,23.9S184.363,451.873,161.519,465.071Z"/>
            <path class="e" d="M233.472,279.535a55.99,55.99,0,0,0-33.728-5.768A101.031,101.031,0,0,0,161.487,287.4C107.2,318.753,62.682,392.776,58.364,456.7L0,422.349c4.3-63.92,48.914-137.959,103.155-169.308,28.221-16.31,53.8-18.021,72.474-7.625l2.2,1.3Z"/>
            <path class="i" d="M738.854,244.78H698.087V201.471A30.569,30.569,0,0,1,728.654,170.9h10.966a30.569,30.569,0,0,1,30.567,30.567h0v12.09a31.222,31.222,0,0,1-31.219,31.219Z"/>
            <path class="i" d="M765.347,174.88l-5.279,4.709a3.549,3.549,0,0,1,4.937-5.1A1.968,1.968,0,0,1,765.347,174.88Z"/>
            <path class="i" d="M766.7,181.724l-6.925-1.483a3.544,3.544,0,0,1,6.941,1.434A.06.06,0,0,0,766.7,181.724Z"/>
            <path class="i" d="M697.028,595.388a93.905,93.905,0,0,1-13.719,11.943,6.048,6.048,0,0,0-1.923,2.037c-.635,1.352-1.646,4.66,4.481,6.811a22.811,22.811,0,0,0,18.95-1.809c5.035-3.161,5.263-9.727,10-13.459,3.519-2.77,7.935-3.487,10.786-7.12,2.037-2.526,1.466-5.9.424-10.053-1.124-4.53-1.646-7.968-3.145-7.625l.244,2.037c-1.874,2.982-11.6,3.878-15.919,1.809A163.845,163.845,0,0,1,697.028,595.388Z"/>
            <path class="r" d="M692.791,599.624h0c1.466-1.352,2.9-2.7,4.253-4.22a113.277,113.277,0,0,0,7.935-11.683,12.957,12.957,0,0,0,2.216-8.375l-1.206-11.161,15.381-1.108,1.792,15.1h0c.375,3.405-2.46,6.436-7.462,10.754-4.986,4.318-11.373,14.387-15.919,16.913s-7.772,2.428-9.695,1.141C688.164,605.718,687.92,604.61,692.791,599.624Z"/>
            <path class="i" d="M755.587,596.773v-2.33c-.912,2.7-5.149,14.387-11.552,20.237-5.116,4.66-12.074,10.053-13.833,15.218-1.776,5.181,9.678,7.218,14.453,6.355,5.54-.978,12.693-4.073,16.6-8.913,2.737-3.357,4.481-7.365,6.436-10,1.955-2.656,6.469-5.605,7.528-8.685.587-1.695-.1-5.361-.912-8.473s-1.564-6.012-2.542-5.752V596.2a12.847,12.847,0,0,1-8.147,2.737C761.29,599.135,755.571,598.565,755.587,596.773Z"/>
            <path class="r" d="M739.408,618.785c1.6-1.4,3.177-2.786,4.627-4.073,4.481-4.073,7.886-11.031,9.858-15.756a22.837,22.837,0,0,0,1.695-8.522V581.2h16.163V596.2h0v.407h0c-.782,3.357-8.147,12.237-12.416,18.119-2.835,3.91-8.147,8.88-14.615,9.744C738.577,625.319,735.448,623.4,739.408,618.785Z"/>
            <path class="o" d="M768.524,345.41c12.562,27.39-.456,123.848-.456,123.848.391,4.448,5.458,13.182,7.365,32.75,2.249,23.1-3.5,81.143-3.5,81.143a17.561,17.561,0,0,1-16.31.652s-15.43-87.4-18.347-110.39c-2.526-20.058-7.381-67.26-7.381-67.26l-13.8,67.081s5.279,11.536,6.11,20.09c1.3,13.507,0,72.051,0,72.051s-5.524,4.2-16.115,2.656c0,0-17.939-81.517-19.357-97.827-.831-9.695,10.184-128.834,10.184-128.834Z"/>
            <path class="i" d="M729.892,406.251l-4.073-22.42s-17.222-3.568-25.027-10.9a44.63,44.63,0,0,0,20.383,13.54l4.579,19.569-8.017,59.309Z"/>
            <path class="r" d="M788.973,333.5c-.13-1.792-3.487-20.97-5.8-31.691l-22.534,6.909,4.073,19.732,19,15.251C789.56,342.51,789.087,335.292,788.973,333.5Z"/>
            <path class="s" d="M679.952,293.075,669.3,312.611l16.571,14.208,15.186-24.066Z"/>
            <path class="e" d="M719.92,249.538c-10.558.13-22.192,3.959-26.184,12.237l-16.522,34.07s9.336,13.67,24.147,12.725Z"/>
            <path class="k" d="M719.92,249.538c-10.558.13-22.192,3.959-26.184,12.237l-16.522,34.07s9.336,13.67,24.147,12.725Z"/>
            <path class="e" d="M746.414,250.271h0a31.726,31.726,0,0,1,21.231,17.369,27.457,27.457,0,0,1,.75,20.709l-11.21,32.408s5.263,12.676,11.324,24.669c-28.107,15.691-63.187,7.446-71.66-4.073-.342-2.444.13-13.393-.554-25.842-.733-13.3-2.542-28.27-.473-36.482,3.878-15.251,11.145-29.557,25.6-29.557Z"/>
            <path class="e" d="M750.6,250.271c9.6,1.369,23.675,3.308,28.53,26.086,4.9,23.1,6.338,31.137,6.338,31.137s-7.886,9.173-23.789,9.092l-4.953-17.5Z"/>
            <path class="k" d="M760.312,311.763s-3.242-10.3-5.214-18.673a130.064,130.064,0,0,0,2.607,26.217Z"/>
            <path class="r" d="M709.932,185.6c-3.813,2.265-8.505,11.813-8.033,31.854.391,16.978,5.882,21.182,8.668,22.42,2.77,1.238,8.147.473,13.263-.391v10.184s-7.153,8.31-6.713,12.986c.456,4.66,10.33,5.784,17.043,1.222a42.968,42.968,0,0,0,10.982-11.52V227.672a6.519,6.519,0,0,0,9.173.929l.049-.049c5.719-3.813,5.931-13.214,2.607-16.587s-10.493-2.3-11.846,2.363c0,0-8.261.31-19.259-5.752A30.933,30.933,0,0,1,709.932,185.6Z"/>
            <path class="i" d="M720.865,213.17a2.129,2.129,0,1,0,2.232-2.02A2.131,2.131,0,0,0,720.865,213.17Z"/>
            <path class="s" d="M720.3,227.59l-4.953,1.564a2.512,2.512,0,0,0,3.08,1.809l.147-.049A2.709,2.709,0,0,0,720.3,227.59Z"/>
            <path class="i" d="M703.35,206.637l4.318-3a2.525,2.525,0,0,0-3.454-.831l-.147.1A2.752,2.752,0,0,0,703.35,206.637Z"/>
            <path class="i" d="M704.344,211.639a2.154,2.154,0,0,0,2,2.3h.033a2.191,2.191,0,0,0,2.249-2.037,2.128,2.128,0,1,0-4.253-.179Z"/>
            <path class="s" d="M714.413,210.417l-.342,12.839-6.762-2.086Z"/>
            <path class="s" d="M723.831,239.452c5.458-.717,16.685-3.959,18.444-8.391a11.545,11.545,0,0,1-3.927,5.67c-3.357,2.9-14.518,6.11-14.518,6.11Z"/>
            <path class="c" d="M634.46,291.885l61.981,16.326,18.3,76.939L655.8,368.026Z"/>
            <path class="d" d="M661.491,342.77c-.57,1.6-3.976,5.947-11.194,5.605l-.9-3.177Z"/>
            <path class="d" d="M675.341,345.2c.261,2.037,4.481,5.833,11.617,8.147,8.147,2.7,20.546,1.287,20.546,1.287L706.38,350.8Z"/>
            <path class="d" d="M652.595,303.014l-.505-2.363c-.293-1.3,3.357-1.369,8.147-.13l9.124,2.363c4.774,1.238,8.864,3.308,9.157,4.611l.505,2.363Z"/>
            <path class="o" d="M648.31,294.1c-.163-.815,1.3-1.043,3.308-.489l3.6.994s-1.075-5.116,6.957-3.324,9.776,7.577,9.776,7.577l3.878,1.108c2.037.619,4.073,1.76,4.318,2.574l.456,1.466-31.936-8.391Z"/>
            <path class="o" d="M652.709,296.659c2.933.7,4.073,1.108,4.579,3.1a31.033,31.033,0,0,1,.7,4.073l14.143,3.731s-.7-2.917-.9-4.073.261-1.841,2.509-1.222l.179-.912L651.8,295.73Z"/>
            <path class="o" d="M652.188,303.242l-.505-2.363c-.293-1.3,3.357-1.369,8.147-.13l9.124,2.363c4.774,1.238,8.864,3.308,9.157,4.611l.505,2.363Z"/>
            <path class="r" d="M783.629,343.7l-19-15.251s-41.989,7.479-46.877,7.87a12.945,12.945,0,0,1-12.237-7.951c-1.874-4.823-5.181-4.236-5.181-4.236l1.923,8.147c.473,2.037-11.357,3.568-17.923,1.352s-16.033.994-10.184,9.923,17.32,9.972,25.255,9.972a81.022,81.022,0,0,0,9.939-.668c2.574-.326,5.116-.587,7.707-.782C733.232,350.868,776.231,346.013,783.629,343.7Z"/>
            <path class="r" d="M640.766,314.37l2.754,9.825c.538,1.874,7.74,5.312,12.237,6.566,4.481,1.238,9.564,2.737,7.4,9.108-2.037,5.866-9.5,7.218-13.312,7.055s-9.043-3.813-11.112-9.695c-2.623-7.5-1.206-15.512-2.249-19.895C635.438,312.937,638.484,311.763,640.766,314.37Z"/>
        </g>
    </g>
</svg>