<svg id="Capa_1" data-name="Capa 1"
    xmlns="http://www.w3.org/2000/svg"
    xmlns:xlink="http://www.w3.org/1999/xlink" viewBox="0 0 1864 388">
    <defs>
        <style>.cls-1,.cls-11{fill:none;}.cls-2{clip-path:url(#clip-path);}.cls-3{fill:url(#Degradado_sin_nombre);}.cls-4{fill:#dadada;opacity:0.65;isolation:isolate;}.cls-5,.cls-7,.cls-8{stroke:#fff;}.cls-11,.cls-5,.cls-7,.cls-8{stroke-miterlimit:10;}.cls-5,.cls-8{stroke-width:3.01px;}.cls-5{fill:url(#Degradado_sin_nombre_2);}.cls-6{fill:#fff;}.cls-7{stroke-width:2.71px;fill:url(#Degradado_sin_nombre_3);}.cls-8{fill:url(#Degradado_sin_nombre_4);}.cls-9{fill:#970600;}.cls-10{fill:red;}.cls-11{stroke:#e30600;stroke-width:2.15px;stroke-dasharray:5.38;}.cls-12{fill:#f6f6f6;}.cls-13{fill:#e30613;}</style>
        <clipPath id="clip-path">
            <rect class="cls-1" width="1864" height="388"/>
        </clipPath>
        <linearGradient id="Degradado_sin_nombre" x1="392.29" y1="443.85" x2="392.29" y2="444.85" gradientTransform="matrix(1864, 0, 0, -377.66, -730296, 168008.42)" gradientUnits="userSpaceOnUse">
            <stop offset="0" stop-color="#ededed"/>
            <stop offset="1" stop-color="#ededed" stop-opacity="0"/>
        </linearGradient>
        <linearGradient id="Degradado_sin_nombre_2" x1="390.53" y1="444.21" x2="391.53" y2="444.21" gradientTransform="matrix(267.56, 0, 0, -187.33, -104284.56, 83422.33)" gradientUnits="userSpaceOnUse">
            <stop offset="0.01" stop-color="#6d0000"/>
            <stop offset="0.1" stop-color="#7e0000"/>
            <stop offset="0.39" stop-color="#ad0000"/>
            <stop offset="0.65" stop-color="#cf0000"/>
            <stop offset="0.86" stop-color="#e30000"/>
            <stop offset="1" stop-color="#eb0000"/>
        </linearGradient>
        <linearGradient id="Degradado_sin_nombre_3" x1="391.02" y1="444.3" x2="392.02" y2="444.3" gradientTransform="matrix(401.57, 0, 0, -281.21, -155733.28, 125136.08)" xlink:href="#Degradado_sin_nombre_2"/>
        <linearGradient id="Degradado_sin_nombre_4" x1="390.88" y1="444.28" x2="391.88" y2="444.28" gradientTransform="matrix(350.95, 0, 0, -245.76, -136423.9, 109384.25)" xlink:href="#Degradado_sin_nombre_2"/>
    </defs>
    <g class="cls-2">
        <rect class="cls-3" y="5.17" width="1864" height="377.66"/>
        <path class="cls-4" d="M246.94,381.73s-382.19-101.8-183.75-198.2,591.66-62.16,981.2-120.72,642.38-51.1,748.27,0c128.95,62.2-186,117.12-5.94,201.81s-11,117.12-11,117.12Z"/>
        <path class="cls-5" d="M207.53,160.24a31,31,0,0,0,15.58,5.8c3.87,5.85,10.4,9.82,17.39,11.29-8.77,27.54,1,59.7,9.21,72.92,9.62,15.43,35.72,52.2,41.75,52.2h32.36c3.13,0-1-16.7-1-16.7s13.34,1,25.17,1.16,21.57-.69,21.57-.69,7,16.23,10.67,16.23h31.9c2,0,0-25.05,0-25.05A156.31,156.31,0,0,0,426,267.19a51.32,51.32,0,0,0,12.42-15.77s6.84,2.9,17.07-3.25S473,229.73,473.57,216s-4.4-10.55-13.69-15.66-8.92-13.74-12.4-23.14a53.65,53.65,0,0,0-10.09-16.35,39.44,39.44,0,0,0,14.79-10.78c5-6.2,7.82-14.26,7.31-15.83s-12.7-7.47-28.18-9.39-35,.53-35,.53-28.19-14.26-68.55-9.22S264.64,134.47,246.54,164a61.06,61.06,0,0,0-3.46,6.61,25.94,25.94,0,0,1-11.7-5.51,13.35,13.35,0,0,0,8-7.33c3.79-8.33,1.73-21.42-10.22-18-7.66,2.18-10.14,11.5-8.89,19a23.78,23.78,0,0,1-9.19-4.53C207.47,151.51,204,157.56,207.53,160.24Zm110-35.65c15.9-6.14,30-6.42,46.15-1,4.23,1.41,2.42,8.13-1.85,6.71-15.06-5-27.68-4.67-42.46,1C315.21,132.92,313.41,126.19,317.56,124.59ZM227.35,158.8l-.49.09a10.53,10.53,0,0,1,1.07-8.88,8.6,8.6,0,0,1,2.6-3.23q4.69-.34,4,3.32C234,154.18,231.6,157.92,227.35,158.8Z"/>
        <path class="cls-6" d="M347.13,180.82c-13.54,0-24.56,10.66-24.56,23.75,0,8.5,3.45,13.55,6,17.28,1.57,2.29,2.45,3.64,2.45,5,0,3.08,1.65,6,4.58,8.16.08,1.83.34,6.28.34,6.28h0c.05,1.26.71,3.86,5.08,5.31a7.68,7.68,0,0,0,2,2,3.16,3.16,0,0,0,1.73.52h4.75a3.17,3.17,0,0,0,1.74-.52,7.57,7.57,0,0,0,2-2c4.39-1.46,5.05-4.1,5.08-5.32,0,0,.27-4.45.34-6.28a10.23,10.23,0,0,0,4.57-8.16c0-1.37.89-2.73,2.47-5,2.52-3.7,6-8.75,6-17.26,0-13.1-11-23.75-24.54-23.75Zm13.44,37.53c-1.81,2.66-3.52,5.16-3.52,8.52,0,1.48-1.34,2.67-2.33,3.35H339.54c-1-.69-2.33-1.87-2.33-3.35,0-3.35-1.71-5.86-3.54-8.55-2.3-3.37-4.88-7.18-4.88-13.75,0-9.66,8.22-17.53,18.34-17.54s18.36,7.87,18.36,17.54c0,6.58-2.61,10.39-4.92,13.78Z"/>
        <path class="cls-6" d="M347.13,176.16a1.54,1.54,0,0,0,1.55-1.55h0V170a1.56,1.56,0,0,0-3.11,0v4.66a1.55,1.55,0,0,0,1.56,1.55Z"/>
        <path class="cls-6" d="M330.63,179.45a1.57,1.57,0,0,0,1.35.78,1.5,1.5,0,0,0,.77-.22,1.56,1.56,0,0,0,.58-2.12l-2.34-4a1.55,1.55,0,1,0-2.68,1.55Z"/>
        <path class="cls-6" d="M321.67,188.41l-4-2.32a1.55,1.55,0,0,0-1.54,2.7l4,2.32a1.51,1.51,0,0,0,.77.21,1.53,1.53,0,0,0,1.35-.77,1.58,1.58,0,0,0-.57-2.13Z"/>
        <path class="cls-6" d="M318.37,204.91a1.55,1.55,0,0,0-1.54-1.55h-4.66a1.56,1.56,0,1,0,0,3.11h4.66a1.54,1.54,0,0,0,1.54-1.55Z"/>
        <path class="cls-6" d="M320.11,218.71l-4,2.34a1.54,1.54,0,0,0,.77,2.88,1.4,1.4,0,0,0,.77-.21l4-2.32a1.55,1.55,0,1,0-1.55-2.69Z"/>
        <path class="cls-6" d="M378.18,221.05l-4-2.34a1.56,1.56,0,0,0-1.55,2.7l4,2.32a1.45,1.45,0,0,0,.76.21,1.55,1.55,0,0,0,.78-2.9Z"/>
        <path class="cls-6" d="M382.09,203.37h-4.66a1.56,1.56,0,0,0,0,3.11h4.66a1.56,1.56,0,0,0,0-3.11Z"/>
        <path class="cls-6" d="M373.38,191.32a1.51,1.51,0,0,0,.77-.21l4-2.33a1.55,1.55,0,0,0-1.54-2.69l-4,2.32a1.56,1.56,0,0,0,.78,2.91Z"/>
        <path class="cls-6" d="M361.51,180a1.5,1.5,0,0,0,.77.22,1.58,1.58,0,0,0,1.35-.77l2.32-4a1.55,1.55,0,1,0-2.68-1.55l-2.34,4a1.55,1.55,0,0,0,.56,2.1Z"/>
        <path class="cls-6" d="M345.05,214.29c.18,1.38.84,1.75,2.08,1.75s1.9-.38,2.08-1.75l1.47-11.07a20.74,20.74,0,0,0,.19-2.23V195.5c0-2.41-1.38-3.64-3.74-3.64s-3.74,1.23-3.74,3.64V201a15.14,15.14,0,0,0,.19,2.23Z"/>
        <path class="cls-6" d="M347.13,219.12A3.88,3.88,0,1,0,351,223h0A3.91,3.91,0,0,0,347.13,219.12Z"/>
        <path class="cls-7" d="M1291.91,121.2a46.53,46.53,0,0,0,23.39,8.72c5.8,8.78,15.61,14.74,26.1,16.93-13.15,41.35,1.44,89.62,13.81,109.47,14.45,23.15,53.62,78.34,62.68,78.34h48.57c4.7,0-1.56-25.08-1.56-25.08s20,1.57,37.77,1.74,32.39-1,32.39-1,10.44,24.38,16,24.38h47.87c3,0,0-37.6,0-37.6a237.25,237.25,0,0,0,20.89-15.33c12-9.75,18.63-23.67,18.63-23.67s10.27,4.36,25.62-4.87,26.26-27.68,27.13-48.23-6.61-15.84-20.55-23.5-13.4-20.63-18.62-34.74a80.88,80.88,0,0,0-15.15-24.55s13.06-5,22.2-16.18c7.58-9.32,11.75-21.42,11-23.76S1651,71,1627.75,68.13s-52.49.78-52.49.78S1533,47.5,1472.38,55.07s-94.8,27.41-122,71.81a88.42,88.42,0,0,0-5.2,9.93,39.09,39.09,0,0,1-17.58-8.27,20.08,20.08,0,0,0,12-11c5.7-12.52,2.6-32.16-15.35-27.05-11.5,3.28-15.23,17.27-13.34,28.49a35.49,35.49,0,0,1-13.8-6.8C1291.82,108.1,1286.63,117.18,1291.91,121.2Zm165.16-53.51c23.87-9.23,45-9.63,69.28-1.57,6.35,2.12,3.63,12.2-2.78,10.08-22.6-7.52-41.55-7-63.73,1.56C1453.55,80.19,1450.85,70.09,1457.07,67.69ZM1321.67,119l-.74.13a15.74,15.74,0,0,1,1.6-13.33,12.61,12.61,0,0,1,3.9-4.84q7-.52,6,5c-.73,6.15-4.39,11.75-10.75,13.07Z"/>
        <path class="cls-6" d="M1540.08,168.43H1520a34.27,34.27,0,0,1,7,8.6h13.15a4.3,4.3,0,1,0,0-8.6Z"/>
        <path class="cls-6" d="M1540.08,179.26h-12a34.21,34.21,0,0,1,2.79,8.6h9.18a4.3,4.3,0,0,0,.33-8.6Z"/>
        <path class="cls-6" d="M1540.08,157.59h-31.84a4.26,4.26,0,0,0-4,2.81,34,34,0,0,1,13,5.79h22.9a4.3,4.3,0,1,0,0-8.6Z"/>
        <path class="cls-6" d="M1508.25,155.34h31.83a4.3,4.3,0,1,0,0-8.6h-31.83a4.3,4.3,0,1,0,0,8.6Z"/>
        <path class="cls-6" d="M1540.08,190.11h-8.84a31.76,31.76,0,0,1-.11,8.6h8.95a4.3,4.3,0,1,0,0-8.6Z"/>
        <path class="cls-6" d="M1540.08,200.94h-9.29a34.92,34.92,0,0,1-3,8.6h12.33a4.3,4.3,0,1,0,0-8.6Z"/>
        <path class="cls-6" d="M1540.08,211.79H1526.5a34.33,34.33,0,0,1-7.33,8.6h20.91a4.3,4.3,0,0,0,.33-8.6Z"/>
        <path class="cls-6" d="M1454.09,198h8.83a34.57,34.57,0,0,1-.23-3.94,33.11,33.11,0,0,1,.35-4.66h-8.94a4.3,4.3,0,0,0-.34,8.6Z"/>
        <path class="cls-6" d="M1454.08,208.83h12a34.25,34.25,0,0,1-2.81-8.6h-9.18a4.3,4.3,0,0,0,0,8.6Z"/>
        <path class="cls-6" d="M1454.08,187.15h9.3a33.71,33.71,0,0,1,3-8.6h-12.32a4.3,4.3,0,1,0,0,8.6Z"/>
        <path class="cls-6" d="M1454.08,176.31h13.59a34.5,34.5,0,0,1,7.33-8.6h-20.92a4.3,4.3,0,1,0,0,8.6Z"/>
        <path class="cls-6" d="M1454.08,219.67h20.12a34.82,34.82,0,0,1-7-8.6h-13.14a4.3,4.3,0,1,0,0,8.6Z"/>
        <path class="cls-6" d="M1454.08,230.51h31.83a4.3,4.3,0,0,0,4-2.82,34.2,34.2,0,0,1-13-5.77h-22.9a4.3,4.3,0,0,0-.32,8.59A1.71,1.71,0,0,0,1454.08,230.51Z"/>
        <path class="cls-6" d="M1485.91,232.75h-31.83a4.3,4.3,0,1,0,0,8.6h31.83a4.3,4.3,0,0,0,0-8.6Z"/>
        <path class="cls-6" d="M1497.07,163.94a30.1,30.1,0,1,0,30.1,30.11A30.1,30.1,0,0,0,1497.07,163.94Zm0,51.6a21.5,21.5,0,1,1,21.5-21.5h0A21.52,21.52,0,0,1,1497.07,215.54Z"/>
        <path class="cls-6" d="M1498.33,191.14V183.7c4.34.08,4.3,4.27,6.84,4.27a2.36,2.36,0,0,0,2.47-2.24v-.19c0-3.84-6.26-5.74-9.3-5.84v-2.08a1.17,1.17,0,1,0-2.33-.29,1.4,1.4,0,0,0,0,.29v2.08c-4.88.16-9.3,2.9-9.3,8.22,0,4.33,3.51,6.88,9.3,7.93V204c-6.5-.27-3.09-5.67-7.48-5.67a2.25,2.25,0,0,0-2.42,2.07,2.54,2.54,0,0,0,0,.39c0,3.1,3.28,7.05,9.9,7.2v2.42a1.18,1.18,0,0,0,1,1.33,1.19,1.19,0,0,0,1.34-1,1.82,1.82,0,0,0,0-.33V208c5.83-.35,9.74-3,9.74-8.25,0-6-4.58-7.53-9.76-8.64Zm-2.34-.42c-2.94-.6-4.4-1.72-4.4-3.69,0-1.68,1.72-3.24,4.4-3.32Zm2.34,13.33V196.3c2.11.46,4.81,1.25,4.81,3.91S1500.67,203.89,1498.33,204.05Z"/>
        <path class="cls-8" d="M757.17,134.4A40.67,40.67,0,0,0,777.61,142c5.08,7.67,13.65,12.88,22.81,14.81-11.5,36.13,1.25,78.32,12.07,95.66,12.63,20.23,46.86,68.46,54.77,68.46h42.45c4.11,0-1.37-21.91-1.37-21.91s17.5,1.37,33,1.51,28.3-.91,28.3-.91,9.13,21.3,14,21.3h41.85c2.58,0,0-32.87,0-32.87a203.93,203.93,0,0,0,18.25-13.39C1054.25,266.15,1060,254,1060,254s9,3.8,22.39-4.26,22.94-24.2,23.7-42.15-5.79-13.84-18-20.54-11.72-18-16.27-30.35a70.36,70.36,0,0,0-13.25-21.45s11.42-4.34,19.4-14.15c6.62-8.14,10.27-18.71,9.59-20.77s-16.67-9.8-37-12.32-45.87.68-45.87.68-37-18.7-89.91-12.08-82.83,24-106.57,62.76a75.24,75.24,0,0,0-4.54,8.67,33.94,33.94,0,0,1-15.36-7.23,17.58,17.58,0,0,0,10.49-9.62c5-10.93,2.26-28.1-13.42-23.63-10,2.87-13.31,15.09-11.66,24.91a31.12,31.12,0,0,1-12.06-5.94C757.09,123,752.55,130.88,757.17,134.4ZM901.5,87.63c20.87-8.06,39.35-8.42,60.55-1.37,5.56,1.85,3.18,10.66-2.43,8.8-19.75-6.57-36.3-6.13-55.7,1.37C898.43,98.56,896.07,89.73,901.5,87.63ZM783.17,132.5l-.65.12a13.79,13.79,0,0,1,1.4-11.65,11,11,0,0,1,3.42-4.22c4.1-.31,5.84,1.15,5.23,4.35C791.93,126.46,788.73,131.36,783.17,132.5Z"/>
        <path class="cls-6" d="M978.58,173.62l-10.34-9-10.33-9-10.34,9-10.33,9h11.31c-3.82,23.39-25.43,41.59-50,37.72a.86.86,0,0,0-.46,1.65c30.61,10.65,65.88-6.85,71-39.37Z"/>
        <path class="cls-6" d="M955.65,203.83a54.46,54.46,0,0,1-10.58,7.64v29.06h10.58Z"/>
        <path class="cls-6" d="M929.2,240.53h10.58V214.06a56.82,56.82,0,0,1-10.58,3.35Z"/>
        <path class="cls-6" d="M960.94,240.53h10.58V176.25h-.26a51,51,0,0,1-10.32,21.9Z"/>
        <path class="cls-6" d="M908,218.12a58.37,58.37,0,0,1-10.59-2.55v25H908Z"/>
        <path class="cls-6" d="M913.32,240.53h10.59V218.31a62.24,62.24,0,0,1-7.35.45c-1.08,0-2.16,0-3.24-.1Z"/>
        <path class="cls-9" d="M96.22,83.76c-.06-.16,8.84,5.35,8.84,5.35l-2.31,15L98.38,92.89l-11.5-2.2L70.48,75.27Z"/>
        <path class="cls-10" d="M70.48,75.27l32.27,28.84L98.38,92.89Z"/>
        <path class="cls-10" d="M70.48,75.27l42.69,9.07-8.11,4.77L70.48,75.27l27.9,17.62-13.8,8.52Z"/>
        <path class="cls-9" d="M1773.37,310.94c.06-.17-8.84,5.34-8.84,5.34l2.31,15,4.37-11.22,11.5-2.2,16.4-15.41Z"/>
        <path class="cls-10" d="M1799.12,302.45l-32.28,28.83,4.38-11.21Z"/>
        <path class="cls-10" d="M1799.12,302.45l-42.7,9.06,8.11,4.77,34.59-13.83-27.9,17.62,13.78,8.51Z"/>
        <path class="cls-11" d="M1118.69,328.13C1125,346,1143.63,366,1164.93,366c24.19,0,30.09-19.61,37.14-25.8,17.34-15.25,28.19-18.8,50.26-22.57,14.36-2.45,29.72-22.6,26-42.61-6.79-36.48-72.58-53.87-89.24-80.56-13.57-21.75-12.86-34.74-36.6-50.35"/>
        <path class="cls-9" d="M1137.91,119.83c-.09-.2,10.53,6.37,10.53,6.37l-2.76,17.89-5.21-13.38-13.72-2.61-19.55-18.39Z"/>
        <path class="cls-10" d="M1107.21,109.72l38.47,34.37-5.2-13.38Z"/>
        <path class="cls-10" d="M1107.21,109.72l50.9,10.81-9.67,5.67-41.23-16.48,33.27,21L1124,140.86Z"/>
        <path class="cls-10" d="M1826.34,84.49h-42.93a5.63,5.63,0,0,1-5.63-5.62h0V52.67A5.62,5.62,0,0,1,1783.4,47h42.94a5.62,5.62,0,0,1,5.63,5.62h0V78.86A5.63,5.63,0,0,1,1826.34,84.49Z"/>
        <path class="cls-10" d="M1798,80l5.39,10.45a1.86,1.86,0,0,0,2.5.8,1.76,1.76,0,0,0,.74-.69L1813.05,80Z"/>
        <path class="cls-6" d="M1810.7,55c-5.25-.06-5.66,3.14-5.66,3.14s-.35-3.21-5.6-3.26-7.16,5.94-5.85,9.55c1,2.78,7.13,8.91,9.88,11.57a2,2,0,0,0,2.71,0c2.81-2.61,9.06-8.58,10.14-11.35C1817.73,61.15,1816,55.1,1810.7,55Z"/>
        <path class="cls-10" d="M702.92,136.84h-31.6a4.14,4.14,0,0,1-4.14-4.14h0V113.43a4.14,4.14,0,0,1,4.13-4.14h31.61a4.14,4.14,0,0,1,4.14,4.14h0V132.7a4.13,4.13,0,0,1-4.12,4.14Z"/>
        <path class="cls-10" d="M682.05,133.57l4,7.69a1.38,1.38,0,0,0,1.85.59,1.49,1.49,0,0,0,.55-.51l4.74-7.77Z"/>
        <path class="cls-6" d="M691,117.51a4.13,4.13,0,1,1-4.13-4.13,4.13,4.13,0,0,1,4.13,4.13Z"/>
        <path class="cls-6" d="M693.37,131.33a1.26,1.26,0,0,0,1.26-1.24,1.94,1.94,0,0,0,0-.24c-.77-4-3.91-7.06-7.68-7.06s-6.93,3-7.68,7.06a1.25,1.25,0,0,0,1,1.46l.24,0Z"/>
        <path class="cls-12" d="M262.19,58.81c-.64,0-1-.9-.56-1.47,2.55-3.56,9.05-6.06,16.49-6.08,11.16,0,14,6,23.95-3.91,2.38-2.34,5.23-3.34,12.38.2s6.8-8.95,12.78-9.6c9.91-1.08,19.06,12,22.77,18.21.78,1.28,0,3.09-1.3,3.08Z"/>
        <path class="cls-12" d="M126,131.08c.47,0,.71-.67.42-1.11-1.84-2.73-6.55-4.66-12-4.74-8.13-.11-8-6-16.69-9.6-11.08-4.64-15.92,9.65-20.29,9.11-7.21-.88-12.72-1-15.48,3.69-.58,1,0,2.34.93,2.34Z"/>
        <path class="cls-12" d="M1393.28,58.81c-.64,0-1-.9-.56-1.47,2.55-3.56,9-6.06,16.49-6.08,11.16,0,14,6,24-3.91,2.38-2.34,5.23-3.34,12.38.2s6.8-8.95,12.78-9.6c9.91-1.08,19.06,12,22.77,18.21.78,1.28,0,3.09-1.3,3.08Z"/>
        <path class="cls-12" d="M1257.09,131.08c.47,0,.71-.67.42-1.11-1.84-2.73-6.55-4.66-12-4.74-8.13-.11-8-6-16.69-9.6-11.08-4.64-15.92,9.65-20.29,9.11-7.21-.88-12.72-1-15.48,3.69-.58,1,0,2.34.93,2.34Z"/>
        <path class="cls-13" d="M72.49,184.11a5.72,5.72,0,1,1-5.71-5.72,5.71,5.71,0,0,1,5.71,5.72Z"/>
        <path class="cls-13" d="M518.72,256.72a2.42,2.42,0,1,1-2.41-2.41,2.41,2.41,0,0,1,2.41,2.41Z"/>
        <path class="cls-9" d="M478,60.46A4.42,4.42,0,1,1,473.6,56,4.41,4.41,0,0,1,478,60.46Z"/>
        <path class="cls-9" d="M277.43,114.47a1.12,1.12,0,0,1-1.12-1.12h0v-7.86a1.12,1.12,0,0,1,2.24,0h0v7.86A1.12,1.12,0,0,1,277.43,114.47Z"/>
        <path class="cls-9" d="M281.37,110.54H273.5a1.12,1.12,0,1,1,0-2.23h7.87a1.12,1.12,0,0,1,1.11,1.12h0A1.11,1.11,0,0,1,281.37,110.54Z"/>
        <path class="cls-13" d="M1798,131.07a5.72,5.72,0,1,1,5.72,5.71h0a5.71,5.71,0,0,1-5.72-5.71Z"/>
        <path class="cls-13" d="M1351.73,58.44a2.42,2.42,0,1,1,2.42,2.42,2.41,2.41,0,0,1-2.42-2.42Z"/>
        <path class="cls-9" d="M1392.44,254.72a4.42,4.42,0,1,1,4.41,4.41h0a4.41,4.41,0,0,1-4.41-4.41Z"/>
        <path class="cls-9" d="M1593,200.7a1.12,1.12,0,0,1,1.12,1.12h0v7.87a1.12,1.12,0,0,1-2.24,0v-7.87A1.14,1.14,0,0,1,1593,200.7Z"/>
        <path class="cls-9" d="M1589.1,204.63H1597a1.13,1.13,0,0,1,1.13,1.12,1.12,1.12,0,0,1-1.12,1.12h-7.87a1.12,1.12,0,0,1,0-2.24Z"/>
    </g>
</svg>