<svg id="Capa_1" data-name="Capa 1"
    xmlns="http://www.w3.org/2000/svg" viewBox="0 0 92 106.23">
    <defs>
        <style>.cls-1{fill:#f70000;}</style>
    </defs>
    <path class="cls-1" d="M46,7.92,6.85,30.51v45.2L46,98.31l39.14-22.6V30.51ZM78.3,71.77,46,90.42,13.69,71.77V34.46L46,15.81,78.3,34.46Z"/>
    <path class="cls-1" d="M47.44,61.16a4.91,4.91,0,1,1,4.91-4.91A4.91,4.91,0,0,1,47.44,61.16Zm0-8.5A3.6,3.6,0,1,0,51,56.25,3.6,3.6,0,0,0,47.44,52.66Z"/>
    <path class="cls-1" d="M38.38,71a9.13,9.13,0,0,1,18.11,0h1.33a10.45,10.45,0,0,0-20.76,0Z"/>
    <path class="cls-1" d="M65,45.75A5.92,5.92,0,1,1,71,39.83,5.92,5.92,0,0,1,65,45.75ZM65,35.5a4.33,4.33,0,1,0,4.33,4.33A4.34,4.34,0,0,0,65,35.5Z"/>
    <path class="cls-1" d="M54.12,57.54a11,11,0,0,1,21.83,0h1.59a12.59,12.59,0,0,0-25,0Z"/>
    <path class="cls-1" d="M29.39,46a5.92,5.92,0,1,1,5.92-5.92A5.93,5.93,0,0,1,29.39,46Zm0-10.25a4.34,4.34,0,1,0,4.33,4.33A4.34,4.34,0,0,0,29.39,35.72Z"/>
    <path class="cls-1" d="M18.48,57.77a11,11,0,0,1,21.82,0h1.6a12.59,12.59,0,0,0-25,0Z"/>
    <path class="cls-1" d="M46,106.23l-.11-.06L0,79.67V26.56l.1-.06L46,0l.1.06L92,26.56V79.67l-.11.06ZM.42,79.43,46,105.74,91.58,79.43V26.8L46,.48.42,26.8Z"/>
</svg>