<svg xmlns="http://www.w3.org/2000/svg" viewBox="0 0 92 106.23">
    <defs>
        <style>.cls-1{isolation:isolate;}.cls-2{mix-blend-mode:hard-light;}.cls-3{fill:#f70000;}</style>
    </defs>
    <g class="cls-1">
        <g id="Capa_1" data-name="Capa 1">
            <g class="cls-2">
                <path class="cls-3" d="M46,7.91,6.85,30.51v45.2L46,98.31l39.14-22.6V30.51ZM78.3,71.77,46,90.42,13.69,71.77V34.46L46,15.81,78.3,34.46Z"/>
                <path class="cls-3" d="M35.06,76.22l-6.91-5L38,57.52l6.9,4.95Zm-4.49-5.35,4.09,2.93,7.83-10.93-4.08-2.93Z"/>
                <rect class="cls-3" x="33.33" y="67.59" width="0.52" height="6.76" transform="translate(-43.66 56.91) rotate(-54.36)"/>
                <rect class="cls-3" x="39.95" y="57.88" width="4.82" height="1.73" transform="translate(-30.06 58.93) rotate(-54.35)"/>
                <path class="cls-3" d="M43.26,57.49a13,13,0,1,1,18.15-3A13,13,0,0,1,43.26,57.49ZM57.41,37.76A11.27,11.27,0,1,0,60,53.49,11.28,11.28,0,0,0,57.41,37.76Z"/>
                <path class="cls-3" d="M45,55.05a10,10,0,1,1,14-2.3A10,10,0,0,1,45,55.05ZM55.8,40a8.51,8.51,0,1,0,2,11.88A8.52,8.52,0,0,0,55.8,40Z"/>
                <path class="cls-3" d="M50.84,47.21a3.05,3.05,0,1,1,3-3.05A3.06,3.06,0,0,1,50.84,47.21Zm0-5.29a2.24,2.24,0,1,0,2.23,2.24A2.24,2.24,0,0,0,50.84,41.92Z"/>
                <path class="cls-3" d="M45.21,53.29a5.68,5.68,0,0,1,11.26,0h.82a6.49,6.49,0,0,0-12.9,0Z"/>
                <g class="cls-2">
                    <path class="cls-3" d="M46,106.23l-.11-.06L0,79.67V26.56l.1-.06L46,0l.1.06L92,26.56V79.67l-.11.06ZM.42,79.43,46,105.74,91.58,79.43V26.8L46,.48.42,26.8Z"/>
                </g>
            </g>
        </g>
    </g>
</svg>