<svg xmlns="http://www.w3.org/2000/svg" viewBox="0 0 92 106.23">
    <defs>
        <style>.cls-1{isolation:isolate;}.cls-2,.cls-3{fill:#f70000;}.cls-2{mix-blend-mode:hard-light;}</style>
    </defs>
    <g class="cls-1">
        <g id="Capa_1" data-name="Capa 1">
            <path class="cls-2" d="M46,7.92,6.85,30.51v45.2L46,98.31l39.14-22.6V30.51ZM78.3,71.77,46,90.42,13.69,71.77V34.46L46,15.81,78.3,34.46Z"/>
            <path class="cls-3" d="M46,106.23l-.11-.06L0,79.67V26.56l.1-.06L46,0l.1.06L92,26.56V79.67l-.11.06ZM.42,79.43,46,105.74,91.58,79.43V26.8L46,.48.42,26.8Z"/>
            <path class="cls-3" d="M59.72,70.54a1.26,1.26,0,0,1-1-.52l-5.07-7.08H32.73a4.65,4.65,0,0,1-4.65-4.65V42.76a4.66,4.66,0,0,1,4.65-4.66H56.31A4.66,4.66,0,0,1,61,42.76V69.3a1.24,1.24,0,0,1-.86,1.18A1.26,1.26,0,0,1,59.72,70.54Zm-27-30a2.18,2.18,0,0,0-2.17,2.18V58.29a2.17,2.17,0,0,0,2.17,2.17H54.27a1.26,1.26,0,0,1,1,.52l3.2,4.47V42.76a2.18,2.18,0,0,0-2.17-2.18Z"/>
            <path class="cls-3" d="M39.17,54.32a1.23,1.23,0,1,1-1.23-1.23A1.23,1.23,0,0,1,39.17,54.32Z"/>
            <path class="cls-3" d="M45.75,54.32a1.23,1.23,0,1,1-1.23-1.23A1.23,1.23,0,0,1,45.75,54.32Z"/>
            <path class="cls-3" d="M52.33,54.32a1.23,1.23,0,1,1-1.23-1.23A1.23,1.23,0,0,1,52.33,54.32Z"/>
        </g>
    </g>
</svg>