<svg xmlns="http://www.w3.org/2000/svg" viewBox="0 0 92 106.23">
    <defs>
        <style>.cls-1{isolation:isolate;}.cls-2,.cls-3{mix-blend-mode:hard-light;}.cls-3,.cls-4{fill:#f70000;}</style>
    </defs>
    <g class="cls-1">
        <g id="Capa_1" data-name="Capa 1">
            <g class="cls-2">
                <path class="cls-3" d="M46,7.92,6.85,30.51v45.2L46,98.31l39.14-22.6V30.51ZM78.3,71.77,46,90.42,13.69,71.77V34.46L46,15.81,78.3,34.46Z"/>
                <g class="cls-2">
                    <path class="cls-4" d="M46,106.23l-.11-.06L0,79.67V26.56l.1-.06L46,0l.1.06L92,26.56V79.67l-.11.06ZM.42,79.43,46,105.74,91.58,79.43V26.8L46,.48.42,26.8Z"/>
                </g>
                <path class="cls-4" d="M41.69,68.06h9.12l.57-2.2H41.21Z"/>
                <polygon class="cls-4" points="42.23 71.2 50 71.2 50.65 69.05 41.76 69.05 42.23 71.2"/>
                <path class="cls-4" d="M46.21,76.42a3.89,3.89,0,0,0,3.89-3.88H42.33A3.88,3.88,0,0,0,46.21,76.42Z"/>
                <path class="cls-4" d="M45.89,38.61a1.45,1.45,0,0,0,1.44-1.44v-8a1.45,1.45,0,1,0-2.89,0v8A1.45,1.45,0,0,0,45.89,38.61Z"/>
                <path class="cls-4" d="M59.94,37.6a1.45,1.45,0,0,0-2-2.05L52.51,41a1,1,0,0,0-.09.13,10.51,10.51,0,0,0-12.39,0,1,1,0,0,0-.09-.13l-5.39-5.4a1.45,1.45,0,0,0-2,2.05L37.9,43,38,43a10.55,10.55,0,0,0-1,11.81,1.34,1.34,0,0,0,.13.23l.2.31a23.13,23.13,0,0,1,2.43,7.47A1.44,1.44,0,0,0,41.19,64H51.27a1.44,1.44,0,0,0,1.42-1.19c.92-5.27,2.6-7.74,2.61-7.75a1.82,1.82,0,0,0,.15-.27,10.58,10.58,0,0,0,1.36-5.19,10.2,10.2,0,0,0-.43-2.94.19.19,0,0,0,0-.08A10.55,10.55,0,0,0,54.48,43l.07,0ZM46.23,41.94a7.72,7.72,0,0,1,6.49,3.58h-5A1.44,1.44,0,0,0,46.29,47v5.85h-1V49.64a1.43,1.43,0,0,0-1.44-1.44H38.67A7.71,7.71,0,0,1,46.23,41.94Zm6.64,11.59a.41.41,0,0,0,0,.09,23.34,23.34,0,0,0-2.74,7.54H42.39a24.43,24.43,0,0,0-2.58-7.27l0-.06c-.05-.09-.11-.18-.17-.27v0a7.71,7.71,0,0,1-.91-2.45h3.76v3.19a1.45,1.45,0,0,0,1.45,1.44h3.84a1.44,1.44,0,0,0,1.44-1.44V48.41h4.64a7.12,7.12,0,0,1,.11,1.23A7.7,7.7,0,0,1,52.87,53.53Z"/>
            </g>
        </g>
    </g>
</svg>