<svg xmlns="http://www.w3.org/2000/svg" viewBox="0 0 92 106.23">
    <defs>
        <style>.cls-1{isolation:isolate;}.cls-2{mix-blend-mode:hard-light;}.cls-3{fill:#f70000;}</style>
    </defs>
    <g class="cls-1">
        <g id="Capa_1" data-name="Capa 1">
            <g class="cls-2">
                <path class="cls-3" d="M46,7.92,6.85,30.51v45.2L46,98.31l39.14-22.6V30.51ZM78.3,71.77,46,90.42,13.69,71.77V34.46L46,15.81,78.3,34.46Z"/>
                <g class="cls-2">
                    <path class="cls-3" d="M46,106.23l-.11-.06L0,79.67V26.56l.1-.06L46,0l.1.06L92,26.56V79.67l-.11.06ZM.42,79.43,46,105.74,91.58,79.43V26.8L46,.48.42,26.8Z"/>
                </g>
                <path class="cls-3" d="M56.08,58.24h0L45.51,58a1.45,1.45,0,0,1-1-.46,1.48,1.48,0,0,1-.39-1c.2-4.83.51-12.7.49-13.4a1.44,1.44,0,0,1,2.88-.2c0,.53-.22,7.35-.42,12.25l9.07.25a1.45,1.45,0,0,1,0,2.89ZM44.59,43.08Z"/>
                <path class="cls-3" d="M49.12,36.83V33.58h-5.4v3.13a18.8,18.8,0,1,0,5.4.12ZM46,71.2A15.88,15.88,0,1,1,61.92,55.32,15.9,15.9,0,0,1,46,71.2Z"/>
            </g>
        </g>
    </g>
</svg>