<svg id="Capa_1" data-name="Capa 1"
    xmlns="http://www.w3.org/2000/svg" viewBox="0 0 23.6 22.51">
    <defs>
        <style>.cls-1{fill:#2a2a2a;}</style>
    </defs>
    <path class="cls-1" d="M22.93,3.91l-2.78-.47L21.8,1.82a.5.5,0,0,0-.7-.71L19.2,3,18.12.31a.5.5,0,0,0-.93.38l1.24,3.05-.73.72L16.62,1.81a.5.5,0,0,0-.93.37l1.23,3-2.5,2.47a8.58,8.58,0,1,0,.7.71l2.64-2.59,3.51.58h.09A.5.5,0,0,0,21.85,6a.51.51,0,0,0-.41-.58l-2.8-.46.63-.63,3.5.58h.08a.5.5,0,0,0,.5-.42A.5.5,0,0,0,22.93,3.91ZM16.25,14A7.55,7.55,0,1,1,13.7,8.4L12.28,9.8a5.57,5.57,0,1,0,.7.71l1.43-1.4A7.46,7.46,0,0,1,16.25,14Zm-6,0a1.5,1.5,0,1,1-1.5-1.5,1.46,1.46,0,0,1,.63.15l-1,1a.5.5,0,0,0,.35.86.47.47,0,0,0,.35-.15l1-1A1.45,1.45,0,0,1,10.25,14Zm-.13-2.08a2.46,2.46,0,0,0-1.37-.42,2.51,2.51,0,1,0,2.08,1.12l1.43-1.4a4.6,4.6,0,1,1-.71-.71Z"/>
</svg>