<?xml version="1.0" encoding="utf-8"?>
<svg version="1.0" id="Capa_1"
	xmlns="http://www.w3.org/2000/svg"
	xmlns:xlink="http://www.w3.org/1999/xlink" x="0px" y="0px" viewBox="0 0 130 147" style="enable-background:new 0 0 130 147;" xml:space="preserve">
	<style type="text/css">
	.st0{fill:#FFFFFF;}
	.st1{fill:#73726F;}
	.st2{fill:#FF0600;}
	</style>
	<g>
		<path class="st0" d="M0.21,42.21v62.88c0,3.77,2.01,7.25,5.27,9.13l54.46,31.44c3.26,1.88,7.28,1.88,10.54,0l54.46-31.44
		c3.26-1.88,5.27-5.36,5.27-9.13V42.21c0-3.77-2.01-7.25-5.27-9.13L70.48,1.64c-3.26-1.88-7.28-1.88-10.54,0L5.48,33.09
		C2.22,34.97,0.21,38.45,0.21,42.21z"/>
		<g id="XMLID_1_">
			<g id="XMLID_2_">
				<g id="XMLID_4_">
					<path class="st1" d="M75.43,49.95l0.52,1.89l4.69-1.3l-0.52-1.89c-2.59-9.36-12.31-14.86-21.66-12.28
					c-9.36,2.59-14.86,12.31-12.28,21.66l4.29,15.51l4.69-1.3l-4.29-15.51c-1.87-6.77,2.11-13.8,8.88-15.67
					C66.52,39.2,73.55,43.18,75.43,49.95z"/>
				</g>
				<g id="XMLID_3_">
					<path class="st2" d="M88.58,63.18H42.25c-1.04,0-1.89,0.85-1.89,1.89v30.1c0,1.05,0.85,1.89,1.89,1.89h46.33
					c1.05,0,1.89-0.84,1.89-1.89v-30.1C90.48,64.03,89.64,63.18,88.58,63.18z M69.2,87.71h-7.57l1.32-9.37
					c-1.01-0.76-1.67-1.97-1.67-3.32c0-2.29,1.86-4.16,4.14-4.16c2.29,0,4.14,1.86,4.14,4.16c0,1.35-0.65,2.56-1.67,3.32L69.2,87.71
					z"/>
				</g>
			</g>
		</g>
	</g>
</svg>
