<?xml version="1.0" encoding="utf-8"?>
<svg version="1.0" id="Capa_1" xmlns="http://www.w3.org/2000/svg" xmlns:xlink="http://www.w3.org/1999/xlink" x="0px" y="0px"
	 viewBox="0 0 130 147" style="enable-background:new 0 0 130 147;" xml:space="preserve">
<style type="text/css">
	.st0{fill:#FFFFFF;}
	.st1{fill:#FF0600;}
</style>


	<path class="st0" d="M0,42.06l0,62.88c0,3.77,2.01,7.25,5.27,9.13l54.46,31.44c3.26,1.88,7.28,1.88,10.54,0l54.46-31.44
		c3.26-1.88,5.27-5.36,5.27-9.13V42.06c0-3.77-2.01-7.25-5.27-9.13L70.27,1.49c-3.26-1.88-7.28-1.88-10.54,0L5.27,32.93
		C2.01,34.81,0,38.29,0,42.06z"/>
	
		<path class="st1" d="M88.55,49.95c-0.44-0.44-1.04-0.69-1.66-0.69l-0.04,0l-26.07,0.31c-0.61,0.01-1.2,0.25-1.63,0.69l-28.3,28.29
			c-0.44,0.44-0.68,1.04-0.69,1.66c0,0.62,0.25,1.22,0.69,1.66l25.78,25.78c0.44,0.44,1.03,0.69,1.66,0.69
			c0.62,0,1.22-0.25,1.66-0.69l28.29-28.29c0.43-0.44,0.68-1.02,0.69-1.63l0.3-26.09v-0.01V51.6
			C89.24,50.98,88.99,50.38,88.55,49.95z M61.31,105.16L33.34,77.19l1.45-1.45l27.96,27.96L61.31,105.16z M63.52,102.94L35.56,74.98
			l0.73-0.73l27.96,27.96L63.52,102.94z M72.59,72.76l0.33,0.43l-2.33,2.32c-1.06-1.08-2.05-2.04-2.99-2.91L64,76.04
			c1.23,1.87,1.88,3.37,1.97,4.48c0.08,1.11-0.39,2.31-1.43,3.58c-1.35,1.65-2.87,2.5-4.57,2.53c-1.7,0.03-3.35-0.61-4.97-1.93
			l-0.02-0.02l-2.65,2.52c-1.14-1.01-1.68-1.54-1.63-1.61l2.59-2.49c-1.06-1.1-1.91-2.08-2.55-2.91l-0.4-0.49l2.33-2.22
			c1.11,1.2,2.18,2.26,3.19,3.2l3.91-3.72c-1.24-1.83-1.91-3.37-2.02-4.63s0.32-2.49,1.31-3.7c1.28-1.57,2.72-2.36,4.3-2.35
			c1.58,0.01,3.21,0.69,4.88,2.05l0.31,0.25l3.12-2.94l1.76,1.44l-3.23,3.08C71.09,71.06,71.89,71.92,72.59,72.76z M81.37,62.13
			c-1.38,1.38-3.62,1.38-5,0c-1.38-1.38-1.38-3.62,0-5c1.38-1.38,3.62-1.38,5,0C82.75,58.51,82.75,60.75,81.37,62.13z"/>
		<path class="st1" d="M57.62,82.15c1.4,0.91,2.59,0.76,3.57-0.43c0.31-0.38,0.46-0.78,0.45-1.2c-0.01-0.42-0.21-0.97-0.58-1.65
			L57.62,82.15z"/>
		<path class="st1" d="M62.39,70.99c-0.31,0.38-0.44,0.79-0.4,1.22c0.04,0.43,0.3,1.06,0.78,1.87l3.11-2.98
			C64.4,70,63.24,69.96,62.39,70.99z"/>
	

</svg>
