<svg xmlns="http://www.w3.org/2000/svg"
    xmlns:xlink="http://www.w3.org/1999/xlink" width="130" height="43" viewBox="0 0 130 43">
    <defs>
        <style>.a{fill:#bfbebe;}.b{clip-path:url(#a);}.c{fill:#0160a9;}.d{fill:#fcb618;}</style>
        <clipPath id="a">
            <rect class="a" width="130" height="43" transform="translate(0.012 0.405)"/>
        </clipPath>
    </defs>
    <g class="b" transform="translate(-0.012 -0.405)">
        <g transform="translate(9.048 0.732)">
            <path class="c" d="M58.114,27.741H46.052a.69.69,0,1,1,0-1.361h12a4.752,4.752,0,0,0,3.757-4.63c.142-3.676-2.031-4.061-2.315-4.061H51.86A4.386,4.386,0,0,1,48.2,12.9a6.194,6.194,0,0,1,4.955-5.97H64.044a.69.69,0,1,1,0,1.381H53.281a4.853,4.853,0,0,0-3.818,4.63h0a3.148,3.148,0,0,0,2.4,3.351h7.717s3.818.3,3.615,5.524a6.092,6.092,0,0,1-4.955,5.93Z" transform="translate(25.308 4.243)"/>
            <path class="c" d="M71.5,27.68H60.286c-1.462-.162-4.265-1.178-4.325-3.919a89.7,89.7,0,0,1,2.031-12.184h0S59.7,7.089,63.333,7.089h8.2c.122,0,3.412,1.015,3.412,3.838a47.744,47.744,0,0,1-.731,6.559.67.67,0,0,1-.67.569l-15.535.122a34.337,34.337,0,0,0-.67,5.544c0,2.031,2.7,2.538,3.066,2.579H71.5a.69.69,0,0,1,0,1.381ZM59.312,11.962c0,.345-.528,2.457-.975,4.833l14.621-.122a46.711,46.711,0,0,0,.609-5.767c0-1.6-1.929-2.356-2.356-2.5h-7.92c-2.518,0-3.879,3.148-4.041,3.554Z" transform="translate(34.67 4.385)"/>
            <path class="c" d="M34.839,36.78h-.122a.69.69,0,0,1-.548-.792L36.362,23.8c.548-3.005,1.1-6.092,1.523-8.285.2-1.137.386-2.031.508-2.741a8.96,8.96,0,0,1,.244-1.137h0a8,8,0,0,1,4.975-4.671h7.778c.67,0,4.224,1.34,3.818,4.061L53.42,22.911h0A6.986,6.986,0,0,1,49.033,27.5h-.162l-7.047.2h0a6.559,6.559,0,0,1-4.061-2.518c-.772,4.163-1.523,8.346-2.031,10.9a.69.69,0,0,1-.894.69Zm3.005-13.423A5.442,5.442,0,0,0,41.723,26.4l6.884-.183a5.747,5.747,0,0,0,3.371-3.615l1.889-11.575c.2-1.279-1.767-2.66-2.579-2.66H43.794a6.8,6.8,0,0,0-3.879,3.818C39.794,12.7,38.86,17.773,37.844,23.357Z" transform="translate(15.625 4.281)"/>
            <path class="d" d="M44.973,9.311a1.909,1.909,0,1,1,1.909,1.909,1.909,1.909,0,0,1-1.909-1.909ZM42.556,4.823a1.929,1.929,0,1,0-1.909-1.929,1.929,1.929,0,0,0,1.909,1.929ZM38.21,11.342a1.909,1.909,0,1,0-1.395-.6,1.909,1.909,0,0,0,1.395.6Zm8.448,22.216a.811.811,0,1,0,0-.041ZM34.108,27.79a1.564,1.564,0,0,0-1.564,1.584,1.543,1.543,0,0,0,1.564,1.564,1.564,1.564,0,0,0,1.584-1.564,1.584,1.584,0,0,0-1.584-1.625Zm4.224,6.092a.66.66,0,1,0,0-.041Zm-4.346,6.661a1.584,1.584,0,1,0,1.584,1.584,1.584,1.584,0,0,0-1.584-1.584Zm-4.061-6.336a1.218,1.218,0,1,0,.875.35,1.218,1.218,0,0,0-.875-.35ZM14.857,21.5a1.239,1.239,0,1,0,1.218,1.218A1.218,1.218,0,0,0,14.857,21.5Zm2.193-6.539a.521.521,0,1,0,0-.1Zm4.061-4.244a1.218,1.218,0,1,0-1.218-1.218,1.218,1.218,0,0,0,1.3,1.117Zm4.2-6.336A1.239,1.239,0,1,0,24.1,3.158a1.218,1.218,0,0,0,1.3,1.117Zm.122,36.553a1.239,1.239,0,1,0,1.239,1.239,1.218,1.218,0,0,0-1.158-1.279Zm-4.2-6.681a.894.894,0,1,0,.081-.041Zm-4.325-6.092a.871.871,0,1,0,.081-.061Zm-2.315,6.7a.445.445,0,1,0,.081-.061Zm-3.94-6.092a.65.65,0,0,0,0,1.279.65.65,0,0,0,0-1.279Zm-2.437-6.8a.274.274,0,1,0,.081-.081Zm2.335-5.239a.63.63,0,1,0-.63-.63.63.63,0,0,0,.63.63Zm4.265-6.64a.63.63,0,1,0-.63-.63.63.63,0,0,0,.63.63ZM25.458,27.75a1.564,1.564,0,0,0-1.564,1.584A1.543,1.543,0,0,0,25.458,30.9a1.564,1.564,0,0,0,1.584-1.564A1.584,1.584,0,0,0,25.458,27.75Zm-4.447-6.7a1.584,1.584,0,1,0,1.584,1.584,1.584,1.584,0,0,0-1.584-1.584ZM25.4,17.677a1.584,1.584,0,1,0-1.584-1.584A1.584,1.584,0,0,0,25.4,17.677Zm4.407-6.7a1.584,1.584,0,1,0-1.584-1.584A1.584,1.584,0,0,0,29.8,10.976Zm4.061-6.458a1.755,1.755,0,1,1,.122,0Zm8.61,35.68a1.869,1.869,0,1,0,.081,0ZM58.863,21.922H48.709L44.546,15.5H35.753a1.889,1.889,0,0,0-1.767-1.32,1.909,1.909,0,1,0,1.807,2.5h8.123l3.432,5.28H31.468a1.889,1.889,0,1,0,0,1.178H51.451l-3.249,5.6H44.364a1.909,1.909,0,0,0-1.807-1.34,1.929,1.929,0,0,0,0,3.838,1.909,1.909,0,0,0,1.807-1.34h4.305L52.73,23.14h6.255Z" transform="translate(-7.587 -0.965)"/>
        </g>
    </g>
</svg>