<svg id="Capa_1" data-name="Capa 1" xmlns="http://www.w3.org/2000/svg" xmlns:xlink="http://www.w3.org/1999/xlink" viewBox="0 0 225.44 205.02"><defs><style>.cls-1,.cls-13{fill:none;}.cls-2{fill:#f5f5f5;}.cls-3{fill:#e6e6e6;}.cls-4{fill:#f90a0a;}.cls-15,.cls-5{opacity:0.15;}.cls-16,.cls-6{fill:#fff;}.cls-7{fill:#37474f;}.cls-8{fill:#263238;}.cls-12,.cls-9{fill:#455a64;}.cls-10{fill:#fafafa;}.cls-11{fill:#ebebeb;}.cls-12,.cls-14{opacity:0.5;}.cls-12,.cls-15,.cls-16,.cls-20,.cls-22{isolation:isolate;}.cls-13{stroke:#e0e0e0;stroke-miterlimit:10;stroke-width:0.36px;}.cls-16,.cls-20{opacity:0.4;}.cls-17{clip-path:url(#clip-path);}.cls-18{fill:#ffa8a7;}.cls-19{fill:#f0f0f0;}.cls-21{fill:#f28f8f;}.cls-22{opacity:0.1;}</style><clipPath id="clip-path"><path class="cls-1" d="M84.07,37.27l35-20.23c.63-.36,1.14-.06,1.14.66V71.51a2.48,2.48,0,0,1-1.14,2l-35,20.19c-.63.36-1.14.07-1.14-.66V39.25A2.48,2.48,0,0,1,84.07,37.27Z"/></clipPath></defs><g id="freepik--Floor--inject-67"><ellipse id="freepik--floor--inject-67-2" data-name="freepik--floor--inject-67" class="cls-2" cx="121.66" cy="141.08" rx="102.87" ry="58.51"/></g><g id="freepik--Shadow--inject-67"><ellipse id="freepik--shadow--inject-67-2" data-name="freepik--shadow--inject-67" class="cls-3" cx="186.91" cy="152.88" rx="24.6" ry="15.42"/></g><g id="freepik--Plants--inject-67"><path class="cls-4" d="M24.51,108.11a36.1,36.1,0,0,0-2.44-10.34C19.91,92.42,15.75,87.05,11,86s-6.8,2.21-5.79,5.37c.87,2.71,4.42,5,7.12,7.35s7.73,8.14,9.13,13.65l2.7.3Z"/><g class="cls-5"><path d="M24.51,108.11a36.1,36.1,0,0,0-2.44-10.34C19.91,92.42,15.75,87.05,11,86s-6.8,2.21-5.79,5.37c.87,2.71,4.42,5,7.12,7.35s7.73,8.14,9.13,13.65l2.7.3Z"/></g><path class="cls-6" d="M22.65,110.59a.29.29,0,0,1-.29-.29C21.85,96.36,8.23,88.57,8.08,88.49A.31.31,0,0,1,8,88.07.29.29,0,0,1,8.37,88C8.52,88,22.44,96,23,110.27a.29.29,0,0,1-.28.31Z"/><path class="cls-4" d="M26.65,132.65a10.72,10.72,0,0,1-7.14,1,6.74,6.74,0,0,1-3.75-1.8c-1.12-1.16-1.3-2.33-1.61-3.88a4.78,4.78,0,0,0-.65-1.83c-1-1.28-2.8-1.26-4.35-1.59a6.44,6.44,0,0,1-4.86-4.22,4.75,4.75,0,0,1,2.48-5.64l-2.56-1.64A11.53,11.53,0,0,1,2,111.39a3.79,3.79,0,0,1-1.11-2.47,3.63,3.63,0,0,1,2.26-3.13,7.68,7.68,0,0,1,4-.41,18.23,18.23,0,0,1,4,1,3.14,3.14,0,0,0,1.12.25,3,3,0,0,0,1.37-.63c2.93-1.92,7.7-1.79,9.27,1.86.23.54.37,1.11.62,1.64.91,2,3.47,1.37,5.13,2.29a4.21,4.21,0,0,1,1.91,3c.33,1.94-.21,4.16-.57,6.08s-.81,3.7-1.33,5.52c-.43,1.51-.9,3-1.39,4.47C27.19,131.13,27,132.46,26.65,132.65Z"/><path class="cls-6" d="M28.41,128.16a26.77,26.77,0,0,0-7-10.53.31.31,0,0,0-.16-.16,36.24,36.24,0,0,0-2.84-2.39,14.54,14.54,0,0,1,1-7.63.31.31,0,0,0-.14-.4.3.3,0,0,0-.4.14,14.94,14.94,0,0,0-1.11,7.38A46.17,46.17,0,0,0,4.54,108a.3.3,0,0,0-.16.58h0A44.81,44.81,0,0,1,20,117.16c-4.3-.75-9.44,1.33-9.67,1.44a.29.29,0,0,0,.11.57.24.24,0,0,0,.12,0c.05,0,6.09-2.47,10.35-1.14a26.45,26.45,0,0,1,6.93,10.32.29.29,0,0,0,.28.21h.1a.3.3,0,0,0,.17-.39Z"/></g><g id="freepik--Device--inject-67"><g id="freepik--Laptop--inject-67"><path class="cls-7" d="M26.75,132.23a4.44,4.44,0,0,0,2.09,3.46l58.37,33.69a4.58,4.58,0,0,0,4.17,0l79.85-46.1a3.92,3.92,0,0,0,0-6.92l-58.36-33.7a4.64,4.64,0,0,0-4.17,0L28.84,128.78A4.43,4.43,0,0,0,26.75,132.23Z"/><path class="cls-8" d="M89.28,165.38v4.5a4.29,4.29,0,0,1-2.08-.47L28.81,135.69a3.91,3.91,0,0,1-1.63-5.27,4,4,0,0,1,1.42-1.51c-.93.67-.86,1.65.21,2.27l58.4,33.7A4.28,4.28,0,0,0,89.28,165.38Z"/><path class="cls-9" d="M24.8,128.85a4.49,4.49,0,0,1-2-3.54V55.66a4.6,4.6,0,0,1,2.09-3.6L104.78,6a4.49,4.49,0,0,1,4-.07,4.48,4.48,0,0,1,2,3.53V79.06a4.62,4.62,0,0,1-2.09,3.61L28.84,128.78A4.49,4.49,0,0,1,24.8,128.85Z"/><path class="cls-8" d="M28.59,128.9a4.52,4.52,0,0,1-3.79-.05,4.49,4.49,0,0,1-2-3.54V55.66a4.27,4.27,0,0,1,.62-2l3.9,2.25h0a4.37,4.37,0,0,0-.61,2v69.66C26.75,128.8,27.55,129.35,28.59,128.9Z"/><path class="cls-7" d="M26.75,57.92v69.65c0,1.33,1,1.87,2.09,1.21l79.85-46.11a4.62,4.62,0,0,0,2.09-3.61V9.41c0-1.33-.94-1.87-2.09-1.2L28.84,54.31A4.6,4.6,0,0,0,26.75,57.92Z"/><path class="cls-9" d="M28.84,131.18l58.37,33.7a4.64,4.64,0,0,0,4.17,0l79.85-46.11c1.16-.66,1.16-1.74,0-2.39l-58.36-33.7a4.64,4.64,0,0,0-4.17,0l-79.86,46.1C27.68,129.44,27.68,130.51,28.84,131.18Z"/><path class="cls-10" d="M30,58.18l77-44.44c.69-.4,1.25-.07,1.25.72V74.77A2.79,2.79,0,0,1,107,76.94L30,121.36c-.7.39-1.26.07-1.26-.73V60.32A2.75,2.75,0,0,1,30,58.18Z"/><path class="cls-7" d="M35.61,129.37l74.13-42.8a2.31,2.31,0,0,1,2.08,0l3.79,2.19a.64.64,0,0,1,0,1.2l-74.14,42.8a2.31,2.31,0,0,1-2.08,0l-3.78-2.18a.64.64,0,0,1-.39-.82A.65.65,0,0,1,35.61,129.37Z"/><path class="cls-8" d="M45.38,135l74.13-42.8a2.31,2.31,0,0,1,2.08,0l23.32,13.46a.64.64,0,0,1,.39.82.65.65,0,0,1-.39.39l-74,42.73a2.33,2.33,0,0,1-2.09,0l-23.4-13.4a.63.63,0,0,1-.4-.8A.61.61,0,0,1,45.38,135Z"/><path class="cls-9" d="M111.83,111.46l2.32-1.33a.12.12,0,0,0,0-.22l-2.69-1.55a.4.4,0,0,0-.37,0l-2.32,1.34c-.1,0-.1.15,0,.21l2.68,1.55A.42.42,0,0,0,111.83,111.46Zm-4.58-5.32-2.33,1.35c-.1.06-.09.15,0,.21l2.68,1.55a.42.42,0,0,0,.38,0l2.32-1.34a.12.12,0,0,0,0-.21l-2.69-1.55a.38.38,0,0,0-.36,0Zm-7.5,4.36-3.93,2.27c-.1.06-.09.15,0,.21l2.68,1.56a.5.5,0,0,0,.38,0l3.92-2.27c.1-.06.09-.15,0-.21l-2.67-1.56A.42.42,0,0,0,99.75,110.5Zm4.1-2.39-2.32,1.34a.12.12,0,0,0,0,.22l2.69,1.55a.4.4,0,0,0,.37,0l2.32-1.34a.12.12,0,0,0,0-.21l-2.69-1.56A.4.4,0,0,0,103.85,108.11Zm-9.09,5.27-2.32,1.33a.12.12,0,0,0,0,.22l2.68,1.55a.4.4,0,0,0,.37,0l2.32-1.34c.1,0,.09-.15,0-.21l-2.69-1.55a.4.4,0,0,0-.37,0Zm-3.39,2-2.32,1.34c-.1.06-.1.15,0,.22l2.68,1.55a.47.47,0,0,0,.37,0l2.32-1.34a.12.12,0,0,0,0-.22l-2.68-1.55a.37.37,0,0,0-.38,0Zm10.56,6.3,2.32-1.34a.12.12,0,0,0,0-.21l-2.69-1.55a.4.4,0,0,0-.37,0l-2.32,1.34a.12.12,0,0,0,0,.22l2.68,1.54a.4.4,0,0,0,.37,0Zm-3.4,2,2.32-1.34c.1-.06.09-.15,0-.21l-2.68-1.55a.4.4,0,0,0-.37,0l-2.32,1.34c-.1.06-.09.15,0,.22l2.68,1.55a.41.41,0,0,0,.36,0Zm-3.39,2,2.32-1.34c.1-.06.09-.15,0-.21l-2.68-1.55a.4.4,0,0,0-.37,0l-2.32,1.34c-.1.06-.1.15,0,.21l2.68,1.55a.41.41,0,0,0,.36,0Zm-3.39,2,2.32-1.34c.1-.06.09-.15,0-.21l-2.71-1.57a.4.4,0,0,0-.37,0l-2.32,1.33a.12.12,0,0,0,0,.22l2.68,1.55a.41.41,0,0,0,.39,0Zm16.69-14.07,2.33-1.34a.12.12,0,0,0,0-.21l-2.69-1.55a.4.4,0,0,0-.37,0l-2.32,1.34c-.1.06-.09.15,0,.21l2.69,1.55a.41.41,0,0,0,.36,0Zm-3.13,6.23,5.18-3c.1,0,.09-.15,0-.21L104,112.7a.4.4,0,0,0-.37,0l-2.67,1.55c-.11.06-.1.15,0,.21l3.44,2c.11.07.12.16,0,.22l-2.14,1.24c-.1,0-.09.15,0,.21l2.69,1.55a.39.39,0,0,0,.39,0ZM88,117.27l-2.32,1.34c-.11.06-.1.16,0,.21l2.68,1.56a.47.47,0,0,0,.37,0L91,119c.1,0,.09-.15,0-.21l-2.69-1.55a.4.4,0,0,0-.37,0Zm-3.4,2-2.32,1.34a.12.12,0,0,0,0,.22L85,122.33a.4.4,0,0,0,.37,0L87.64,121a.12.12,0,0,0,0-.21L85,119.23a.39.39,0,0,0-.38,0Zm-17,22a.4.4,0,0,0,.37,0l2.32-1.34c.1-.06.1-.15,0-.21l-2.68-1.55a.4.4,0,0,0-.37,0L65,139.43c-.1.06-.09.15,0,.22Zm-10.19-6.27-2.32,1.34c-.1.05-.09.15,0,.21L57.8,138a.4.4,0,0,0,.37,0l2.32-1.34c.1-.06.09-.15,0-.22l-2.68-1.54A.4.4,0,0,0,57.44,134.92Zm5.46,4.59a.4.4,0,0,0,.37,0l2.32-1.34c.1-.06.09-.15,0-.21l-2.69-1.55a.38.38,0,0,0-.36,0l-2.33,1.34c-.09.05-.09.14,0,.21Zm10.71,2.87L75.93,141c.1,0,.09-.14,0-.21l-2.68-1.55a.4.4,0,0,0-.37,0l-2.32,1.34c-.1.06-.09.15,0,.21l2.68,1.55a.38.38,0,0,0,.37,0Zm-3.76,2a.48.48,0,0,0,.37,0L72.54,143a.12.12,0,0,0,0-.22l-2.69-1.55a.38.38,0,0,0-.36,0l-2.34,1.35c-.1,0-.09.14,0,.21Zm-9-11.4-2.32,1.35c-.1.05-.1.15,0,.21l2.68,1.55a.4.4,0,0,0,.37,0l2.32-1.34a.12.12,0,0,0,0-.22l-2.68-1.55a.43.43,0,0,0-.37,0Zm17-9.79-2.32,1.34c-.1.06-.09.15,0,.22l2.68,1.54a.4.4,0,0,0,.37,0l2.32-1.34c.1,0,.1-.15,0-.21l-2.68-1.55a.4.4,0,0,0-.37,0ZM64.23,131l-2.32,1.34a.12.12,0,0,0,0,.21l2.69,1.55a.4.4,0,0,0,.37,0l2.32-1.34c.1-.05.09-.15,0-.21L64.61,131A.42.42,0,0,0,64.23,131Zm17-9.79-2.31,1.34c-.1.06-.1.15,0,.21l2.68,1.55a.4.4,0,0,0,.37,0L84.25,123c.1-.06.1-.15,0-.22l-2.68-1.54a.39.39,0,0,0-.39,0Zm-6.78,3.91-2.32,1.34a.12.12,0,0,0,0,.22l2.68,1.55a.45.45,0,0,0,.36,0l2.33-1.34a.12.12,0,0,0,0-.22l-2.69-1.54a.44.44,0,0,0-.37,0Zm-3.39,2-2.32,1.34a.12.12,0,0,0,0,.22l2.69,1.55a.38.38,0,0,0,.36,0l2.33-1.34a.11.11,0,0,0,0-.21l-2.69-1.55a.39.39,0,0,0-.38,0Zm-3.39,2-2.32,1.34c-.1.06-.09.15,0,.22L68,132.14a.4.4,0,0,0,.37,0l2.32-1.34c.1-.06.09-.15,0-.21L68,129a.44.44,0,0,0-.39,0ZM85,131.43l2.32-1.34a.12.12,0,0,0,0-.22l-2.69-1.55a.4.4,0,0,0-.37,0l-2.32,1.34c-.1.06-.09.15,0,.21l2.69,1.55a.39.39,0,0,0,.35,0Zm29.79-29.6-2.32,1.34c-.1.06-.09.15,0,.21l2.68,1.55a.4.4,0,0,0,.37,0l2.32-1.34c.1,0,.09-.15,0-.21l-2.68-1.55a.41.41,0,0,0-.39,0Zm-4.11,2.37-2.32,1.34c-.1.06-.09.15,0,.22L111,107.3a.4.4,0,0,0,.37,0l2.32-1.34c.1-.06.1-.15,0-.21L111,104.2a.41.41,0,0,0-.39,0Zm7.5-4.31-2.32,1.34c-.1.06-.09.15,0,.21l2.68,1.55a.4.4,0,0,0,.37,0l2.33-1.34a.12.12,0,0,0,0-.21l-2.69-1.55a.42.42,0,0,0-.38,0ZM100.59,118l2.33-1.34a.12.12,0,0,0,0-.22l-2.69-1.55a.4.4,0,0,0-.37,0l-2.32,1.34a.12.12,0,0,0,0,.22l2.69,1.55a.43.43,0,0,0,.35,0Zm21.32-20.06a.4.4,0,0,0-.37,0l-2.32,1.34c-.1,0-.09.15,0,.21l2.69,1.55a.4.4,0,0,0,.37,0l2.32-1.34c.1,0,.1-.15,0-.21ZM88.36,129.48l2.32-1.33c.1-.06.09-.15,0-.22L88,126.38a.4.4,0,0,0-.37,0l-2.33,1.31c-.1,0-.09.15,0,.21L88,129.45a.44.44,0,0,0,.37,0Zm41.6-24,2.32-1.34c.1-.06.09-.15,0-.21l-2.68-1.55a.42.42,0,0,0-.38,0l-2.31,1.34c-.1.06-.1.15,0,.21l2.68,1.55a.42.42,0,0,0,.35,0Zm-7.23-.25,2.32-1.34a.12.12,0,0,0,0-.22l-2.68-1.55a.4.4,0,0,0-.37,0l-2.32,1.34a.12.12,0,0,0,0,.22l2.68,1.55a.45.45,0,0,0,.36,0Zm3-5.06a.4.4,0,0,0-.37,0l-2.32,1.34c-.1,0-.1.15,0,.21l2.68,1.55a.4.4,0,0,0,.37,0l2.32-1.34a.12.12,0,0,0,0-.22Zm.71-.42,6.52,3.77a.48.48,0,0,0,.37,0l2.32-1.34a.11.11,0,0,0,0-.21l-6.52-3.77a.4.4,0,0,0-.37,0l-2.32,1.34c-.12,0-.12.12,0,.18Zm-7.87,4.31-2.32,1.34a.12.12,0,0,0,0,.21l2.69,1.55a.38.38,0,0,0,.36,0l2.33-1.34c.1-.06.09-.15,0-.22L119,104.05a.42.42,0,0,0-.39,0ZM93.05,118.77l-2.32,1.34c-.1.06-.09.15,0,.22l2.68,1.55a.4.4,0,0,0,.37,0l2.32-1.34c.1-.06.1-.15,0-.21l-2.67-1.55A.42.42,0,0,0,93.05,118.77Zm33.13-11.38a.4.4,0,0,0,.37,0l2.32-1.34c.1,0,.1-.15,0-.21l-2.7-1.56a.38.38,0,0,0-.36,0l-2.33,1.34a.12.12,0,0,0,0,.22Zm-29.74,9.42-2.32,1.34a.12.12,0,0,0,0,.22l2.69,1.55a.4.4,0,0,0,.37,0l2.32-1.34c.1-.06.09-.15,0-.21l-2.68-1.55A.42.42,0,0,0,96.44,116.81ZM71,139.23a.47.47,0,0,0,.37,0l2.32-1.35a.12.12,0,0,0,0-.21L71,136.12a.4.4,0,0,0-.37,0l-2.32,1.34a.12.12,0,0,0,0,.22Zm-5.11-4.79-2.32,1.33a.12.12,0,0,0,0,.22l2.68,1.55a.42.42,0,0,0,.38,0L69,136.2c.1,0,.1-.15,0-.21l-2.68-1.55A.4.4,0,0,0,65.91,134.44Zm8.86,2.87L77.08,136c.1-.06.1-.15,0-.22l-2.68-1.54a.4.4,0,0,0-.37,0l-2.32,1.34c-.1.06-.1.15,0,.21l2.68,1.55A.42.42,0,0,0,74.77,137.31Zm3.38-2L80.48,134c.1-.06.09-.15,0-.21l-2.68-1.55a.42.42,0,0,0-.38,0l-2.32,1.34c-.1.06-.09.15,0,.22l2.69,1.54a.4.4,0,0,0,.38,0Zm3.4-2,2.32-1.34c.1-.05.09-.15,0-.21l-2.69-1.55a.38.38,0,0,0-.36,0l-2.33,1.34c-.1.06-.09.15,0,.21l2.68,1.55a.44.44,0,0,0,.39,0Zm-12.26-.89L67,133.84c-.1.06-.09.15,0,.22l2.68,1.55a.47.47,0,0,0,.37,0l2.32-1.34a.11.11,0,0,0,0-.21l-2.68-1.56a.45.45,0,0,0-.36,0Zm3.39-2-2.32,1.34a.12.12,0,0,0,0,.22L73,133.65a.42.42,0,0,0,.38,0l2.32-1.34a.12.12,0,0,0,0-.21l-2.69-1.55a.4.4,0,0,0-.35,0Zm13.57-7.85L83.94,124c-.1.06-.1.16,0,.21l2.68,1.55a.4.4,0,0,0,.37,0l2.32-1.34c.1,0,.1-.15,0-.21l-2.68-1.55A.42.42,0,0,0,86.25,122.69Zm-3.39,2L80.54,126c-.1.06-.09.15,0,.21l2.68,1.55a.42.42,0,0,0,.38,0l2.32-1.34a.12.12,0,0,0,0-.21l-2.69-1.56a.41.41,0,0,0-.36,0Zm6.79-3.92-2.32,1.34c-.1.06-.1.15,0,.21L90,123.84a.4.4,0,0,0,.37,0l2.32-1.34c.1-.06.09-.15,0-.22L90,120.73a.45.45,0,0,0-.36,0Zm-13.57,7.84-2.32,1.34c-.1.05-.1.15,0,.21l2.69,1.55a.38.38,0,0,0,.36,0l2.33-1.34a.12.12,0,0,0,0-.22l-2.69-1.54a.38.38,0,0,0-.36,0Zm3.39-2L77.15,128c-.1.06-.09.15,0,.21l2.68,1.55a.4.4,0,0,0,.37,0l2.32-1.34c.11-.06.1-.15,0-.22l-2.68-1.54a.38.38,0,0,0-.36,0ZM77,140.43l2.32-1.34a.12.12,0,0,0,0-.21l-2.69-1.57a.4.4,0,0,0-.37,0l-2.32,1.34c-.1.06-.09.15,0,.22l2.68,1.55a.44.44,0,0,0,.39,0Zm-19.91-2-2.68-1.55a.5.5,0,0,0-.38,0l-2.32,1.35a.12.12,0,0,0,0,.21L54.4,140a.4.4,0,0,0,.37,0l2.32-1.34c.12-.06.11-.16,0-.22Zm5.08,1.49-2.68-1.55a.48.48,0,0,0-.37,0l-3.57,2.06c-.1.06-.09.15,0,.22l2.68,1.55a.4.4,0,0,0,.37,0l3.57-2.06c.15-.06.12-.15,0-.22ZM53,135.43l-2.68-1.55a.4.4,0,0,0-.37,0l-2.87,1.65c-.1.06-.1.15,0,.21l2.68,1.55a.4.4,0,0,0,.37,0L53,135.64c.13-.06.12-.15,0-.21Zm2.19-1.27a.4.4,0,0,0,.37,0l2.32-1.34c.1-.06.09-.15,0-.21l-2.69-1.52a.38.38,0,0,0-.36,0l-2.33,1.34a.12.12,0,0,0,0,.21Zm11.75,7.46-2.68-1.56a.38.38,0,0,0-.36,0l-4.47,2.58c-.1.06-.09.15,0,.21l2.69,1.55a.38.38,0,0,0,.36,0l4.47-2.58C67,141.77,67,141.68,66.91,141.62Zm2.23,3.14-2.69-1.55a.4.4,0,0,0-.37,0l-2.87,1.64a.12.12,0,0,0,0,.22l2.69,1.55a.38.38,0,0,0,.36,0L69.14,145c.11-.06.1-.15,0-.22ZM80.39,119.6a.4.4,0,0,0,.37,0l2.32-1.34c.1-.06.1-.15,0-.21L80.4,116.5a.4.4,0,0,0-.37,0l-2.32,1.34c-.1.06-.09.15,0,.21Zm-6.78,3.92a.47.47,0,0,0,.37,0l2.32-1.35c.1,0,.09-.14,0-.21l-2.69-1.55a.47.47,0,0,0-.37,0l-2.3,1.34a.12.12,0,0,0,0,.22Zm-15,8.68a.42.42,0,0,0,.38,0l2.31-1.34a.12.12,0,0,0,0-.22l-2.68-1.54a.4.4,0,0,0-.37,0l-2.32,1.34c-.1.05-.09.15,0,.21ZM77,121.56a.48.48,0,0,0,.37,0l2.32-1.34a.11.11,0,0,0,0-.21L77,118.46a.4.4,0,0,0-.37,0l-2.32,1.34c-.1,0-.1.15,0,.21Zm-6.78,3.91a.4.4,0,0,0,.37,0l2.32-1.33a.12.12,0,0,0,0-.22l-2.69-1.55a.4.4,0,0,0-.37,0l-2.32,1.34a.12.12,0,0,0,0,.21ZM71,145a.4.4,0,0,0-.37,0l-3.57,2.07c-.1.05-.09.15,0,.21l2.68,1.55a.4.4,0,0,0,.37,0l3.57-2.07c.1,0,.09-.15,0-.21Zm-5.65-16.72a.4.4,0,0,0,.37,0L68,126.94c.1-.06.09-.15,0-.21l-2.69-1.55a.38.38,0,0,0-.36,0l-2.33,1.34a.12.12,0,0,0,0,.21Zm-3.39,2a.38.38,0,0,0,.36,0l2.33-1.34c.1-.06.09-.15,0-.22L62,127.13a.5.5,0,0,0-.38,0l-2.31,1.34c-.1.06-.1.16,0,.21Zm71.88-21.54a.4.4,0,0,0-.37,0l-5.71,3.3c-.1.06-.09.15,0,.21l2.68,1.55a.4.4,0,0,0,.37,0l5.73-3.26c.1,0,.09-.15,0-.21Zm-7.5,4.31a.4.4,0,0,0-.37,0l-2.32,1.34a.12.12,0,0,0,0,.21l2.69,1.55a.4.4,0,0,0,.37,0l2.32-1.34a.12.12,0,0,0,0-.22ZM80.39,138.43l2.32-1.34c.1-.06.1-.15,0-.21L80,135.4a.4.4,0,0,0-.37,0l-2.32,1.34c-.1,0-.1.15,0,.21L80,138.5a.38.38,0,0,0,.36,0Zm39.16-21.5a.38.38,0,0,0-.36,0l-2.33,1.34c-.1.06-.09.15,0,.21l2.68,1.55a.42.42,0,0,0,.38,0l2.32-1.34c.1-.06.09-.15,0-.22Zm17.68-10.21a.4.4,0,0,0-.37,0l-2.32,1.34a.12.12,0,0,0,0,.22l2.68,1.55a.47.47,0,0,0,.37,0l2.32-1.35c.1,0,.09-.15,0-.21Zm6.08-.41-6.52-3.76a.4.4,0,0,0-.37,0l-2.32,1.34c-.1,0-.09.15,0,.21l6.51,3.76a.4.4,0,0,0,.37,0l2.33-1.34c.11,0,.11-.1,0-.17Zm-36.43,17.93a.48.48,0,0,0-.37,0l-2.87,1.65c-.1.06-.09.15,0,.21l2.68,1.56a.48.48,0,0,0,.37,0l2.87-1.65c.1-.06.1-.15,0-.22Zm8.57-4.9a.4.4,0,0,0-.37,0l-3.57,2.06a.12.12,0,0,0,0,.22l2.69,1.55a.4.4,0,0,0,.37,0l3.57-2.07a.12.12,0,0,0,0-.21ZM99,128.82a.4.4,0,0,0-.37,0l-19.1,11a.12.12,0,0,0,0,.22l2.68,1.55a.4.4,0,0,0,.37,0l19.1-11c.1-.06.1-.15,0-.21ZM78.86,140.47a.42.42,0,0,0-.38,0l-2.87,1.65a.12.12,0,0,0,0,.21l2.69,1.55a.4.4,0,0,0,.37,0l2.87-1.65c.1-.06.09-.15,0-.21ZM103,126.55a.47.47,0,0,0-.37,0l-2.88,1.65c-.1.06-.09.15,0,.22L102.4,130a.4.4,0,0,0,.37,0l2.87-1.65c.1-.05.09-.15,0-.21Zm-28,16.19a.4.4,0,0,0-.37,0l-2.87,1.65c-.1.06-.09.15,0,.22l2.68,1.54a.4.4,0,0,0,.37,0l2.87-1.65c.1-.06.1-.15,0-.21ZM110.83,122a.42.42,0,0,0-.38,0l-2.87,1.65a.11.11,0,0,0,0,.21l2.69,1.55a.4.4,0,0,0,.37,0l2.87-1.65c.1,0,.09-.15,0-.21ZM123,115a.42.42,0,0,0-.38,0l-2.31,1.34c-.1.06-.1.15,0,.21l2.68,1.55a.4.4,0,0,0,.37,0l2.32-1.34c.1-.06.1-.15,0-.21Zm7.43-5.4,2.32-1.34c.1,0,.09-.15,0-.21L130,106.51a.4.4,0,0,0-.37,0l-2.32,1.34a.12.12,0,0,0,0,.22l2.68,1.54a.4.4,0,0,0,.37,0Zm-15.17-.1,2.32-1.34c.1,0,.09-.14,0-.21l-2.68-1.55a.4.4,0,0,0-.37,0l-2.32,1.34a.12.12,0,0,0,0,.22l2.68,1.55a.41.41,0,0,0,.36,0Zm-7.66,13.3,6.79-3.92a.12.12,0,0,0,0-.21l-2.74-1.56a.47.47,0,0,0-.37,0L104.47,121c-.1,0-.1.15,0,.21l2.68,1.55a.44.44,0,0,0,.39,0Zm19.09-11.25a.4.4,0,0,0,.37,0l2.32-1.34c.1,0,.09-.15,0-.21l-2.68-1.55a.4.4,0,0,0-.37,0L124,109.8c-.1.06-.09.15,0,.22Zm-3.46-2.2,2.32-1.34a.12.12,0,0,0,0-.21l-2.69-1.56a.4.4,0,0,0-.37,0l-2.32,1.34a.12.12,0,0,0,0,.22l2.69,1.55a.47.47,0,0,0,.33,0Zm-19,15.4,2.32-1.34c.1,0,.09-.15,0-.21l-2.68-1.55a.4.4,0,0,0-.37,0L101.13,123a.12.12,0,0,0,0,.22l2.68,1.55a.42.42,0,0,0,.33,0Zm15-8.87a.4.4,0,0,0,.37,0l2.32-1.34c.1,0,.1-.15,0-.21l-2.68-1.55a.47.47,0,0,0-.37,0l-2.32,1.34a.12.12,0,0,0,0,.22ZM87.22,134.56l2.32-1.34c.1-.05.09-.15,0-.21l-2.68-1.55a.4.4,0,0,0-.37,0l-2.32,1.34c-.1.06-.09.15,0,.22l2.68,1.54a.38.38,0,0,0,.33,0Zm3.39-1.95,2.32-1.35c.1,0,.1-.15,0-.21l-2.68-1.55a.4.4,0,0,0-.37,0l-2.32,1.34c-.1.06-.1.15,0,.21l2.69,1.55a.42.42,0,0,0,.31,0Zm-6.78,3.91,2.32-1.34c.1-.06.09-.15,0-.22l-2.68-1.54a.42.42,0,0,0-.38,0l-2.32,1.34a.12.12,0,0,0,0,.21l2.69,1.55a.42.42,0,0,0,.33,0Zm13.53-7.83,2.32-1.33c.1-.06.09-.15,0-.22L97,125.59a.4.4,0,0,0-.37,0l-2.32,1.34c-.1.06-.09.15,0,.21L97,128.69A.37.37,0,0,0,97.36,128.69Zm-3.4,2,2.33-1.34a.12.12,0,0,0,0-.22l-2.69-1.55a.4.4,0,0,0-.37,0l-2.32,1.34a.12.12,0,0,0,0,.21l2.69,1.55a.38.38,0,0,0,.36,0Zm6.79-3.92,2.32-1.34a.11.11,0,0,0,0-.21l-2.68-1.56a.47.47,0,0,0-.37,0L97.7,125c-.1,0-.1.15,0,.21l2.68,1.55a.44.44,0,0,0,.37,0Zm15.52-29a.4.4,0,0,0,.37,0L119,96.43c.1-.06.09-.15,0-.21l-.71-.42a.5.5,0,0,0-.38,0l-2.32,1.35a.12.12,0,0,0,0,.21ZM99.58,108.54a.4.4,0,0,0,.37,0l2.32-1.34a.12.12,0,0,0,0-.22l-2.69-1.54a.38.38,0,0,0-.36,0l-2.33,1.34a.12.12,0,0,0,0,.21Zm6.78-3.93a.4.4,0,0,0,.37,0l2.32-1.34a.12.12,0,0,0,0-.22l-2.68-1.55a.42.42,0,0,0-.38,0l-2.32,1.34a.12.12,0,0,0,0,.21Zm-10.93,6.31a.47.47,0,0,0,.37,0l2.32-1.34a.12.12,0,0,0,0-.22l-2.68-1.55a.4.4,0,0,0-.37,0l-2.32,1.34c-.1,0-.09.15,0,.21Zm7.53-4.35a.42.42,0,0,0,.38,0l2.31-1.34a.12.12,0,0,0,0-.22L103,103.46a.4.4,0,0,0-.37,0l-2.32,1.34a.12.12,0,0,0,0,.22Zm-14.31,8.24a.4.4,0,0,0,.37,0l2.32-1.34c.1,0,.09-.15,0-.21l-2.69-1.52a.4.4,0,0,0-.37,0L86,113.08c-.1.06-.1.15,0,.22Zm3.4-1.91a.38.38,0,0,0,.36,0l2.33-1.34a.12.12,0,0,0,0-.22l-2.69-1.55a.4.4,0,0,0-.37,0l-2.32,1.34a.11.11,0,0,0,0,.21Zm17.43-11.21a.4.4,0,0,0,.37,0l2.32-1.34c.1-.06.1-.15,0-.21l-.71-.41a.4.4,0,0,0-.37,0l-2.32,1.34c-.1.05-.09.15,0,.21Zm10.18-5.87a.4.4,0,0,0,.37,0l2.32-1.34c.1-.06.1-.15,0-.21l-.71-.41a.4.4,0,0,0-.37,0L119,95.2c-.1,0-.09.15,0,.21Zm5.64,3.25a.4.4,0,0,0,.37,0L128,97.73c.1,0,.09-.15,0-.21L125.3,96a.4.4,0,0,0-.37,0l-2.32,1.34a.12.12,0,0,0,0,.22Zm8.48,8.62,2.32-1.34c.1-.06.09-.15,0-.22l-2.68-1.55a.5.5,0,0,0-.38,0l-2.32,1.34a.12.12,0,0,0,0,.21l2.69,1.56a.41.41,0,0,0,.37,0Zm-20.9-8a.4.4,0,0,0,.37,0l2.32-1.34a.12.12,0,0,0,0-.21l-.72-.41a.38.38,0,0,0-.36,0l-2.33,1.34c-.1,0-.09.15,0,.21ZM85.26,116.82a.4.4,0,0,0,.37,0L88,115.48c.1,0,.09-.15,0-.21l-2.68-1.55a.4.4,0,0,0-.37,0l-2.32,1.34a.12.12,0,0,0,0,.22Z"/><path class="cls-8" d="M100.3,137.15l22.91-13.24a2.75,2.75,0,0,1,2.5,0l13.13,7.58a.76.76,0,0,1,0,1.44l-22.91,13.25a2.75,2.75,0,0,1-2.5,0l-13.13-7.59A.76.76,0,0,1,100.3,137.15Z"/><g id="freepik--Window--inject-67"><path class="cls-4" d="M105.31,20.62v3.5L53.18,54.22c-.36.2-.65,0-.65-.38l0-1.25a5.5,5.5,0,0,0-1-.3L36,61.3a1.47,1.47,0,0,0-.65,1.14v1.32a1.44,1.44,0,0,1-.65,1.13l-1.8,1V62.44a1.43,1.43,0,0,1,.65-1.14l71.12-41.06C105,20,105.31,20.2,105.31,20.62Z"/><path class="cls-11" d="M105.31,73a1.41,1.41,0,0,1-.65,1.13L33.54,115.21c-.36.21-.65,0-.65-.38V65.93l1.8-1c.36-.2,1-3.38,1.3-3.59l15.62-9c.36-.21,1.21,2.13,1.57,1.91l52.13-30.08V73Z"/><path class="cls-10" d="M36,79.33l31.24-18c.36-.21.65,0,.65.38v30.7a1.43,1.43,0,0,1-.65,1.14L36,111.55c-.36.2-.65,0-.65-.38V80.47A1.47,1.47,0,0,1,36,79.33Z"/><path class="cls-9" d="M36,71.23,102.21,33c.36-.21.65,0,.65.38V38a1.46,1.46,0,0,1-.65,1.13L36,77.34c-.36.2-.65,0-.65-.38v-4.6A1.44,1.44,0,0,1,36,71.23Z"/><path class="cls-10" d="M78.31,50.44v1.22c0,.25.17.35.39.23L98,40.77V38.65L78.7,49.76A.86.86,0,0,0,78.31,50.44Z"/><path class="cls-4" d="M100,37.46a.24.24,0,0,1,.39.22V38.9a.85.85,0,0,1-.39.68L98,40.77V38.65Z"/><path class="cls-10" d="M99.86,39.13l-.23-.08a1.35,1.35,0,0,0,0-.29.57.57,0,0,0-.21-.48.34.34,0,0,0-.34,0,1.19,1.19,0,0,0-.48,1,.54.54,0,0,0,.21.47.28.28,0,0,0,.15,0,.41.41,0,0,0,.19,0,1,1,0,0,0,.37-.48l.23.07h0a.1.1,0,0,0,.09-.06A.08.08,0,0,0,99.86,39.13Zm-.74.44a.15.15,0,0,1-.16,0,.42.42,0,0,1-.13-.35,1.06,1.06,0,0,1,.38-.81.17.17,0,0,1,.1,0,.06.06,0,0,1,.06,0c.08,0,.12.17.12.34a1,1,0,0,1-.37.85Z"/><path class="cls-3" d="M105.31,24.12v4.25L32.89,70.19V65.93l1.34-.77c.36-.21.48-.53.65-1.14l.46-1.58A1.65,1.65,0,0,1,36,61.3l15.62-9a.57.57,0,0,1,.81.05,1,1,0,0,1,.11.17l.56,1c.2.35.3.56.66.35Z"/><path class="cls-9" d="M102.25,22.82c.47-.27.82-.06.82.48a1.84,1.84,0,0,1-.82,1.43c-.48.27-.83.05-.83-.48A1.76,1.76,0,0,1,102.25,22.82Z"/><path class="cls-9" d="M99.28,24.53c.45-.27.82-.06.82.47a1.82,1.82,0,0,1-.82,1.44c-.48.26-.83,0-.83-.48A1.81,1.81,0,0,1,99.28,24.53Z"/><path class="cls-9" d="M96.31,26.26c.45-.26.82-.05.82.48a1.84,1.84,0,0,1-.82,1.43c-.48.27-.83,0-.83-.47A1.83,1.83,0,0,1,96.31,26.26Z"/><path class="cls-12" d="M35.89,66.24l-1,.59.39-.75a.19.19,0,0,0,0-.18s-.09,0-.12,0L34.58,67h0v0h0a.06.06,0,0,0,0,.06,0,0,0,0,0,0,0h0v0h0l.55.43h.06a.18.18,0,0,0,.06-.09.17.17,0,0,0,0-.17l-.39-.3,1-.59a.25.25,0,0,0,.08-.18S35.93,66.21,35.89,66.24Z"/><path class="cls-12" d="M36.74,65.74l1-.59-.39-.3a.15.15,0,0,1,0-.17c0-.07.08-.11.12-.08l.56.43h0v.1h0v0h0l-.56,1.07s0,.05-.06.06a0,0,0,0,1-.06,0,.19.19,0,0,1,0-.18l.39-.75-1,.62s-.08,0-.08-.08A.25.25,0,0,1,36.74,65.74Z"/><path class="cls-12" d="M40.11,62.79c0-.07-.06-.06-.08,0l-.15.34c-.23,0-.53.21-.72.62a1.4,1.4,0,0,0,0,1.44.38.38,0,0,0,.48,0,1.28,1.28,0,0,0,.47-.56c0-.07,0-.16,0-.18s-.08,0-.11.06c-.19.41-.48.58-.69.4a1,1,0,0,1,0-1.06c.13-.28.33-.48.48-.48l-.11.26c0,.07,0,.14,0,.11l.42-.28a.12.12,0,0,0,0-.11Z"/><path class="cls-12" d="M51.15,54.23l.38-.79a.28.28,0,0,0,0-.25c-.05,0-.12,0-.16.09l-.38.8-.37-.36s-.11,0-.16.09a.23.23,0,0,0,0,.25l.37.36-.37.79a.23.23,0,0,0,0,.25h.08a.25.25,0,0,0,.08-.1l.37-.79.38.36a.06.06,0,0,0,.08,0h0a.25.25,0,0,0,.08-.1.23.23,0,0,0,0-.25Z"/><path class="cls-10" d="M41.48,63.76V62.44a1.43,1.43,0,0,1,.65-1.14L101,27.35c.36-.21.65,0,.65.37v1.33a1.44,1.44,0,0,1-.65,1.13l-58.85,34C41.77,64.35,41.48,64.18,41.48,63.76Z"/><path class="cls-13" d="M100.61,28.05l.18.36a0,0,0,0,0,0,0l.39-.15s.08.07,0,.15l-.27.52a.17.17,0,0,0,0,.1l.06.48c0,.07,0,.17-.11.17l-.34-.05a.1.1,0,0,0-.07,0l-.34.44c-.06.07-.12.05-.11,0l.06-.55a0,0,0,0,0,0-.07l-.28-.2s0-.15,0-.2l.38-.29a.24.24,0,0,0,.06-.09l.17-.56C100.49,28,100.57,28,100.61,28.05Z"/><g class="cls-14"><path class="cls-9" d="M102.4,27.19a.24.24,0,0,1-.2-.12.23.23,0,0,1,.09-.31l1.84-1.06a.23.23,0,0,1,.23.39l-1.83,1.06A.22.22,0,0,1,102.4,27.19Z"/><path class="cls-9" d="M102.4,28.25a.26.26,0,0,1-.2-.11.23.23,0,0,1,.09-.31h0l1.84-1.07a.23.23,0,0,1,.23.39l-1.83,1.07A.31.31,0,0,1,102.4,28.25Z"/><path class="cls-9" d="M102.4,29.31a.22.22,0,0,1-.23-.22.24.24,0,0,1,.12-.2l1.84-1.06a.21.21,0,0,1,.3.07h0a.24.24,0,0,1-.08.31l-1.83,1.06A.16.16,0,0,1,102.4,29.31Z"/></g></g><g id="freepik--question-mark--inject-67"><path class="cls-9" d="M50.3,86.57c2.63-2.67,3.3-3.89,3.3-5s-.45-1.75-1.84-1a4.42,4.42,0,0,0-2.07,2.54,1.6,1.6,0,0,1-1,1l-1.82.41c-.44.1-.73-.18-.62-.62A12.57,12.57,0,0,1,51.86,76c3.4-2,5.38-.48,5.38,2.83a12,12,0,0,1-3.35,7.75,2.53,2.53,0,0,0-.52,1.4v1.08a1.57,1.57,0,0,1-.7,1.21l-2.24,1.29c-.39.23-.7,0-.7-.4V87.93A2.28,2.28,0,0,1,50.3,86.57Z"/><path class="cls-9" d="M49.69,96.08a3.83,3.83,0,0,1,1.85-3.31c1.2-.69,1.83-.08,1.83,1.19a3.84,3.84,0,0,1-1.83,3.32C50.31,98,49.69,97.35,49.69,96.08Z"/></g></g></g><g id="freepik--support-character--inject-67"><path class="cls-4" d="M123.91,9.45l-1.76-1h0a1.06,1.06,0,0,0-1.06.1L77.35,33.77a3.31,3.31,0,0,0-1.5,2.6v62.9a1.06,1.06,0,0,0,.42,1h0l1.77,1,43-26.37a3.35,3.35,0,0,0,1.5-2.6Z"/><path class="cls-15" d="M78,101.25l-1.75-1h0a1,1,0,0,1-.42-1V36.37a3.1,3.1,0,0,1,.48-1.56l1.79,1a3.1,3.1,0,0,0-.48,1.56V100.3A1.05,1.05,0,0,0,78,101.25Z"/><path class="cls-4" d="M79.11,34.8,122.84,9.55c.83-.48,1.5-.09,1.5.87v62.9a3.33,3.33,0,0,1-1.5,2.6L79.11,101.17c-.83.47-1.51.09-1.51-.87V37.39A3.32,3.32,0,0,1,79.11,34.8Z"/><path class="cls-16" d="M122.15,8.42l1.72,1a1.11,1.11,0,0,0-1,.14L79.13,34.8a2.93,2.93,0,0,0-1,1l-1.78-1a3,3,0,0,1,1-1L121.06,8.55a1,1,0,0,1,1.07-.1Z"/><path class="cls-6" d="M84.07,37.27l35-20.23c.63-.36,1.14-.06,1.14.66V71.51a2.48,2.48,0,0,1-1.14,2l-35,20.19c-.63.36-1.14.07-1.14-.66V39.25A2.48,2.48,0,0,1,84.07,37.27Z"/><path class="cls-7" d="M111.82,49.12l.36-.3A4.42,4.42,0,0,0,110,47.54l-.12.44A3.93,3.93,0,0,1,111.82,49.12Z"/><path class="cls-4" d="M112.6,50.9l-.72-.71a1,1,0,0,1,0-1.32h0a1,1,0,0,1,1.33,0l.72.71a1,1,0,0,1,0,1.32h0A1,1,0,0,1,112.6,50.9Z"/><g class="cls-17"><g id="freepik--character-boy--inject-67"><path class="cls-18" d="M119,67.26,120.59,70s10.6-5.62,11.2-6.36.56-2.22.65-3a8.43,8.43,0,0,0-.42-3c-.12-.84,1.1-.89,1.69.29.44.85.48,1.83.86,1.84a11.26,11.26,0,0,0,1.48-1.27c.66-.72,1.85-1.92,2.75-1.76a.8.8,0,0,1,.6.65,4,4,0,0,0,.33,1.44,1.87,1.87,0,0,1,.35.57,4.82,4.82,0,0,1,0,.93c0,.45.48.63.53,1.07a6.8,6.8,0,0,1-.11,1c0,.21.07.4.07.62a2,2,0,0,1-.55,1.17,12.43,12.43,0,0,1-3.14,2.64c-1,.63-2.24,1.19-3.35,1.78s-13.59,10.18-15.25,9.05a38,38,0,0,1-4.35-5.32"/><path class="cls-18" d="M113.54,72.69a86.16,86.16,0,0,1-5.27-8.3c-1.91-5.36.26-8.93.26-8.93s2.75-.85,5,2.77c1,1.59,3.65,6.07,5.39,9"/><path class="cls-9" d="M103.71,55.54a14.84,14.84,0,0,1,5-1.1,5.47,5.47,0,0,1,4.87,3c1.92,3.1,5.12,8.45,5.12,8.45a15.5,15.5,0,0,1-6.2,6.63l-5.88-8.87Z"/><g id="freepik--character-boy--inject-67-2" data-name="freepik--character-boy--inject-67"><path class="cls-19" d="M94.08,60.91a6.48,6.48,0,0,0-2.14,3.15,15.74,15.74,0,0,0-.66,4.62V78.76l-.12,19.07c6.39,2.18,14.52.26,21.34-7.32,0,0-.38-24.42-.38-28.4v-.55c-.25-5.66-5.13-8.28-9.93-5.56l-4,2.28-4.06,2.63Z"/><path class="cls-8" d="M96.31,37.71s-3.14-.25-3.83,2.66c-.64,2.6,4.09,12.84,4,12.67S96.31,37.71,96.31,37.71Z"/><path class="cls-4" d="M107.38,31.85s-1.17-3.13-6.81-.9c-2.88,1.13-3.95,4.69-3.95,4.69Z"/><path class="cls-20" d="M107.38,31.85s-1.17-3.13-6.81-.9c-2.88,1.13-3.95,4.69-3.95,4.69Z"/><path class="cls-8" d="M98.46,40.16c0,4.31,3,7,6.74,6s6.74-5.26,6.74-9.57-3.21-4.31-6.94-3.3S98.46,35.87,98.46,40.16Z"/><path class="cls-8" d="M94.94,47a57.58,57.58,0,0,0,1.39,5.9,1.51,1.51,0,0,0,1.22.81l-.07-3.77Z"/><path class="cls-8" d="M96.19,38.92a2.78,2.78,0,0,0-1.92,1.28c-.81,1.18-.36,4.09.66,6.77l1.87-.25Z"/><path class="cls-18" d="M97.37,46.57c-.38.36-.91-.33-1.37-.77S94,45,93.27,47s.67,4.16,1.86,4.28a2,2,0,0,0,2.35-1.41l.07,8.75C101,62.3,107,58,104.3,56.39v-2.6a12,12,0,0,0,2.77-.57c1.5-.68,2.45-2.3,2.91-4.31.73-3.22,1-5.74.39-11.52-.68-6.34-7.25-4.65-10.8-1.12S97.37,46.57,97.37,46.57Z"/><path class="cls-8" d="M97.37,47.32c-.19.06-.91-1.12-1.37-1.49-.65-.51.19-6.89.19-6.89-.75-1.64.63-4.13,2.07-5.14a8.53,8.53,0,0,1,3.42-1.26c1-.18,2.07-.32,3.09-.42a29.52,29.52,0,0,0,3.75-.45,12.8,12.8,0,0,0,2.79-1c.79-.36,1.44.45.74,1.8a10.18,10.18,0,0,1-2.53,3.19c-3.06,2.29-6.6,2.84-9.69,3.18-.7.08-.85.89-1.22,3.12C98.28,43.87,98,47.11,97.37,47.32Z"/><path class="cls-8" d="M93.84,39l-2.27-.8a1.51,1.51,0,0,1,1.71-1.11A1.42,1.42,0,0,1,93.84,39Z"/><path class="cls-21" d="M104.3,53.79a19.94,19.94,0,0,1-4.54-.29,2.87,2.87,0,0,1-1.63-1.43A5,5,0,0,0,99.06,54c.86,1,5.24.8,5.24.8Z"/><path class="cls-8" d="M103.49,44a1.06,1.06,0,0,1-.67,1c-.37.09-.67-.19-.67-.63a1,1,0,0,1,.67-1C103.19,43.23,103.49,43.49,103.49,44Z"/><path class="cls-8" d="M102.41,41,101,42.33a1.26,1.26,0,0,1,.34-1.43.67.67,0,0,1,.94-.08A.83.83,0,0,1,102.41,41Z"/><path class="cls-21" d="M104,49.2l1.53.26a1,1,0,0,1-1,.86C104.06,50.25,103.84,49.75,104,49.2Z"/><path class="cls-8" d="M109.67,39.76l-1.31-.82c.27-.47.78-.73,1.14-.5A1,1,0,0,1,109.67,39.76Z"/><path class="cls-8" d="M109.1,42.23a1,1,0,0,1-.67,1c-.38.1-.68-.18-.68-.63a1,1,0,0,1,.68-1C108.8,41.5,109.1,41.79,109.1,42.23Z"/><polygon class="cls-21" points="105.77 42.5 105.84 47.2 108.26 45.94 105.77 42.5"/></g></g><path class="cls-18" d="M84,89.44c1.89-19.38,4.94-26.27,9.71-28.2,1.61,1.25,1.87,7,0,11.27,0,0-4,12.86-4.31,17.23A70.77,70.77,0,0,0,89.86,102a1.74,1.74,0,0,0,.71,1.23c1,.7.93,1.68,1.65,2.62.56.74,1.1.88,1,1.15a1.3,1.3,0,0,1-1.44.74,3.81,3.81,0,0,1-1.25-.72,10.67,10.67,0,0,0,1.26,2.92c1.3,2.09,1.2,3.48-2,3.86-2,.25-3.4-1-4.27-6-.25-1.44-.86-4-1.1-5.88A56.35,56.35,0,0,1,84,89.44Z"/><path class="cls-9" d="M95,60.32a11,11,0,0,0-5.26,3.9C88,67,86.19,71.5,84.83,79.54c0,0,2.1,3,7.85.69,0,0,2.73-10.22,3-14.28C96.06,61.51,95,60.32,95,60.32Z"/><path class="cls-4" d="M98.26,32c-3.25,2-4.65,4.51-4.73,7.48a56.9,56.9,0,0,0,.24,6.13,5,5,0,0,0-2.07,3.83,2.7,2.7,0,0,0,3.64,2.67A5.08,5.08,0,0,0,99,47.49a2.61,2.61,0,0,0-2.22-2.76,30.08,30.08,0,0,1,0-8.58c.72-4.3,8.77-6.79,10.58-4.3C106.84,29.7,102.78,29.15,98.26,32Z"/><path class="cls-15" d="M98.26,32c-3.25,2-4.65,4.51-4.73,7.48a56.9,56.9,0,0,0,.24,6.13,5,5,0,0,0-2.07,3.83,2.7,2.7,0,0,0,3.64,2.67A5.08,5.08,0,0,0,99,47.49a2.61,2.61,0,0,0-2.22-2.76,30.08,30.08,0,0,1,0-8.58c.72-4.3,8.77-6.79,10.58-4.3C106.84,29.7,102.78,29.15,98.26,32Z"/><path class="cls-4" d="M97.09,48a1.3,1.3,0,0,0-1.23-1.36,1.32,1.32,0,0,0-.52.08,2.43,2.43,0,0,0-1.74,2.21,1.28,1.28,0,0,0,1.25,1.34,1.22,1.22,0,0,0,.5-.08A2.44,2.44,0,0,0,97.09,48Z"/></g><path class="cls-4" d="M69.53,78.75a2.62,2.62,0,0,0-.22.25h0a1.38,1.38,0,0,0-.25.48h0a.42.42,0,0,0,0,.31.35.35,0,0,0,.1.19.71.71,0,0,0,.09.07l-1.76-1a.46.46,0,0,1-.17-.17.61.61,0,0,1,0-.42h0a2.11,2.11,0,0,1,.16-.34c.1-.13.2-.26.31-.38Z"/><path class="cls-4" d="M69.54,78.73c-.91,1-.59,1.6.72,1.44l7.34-.85v-9Z"/><path class="cls-4" d="M69.54,78.73c-.58.6-.66,1.08-.31,1.32l-1.76-1c-.37-.23-.29-.72.3-1.33l8.06-8.36,1.78,1Z"/><path class="cls-15" d="M69.53,78.75a2.62,2.62,0,0,0-.22.25h0a1.57,1.57,0,0,0-.25.48h0a.55.55,0,0,0,0,.31.39.39,0,0,0,.1.19.71.71,0,0,0,.09.07l-1.76-1a.46.46,0,0,1-.17-.17.61.61,0,0,1,0-.42h0a2.11,2.11,0,0,1,.16-.34c.1-.13.2-.26.31-.38Z"/><path class="cls-16" d="M77.61,70.35l-8.07,8.38h0l-1.78-1h0l8.07-8.36Z"/><path class="cls-18" d="M119,67.26,120.59,70s10.6-5.62,11.2-6.36.56-2.22.65-3a8.43,8.43,0,0,0-.42-3c-.14-1,1.34-.79,1.81-.38a4.46,4.46,0,0,1,.76,1.11c.23.38.66,1.63,1.1,1.71s1-.43,1.31-.64a16.77,16.77,0,0,0,2.78-3.22,1.19,1.19,0,0,1,1.94-.21,2.91,2.91,0,0,1,1,.85,2.81,2.81,0,0,1,.32.85c.48,2-.56,3.74-1.79,5.26a18.44,18.44,0,0,1-4.34,3.83c-1,.63-2.24,1.19-3.35,1.79s-13,10.56-14.67,9.43a29.23,29.23,0,0,1-5.31-5.35"/></g><g id="freepik--Character--inject-67"><path class="cls-18" d="M197.15,50c3.83,0,5.84,1.15,7.43,4.68s6.25,13.21,6,15.58-9.93,12.51-9.93,12.51l-2.78-3.35,6-10.1L198,60.72Z"/><g id="freepik--character--inject-67-2" data-name="freepik--character--inject-67"><path class="cls-8" d="M187.86,154.14a25.14,25.14,0,0,1,.66,2.46,6.53,6.53,0,0,1,.13,3.11c-.32.68-1.56,1.12-3.48,1.11a11.51,11.51,0,0,0-4.53,1.58,12.08,12.08,0,0,1-5.69.9c-1.71-.2-3.49-1.19-3.77-1.91s-.51-1.68,4.13-3.17c0,0,5.62-1.83,7.57-4Z"/><path class="cls-18" d="M187.86,154.27l-.89-.11-4.09.08c-1.95,2.16-7.53,4-7.57,4l-.74.25c-.81.65-.12,1.75,1.79,1.91s7.89-1.84,9.21-2.47A4,4,0,0,0,187.86,154.27Z"/><path class="cls-18" d="M187.86,152.51v1.76c0,.64-.75,1.59-2.7,1.52-1.37,0-2.33-.42-2.28-1.55v-1.61Z"/><path class="cls-8" d="M201,146.8c.35.15.42.83.44,2.17,0,1,.18,2.8-1,3.12a3.71,3.71,0,0,1-3.67-.88,44,44,0,0,0-2.88-3.79c-1.14-1.3-2.39-2.52-2.81-4.31-.39-1.62,0-2.31,1.1-2.75s2.1-.07,3.63,1.21a7.16,7.16,0,0,0,1.37.72C198.14,142.61,200.61,146.66,201,146.8Z"/><path class="cls-18" d="M201,145.56l-.05,1.65s-1.1,2.16-4.17,0c-.07-.16-.35-3.35-.35-3.35Z"/><path class="cls-18" d="M197.13,142.3a7.69,7.69,0,0,1-1.36-.72h0c-1.24-.4-3.83.06-2.67,1.86a13.9,13.9,0,0,0,3.68,3.77c1.39.68,1.87-.16,1.87-.16l-.48-3.88A3,3,0,0,0,197.13,142.3Z"/><path class="cls-4" d="M203.24,122.73a39.43,39.43,0,0,0-1.79-8.53s1-7.29,1.85-14.27c1.92-16.41.64-16.67-1.67-22.38,0,0-21-2.7-21.91,6-1.1,10.89-.6,32-.42,35.88s.48,5.61,1.65,13.7c.87,6.16,1.7,19.62,1.7,19.62a5.3,5.3,0,0,0,5.41-.28s2.63-16.55,2.57-21a37.81,37.81,0,0,0-1.43-9.75S191,104,191.44,101.17c0,0,.51,5.66.7,9.52s1.23,7.57,2.15,14.77c.8,6.22,2.13,19.26,2.13,19.26,2.76,1.58,4.68.87,4.68.87S203.84,128.14,203.24,122.73Z"/><polygon class="cls-18" points="188.25 46.42 189.02 54.6 196.2 54.15 195.63 45.08 188.25 46.42"/><path class="cls-9" d="M202.66,53.44c-.74-2.17-2.22-3.43-5.51-3.47l-1.21,0c-.23,1.2-3.77,2.18-7.26,1-.48.13-1.84.38-2.6.48l-1.68.25c-2.54.83-3.67,5.26-3.91,12.25s-1.29,22-1.29,22,5.47,2.93,14.1,1.8a17.18,17.18,0,0,0,10.47-5,52.69,52.69,0,0,0-4-11.23C203.85,61.49,203.74,56.65,202.66,53.44Z"/><path class="cls-7" d="M189,88a30.64,30.64,0,0,0,4.28-.26c7-.92,10.17-4.79,10.46-5a52.88,52.88,0,0,0-4-11.19,46,46,0,0,0,3.38-11.66c-.34,2.09-3.43,10.21-7.49,12.65a7.2,7.2,0,0,1,4.25,3C201.88,78.21,200.27,87.4,189,88Z"/><path class="cls-18" d="M186.08,51.43c-3.38.43-6.28,1-7.52,4.34A36.86,36.86,0,0,1,171.24,68c-2.1,2.24-10.71,6.54-12.65,6.22s-3.68-3.08-4.68-2.51,1.19,2.55,1.07,3-3.61-.53-5.26-1.7-2.64,2.19-.48,4.71,6.18,2.71,10.57,1.84,12.39-3.48,15.58-6.45c4.17-3.9,4.93-6,6.74-9.38C187.89,59.29,186.08,51.43,186.08,51.43Z"/><path class="cls-8" d="M184.5,36.27s-2.71-3.23-.59-6.38c2.51-3.71,6.92-5,12.38-3.35,2.7.8,6.67,4.53,6.87,9.77.15,4-11.16,6.7-11,9.47Z"/><path class="cls-21" d="M182.94,37.46s-1.58,2.39-1.38,2.66a3.88,3.88,0,0,0,1.22.52Z"/><path class="cls-18" d="M187.78,29.84c-1.54.8-4.21,2.27-4.9,8s.6,7.87,1.39,8.64c.54.52,3.32.7,4.79.25,1.81-.56,5.74-2.5,7.57-5.51,2.17-3.55,2.61-8.28.11-10.14A9.36,9.36,0,0,0,187.78,29.84Z"/><path class="cls-8" d="M187.33,30.09s-1.35,5.33.26,8.7c0,0,1-2.08,2.74-1.48s1.63,3,.22,4.22a2.69,2.69,0,0,1-2.79.6,4.84,4.84,0,0,0,2.57,4.12s5.26,2.52,10-2.57c4.31-4.63,3.77-12.93-2.61-15A11,11,0,0,0,187.33,30.09Z"/><path class="cls-8" d="M208.76,52.59h0A7.64,7.64,0,0,1,201.13,45V35.14h0a7.63,7.63,0,0,1,7.63,7.63Z"/><path class="cls-8" d="M183.22,27.7c-2.37,2.39-2.5,9.38,4.37,11.1l4.51-12.35C189.47,24.74,185.34,25.53,183.22,27.7Z"/><path class="cls-8" d="M186.9,40.7A1.37,1.37,0,0,1,186,39a1.35,1.35,0,0,1,1.72-.86l.07,0Z"/><path class="cls-22" d="M191.45,101.18l1.14-7.32a16.23,16.23,0,0,0,6.51-2.26,8.79,8.79,0,0,1-5.22,3.06l-1.17,8.47-.48,8.88Z"/></g></g></svg>