<?xml version="1.0" encoding="utf-8"?>
<!-- Generator: Adobe Illustrator 24.3.0, SVG Export Plug-In . SVG Version: 6.00 Build 0)  -->
<svg version="1.0" id="Capa_1"
	xmlns="http://www.w3.org/2000/svg"
	xmlns:xlink="http://www.w3.org/1999/xlink" x="0px" y="0px" viewBox="0 0 515.37 459.05" style="enable-background:new 0 0 515.37 459.05;" xml:space="preserve">
	<style type="text/css">
	.Sombra_x0020_paralela{fill:none;}
	.Esquinas_x0020_redondeadas_x0020_2_x0020_pt_x002E_{fill:#FFFFFF;stroke:#1D1D1B;stroke-miterlimit:10;}
	.st1{fill:#575756;}
	.st2{fill:#878787;}
	.st3{fill:#FFFFFF;}
	.st4{fill:url(#SVGID_2_);}

	.st302{opacity:0.65;fill:#DADADA;}
	.st303{fill:none;stroke:#E30600;stroke-width:1.8044;stroke-miterlimit:10;stroke-dasharray:4.5111;}
	.st304{fill:#970600;}
	.st305{fill:#FF0000;}
	.st306{fill:#F6F6F6;}
	.st307{fill:#E30613;}
	.st308{fill:#3C3C3B;}
	.st309{fill:#D6D9E5;}
	.st310{fill:#BEC0CF;}
	.st311{opacity:0.16;fill:#FAFBFF;}
	.st312{fill:none;stroke:#FFFFFF;stroke-width:0.9902;stroke-miterlimit:10;}
	.st313{fill:#26C2C3;}
	.st314{fill:none;stroke:#FFFFFF;stroke-width:0.9928;stroke-miterlimit:10;}
	.st315{fill:#F5AB58;}
	.st316{fill:#A40600;}
	.st317{fill:#47AEF7;}
	.st318{fill:#242D38;}
	.st319{fill:#14191E;}
	.st320{fill:#36A6E6;}
	.st321{fill:#161F29;}
	.st322{fill:#DC8A3A;}
	.st323{fill:#4D80E8;}
	.st324{fill:#362B40;}
	.st325{fill:#ED4B33;}
	.st326{fill:#181F26;}
	.st327{fill:#F85B3E;}
	.st328{fill:#3BA2F5;}
	.st329{fill:#49AFF7;}
	.st330{fill:#E29080;}
	.st331{fill:#1E2326;}
	.st332{fill:#161C21;}
	.st333{fill:#1AA485;}
	.st334{fill:#20B094;}
	.st336{fill:#C3C5D2;}
	.st337{fill:#D3D6E3;}
	.st339{fill:url(#SVGID_300_);}
	.st340{fill:none;}
	</style>

	<path class="st302" d="M76.07,403.48c0,0-98.24-90.45-47.23-176.1c51.01-85.65,152.08-55.23,252.21-107.26
				s165.12-45.4,192.34-0.01c33.14,55.27-47.81,104.07-1.53,179.31c46.29,75.24-2.83,104.06-2.83,104.06H76.07z"/>
	<path class="st303" d="M311.75,269.33c5.42,15.41,21.51,32.66,39.89,32.66c20.86,0,25.96-16.91,32.04-22.26
				c14.96-13.16,24.32-16.22,43.36-19.47c12.39-2.11,25.64-19.5,22.43-36.76c-5.86-31.47-62.62-46.48-76.99-69.51
				c-11.71-18.76-11.09-29.97-31.58-43.44"/>

	<path class="st304" d="M328.33,89.62c-0.07-0.17,9.09,5.5,9.09,5.5l-2.38,15.43l-4.49-11.54l-11.83-2.26l-16.87-15.86
					L328.33,89.62z"/>
	<polygon class="st305" points="301.84,80.89 335.04,110.55 330.54,99.01 				"/>
	<polygon class="st305" points="301.84,80.89 345.76,90.22 337.42,95.12 301.84,80.89 330.54,99.01 316.36,107.77 				"/>
	<path class="st305" d="M177.22,118.84h-44.16c-3.2,0-5.79-2.59-5.79-5.79V86.11c0-3.2,2.59-5.79,5.79-5.79h44.16
					c3.2,0,5.79,2.59,5.79,5.79v26.94C183.02,116.24,180.42,118.84,177.22,118.84z"/>
	<path class="st305" d="M148.04,114.25l5.54,10.75c0.69,1.33,2.56,1.4,3.34,0.12l6.64-10.87H148.04z"/>

	<path class="st3" d="M161.15,88.55c-5.4-0.06-5.83,3.23-5.83,3.23s-0.36-3.3-5.76-3.36c-5.4-0.06-7.36,6.11-6.01,9.83
				c1.04,2.86,7.33,9.16,10.16,11.9c0.78,0.75,2,0.76,2.79,0.03c2.89-2.68,9.32-8.83,10.43-11.67
				C168.37,94.83,166.54,88.61,161.15,88.55z"/>
	<path class="st305" d="M496.95,206.47h-32.5c-2.36,0-4.26-1.91-4.26-4.26v-19.82c0-2.36,1.91-4.26,4.26-4.26h32.5
						c2.36,0,4.26,1.91,4.26,4.26v19.82C501.21,204.56,499.31,206.47,496.95,206.47z"/>
	<path class="st305" d="M475.47,203.1l4.07,7.91c0.5,0.98,1.89,1.03,2.46,0.09l4.88-8H475.47z"/>
	<path class="st3" d="M484.74,186.58c0,2.35-1.9,4.25-4.25,4.25c-2.35,0-4.25-1.9-4.25-4.25c0-2.34,1.9-4.25,4.25-4.25
					C482.84,182.34,484.74,184.24,484.74,186.58z"/>
	<path class="st3" d="M487.12,200.8c0.81,0,1.42-0.73,1.27-1.52c-0.79-4.15-4.02-7.26-7.9-7.26c-3.88,0-7.12,3.11-7.9,7.26
					c-0.15,0.79,0.46,1.52,1.27,1.52H487.12z"/>
	<path class="st306" d="M235.14,52.44c-0.65,0-1-0.93-0.57-1.52c2.62-3.66,9.31-6.23,16.96-6.25c11.48-0.04,14.37,6.12,24.64-4.02
				c2.44-2.41,5.38-3.44,12.73,0.21s7-9.21,13.15-9.88c10.19-1.11,19.6,12.39,23.42,18.73c0.8,1.32,0.01,3.18-1.34,3.17
				L235.14,52.44z"/>
	<path class="st306" d="M95.06,126.79c0.48,0,0.73-0.69,0.43-1.15c-1.89-2.8-6.74-4.79-12.32-4.87
				c-8.37-0.12-8.21-6.12-17.17-9.87c-11.4-4.78-16.38,9.92-20.87,9.37c-7.42-0.91-13.09-0.99-15.93,3.79
				c-0.59,1-0.03,2.41,0.96,2.41L95.06,126.79z"/>
	<path class="st307" d="M35.2,192.6c0,3.25-2.63,5.88-5.88,5.88c-3.25,0-5.88-2.63-5.88-5.88c0-3.25,2.63-5.88,5.88-5.88
				C32.57,186.72,35.2,189.35,35.2,192.6z"/>
	<path class="st307" d="M494.2,267.29c0,1.37-1.11,2.48-2.48,2.48c-1.37,0-2.48-1.11-2.48-2.48c0-1.37,1.11-2.48,2.48-2.48
				C493.09,264.82,494.2,265.93,494.2,267.29z"/>
	<path class="st304" d="M452.32,65.41c0,2.51-2.03,4.54-4.54,4.54c-2.51,0-4.54-2.03-4.54-4.54c0-2.51,2.03-4.54,4.54-4.54
				C450.29,60.87,452.32,62.9,452.32,65.41z"/>
	<path class="st304" d="M246,120.97c-0.63,0-1.15-0.51-1.15-1.15v-8.09c0-0.63,0.51-1.15,1.15-1.15c0.63,0,1.15,0.51,1.15,1.15
						v8.09C247.14,120.46,246.63,120.97,246,120.97z"/>
	<path class="st304" d="M250.04,116.93h-8.09c-0.63,0-1.15-0.51-1.15-1.15c0-0.63,0.51-1.15,1.15-1.15h8.09
						c0.63,0,1.15,0.51,1.15,1.15C251.19,116.41,250.67,116.93,250.04,116.93z"/>
	<path class="st1" d="M422.59,402.68l-326.69,0.26c-12.37,0.01-22.41-10.01-22.42-22.39l0,0l371.5-0.29l0,0
					C444.98,392.63,434.96,402.67,422.59,402.68z"/>
	<path class="st308" d="M422.58,394.96l-326.69,0.26c-9.66,0.01-17.87-6.11-21.02-14.67l-1.39,0
					c0.01,12.37,10.05,22.4,22.42,22.39l326.69-0.26c12.37-0.01,22.4-10.05,22.39-22.42l-1.39,0
					C440.44,388.83,432.24,394.96,422.58,394.96z"/>
	<path class="st308" d="M280.33,387.89l-42.21,0.03c-4.14,0-7.5-3.35-7.51-7.49l0,0l57.21-0.04l0,0
					C287.83,384.52,284.47,387.88,280.33,387.89z"/>
	<path class="st2" d="M425.85,380.27l-333.26,0.26l-0.16-201.15c-0.01-11.54,9.34-20.9,20.88-20.91l291.47-0.23
					c11.54-0.01,20.9,9.34,20.91,20.88L425.85,380.27z"/>
	<rect x="109.86" y="175.73" class="st309" width="298.55" height="187.29"/>
	<rect x="109.93" y="345.12" class="st310" width="298.55" height="17.9"/>
	<rect x="109.79" y="175.73" class="st310" width="298.55" height="8.89"/>
	<polygon class="st311" points="209.36,175.77 109.86,275.42 109.93,363.14 110.15,363.14 297.29,175.7 					"/>
	<polygon class="st311" points="137.76,363.12 192.38,363.08 379.52,175.64 324.91,175.68 					"/>
	<polygon class="st311" points="373.37,362.93 408.46,327.79 408.42,273.17 318.75,362.98 					"/>
	<path class="st312" d="M377.84,317.88h-114.7c-2.16,0-3.92-1.75-3.92-3.92v-62.95c0-2.16,1.75-3.92,3.92-3.92h114.7
						c2.16,0,3.92,1.75,3.92,3.92v62.95C381.75,316.13,380,317.88,377.84,317.88z"/>
	<rect x="277.38" y="257.1" class="st305" width="15.41" height="52.83"/>
	<rect x="300.98" y="280.29" class="st313" width="15.41" height="29.65"/>
	<rect x="324.58" y="262.73" class="st305" width="15.41" height="47.21"/>
	<rect x="348.18" y="276.11" class="st313" width="15.41" height="33.83"/>
	<line class="st314" x1="259.22" y1="218.63" x2="353.31" y2="218.63"/>
	<line class="st314" x1="259.22" y1="231.19" x2="312.25" y2="231.19"/>
	<path class="st312" d="M236.14,318.87h-94.19c-2.85,0-5.15-2.31-5.15-5.15v-92.84c0-2.85,2.31-5.15,5.15-5.15h94.19
						c2.85,0,5.15,2.31,5.15,5.15v92.84C241.29,316.56,238.99,318.87,236.14,318.87z"/>
	<polygon class="st315" points="205.87,270.6 228.92,276.95 218.06,285.16 205.87,275.99 					"/>
	<path class="st315" d="M227.24,274.03l15.06-9.72l3.89,4.82l-21.05,16.56c-1.6,1.26-3.77,1.59-5.62,0.76
						c-1.99-0.89-4.34-2.66-5.75-6.21L227.24,274.03z"/>
	<path class="st315" d="M242.29,264.31l1.94-9c0.1-0.49,0.53-0.85,1.03-0.86l0,0c0.56-0.01,1.04,0.42,1.08,0.98l0.21,2.79
								l7.57-5.55c0.64-0.47,1.55-0.17,1.78,0.59l1.32,4.27c0.11,0.35,0.05,0.73-0.17,1.02c-1.52,2.03-7.7,10.02-11.84,10.92
								L242.29,264.31z"/>
	<polygon class="st305" points="196.22,263.24 216.32,271.58 210.31,285.09 194.82,278.31 					"/>
	<path class="st316" d="M215.7,272c0,0,0.44-2.36,2.74-1.66c0.39,0.12,0.75,0.25,1.07,0.37c1.3,0.51,1.93,1.97,1.41,3.26
						l-4.77,11.89c-0.95,2.34-3.94,3.02-5.81,1.32l-0.99-0.91L215.7,272z"/>
	<path class="st316" d="M200.64,280.86c0.27-1.01,0-9.02,0-9.02l4.81,11.12L200.64,280.86z"/>
	<path class="st305" d="M176.49,260.53l-15.11,9.7l8.33,44.27h30.56l0.54-44.96c-0.09-2.84-1.91-5.34-4.59-6.3l-10.21-3.67
						l-2.82,4.85L176.49,260.53z"/>
	<polygon class="st316" points="176.81,293.73 173.69,279.17 182.2,297.33 178.25,300.14 				"/>
	<path class="st305" d="M161.38,270.23c0,0-4.76,2.91-3.34,13.2c1.42,10.29,4.43,18.09,4.43,18.09l14.69-6.2l-4-18.61
						L161.38,270.23z"/>
	<path class="st316" d="M161.38,299.77c0,0-2.46,5.69,4.63,7.53l-0.89-2.06l13.47-7.15c0,0,1.25-4.48-3.45-4.69L161.38,299.77z" />

	<path class="st315" d="M178.87,297.6l16.89-8.78l3.64,5.49l-26.29,16.95c0,0-5.86,1.84-8.1-5.85L178.87,297.6z"/>

	<path class="st315" d="M195.76,288.82l2.94-9.32c0.15-0.51,0.64-0.85,1.17-0.8l0,0c0.6,0.05,1.06,0.55,1.05,1.15l-0.05,2.97
								l8.56-5.11c0.72-0.43,1.65-0.02,1.82,0.8l0.97,4.65c0.08,0.38-0.02,0.78-0.29,1.07c-1.81,2-9.14,9.83-13.61,10.37
								L195.76,288.82z"/>
	<polygon class="st317" points="200.27,314.5 201.73,361.2 195.99,417.07 183.45,417.08 187.79,361.21 187.48,314.5 				"/>

	<path class="st318" d="M195.99,417.07l5.27,4.1l4.75,0.96c2.18,0.44,3.81,2.27,4,4.48l0.09,1.04l-26.34-0.04l0.74-10.52
						L195.99,417.07z"/>

	<polygon class="st320" points="187.65,341.42 188.69,330.43 194.02,329.74 				"/>

	<polygon class="st317" points="169.71,314.5 169.05,361.71 166.29,417.08 178.82,417.07 185.74,361.44 190.21,314.5 				"/>

	<path class="st318" d="M178.82,417.07l5.29,4.1l4.75,0.96c2.18,0.44,3.81,2.27,4,4.48l0.09,1.04l-26.34-0.04l0.74-10.52
						L178.82,417.07z"/>
	<path class="st319" d="M166.51,427.78l26.54,0.04l0-1.68c0-0.33-0.27-0.6-0.6-0.6l-25.94-0.04L166.51,427.78"/>

	<path class="st321" d="M169.25,237.75c0,0-2.28-8.81,8.88-9.96c9.65-0.99,12.77,4.32,13.8,6.99
				c1.02,2.67-10.32,10.76-10.32,10.76L169.25,237.75z"/>
	<path class="st315" d="M176.49,260.53l-1.35-13.28l9.52-0.96l1.35,13.28c0.27,2.63-1.65,4.98-4.28,5.24l0,0
						C179.11,265.08,176.76,263.16,176.49,260.53z"/>

	<path class="st322" d="M174.88,248c0,0,2.2,11.27,10.98,10.15l-0.59-5.7L174.88,248z"/>

	<path class="st321" d="M186.8,230.92c0,0,8.96,0.62,4.15,11.29l-2.14-5.34L186.8,230.92z"/>
	<path class="st315" d="M183.99,256.37L183.99,256.37c5.1-0.54,8.94-4.05,8.41-9.15l-1.07-10.17c-0.23-2.22-2.24-3.84-4.46-3.61
						l-10.47,1.11c-2.22,0.23-3.84,2.24-3.61,4.46l0.92,8.73C174.24,252.84,179.69,256.82,183.99,256.37z"/>
	<path class="st321" d="M174.12,244.86L174.12,244.86c0,0,4.87-3.68,2.26-10.31l-5.21,0.55c0,0-0.84-1.1-1.82,0.53
						c-0.97,1.64,1.87,8.88,1.87,8.88L174.12,244.86z"/>
	<path class="st315" d="M169.38,245.89c0.19,1.83,1.84,3.16,3.67,2.97c1.83-0.19,3.16-1.84,2.97-3.67
						c-0.19-1.83-1.84-3.16-3.67-2.97C170.52,242.42,169.19,244.06,169.38,245.89z"/>


	<path class="st321" d="M176.46,240.26c0,0,0.06,6.83,1.69,8.72c1.63,1.89,2.98-0.35,8.32-1.5c5.34-1.15,6.16,1.38,6.16,1.38
				s0.15,6.88-6.9,7.62c-5.47,0.58-11.16-0.38-10.6-9.23c0.56-8.85-2.58-10.8-2.58-10.8L176.46,240.26z"/>
	<path class="st321" d="M193.21,225.78c-1.73-3.51-5.46-3.46-9.08-1.2c-1,0.63-2.07,1.18-3.22,1.47
				c-15.44,4-8.13,12.95-8.13,12.95l3.61-4.46c0,0,3.07,1.39,7.77,0.77c1.91-0.25,3.68-0.78,5.15-1.33c0.01,0,0.02,0,0.02,0
				s0.03-0.01,0.08-0.04c0.12-0.05,0.26-0.09,0.38-0.14c0.65-0.26,1.18-0.64,1.59-1.1C193.24,231.26,195.04,229.51,193.21,225.78z" />

	<path class="st323" d="M416.72,369.89h37.07c0.89,0,1.61-0.72,1.61-1.61v-5.74c0-0.89-0.72-1.61-1.61-1.61h-37.07
					c-0.89,0-1.61,0.72-1.61,1.61v5.74C415.11,369.17,415.83,369.89,416.72,369.89z"/>

	<rect x="418.68" y="369.89" transform="matrix(-1 -1.224647e-16 1.224647e-16 -1 870.5056 742.2433)" class="st318" width="33.16" height="2.47"/>
	<polygon class="st318" points="450.8,372.36 455.98,425.74 450.8,425.74 445,372.36 				"/>
	<polygon class="st324" points="421.06,372.36 415.88,425.74 421.06,425.74 426.86,372.36 				"/>

	<rect x="421.37" y="397.07" transform="matrix(-1 -1.224647e-16 1.224647e-16 -1 871.8561 796.9578)" class="st318" width="29.12" height="2.82"/>

	<polygon class="st315" points="407.12,393.6 407.21,421.04 398.2,420.94 396.98,393.1 						"/>

	<path class="st325" d="M395.07,407.34l14.92,0.87l0.29-37.55l9.67,1.38l10.31-18.24c0,0-23.35-5.77-33.2,2.75
						c-0.78,0.68-1.42,3.07-1.47,4.18L395.07,407.34z"/>

	<path class="st326" d="M396.84,414.9l-5.29,4.1l-4.75,0.96c-2.18,0.44-3.81,2.27-4,4.48l-0.09,1.04l26.34-0.04l-0.74-10.52
							L396.84,414.9z"/>
	<path class="st319" d="M409.15,425.61l-26.54,0.04l0-1.68c0-0.33,0.27-0.6,0.6-0.6l25.94-0.04L409.15,425.61"/>

	<polygon class="st315" points="428.17,394.95 428.26,422.39 419.25,422.29 417.35,394.45 						"/>

	<path class="st327" d="M431.03,408.97l0.01-36.9c0,0,20.24,1.34,19.73-19.14c0,0-30.32-2.2-32.56,0
						c-6.08,5.97-3.2,55.33-3.2,55.33"/>

	<path class="st318" d="M417.66,414.99l-5.29,4.1l-4.75,0.96c-2.18,0.44-3.81,2.27-4,4.48l-0.09,1.04l26.34-0.04L429.13,415
							L417.66,414.99z"/>
	<path class="st319" d="M429.97,425.7l-26.54,0.04l0-1.68c0-0.33,0.27-0.6,0.6-0.6l25.94-0.04L429.97,425.7"/>

	<path class="st315" d="M390.99,310.39c0,3.05-2.48,5.53-5.53,5.53s-5.53-2.48-5.53-5.53c0-3.05,2.48-5.53,5.53-5.53
							S390.99,307.34,390.99,310.39z"/>
	<path class="st315" d="M388.88,309.12c0.24,0.12,9.66,6.23,9.66,6.23l-4.22,5.01l-8.86-6.3L388.88,309.12z"/>
	<path class="st315" d="M387.57,305.28l-7.19-2.93c-0.43-0.18-0.92,0.01-1.14,0.42l0,0c-0.2,0.39-0.09,0.87,0.26,1.14
							l6.06,4.46L387.57,305.28z"/>
	<path class="st328" d="M443.14,305.24c0,0-5.33,13.02-23.25,28.21c-2.65,2.25-6.6,2.01-8.98-0.52l0,0
						c-2.23-2.38-3.52-3.9-1.46-6.43l12.7-18.52L443.14,305.24z"/>
	<path class="st328" d="M412.62,334.48l-24.05-15.31l6.95-7.37l23.16,12.38l-2.41,8.2C415.81,333.95,414.2,334.87,412.62,334.48
						z"/>
	<path class="st3" d="M433.64,300.58c0,0,9.5,1.18,14.24,10.54c4.74,9.36-1.14,40.71-1.14,40.71l-26.71,0
						c0,0-2.89-33.26,2.06-43.15C424.75,303.36,433.64,300.58,433.64,300.58z"/>
	<path class="st329" d="M441.23,303.47c0,0-10.23,7.33-10.62,23.36c-0.38,16.03,2.08,37.71,20.02,31.17c0,0,2.32-1.41,0-4.87
						c-2.32-3.46-3.22-18.08-0.65-25.27l-3.88-20.23C446.1,307.63,444.75,305.66,441.23,303.47z"/>
	<path class="st329" d="M428.58,302.68c0,0-4.84,5.35-5.32,16.57c-0.38,8.82,1.2,31.1,1.2,31.1l-3.41,1.31l-1.41,0.22
						l-0.45-12.16c0,0-0.79-8.49-1.14-10.55C416.84,321.96,417.54,307.98,428.58,302.68z"/>
	<polygon class="st328" points="448.78,333.85 441.12,322.86 445.63,333.91 432.14,336.14 448.56,335.79 					"/>
	<path class="st330" d="M435.4,340.57c0,0-5.74-1.59-10.06-0.91c-3.1,0.49-5.6,4.67-5.37,7.8l0,0l18.44,0.88L435.4,340.57z"/>
	<path class="st329" d="M443.72,305.24c0,0,12.11,8.04,20.96,32.7c1.1,3.07-1.75,2.15-4.67,3.61l0,0
						c-2.74,1.37-4.45,2.12-6.18-0.41l-14.59-20.97L443.72,305.24z"/>
	<path class="st329" d="M460.18,346.23l-28.2-0.24l0.17-9.85l27.96-0.6c2.99-0.07,5.45,2.33,5.47,5.32l0,0
						C465.59,343.84,463.16,346.26,460.18,346.23z"/>
	<path class="st321" d="M417.79,279.04c0,0-2.77,5.58,0,22.11c0,0,14.42-1.1,28.8,0c0,0,3.45-20.25-6.79-27.29L417.79,279.04z"/>
	<path class="st315" d="M427.85,295.57l1.2,8.87c0.32,2.41,2.54,4.09,4.95,3.77l0,0c2.4-0.33,4.09-2.54,3.76-4.94l-1.15-8.55
							c-0.32-2.34-2.22-2-4.63-1.68l0,0C429.57,293.37,427.53,293.23,427.85,295.57z"/>
	<path class="st322" d="M438.07,292.03c0,0-1.14,10.14-9.21,11.04l-0.79-5.86L438.07,292.03z"/>
	<path class="st3" d="M437.76,303.27c0,0-0.11,4.29-5.24,4.03c-1.42-0.07-2.74-0.93-3.26-2.25c-0.13-0.32-0.23-0.69-0.28-1.11
						l0.65,3.88l3.74,1.99l2.51-1.02l1.46-1.68l1.2-1.86v-1.58L437.76,303.27z"/>
	<circle class="st321" cx="432.67" cy="284.47" r="12.78"/>
	<path class="st315" d="M429.39,300.37l0.34,0c5.04,0.05,9.15-4,9.2-9.04l0.09-10.3c0.01-1.3-1.04-2.37-2.34-2.38l-12-0.11
					c-2.33-0.02-4.23,1.85-4.25,4.18l-0.08,8.44C420.31,296.21,424.36,300.33,429.39,300.37z"/>
	<path class="st331" d="M434.06,282.91c0,0-0.13,5.21,3.32,5.78c3.46,0.57,1.59-5.78,1.59-5.78H434.06z"/>
	<path class="st315" d="M435.91,289.05c-0.02,1.7,1.35,3.09,3.05,3.1s3.09-1.35,3.1-3.05c0.02-1.7-1.35-3.09-3.05-3.1
					C437.31,285.99,435.92,287.35,435.91,289.05z"/>
	<path class="st321" d="M421.82,279.64c0,0,6.13,7.36,15.47,5.09c0,0,3.57-0.39,2.19-5.86
					C438.1,273.41,423.41,272.92,421.82,279.64z"/>
	<path class="st321" d="M422.9,279.28c0,0-3.28,0.75-2.72,7.35c0,0-3.86-6.8-1.77-10.07c3.37-5.28,9.83-1.21,9.83-1.21
					L422.9,279.28z"/>
	<polygon class="st318" points="475.61,350.42 495.66,428.13 488.98,428.13 464.33,350.42 				"/>
	<polygon class="st332" points="475.61,350.42 478.73,362.52 470.37,369.46 464.33,350.42 				"/>
	<polygon class="st318" points="380.77,350.42 360.71,428.13 367.4,428.13 392.05,350.42 				"/>
	<polygon class="st332" points="380.77,350.42 376.16,368.29 387.8,363.81 392.05,350.42 				"/>
	<rect x="357.46" y="346.59" transform="matrix(-1 -1.224647e-16 1.224647e-16 -1 857.9486 698.2262)" class="st318" width="143.03" height="5.05"/>
	<path class="st323" d="M44.11,372.25h37.07c0.89,0,1.61-0.72,1.61-1.61v-5.74c0-0.89-0.72-1.61-1.61-1.61H44.11
				c-0.89,0-1.61,0.72-1.61,1.61v5.74C42.5,371.52,43.22,372.25,44.11,372.25z"/>
	<rect x="46.06" y="372.25" transform="matrix(-1 -1.224647e-16 1.224647e-16 -1 125.2848 746.9587)" class="st318" width="33.16" height="2.47"/>
	<polygon class="st318" points="78.19,374.71 83.37,428.09 78.19,428.09 72.39,374.71 			"/>
	<polygon class="st318" points="48.45,374.71 43.27,428.09 48.45,428.09 54.25,374.71 			"/>
	<rect x="48.76" y="399.43" transform="matrix(-1 -1.224647e-16 1.224647e-16 -1 126.6353 801.6732)" class="st318" width="29.12" height="2.82"/>
	<path class="st326" d="M93.07,411.88l3.35,5.46l3.93,2.46c1.8,1.13,2.65,3.32,2.07,5.37l-0.27,0.96l-23.57-8.94l4.22-9.17
								L93.07,411.88z"/>
	<path class="st319" d="M78.42,417.3l23.75,9.01l0.57-1.5c0.11-0.3-0.04-0.63-0.33-0.74l-23.22-8.81L78.42,417.3"/>
	<polygon class="st315" points="82.79,408.01 88.55,393.73 99.43,397.84 93.07,411.88 						"/>
	<path class="st333" d="M95.86,343.73c0,0,23.01-1.16,21.04,7.63c-1.97,8.8-16.93,56.64-16.93,56.64l-16.38-4.96l11.69-39.09
						l-28.2-10.59L95.86,343.73z"/>
	<path class="st318" d="M102.29,415.92l5.06,3.92l4.54,0.92c2.09,0.42,3.65,2.17,3.83,4.29l0.09,0.99L90.6,426l0.71-10.07
								L102.29,415.92z"/>
	<path class="st319" d="M90.5,426.16l25.41,0.04l0-1.61c0-0.32-0.26-0.57-0.57-0.58l-24.83-0.04L90.5,426.16"/>
	<polygon class="st315" points="91.31,415.92 91.65,400.54 103.28,400.54 102.29,415.92 						"/>
	<path class="st334" d="M74.1,349.64l29.64,1.35c0,0,4.26,0.23,3.98,10.21c-0.29,9.98-2.98,50.13-2.98,50.13l-14.24,0.49
						l-0.01-42.06l-29.67-0.37c-6.25-0.08-12.07-3.66-14.55-9.41c-0.95-2.2-1.4-4.66-0.82-7.25L74.1,349.64z"/>
	<path class="st335" d="M102.23,343.66c-0.01,2.81,1.9,3.24,4.71,3.24s5.47-0.41,5.47-3.22c0.01-2.81-2.27-5.1-5.08-5.1
								C104.52,338.57,102.23,340.85,102.23,343.66z"/>
	<path class="st335" d="M98.65,346.54l5.89,0.01c1.54,0,2.8-1.25,2.8-2.79l0,0c0-1.54-1.25-2.8-2.79-2.8l-5.89-0.01
								c-1.54,0-2.8,1.25-2.8,2.79l0,0C95.86,345.27,97.11,346.53,98.65,346.54z"/>
	<path class="st336" d="M98.88,347.13l1.96-9.63l-24.2-2.64l-4.79-28.95c-0.49-2.57-3.52-5.29-6.09-4.8l0,0
							c-2.57,0.49-4.93,3.47-4.44,6.04l4.71,33.82c0.35,1.82,1.73,3.28,3.53,3.72L98.88,347.13z"/>
	<path class="st337" d="M50.54,301.95c-0.5,0.04-0.99,0.15-1.45,0.34l-0.24,0.09c-4.15,1.62-6.97,6.08-7.15,10.26l3.78,40.11
							c25.07-0.22,28.63-3.1,28.63-3.1l-1.99-41.03c-0.3-3.87-2.08-7.51-6.49-7.88l0,0L50.54,301.95z"/>
	<polygon class="st336" points="53.22,317.47 52.57,335.9 77.17,340.57 55.49,333.8 						"/>
	<path class="st315" d="M78.15,346.81c-0.19,2.81,1.68,3.36,4.49,3.55c2.81,0.19,5.48-0.05,5.67-2.85
									c0.19-2.81-1.93-5.24-4.73-5.43C80.77,341.89,78.34,344.01,78.15,346.81z"/>
	<path class="st315" d="M74.39,349.45l5.87,0.4c1.53,0.11,2.88-1.06,2.98-2.6l0,0c0.11-1.53-1.06-2.88-2.6-2.98l-5.87-0.4
									c-1.53-0.11-2.88,1.06-2.98,2.6l0,0C71.69,348,72.85,349.34,74.39,349.45z"/>

	<path class="st337" d="M74.58,350.06l2.6-9.48l-26.37-4.24l1.5-24.52c-0.32-2.6-3.16-5.52-5.76-5.2l0,0
								c-2.6,0.32-5.15,3.14-4.83,5.73l-1.9,29.38c0.22,1.84,1.51,3.39,3.28,3.95L74.58,350.06z"/>
	<path class="st319" d="M120.2,317.48l-28.77,2.71c-0.95,0.09-1.7,0.83-1.81,1.77l-3.02,25.93c-0.15,1.27,0.91,2.36,2.19,2.24
						l29.25-2.76c0.96-0.09,1.72-0.85,1.81-1.81l2.54-25.88C122.52,318.42,121.46,317.36,120.2,317.48z"/>
	<path class="st318" d="M121.86,317.32l-28.77,2.71c-0.95,0.09-1.7,0.83-1.81,1.77l-3.02,25.93c-0.15,1.27,0.91,2.36,2.19,2.24
						l29.25-2.76c0.96-0.09,1.72-0.85,1.81-1.81l2.54-25.88C124.17,318.26,123.12,317.2,121.86,317.32z"/>
	<path class="st319" d="M87.4,348.07l-19.66,1.85c-0.6,0.06-1.04,0.59-0.98,1.19l0,0c0.06,0.6,0.59,1.04,1.19,0.98l20.85-1.89
						L87.4,348.07z"/>
	<path class="st3" d="M105.37,333.05c0.16,1.73,1.7,3,3.43,2.84c1.73-0.16,3-1.7,2.84-3.43c-0.16-1.73-1.7-3-3.43-2.84
						C106.48,329.78,105.2,331.32,105.37,333.05z"/>
	<path class="st315" d="M53.91,301.86l-0.37-13.4l9.61-0.26l0.37,13.4c0.07,2.65-1.58,3.29-4.23,3.36l-0.76-0.08
								C55.88,304.95,53.98,304.51,53.91,301.86z"/>
	<path class="st322" d="M53.22,289.18c0,0,1.37,11.45,10.24,10.99l-0.16-5.75L53.22,289.18z"/>
	<path class="st338" d="M67.63,275.31c0,0,4.71,3.79-0.02,11.86l-4.84-10.18L67.63,275.31z"/>
	<path class="st315" d="M61.72,297.53l-0.32,0.04c-4.73,0.55-9.02-2.84-9.57-7.57l-1.13-9.68c-0.14-1.23,0.73-2.33,1.96-2.48
					l11.28-1.32c2.19-0.26,4.17,1.31,4.43,3.5l0.93,7.93C69.85,292.7,66.46,296.98,61.72,297.53z"/>
	<path class="st321" d="M51.82,288.62L51.82,288.62c2.14-0.19,2.95-2,3.13-3.27c0.52-3.63-0.94-6.04-0.75-6.04
					c6.36,0.09,14.95-1.36,16.01-5.83c1.06-4.47-4.97-10.98-10.6-7.11c-4.92,3.38-11.81,7.26-11.81,7.26
					c-3.79,1.68-8.07,14.57,4.73,18.91C52.53,292.54,51.49,289.72,51.82,288.62z"/>
	<path class="st315" d="M53.77,286.81c0.2,1.7-1.02,3.25-2.73,3.45c-1.7,0.2-3.25-1.02-3.45-2.73c-0.2-1.7,1.02-3.25,2.73-3.45
					C52.03,283.88,53.57,285.1,53.77,286.81z"/>
	<linearGradient id="SVGID_2_" gradientUnits="userSpaceOnUse" x1="294.2811" y1="148.0264" x2="327.4532" y2="148.0264">
		<stop offset="0.0106" style="stop-color:#6C0000"/>
		<stop offset="0.1947" style="stop-color:#920000"/>
		<stop offset="0.4546" style="stop-color:#C10000"/>
		<stop offset="0.6849" style="stop-color:#E30000"/>
		<stop offset="0.8746" style="stop-color:#F70000"/>
		<stop offset="1" style="stop-color:#FF0000"/>
	</linearGradient>
	<polygon class="st4" points="327.45,138.45 327.45,157.6 310.87,167.18 294.28,157.6 294.28,138.45 310.87,128.87 		"/>
	<path class="st3" d="M324.68,146.9c0-2.81-1.16-5.35-3.04-7.17c0.43,0.94,0.67,1.99,0.67,3.1c0,3.46-2.33,6.37-5.51,7.26
			c-0.01,0.01-0.02,0.01-0.03,0.02c0.01,0,0.01-0.01,0.02-0.01c0.01,0,0.01-0.01,0.02-0.02c0.36-0.29,0.65-0.66,0.85-1.08
			c0.2-0.42,0.31-0.88,0.31-1.38c0-0.81-0.3-1.54-0.8-2.11c0.01,0.1,0.02,0.21,0.02,0.32c0,1.57-1.27,2.84-2.84,2.84
			c-1.21,0-2.34-0.57-2.73-0.76c-1.3-0.83-2.35-2.02-3-3.43c-0.23-0.49-0.3-1.02-0.36-1.57c-0.01-0.02,0-0.05,0-0.06
			c0.01-0.98,0.4-1.71,1.18-2.3c-0.05-0.83-0.52-1.49-1.21-1.87c0,0-0.01,0-0.01,0c-0.33-0.18-0.72-0.29-1.12-0.29
			c-0.43,0-0.83,0.11-1.17,0.31c0.01,0.09,0.01,0.19,0.01,0.28c0,1.07-0.61,1.99-1.5,2.44c-0.89-1.57-2.04-2.96-3.41-4.12
			c-0.67-0.57-1.39-1.08-2.14-1.52l-4.61,2.66v19.15l5.98,3.45c1.89-1.4,3.44-3.23,4.51-5.35c0.03,0.01,0.08-0.07,0.17-0.23
			c1.9,1.98,4.58,3.21,7.54,3.21c0.38,0,0.75-0.02,1.12-0.06c0.72,0.65,1.67,1.05,2.71,1.05c0.98,0,1.87-0.35,2.57-0.92
			c-0.05,0-0.1,0-0.15,0c-0.87,0-1.66-0.32-2.26-0.86c-0.01-0.01-0.03-0.02-0.04-0.04c0.02,0.01,0.04,0.02,0.06,0.03
			c0.44,0.21,0.94,0.33,1.46,0.33c0.69,0,1.33-0.2,1.86-0.55c0.35-0.6,0.55-1.29,0.55-2.03c0-0.16-0.01-0.33-0.03-0.48
			C322.95,153.36,324.68,150.33,324.68,146.9z M313.48,151.86c-0.23,0.35-0.63,0.58-1.09,0.58c-0.72,0-1.31-0.59-1.31-1.31
			c0-0.14,0.02-0.28,0.06-0.41c-0.06-0.14-0.1-0.29-0.12-0.44c0.05,0.11,0.11,0.21,0.18,0.31c0.44,0.66,1.19,1.09,2.05,1.09
			c0.12,0,0.23-0.01,0.34-0.02c0.2-0.03,0.4-0.08,0.58-0.15C313.96,151.66,313.73,151.79,313.48,151.86z M318.6,156.02l-0.71-0.47
			l1.25,0.23L318.6,156.02z"/>
	<path class="st340" d="M311.52,168.93h-0.08c0.01,0,0.03,0,0.04,0C311.49,168.92,311.5,168.92,311.52,168.93z"/>

</svg>
