<svg id="Capa_1" data-name="Capa 1"
    xmlns="http://www.w3.org/2000/svg"
    xmlns:xlink="http://www.w3.org/1999/xlink" viewBox="0 0 227 227">
    <defs>
        <style>.cls-1,.cls-13,.cls-23,.cls-24,.cls-25,.cls-27,.cls-28,.cls-33{fill:none;}.cls-2{clip-path:url(#clip-path);}.cls-3,.cls-34,.cls-36,.cls-38,.cls-39{fill:#fff;}.cls-31,.cls-32,.cls-4{fill:#002d62;}.cls-19,.cls-20,.cls-21,.cls-30,.cls-5{fill:#ce1126;}.cls-6{fill:#201b18;}.cls-26,.cls-29,.cls-7{fill:#eac102;}.cls-10,.cls-8{fill:#006300;}.cls-9{fill:#ff0;}.cls-10{stroke:olive;stroke-width:0.11px;}.cls-11{fill:#008f4c;}.cls-12{fill:#00873f;}.cls-13,.cls-14,.cls-15,.cls-16,.cls-17{stroke:#006300;}.cls-13{stroke-miterlimit:4.26;stroke-width:0.27px;}.cls-14,.cls-15,.cls-16,.cls-17{fill:red;}.cls-14,.cls-16,.cls-17{stroke-miterlimit:10;}.cls-14{stroke-width:0.13px;}.cls-15{stroke-width:0.8px;}.cls-16{stroke-width:0.14px;}.cls-17{stroke-width:0.11px;}.cls-18{fill:#00863d;}.cls-19,.cls-20,.cls-21,.cls-22,.cls-23,.cls-24,.cls-25,.cls-26,.cls-27,.cls-28,.cls-29,.cls-30,.cls-31,.cls-32,.cls-33,.cls-34,.cls-35,.cls-36,.cls-37,.cls-38,.cls-39{stroke:#000;}.cls-19{stroke-width:0.12px;}.cls-20{stroke-width:0.12px;}.cls-21{stroke-width:0.1px;}.cls-22{fill:#aa241e;stroke-width:0.09px;}.cls-23{stroke-width:0.1px;}.cls-24{stroke-width:0.09px;}.cls-25,.cls-26,.cls-27,.cls-28,.cls-29,.cls-30,.cls-31,.cls-32,.cls-33,.cls-34,.cls-35,.cls-36,.cls-37,.cls-38,.cls-39{stroke-miterlimit:4.46;}.cls-25{stroke-width:0.2px;}.cls-26{stroke-width:0.12px;}.cls-27{stroke-width:0.12px;}.cls-28{stroke-width:0.14px;}.cls-29{stroke-width:0.03px;}.cls-30,.cls-31{stroke-width:0.11px;}.cls-32{stroke-width:0.08px;}.cls-33{stroke-width:0.1px;}.cls-34{stroke-width:0.09px;}.cls-35{stroke-width:0.02px;}.cls-36{stroke-width:0.12px;}.cls-37{stroke-width:0.02px;}.cls-38{stroke-width:0.07px;}.cls-39{stroke-width:0.05px;}</style>
        <clipPath id="clip-path">
            <circle class="cls-1" cx="113.5" cy="113.5" r="113.5"/>
        </clipPath>
    </defs>
    <g class="cls-2">
        <path class="cls-3" d="M0-7.17H227V234.17H0Z"/>
        <path class="cls-4" d="M0-7.17H88.87V89.37H0Z"/>
        <path class="cls-5" d="M0,137.63H88.87v96.54H0Z"/>
        <path class="cls-4" d="M137.13,137.63H227v96.54H137.13Z"/>
        <path class="cls-5" d="M137.13-7.17H227V89.37H137.13Z"/>
        <path class="cls-6" d="M106.64,91.69a17.49,17.49,0,0,0-9.54,2.45c-1.3.8-1.6,1.07-.89,2.36-.17.12-1.34.47-1.64.58a21.08,21.08,0,0,0-3.08,1.36,5.07,5.07,0,0,0-1.21,1l2.68-.2c-.09.17-.28.42-.39.59-.46.66-.74,1.18-1.14,1.88a17.76,17.76,0,0,1,2.32-1.43c1.92-1,5.37-1,6.79-2.69.36-.43.14-.69-.17-1.39a21.8,21.8,0,0,1,2.72-.88c3.08-.68,5.2.13,6.68-.24.47-.11.92-.37,1-.86l-.21-1.55h5c0,.87-.84,2,.71,2.41s4.24-.44,6.7.24l2.71.88c0,.13-.21.48-.26.66a.57.57,0,0,0,.09.7,4.66,4.66,0,0,0,1,.84,11.58,11.58,0,0,0,2.82,1,11.59,11.59,0,0,1,5.27,2.31,26.8,26.8,0,0,0-1.52-2.46l2.67.21A6.78,6.78,0,0,0,133,97.71l-3.25-1.18c.3-.57.54-1,.25-1.51-.46-.69-3.17-2-3.86-2.21a33.14,33.14,0,0,0-3.56-.76c-1.16-.19-3.38-.35-3.38-.35-.16-.17.31-1-.41-1.67a3.19,3.19,0,0,0-1.65-.51,57,57,0,0,0-8.37,0,2.42,2.42,0,0,0-1.65.51c-.5.48-.57.77-.52,1.66Z"/>
        <path class="cls-4" d="M107.34,93.46a2.08,2.08,0,0,1,1-.63,16.79,16.79,0,0,1,4.65-.39c1.1,0,2.17,0,3.26.09a3.87,3.87,0,0,1,2.48.88,15.77,15.77,0,0,0,.32-2.26c0-.9-.48-1.17-1.28-1.33a28.19,28.19,0,0,0-5-.24,31.69,31.69,0,0,0-4.91.28,1.44,1.44,0,0,0-1,1.53,8,8,0,0,0,.51,2.07Z"/>
        <path class="cls-4" d="M97.6,97.78a2.35,2.35,0,0,1,1.11-1,17.41,17.41,0,0,1,4.68-1.72,15.13,15.13,0,0,1,4-.15,9.67,9.67,0,0,0,2,0,3,3,0,0,0,.83-.32,1,1,0,0,0,.22-.69c-.44-.36-1.69.86-2.83.48-.37-.12-.47-.72-.61-1.13l-.37-1.4a17.64,17.64,0,0,0-7.58,1.43A11.37,11.37,0,0,0,96.26,95c-.48.49,0,1.2.28,1.56a13.65,13.65,0,0,0,1.06,1.22Zm17.91-3.86c-.12.74.42,1,1.07,1,1.33.19,3.34-.42,6,.1a16.92,16.92,0,0,1,3.23,1,11.47,11.47,0,0,1,2.09,1.09l.5.61a13.25,13.25,0,0,0,1.07-1.2c.29-.38.73-1.06.28-1.58a12.21,12.21,0,0,0-2.88-1.68,20.23,20.23,0,0,0-3.89-1c-1.28-.21-3.83-.4-3.83-.4s-.16,2.37-.82,2.57c-1.27.38-1.89-.68-2.82-.52Z"/>
        <path class="cls-4" d="M125.58,96.87c-.09.36-.25.4.42,1,1.57,1.29,4.22,1.36,5.87,2.07a14.31,14.31,0,0,1,2,1.11c-.07-.21-1-1.61-1.27-2,.74,0,1.7.06,2.46.1L135,99c-1.11-1-3.94-1.87-5.36-2.34-.41.48-.81,1-1.26,1.42a.53.53,0,0,1-.63.19,3,3,0,0,1-1-.74,2.78,2.78,0,0,0-1.12-.7Zm-10-3.18a3.21,3.21,0,0,1,1.52.47,1.86,1.86,0,0,0,.87.14c.43,0,.48-.09.6-.43.17-.49-.65-.81-1-.9l-1.77-.26Zm-5.11,0-.17-1c-.53-.06-3,.36-2.8,1.12.09.35.16.41.55.45C109.09,94.39,109.26,93.73,110.44,93.69ZM97.79,97.93c.36.63,1.31-.5,1.87-.91a2.12,2.12,0,0,1,.71-.38l-.2-.31a8.71,8.71,0,0,0-1.35.64,2.06,2.06,0,0,0-1,1Z"/>
        <path class="cls-4" d="M125.65,96.64c.11.06.23.07.36.15.8.47,1.77,1.7,2.15,1.24.23-.29-.63-.88-.9-1l-1.4-.67a.71.71,0,0,0-.21.3Zm-25.26.26c.09.36.25.39-.42.95-1.57,1.3-4.22,1.36-5.87,2.07a15.41,15.41,0,0,0-2,1.12c.07-.22,1-1.61,1.27-2-.74,0-1.7.06-2.46.11,0,0,.06-.07.11-.11,1.11-1,3.94-1.86,5.36-2.33a6.12,6.12,0,0,1,.41.48c.17.2.66.76.85.94a.53.53,0,0,0,.63.18,2.84,2.84,0,0,0,1-.74,2.76,2.76,0,0,1,1.12-.69Z"/>
        <path class="cls-7" d="M100.77,93.28a1.48,1.48,0,0,0-.64.19c-.06,0-.23.08-.1.14s.1.17.14.26.11.31.17.45.17.49.26.73c0,.06-.06.22.07.15l.39-.14a.78.78,0,0,0,.44-.36.92.92,0,0,0,.08-.25.41.41,0,0,0,0-.22,1,1,0,0,0-.08-.3.81.81,0,0,0-.22-.37.71.71,0,0,0-.33-.24.3.3,0,0,0-.18,0Zm-.11.15c.15,0,.26.13.33.25a2.59,2.59,0,0,1,.17.38,1.32,1.32,0,0,1,.11.62c0,.11-.13.18-.23.24s-.19,0-.19-.14-.08-.2-.11-.3-.12-.36-.2-.53a1.58,1.58,0,0,1-.11-.37c0-.11.12-.14.2-.15Zm.88-.44c0,.06.13.07.13.15s.07.21.09.32,0,.17.08.25.07.22.1.33a3.18,3.18,0,0,1,.09.33c0,.08.08.18,0,.25s0,.1,0,.07.16-.06.25-.07.17,0,.16-.07-.13-.08-.12-.16l-.12-.38a2.76,2.76,0,0,0-.08-.27,1.66,1.66,0,0,0-.06-.21c0-.15-.09-.29-.13-.44a.17.17,0,0,1,0-.18c0-.09-.11,0-.16,0S101.65,93,101.54,93Zm1.48-.41a.54.54,0,0,0-.35.16.68.68,0,0,0-.17.43,1.19,1.19,0,0,0,0,.42,1.4,1.4,0,0,0,.28.59,1.15,1.15,0,0,0,.33.21.69.69,0,0,0,.32,0,.52.52,0,0,0,.35-.37,1,1,0,0,0,.07-.36,2.14,2.14,0,0,0-.06-.35,1.58,1.58,0,0,0-.16-.35,2.13,2.13,0,0,0-.26-.26.57.57,0,0,0-.35-.12Zm0,.12a.41.41,0,0,1,.3.28,4.18,4.18,0,0,1,.19.6c0,.09,0,.18,0,.26a.73.73,0,0,1,0,.36.2.2,0,0,1-.3,0c-.1-.06-.13-.17-.19-.26s-.09-.25-.12-.38a1.63,1.63,0,0,1-.07-.3,1,1,0,0,1,0-.5.19.19,0,0,1,.19-.11Zm1.19-.26a.55.55,0,0,0-.12.27.82.82,0,0,0,0,.31.39.39,0,0,0,.19.23,3.68,3.68,0,0,0,.44.23.39.39,0,0,1,.24.21.36.36,0,0,1,0,.23.18.18,0,0,1-.21.13.32.32,0,0,1-.24-.11.55.55,0,0,1-.18-.29c0-.07-.12,0-.09.06a.58.58,0,0,0,0,.26.92.92,0,0,0,.21.13.65.65,0,0,0,.28.08.63.63,0,0,0,.27-.06.41.41,0,0,0,.21-.2.48.48,0,0,0,0-.37.56.56,0,0,0-.34-.43,1.73,1.73,0,0,0-.31-.14c-.11-.06-.25-.12-.28-.26a.22.22,0,0,1,.1-.26.27.27,0,0,1,.28.07.53.53,0,0,1,.13.2c0,.1.14.06.09,0s.09-.2,0-.25a.75.75,0,0,0-.28-.11.45.45,0,0,0-.32,0l-.1,0Zm5.63-2.2a1.67,1.67,0,0,0-.44.06c-.06,0-.21,0-.22.07a.32.32,0,0,1,.1.22,3,3,0,0,0,0,.42.93.93,0,0,0,0,.29,1.71,1.71,0,0,0,0,.45c0,.09,0,.2,0,.27s.06.11.11.07l.31,0c.08,0,0-.09,0-.11a.83.83,0,0,1,0-.35v-.26a3.18,3.18,0,0,1,.33-.08.55.55,0,0,0,.43-.41.53.53,0,0,0-.19-.51.72.72,0,0,0-.41-.1Zm0,.15c.13,0,.22.1.25.21a.92.92,0,0,1,0,.29.33.33,0,0,1-.28.28c-.07,0-.19,0-.16-.08a1.27,1.27,0,0,1,0-.34c0-.11-.07-.22,0-.33s.13,0,.19,0Zm1.34-.24a.15.15,0,0,0-.17.17c0,.11,0,.23-.07.34a4.59,4.59,0,0,1-.1.51,4.29,4.29,0,0,1-.14.62c0,.06-.13.13-.06.17h.31c.09,0,0-.11-.06-.16a1,1,0,0,1,0-.24s0-.09.07-.08h.39a1.8,1.8,0,0,1,.06.32s-.07.16,0,.13.24,0,.37,0,0-.1-.05-.16a3.59,3.59,0,0,1-.12-.35c0-.15-.08-.29-.11-.44a1.83,1.83,0,0,1-.08-.25c-.05-.16-.09-.33-.13-.5s-.11,0-.16,0Zm-.08.41c.08.21.12.44.19.66s0,.12-.1.1-.25.07-.25,0A.88.88,0,0,0,111,91a1.91,1.91,0,0,0,.06-.33s0-.07,0-.11Zm1.47-.46h-.62a.45.45,0,0,1,0,.2l0,.2c.07,0,.09-.07.13-.11s.13-.15.24-.14.13,0,.11,0a2.28,2.28,0,0,1,0,.26c0,.38,0,.77,0,1.16,0,0-.06.07-.08.12s.12,0,.18,0h.3s0-.07,0-.08a.64.64,0,0,1,0-.28c0-.41,0-.83,0-1.24.06,0,.12-.06.18,0l.14.08.09.14s.1.06.07,0a1.66,1.66,0,0,0,0-.22c0-.07,0-.16-.09-.13a4.78,4.78,0,0,0-.53,0Zm1.43,0c-.13,0-.26,0-.4,0s-.13,0-.06.06.06.16.06.24c0,.42,0,.83,0,1.25a.26.26,0,0,1-.09.19s.12,0,.17,0H114c0-.06-.09-.09-.07-.16V91.1a.12.12,0,0,1,.16.12,1.09,1.09,0,0,0,.1.25,1,1,0,0,0,.16.24,1.37,1.37,0,0,0,.22.19l.19,0c0-.08-.08-.12-.11-.19s-.11-.25-.17-.37a1.12,1.12,0,0,1-.08-.26c-.05-.08,0-.07.1-.1a.5.5,0,0,0,.21-.22.57.57,0,0,0,0-.31.55.55,0,0,0-.12-.24.66.66,0,0,0-.22-.15,1.59,1.59,0,0,0-.3-.06Zm.13.14a.27.27,0,0,1,.23.11.43.43,0,0,1,.07.2,1,1,0,0,1,0,.24.27.27,0,0,1-.22.2.7.7,0,0,1-.25,0,.54.54,0,0,1,0-.18c0-.16,0-.31,0-.47s.1-.11.19-.11Zm1.12.16a.9.9,0,0,0,0,.23c0,.14,0,.27,0,.41s0,.46,0,.69a.39.39,0,0,1-.08.2s0,.05,0,0a.64.64,0,0,1,.2,0h.25c.08,0,0-.06,0-.11a.51.51,0,0,1,0-.3,4.79,4.79,0,0,1,0-.65,2.67,2.67,0,0,1,0-.4c0-.08,0-.19.06-.24s.05-.08,0-.06a1.53,1.53,0,0,1-.3,0s-.16,0-.16,0,.09.09.08.16Zm1.26-.06c0,.14-.09.28-.13.42s-.06.17-.08.26-.09.28-.14.42a1.55,1.55,0,0,1-.22.51c-.07,0-.06.14,0,.1a1.94,1.94,0,0,0,.24,0c.07,0,.09,0,0-.07a.2.2,0,0,1,0-.26.12.12,0,0,1,.17-.12c.1,0,.2,0,.3,0a2.93,2.93,0,0,1,.05.29c0,.06-.12.19,0,.19s.21,0,.32,0,.12,0,.07-.06a1.74,1.74,0,0,1-.11-.45c0-.16-.06-.32-.07-.48a3.85,3.85,0,0,1-.08-.49,1,1,0,0,0,0-.24.07.07,0,0,0-.1-.08,1.11,1.11,0,0,0-.19,0Zm0,.38a1.8,1.8,0,0,1,.06.32,2.32,2.32,0,0,0,.06.38c0,.15-.14.08-.22.07s-.19,0-.13-.1a1.55,1.55,0,0,0,.07-.23.83.83,0,0,0,.06-.21c.06-.06,0-.16.1-.23Zm3.22,1.78c0,.08.12.11.09.2a5.43,5.43,0,0,0,0,.57c0,.3,0,.59,0,.88a.17.17,0,0,1,0,.12c-.06,0,0,.06.07,0l.88,0a1.76,1.76,0,0,0,.06-.39c0-.07,0,0-.06,0a.46.46,0,0,1-.34.23c-.07,0-.17,0-.22,0a.83.83,0,0,1,0-.22c0-.4,0-.79,0-1.19a.68.68,0,0,1,.07-.23Zm1.2,1.78h.47c0-.09-.06,0-.07-.17s0-1.38,0-1.47.07-.09.07-.16h-.46c0,.12.06,0,.06.19v.24c0,.2,0,1.07,0,1.21s-.08.08-.08.18Zm.74-1.82c0,.07.09.11.07.2s0,.39,0,.59,0,.46,0,.69a.73.73,0,0,1,0,.25s-.11.06,0,.08.39,0,.58.07a.63.63,0,0,0,.42-.08.5.5,0,0,0,.16-.54.45.45,0,0,0-.15-.21l-.17-.15a.39.39,0,0,0,.33-.3.37.37,0,0,0-.09-.36.22.22,0,0,0-.1-.09.6.6,0,0,0-.23-.1,5,5,0,0,0-.67,0Zm.42.16c.09,0,.2,0,.26.08a.38.38,0,0,1,0,.44.16.16,0,0,1-.14.12.87.87,0,0,1-.23,0c0-.15,0-.3,0-.45a.35.35,0,0,1,0-.2Zm-.1.78a.51.51,0,0,1,.38.14c.08.11.05.25.06.38a.3.3,0,0,1-.33.27A.12.12,0,0,1,122,94c0-.21,0-.42,0-.64Zm.86,1c0,.06.13,0,.19.07l.44.1.38.08c0-.1.1-.18.11-.28s-.06-.12-.1,0a.45.45,0,0,1-.43.08.14.14,0,0,1-.14-.19,2.58,2.58,0,0,1,.09-.62c.06,0,.14,0,.2,0a.41.41,0,0,1,.18.21c.06,0,0-.1.06-.14s0-.24,0-.36-.13.17-.25.11-.26,0-.21-.11a3,3,0,0,1,.08-.43.4.4,0,0,1,.42.15c.06,0,.1.17.15.19a1.53,1.53,0,0,0,0-.37c0-.08-.16-.06-.23-.09-.23,0-.45-.12-.68-.15s0,.09,0,.15l-.12.82c0,.22,0,.43-.09.64a.23.23,0,0,1-.11.15Zm1.52-1.44a.4.4,0,0,1,0,.32c0,.27-.13.53-.17.81l-.09.48c0,.08-.19.13-.06.17l.35.12c.11,0,0-.12,0-.18s.06-.24.07-.37,0-.19.09-.19,0,.14.08.21a2.33,2.33,0,0,0,.17.57.78.78,0,0,0,.28.26c0-.07-.07-.19-.08-.28a1.58,1.58,0,0,1,0-.38v-.3a.76.76,0,0,0,.29-.13.51.51,0,0,0,.11-.49.63.63,0,0,0-.33-.42,3.8,3.8,0,0,0-.6-.18l-.1,0Zm.41.24a.33.33,0,0,1,.3.19.61.61,0,0,1-.07.54.23.23,0,0,1-.27.07c-.09,0-.19,0-.14-.13s.07-.35.1-.53a.39.39,0,0,1,.08-.14Zm.77.59c.08,0,.13-.09.21-.11s.18-.07.24,0,0,.14,0,.21-.06.22-.08.33l-.2.82c0,.08,0,.18-.12.2s.11.08.16.12a1.66,1.66,0,0,0,.29.1c0-.07-.07-.13,0-.22s.1-.41.15-.63.12-.51.19-.76a.22.22,0,0,1,.24.15c0,.08.06.17.1.25s0-.14.06-.2v-.2c-.13-.08-.28-.11-.42-.18l-.31-.12-.33-.13c-.06.09-.08.21-.15.3v.07Zm1.69.33a.6.6,0,0,0-.14.21c0,.08-.11.15-.16.24s-.29.47-.44.71a.63.63,0,0,1-.22.21c-.07.09.09.1.13.13s.14.11.18.08-.08-.17,0-.26.06-.22.16-.15a1.23,1.23,0,0,1,.31.19c0,.08,0,.16,0,.24s-.11.15-.08.21.17.09.25.14.17.11.14,0a1.45,1.45,0,0,1,0-.36.66.66,0,0,0,0-.28c0-.13,0-.25,0-.38l.06-.63c0-.07.06-.19,0-.21s-.1-.1-.17-.09Zm-.12.38s0,.06,0,.09c0,.22-.06.44-.08.66s-.12,0-.17,0-.19-.07-.11-.16a3.78,3.78,0,0,0,.22-.33,2.53,2.53,0,0,0,.12-.23Zm1.11.23a.59.59,0,0,1-.09.32,2.38,2.38,0,0,1-.18.3c-.06.11-.12.23-.19.34l-.27.46c-.06,0-.16,0-.08.09s.16.15.23.23l.3.28a.48.48,0,0,0,.56.05c.07-.08.16-.15.23-.24a1.91,1.91,0,0,0,.16-.32,1.24,1.24,0,0,0,.05-.47,1,1,0,0,0-.31-.65l-.3-.29a.55.55,0,0,1-.11-.1Zm.29.44a.49.49,0,0,1,.21.42,1.33,1.33,0,0,1-.28.71c-.08.13-.17.28-.33.32a.28.28,0,0,1-.3-.16c-.06-.11,0-.23.08-.33s.27-.44.39-.68a.76.76,0,0,1,.18-.25l.05,0Z"/>
        <path class="cls-8" d="M107.36,133.19c.32.11,1,.42,1.25.54,0,0,.92,1.72.91,1.69a1.12,1.12,0,0,0,.68.29l-2.17.9a.46.46,0,0,0-.08.89,2.43,2.43,0,0,0,1.23-.29,23.53,23.53,0,0,0,3-1.62,4,4,0,0,1,1-.56L117,137.2c.28.12.84.48,1.15.26.12-.08.32-.27.25-.49s-.21-.28-.39-.35-2-.91-2.08-.91l.46-.12c.14-.1-.1-.38.08-.33l1-1.56,1.19-.42C118.63,132.18,109.7,131.5,107.36,133.19Z"/>
        <path class="cls-9" d="M108,136.87c-.32.09-.23.71.41.51.43-.15.1-.68-.41-.51Zm9.5,0c-.09.24-.08.35.14.44s.38.11.53-.05,0-.29-.14-.39,0-.09-.19,0A1.63,1.63,0,0,1,117.48,136.89Z"/>
        <path class="cls-10" d="M126,101.4s0,0,0,.17a10.83,10.83,0,0,1,1.18,3c-.12-.13-.29-.36-.42-.53a15,15,0,0,1-1-1.52.75.75,0,0,0-.24-.29,4.89,4.89,0,0,0,.29,1.24,14.59,14.59,0,0,0,1.67,3.17,2,2,0,0,1-.41-.35c-.51-.42-.37-.31-.66-.83a10.29,10.29,0,0,1-.71-1.55c-.14-.37-.28-.74-.44-1.1-.05.07,0-.06-.05.1a1.41,1.41,0,0,0,0,.46q.12.92.27,1.83c-.41-.18-.3-.21-.66-.5-.08,0-.2-.29-.3-.31l-.34-.41a2.93,2.93,0,0,0,.6,1.33c.17.3.9.81,1,1a7.17,7.17,0,0,0,1.07,1.87l.42.54-.93-.94c-.68-.62-.94-.87-1.71-1.48,0,.22.29.4.43.53l1.16,1.28c.37.48.81.92,1.13,1.42l.74,1.25a6.75,6.75,0,0,0-.41-.57l-1.13-1.4a8.23,8.23,0,0,0-1.34-1.21c-.42-.35-1-.72-1-.72a4.9,4.9,0,0,0,1.63,1.75c.21.2.41.41.61.63s.38.41.56.64a17.52,17.52,0,0,1,1,1.5l.45.79a23.36,23.36,0,0,1-2.38-2.39,2.74,2.74,0,0,0-.87-.73,12.16,12.16,0,0,0,1.39,1.75c.11.12.16.19.24.29l.5.56a11.82,11.82,0,0,1,1.14,1.52l.34.69a11.88,11.88,0,0,0-.77-1,4.06,4.06,0,0,0-.42-.51,11.56,11.56,0,0,0-1.41-1.39l-1.13-.64c0,.11.19.28.33.4l.42.4a11.2,11.2,0,0,1,1.59,1.71,9.55,9.55,0,0,1,.7,1,1.65,1.65,0,0,1-.36-.33c-.15-.16-.22-.21-.36-.34a7.33,7.33,0,0,0-.78-.62l-1.82-.89c0,.14.63.51.8.62a7.44,7.44,0,0,1,1.26.93c.14.15.21.25.34.37a4.12,4.12,0,0,1,.68.81c.21.3.39.53.59.85a8.26,8.26,0,0,1,.51,1l.62,2.3c-.2-.75-.58-1.58-.85-2.32-.21-.56-.68-1.93-1.4-1.68-.26.1-.39.39-.5.62s-.4-.12-1,1a9,9,0,0,0-.66,2.12.69.69,0,0,0,0,.35c.14-.06.24-.45.3-.62a10.65,10.65,0,0,1,1-1.79l-.54,2.44c.18,0,.24-.35.31-.52.24-.61.45-1.22.68-1.82.8.56,1.06,3.59,1.17,4.68a9.92,9.92,0,0,0-.56-1.55l-.82-1.36c-.48.06-.54.67-.65,1-.14-.18-.28-.5-.61-.47s-.41.36-.45.69a4.26,4.26,0,0,0,0,1.07,7.76,7.76,0,0,0,.15.84l.1.1.16-2.08a3.16,3.16,0,0,1,.82,2,10.6,10.6,0,0,1-2.16,5.15,2.45,2.45,0,0,1-.31.41l-.35.39a11.9,11.9,0,0,0,1.18-2.43,11.78,11.78,0,0,0,.63-2.57,1.48,1.48,0,0,0,0-.42c-.11,0-.14.2-.18.33a18.82,18.82,0,0,1-2.58,5.56l.28-1.64c-.14,0-.11.08-.17.24a3.05,3.05,0,0,1-.13.32,8.63,8.63,0,0,1-.76,1.82c0-.17.13-.41.18-.58a11.63,11.63,0,0,0,.34-1.66l0-.38c-.17,0-.18.32-.26.52a11.8,11.8,0,0,1-.71,1.67v-.16a4.53,4.53,0,0,0,.08-1.27s0,.08,0-.13c-.15,0-.17.32-.2.44s-.1.34-.16.51a15.24,15.24,0,0,1-1.29,2.51c-.3,0-.07,0,.06,0l-.07,0c.21,0,.16,0,.07,0,.42.11,2.83.56,2.83.56a23,23,0,0,1,3.71,0,4.59,4.59,0,0,0,1.2.07,6.83,6.83,0,0,0-1.26-.48l-1.32-.33,3.76-.1-.34-.19a14.64,14.64,0,0,0-3-.39c1.24-.12,2.16-.21,3.4-.23.33-.09,1.43.27.95-.23a5.83,5.83,0,0,0-2.33-.33l2.23-.1c.35-.09,2.65.44,1.83-.09a11.64,11.64,0,0,0-2.71-.71,8.91,8.91,0,0,1,1.18-.63,19.52,19.52,0,0,1,2.68-.87c1-.16,1.74-.63.43-.42-.8.09-1.77.32-2.48.39l.64-.35a14.38,14.38,0,0,1,2-.68c.13,0,.09,0,.13-.11l-.11,0a1.5,1.5,0,0,0-.37,0,10.18,10.18,0,0,1,2-.58c.51-.12,1-.25,1.52-.4.16,0,.37,0,.45-.17l-.09-.06c-.16-.06-2.89.35-3.19.4a8.24,8.24,0,0,1-1,.16c.83-.34,1.65-.71,2.52-1,.16,0,.79-.15.88-.3a.87.87,0,0,0-.55,0,16,16,0,0,0-2.39.59c-.27.09-.63.23-.89.29a13.48,13.48,0,0,1,4.34-1.27c.29-.06.53,0,.56-.24l-1.5-.08c-.49,0-1,.13-1.41.14l1.12-.94c.31-.26.17-.33.7-.34a6.14,6.14,0,0,0,1,0c-.38-.4-.49-.19-.86-.4l.45-.55a1.69,1.69,0,0,0,.31-.46c0-.08,0-.07,0-.13l-.18,0-1.16.95c-.19.15-.15.14-.45.15a13,13,0,0,0-1.46.29,12.38,12.38,0,0,1,1.51-1.06c.26-.17.55-.32.83-.47s.79-.31.83-.45l-1.79.46a9.21,9.21,0,0,0-1.54.77,21.81,21.81,0,0,1,2.93-2.6c.12-.09.4-.23.44-.36s-.1,0-.17,0a10.08,10.08,0,0,0-2,1.09,18.28,18.28,0,0,0-1.89,1.38,12.51,12.51,0,0,1,1-1,2.43,2.43,0,0,1,.3-.26l.27-.25c.2-.15.35-.31.55-.47.38-.32.76-.65,1.1-1l.56-.49c.13-.12.51-.35.5-.55-.78.44-1.5.91-2.23,1.42-.37.24-.71.5-1.06.75s-.82.68-1,.78a13,13,0,0,1,1.45-2,23.4,23.4,0,0,1,2.36-2.21c.21-.18.41-.39.61-.54v-.07c-.19,0-.8.43-.94.55a20.36,20.36,0,0,0-2.38,2c-.13.13-.22.27-.35.38a8.65,8.65,0,0,0-1,1.23c-.39.56-.82,1.17-1.18,1.78a5.82,5.82,0,0,1,1.6-2.6l1.36-1.49c.1-.1.14-.18.23-.28a5.16,5.16,0,0,0,1.52-2.92c-.16.22-.37.48-.72.91-.11.13-.2.22-.31.36l-2.74,3.17a9,9,0,0,1,.91-1.77c.34-.54.7-1.06,1.08-1.57.26-.36,1.46-1.93,1.76-2.2L136,111c0-.19.18-.29.38-.45a2.88,2.88,0,0,1,.54-.44c-.25-.26-1.2.33-1.38.46a13.86,13.86,0,0,0-2.94,3.08,13.47,13.47,0,0,1,1.17-2.89c.28-.38.54-.87.82-1.21l.79-1.25c-.18,0-.39.29-.51.41l-.22.23a16.4,16.4,0,0,0-2.42,3.77,7.41,7.41,0,0,1,1-2.43c.44-.75.93-1.38,1.38-2.11-.26-.07-1,.83-1.13,1a12.21,12.21,0,0,0-.93,1.27,15.41,15.41,0,0,0-1.34,2.77l-.09.2a14,14,0,0,1,1.36-3.78,9.08,9.08,0,0,1,.77-1.11c.12-.13.19-.25.29-.38l.56-.71.55-.73c-.35-.13-1.62,1.31-1.86,1.61s-.59.83-.86,1.25a7.51,7.51,0,0,1,1-2.24,15.18,15.18,0,0,1,1.07-1.4,2.49,2.49,0,0,0,.33-.47c-.4-.06-2,1.84-2.34,2.26-.14.19-.26.36-.38.55l-.54.85-.09.16-.11.14a19.58,19.58,0,0,1,.69-2.66c.3-.78.71-1.48,1.05-2.25-.29,0-.82.68-1,.91l-.64,1.21a26.1,26.1,0,0,1,1.24-3.25c-.17,0-.28.31-.44.54-.39.62-.74,1.23-1.11,1.86a5.51,5.51,0,0,1,.75-1.85c-.53.23-1.4,2.1-1.61,2.69a6.41,6.41,0,0,0-.27.81l-.11.29a24.72,24.72,0,0,1,.48-4.29c-.13,0-.16.17-.22.3l-.15.36-.28.79L129,106.6c-.61-.85-.76-2.43-2-4.2a2.84,2.84,0,0,0-1-1Zm.64,17a28.43,28.43,0,0,1,1.06,3.31.32.32,0,0,0-.14.14c-.06.14-.12.4-.22.61l-.36-1.27c-.14-.47.06-1.41-.1-1.57-.14.25-.1.29-.13.74a2.56,2.56,0,0,1-.22-.53c-.28-.78-.33-.55-.14-1,0-.13.14-.38.25-.43Z"/>
        <path class="cls-11" d="M130.32,116.06c.18-1.91,2.53-6.42,3.22-6.51.11,0-.77,1.26-1.38,2.51a27.76,27.76,0,0,0-1.47,3.67,8.81,8.81,0,0,1-.41,1.3,6.7,6.7,0,0,1,0-1Zm5.12-1.17a12.2,12.2,0,0,1-1,.93,22.33,22.33,0,0,0-4.81,6.92c-1,2.51-.75,1.87-.46.65a17.88,17.88,0,0,1,4.86-7.6c.69-.58,1.4-1,1.38-.9Zm-5.93-4.29a8.15,8.15,0,0,1,1.17-4.43c.64-1.34.88-1.78.95-1.68a.86.86,0,0,1-.13.55,25,25,0,0,0-1.73,5.83,3.08,3.08,0,0,1-.18.88,3.87,3.87,0,0,1-.08-1.15Zm-2.81,9.71a10.17,10.17,0,0,1-.71,4.44,11.9,11.9,0,0,1-2.11,3.21c-.17.06-.13,0,.25-.46a11.14,11.14,0,0,0,2.48-6.76C126.53,119.44,126.62,119.27,126.7,120.31Z"/>
        <path class="cls-11" d="M131,118.67a6.24,6.24,0,0,1,0,2.79,5.54,5.54,0,0,1-3.62,3.73,3.12,3.12,0,0,1-.69.19,2.51,2.51,0,0,1,.62-.34,6.23,6.23,0,0,0,3.7-5.59,2.32,2.32,0,0,0-.12-.78c0-.18-.08-.33,0-.37s0-.07.12.37Z"/>
        <path class="cls-11" d="M136,122.48s-1,.21-2.18.42-2.7.48-3.37.63c-1,.22-1.25.25-1.31.16a.43.43,0,0,1-.07-.14s3.19-.62,5-.89c1.32-.2,2-.27,1.93-.18Zm-9.3-20a5.46,5.46,0,0,1,1.32,2.86c.25,1,.31,1.34.23,1.32a.61.61,0,0,1-.17-.35,16.85,16.85,0,0,0-1.63-3.85,2,2,0,0,1-.28-.54s.26.22.53.56Z"/>
        <path class="cls-11" d="M125.85,103.64a5.34,5.34,0,0,0,1.67,2.65c.69.74.94,1,1,.89s-.07-.2-.19-.33a16.62,16.62,0,0,1-2.33-3.44,2,2,0,0,0-.3-.54,2.69,2.69,0,0,0,.19.77Zm6.76,3.53c-1.2,1.1-3.14,4.61-2.86,5.15a6.88,6.88,0,0,0,1.09-1.8,24.77,24.77,0,0,1,1.73-2.92,7,7,0,0,0,.67-.94,4.59,4.59,0,0,0-.63.51Zm.54.9c-1.34,1.22-3.51,5.14-3.19,5.75a8,8,0,0,0,1.21-2,27.42,27.42,0,0,1,1.94-3.26,8.91,8.91,0,0,0,.75-1.06,6.79,6.79,0,0,0-.71.58Zm-7.68-3.59a5.47,5.47,0,0,0,1.33,2.85c.59.83.81,1.09.84,1s0-.22-.15-.36a17,17,0,0,1-1.87-3.72,2,2,0,0,0-.24-.58,2.92,2.92,0,0,0,.09.79Z"/>
        <path class="cls-11" d="M127.3,106.82c1,.32,1.28.4,1.27.32a.56.56,0,0,0-.33-.2c-.85-.22-3.22-1.29-3.26-1.71-.11-.15-.51-.75-.51-.75a15.22,15.22,0,0,0,2.83,2.34Zm8.14,4.16c-1.82,1.26-5.08,5.66-4.79,6.45a9.65,9.65,0,0,0,1.79-2.24,33.85,33.85,0,0,1,2.87-3.63,9.77,9.77,0,0,0,1.08-1.16,7.34,7.34,0,0,0-.95.58Zm-.28,2.69c-.8,1.6-3.85,4.66-4.48,4.5a7.13,7.13,0,0,1,1.54-1.67,26.7,26.7,0,0,0,2.51-2.67,8.09,8.09,0,0,1,.78-1,5.59,5.59,0,0,1-.35.83Zm-10.73,11c-.33,1.58-2.28,5-2.86,5a6.81,6.81,0,0,1,1-1.82,22.7,22.7,0,0,0,1.57-2.92,7.12,7.12,0,0,1,.46-1A5.82,5.82,0,0,1,124.43,124.69Zm5-9.46a8.33,8.33,0,0,0-2.46-3.32c-1.25-1.12-1.63-1.3-.53-.25a14.46,14.46,0,0,1,2.72,3.69c.2.42.38.75.42.72s0-.4-.15-.84Zm.93,12.81c-1.4-.41-5-.37-5.28.05a6.45,6.45,0,0,0,1.89,0,24,24,0,0,1,3,.05,7.77,7.77,0,0,0,1,.09,5.58,5.58,0,0,0-.7-.24Zm-1.53.62c-1.42-.35-5-.17-5.28.27a6.75,6.75,0,0,0,1.89,0,23.86,23.86,0,0,1,3-.08,7.32,7.32,0,0,0,1.05.05A5.08,5.08,0,0,0,128.82,128.66Zm-1.59.77c-1.42-.32-5,0-5.26.41a7.51,7.51,0,0,0,1.88-.09,24.21,24.21,0,0,1,3.05-.15,7.59,7.59,0,0,0,1,0A4.82,4.82,0,0,0,127.23,129.43Z"/>
        <path class="cls-11" d="M126.3,130.33c-1.21-.46-4.33-.54-4.59-.12a5.17,5.17,0,0,0,1.63.1,18.77,18.77,0,0,1,2.65.15,5.18,5.18,0,0,0,.91.13,5.31,5.31,0,0,0-.6-.26Zm5.59-4.44c-2.95.84-6.52,1.35-6.72,2.06a7,7,0,0,0,2.61-.63,29,29,0,0,1,3.77-1.21,3.91,3.91,0,0,0,1.35-.38,7.63,7.63,0,0,1-1,.16Zm3.85-1.89s-1.21.24-2.6.49-3.21.58-4,.75c-1.23.26-1.48.3-1.56.19a.4.4,0,0,1-.08-.17c0-.05,3.8-.74,6-1.06,1.57-.23,2.41-.31,2.3-.2Z"/>
        <path class="cls-11" d="M134.82,123.23s-1,.31-2.13.64-2.64.75-3.3,1c-1,.32-1.21.37-1.28.29S128,125,128,125s3.12-.94,4.9-1.39c1.29-.33,2-.47,1.9-.37Z"/>
        <path class="cls-11" d="M134.09,119.76c-2,.83-6.13,4.41-6,5.25a9.17,9.17,0,0,0,2.22-1.79,32.12,32.12,0,0,1,3.55-2.93,9.54,9.54,0,0,0,1.3-.89,7.19,7.19,0,0,0-1.06.36Z"/>
        <path class="cls-11" d="M135.61,120.73c-2,.14-6.65,2.22-6.78,3a7.7,7.7,0,0,0,2.45-1,27.23,27.23,0,0,1,4-1.62,7.27,7.27,0,0,0,1.4-.44,6.83,6.83,0,0,0-1,0Z"/>
        <path class="cls-11" d="M135.54,121c-5.2,4.37-8.12,6.51-9.16,6.06a34,34,0,0,1,3.68-2.39,38.61,38.61,0,0,0,4.73-3.55,11.54,11.54,0,0,1,1.51-1.35,8.93,8.93,0,0,1-.76,1.23ZM130,122.33c1.05-1.71,1.57-2.2,3.81-3.61,1.43-.91,1.93-1.18,1.94-1s-.2.3-.46.45a28.41,28.41,0,0,0-5.2,4.62,2.87,2.87,0,0,1-.71.75,4.31,4.31,0,0,1,.62-1.17Zm.57-4.92c.18-1.9,3.44-8.27,4.13-8.37.11,0-.77,1.26-1.38,2.52a28.91,28.91,0,0,0-1.48,3.67,36.78,36.78,0,0,1-1.41,3.49s.1-.81.14-1.31Zm-1.38-7.34c-.55-1.29-.57-1.79-.17-3.62.26-1.17.38-1.56.48-1.51s.09.24,0,.45a14.39,14.39,0,0,0,0,4.81c.09.37.13.69.08.7a2.65,2.65,0,0,1-.44-.83Zm1,7a7.53,7.53,0,0,0-2.21-3c-1.12-1-1.47-1.17-.48-.22a12.78,12.78,0,0,1,2.45,3.32,2.35,2.35,0,0,0,.38.65,1.58,1.58,0,0,0-.14-.76Zm-5,1.47c1-3.7,1.84-3.06,1.84-3.06,2.25,2.12,1.14,9.4,1.14,9.4,0-14.89-3-6.34-3-6.34Z"/>
        <path class="cls-11" d="M126,118.26c1-3.7,1.3-3.53,1.3-3.53,1.86.37,1.74,8.53,1.74,8.53-.81-14-3-5-3-5Zm-1,2.87c0-2.65.48-2.25.48-2.25,1.51,1.34,2.06,6.51,2.06,6.51-2.33-10.44-2.54-4.26-2.54-4.26Zm4.56-7.8c-.45-1.43-1.85-2.9-3.28-4.77-1.76-1.59-2.3-1.84-.75-.35,1,.62,3,3.54,3.66,5.29.27.59.53,1,.59,1a2.47,2.47,0,0,0-.22-1.18Z"/>
        <path class="cls-11" d="M129.43,112.08a9,9,0,0,0-2.6-3.71l-.82-.77a30.2,30.2,0,0,1,3.13,4.61,2.35,2.35,0,0,0,.46.78,2,2,0,0,0-.17-.91ZM122,126.8a5.64,5.64,0,0,1-1.26,2.62,3,3,0,0,1,.41-.95,13.53,13.53,0,0,0,.69-1.54,2.33,2.33,0,0,1,.19-.54s0,.2,0,.41Zm-.74.47c-.11.8-1,2.58-1.27,2.61a3.88,3.88,0,0,1,.42-.95,11.09,11.09,0,0,0,.68-1.53,2.61,2.61,0,0,1,.2-.54s0,.2,0,.41Zm1.11.06c-.1.8-1,2.58-1.26,2.61a3.88,3.88,0,0,1,.42-.95,11.09,11.09,0,0,0,.68-1.53,4.64,4.64,0,0,1,.19-.54,1.93,1.93,0,0,1,0,.41Z"/>
        <path class="cls-12" d="M94.9,107a1,1,0,0,0,.29.76l0-.78c-.15-.09-.21,0-.34,0Z"/>
        <path class="cls-13" d="M93.79,112.79l-.37-.29m.76-2a2.77,2.77,0,0,0-.32-.43m-.76,5.76a1.44,1.44,0,0,0-.63-1.16m4.86,12.85c-2.31-2.56-3.07-7.19-3.07-7.19A4.16,4.16,0,0,1,96,118m-1.76,2.36a22.84,22.84,0,0,1-.56-6.1A29.9,29.9,0,0,1,95.18,107m-1.51,8.28c.62-2.8,3-2.46,3-2.46"/>
        <path class="cls-13" d="M93.64,115.82c2.1-.85,1.85-2.7,2.22-3.45a4.75,4.75,0,0,1,1-1.46M95.73,125c-.71-1.81.13-2.14.13-2.14m-.42,1.56a2.55,2.55,0,0,0-2.07-1.09m1.67-4.4a2.25,2.25,0,0,0,0-2m.29,7-1.62-2.11m1-13a1.06,1.06,0,0,0-.44-1.21"/>
        <path id="a" class="cls-14" d="M94.3,107.24a.4.4,0,1,1-.8,0h0a.4.4,0,1,1,.8,0Z"/>
        <path id="a-2" data-name="a" class="cls-15" d="M95.38,116.49a.41.41,0,1,1-.8,0h0a.4.4,0,1,1,.8,0Z"/>
        <path id="a-3" data-name="a" class="cls-14" d="M95,117.56a.4.4,0,1,1-.8,0h0a.4.4,0,1,1,.8,0Z"/>
        <path id="a-4" data-name="a" class="cls-16" d="M93.9,121.4a.43.43,0,1,1-.86,0h0a.43.43,0,0,1,.86,0Z"/>
        <path id="a-5" data-name="a" class="cls-16" d="M93.37,123.2a.44.44,0,0,1-.43.43.44.44,0,0,1-.44-.43h0a.44.44,0,1,1,.87,0Z"/>
        <path id="a-6" data-name="a" class="cls-16" d="M94,123.89a.44.44,0,0,1-.87,0h0a.44.44,0,0,1,.87,0Z"/>
        <path id="a-7" data-name="a" class="cls-17" d="M102.05,127.56a.31.31,0,0,1-.31.31.31.31,0,0,1-.32-.31h0a.32.32,0,0,1,.63,0Z"/>
        <path id="a-8" data-name="a" class="cls-17" d="M102.51,128.1a.32.32,0,0,1-.63,0h0a.32.32,0,1,1,.63,0Z"/>
        <path class="cls-13" d="M95.33,118.22a.77.77,0,0,0-.47-.53m6.31,10.36c.68.49.89.18.89.18"/>
        <path class="cls-8" d="M102,129.51a4.38,4.38,0,0,1-.31-1.84m-3.27-.86a.83.83,0,0,1,.16-.92c.24-.19,1.29.38,1.83-2a2.37,2.37,0,0,0-1.08.3v-.18a3,3,0,0,1-.09-1.17,2.75,2.75,0,0,0,.37-.77s-.68-.25-2,1.45c0,0-.12-.37-1.09-1a4.87,4.87,0,0,0-.26,2.31,1.88,1.88,0,0,0,.91,1.36,1.18,1.18,0,0,1,.63,1c.26,0,.6,0,.6,0s0,0,0-.35Zm-1,1.73a1.44,1.44,0,0,1-.68.28c-1.7.21-2.66-2-2.66-2-.05-.44.15-.21.5-.08s.61,0,1.13,0a2.33,2.33,0,0,1,1.45.6,1.84,1.84,0,0,1,.48,1.14c-.05.12-.22.12-.22.12Zm-2-4a2.81,2.81,0,0,0-2.83.09c-.06.11.11.16.11.16,1.11.14.75.09,1.22.72a2.38,2.38,0,0,0,2.19.86,1.41,1.41,0,0,1,.58.42,5.65,5.65,0,0,0-1.27-2.25Zm-3.07-7c-.34-.24-.27.24-.27.24a3.56,3.56,0,0,0-2.67-1.39.33.33,0,0,1-.25-.12c-.33,0,.07.64.07.64.59,1.56,1.14,1.74,1.14,1.74-.66.38-1.72-.45-1.48.16A4,4,0,0,0,90.63,120a2.79,2.79,0,0,0,1.88,0c.29.54.49.61.49.61a2.09,2.09,0,0,1,1.44,1,11.8,11.8,0,0,0-.49-2.88,6.5,6.5,0,0,0-1.58-1.26Z"/>
        <path class="cls-8" d="M101.54,130c-.63.2-.69.64-.69.64-.61.84-2.83,0-2.83,0-.68-.18-.55-.36-.55-.36a2.87,2.87,0,0,0,.83-.57A4.31,4.31,0,0,1,97,127.26c1.83-.36,2.4,0,2.4,0a.78.78,0,0,0-.72-.72c-.15-.23.17-.24.17-.24a3.92,3.92,0,0,1,2.47,1.17,2.26,2.26,0,0,1,.42,1.69c.15.85-.15.81-.15.81ZM94,122.56a1.91,1.91,0,0,0-1.41,0c-.46.19-1.31-.35-1.31-.35a4.4,4.4,0,0,1-1.32-1.5c0-.17,1-.13,1-.13,1.3,0,1.59.23,1.59.23.67.38.6.73.84.87.58.34.67.5.67.5.16.22.24.44,0,.36Zm1.73.45a1.18,1.18,0,0,1,1.45-.22c1.28.15,1.69-1.3,1.69-1.3a4.89,4.89,0,0,1,.52-.87c.07-.34-.56-.06-.56-.06-1.09.28-1.13.39-1.13.39.18-1.72.18-1.74.18-1.74,0-.28-.29-.08-.29-.08-1.58.91-1.76,1.58-1.76,1.58l-.65-1.22c-.21-.5-.36.05-.36.05-.29,1.49-.18,1.62-.18,1.62a2.61,2.61,0,0,0,.41,1c.37.48.37.66.37.66Z"/>
        <path class="cls-8" d="M105.05,127.07c-.25.06-.9,1.1-.9,1.1a3.19,3.19,0,0,0-1.84-1.72c-.21.09,0,.43,0,.43a1.69,1.69,0,0,1-.06,1.41c-.11.58,0,.71,0,.71-1.25-.65-1.33-.58-1.33-.58a6.23,6.23,0,0,0,1,2.29,11.9,11.9,0,0,1,2.23-.51,3.47,3.47,0,0,0,.75-.13,4.66,4.66,0,0,0,.15-3ZM94.9,118.91c.79.39.85.92.85.92.21.68,2.07.84,2.07.84,1.52-.16,1.36-.44,1.36-.44a6.59,6.59,0,0,1-1-1.07,2.51,2.51,0,0,0-1.54-.67c-1.16.18-1.41,0-1.41,0-.42.22-.34.47-.34.47Zm-1.81-2.67c-.38-1.38.87-3.07.87-3.07,1,1.93.84,2.46.84,2.46a12.26,12.26,0,0,1-.88,2.23c-.19-1-.69-1.12-.83-1.62Z"/>
        <path class="cls-8" d="M92.43,116.77c-1.32,0-2.57-1.45-2.57-1.45,2-.51,2.4-.21,2.4-.21a11.73,11.73,0,0,1,1.81,1.27c-.91,0-1.16.38-1.64.39Z"/>
        <path class="cls-8" d="M91.42,114.92a2,2,0,0,1-1.56-.68c-1.12-1.49-.74-2-.74-2s.22.13.22.13a2,2,0,0,0,1,.39c-1.78-1.11-.61-3.58-.61-3.58.22-.24.3.35.3.35a2.3,2.3,0,0,0,.94,1c.37.5.37.71.37.71.19-.84.39-.61.39-.61.22.66,1,1.13,1.06,1.59.26,1.24.06,1.41.06,1.41a7.59,7.59,0,0,0-.16,1.27,2,2,0,0,0-1.25,0Zm4.19,3c.42-.57,0-1.65,0-1.65-.17-1.15,1.55-2.24,1.55-2.24a2.79,2.79,0,0,1,.45,1.48c1.32-.31,1.61-.41,1.61-.41a3.86,3.86,0,0,1-.65,1.82c1.08.31,1.45-.2,1.45-.2a2.34,2.34,0,0,1-2.8,1.91,4.39,4.39,0,0,0-1.61-.71Z"/>
        <path class="cls-8" d="M92,110.94c.13-1.45.39-1.5.39-1.5.16.06.23.7.44.79a1.59,1.59,0,0,1,.9,1.39c0,1.15-.19,1-.19,1-1.27,0-1.54-1.73-1.54-1.73Zm4.17.28c.44-1.63.18-1.8.18-1.8-.2,0-.54.68-.81.7A1.84,1.84,0,0,0,94,111.27c-.44,1.28-.22,1.23-.22,1.23a1.86,1.86,0,0,0,2.39-1.28Z"/>
        <path class="cls-8" d="M92.08,108.23c.16-1.68.46-1.75.46-1.75.18.07.27.82.52.93a1.88,1.88,0,0,1,1,1.62c0,1.35-.23,1.23-.23,1.23a1.87,1.87,0,0,1-1.8-2Zm4.71.4c.48-1.62.22-1.79.22-1.79-.2,0-.55.66-.82.67a1.87,1.87,0,0,0-1.57,1.12c-.47,1.27-.24,1.23-.24,1.23a1.85,1.85,0,0,0,2.41-1.23Zm1.94,4.55c1.34-1,1.23-1.33,1.23-1.33-.16-.12-.84.21-1.06.07a1.84,1.84,0,0,0-1.93,0c-1.12.74-.91.84-.91.84A1.86,1.86,0,0,0,98.73,113.18Z"/>
        <path class="cls-8" d="M98.69,114.06c1.27-.58,1.23-.83,1.23-.83s-.72,0-.88-.11a1.66,1.66,0,0,0-1.59-.32c-1,.4-.89.51-.89.51a1.6,1.6,0,0,0,2.13.75Zm-4.41-7.74c-.51-1.51,1-3.51,1-3.51.19.55.35,1.11.49,1.67a4.81,4.81,0,0,1,2.3-1.42l0,1a3.42,3.42,0,0,0,1.15-.26,5.05,5.05,0,0,1-1.7,2.44,2,2,0,0,1-1.29.24,1.93,1.93,0,0,0-1.36,1.06c-.11-.65-.19,0-.58-1.17Zm2.23,5.06a1.63,1.63,0,0,1,1.79-.52,2.52,2.52,0,0,0,1.81-.94,2.7,2.7,0,0,1,.73-.89.24.24,0,0,0-.28-.21,3,3,0,0,0-.6.15c.45-1.65.21-1.72.21-1.72a.33.33,0,0,0-.24.11c-.26.76-1.32.72-1.32.72,0-1.09-.3-1-.3-1a1.34,1.34,0,0,1-.52.45c-1,1-1,1.48-1,1.48a8.51,8.51,0,0,1-.25,2.32Z"/>
        <path class="cls-18" d="M96.32,117.38a3.66,3.66,0,0,1,.69-.53c.24-.13.16-.08.28-.34a.63.63,0,0,1,.24-.36l-.15.46c.24-.14.33-.21.67-.4,0,.14-.22.26-.42.39s-.36.24-.54.34l-.92.79a5.15,5.15,0,0,1,1.16-.13c.94-.15,1.38-1.48,1.7-2.26a4.91,4.91,0,0,0-1.79.59c-.6.4-.56.77-.92,1.45Zm-2.4,3.35c-.06-.14-.22-.38-.31-.54-.25-.44-.28-.57-.61-1.09a1.41,1.41,0,0,1-.26-.52c.12,0,.29.38.43.53v-.54c.15,0,.11.14.11.31a1.43,1.43,0,0,0,.31,1l.66,1.09c0-.17-.12-.33-.17-.5-.2-.71.25-1.56-1.5-2.6l-.44-.26c0,.86.13,2.28.92,2.72a3.52,3.52,0,0,0,.45.18c.16.06.27.14.41.2ZM93.51,110c-.06-.22-.17-.42-.23-.66s0-.18-.19-.29l-.2-.25.26.14a1.59,1.59,0,0,0-.21-.41,2.24,2.24,0,0,1-.26-.38c.3,0,.62.86.68,1.09a2.41,2.41,0,0,0,.61,1.16c0-.1-.15-.27-.19-.41-.11-.37.3-.89-.1-1.69-.24-.49-.74-.57-1-1l-.21-.42a4.18,4.18,0,0,0-.22.91,2.43,2.43,0,0,0,.52,1.76A3,3,0,0,0,93.51,110Zm2.24-4.27c.08-.06.25-.29.39-.42l.43-.36-.06-.39c.08,0,0,0,.13.27a5.45,5.45,0,0,0,.48-.71c.08.12-.17.49-.24.6a1.81,1.81,0,0,1-.43.48l-.82,1a2.54,2.54,0,0,1,.49-.15,1.33,1.33,0,0,0,1.11-.75,5.83,5.83,0,0,0,.58-1.9,3.49,3.49,0,0,0-2,1.33c-.15.26-.08.48-.11,1ZM91,112.86c-.21-.56-.81-1.21-.88-1.5L90,110.7c.12,0,.07,0,.1.08a3.34,3.34,0,0,0,.08.48l.27.49c0-.33,0-.16.08-.44.13.16-.07.45.13.78.1.16.24.43.36.58,0-.46.32-1.18-.21-1.85a3.92,3.92,0,0,0-.62-.51l-.44-.69c-.35.75-.29,2.28.42,2.79a3.17,3.17,0,0,0,.41.21l.19.12a2,2,0,0,0,.19.12Zm3.43-3c.31-.25.21-.35.92-.89a2.79,2.79,0,0,0,.46-.45,4.41,4.41,0,0,1,.44-.47c.07.13-.4.61-.55.79l.29,0c0,.17-.21,0-.44.11s-.76.68-.91.83c.14,0,.26-.09.42-.12.45-.09.72,0,1.2-.58a5.45,5.45,0,0,0,.74-1.77,4,4,0,0,0-1.69.79c-.49.47-.45.87-.64,1.3-.07.16-.17.27-.24.42ZM92,114.48a2.25,2.25,0,0,0-.43-.37.85.85,0,0,0-.62-.21l-1-.56c.13-.07.19.08.43.21l.48.2-.06-.26c.09,0,.1,0,.14.12l0,.17c.46,0,.38,0,.84.33-.05-.21-.08-.19-.21-.3a1.08,1.08,0,0,1-.23-.28c-.14-.2,0,.09-.22-.28-.4-.59-.84-.33-1.12-.4l-.73-.3a2.79,2.79,0,0,0,.86,1.56,1.43,1.43,0,0,0,.77.45c.11,0,1-.06,1.09-.08Zm-.41,3.81a4.45,4.45,0,0,0-.48-.38.56.56,0,0,0-.35-.1l-.33-.11h.37l-.17-.14c-.26-.21-.32-.21-.48-.46.07-.07.12,0,.22.09.3.24.88.71,1.18.91l.54.3a2.58,2.58,0,0,0-.93-1.42l-1.82-.49a7.86,7.86,0,0,0,.73,1.41c.53.72.59.48,1,.42a5.06,5.06,0,0,1,.55,0Zm.87-4.11-.69-2.28c.13,0,.11.19.18.45l.19.47c.09-.2,0,0,.16-.34.08.1,0,.32-.06.45s-.06.15,0,.4l.32.84c0-.19,0-.29,0-.49a1.9,1.9,0,0,0-.07-1.44,5.44,5.44,0,0,0-1-1.27,5.84,5.84,0,0,0-.19.91,2,2,0,0,0,.43,1.77A3.91,3.91,0,0,1,92.46,114.18Zm1.36,3c0-.24,0-1.32,0-1.82V115c0-.17,0-.12.08-.24a.29.29,0,0,1,0,.21v.75l.22-.37c.14,0,0,.19,0,.32a1.85,1.85,0,0,0-.18.38l0,1.08,0,0s.12-.27.18-.38a2.11,2.11,0,0,0,.38-1.41l-.6-1.72c-.13.21-.28.57-.39.8a3.83,3.83,0,0,0-.27.95,1.57,1.57,0,0,0,.35,1.38c.08.13.13.27.2.41Zm1-10.25c0-.2.09-1.25.07-1.34l-.09-.2-.1-.43c.15,0,.09.11.17.27l.06.08,0-.31a.5.5,0,0,1,.08-.31c.08,0,0,0,.06.09s0,.11,0,.16c-.08.71-.1,1.48-.14,2.18.07-.11.09-.29.17-.43a3.22,3.22,0,0,0,.46-1.4l-.39-2.06a6.82,6.82,0,0,0-.41.81,3.22,3.22,0,0,0-.35,2l.35.81s0,0,.05.06Zm-5.52,11.89a4.66,4.66,0,0,0,.56.51,3.16,3.16,0,0,0,1.56.57l.92-.17-.14-.43c-.17,0-.3.08-.5.08a2.73,2.73,0,0,1-.57,0,4.89,4.89,0,0,1-.53-.09c-.31-.06-.2,0-.44-.18l1,.14c-.26-.19-.17-.09-.35-.35.14,0,.43.27.55.35l.83,0-.06-.49a2.19,2.19,0,0,0-1.43,0,1.88,1.88,0,0,1-1.38.15Zm1.1,2.16a5.46,5.46,0,0,0,1.13,1.23l1.92.08c-.24-.13-.57-.27-.84-.38s-.39-.07-1,0c0-.14.14-.11.46-.19-.13-.07-.71-.23-.72-.24l-.09-.09s0,0,.1,0l.15,0a20.25,20.25,0,0,1,2,.75,2.31,2.31,0,0,1-.54-.54c-.77-1-1.58-.66-2.56-.63ZM97,110.23l.3-.53c.14-.31-.09-.32,0-.73.11,0,.08,0,.13.38l.36-.82c.1.28-.46,1.32-.58,1.57l-.19.53c.45-.51,1-.75,1.11-1.18l.06-2a5.34,5.34,0,0,0-1,1.07,2.39,2.39,0,0,0-.2,1.76Zm-.89,12.15c.17-.07.3-.17.49-.25.76-.21.46.15.94-.51l-.12.35c.34-.11.43-.33.68-.58.07.13-.13.34-.23.44-.43.42-.86.28-1.11.38l-.5.25c.58-.09.51,0,1,.08,1,.15,1.24-.81,1.57-1.38l.22-.4a4.93,4.93,0,0,0-1.63.62,2.74,2.74,0,0,0-.64.48l-.3.27a1.33,1.33,0,0,0-.35.26Z"/>
        <path class="cls-18" d="M96.09,117.29c.33-.33.26-1.08.51-1.53a1.73,1.73,0,0,1,.14-.2c.09-.12.06-.1.18-.09s-.14.18-.21.34l-.15.49,0,0,0-.07a2.13,2.13,0,0,1,.79-.63l-.33-1.22-.59.52a2.77,2.77,0,0,0-.51.62c-.43.75,0,1.11.07,1.82Zm-.18,5L96.7,121v-.61c.12,0,.08,0,.15.36.27-.39.09-.34.39-.54a3.25,3.25,0,0,1-.35.78,12.66,12.66,0,0,0-.79,1.26,2.47,2.47,0,0,0,.58-.48,3.15,3.15,0,0,1,.3-.24l.34-.19.34-1.85a5.08,5.08,0,0,0-1.36,1c-.49.63-.51.82-.39,1.81Zm1.77-4.53,1-.09c0,.13-.18.13-.47.18a17.9,17.9,0,0,1-1.81.07c.14.08.28.13.43.21l.41.24a1.3,1.3,0,0,0,1.06,0l1.35-1.25c-.71.16-.32.19-1.28,0a3.08,3.08,0,0,1-.51.48c-.07.05-.15.09-.21.14Zm-7.3-2.49a2.19,2.19,0,0,0,1.9,1.22c.34,0,.4-.15.61-.35,0-.05,0,0-.06-.05l-.09,0a2.92,2.92,0,0,0-1.25,0l.27-.13-.46-.12a.83.83,0,0,1-.4-.19c.07-.07,0-.06.17,0a8.8,8.8,0,0,0,1.81.37c-.08-.26-.75-.58-1.11-.63-.56-.07-.76.22-1.39-.07Zm5,6.84-.26-1.66c.14,0,.1.09.16.44l.3,1.5a4.14,4.14,0,0,0,0-1.57l-.59-1.13A4.59,4.59,0,0,0,94.9,121a1.32,1.32,0,0,0,.41,1c0,.05,0,.06.1.1Zm2.25-17a.84.84,0,0,0,.23-.23l.25-.19c0,.14-.2.3-.34.47a3.81,3.81,0,0,1-.41.41c-.38.48-.34.39-.94.66,1.24.07,1.91-1.23,2.44-2.12-1.17.16-1,.24-1.07.58C97.77,104.87,97.7,105,97.66,105.14Zm.41,5.23.33-.56c.21-.29.34-.09.66-.4-.09-.08-.06,0-.41.09l.56-.77c-.31,0-1,1.13-1.14,1.38l-.38.46c.22-.7.14-1.35.49-1.66l1.86-1.17a5.22,5.22,0,0,1-.46,1.5,2.49,2.49,0,0,1-1.51,1.13Zm-4.65,2.2c-.1-.31-.47-.62-.53-.79l-.27-1.08c.15,0,.15.3.18.43l.14.46c.09-.33-.06-.1.15-.42.1.2-.12.54,0,.73a5.89,5.89,0,0,1,.37.49,1.75,1.75,0,0,0-.16-1.47l-.86-1a2.55,2.55,0,0,0,0,1.67,1.1,1.1,0,0,0,.7.75c.13.06.2.13.32.18Zm.75-.12c.22-.29.73-.49.86-.65l.68-1c-.16,0-.27.27-.35.4l-.32.43c0-.38.1-.08,0-.49-.18.18-.07.61-.28.76a6,6,0,0,0-.57.39,2,2,0,0,1,.7-1.51l1.27-.69a2.8,2.8,0,0,1-.57,1.8,1.17,1.17,0,0,1-1,.53,3.28,3.28,0,0,1-.41.08Zm2.28.13A6,6,0,0,0,98,112.4l.38-.18c0,.1,0,0-.14.2a1.17,1.17,0,0,1,.56,0c0,.07.08.06-.29.08s-.64.07-1,.12l-1.37.13c.88.32,1,.81,2,.44A2.91,2.91,0,0,0,99.58,112c-1.23.28-1.36-.76-2.57,0a2.66,2.66,0,0,0-.56.55Z"/>
        <path class="cls-18" d="M98.09,113.34c.33,0,.19,0,.46.12-.13.11-.66,0-.88,0l-.88,0a1.45,1.45,0,0,0,1.43.51,2.62,2.62,0,0,0,1.36-.56l-1-.33Zm-.37,5.77a1.33,1.33,0,0,0-.44-.25,2.6,2.6,0,0,0-1.28,0l-.64-.08a3,3,0,0,0,1.19.5c.86.14.28.37,1.17-.16Zm.09.63.26.23c-.07,0-.16,0-.27-.08l0,.58,1.17-.14a8.31,8.31,0,0,0-1-1.1,1.43,1.43,0,0,0-.07.51Zm-1.5.33.7-.53c-.18-.14-.5-.13-.74-.2l-.68-.27a3.12,3.12,0,0,1,.36.5,1.53,1.53,0,0,0,.36.5Zm3.38-10.34a7.59,7.59,0,0,1-.85.6c-.46.18-1,0-1.24.29.78,0,1.28.25,1.88-.3a7.67,7.67,0,0,0,1-1.3,1.52,1.52,0,0,0-.6.2,1.86,1.86,0,0,0-.14.25c-.14.22,0,0,0,.26Zm-2.55,17.58.57,1.14.77,1c.16-.07.34-.2.53-.29l.62-.23c-.35-.14-.36-.32-.56-.33a4,4,0,0,1-.84-.06c.06-.11,0-.06.36-.06l.41,0c-.24-.21-.53-.37-.79-.56l.83.43,0-.56c.21,0,.08.34.17.65,0,.14.32.31.46.39a2.67,2.67,0,0,0,.66.17l.66.21c-.27-.38-.15.05-.6-.89a1.73,1.73,0,0,0-.67-.8c-.75-.47-1.68-.15-2.55-.14Zm1-1.12c0-.46,0-.88,0-1.35a8.33,8.33,0,0,0-.12-1.1c.11,0,.09.08.12.21l.08.3a1.42,1.42,0,0,1,.4-.82c0,.12-.26.49-.32,1l-.05,1.37a1.67,1.67,0,0,1,.12-.16l.14-.15a1.89,1.89,0,0,0,.25-.33,2.2,2.2,0,0,0,.27-1.9l.19-1a4.81,4.81,0,0,0-.89.61,2.21,2.21,0,0,0-.69,2.18c.08.18.18.34.26.51s.14.41.23.57Z"/>
        <path class="cls-18" d="M97.74,130.09a8,8,0,0,0,.91.32c.6.19,1.54.26,1.95-.3a2.77,2.77,0,0,1,.66-.62,5,5,0,0,0-1.14.27c-.29.07-.31.27-.55.49l-.22.15c0-.14.28-.41.41-.56h-.87c0-.14.26-.07.64-.11.76-.06.89-.26,1.7-.36a.33.33,0,0,0,.17,0c-1.23,0-1.49-.83-3,.21Zm5.59-.76v-.61c-.27-.2-.27-.27-.43-.58.14,0,.2.24.42.4a8.86,8.86,0,0,0-.21-1.1c.14,0,.21.41.24.55.18.72,0,1.27.15,1.5l.35.47c.12-.5.63-.82,0-2a3.15,3.15,0,0,0-1.29-1.34,1.91,1.91,0,0,1,.1.88c0,.29-.15.51-.19.8-.08.66.13.62.26.7a3.88,3.88,0,0,1,.58.38Zm-6-1.16-.19-.41c-.51,0-.67.22-1.38-.26-.19-.13-.16-.11-.27-.31l.8.44a4.86,4.86,0,0,1-.3-.5s0-.06.08,0a.13.13,0,0,1,.06.07l.39.51.53-.06a1.56,1.56,0,0,0-.14-.33c-.08-.18,0-.21-.18-.3a1.28,1.28,0,0,0-.67-.28,3.61,3.61,0,0,0-.82.1l-.82-.17a4.29,4.29,0,0,0,.43.79c.34.48,1.25,1.18,2,.88a3.12,3.12,0,0,0,.46-.17Zm-4.23-3.75,0,0,.06,0a1.49,1.49,0,0,1,.6.39,3.15,3.15,0,0,0,.54.61,3,3,0,0,0,1.75.5,3.68,3.68,0,0,0-.32-.37c-.54-.58-.44-.55-.79-.5l-.57,0c0-.12.37-.14.62-.19a1.33,1.33,0,0,0-.37-.12,1.06,1.06,0,0,1-.42-.1c.15-.2.89.06,1.23.38a11.76,11.76,0,0,1,.81.89l-.4-.85a2.21,2.21,0,0,0-2.26-.87,1.82,1.82,0,0,0-.52.14Zm4.77,2c-.28-.9-.74-1.28-.87-1.83a1.27,1.27,0,0,1,0-.75c.19.25-.15.42.38,1.32a2.38,2.38,0,0,1,0-.77c0-.14.19-.68.19-.69s-.67-.74-.85-.93a5.11,5.11,0,0,0,0,2.3c.27.82.71.63,1.23,1.35Zm4.31,4.06.57-.15a3.09,3.09,0,0,1-.37-.46c-.25-.36-.22-.39-.12-.57,0,.05,0,0,0,.07s0,.13.06.25l.17.24a2.09,2.09,0,0,0,.41.43c0-.29-.07-.42,0-.59.11,0,0,0,.08.07l0,.49.63-.16a3.55,3.55,0,0,0-2-1.32l.21.88a4.64,4.64,0,0,0,.29.82Zm-1-1.62c-.07-.17-.19-.35-.28-.55a2.54,2.54,0,0,0-.58-1.06c-.07-.07-.13-.14-.21-.21a.79.79,0,0,1-.17-.14v-.08c.14,0,.42.3.51.38a12.24,12.24,0,0,1,1,1.8,1.16,1.16,0,0,1-.06-.52,1.5,1.5,0,0,0-.51-1.34l-1.76-.79a1.89,1.89,0,0,1,.48.64c.11.26.17,0,.63.53s.44,1.15,1,1.34Z"/>
        <path class="cls-18" d="M104.38,128.8l.09-.26c.06-.16,0-.09.15-.22.07.1,0,.16-.07.38-.15.43-.24.79-.36,1.23.39-.05.37-.06.54-.36a2.07,2.07,0,0,0,.22-.65l0-1.66-.51.66C104.13,128.3,104.29,128.09,104.38,128.8ZM99.08,125a5,5,0,0,0,.55-.57c.07.13-.27.49-.34.56-.29.27-.11,0-.49.45.76.11,1.07-.89,1.32-1.4a3.13,3.13,0,0,0-.75.24c-.1.06-.07,0-.1.16a1.46,1.46,0,0,1,0,.2c0,.12-.09.24-.14.36Z"/>
        <path class="cls-19" d="M106.76,134.52l.95.49-.54,1.07c.39-.07,1.83-.56,2.29-.71a1.25,1.25,0,0,1-.11-.78l-.16-.76-1.16.38a9.4,9.4,0,0,1-1.27.31Zm12.49-.17-1,.5.55,1.06c-.4-.06-1.83-.56-2.3-.7a1.29,1.29,0,0,0,.11-.79l.16-.76,1.16.39a10.39,10.39,0,0,0,1.28.3Z"/>
        <path class="cls-20" d="M110.21,136a6.23,6.23,0,0,0,2-.72c.16.18,1,.06,1,.06a4.8,4.8,0,0,0,.56-.14,5.13,5.13,0,0,0,1.89.78c1,0,1-.78,1-.78,0-.65-.1-.67-.1-.67a1.19,1.19,0,0,0,0-1.42c-.26-.29-1.72.17-1.72.17-1,.47-1,.27-1,.27-.28-.44-1.31-.36-1.75,0a9.88,9.88,0,0,1-1.24-.31c-1.1-.42-1.27-.17-1.27-.17a1.17,1.17,0,0,0-.27,1,1.66,1.66,0,0,0,.09.52c-.24,1.41.86,1.48.86,1.48Z"/>
        <path class="cls-21" d="M113.82,134.84c2.36.53,2.19.87,2.19.87-.14.24-.83-.07-.83-.07-1.84-.65-1.36-.8-1.36-.8Zm-1.46,0c-2.36.53-2.19.87-2.19.87.14.24.84-.07.84-.07,1.83-.65,1.35-.8,1.35-.8Z"/>
        <path class="cls-22" d="M112.46,133.25c-1,.18-.21.94-.18,1.4,0,.26-.25.69,0,.8a3.79,3.79,0,0,0,1.06,0c.4,0,.66,0,.61-.49a5.85,5.85,0,0,1-.16-1c0-.34,0-.72-.32-.75a7.11,7.11,0,0,0-1,.05Z"/>
        <path class="cls-23" d="M113.86,133.81c2.68,0,2.48-.44,2.48-.44m-2.44,1.26c2.66.36,2.3.75,2.3.75"/>
        <path class="cls-24" d="M112.24,134.55c-2.48.56-2.26.95-2.26.95m2-1.74c-2.53.18-2.28-.25-2.28-.25"/>
        <path d="M102,130.64a15.73,15.73,0,0,0-3.56,1.51c-.49-.74-1.17-1.84-1.65-2.48a3.49,3.49,0,0,0-1.11-.95,1.09,1.09,0,0,0-1.47.16l-.33-.62a19,19,0,0,0-2.08-2.63l-.66-.78c-.09-.1-.12-.18-.24-.24a25,25,0,0,1,.67,2.84c-.4-.22-.78-.44-1.2-.62a4.35,4.35,0,0,0-1.51-.25l.48.43A5.94,5.94,0,0,1,91,129.79a8.44,8.44,0,0,0,2.09,3.29,3.91,3.91,0,0,0,1,.75c1,.36.94,0,1.3-.19a15.6,15.6,0,0,0,2.13,2.92,4,4,0,0,0,3.78.95,4.93,4.93,0,0,0,1.44-.58c1.76-1,.92-1.8.71-2.6.57-.18,2.8-.86,3.6-1a42.92,42.92,0,0,1,11.41-.1,39.05,39.05,0,0,1,4,1.14,2.69,2.69,0,0,0-.3,1.45c.06.57.55.86,1,1.12a4.92,4.92,0,0,0,3.26.65,3.83,3.83,0,0,0,2.46-1.59,13.53,13.53,0,0,0,1.63-2.36,1.77,1.77,0,0,0,.44.29,2.17,2.17,0,0,0,.88-.1,3,3,0,0,0,1-.77,7.81,7.81,0,0,0,2.08-3.32,6,6,0,0,1,2.16-3.15,4.84,4.84,0,0,0-2.7.87l.3-1.45c.09-.4.32-1,.36-1.39-.64.69-1.21,1.41-1.78,2-.27.36-.57.66-.84,1-.57.88-.46.9-.68,1.19-2-1.1-2.88,1.59-4.23,3.24a22.31,22.31,0,0,0-7.6-2.38c-.66-.06-1.24-.16-1.78-.22a44.62,44.62,0,0,0-11.43.14,38,38,0,0,0-4.74,1Z"/>
        <path class="cls-5" d="M99.44,136.38c.23-.66.51-.8,1.08-1.08a24.53,24.53,0,0,1,4.78-1.72,26.65,26.65,0,0,1,3.65-.68,13.79,13.79,0,0,1,1.9-.18,33.64,33.64,0,0,1,4.26,0,10.88,10.88,0,0,1,1.91.18,26.12,26.12,0,0,1,3.69.68,24.34,24.34,0,0,1,4.77,1.71c.76.36.66.37,1.09,1.07a5.23,5.23,0,0,0,1.28-1.71,6.26,6.26,0,0,0,.51-1c.18-.55-.17-.72-.42-.93a12,12,0,0,0-4.16-1.92,43.52,43.52,0,0,0-21.51,0,12.56,12.56,0,0,0-4.14,1.89,4.38,4.38,0,0,0-.39.36c-.36.42.24,1.24.42,1.59a8.93,8.93,0,0,0,.54.95,6.67,6.67,0,0,0,.74.81Z"/>
        <path class="cls-5" d="M93.14,130.7a1.91,1.91,0,0,1,1.44,1c1,1.43,1.08,2.44,2.84,4.38a3.65,3.65,0,0,0,1.31,1.07,3.85,3.85,0,0,0,2.09.27,4.56,4.56,0,0,0,1.8-.6,3.89,3.89,0,0,0,.82-.6,1.88,1.88,0,0,0,.2-.77c-.53-.16-1.47.86-2.09,1.27-1.12.74-1.56.47-2.35-.23a6.68,6.68,0,0,1-1.4-2,1.88,1.88,0,0,1-.38-1.28l.84-.87c-.34-.54-.75-1.15-1.05-1.62A5.12,5.12,0,0,0,96,129.2c-.32-.26-1-.63-1.4-.36a5.69,5.69,0,0,0-1,1,2.77,2.77,0,0,0-.5.82Z"/>
        <path class="cls-5" d="M91.94,128c-.16-.06-.76-.52-1.08-.66l-1.32-.44c.18.22.36.35.72.8.84,1.07.84,1.93,1.5,3.21a8.47,8.47,0,0,0,.95,1.38,13.11,13.11,0,0,0,1.18,1.18c.46.38.94.44,1.2.12.06-.23-.54-.63-.87-.79a5.26,5.26,0,0,1-1-.73c-.78-.79-.18-1.75.42-2.44l.41-.47c.09-.33-.57-1.24-.92-1.7S91.81,126,91.4,125.5c.06.38.18.88.26,1.27s.27,1,.28,1.19Zm11.66,7.21-.32-.74a16.61,16.61,0,0,0-3.06,1.29c-.15.09-.75.57-.46.87.82.89,2.07-.42,2.8-1a1.63,1.63,0,0,1,1-.43Z"/>
        <path class="cls-5" d="M95.36,133.45c-.13,0-.1-.31-.58-.67-.18-.15-1.27-.71-1.46-.92a.75.75,0,0,1-.31-.62.37.37,0,0,1,.27-.33c1,0,2.12,2.42,2.08,2.54Zm37.54-2.71a1.92,1.92,0,0,0-1.44,1c-1,1.43-1.08,2.44-2.84,4.37a3.51,3.51,0,0,1-1.32,1.07,3.81,3.81,0,0,1-2.08.27,4.41,4.41,0,0,1-1.8-.6,3.89,3.89,0,0,1-.82-.6,1.81,1.81,0,0,1-.2-.76c.52-.17,1.47.86,2.08,1.26,1.13.74,1.56.48,2.36-.22a6.82,6.82,0,0,0,1.39-2,1.82,1.82,0,0,0,.39-1.28l-.84-.86c.33-.55.75-1.16,1.05-1.62a5.31,5.31,0,0,1,1.2-1.49c.32-.25.95-.63,1.4-.36a6.93,6.93,0,0,1,1,1,2.77,2.77,0,0,1,.5.82Z"/>
        <path class="cls-5" d="M134.1,128c.16,0,.76-.52,1.08-.65l1.32-.45c-.18.23-.36.36-.72.81-.84,1.07-.84,1.93-1.5,3.21a8.47,8.47,0,0,1-.95,1.38,13.11,13.11,0,0,1-1.18,1.18c-.46.38-1.06.38-1.2.12s.54-.63.87-.79a5.26,5.26,0,0,0,1.05-.73c.78-.79.18-1.76-.42-2.44l-.41-.48a4.71,4.71,0,0,1,.92-1.69c.36-.43,1.27-1.46,1.68-1.92-.06.37-.18.88-.26,1.26s-.19.8-.28,1.2Zm-11.66,7.22.32-.74a16.61,16.61,0,0,1,3.06,1.29c.15.09.75.57.46.86-.82.9-2.07-.41-2.8-1a1.52,1.52,0,0,0-1-.43Z"/>
        <path class="cls-5" d="M130.68,133.5c.14-.05.11-.32.59-.67.18-.15,1.26-.72,1.45-.93a.74.74,0,0,0,.31-.61.38.38,0,0,0-.26-.34C131.79,131,130.64,133.38,130.68,133.5Z"/>
        <path class="cls-7" d="M101.66,132.07a1.16,1.16,0,0,0-.31.07l-.46.19c-.06,0-.07.09,0,.09s.07.2.11.29l.09.31c0,.14.08.27.11.4s.08.26.1.4-.11.18,0,.14a2.3,2.3,0,0,1,.34-.12s.13-.08,0-.08-.07-.2-.13-.29,0-.2-.07-.3.17,0,.19.05a1.2,1.2,0,0,0,.22.23.79.79,0,0,0,.31.17.41.41,0,0,0,.27,0,1.78,1.78,0,0,1-.35-.32l-.22-.33a.71.71,0,0,0,.25-.4.48.48,0,0,0-.23-.43.75.75,0,0,0-.26-.05Zm-.14.15a.3.3,0,0,1,.22.14.6.6,0,0,1,.07.32.28.28,0,0,1-.16.23c-.06.06-.24.17-.25,0s-.1-.34-.13-.52.08-.15.17-.17l.08,0Zm.74-.39c0,.08.12.12.11.21s0,.25.08.38,0,.22.07.33,0,.16,0,.24.05.22.07.33-.11.15,0,.15l.92-.25c.08,0,.11-.05.09-.12v-.27c-.1,0-.09.12-.17.16a.78.78,0,0,1-.41.22c-.09,0-.13-.07-.14-.14s0-.15,0-.22l-.06-.33a.6.6,0,0,1,.35,0c.06,0,.11.11.16.06a1.5,1.5,0,0,0-.06-.29s0-.18-.09-.14,0,.15-.12.18a.73.73,0,0,1-.25.08c-.06-.06-.06-.18-.07-.27s-.06-.24.07-.26a.4.4,0,0,1,.42,0s.15.13.15,0-.06-.22-.13-.3a.76.76,0,0,0-.25.06c-.24.05-.49.13-.73.19Zm2-.56a2.29,2.29,0,0,0-.36.07l-.4.12c-.1.06.1.1.09.18s0,.17.05.26a2.38,2.38,0,0,1,0,.26c0,.13,0,.26.08.39s.06.23.06.36a.38.38,0,0,1,0,.21l.39-.1c.07,0,.1-.08,0-.09a1.38,1.38,0,0,1-.08-.29l-.06-.31a1.26,1.26,0,0,0,.52-.22.45.45,0,0,0,.18-.34.55.55,0,0,0-.1-.35.59.59,0,0,0-.18-.13.78.78,0,0,0-.22,0Zm-.14.14a.27.27,0,0,1,.25.19.55.55,0,0,1,0,.33.24.24,0,0,1-.14.18c-.08,0-.15.1-.23.08s0-.14-.06-.21,0-.27-.09-.4a.14.14,0,0,1,.13-.15l.09,0Zm1.66-.45a.61.61,0,0,1,.13.15c0,.06,0,.15.06.22s0,.21,0,.32a1.26,1.26,0,0,1,0,.27,1,1,0,0,1,0,.34.32.32,0,0,1-.37.26.24.24,0,0,1-.17-.14.54.54,0,0,1-.09-.22c0-.12,0-.23,0-.35s0-.23,0-.34l-.06-.28c0-.06.12-.17,0-.15s-.27.06-.41.07.08.1.07.18,0,.16,0,.25a4.51,4.51,0,0,1,.09.53,2,2,0,0,1,0,.24.63.63,0,0,0,.12.23.41.41,0,0,0,.28.15.59.59,0,0,0,.54-.16.46.46,0,0,0,.12-.24,1,1,0,0,0,0-.39,1.74,1.74,0,0,0,0-.39c0-.11,0-.21,0-.32a.22.22,0,0,1,0-.16c0-.06.09-.11,0-.15a1.9,1.9,0,0,0-.25,0,.11.11,0,0,0-.09.05Zm1.31-.25a3.33,3.33,0,0,0-.54.07c-.07,0-.19,0-.23.08s.11.1.1.19.05.37.09.56,0,.22,0,.34,0,.27,0,.41-.1.15,0,.13.15,0,.23,0a1.54,1.54,0,0,1,.3,0,2.37,2.37,0,0,0,.36-.09,1.29,1.29,0,0,0,.17-.16.28.28,0,0,0,.08-.2.38.38,0,0,0-.12-.35.61.61,0,0,0-.23-.11c-.06,0-.13-.06,0-.09a.41.41,0,0,0,.21-.24.3.3,0,0,0-.07-.3.25.25,0,0,0-.23-.14l-.15,0Zm-.25.14a.3.3,0,0,1,.32.11.42.42,0,0,1,0,.29c0,.11-.12.15-.2.18s-.22.08-.2,0a.65.65,0,0,0,0-.24,1.85,1.85,0,0,1,0-.23Zm.14.73c.09,0,.2,0,.26.07a.38.38,0,0,1,.11.3c0,.09,0,.2-.08.25a.41.41,0,0,1-.28.09c-.1,0-.09-.17-.1-.26a1.26,1.26,0,0,1,0-.27c0-.07,0-.19.06-.17Zm.83-1c0,.07.1.07.09.15a2.48,2.48,0,0,0,0,.27,2.48,2.48,0,0,0,0,.27c0,.11,0,.23,0,.33a2,2,0,0,0,0,.34.27.27,0,0,1-.06.28c0,.06.09,0,.13,0s.26,0,.39,0l.23,0,.27,0a1.86,1.86,0,0,0,0-.34s0-.11,0-.07a1.22,1.22,0,0,1-.12.19.44.44,0,0,1-.15.08.58.58,0,0,1-.19,0c-.08,0-.16,0-.16-.1a3.11,3.11,0,0,0,0-.32c0-.2,0-.41,0-.61a1.5,1.5,0,0,1,0-.37s.14-.15,0-.13l-.19,0-.21,0Zm1.27-.14c0,.06.07,0,.08.09s0,.15,0,.22,0,.16,0,.24l.06.76a.71.71,0,0,1,0,.2c0,.06-.08.11-.07.15a2.72,2.72,0,0,0,.49-.05s0-.07,0-.07,0-.13,0-.2a2.2,2.2,0,0,0,0-.36,1.37,1.37,0,0,0,0-.29c0-.13,0-.27,0-.4a.57.57,0,0,1,0-.26s.11-.1,0-.09a2.31,2.31,0,0,0-.46,0Zm2,1c-.08,0-.12.08-.16.13a.35.35,0,0,1-.25.14c-.1,0-.19,0-.27-.11a.84.84,0,0,1-.13-.27,1.27,1.27,0,0,1-.06-.28,1.41,1.41,0,0,1,0-.41.51.51,0,0,1,.14-.26.26.26,0,0,1,.33.06.55.55,0,0,1,.14.23c.06.1.09,0,.1-.09s.05-.14,0-.21a.4.4,0,0,0-.23-.12.57.57,0,0,0-.57.12.43.43,0,0,0-.14.16.52.52,0,0,0-.09.2,2.8,2.8,0,0,0-.06.28,1.34,1.34,0,0,0,.12.6,2.56,2.56,0,0,0,.2.26.47.47,0,0,0,.27.12.53.53,0,0,0,.35-.09.66.66,0,0,0,.2-.24.5.5,0,0,0,.08-.2s0,0,0,0Zm.7-1.27c-.07,0-.17,0-.23,0s0,.25-.07.37a1.19,1.19,0,0,0,0,.26c-.06.22-.1.44-.14.66s-.08.22-.13.32,0,.1,0,.07h.31c0-.07-.1-.1-.11-.17a.6.6,0,0,1,0-.23c0-.09.13,0,.19-.05h.27c0,.1.08.18.07.28s-.11.17,0,.16.25,0,.37,0,0-.11,0-.17-.08-.24-.11-.37-.11-.36-.16-.54-.08-.32-.13-.48,0-.12-.08-.11Zm-.17.39c.07.21.13.43.19.65s-.06.06-.11.07l-.21,0c0-.07,0-.17,0-.25s.06-.19.06-.29,0-.15.05-.2Zm2.16-.45-.49,0c0,.06.09.06.06.13s0,.27,0,.4l0,1.07c0,.05-.13.15,0,.14a2.49,2.49,0,0,0,.72,0,.49.49,0,0,0,.2-.11,1,1,0,0,0,.19-.26,1.77,1.77,0,0,0,.08-.33,2.17,2.17,0,0,0,0-.36,1.76,1.76,0,0,0-.1-.3,1.33,1.33,0,0,0-.14-.19.86.86,0,0,0-.22-.15c-.08,0-.16,0-.25,0Zm0,.13a.24.24,0,0,1,.24.15.86.86,0,0,1,.07.21c0,.08,0,.17,0,.25a1.7,1.7,0,0,1,0,.45.67.67,0,0,1-.1.31c0,.08-.11.11-.18.14s-.2,0-.22-.09,0-.19,0-.28c0-.35,0-.69,0-1,0-.1.08-.12.16-.11Zm1.49-.08a.44.44,0,0,0-.29.08,1.44,1.44,0,0,0-.22.27,1.25,1.25,0,0,0-.12.43c0,.13,0,.25,0,.37s.06.19.09.29a.53.53,0,0,0,.22.29.48.48,0,0,0,.25.09.52.52,0,0,0,.44-.22,1.16,1.16,0,0,0,.18-.35,1.77,1.77,0,0,0,0-.32c0-.08,0-.17,0-.25a.76.76,0,0,0-.1-.3.92.92,0,0,0-.24-.31.55.55,0,0,0-.25-.07Zm0,.11a.25.25,0,0,1,.22.25,1.37,1.37,0,0,1,0,.28c0,.16,0,.31,0,.47a2.68,2.68,0,0,1,0,.3.53.53,0,0,1-.13.27c-.07,0-.16.07-.22,0s-.08-.14-.12-.21a1.07,1.07,0,0,1,0-.4c0-.18,0-.37,0-.56a.9.9,0,0,1,.08-.28.2.2,0,0,1,.19-.12ZM116,132c.11,0,.21,0,.32,0s-.09-.12-.07-.21a1.12,1.12,0,0,1,0-.32c0-.1,0-.2,0-.3s0-.19,0-.29a.89.89,0,0,1,0-.26c.06.08,0,.18.06.28s0,.21,0,.31,0,.23,0,.34,0,.2,0,.3,0,.22.1.19.07-.11.12-.18.07-.31.11-.46a2.68,2.68,0,0,0,.07-.27,3.09,3.09,0,0,1,.14-.43c0,.42,0,.84,0,1.26,0,0-.13.13,0,.13l.32,0c.1,0,.08-.07,0-.11s0-.23,0-.35,0-.41,0-.62a5.43,5.43,0,0,1,0-.57s.12-.12,0-.12l-.38,0c0,.1-.06.2-.07.3s-.06.24-.1.36-.05.21-.07.32,0,.1,0,0,0-.19,0-.28a2,2,0,0,1,0-.24c0-.17-.06-.33-.06-.5s-.14,0-.2-.07h-.21a.58.58,0,0,1,0,.32c0,.1,0,.19,0,.28s-.09.44-.11.66c0,.07,0,.16-.06.23s0,.14-.11.18a0,0,0,0,0,0,.05Zm1.68.18a2.8,2.8,0,0,0,.28.06s.16,0,.16,0-.09-.11-.07-.19a1,1,0,0,0,0-.29c0-.09,0-.17,0-.26s0-.39.05-.59a.42.42,0,0,1,0-.22s0-.08.07-.11-.09-.05-.14-.06-.21,0-.31,0,.06.08.06.14a1.7,1.7,0,0,1,0,.22,1.76,1.76,0,0,0,0,.33l0,.31a.66.66,0,0,0,0,.24,1.42,1.42,0,0,1,0,.29.19.19,0,0,1-.07.16v0Zm.58.13a2,2,0,0,1,.24,0s.14,0,.09,0a.35.35,0,0,1-.06-.24,2.18,2.18,0,0,1,0-.44.77.77,0,0,1,0-.3,1.35,1.35,0,0,1,0-.29c.05.05.06.15.09.22.14.35.27.69.4,1,0,.07,0,.17.13.19s.08-.08.08-.14a.69.69,0,0,0,0-.25,1.45,1.45,0,0,0,0-.29,1.36,1.36,0,0,0,0-.29.86.86,0,0,0,0-.28,1.35,1.35,0,0,1,.05-.29c0-.07.18-.14.07-.18s-.22-.06-.29,0,.08.14.07.23,0,.38,0,.58a2.89,2.89,0,0,0,0,.29,1.69,1.69,0,0,1-.11-.27c0-.11-.08-.21-.13-.32a2.77,2.77,0,0,0-.1-.26c0-.12-.09-.23-.14-.35l-.33-.07c-.08,0,0,.12,0,.2a1.48,1.48,0,0,1,0,.42l0,.28a.78.78,0,0,1,0,.3,1.65,1.65,0,0,1,0,.31c0,.09-.09.14-.13.2v0Zm1.53-1.47c0,.06.08.1,0,.18a1.13,1.13,0,0,1,0,.25,1,1,0,0,1,0,.23c0,.13,0,.25,0,.38s0,.15,0,.23,0,.11,0,.17l0,.16s0,.06-.07.07.1.06.15.08a1.11,1.11,0,0,1,.25,0c.06,0,.08,0,0-.08s0-.18,0-.26a.76.76,0,0,1,0-.21,1.24,1.24,0,0,1,0-.27.76.76,0,0,1,0-.21,2.23,2.23,0,0,1,0-.27.93.93,0,0,1,0-.23.21.21,0,0,1,.08-.18.7.7,0,0,0-.19-.06,1.18,1.18,0,0,1-.2,0,.06.06,0,0,0-.06,0Zm.53,1.2a2.64,2.64,0,0,0,0,.28.91.91,0,0,0,.15.35.68.68,0,0,0,.21.17.36.36,0,0,0,.32,0,.25.25,0,0,0,.16-.1.72.72,0,0,0,.18-.25c0-.1-.11,0-.15.07a.34.34,0,0,1-.36,0,.35.35,0,0,1-.14-.22.7.7,0,0,1,0-.25c0-.11,0-.23,0-.34s0-.19.06-.28a.8.8,0,0,1,.1-.23.26.26,0,0,1,.19-.1c.08,0,.13.09.17.14a.38.38,0,0,1,.08.26c0,.06.06.14.1.06s.09-.17.09-.27-.09-.12-.15-.17l-.18-.11a.44.44,0,0,0-.37,0,.62.62,0,0,0-.18.14.9.9,0,0,0-.17.3,1.37,1.37,0,0,0-.08.35.61.61,0,0,0,0,.14Zm1.76-.66c-.11.23-.2.46-.3.68a1.75,1.75,0,0,1-.11.24,2.32,2.32,0,0,1-.16.36c0,.07-.07.18-.16.22s0,.1,0,.09.17.07.25.07,0-.09,0-.15a.39.39,0,0,1,0-.24c.07-.07.16,0,.23,0s.15,0,.19.05,0,.24,0,.36a.06.06,0,0,0,0,.12l.24.06s.13,0,.08,0a.94.94,0,0,1,0-.37,3,3,0,0,0,0-.31,1.15,1.15,0,0,1,0-.26,5.19,5.19,0,0,0,0-.56,2.44,2.44,0,0,0,0-.27,1.55,1.55,0,0,0-.23-.06Zm0,.37v.79c-.1,0-.19,0-.29-.06s.07-.15.07-.24.11-.24.15-.36,0-.09.06-.13Zm.79,1.66c0-.1-.08-.19,0-.29a1.67,1.67,0,0,1,.06-.38,2.38,2.38,0,0,0,0-.26c0-.11.06-.22.07-.33s.07,0,.07.08.1.36.15.54a2.17,2.17,0,0,0,.07.24c.05.14.07.3.13.45s0,.2.15.18a3.18,3.18,0,0,0,.08-.33,2.8,2.8,0,0,1,.06-.28c0-.17,0-.34.1-.5s.07-.26.1-.39.18-.12.06-.16-.18-.1-.26-.07.06.13,0,.21,0,.2,0,.3a2.68,2.68,0,0,0-.07.27l-.06.31c-.07-.07,0-.19-.08-.27a2.3,2.3,0,0,1-.1-.35,2.25,2.25,0,0,1-.09-.35.77.77,0,0,1-.07-.27c-.07-.08-.18-.09-.27-.13s-.15,0-.08.09a1.2,1.2,0,0,1,0,.53,2.36,2.36,0,0,0-.1.46c0,.1,0,.2-.07.3a.43.43,0,0,1-.14.23c-.1.08.1.09.15.11a.44.44,0,0,0,.16.06Zm1.71-1.16c0,.13-.13.25-.19.38s-.13.24-.19.36l-.37.63c-.07,0-.15.11,0,.13a1.86,1.86,0,0,0,.25.1c.06,0,0-.11,0-.17a.73.73,0,0,1,.08-.25s.14,0,.2,0,.21,0,.2.14a.85.85,0,0,1,0,.32s-.08.05,0,.08l.19.08c.07,0,.13.07.19,0a.66.66,0,0,1,0-.25c0-.13,0-.27,0-.4a2.64,2.64,0,0,0,0-.28l0-.89c-.09,0-.16-.07-.25-.07Zm0,.36v.8l-.2-.07s-.18-.05-.1-.13.11-.21.16-.31a2.64,2.64,0,0,1,.15-.29Z"/>
        <path class="cls-3" d="M102,102.23c0,.19,0,16.51,0,18.19s0,2.64.78,3.66a4.88,4.88,0,0,0,2.73,1.86,41.06,41.06,0,0,0,4.36.09c2.08-.1,2.33.36,3.12,1.39.89-1.44,1.88-1.47,3.72-1.39a26,26,0,0,0,3.77-.11,4.23,4.23,0,0,0,2.42-1.51c1-1.21,1-2.72,1-4.3v-17.2c0-.77-.08-.58.31-1l2.59-2.72H99.11l2.87,3Z"/>
        <path class="cls-4" d="M110.63,110.33V99.21H99.18l2.84,3,0,8.12Z"/>
        <path class="cls-5" d="M115.21,110.33V99.21h11.67l-3,3.19v7.93Zm-4.58,4.59H102l0,7a4.41,4.41,0,0,0,4.68,4.09c1.37,0,1.84,0,4,0Z"/>
        <path class="cls-4" d="M115.21,114.92h8.72l0,7c-.2,3-2.65,4.1-4.68,4.09l-4,0Z"/>
        <path class="cls-25" d="M102,102.23c0,.19,0,16.51,0,18.19s0,2.6.8,3.74a4.18,4.18,0,0,0,2.71,1.78,41.06,41.06,0,0,0,4.36.09c1.2,0,1.76-.06,2.56.74a2.73,2.73,0,0,1,.5.66.42.42,0,0,0,.16-.19,2.37,2.37,0,0,1,1.2-1,7.68,7.68,0,0,1,2.42-.16,26,26,0,0,0,3.77-.11,4.75,4.75,0,0,0,2.42-1.51c1-1.21,1-2.72,1-4.3v-17.2c0-.77-.09-.58.31-1l2.59-2.72H99.16l2.87,3Z"/>
        <path class="cls-26" d="M112.49,101.94v1.25h-1.25v1h1.25v4.45h1v-4.45h1.27v-1h-1.27v-1.25Z"/>
        <g id="b">
            <path class="cls-3" d="M105.29,103.58l0,2-.86-.86.13,14.33a3.46,3.46,0,1,0,6.87,0l-.14-7.38-.93-.95V110Z"/>
            <path class="cls-4" d="M105.29,103.65l0,2-.86-.87.07,8.16,3.7,3.53,0-7.82-.14-.16v-1.31Z"/>
            <path class="cls-5" d="M109.28,108.72l1.09,1.38v.47l-1.1-1.13Zm2,3.1.09,5.14a1.19,1.19,0,0,1-1.6.45l0-7.09Z"/>
            <path class="cls-4" d="M111.43,119.55c-1.4,1-1.79-.51-1.79-.51a2,2,0,0,0,1.78-1.33Z"/>
            <path class="cls-5" d="M104.54,115.1a24.11,24.11,0,0,0,3.58,3.36c.43,3.45,2.47,2.3,3.2,1.77A3.52,3.52,0,0,1,108,123a3.67,3.67,0,0,1-3.44-3.87Z"/>
            <path class="cls-27" d="M110.37,110.57v-.52l-5.08-6.46v1.78Z"/>
            <path class="cls-28" d="M104.45,104.75l.13,14.32a3.46,3.46,0,1,0,6.87.05l-.14-7.38Z"/>
            <path class="cls-29" d="M107.22,102.31c-.35-.65-.28-.94,0-1.19l-1.31-1.35.36,1.89C106.61,101.56,106.87,101.66,107.22,102.31Zm-1.36-2.54,1.35,2.53"/>
            <path class="cls-29" d="M112.56,111.07l-.34.13L106.87,102l.31-.18Z"/>
            <path class="cls-29" d="M106.69,102c0-.08,0-.23.21-.32s.33-.09.37,0,0,.23-.21.32-.33.1-.37,0Zm-1.78.73c-.43-.6-.4-.89-.19-1.17l-1.47-1.16.6,1.82C104.21,102.1,104.48,102.15,104.91,102.75Zm-1.66-2.33,1.65,2.33"/>
            <path class="cls-29" d="M111.31,110.74l-.32.17-6.47-8.38.29-.22Z"/>
            <path class="cls-29" d="M104.34,102.54c0-.08,0-.23.17-.34s.32-.14.37-.06,0,.23-.17.34S104.4,102.62,104.34,102.54Zm.19,2.07c-.49-.55-.49-.84-.31-1.14l-1.6-1,.8,1.74C103.76,104,104,104.07,104.53,104.61Zm-1.91-2.13,1.9,2.12"/>
            <path class="cls-29" d="M111.48,112l-7.35-7.59.26-.25,7.39,7.63Z"/>
            <path class="cls-29" d="M104,104.46c-.07-.07,0-.23.13-.36s.29-.17.36-.1,0,.23-.13.36S104,104.53,104,104.46Z"/>
        </g>
        <g id="b-2" data-name="b">
            <path class="cls-3" d="M120.78,103.58l0,2,.86-.86-.12,14.33a3.46,3.46,0,1,1-6.88,0l.14-7.38.93-.95V110Z"/>
            <path class="cls-4" d="M120.78,103.65l0,2,.86-.87-.07,8.16-3.7,3.53,0-7.82.14-.16v-1.31Z"/>
            <path class="cls-5" d="M116.79,108.72l-1.09,1.38v.47l1.1-1.13Zm-2,3.1-.09,5.14a1.19,1.19,0,0,0,1.6.45l0-7.09Z"/>
            <path class="cls-4" d="M114.64,119.55c1.41,1,1.8-.51,1.8-.51a2,2,0,0,1-1.79-1.33Z"/>
            <path class="cls-5" d="M121.53,115.1a24.11,24.11,0,0,1-3.58,3.36c-.43,3.45-2.47,2.3-3.2,1.77a3.52,3.52,0,0,0,3.3,2.79,3.67,3.67,0,0,0,3.44-3.87Z"/>
            <path class="cls-27" d="M115.7,110.57v-.52l5.09-6.46,0,1.78Z"/>
            <path class="cls-28" d="M121.62,104.75l-.13,14.32a3.46,3.46,0,1,1-6.87.05l.14-7.38Z"/>
            <path class="cls-29" d="M118.85,102.31c.35-.65.28-.94,0-1.19l1.31-1.35-.36,1.89C119.46,101.56,119.2,101.66,118.85,102.31Zm1.36-2.54-1.35,2.53"/>
            <path class="cls-29" d="M113.51,111.07l.34.13L119.2,102l-.31-.18Z"/>
            <path class="cls-29" d="M119.39,102c0-.08,0-.23-.21-.32s-.33-.09-.38,0,0,.23.21.32.33.1.38,0Zm1.77.73c.43-.6.4-.89.19-1.17l1.47-1.16-.6,1.82C121.86,102.1,121.59,102.15,121.16,102.75Zm1.66-2.33-1.65,2.33"/>
            <path class="cls-29" d="M114.76,110.74l.33.17,6.46-8.38-.29-.22Z"/>
            <path class="cls-29" d="M121.73,102.54c.06-.08,0-.23-.17-.34s-.31-.14-.37-.06,0,.23.17.34S121.67,102.62,121.73,102.54Zm-.19,2.07c.49-.55.49-.84.31-1.14l1.6-1-.8,1.74C122.31,104,122,104.07,121.54,104.61Zm1.91-2.13-1.9,2.12"/>
            <path class="cls-29" d="M114.59,112l7.35-7.59-.26-.25-7.39,7.63Z"/>
            <path class="cls-29" d="M122.12,104.46c.07-.07,0-.23-.13-.36s-.29-.17-.36-.1,0,.23.13.36S122.06,104.53,122.12,104.46Z"/>
        </g>
        <path class="cls-30" d="M112,117.26l-.29,4.54c-.28,0-.84-.08-.88-.44,0-.21.57-3.92.59-4.29.2.06.4.15.58.19Z"/>
        <path class="cls-31" d="M111.53,117.07a11.51,11.51,0,0,0-.1,1.39c.08.44.62.37.92.39l.05-2.33A7.43,7.43,0,0,1,111.53,117.07Z"/>
        <path class="cls-31" d="M111.58,122.87c.74-.94,2.14-.24,2.14-.24,1.54.34,1.16-1.41,1.16-1.41-.32-3.5-.69-5.9-.69-5.9l-2.24,1.5Z"/>
        <path class="cls-32" d="M111.57,122.93c-.16,1,.88.89.88.89,1.23,0,.88-1.33.88-1.33C112,122.11,111.57,122.93,111.57,122.93Z"/>
        <path class="cls-30" d="M112.45,116.45c-.07,3.63-.11,4-.11,4,0,1,1.14.46,1.14.46a.91.91,0,0,1,.54,0l0-1.23c1.8-.13,1.38-1.19,1.38-1.19a17.75,17.75,0,0,0-.78-3.27Z"/>
        <path class="cls-33" d="M114,119.63a2.31,2.31,0,0,0-1.6.43l0,.1"/>
        <path class="cls-34" d="M113.87,122.61l-.39-6.82.78-.53.68,6.38v.07A.82.82,0,0,1,113.87,122.61Z"/>
        <path class="cls-35" d="M108.14,111.72l3,5.59,6.57-4.36-3.42-5Z"/>
        <path class="cls-36" d="M108.26,111.68l6.17-3.6,3.38,4.86-6.52,4.19Z"/>
        <path class="cls-37" d="M111.38,116.81l6.14-4-.47-.76L114,107.91l-2.23,1.8-2.84,1.57-.5-.31.1.67Z"/>
        <path class="cls-38" d="M111.71,109.73c-.91-.43-2,.93-2.27,1.2s-.91.11-.91.11l2.77,5c.82.33,1.35-.72,1.73-1.05a2.32,2.32,0,0,1,1.51-.54Z"/>
        <path class="cls-38" d="M111.79,109.78c0-1.06,1.33-1.4,1.68-1.59s.46-.86.46-.86l3.11,4.74c-.05.94-1.16,1-1.59,1.27a1.73,1.73,0,0,0-.9,1.13Z"/>
        <path class="cls-39" d="M111.19,116c-1.77-3.25-2.75-5-2.75-5,0,.6,0,.56,0,.56a58.13,58.13,0,0,1,2.91,5.12C111.3,116.53,111.24,116.28,111.19,116Z"/>
        <path d="M109.33,111.72l0,.08a0,0,0,0,0,0,0s0,0,0,0,0,0,0,0l0,.09s0,0,0,0,0,0,0,0l0,.07s0,0,0,0a.1.1,0,0,0,0-.07s0,0,0,0l0,.07-.17.11s0,0,0,0a0,0,0,0,0,0,0l-.08-.15a0,0,0,0,0,0,0h0l.16-.11,0,.06s0,0,0,0a.09.09,0,0,0-.07,0Zm.18-.12.11.17a0,0,0,0,0,0,0h0s0,0,0,0l-.06,0s0,0,0,0l0,0-.07-.11s0,0,0,0h0Zm.23-.17,0,.07s0,0,0,0a.06.06,0,0,0-.09,0s0,0,0,0h.08a.11.11,0,0,1,.07,0,.08.08,0,0,1,0,.08.1.1,0,0,1-.08,0s0,0,0,0a0,0,0,0,1,0,0l0-.07s0,0,0,0a.09.09,0,0,0,.1,0s0,0,0-.06,0,0-.08,0-.06,0-.07,0a.08.08,0,0,1,0-.1l.06,0s0,0,0,0Zm.23.13a.1.1,0,0,1,0,0s0,0,0,0,0,0,0-.07,0,0,0,0l0,0s0,0,0,0,0,0,0,0,0,0,0,0a.07.07,0,0,1,0-.06.09.09,0,0,1,.06,0,.05.05,0,0,1,0,0,.16.16,0,0,0,0,.07s0,0,0,0,0,0,0,0,0,0,0,0Zm0,0,0,0a.08.08,0,0,0,0,0s0,0,0,0h0Zm.07-.19v0a.07.07,0,0,1,0-.06.05.05,0,0,1,0,0,.56.56,0,0,1,.05.08h0l-.06,0s0,0,0,0l0-.06,0,0s0,0,0,0l0,.09s0,0,0,0h0l-.06,0s0,0,0,0a.21.21,0,0,0,0-.06.13.13,0,0,0,0,0s0,0,0,0l.06,0Zm.14-.16,0,0,0,0v0l0,0,.06.09s0,0,0,0,0,0,0,0a0,0,0,0,1,0,0,0,0,0,0,1,0,0l0-.09,0,0s0,0,0,0a.17.17,0,0,0,0-.07Zm.14,0a.06.06,0,0,1,.08,0,.09.09,0,0,1,0,.08s0,0,0,.07a.08.08,0,0,1-.07,0,.11.11,0,0,1,0-.13s0,0,0,0Zm0,0s0,0,0,0a.16.16,0,0,0,0,.07s0,0,0,0a.08.08,0,0,0,0-.05.1.1,0,0,0,0,0A0,0,0,0,0,110.31,111.18Zm-.74.93.05.08a.05.05,0,0,0,0,0s0,0,0,0a0,0,0,0,1,0,0l.06.1s0,0,0,0,0,0,0,0l0,.08s0,0,0,0a.08.08,0,0,0,0-.07s0,0,0,0l0,.07-.17.11s0,0,0,0,0,0,0,0l-.09-.14s0,0,0,0,0,0,0,0l.16-.1,0,.06s0,0,0,0a.09.09,0,0,0-.07,0Zm.31.08-.12-.09h0l.07,0h0s0,0,0,0l.06,0s0-.05,0-.07,0,0,0,0,0,0,0,0l0,0s0,0,0,0,0,0,0,.06l0,.1Zm.15-.14s0,0,0,.06,0,0,0,0,0,0,0-.06l0,0,0,0s0,0,0,0,0,0,0,0a0,0,0,0,1,0,0s0,0,0-.06a.1.1,0,0,1,0,0s0,0,0,0l0,.07s0,0,0,0,0,0,0,0,0,0,0,0,0,0,0,0Zm0,0,0,0a.07.07,0,0,0,0,0s0,0,0,0h0Zm.07-.19v0s0-.05,0-.05a0,0,0,0,1,0,0l0,.08h0l-.06,0s0,0,0,0l0,0,0-.05s0,0,0,0l0,.08h0l-.07,0s0,0,0,0l0-.06,0,0s0,0,0,0l0,0Zm.2-.12,0,0h0l0,0a0,0,0,0,1,0,.06.07.07,0,0,1,0,0s0,0,0,0a.1.1,0,0,1,.07,0s0,0,0,0,0,0,0,.06a.2.2,0,0,1-.08,0s0,0,0,0,0,0,0,0a0,0,0,0,1,0,0h0s0,0,0,0a0,0,0,0,1-.06,0,.06.06,0,0,1,0-.08l.05,0Zm0,0s0,0,0,0,0,0,0,0,0,0,0,0,0,0,0,0,0,0,0,0Zm.09.16s0,0,0,0l.05,0s0,0,0-.05,0,0,0,0Zm.15-.24-.08,0s0,0,.06,0,0,0,0,0h0s0,0,0,0a.07.07,0,0,1,0,.06.08.08,0,0,1-.07,0,.14.14,0,0,1-.06-.07.08.08,0,0,1,0-.09.08.08,0,0,1,.08,0l0,0Zm0,0s0,0,0,0,0,0,0,0l0,0,0,0Zm0-.18.11.18h0l-.07,0s0,0,0,0l0,0-.07-.12a0,0,0,0,0,0,0h0l.06,0Zm.06,0s0,0,0,0,0,0,0,0a0,0,0,0,1,0,0Zm.07,0,.07.12h0l-.07,0s0,0,0,0,0,0,0,0l0-.07h0l.06,0Zm.09-.06h.08a.12.12,0,0,1,0,.09.08.08,0,0,1,0,.06.06.06,0,0,1-.07,0,.11.11,0,0,1,0-.12Zm0,0s0,0,0,.06l0,.07s0,0,0,0,0,0,0,0a.1.1,0,0,0,0-.05Zm-.88,1,.05.07s0,0,0,0a.05.05,0,0,0-.08,0s0,0,0,0h.08a.09.09,0,0,1,.07,0,.06.06,0,0,1,0,.08.1.1,0,0,1-.08,0s0,0,0,0h0l0-.07s0,0,0,0a.07.07,0,0,0,.09,0s0-.05,0-.06a.21.21,0,0,0-.08,0,.11.11,0,0,1-.08,0,.07.07,0,0,1,0-.1l.06,0s0,0,0,0Zm.24,0-.07,0a.1.1,0,0,0,0,0,0,0,0,0,0,0,0h0s0,0,0,0a.09.09,0,0,1,0,.06.06.06,0,0,1-.06,0,.09.09,0,0,1,0-.16.07.07,0,0,1,.07,0,0,0,0,0,1,0,0Zm0,0s0,0,0,0,0,0,0,0a0,0,0,0,0,0,0l0,0Zm.1-.14,0,0h0l0,0a0,0,0,0,1,0,.06.07.07,0,0,1,0,0s0,.05,0,0a.1.1,0,0,1,.07,0,0,0,0,0,1,0,0,.06.06,0,0,1,0,.07l-.08,0s0,0,0,0,0,0,0,0a0,0,0,0,1,0,0h0s0,0,0,0a0,0,0,0,1-.06,0,.05.05,0,0,1,0-.08l0,0Zm0,0s0,0,0,0,0,0,0,0,0,0,0,0a.08.08,0,0,0,0,0s0,0,0,0Zm.09.16a0,0,0,0,0,0,0l.05,0s0,0,0,0,0,0,0,0Zm.13-.31.07.12h0l0,0v0a.1.1,0,0,1,0,0,0,0,0,0,1,0,0l-.06-.08h0l0,0,.07.11s0,0,0,0,0,0,0,0l-.05-.07h0Zm.1-.06v0s0-.05,0-.05a0,0,0,0,1,0,0,.35.35,0,0,0,0,.08h0s0,0,0,0l-.07,0s0,0,0,0a.21.21,0,0,0,0-.06l0,0s0,0,0,0l0,.08s0,0,0,0,0,0,0,0l-.06,0s0,0,0,0l0-.06,0,0s0,0,0,0l.06,0Zm.27-.27,0,.07s0,0,0,0a.08.08,0,0,0-.08,0s0,0,0,0a.22.22,0,0,0,.08,0,.08.08,0,0,1,.07,0,.08.08,0,0,1,0,.09.1.1,0,0,1-.08,0,0,0,0,0,0,0,0h0l0-.07s0,0,0,0a.07.07,0,0,0,.09,0s0,0,0-.06a.12.12,0,0,0-.08,0,.08.08,0,0,1-.08,0,.08.08,0,0,1,0-.1l.06,0s0,0,0,0Zm.23.11a.1.1,0,0,1,0,0s0,0,0,0,0,0,0-.06a.05.05,0,0,1,0,0l0,0s0,0,0,0,0,0,0,0a0,0,0,0,1,0,0,0,0,0,0,1,0,0,.07.07,0,0,1,0,0s0,0,0,0l0,.07s0,0,0,0,0,0,0,0a.05.05,0,0,1,0,0s0,0,0,0Zm0,0,0,0s0,0,0,.06,0,0,0,0Zm.07-.19v0s0,0,0,0a0,0,0,0,1,0,0l0,.08h0l-.07,0s0,0,0,0l0-.05,0,0s0,0,0,0l0,.08h0l-.07,0s0,0,0,0l0-.06,0,0s0,0,0,0l.05,0Zm.19-.2h0l.1-.07s0,0,0,0,0,0,0,0l.06.11a.1.1,0,0,1,0,.07.18.18,0,0,1-.07,0,.07.07,0,0,1-.06,0s0,0,0,0,0,0,0,0,0,0,0,0l-.06-.1,0-.06Zm.29-.1.07.12h0l0,0v0a.05.05,0,0,1,0,0,0,0,0,0,1-.06,0,.56.56,0,0,1-.05-.08h0s0,0,0,0l0,0,.06.11a0,0,0,0,0,0,0v0l-.05-.08h0Zm.18,0s0,0,0,0a0,0,0,0,1,0,0s0,0,0-.07,0,0,0,0,0,0,0,0,0,0,0,0l0,0s0,0,0,0a.07.07,0,0,1,0-.06.06.06,0,0,1,.06,0,0,0,0,0,1,0,0l0,.07h0s0,0,0,0,0,0,0,0Zm0,0,0-.05s0,0,0,.05a0,0,0,0,0,0,0Zm.07-.2v0a.07.07,0,0,1,0,0,0,0,0,0,1,0,0,.56.56,0,0,0,0,.08s0,0,0,0,0,0,0,0l-.06,0s0,0,0,0l0-.06,0,0s0,0,0,0l0,.08s0,0,0,0,0,0,0,0l-.06,0s0,0,0,0l0-.06s0,0,0,0,0,0,0,0l.06,0Zm-1.21,2.13,0,.07s0,0,0,0a.1.1,0,0,0-.09,0,.09.09,0,0,0,0,.07.19.19,0,0,0,0,.1.08.08,0,0,0,.07,0,.08.08,0,0,0,.07-.07s0,0,0,0,0,0,0,0a.08.08,0,0,1-.05.08.09.09,0,0,1-.1,0,.14.14,0,0,1-.07-.17.12.12,0,0,1,.1-.07s0,0,0,0Zm.24,0-.08,0a.11.11,0,0,1,0,0s0,0,0,0h0l0,0s0,0,0,0,0,0,0-.06l0-.18s0,0,0,0l.18.13a0,0,0,0,0,0,0s0,0,0,0l-.07,0s0,0,0,0l0,0Zm0,0-.09-.06,0,.1.07,0Zm.14-.11a.21.21,0,0,0,0,.06s0,0,0,0h0l-.08.06s0,0,0,0a0,0,0,0,0,0,0l-.09-.14s0,0,0,0h0l.09,0a.09.09,0,0,1,.07,0,.06.06,0,0,1,0,.09l-.06,0Zm0,0a.1.1,0,0,0,.05,0,.08.08,0,0,0,0-.07.06.06,0,0,0-.06,0l0,.09Zm.27,0h0l-.09.06s0,0,0,0a0,0,0,0,0,0,0l-.08-.15s0,0,0,0,0,0,0,0l.08,0s0,0,0,0,0,0,0,0l.08.14s0,0,0,0h0Zm0-.32,0,0s0,0,0,0,0,0,0,0h0l.1.17h.05l-.09,0h0s0,0,0,0l-.09-.16-.05,0s0,0,0,0h0l0,0,.16-.1Zm.17-.09s0,0,0,0l.06,0s0,0,0,0,0,0,0,0l.06.1a.09.09,0,0,1,0,.07.1.1,0,0,1-.08.07.07.07,0,0,1-.08,0l-.06-.1s0,0,0,0h0s0,0,0,0l.08,0h0s0,0,0,0l.06.1a.07.07,0,0,0,0,0,.08.08,0,0,0,.07,0,.06.06,0,0,0,0-.06.41.41,0,0,0,0-.09l0,0s0,0,0,0Zm.33,0h0s0,0,0,.06l-.16.1s0,0,0,0,0,0,0,0l-.08-.14h0a0,0,0,0,1,0,0l.09,0s0,0,0,0,0,0,0,0l.08.13s0,0,.05,0,0,0,0,0a.13.13,0,0,0,0-.06Zm0-.22a.12.12,0,0,1,.15,0,.14.14,0,0,1,0,.13.1.1,0,0,1-.12.08.11.11,0,0,1-.09-.06.11.11,0,0,1,0-.11A.09.09,0,0,1,111.73,112.7Zm0,0s0,0,0,.07a.18.18,0,0,0,0,.1.08.08,0,0,0,.08,0s.06,0,.06-.07a.18.18,0,0,0,0-.09.09.09,0,0,0-.08,0Zm.39-.26s0,0,0,0,0,0,0,.07l0,.18s0,0,0,0l-.19-.13s0,0,0,0,0,0,0,0l.07,0s0,0,0,0l0,0,.12.08,0-.16s0,0,0,0,0,0,0,0l0,0Zm.22.14s0,0,0,0l-.08.05h0a0,0,0,0,0,0,0l-.09-.15s0,0,0,0h0l.08,0s0,0,0,0,0,0,0,0l.09.14s0,0,0,0Zm.11-.07h0l-.09,0a0,0,0,0,1,0,0s0,0,0,0l-.08-.14a0,0,0,0,0,0,0h0l.09-.06s0,0,0,0,0,0,0,0l.08.14s0,0,0,0Zm.1-.06h0l-.08,0h0a0,0,0,0,0,0,0l-.09-.15h0l.08,0s0,0,0,0,0,0,0,0l.08.14a0,0,0,0,0,0,0Zm-1.76,1.85a.06.06,0,0,1,0-.07,0,0,0,0,1,.08,0s0,0,0,0a.06.06,0,0,1,.06,0,.07.07,0,0,1,0,.1.1.1,0,0,1,0,0s0,0,0,0H111a0,0,0,0,0,0-.07,0,0,0,0,0,0,0h0s0,0,0,0a.06.06,0,0,0,0-.06,0,0,0,0,0-.06,0,0,0,0,0,0,0,0Zm.16-.13,0-.06h0l.11.18a0,0,0,0,0,0,0s0,0,0,0l-.08,0s0,0,0,0,0,0,0,0l-.08-.12a0,0,0,0,0,0,0Zm.33-.23.07,0s0,0,0,0,0,0,0,.07v.09l0,.06s0,0,0,0,0,0,0,0l-.08,0h0a0,0,0,0,0,0,0l0-.05-.13-.06s0,0,0,0h0l.08,0s0,0,0,0,0,0,0,0l.08,0V114s0,0,0,0Zm.36,0a.07.07,0,0,1,0,0,.07.07,0,0,1-.08,0,.12.12,0,0,1,0-.1s0,0,.06,0l0,0s0,0,0,0h0l0,0s0,0,0,0l.11.17s0,0,0,0h0l0,0h0Zm0,0-.05-.07a0,0,0,0,0,0,0s0,0,0,.06,0,.06.06.06,0,0,0,0Zm0-.1a.07.07,0,0,0,.06,0s0,0,0,0v0s0,0,0,0,0,.05,0,.06a.06.06,0,0,1-.07,0,.13.13,0,0,1,0-.06.1.1,0,0,1,0-.09.07.07,0,0,1,.06,0s0,0,0,0Zm0,0,.07,0s0,0,0,0,0,0,0,0Zm.26-.1a.08.08,0,0,1,0,.08,0,0,0,0,1-.06,0,.09.09,0,0,1-.06-.06.07.07,0,0,1,0-.1.06.06,0,0,1,.06,0s0,0,0,0,0,0,0,0a.05.05,0,0,0,0,0,.11.11,0,0,0,.06.07,0,0,0,0,0,.05,0s0,0,0,0Zm0-.2s0,0,0,0A0,0,0,0,1,111.9,113.54Zm0,.07.07.11a0,0,0,0,0,0,0h0l-.07,0s0,0,0,0,0,0,0,0a.21.21,0,0,1,0-.06s0,0,0,0,0,0,0,0l0,0Zm.19,0s0,0,0,0a0,0,0,0,1-.06,0,.07.07,0,0,1,0-.06l0,0s0,0,0,0,0,0,0,0,0,0,0,0,0,0,0,0a.05.05,0,0,1,0,0,.07.07,0,0,1,.06,0l0,0a.25.25,0,0,1,0,.07s0,0,0,0h0s0,0,0,0a0,0,0,0,1,0,0Zm0,0,0-.06s0,0,0,.06,0,0,0,0,0,0,0,0Zm.05-.28h0l.09-.06h0s0,0,0,0l.08.12a.13.13,0,0,1,0,.06.07.07,0,0,1,0,0,0,0,0,0,1,0,0s0,0,0,0,0,0,0,0l-.08-.13a0,0,0,0,0,0,0Zm.19,0s0,0,.06,0a0,0,0,0,0,0,0s0,0,0,0,0,0,0,0a.07.07,0,0,1,0,.07h-.07a.1.1,0,0,1-.05-.06.08.08,0,0,1,0-.08.06.06,0,0,1,.07,0,0,0,0,0,1,0,0Zm0,0,.06,0,0,0a0,0,0,0,0,0,.06Zm.17-.17,0,0h0a0,0,0,0,0-.06,0h0s0,0,0,0,0,0,.06,0a0,0,0,0,1,0,0,.07.07,0,0,1,0,.05s0,0,0,0h0l0,0s0,0,0,0a.06.06,0,0,0,.07,0s0,0,0,0h-.08s0,0,0-.06,0,0,0,0v0Zm.16-.09.06.11s0,0,0,0h0l0,0h0l0,0a.07.07,0,0,1,0,.06,0,0,0,0,1,0,0l0,0s0,0,0,0,0,0,0,0,0,0,0,0l0,0,.06.09s0,0,0,0,0,0,0,0l0-.08s0,0,0,0h0Zm.11-.08,0,0h0a0,0,0,0,0,0,0h0s0,0,0,0,0,0,.06,0a0,0,0,0,1,0,0s0,0,0,0l0,0h0l0,0s0,0,0,0a0,0,0,0,0,.06,0s0,0,0,0-.06,0-.09,0a.06.06,0,0,1,0-.07l0,0Zm.26,0s0,0,0,.05a0,0,0,0,1-.06,0,0,0,0,0,1,0,0l0,0s0,0,0,0,0,0,0,0v0s0,0,0,0a.05.05,0,0,1,0-.05s0,0,0,0,0,0,0,0l0,.06s0,0,0,0h0s0,0,0,0a0,0,0,0,1,0,0Zm0,0,0,0a.09.09,0,0,0,0,0s0,0,0,0,0,0,0,0Zm-2,1.56.12.18s0,0,0,0,0,0,0,0l-.06,0s0,0,0,0a.05.05,0,0,0,0,0l-.08-.13a0,0,0,0,0,0,0s0,0,0,0l0,0Zm.15,0a.06.06,0,0,1,.07,0,.1.1,0,0,1,0,.08.07.07,0,0,1-.1.08.11.11,0,0,1,0-.09.06.06,0,0,1,0-.06Zm0,0a0,0,0,0,0,0,.05.11.11,0,0,0,.06.07,0,0,0,0,0,.05,0,.07.07,0,0,0,0-.06.1.1,0,0,0-.06,0Zm.17-.12,0,0h0a0,0,0,0,0-.05,0s0,0,0,0,0,0,.06,0a0,0,0,0,1,0,0s0,0,0,.05l0,0h0l0,0s0,0,0,0a0,0,0,0,0,.06,0s0,0,0,0-.06,0-.08,0a0,0,0,0,1,0-.06.1.1,0,0,1,0,0Zm.1-.16s0,0,0,0S111.44,114.36,111.46,114.35Zm.06.07.09.14a.08.08,0,0,1,0,.08s0,0,0,0,0,0,0,0,0,0,0,0,0,0,0,0a.35.35,0,0,0,0-.08.25.25,0,0,0,0-.07h0a.05.05,0,0,1,0,0Zm.16-.1.07.11h0l0,0s0,0,0,0v0s0,0,0,.06a0,0,0,0,1,0,0,.21.21,0,0,1,0-.06l0,0s0,0,0,0h0l0,0,.06.1s0,0,0,0,0,0,0,0l0-.08s0,0,0,0h0Zm.2.05a.07.07,0,0,1,0,0,.07.07,0,0,1-.08,0,.12.12,0,0,1,0-.1s0,0,.06,0l0,0s0,0,0,0h0l0,0h0l.1.17s0,0,0,0,0,0,0,0l0,0s0,0,0,0Zm0,0,0-.07a0,0,0,0,0,0,0s0,0,0,.06,0,.06.06.06l0,0Zm0-.25s0,0,0,0S111.83,114.12,111.85,114.1Zm.06.07a.75.75,0,0,0,.07.12h0s0,0,0,0l-.06,0s0,0,0,0a.05.05,0,0,0,0,0,.21.21,0,0,0,0-.06s0,0,0,0h0l0,0Zm.1-.07s0,0,.07,0a.08.08,0,0,1,0,.08.09.09,0,0,1,0,.07.08.08,0,0,1-.07,0,.1.1,0,0,1-.06-.09.08.08,0,0,1,0-.06Zm0,0a0,0,0,0,0,0,0,.11.11,0,0,0,.06.07s0,0,0,0a.07.07,0,0,0,0-.06s0,0-.06,0Zm.17-.12,0,.05s0,0,0,0-.06,0-.06,0,0,0,.05,0h.07a0,0,0,0,1,0,.06.06.06,0,0,1-.06,0h0l0,0s0,0,0,0,0,0,0,0,0,0,0,0a.22.22,0,0,1-.08,0,.06.06,0,0,1,0-.07h0s0,0,0,0,0,0,0,0Zm.23-.15.11.19a0,0,0,0,0,0,0s0,0,0,0l-.06,0s0,0,0,0,0,0,0,0l0,0s0,0,0,.06a.05.05,0,0,1-.07,0,.07.07,0,0,1,0-.09.06.06,0,0,1,.06,0s0,0,0,0Zm0,.13,0-.07a0,0,0,0,0,0,0,0,0,0,0,0,0,.07s0,.05.05.05,0,0,0,0Zm.11-.21a.41.41,0,0,1,.07.11h0l0,0h0l0,0a.05.05,0,0,1,0,0s0,0,0,0a.21.21,0,0,0,0-.06s0,0,0,0,0,0,0,0h0l0,0,.06.1a0,0,0,0,0,0,0s0,0,0,0l0-.07s0,0,0,0h0Zm.09,0a.07.07,0,0,0,.06,0s.05,0,.05,0v0s0,0,0,0,0,.06,0,.07a.06.06,0,0,1-.07,0,.12.12,0,0,1-.05-.07.08.08,0,0,1,0-.08.07.07,0,0,1,.06,0s0,0,0,0l-.09.06Zm0,0,.07,0a0,0,0,0,0,0,0s0,0,0,0Zm.17-.27.12.19s0,0,0,0,0,0,0,0l-.06,0s0,0,0,0l0,0-.08-.13a0,0,0,0,0,0,0h0l0,0Zm.14.09s0,0,.06,0a.05.05,0,0,0,0,0,0,0,0,0,1,0,0s0,0,0,0a.1.1,0,0,1,0,.07H113a.09.09,0,0,1-.06-.06.07.07,0,0,1,0-.08s0,0,.06,0a0,0,0,0,1,0,0Zm0,0,.06,0s0,0,0,0a0,0,0,0,0,0,.06ZM111.27,115l.06.1s0,0,0-.06,0,0,0,0a.56.56,0,0,1,0,.08h0s0,0,0,0l-.06,0s0,0,0,0,0,0,0,0l0-.07s0,0,0,0a0,0,0,0,0,0,0,.56.56,0,0,0,0,.08s0,0,0,0,0,0,0,0l-.06,0s0,0,0,0l0,0-.07-.12s0,0,0,0,0,0,0,0l0,0Zm.31.07s0,0,0,0a0,0,0,0,1-.06,0,0,0,0,0,1,0,0l0,0s0,0,0,0-.05,0,0,0a0,0,0,0,1,0,0,0,0,0,0,1,0,0,.06.06,0,0,1,0-.06s0,0,0,0,0,0,0,0l0,.06s0,0,0,0h0s0,0,0,0,0,0,0,0Zm0,0,0,0a.09.09,0,0,0,0,0s0,0,0,0S111.57,115.08,111.57,115.07Zm0-.15a.06.06,0,0,1,0-.06.08.08,0,0,1,.08,0,.13.13,0,0,1,0,.09s0,0-.06.06h0l-.1-.16s0,0,0,0h0l0,0h0Zm0,0,0,.08s0,0,0,0a.09.09,0,0,0,0-.07s0,0-.06,0S111.62,114.91,111.62,114.93Zm.09-.2s0,0,0,0S111.69,114.74,111.71,114.73Zm.05.06.08.12a0,0,0,0,0,0,0h0l-.07,0s0,0,0,0,0,0,0,0a.43.43,0,0,0,0-.07s0,0,0,0h0l0,0Zm.19,0s0,0,0,0,0,0-.06,0,0,0,0-.05a.1.1,0,0,1,0,0s0,0,0,0a0,0,0,0,0,0,0s0,0,0,0,0,0,0,0a.09.09,0,0,1,0-.06.07.07,0,0,1,.06,0,.08.08,0,0,1,0,0l0,.06s0,0,0,0,0,0,0,0a.1.1,0,0,0,0,0s0,0,0,0Zm0,0,0,0s0,0,0,.06a0,0,0,0,0,0,0A.08.08,0,0,0,111.94,114.83Zm0-.14s0,0,0-.06,0,0,0,0a.56.56,0,0,0,0,.08s0,0,0,0h0l-.06,0s0,0,0,0,0,0,0,0a.43.43,0,0,0,0-.07s0,0,0,0h0s0,0,0,0l0,.07s0,0,0,0,0,0,0,0l-.06,0s0,0,0,0,0,0,0,0l0-.08h0l0,0s0,0,0,0Zm.35-.13a.12.12,0,0,1,0,.08.08.08,0,0,1-.07,0,.09.09,0,0,1,0-.16.06.06,0,0,1,.06,0s0,0,0,0,0,0-.05,0a0,0,0,0,0,0,0,.06.06,0,0,0,0,.06,0,0,0,0,0,.06,0s0,0,0,0Zm0-.13,0,0s0,0,0,0,0,0,0,0,0,0,0,0,0,0,0,0l0,.07h0l-.07,0h0s0,0,0,0,0,0,0-.08,0,0,0,0h0l0,0Zm.11,0s0,0,.06,0a0,0,0,0,0,0,0s0,0,0,0,0,0,0,0a.06.06,0,0,1,0,.07.06.06,0,0,1-.07,0,.18.18,0,0,1,0-.07.08.08,0,0,1,0-.08.08.08,0,0,1,.07,0s0,0,0,0Zm0,0,.06,0s0,0,0,0,0,0,0,0Zm.07-.21s0,0,0,0S112.51,114.22,112.52,114.21Zm.06.06.07.12s0,0,0,0h0l-.06,0s0,0,0,0,0,0,0,0l-.05-.07h0l0,0Zm.21,0s0,.05,0,.05a.07.07,0,0,1-.08,0,.1.1,0,0,1,0-.09s0,0,.06,0l0,0s0,0,0,0h0l0,0s0,0,0,0a1,1,0,0,0,.11.17s0,0,0,0,0,0,0,0l0,0h0v0Zm0,0-.05-.07a0,0,0,0,0,0,0,.06.06,0,0,0,0,.07s0,0,.06,0,0,0,0,0Zm0-.19a.06.06,0,0,1,.07,0,.11.11,0,0,1,0,.09.08.08,0,0,1,0,.07.09.09,0,0,1-.07,0,.1.1,0,0,1,0-.11S112.82,114.13,112.84,114.12Zm0,0s0,0,0,.05a.11.11,0,0,0,.06.07s0,0,0,0a.06.06,0,0,0,0-.06s0-.05-.06-.05Zm-.46-4.17,0,.06s0,0,0,0-.07,0-.08,0,0,0,0,0h.1a.06.06,0,0,1,0,.07.06.06,0,0,1-.06.05s0,0,0,0h0l0,0s0,0,0,0a.06.06,0,0,0,.08,0s0-.05,0-.05h-.08l0,0a.06.06,0,0,1,0-.08s0,0,.06,0S112.37,110,112.38,110Zm.05,0s0,0,0,0S112.42,109.92,112.43,109.91Zm0,.06.06.1a0,0,0,0,0,0,0s0,0,0,0l0,0s0,0,0,0,0,0,0,0l0,0s0,0,0,0h0l0,0Zm.1,0,0,0h0s0,0,0,0l.06,0v-.09s0,0,0,0,0,0,0,0l0,0h0v0l0,.13h0l-.1-.08Zm.19-.13a.08.08,0,0,1,.07,0,.1.1,0,0,1,0,.08.08.08,0,0,1-.08.06.11.11,0,0,1-.06-.07s0,0,0,0,0,0,0,0Zm0,0s0,0,0,.06a.12.12,0,0,0,0,0s0,0,0,0a.08.08,0,0,0,0,0s0,0-.06,0Zm.15-.1,0,0h0s-.05,0-.05,0,0,0,0,0h0s0,0,0,0,0,0-.06,0h0l0,0h0s0,0,0,0,0,0,0,0h-.06a0,0,0,0,1,0-.05h0l0,0Zm.08,0s0,0,.07,0,0,0,0,.08a.06.06,0,0,1-.07,0s-.06,0-.06-.06a.06.06,0,0,1,0-.06Zm0,0a0,0,0,0,0,0,0,.06.06,0,0,0,.06.05s0,0,0,0a.14.14,0,0,0,0-.06s0,0-.06,0Zm.08-.12,0,0,0,0h0l0,0,0,.08a0,0,0,0,0,0,0s0,0,0,0,0,0,0,0,0,0,0,0l0-.08h0s0,0,0,0,0,0,0,0Zm.09,0,0,0s0,0,0,0,0,0,0,0,0,0,0,0,0,0,0,0l0,.06h0l-.06,0s0,0,0,0v0a.43.43,0,0,0,0-.07s0,0,0,0h0l0,0Zm.11-.07h.07a.09.09,0,0,1,0,.08s0,.07-.08.06a.09.09,0,0,1-.06-.07s0,0,0,0,0,0,0,0Zm0,0s0,0,0,.06a.12.12,0,0,0,0,0s0,0,0,0a.08.08,0,0,0,0,0s0,0-.06,0Zm.15-.1,0,0s0,0,0,0,0,0,0,0,0,0,0,0h.06a0,0,0,0,1,0,0s0,0-.06,0h0l0,0s0,0,0,0,0,0,0,0,0,0,0,0,0,0,0,0a0,0,0,0,1,0,0h0l0,0Zm-.93,1.07,0,0h0v0a.05.05,0,0,1,0-.05h0s.05.07,0,.1a0,0,0,0,1,0,0h0l0,0h0s0,0,0,0l0,0s0,0,0,0,0,0,0,0l-.08-.12Zm0,0a.21.21,0,0,0,0,.06s0,0,.05,0,0,0,0,0a.07.07,0,0,0,0,0s0,0,0,0Zm.12-.07a.1.1,0,0,0,0,0s0,0,0,0,0,0,0,0,0,0,0,0a.08.08,0,0,1,0,0,.06.06,0,0,1-.07,0l0-.06s0-.05,0-.07h0a0,0,0,0,1,0,0Zm0,0,0,0s0,0,0,0a0,0,0,0,0,0,0Zm.1-.12,0,0s0,0,0,0,0,0,0,0,0,0,0,0v0l0,.06h0l-.06,0s0,0,0,0,0,0,0,0l0-.06s0,0,0,0h0l0,0Z"/>
        <path d="M112.89,110.21a.05.05,0,0,1,0,0s0,0,0,0,0,0,0,0a0,0,0,0,1,.05,0,.21.21,0,0,0,0,.06s0,0,0,0h0l0,0s0,0,0,0l0,0,0,0s0,0,0,0,0,0,0,0a.16.16,0,0,0,0,.07s0,0,0,0,0,0,0,0l0,0s0,0,0,0l0,0,0,0s0,0,0,0a0,0,0,0,0,0,0l0,.06s0,0,0,0h0l0,0s0,0,0,0l0,0,0,0h0l0,0h0v0Zm.28-.07s0,0,0,0a0,0,0,0,1,0,0,.1.1,0,0,1,0-.07h0a0,0,0,0,0,0,0s0,0,0,0,0,0,0,0,0,0,0,0,0,0,.05,0,0,0,0,0l0,.05h0a0,0,0,0,1,0,0s0,0,0,0a0,0,0,0,1,0,0Zm0,0,0,0a.08.08,0,0,0,0,0s0,0,0,0,0,0,0,0Zm0-.12s0,0,0-.05a0,0,0,0,1,0,0l0,.06s0,0,0,0h0l0,0h0s0,0,0,0l0,0s0,0,0,0,0,0,0,0l0,.07h0l-.06,0h0s0,0,0,0a.21.21,0,0,0,0-.06s0,0,0,0h0l0,0h0Zm.13-.05a.05.05,0,0,0,0,0s.05,0,.05,0,0,0,0,0,0,0,0,0a.11.11,0,0,1,0,.06,0,0,0,0,1-.07,0,.1.1,0,0,1,0-.05.05.05,0,0,1,0-.07,0,0,0,0,1,0,0l0,0Zm0,0,0,0s0,0,0,0a0,0,0,0,0,0,0Zm.21-.09a.09.09,0,0,1,0,.07s0,0-.06,0a.1.1,0,0,1,0-.06.08.08,0,0,1,0-.08s0,0,.06,0,0,0,0,0,0,0,0,0a.09.09,0,0,0,0,.06s0,0,0,0,0,0,0,0Zm0,0a.1.1,0,0,0,0,0s0,0,0,0,0,0,0,0,0,0,0,0a.08.08,0,0,1,0,0,.06.06,0,0,1-.07,0l0-.06a.06.06,0,0,1,0-.07h.06a0,0,0,0,1,0,0Zm0,0,0,0s0,0,0,0a0,0,0,0,0,0,0Zm.1-.12,0,0s0,0,0,0,0,0,0,0h0s0,0,0,0l0,.06a0,0,0,0,0,0,0h0l-.06,0s0,0,0,0,0,0,0,0l0-.06a0,0,0,0,0,0,0h0l0,0Zm.1,0a.07.07,0,0,0,0,0,0,0,0,0,0,0,0v0s0,0,0,0a.07.07,0,0,1,0,.06.09.09,0,0,1-.07,0,.09.09,0,0,1,0-.06.11.11,0,0,1,0-.07,0,0,0,0,1,0,0,0,0,0,0,1,0,0Zm0,0,0,0s0,0,0,0a0,0,0,0,0,0,.05Zm.07-.18s0,0,0,0S113.81,109.5,113.83,109.5Zm0,0,.07.1h0l0,0s0,0,0,0,0,0,0,0l0-.06a0,0,0,0,0,0,0h0l0,0Zm.11-.07,0,0h0s0,0,0,0,0,0,0,0h0s0,0,0,0,0,0-.05,0h0l0,0h0a0,0,0,0,0,0,0s0,0,0,0,0,0-.06,0a0,0,0,0,1,0,0h0l0,0Zm-1.22,1.31a.05.05,0,0,0,0,0s0,0,0,0v0s0,0,0,0,0,0,0,0a.06.06,0,0,1-.06,0s0,0,0-.06a.06.06,0,0,1,0-.07s0,0,0,0l0,0Zm0,0,.06,0a0,0,0,0,0-.06,0v0Zm.12-.1a.07.07,0,0,1,0-.06s0,0,0,0l0,.07s0,0,0,0h0l-.05,0s0,0,0,0,0,0,0,0l0,0a0,0,0,0,0,0,0s0,0,0,0l0,.06s0,0,0,0h0l0,0h0s0,0,0,0a.43.43,0,0,0,0-.07h0l0,0h0Zm.19-.13s0,0,0,0,0,0,0,0,0,0,0-.05a0,0,0,0,1,0,0,.21.21,0,0,1,0,.06s0,0,0,0a0,0,0,0,0,0,0l0,0s0,0,0,0,0,0,0,0a.13.13,0,0,0,0,0s0,0,0,0v0l0,.06h0l0,0s0,0,0,0,0,0,0,0l0,0s0,0-.05,0,0,0,0,0a.21.21,0,0,1,0,.06s0,0,0,0h0l0,0s0,0,0,0a.08.08,0,0,0,0,0l0,0s0,0,0,0,0,0,0,0,0,0,0,0Zm.15-.21s0,0,0,0A0,0,0,0,1,113.21,110.34Zm.05,0,.06.1s0,0,0,0h0l-.06,0s0,0,0,0,0,0,0,0l0,0s0,0,0,0h0l0,0Zm.09,0,0,0h0v0a.08.08,0,0,1,0,0,.06.06,0,0,1,.06,0s0,.07,0,.1a0,0,0,0,1,0,0s0,0,0,0l0,0s0,0,0,0,0,0,0,0l-.06,0h0s0,0,0,0l-.07-.11s0,0,0,0Zm.06,0,0,.06a0,0,0,0,0,0,0s0,0,0-.05a.07.07,0,0,0,0,0s0,0,0,0Zm.21,0s0,0,0,.05a0,0,0,0,1,0-.05l0-.06s0,0,0,0,0,0,0,0a0,0,0,0,1,0,0s0,0,0,0a.07.07,0,0,1,0,0,0,0,0,0,1,0,0h0l0,.06s0,0,0,0h0s0,0,0,0Zm0,0,0,0a.09.09,0,0,0,0,0s0,0,0,0a0,0,0,0,0,0,0Zm0-.22.1.16s0,0,0,0h0l-.06,0s0,0,0,0,0,0,0,0l-.07-.11s0,0,0,0,0,0,0,0l0,0Zm.21.11a.1.1,0,0,1,0,0,0,0,0,0,1,0,0l0-.06,0,0s0,0,0,0,0,0,0,0,0,0,0,0,0,0,0-.05,0,0,0,0h0l0,.07h0s0,0,0,0Zm0,0,0,0,0,0s0,0,0,0a0,0,0,0,0,0,0Zm0-.12s0,0,0-.06,0,0,.07,0a.07.07,0,0,1,0,.07.06.06,0,0,1-.06,0s0,0,0,0l-.08-.13s0,0,0,0,0,0,0,0l0,0h0l.06.08Zm0,0,0,.07s.05,0,.05,0,0-.05,0-.07a0,0,0,0,0-.06,0v0ZM114,110v0s0,0,0,0,0,0,0,0,0,0,0,0v0l0,.06h0l-.06,0s0,0,0,0,0,0,0,0a.25.25,0,0,0,0-.07s0,0,0,0h0l0,0Zm.18,0s0,0,0,.05,0,0,0-.05l0-.06s0,0,0,0,0,0,0,0a0,0,0,0,1,0,0s0,0,0,0,0,0,0,0a0,0,0,0,1,.05,0h0a.16.16,0,0,0,0,.07s0,0,0,0h0s0,0,0,0Zm0,0,0,0s0,0,0,0,0,0,0,0l0,0ZM113,111l0,0s0,0,0,0a0,0,0,0,0,0,0s0,0,0,0h0a0,0,0,0,1,0,.05.09.09,0,0,1-.06,0h0l0,0h0s0,0,.06,0,0,0,0,0h0a0,0,0,0,1,0-.05h0l0,0Zm.08,0a.05.05,0,0,0,0,0s0,0,0,0,0,0,0,0,0,0,0,0a0,0,0,0,1,0,0,0,0,0,0,1-.06,0,.07.07,0,0,1,0,0,.06.06,0,0,1,0-.07h.06s0,0,0,0Zm0,0,.06,0a0,0,0,0,0-.06,0v0Zm.11-.12v0s0,0,0,0,0,0,0,0,0,0,0,0v0l0,.06s0,0,0,0h0l-.06,0s0,0,0,0a0,0,0,0,0,0,0l0-.06h0l0,0Zm.1,0a.07.07,0,0,0,0,0s0,0,0,0,0,0,0,0v0a.07.07,0,0,1,0,.06h-.07s0,0,0-.06a.07.07,0,0,1,0-.07h.06a0,0,0,0,1,0,0Zm0,0,0,0s0,0,0,0,0,0,0,0Zm.06-.17s0,0,0,0S113.3,110.75,113.32,110.74Zm.05.05.06.1s0,0,0,0h0l-.06,0s0,0,0,0,0,0,0,0a.1.1,0,0,0,0,0s0,0,0,0h0l0,0Zm.1-.07,0,0s0,0,0,0a0,0,0,0,0,0,0s0,0,0,0,0,0,0,0a0,0,0,0,1,0,0s0,0-.06,0h0l0,0s0,0,0,0a0,0,0,0,0,.06,0s0,0,0,0h0a0,0,0,0,1,0,0h0l0,0Zm.09,0,0,0h0s0,0,0,0l.06,0v-.09s0,0,0,0,0,0,0,0l0,0h0s0,0,0,0l0,.13h0l-.1-.08Zm.18-.06a.07.07,0,0,0,.05,0s0,0,0,0,0,0,0,0,0,0,0,0a.14.14,0,0,1,0,.06.09.09,0,0,1-.07,0s0,0,0-.06a.07.07,0,0,1,0-.07.06.06,0,0,1,.06,0,0,0,0,0,1,0,0Zm0,0,.05,0s0,0-.05,0a0,0,0,0,0,0,0Zm.1-.13,0,0s0-.05,0-.05,0,0,0,0,0,0,0,0,0,0,0,0l0,.06h0l-.06,0s0,0,0,0,0,0,0,0l0-.07s0,0,0,0h0l0,0Zm.2,0a0,0,0,0,1,0,0,.08.08,0,0,1-.07,0,.11.11,0,0,1,0-.08s0,0,0,0l0,0s0,0,0,0h0l0,0s0,0,0,0l.09.14a0,0,0,0,0,0,0s0,0,0,0l0,0h0Zm0,0,0-.07s0,0,0,0,0,0,0,0,0,0,0,0,0,0,0,0Zm.12-.07s0,0,0,0,0,0,0,0a.43.43,0,0,1,0-.07s0,0,0,0a0,0,0,0,0,0,0,0,0,0,0,1,0,0s0,0,0,0a.07.07,0,0,1,0,0s0,0,0,0h0l0,.06s0,0,0,0h0s0,0,0,0Zm0,0,0,0a.09.09,0,0,0,0,.05s0,0,0,0a0,0,0,0,0,0,0Zm.14-.07a0,0,0,0,1-.05,0s0,0-.06,0,0-.06,0-.08a.05.05,0,0,1,0,0l0,0s0,0,0,0,0,0,0,0l0,0s0,0,0,0l.09.14s0,0,0,0a0,0,0,0,1,0,0l0,0h0Zm0,0,0-.06s0,0,0,0,0,0,0,.06,0,0,0,0a0,0,0,0,0,0,0Zm0-.09a.1.1,0,0,0,.05,0s0,0,0,0,0,0,0,0v0a0,0,0,0,1,0,0s0,0-.06,0,0,0,0-.06a.06.06,0,0,1,0-.07.06.06,0,0,1,.06,0,0,0,0,0,1,0,0Zm0,0,.05,0s0,0-.05,0a.06.06,0,0,0,0,0Zm.1-.13,0,0s0,0,0,0,0,0,0,0h0s0,0,0,0l0,0s0,0,0,0h0l-.05,0s0,0,0,0,0,0,0,0a.21.21,0,0,1,0-.06s0,0,0,0h0l0,0Zm.19,0s0,0,0,0,0,0,0,0,0,0,0-.07,0,0,0,0,0,0,0,0,0,0,0,0,0,0,0,0,0,0,0,0a0,0,0,0,1,0,0h0l0,.07s0,0,0,0h0s0,0,0,0Zm0,0,0,0s0,0,0,0,0,0,0,0,0,0,0,0Zm0-.12s0,0,0-.06h0s0,0,0,0a0,0,0,0,1,.05,0,.21.21,0,0,1,0,.06s0,0,0,0h0l0,0s0,0,0,0l0,0s0,0,0,0,0,0,0,0v0l0,.06s0,0,0,0,0,0,0,0l0,0s0,0,0,0v0l0-.05s0,0,0,0a0,0,0,0,0,0,0,.16.16,0,0,1,0,.07s0,0,0,0h0l0,0s0,0,0,0,0,0,0-.05l0,0s0,0,0,0,0,0,0,0,0,0,0,0Zm.2-.1a.05.05,0,0,0,0,0s0,0,0,0,0,0,0,0h0a.06.06,0,0,1,0,.06,0,0,0,0,1-.07,0,.1.1,0,0,1,0,0,.06.06,0,0,1,0-.07.07.07,0,0,1,.06,0s0,0,0,0Zm0,0,0,0s0,0,0,0a0,0,0,0,0,0,0Zm.12-.1a.05.05,0,0,1,0,0,0,0,0,0,1,.05,0l0,.07s0,0,0,0h0l0,0h0s0,0,0,0l0,0a0,0,0,0,0,0,0s0,0,0,0a.16.16,0,0,0,0,.07s0,0,0,0h0l0,0h0s0,0,0,0l0-.06s0,0,0,0h0l0,0h0Zm.09-.14,0,0h0l0,.08a0,0,0,0,0,0,0v0a0,0,0,0,1,0,0,0,0,0,0,1,0,0l0-.07h0s0,0,0,0v0Zm.11,0a.09.09,0,0,0,0,0s.05,0,0,0,0,0,0,0,0,0,0,0a0,0,0,0,1,0,.06.06.06,0,0,1-.06,0,.07.07,0,0,1,0-.06,0,0,0,0,1,0-.06,0,0,0,0,1,.06,0l0,0Zm0,0,.06,0a0,0,0,0,0,0,0s0,0,0,0Zm-2,1.7a.05.05,0,0,1,0,0s0,0,0,0a.07.07,0,0,1,0-.06s0,0,0,0a.16.16,0,0,0,0,.07h0s0,0,0,0l-.05,0s0,0,0,0,0,0,0,0l0,0s0,0,0,0,0,0,0,0l0,.07h0s0,0,0,0l0,0s0,0,0,0l0,0,0,0a0,0,0,0,0,0,0,0,0,0,0,0,0,0l0,.06s0,0,0,0,0,0,0,0l0,0s0,0,0,0a.05.05,0,0,1,0,0s0,0,0,0,0,0,0,0l0,0h0Zm.14-.21s0,0,0,0A0,0,0,0,1,113.3,111.2Zm0,.06.06.1a0,0,0,0,0,0,0h0l-.06,0s0,0,0,0,0,0,0,0l0,0h0l0,0Zm.11-.08,0,0s0,0,0,0,0,0,0,0,0,0,0,0h0s0,0,0,0,0,0,0,0h0l0,0s0,0,0,0a0,0,0,0,0,.06,0s0,0,0,0h-.06a0,0,0,0,1,0-.06h0s0,0,0,0Zm.24,0a0,0,0,0,1,0,0,.06.06,0,0,1-.07,0,.11.11,0,0,1,0-.08l0,0,0,0s0,0,0,0h0l0,0s0,0,0,0l.09.14s0,0,0,0,0,0,0,0l0,0h0Zm0,0,0-.06s0,0,0,0,0,0,0,.06a.07.07,0,0,0,0,0s0,0,0,0Zm0-.21s0,0,0,0S113.66,111,113.67,111Zm0,0,.06.1s0,0,0,0h0l0,0s0,0,0,0,0,0,0,0l0-.06s0,0,0,0h0l0,0Zm.11-.07,0,0s0,0,0,0,0,0-.06,0,0,0,0,0h.05a0,0,0,0,1,0,0,.1.1,0,0,1,0,0h0l0,0s0,0,0,0a0,0,0,0,0,.06,0s0,0,0,0h0s0,0,0-.05h0l0,0Zm.17,0s0,0,0,.07a0,0,0,0,1,0,0,.1.1,0,0,1-.06,0,.06.06,0,0,1,0-.08,0,0,0,0,1,0,0s0,0,0,0a0,0,0,0,0,0,0,.06.06,0,0,0,0,.06,0,0,0,0,0,0,0,0,0,0,0,0,0,0s0,0,0,0Zm0-.16s0,0,0,0S114,110.79,114,110.78Zm.05.06.06.1s0,0,0,0h0l-.06,0s0,0,0,0,0,0,0,0l0-.05h0l0,0Zm0,0,0,0h0v0s0,0,0,0a.07.07,0,0,1,.06,0,.09.09,0,0,1,0,.1.05.05,0,0,1,0,0s0,0,0,0,0,0,0,0,0,0,0,0h0l-.06,0h0s0,0,0,0l-.07-.11s0,0,0,0Zm.06,0,0,.06s0,0,.05,0a.06.06,0,0,0,0-.06.07.07,0,0,0-.06,0,0,0,0,0,0,0,0Zm.06-.18s0,0,0,0S114.15,110.66,114.16,110.65Zm0,.06.06.1h0l0,0s0,0,0,0l0,0,0,0a0,0,0,0,0,0,0h0l0,0Zm0-.11.1.17a0,0,0,0,0,0,0s0,0,0,0l-.05,0s0,0,0,0l0,0-.07-.11s0,0,0,0,0,0,0,0l0,0Zm.13,0h.06a.07.07,0,0,1,0,.08.06.06,0,0,1-.07.06.09.09,0,0,1-.06-.07.07.07,0,0,1,0,0l0,0Zm0,0a0,0,0,0,0,0,.06s0,0,.06,0,0,0,0,0a.05.05,0,0,0,0,0,0,0,0,0,0-.06,0Zm.15-.1,0,0s0,0,0,0,0,0-.06,0,0,0,0,0,0,0,0,0a0,0,0,0,1,0,0,.1.1,0,0,1,0,0h0l0,0s0,0,0,0a0,0,0,0,0,.06,0s0,0,0,0,0,0,0,0,0,0,0,0h0l0,0Zm-.79,1.91a.05.05,0,0,1,.07-.07s0,0,0,.06,0,0,0,0,0,0,.06,0a.1.1,0,0,1,0,.09l0,0s0,0,0,0,0,0,.05,0,0-.05,0-.06,0,0,0,0h0s0,0,0-.06,0,0,0,0a.08.08,0,0,0,0,0Zm.3,0v0l-.11.06s0,0,0,0a.25.25,0,0,0,0-.12,0,0,0,0,0,0,0,0,0,0,0,0,0,0s0,0,0,0a.06.06,0,0,1,0-.07,0,0,0,0,1,.07,0,.06.06,0,0,1,0,.06.43.43,0,0,1,0,.11s0,0,0,0l.05,0,0,0Zm0,0s0,0,0,0,0,0,0,0,0,0,0,0h0s0,0,0,0Zm.12-.29.06,0s0,0,0,0,0,0,0,.07v.07l0,0s0,0,0,0,0,0,0,0l-.07,0h0a0,0,0,0,0,0,0l0,0-.1,0s0,0,0,0a0,0,0,0,1,0,0l.07,0a0,0,0,0,0,0,0s0,0,0,0l.06,0a.27.27,0,0,0,0-.09s0,0,0,0Zm.32,0a.06.06,0,0,1,0,.06s0,0-.06,0,0,0,0,0a.08.08,0,0,1,0-.08.06.06,0,0,1,.06,0s0,0,0,0,0,0,0,0a.05.05,0,0,0,0,0l0,0a.07.07,0,0,0,0-.06Zm0-.12s0,0,.06,0a.06.06,0,0,1,0,.08.06.06,0,0,1-.07,0,.09.09,0,0,1-.06-.06.07.07,0,0,1,0-.06Zm0,0a0,0,0,0,0,0,0s0,.05.06.05,0,0,0,0a.09.09,0,0,0,0-.06.06.06,0,0,0-.06,0Zm.12-.06a.05.05,0,0,1,0,0s0,0,0,0l.05.07s0,0,0,0h0l0,0s0,0,0,0,0,0,0,0l0,0s0,0,0,0a0,0,0,0,0,0,0l0,.07s0,0,0,0h0l0,0h0s0,0,0,0l0-.06s0,0,0,0h0s0,0,0,0,0,0,0,0Zm.14-.12a.06.06,0,0,1,.06,0,.07.07,0,0,1,0,.08.07.07,0,0,1-.07.06.11.11,0,0,1-.06-.07.07.07,0,0,1,0-.06Zm0,0s0,0,0,.06,0,0,.06,0,0,0,0,0a.05.05,0,0,0,0,0,0,0,0,0,0-.06,0Zm.22,0a.06.06,0,0,1,0,.07l0,0a.09.09,0,0,1-.06-.06.07.07,0,0,1,0-.08.06.06,0,0,1,.06,0s0,0,0,0,0,0,0,0a.08.08,0,0,0,0,0,0,0,0,0,0,.08,0s0,0,0,0Zm0,0a.09.09,0,0,0,0,0,0,0,0,0,0,0,0h0s0,0,0,0,0,0,0,.06,0,0-.06,0a.07.07,0,0,1,0-.06,0,0,0,0,1,0-.06s0,0,0,0l0,0Zm0,0,.06,0s0,0-.06,0v0Zm.11-.12v0s0,0,0,0,0,0,0,0,0,0,0,0v0a.1.1,0,0,0,0,0s0,0,0,0h0l-.06,0s0,0,0,0,0,0,0,0l0-.06s0,0,0,0h0l0,0Zm.1,0a.07.07,0,0,0,0,0s0,0,0,0a0,0,0,0,0,0,0s0,0,0,0a0,0,0,0,1,0,0,0,0,0,0,1-.06,0s0,0,0-.06a.06.06,0,0,1,0-.07.06.06,0,0,1,.06,0,0,0,0,0,1,0,0Zm0,0,.06,0a0,0,0,0,0-.06,0v0Zm.07-.19s0,0,0,0S115.29,111.36,115.31,111.35Zm0,.06.06.1h0l0,0h0s0,0,0,0a.1.1,0,0,1,0,0s0,0,0,0h0l0,0Zm.1-.06,0,0s0,0,0,0a0,0,0,0,0,0,0s0,0,0,0,0,0,.05,0,0,0,0,0a.1.1,0,0,1,0,0h0l0,0h0a0,0,0,0,0,.06,0s0,0,0,0,0,0,0,0a0,0,0,0,1,0,0h0l0,0Zm.09-.15.1.16a0,0,0,0,0,0,0s0,0,0,0l-.05,0s0,0,0,0l0,0-.07-.11s0,0,0,0,0,0,0,0l0,0Zm.21.11a.1.1,0,0,1,0,0,0,0,0,0,1,0,0,.1.1,0,0,1,0-.07v0h0s0,0,0,0,0,0,0,0,0,0,0,0a.05.05,0,0,1,0,0s0,0,0,0l0,.06h0a0,0,0,0,1,0,0s0,0,0,0Zm0,0,0,0s0,0,0,0,0,0,0,0a0,0,0,0,0,0,0Zm-1.82,1.49.06,0h0s0,0,0,0l.07,0,0-.09h0l0,0h0a0,0,0,0,0,0,0l0,.12h0l-.11-.08s0,0,0,0Zm.18-.07a.07.07,0,0,0,0,0,0,0,0,0,0,0,0v0s0,0,0,0a.07.07,0,0,1,0,.06.09.09,0,0,1-.07,0s0,0,0-.06a.11.11,0,0,1,0-.07,0,0,0,0,1,0,0,0,0,0,0,1,0,0Zm0,0,0,0s0,0,0,0,0,0,0,0Zm.1-.12,0,0s0-.05,0-.05,0,0,0,0,0,0,0,0,0,0,0,0l0,.06h0l0,0s0,0,0,0a0,0,0,0,0,0,0,.25.25,0,0,1,0-.07s0,0,0,0h0l0,0Zm.21,0a0,0,0,0,1,0,0,.08.08,0,0,1-.06,0,.11.11,0,0,1,0-.08.05.05,0,0,1,0,0l0,0a0,0,0,0,0,0,0h0l0,0h0l.09.15s0,0,0,0h0l0,0h0Zm0,0,0-.06s0,0,0,0a0,0,0,0,0,0,.06.08.08,0,0,0,0,.05s0,0,0,0Zm.12-.07s0,0,0,0,0,0,0,0a.16.16,0,0,1,0-.07s0,0,0,0,0,0,0,0a0,0,0,0,1,0,0s0,0,0,0a.07.07,0,0,1,0,0s0,0,0,0h0l0,.06s0,0,0,0h0s0,0,0,0Zm0,0,0,0a.08.08,0,0,0,0,.05s0,0,0,0,0,0,0,0Zm.14-.06a0,0,0,0,1,0,0,.06.06,0,0,1-.07,0,.11.11,0,0,1,0-.08s0,0,0,0l0-.05s0,0,0,0h0l0,0s0,0,0,0l.09.14s0,0,0,0,0,0,0,0l0,0h0Zm0,0,0-.06s0,0-.05,0,0,0,0,.06a.07.07,0,0,0,.05,0s0,0,0,0Zm.09,0h0s0,0,0,0h0s0,0,0,0,0,0,0,0a.06.06,0,0,1,0,.06v0Zm0-.24,0,0s0,0,0,0,0,0,0,0l0,0a.22.22,0,0,0,0-.08s0,0,0,0h0l0,0s0,0,0,0a.29.29,0,0,0,0,.09.22.22,0,0,0,0,.08.05.05,0,0,1,0,0,0,0,0,1,1,0,0l0,0s0,0,0,0l-.1-.07a0,0,0,0,0,0,0Zm.2-.22.1.16a0,0,0,0,0,0,0h0l-.06,0s0,0,0,0,0,0,0,0l-.07-.11s0,0,0,0,0,0,0,0l0,0Zm.2.1s0,.05,0,.05,0,0,0,0a.43.43,0,0,1,0-.07s0,0,0,0a0,0,0,0,0,0,0,0,0,0,0,1,0,0s0,0,0,0a0,0,0,0,1,0,0,0,0,0,0,1,0,0h0a.21.21,0,0,0,0,.06s0,0,0,0h0s0,0,0,0S115.17,112.14,115.17,112.13Zm0,0,0,0s0,0,0,0,0,0,0,0a0,0,0,0,0,0,0Zm.06-.16,0,0h0s0,0,0,0l.06,0v-.09s0,0,0,0,0,0,0,0l0,0s0,0,0,0,0,0,0,0l0,.12h0l-.1-.08Zm.18-.06a.09.09,0,0,0,0,0,0,0,0,0,0,0,0v0s0,0,0,0,0,0,0,.06a.06.06,0,0,1-.06,0,.07.07,0,0,1,0-.06,0,0,0,0,1,0-.06,0,0,0,0,1,.06,0s0,0,0,0Zm0,0,.06,0s0,0-.06,0v0Zm.11-.12,0,0s0,0,0,0,0,0,0,0,0,0,0,0a0,0,0,0,0,0,0l0,.05s0,0,0,0h0l-.06,0a0,0,0,0,1,0,0s0,0,0,0l0-.06h0l0,0Zm.2,0a0,0,0,0,1,0,0s0,0-.07,0a.11.11,0,0,1,0-.08l0,0,0,0h0l0,0h0l.09.14s0,0,0,0,0,0,0,0l0,0h0Zm0,0,0-.06s0,0,0,0,0,0,0,.06a.07.07,0,0,0,0,0s0,0,0,0Zm.11-.07s0,0,0,0a0,0,0,0,1,0,0,.16.16,0,0,1,0-.07l0,0s0,0,0,0,0,0,0,0,0,0,0,0,0,0,0,0,0,0,.05,0a.16.16,0,0,1,0,.07s0,0,0,0h0a0,0,0,0,0,0,0s0,0,0,0Zm0,0,0,0s0,0,0,0,0,0,0,0,0,0,0,0Zm.14-.07s0,0,0,0a.08.08,0,0,1-.06,0,.11.11,0,0,1,0-.08.05.05,0,0,1,0,0l0,0s0,0,0,0,0,0,0,0l0,0s0,0,0,0l.09.15s0,0,0,0h0l0,0h0Zm0,0,0-.06s0,0,0,0,0,0,0,.06,0,0,0,0a0,0,0,0,0,0,0Zm.11-.21a.06.06,0,0,1,.07,0,.09.09,0,0,1,0,.08s0,.07-.08.06a.09.09,0,0,1-.06-.06.08.08,0,0,1,0-.06Zm0,0s0,0,0,0a.12.12,0,0,0,0,.05,0,0,0,0,0,0,0,.11.11,0,0,0,0-.06s0,0-.06,0Zm.15-.11,0,0s0,0,0,0a0,0,0,0,0,0,0s0,0,0,0,0,0,.06,0a0,0,0,0,1,0,0s0,0-.06,0h0l0,0s0,0,0,0,0,0,0,0,0,0,0,0h0a0,0,0,0,1,0,0h0l0,0ZM114.13,113l.05.08s0,0,0,0,0,0,.05,0l0,.07a0,0,0,0,0,0,0s0,0,0,0l0,0a0,0,0,0,0,0,0s0,0,0,0l0-.06a0,0,0,0,0,0,0v0l0,.06s0,0,0,0h0l-.06,0s0,0,0,0,0,0,0,0l-.06-.1a0,0,0,0,0,0,0h0l0,0Zm.27.07s0,0,0,0,0,0,0,0a.43.43,0,0,1,0-.07l0,0s0,0,0,0v0s0,0,0,0,0,0,0,0,0,0,0,0h0l0,.07s0,0,0,0h0s0,0,0,0Zm0,0,0,0,0,0s0,0,0,0l0,0Z"/>
        <path d="M114.42,112.93v0s0,0,0,0,0,0,0,0h0v0l0,.06s0,0,0,0h0l-.06,0s0,0,0,0,0,0,0,0a.21.21,0,0,0,0-.06s0,0,0,0h0l0,0Zm.18,0a.1.1,0,0,1,0,.05,0,0,0,0,1,0-.05l0-.06,0,0s0,0,0,0,0,0,0,0,0,0,0,0a.07.07,0,0,1,0,0s0,0,0,0h0a.16.16,0,0,0,0,.07s0,0,0,0h0s0,0,0,0a0,0,0,0,1,0,0Zm0,0,0,0s0,0,0,0,0,0,0,0a0,0,0,0,0,0,0Zm.06-.26.1.16s0,0,0,0h0l0,0s0,0,0,0,0,0,0,0l-.07-.11s0,0,0,0h0l0,0Zm.06,0s0,0,0,0S114.69,112.66,114.71,112.65Zm.05.06.06.1h0l-.06,0s0,0,0,0,0,0,0,0a.1.1,0,0,0,0,0s0,0,0,0h0l0,0Zm.08,0s0,0,0,0a0,0,0,0,1,.06,0,.08.08,0,0,1,0,.08.07.07,0,0,1-.06,0s0,0,0,0l-.08-.13s0,0,0,0,0,0,0,0l0,0h0Zm0,0,0,.08s0,0,0,0a.07.07,0,0,0,0-.06s0,0,0,0,0,0,0,0Zm.11-.11,0,0s0,0,0,0,0,0,0,0h0s0,0,0,0l0,.06h0l0,0s0,0,0,0,0,0,0,0a.16.16,0,0,1,0-.07s0,0,0,0h0l0,0Zm.1,0a.05.05,0,0,0,0,0s0,0,0,0,0,0,0,0v0a0,0,0,0,1,0,0,0,0,0,0,1-.07,0,.1.1,0,0,1,0,0,.06.06,0,0,1,0-.07h.06s0,0,0,0Zm0,0,0,0s0,0,0,0a0,0,0,0,0,0,0Zm.14-.15,0,0s0,0,0,0a0,0,0,0,0,0,0s0,0,0,0,0,0,0,0a0,0,0,0,1,0,0,.1.1,0,0,1,0,0h0l0,0s0,0,0,0a0,0,0,0,0,.06,0s0,0,0,0,0,0,0,0a0,0,0,0,1,0,0h0l0,0Zm.11.06h0a0,0,0,0,1,0,0h0s0,0,0,0h0s0,0,0,0Z"/>
    </g>
</svg>