<svg id="Capa_1" data-name="Capa 1"
    xmlns="http://www.w3.org/2000/svg" viewBox="0 0 17 22.51">
    <defs>
        <style>.cls-1{fill:#2a2a2a;}</style>
    </defs>
    <g id="Grupo_60" data-name="Grupo 60">
        <g id="Uni贸n_2" data-name="Uni贸n 2">
            <path class="cls-1" d="M13.5,22.26H3.5A3.5,3.5,0,0,1,0,18.76v-15A3.5,3.5,0,0,1,3.5.26h8.61a3.5,3.5,0,0,1,3.5,3.5v.59A3.46,3.46,0,0,1,17,7.14V18.76A3.5,3.5,0,0,1,13.5,22.26Zm-10-21A2.5,2.5,0,0,0,1,3.76v15a2.5,2.5,0,0,0,2.5,2.5h10a2.5,2.5,0,0,0,2.5-2.5V7.14A2.48,2.48,0,0,0,14.84,5a.5.5,0,0,1-.23-.42V3.76a2.5,2.5,0,0,0-2.5-2.5Z"/>
        </g>
        <g id="Uni贸n_3" data-name="Uni贸n 3">
            <path class="cls-1" d="M4.69,11.9a.58.58,0,0,1-.18,0,.51.51,0,0,1-.32-.46V4.58H2.09a.49.49,0,0,1-.38-.17A.49.49,0,0,1,1.59,4,2.5,2.5,0,0,1,4.05,1.9h6.83A2.49,2.49,0,0,1,13.34,4a.52.52,0,0,1-.11.4.52.52,0,0,1-.38.17H9.41V11.4a.5.5,0,0,1-.31.46.51.51,0,0,1-.54-.11L6.74,9.93,5.06,11.74A.52.52,0,0,1,4.69,11.9Zm2-3.19a.47.47,0,0,1,.35.15l1.33,1.33V4.08a.5.5,0,0,1,.5-.5h3.22a1.48,1.48,0,0,0-1.25-.68H4.06a1.51,1.51,0,0,0-1.26.68H4.69a.5.5,0,0,1,.5.5v6.05L6.37,8.87a.48.48,0,0,1,.35-.16Z"/>
        </g>
    </g>
</svg>