<?xml version="1.0" encoding="utf-8"?>

<svg version="1.0" id="Capa_1"
	xmlns="http://www.w3.org/2000/svg"
	xmlns:xlink="http://www.w3.org/1999/xlink" x="0px" y="0px" viewBox="0 0 130 147" style="enable-background:new 0 0 130 147;" xml:space="preserve">
	<style type="text/css">
	.st0{fill:#FFFFFF;}
	.st1{fill:#FF0600;}
	</style>
	<path class="st0" d="M0,42.06l0,62.88c0,3.77,2.01,7.25,5.27,9.13l54.46,31.44c3.26,1.88,7.28,1.88,10.54,0l54.46-31.44
	c3.26-1.88,5.27-5.36,5.27-9.13V42.06c0-3.77-2.01-7.25-5.27-9.13L70.27,1.49c-3.26-1.88-7.28-1.88-10.54,0L5.27,32.93
	C2.01,34.81,0,38.29,0,42.06z"/>
		<path class="st1" d="M77.15,81.31c-1.63,3.25-6.45,5.63-12.15,5.63c-5.89,0-10.85-2.54-12.29-5.96l2.63-0.89v-4.71
		c2.86,2.55,6.35,3.94,9.92,3.94c3.39,0,6.62-1.2,9.4-3.5v4.5L77.15,81.31z"/>
		<path class="st1" d="M83.03,55.04l-1.94-0.54l-0.1-0.03c-0.18-0.07-0.6-0.18-1.45-0.32l-1.21,1.83l-0.04,0.09l-0.05,0.05
		l-0.18,0.29c-0.1,0.15-0.18,0.29-0.27,0.42c-0.7,1.03-1.26,1.61-2.87,1.61h-0.49l-0.24-0.13c-0.48-0.25-3.59-0.73-8.91-0.73
		c-5.14,0-8.34,0.43-8.89,0.73l-0.24,0.13h-0.49c-1.66,0-2.2-0.6-2.92-1.68c-0.08-0.12-0.15-0.24-0.24-0.37l-0.17-0.27l-0.05-0.04
		l-0.05-0.11l-1.2-1.82c-0.87,0.13-1.28,0.25-1.46,0.3l-0.1,0.04l-1.88,0.37c-0.5,1.14-0.67,2.73-0.41,4.46
		c0.34,2.26,1.35,4.06,2.5,4.75c0.12,0.08,0.24,0.14,0.37,0.18c0.97,3.84,2.85,7.18,5.31,9.63c2.72,2.72,6.17,4.34,9.92,4.34
		c3.51,0,6.76-1.42,9.4-3.85c2.73-2.49,4.81-6.03,5.85-10.14c1.31-0.49,2.48-2.44,2.86-4.91C83.61,57.69,83.46,56.16,83.03,55.04z
		 M82.3,59.17c-0.35,2.23-1.37,3.75-2.17,4.04l-0.53,0.21l-0.14,0.54c-0.96,3.82-2.93,7.23-5.53,9.6c-2.54,2.33-5.53,3.57-8.67,3.57
		c-3.36,0-6.53-1.39-9.15-4.02c-2.37-2.36-4.11-5.52-5.03-9.13l-0.15-0.57l-0.56-0.18c-0.01,0-0.04-0.02-0.12-0.07
		c-0.77-0.46-1.7-1.89-2.02-4c-0.18-1.23-0.13-2.42,0.14-3.35l1.4-0.27l0.11-0.05c0.08-0.02,0.26-0.08,0.62-0.14l0.77,1.17
		l0.13,0.26l0.11,0.09l0.3,0.48c0.8,1.2,1.63,2.19,3.84,2.19h0.77l0.48-0.26c0.36-0.15,3.1-0.6,8.37-0.6c5.21,0,8.02,0.45,8.44,0.62
		l0.42,0.24h0.77c2.17,0,2.99-0.94,3.77-2.08l0.41-0.64l0.03-0.04l0.13-0.21l0.8-1.21c0.34,0.06,0.51,0.12,0.58,0.14l0.12,0.04
		l1.43,0.4C82.42,56.86,82.47,58,82.3,59.17z"/>
		<polygon class="st1" points="40.73,103.63 40.95,103.63 50.03,103.63 50.03,95.65 80.18,95.65 80.18,103.63 89.32,103.63 
		89.32,112.02 40.68,112.02 40.68,103.63 	"/>
		<path class="st1" d="M41.81,82.62v19.92h7.13V80.41L41.81,82.62z M45.38,101.42c-1.28,0-2.32-1.04-2.32-2.33
		c0-1.28,1.04-2.32,2.32-2.32c1.29,0,2.33,1.04,2.33,2.32C47.71,100.38,46.67,101.42,45.38,101.42z"/>
		<path class="st1" d="M81.26,80.41v22.14h7.13V82.62L81.26,80.41z M84.83,101.42c-1.29,0-2.32-1.04-2.32-2.33
		c0-1.28,1.03-2.32,2.32-2.32c1.28,0,2.32,1.04,2.32,2.32C87.14,100.38,86.1,101.42,84.83,101.42z"/>
		<path class="st1" d="M81.87,47.19v6.63c0-0.3-0.95-0.58-2.62-0.8C79.17,53.01,79.08,53,79,52.99l-1.6,2.43
		c-0.01,0.01-0.01,0.02-0.02,0.03c-1.02,1.55-1.13,1.92-2.48,1.92h-0.22c-0.91-0.49-4.79-0.86-9.42-0.86c-4.62,0-8.47,0.36-9.4,0.86
		h-0.22c-1.37,0-1.47-0.37-2.48-1.92c-0.01-0.01-0.01-0.02-0.02-0.03l-1.62-2.43c-0.08,0.01-0.16,0.02-0.24,0.03
		c-1.66,0.23-2.62,0.5-2.62,0.8v-6.63c0-7.27,7.43-12.2,16.6-12.2C74.43,34.98,81.87,39.91,81.87,47.19z"/>
</svg>
