<svg id="Capa_1" data-name="Capa 1"
    xmlns="http://www.w3.org/2000/svg" viewBox="0 0 100 94.14">
    <defs>
        <style>.cls-1{fill:#f5f5f5;}.cls-2{fill:#e0e0e0;}.cls-3{fill:#e6e6e6;}.cls-4{fill:#455a64;}.cls-22,.cls-5{fill:#e90303;}.cls-13,.cls-14,.cls-15,.cls-20,.cls-21,.cls-6,.cls-7{fill:#fff;}.cls-6{opacity:0.4;}-22,.cls-6,.cls-7{isolation:isolate;}.cls-7{opacity:0.6;}.cls-16,.cls-8{opacity:0.05;}.cls-9{fill:#ebebeb;}.cls-10{fill:#fafafa;}.cls-11{fill:#37474f;}.cls-12{fill:#263238;}.cls-13,.cls-17{opacity:0.3;}.cls-15{opacity:0.5;}.cls-18,.cls-22{opacity:0.15;}.cls-19{fill:#f0f0f0;}.cls-20{opacity:0.8;}.cls-21{opacity:0.1;}.cls-23{fill:#ffa8a7;}.cls-24{fill:#f28f8f;}</style>
    </defs>
    <g id="freepik--Floor--inject-10">
        <path id="freepik--floor--inject-10-2" class="cls-1" d="M14.64,85.69c-19.52-11.28-19.52-29.54,0-40.83s51.19-11.28,70.71,0,19.53,29.54,0,40.83S34.17,97,14.64,85.69Z"/>
    </g>
    <g id="freepik--Shadows--inject-10">
        <path id="freepik--Shadow--inject-10" class="cls-2" d="M13.21,68.78c2.2,1.27,2.2,3.33,0,4.6a8.81,8.81,0,0,1-8,0c-2.2-1.27-2.2-3.33,0-4.6A8.84,8.84,0,0,1,13.21,68.78Z"/>
        <path id="freepik--shadow--inject-10-2" class="cls-2" d="M38.59,75.23l1.29.75a1.65,1.65,0,0,0,1.47,0L65.64,62a.45.45,0,0,0,0-.86l-1.29-.74a1.59,1.59,0,0,0-1.47,0l-24.29,14C38.16,74.62,38.16,75,38.59,75.23Z"/>
        <path id="freepik--shadow--inject-10-3" class="cls-3" d="M64.08,46.57c-3.2,1.85-3.2,4.82,0,6.67a12.69,12.69,0,0,0,11.54,0c3.18-1.84,3.19-4.82,0-6.67A12.72,12.72,0,0,0,64.08,46.57Z"/>
        <path id="freepik--shadow--inject-10-4" class="cls-2" d="M12.29,74.79l1.29.74a1.59,1.59,0,0,0,1.47,0L43.52,59.1c.41-.24.41-.62,0-.85l-1.29-.75a1.67,1.67,0,0,0-1.48,0L12.29,73.93A.46.46,0,0,0,12.29,74.79Z"/>
        <path id="freepik--shadow--inject-10-5" class="cls-2" d="M20.25,76.2l1.29.74a1.61,1.61,0,0,0,1.48,0L47.29,63c.42-.24.42-.62,0-.85L46,61.37a1.65,1.65,0,0,0-1.47,0l-24.28,14A.45.45,0,0,0,20.25,76.2Z"/>
        <ellipse id="freepik--shadow--inject-10-6" class="cls-3" cx="81.97" cy="64.73" rx="16.96" ry="9.79"/>
    </g>
    <g id="freepik--Table--inject-10">
        <g id="freepik--table--inject-10-2">
            <g id="freepik--table--inject-10-3">
                <path class="cls-4" d="M64.06,40.91a.23.23,0,0,1,.13-.17.66.66,0,0,1,.58,0,.21.21,0,0,1,.12.17L63.4,49.69h0a.14.14,0,0,1-.08.12.49.49,0,0,1-.41,0,.18.18,0,0,1-.09-.12h0Z"/>
                <path class="cls-4" d="M75.53,40.91a.23.23,0,0,0-.13-.17.66.66,0,0,0-.58,0,.2.2,0,0,0-.11.17l1.48,8.78h0a.18.18,0,0,0,.09.12.49.49,0,0,0,.41,0,.2.2,0,0,0,.08-.12h0Z"/>
                <path class="cls-4" d="M70.26,41.57a.19.19,0,0,0-.12-.17.66.66,0,0,0-.58,0,.18.18,0,0,0-.12.17L69.56,52h0a.14.14,0,0,0,.09.11.43.43,0,0,0,.41,0,.13.13,0,0,0,.08-.11h0Z"/>
                <path class="cls-5" d="M77.33,38h0a3.69,3.69,0,0,0-2.19-3,11.67,11.67,0,0,0-10.58,0,3.72,3.72,0,0,0-2.18,3h0v.6h0a3.74,3.74,0,0,0,2.19,3,11.67,11.67,0,0,0,10.58,0,3.72,3.72,0,0,0,2.19-3h0Z"/>
                <path class="cls-6" d="M77.33,38h0a3.69,3.69,0,0,0-2.19-3,11.67,11.67,0,0,0-10.58,0,3.72,3.72,0,0,0-2.18,3h0v.6h0a3.74,3.74,0,0,0,2.19,3,11.67,11.67,0,0,0,10.58,0,3.72,3.72,0,0,0,2.19-3h0Z"/>
                <path class="cls-5" d="M64.56,35c-2.92,1.69-2.92,4.42,0,6.09a11.73,11.73,0,0,0,10.58,0c2.93-1.68,2.93-4.42,0-6.09A11.73,11.73,0,0,0,64.56,35Z"/>
                <path class="cls-7" d="M64.56,35c-2.92,1.69-2.92,4.42,0,6.09a11.73,11.73,0,0,0,10.58,0c2.93-1.68,2.93-4.42,0-6.09A11.73,11.73,0,0,0,64.56,35Z"/>
            </g>
            <g id="freepik--Pot--inject-10">
                <g class="cls-8">
                    <path d="M71.48,36.59a1,1,0,0,1,0,1.94,3.71,3.71,0,0,1-3.37,0,1,1,0,0,1,0-1.94A3.71,3.71,0,0,1,71.48,36.59Z"/>
                </g>
                <path class="cls-9" d="M68.31,37.68c-.81-.82-1.29-2.9-.49-3.55h4c.8.65.32,2.72-.49,3.55l0,0,0,0-.07.07h0l-.06,0-.11.06a2.65,2.65,0,0,1-2.42,0h0l-.1-.06-.06,0h0l-.08-.07,0,0Z"/>
                <path class="cls-10" d="M71.49,33.86a1,1,0,0,1,0,1.93,3.66,3.66,0,0,1-3.32,0,1,1,0,0,1,0-1.93A3.66,3.66,0,0,1,71.49,33.86Z"/>
                <path class="cls-9" d="M70.84,34.24c.56.33.56.85,0,1.16a2.2,2.2,0,0,1-2,0,.61.61,0,0,1,0-1.16A2.27,2.27,0,0,1,70.84,34.24Z"/>
                <path class="cls-2" d="M68.82,34.79a2.27,2.27,0,0,1,2,0,.92.92,0,0,1,.33.29.82.82,0,0,1-.33.31,2.21,2.21,0,0,1-2,0,.84.84,0,0,1-.34-.28A1,1,0,0,1,68.82,34.79Z"/>
                <path class="cls-5" d="M70.72,35.11a4.57,4.57,0,0,0,.73-1c.34-.6.4-1.4.23-1.5s-.89.7-.89.7a4.38,4.38,0,0,0,.07-1,1.88,1.88,0,0,0-.31-1.12c-.15-.1-.49.58-.64,1.06s-.23.89-.23.89A8.66,8.66,0,0,0,69.42,32c-.18-.51-.34-.62-.47-.58s-.2.29-.24,1a7.7,7.7,0,0,0,0,1s-.25-.27-.53-.54-.44-.34-.53-.28-.11.51.37,1.37a4.78,4.78,0,0,0,.89,1.16A2,2,0,0,0,70.72,35.11Z"/>
            </g>
        </g>
    </g>
    <g id="freepik--Plant--inject-10">
        <g id="freepik--pot--inject-10-2">
            <g id="freepik--pot--inject-10-3">
                <g id="freepik--pot--inject-10-4">
                    <path class="cls-11" d="M12.53,71.54c1.76-1.82,2.8-9.23,1.08-10.68H4.84c-1.72,1.45-.68,8.86,1.08,10.68l0,0,.06.06.16.14,0,0,.14.1.22.15a5.83,5.83,0,0,0,5.27,0h0l.22-.16a.6.6,0,0,0,.13-.09l0,0c.05-.05.11-.09.15-.14l.07-.07Z"/>
                    <path class="cls-4" d="M5.61,60.28c-2,1.16-2,3.06,0,4.23a8,8,0,0,0,7.25,0c2-1.16,2-3.06,0-4.23A7.93,7.93,0,0,0,5.61,60.28Z"/>
                    <path class="cls-12" d="M6.57,60.84c-1.47.87-1.47,2.24,0,3.1a5.76,5.76,0,0,0,5.31,0c1.47-.87,1.47-2.25,0-3.1A5.79,5.79,0,0,0,6.57,60.84Z"/>
                    <path class="cls-10" d="M11.89,62.31a5.81,5.81,0,0,0-5.32,0,2.53,2.53,0,0,0-.87.82,2.53,2.53,0,0,0,.87.82,5.75,5.75,0,0,0,5.32,0,2.37,2.37,0,0,0,.87-.82A2.37,2.37,0,0,0,11.89,62.31Z"/>
                </g>
            </g>
            <g id="freepik--Plants--inject-10">
                <g id="freepik--plants--inject-10-2">
                    <path class="cls-5" d="M8.57,62.82A5.77,5.77,0,0,1,8,62.9a6.28,6.28,0,0,1-2.45-.69A3.52,3.52,0,0,1,4,61.1a.89.89,0,0,1-.08-.9c.17-.27.55-.35.63-.67-.58-.38-1.29-.4-1.78-.91a2.86,2.86,0,0,1-.66-1.39,1.41,1.41,0,0,1,.1-1c.19-.29.58-.26.92-.23a.57.57,0,0,0,.26,0,.22.22,0,0,0,.14-.2.37.37,0,0,0-.2-.27c-.21-.14-.43-.24-.63-.39a1.29,1.29,0,0,1-.48-.58,1.66,1.66,0,0,1,0-.91,12.59,12.59,0,0,1,.42-1.45A11.11,11.11,0,0,0,2.9,51a8.21,8.21,0,0,1,3.48,1c.61.31,1.47.87,1.65,1.66a1.47,1.47,0,0,1,0,.66c0,.1-.06.19-.1.29s-.11.29,0,.21L8,54.73l.58-.85a.48.48,0,0,1,.2-.2c.2-.07.66.15,1.1.72a2.45,2.45,0,0,1,.45,1.35A6.18,6.18,0,0,1,10,57.93l.52-.53c.62-.63.73.85.71,1.16a6.75,6.75,0,0,1-.79,2.63A4,4,0,0,1,8.57,62.82Z"/>
                    <path class="cls-13" d="M8.57,62.82A5.77,5.77,0,0,1,8,62.9a6.28,6.28,0,0,1-2.45-.69A3.52,3.52,0,0,1,4,61.1a.89.89,0,0,1-.08-.9c.17-.27.55-.35.63-.67-.58-.38-1.29-.4-1.78-.91a2.86,2.86,0,0,1-.66-1.39,1.41,1.41,0,0,1,.1-1c.19-.29.58-.26.92-.23a.57.57,0,0,0,.26,0,.22.22,0,0,0,.14-.2.37.37,0,0,0-.2-.27c-.21-.14-.43-.24-.63-.39a1.29,1.29,0,0,1-.48-.58,1.66,1.66,0,0,1,0-.91,12.59,12.59,0,0,1,.42-1.45A11.11,11.11,0,0,0,2.9,51a8.21,8.21,0,0,1,3.48,1c.61.31,1.47.87,1.65,1.66a1.47,1.47,0,0,1,0,.66c0,.1-.06.19-.1.29s-.11.29,0,.21L8,54.73l.58-.85a.48.48,0,0,1,.2-.2c.2-.07.66.15,1.1.72a2.45,2.45,0,0,1,.45,1.35A6.18,6.18,0,0,1,10,57.93l.52-.53c.62-.63.73.85.71,1.16a6.75,6.75,0,0,1-.79,2.63A4,4,0,0,1,8.57,62.82Z"/>
                    <path class="cls-14" d="M7.73,58.87a8.22,8.22,0,0,1,1.36-3.29v0a.09.09,0,0,0,0-.13.08.08,0,0,0-.11,0H9l0,0a8.44,8.44,0,0,0-1.32,3.08A21.71,21.71,0,0,0,4,51.8a.09.09,0,0,0-.12,0h0a.11.11,0,0,0,0,.15,20.74,20.74,0,0,1,3.6,6.63,5.21,5.21,0,0,0-3.41-1.16.08.08,0,0,0-.07.09H4c0,.05,0,.08.07.09h0a5.19,5.19,0,0,1,3.49,1.3,12.23,12.23,0,0,1,.73,3.74.13.13,0,0,0,0,.09h.05a.08.08,0,0,0,.09-.08h0A12.39,12.39,0,0,0,7.73,58.87Z"/>
                </g>
                <g id="freepik--plants--inject-10-3">
                    <path class="cls-5" d="M9,63.5a4.82,4.82,0,0,0,.52.11,5.63,5.63,0,0,0,2.19-.38,2.85,2.85,0,0,0,1.44-.79.63.63,0,0,0,.06-.72c-.15-.23-.5-.32-.58-.58.51-.27,1.16-.23,1.59-.6a2,2,0,0,0,.58-1.09,1.09,1.09,0,0,0-.09-.79c-.17-.25-.53-.26-.82-.25a.85.85,0,0,1-.23,0,.23.23,0,0,1-.14-.19c0-.09.1-.16.19-.2a5.77,5.77,0,0,0,.56-.27.9.9,0,0,0,.42-.44,1.21,1.21,0,0,0,0-.73,10.53,10.53,0,0,0-.37-1.21A7.37,7.37,0,0,1,14,54.29a7.5,7.5,0,0,0-3.1.58c-.54.2-1.32.6-1.47,1.23a1.09,1.09,0,0,0,0,.54l.09.23c0,.05.11.24,0,.17A.23.23,0,0,1,9.43,57l-.53-.73a.45.45,0,0,0-.18-.18c-.18-.08-.58.07-1,.5a1.78,1.78,0,0,0-.42,1.07,4.81,4.81,0,0,0,.36,1.79L7.2,59c-.55-.55-.65.64-.62.87A5.51,5.51,0,0,0,7.31,62,3.67,3.67,0,0,0,9,63.5Z"/>
                    <path class="cls-15" d="M9,63.5a4.82,4.82,0,0,0,.52.11,5.63,5.63,0,0,0,2.19-.38,2.85,2.85,0,0,0,1.44-.79.63.63,0,0,0,.06-.72c-.15-.23-.5-.32-.58-.58.51-.27,1.16-.23,1.59-.6a2,2,0,0,0,.58-1.09,1.09,1.09,0,0,0-.09-.79c-.17-.25-.53-.26-.82-.25a.85.85,0,0,1-.23,0,.23.23,0,0,1-.14-.19c0-.09.1-.16.19-.2a5.77,5.77,0,0,0,.56-.27.9.9,0,0,0,.42-.44,1.21,1.21,0,0,0,0-.73,10.53,10.53,0,0,0-.37-1.21A7.37,7.37,0,0,1,14,54.29a7.5,7.5,0,0,0-3.1.58c-.54.2-1.32.6-1.47,1.23a1.09,1.09,0,0,0,0,.54l.09.23c0,.05.11.24,0,.17A.23.23,0,0,1,9.43,57l-.53-.73a.45.45,0,0,0-.18-.18c-.18-.08-.58.07-1,.5a1.78,1.78,0,0,0-.42,1.07,4.81,4.81,0,0,0,.36,1.79L7.2,59c-.55-.55-.65.64-.62.87A5.51,5.51,0,0,0,7.31,62,3.67,3.67,0,0,0,9,63.5Z"/>
                    <path class="cls-14" d="M9.68,60.36a6.9,6.9,0,0,0-1.23-2.78v0a.07.07,0,0,1,0-.11.09.09,0,0,1,.11,0h0v0a7.4,7.4,0,0,1,1.21,2.59A15.23,15.23,0,0,1,13,54.89a.09.09,0,0,1,.12,0h0a.09.09,0,0,1,0,.12h0A14.47,14.47,0,0,0,10,60.15a4.87,4.87,0,0,1,3.05-.7.06.06,0,0,1,.06.08h0a.06.06,0,0,1-.05.06h0a4.61,4.61,0,0,0-3.12.8,8.74,8.74,0,0,0-.64,3,.07.07,0,0,1,0,.07h0a.07.07,0,0,1-.08-.07h0A8.67,8.67,0,0,1,9.68,60.36Z"/>
                </g>
            </g>
        </g>
    </g>
    <g id="freepik--Device--inject-10">
        <g id="freepik--Mobile--inject-10">
            <path class="cls-5" d="M38,.33,14.05,14.12a2.42,2.42,0,0,0-1.21,2V71.7A2.68,2.68,0,0,0,14,73.83a2.7,2.7,0,0,0,2.41-.09L40.2,60a2.84,2.84,0,0,0,1.28-2.22V2.38A2.67,2.67,0,0,0,40.36.25,2.66,2.66,0,0,0,38,.33Z"/>
            <path class="cls-16" d="M38,.33,14.05,14.12a2.42,2.42,0,0,0-1.21,2V71.7A2.68,2.68,0,0,0,14,73.83a2.7,2.7,0,0,0,2.41-.09L40.2,60a2.84,2.84,0,0,0,1.28-2.22V2.38A2.67,2.67,0,0,0,40.36.25,2.66,2.66,0,0,0,38,.33Z"/>
            <path class="cls-5" d="M16.07,73.89a2.65,2.65,0,0,1-2.1-.06,2.7,2.7,0,0,1-1.12-2.13V16.13a2.23,2.23,0,0,1,.32-1.1l2.07,1.16a2.52,2.52,0,0,0-.6,1.51V72.75C14.64,73.72,15.26,74.19,16.07,73.89Z"/>
            <path class="cls-17" d="M16.07,73.89a2.65,2.65,0,0,1-2.1-.06,2.7,2.7,0,0,1-1.12-2.13V16.13a2.23,2.23,0,0,1,.32-1.1l2.07,1.16a2.52,2.52,0,0,0-.6,1.51V72.75C14.64,73.72,15.26,74.19,16.07,73.89Z"/>
            <path class="cls-5" d="M15.77,15.74a2.47,2.47,0,0,0-1.13,2v55c0,1.1.78,1.56,1.74,1L40.21,60a2.87,2.87,0,0,0,1.28-2.22V2.37c0-.82-.58-1.14-1.28-.74Z"/>
            <path class="cls-18" d="M15.77,15.74a2.47,2.47,0,0,0-1.13,2v55c0,1.1.78,1.56,1.74,1L40.21,60a2.87,2.87,0,0,0,1.28-2.22V2.37c0-.82-.58-1.14-1.28-.74Z"/>
            <path class="cls-12" d="M16.65,19.05a2.7,2.7,0,0,0-1.22,2.11V70.57c0,.77.55,1.09,1.22.7l22.5-13a2.7,2.7,0,0,0,1.22-2.11V6.76c0-.78-.55-1.1-1.22-.71Z"/>
            <path class="cls-11" d="M38.51,54.82V6.43L16.65,19.05a2.7,2.7,0,0,0-1.22,2.11V69.55L37.29,56.93A2.72,2.72,0,0,0,38.51,54.82Z"/>
            <path class="cls-12" d="M26.05,11.37l3.7-2.14c.23-.13.4,0,.4.2a.88.88,0,0,1-.4.67l-3.7,2.13c-.23.13-.4,0-.4-.2A.85.85,0,0,1,26.05,11.37Z"/>
            <path class="cls-12" d="M32.41,7.69c.2-.12.37,0,.37.21a.8.8,0,0,1-.37.65c-.21.12-.38,0-.38-.21A.81.81,0,0,1,32.41,7.69Z"/>
            <path class="cls-12" d="M33.91,6.82c.21-.12.38,0,.38.22a.87.87,0,0,1-.38.65c-.21.12-.38,0-.38-.22A.85.85,0,0,1,33.91,6.82Z"/>
            <path class="cls-12" d="M21.89,13.76c.21-.12.38,0,.38.22a.87.87,0,0,1-.38.65.23.23,0,0,1-.38-.22A.85.85,0,0,1,21.89,13.76Z"/>
            <path class="cls-12" d="M23.39,12.89c.21-.12.38,0,.38.22a.85.85,0,0,1-.38.65c-.2.12-.37,0-.37-.22A.83.83,0,0,1,23.39,12.89Z"/>
        </g>
    </g>
    <g id="freepik--window-2--inject-10">
        <g id="freepik--Window--inject-10">
            <g id="freepik--window--inject-10-2">
                <path class="cls-2" d="M43.21,7.88,20.57,20.94a1.15,1.15,0,0,0-.51.87V72.09a1.15,1.15,0,0,0,.51.87l.32.19a1.17,1.17,0,0,0,1,0L44.55,60.07a1.15,1.15,0,0,0,.51-.89V8.93a1.1,1.1,0,0,0-.51-.87l-.32-.18A1.08,1.08,0,0,0,43.21,7.88Z"/>
                <path class="cls-10" d="M45.06,59.24a1.15,1.15,0,0,1-.71,1L22.11,73c-.39.23-.71,0-.71-.41V22.8h0a1.43,1.43,0,0,1,.7-1.22L44.35,8.73A.46.46,0,0,1,45,8.9h0a.42.42,0,0,1,.07.24h0Z"/>
                <path class="cls-2" d="M44.59,8.87h0a.27.27,0,0,1,.29.25h0V59.24c0,.29-.19.55-.62.78L22,72.87a.38.38,0,0,1-.21.07c-.17,0-.2-.19-.2-.3V22.8a1.21,1.21,0,0,1,.6-1L44.46,8.91a.33.33,0,0,1,.13,0m0-.2a.46.46,0,0,0-.23.06L22.1,21.58a1.44,1.44,0,0,0-.71,1.22V72.64c0,.31.16.5.39.5a.71.71,0,0,0,.32-.1L44.35,60.2a1.14,1.14,0,0,0,.7-1V9.14a.47.47,0,0,0-.46-.47Z"/>
                <path class="cls-19" d="M45.06,8.94v.2a.47.47,0,0,0-.47-.47h0a.5.5,0,0,0-.24.06L22.1,21.59a1.34,1.34,0,0,0-.52.51h0l-1.37-.79a1,1,0,0,1,.36-.39L43.2,7.87a1.17,1.17,0,0,1,1,0l.32.18A1.15,1.15,0,0,1,45.06,8.94Z"/>
                <path class="cls-4" d="M25.75,22.3v-.2l-.26.15s0,0,0,0V22.1l.27-.74v0h0l0,0h0s0,0,0,0v.58l.06,0h0V22a0,0,0,0,1,0,0l-.06,0v.21l0,0,0,0Zm0-.35v-.41l-.19.51Z"/>
                <path class="cls-4" d="M26.05,22a.57.57,0,0,1-.08-.34,1.25,1.25,0,0,1,.08-.42.51.51,0,0,1,.21-.25l.1,0h.08v0l0,.09v0h0a.14.14,0,0,0-.13,0,.35.35,0,0,0-.15.17.7.7,0,0,0-.05.32.43.43,0,0,0,.05.25.1.1,0,0,0,.14,0l.06-.05.05-.05V21.5l-.1.07h0v-.12l0,0,.17-.1h0a0,0,0,0,1,0,0v.45a.53.53,0,0,1-.21.21.14.14,0,0,1-.2,0S26.06,22,26.05,22Z"/>
                <path class="cls-4" d="M28.21,20.71a.4.4,0,0,1-.14.32c-.08,0-.15,0-.15-.15a.37.37,0,0,1,.15-.31C28.14,20.52,28.21,20.58,28.21,20.71Z"/>
                <path class="cls-4" d="M28.07,20.19a.89.89,0,0,0-.35.52.11.11,0,0,0,0,.11h0s.07,0,.09-.08a.62.62,0,0,1,.24-.37.16.16,0,0,1,.23.05l0,0s.05,0,.08,0h0a.14.14,0,0,0,0-.11.23.23,0,0,0-.28-.17h0Z"/>
                <path class="cls-4" d="M28.07,19.82a1.47,1.47,0,0,0-.54.76.24.24,0,0,0,0,.12h0s.07,0,.09-.08a1.2,1.2,0,0,1,.44-.6.31.31,0,0,1,.41.06l0,.06s.06,0,.08,0h0a.15.15,0,0,0,0-.13.35.35,0,0,0-.46-.19h0Z"/>
                <path class="cls-4" d="M33.13,17.41h0s0,0,0,0v.19l0,0-.09.05h0v-.2l0,0Zm0,.53h0a0,0,0,0,1,0,0v.18s0,0,0,0l-.09,0h0V18l0,0Z"/>
                <path class="cls-4" d="M33.66,17.87h0v-.21l-.29.18h0a0,0,0,0,1,0,0V17.7a0,0,0,0,1,0,0s0,0,0,0l.29-.76s0,0,0-.06l.07,0h0v.65l.08-.05m0,0s0,0,0,0v.15l0,0-.08.05v.22l0,0Zm-.24.11v-.33l-.17.43Z"/>
                <path class="cls-4" d="M32.63,18.45h0v-.21l-.3.18h0a0,0,0,0,1,0,0v-.15a0,0,0,0,1,0,0l.29-.76,0-.06.08,0h0V18l.08,0h0v.17l0,0-.08.05v.22s0,0,0,0Zm0-.4v-.33l-.17.43Z"/>
                <path class="cls-4" d="M34,16.62v0l0,0,.37-.2h0s0,0,0,0v.11a0,0,0,0,1,0,0,0,0,0,0,1,0,0l-.29.16v.2a.12.12,0,0,1,0-.05l.05,0,.1,0,.08,0a.14.14,0,0,1,0,.08.34.34,0,0,1,0,.14.55.55,0,0,1,0,.18.88.88,0,0,1,0,.15.31.31,0,0,1-.09.11l-.09.08-.12,0a.11.11,0,0,1-.08,0,.18.18,0,0,1,0-.07.36.36,0,0,1,0-.1v0l0,0,.08,0h0v0s0,0,0,0l0,0h0l0,0a.22.22,0,0,0,.09-.1.28.28,0,0,0,0-.15.11.11,0,0,0,0-.09.07.07,0,0,0-.09,0l0,0,0,0,0,0,0,0-.09.05h0s0,0,0,0Z"/>
                <polygon class="cls-4" points="22.91 24.06 22.91 23.74 23.18 23.58 23.18 23.9 22.91 24.06"/>
                <polygon class="cls-4" points="23.32 23.82 23.32 23.19 23.59 23.03 23.59 23.66 23.32 23.82"/>
                <polygon class="cls-4" points="23.73 23.58 23.73 22.63 24 22.47 24 23.43 23.73 23.58"/>
                <polygon class="cls-4" points="24.14 23.34 24.14 22.08 24.42 21.92 24.42 23.19 24.14 23.34"/>
                <path class="cls-4" d="M43.39,11.2a.07.07,0,0,0-.09,0h0l-1,.58a.39.39,0,0,0-.12.31v.58a.37.37,0,0,0,.05.18.08.08,0,0,0,0,0h.06l1-.58a.36.36,0,0,0,.12-.31v-.58A.26.26,0,0,0,43.39,11.2Zm-1.16,1.55a.19.19,0,0,1,0-.08v-.58a.3.3,0,0,1,.09-.24l1-.58h0l0,0a.11.11,0,0,1,0,.08V12a.27.27,0,0,1-.09.24l-1,.58h0Z"/>
                <path class="cls-4" d="M42.49,11.85v.68l-.16.09a0,0,0,0,1,0,0h0v-.53a.22.22,0,0,1,.07-.17Z"/>
                <polygon class="cls-4" points="42.56 11.8 42.76 11.69 42.76 12.37 42.56 12.48 42.56 11.8"/>
                <polygon class="cls-4" points="42.83 11.65 43.02 11.54 43.02 12.22 42.83 12.33 42.83 11.65"/>
                <path class="cls-4" d="M43.29,11.43v.49a.25.25,0,0,1-.13.22l-.06,0V11.5l.15-.09h0Z"/>
                <path class="cls-4" d="M43.47,11.37s.06.06.06.18v.11a.37.37,0,0,1-.06.25l0,0V11.4Z"/>
                <polygon class="cls-4" points="40.59 13.11 41.59 12.22 41.28 13.52 41.14 12.98 40.59 13.11"/>
            </g>
            <path class="cls-5" d="M24.89,54.16l16.67-9.62a.86.86,0,0,0,.41-.69v-27c0-.25-.18-.35-.41-.23L24.89,26.26a.89.89,0,0,0-.41.69v27C24.49,54.19,24.67,54.29,24.89,54.16Z"/>
            <path class="cls-15" d="M24.89,54.16l16.67-9.62a.86.86,0,0,0,.41-.69v-27c0-.25-.18-.35-.41-.23L24.89,26.26a.89.89,0,0,0-.41.69v27C24.49,54.19,24.67,54.29,24.89,54.16Z"/>
            <path class="cls-5" d="M24.43,57.41a1.61,1.61,0,0,1,.75-1.23l6.86-4c.41-.23.74-.07.74.38A1.6,1.6,0,0,1,32,53.84l-6.87,3.95C24.76,58,24.43,57.86,24.43,57.41Z"/>
            <path class="cls-20" d="M24.43,57.41a1.61,1.61,0,0,1,.75-1.23l6.86-4c.41-.23.74-.07.74.38A1.6,1.6,0,0,1,32,53.84l-6.87,3.95C24.76,58,24.43,57.86,24.43,57.41Z"/>
            <path class="cls-11" d="M34.29,55.73c0,.23.17.31.37.19l.65-.37a.8.8,0,0,0,.37-.62c0-.22-.16-.31-.37-.19l-.65.39A.8.8,0,0,0,34.29,55.73Z"/>
            <path class="cls-11" d="M36.38,54.55c0,.22.17.29.37.19l.65-.38a.8.8,0,0,0,.37-.61c0-.22-.17-.31-.37-.19l-.65.38A.77.77,0,0,0,36.38,54.55Z"/>
            <path class="cls-11" d="M38.47,53.32c0,.23.16.29.37.19l.65-.37a.83.83,0,0,0,.37-.62c0-.22-.17-.3-.37-.18l-.65.37A.75.75,0,0,0,38.47,53.32Z"/>
            <path class="cls-11" d="M40.56,52.12c0,.22.17.31.37.19l.65-.38a.77.77,0,0,0,.37-.61c0-.22-.16-.29-.37-.19l-.65.37A.83.83,0,0,0,40.56,52.12Z"/>
            <g id="freepik--add-to-bag-box--inject-10">
                <path class="cls-5" d="M24.81,64.59l12.47-7.21c.21-.11.37,0,.37.21V60a.8.8,0,0,1-.37.64L24.81,67.8c-.21.12-.38,0-.38-.21V65.23A.84.84,0,0,1,24.81,64.59Z"/>
                <path class="cls-11" d="M25.53,59.64a.41.41,0,0,1,.19,0,.27.27,0,0,1,.14.08.38.38,0,0,1,.09.13A.45.45,0,0,1,26,60a.11.11,0,0,1,0,.08.1.1,0,0,1,0,0l-.16.09s-.05,0-.06,0,0,0,0,0a.2.2,0,0,0-.11-.09.25.25,0,0,0-.2.06.63.63,0,0,0-.21.19l-.06.12a.69.69,0,0,0,0,.13.21.21,0,0,0,0,.12.07.07,0,0,0,.07,0h.15l.2,0,.23,0a.44.44,0,0,1,.16.06.29.29,0,0,1,.08.14,1,1,0,0,1,0,.25.84.84,0,0,1,0,.27,1.08,1.08,0,0,1-.25.51l-.22.22v.23a.19.19,0,0,1,0,.08.1.1,0,0,1,0,.05l-.18.11h-.05a.07.07,0,0,1,0-.06v-.24a.34.34,0,0,1-.2,0,.27.27,0,0,1-.15,0,.23.23,0,0,1-.1-.12.54.54,0,0,1-.05-.22.19.19,0,0,1,0-.07.09.09,0,0,1,0-.06l.16-.09H25a.05.05,0,0,1,0,0,.43.43,0,0,0,0,.07l.06.05h.1a.59.59,0,0,0,.14-.06l.14-.1.11-.11a.61.61,0,0,0,.07-.14.37.37,0,0,0,0-.15.17.17,0,0,0,0-.1.1.1,0,0,0-.1,0l-.16,0-.22,0a.67.67,0,0,1-.2,0,.2.2,0,0,1-.14-.06A.28.28,0,0,1,24.8,61a.92.92,0,0,1,0-.52,1.14,1.14,0,0,1,.09-.26c0-.08.09-.16.14-.24a1.7,1.7,0,0,1,.19-.19v-.24a.19.19,0,0,1,0-.07.13.13,0,0,1,0-.06l.18-.1a0,0,0,0,1,0,0,.05.05,0,0,1,0,0Z"/>
                <path class="cls-11" d="M27.5,60.94a0,0,0,0,1,0,0,.14.14,0,0,1,0-.06v-.42l-.7.41a0,0,0,0,1,0,0,.14.14,0,0,1,0-.06v-.25s0-.06,0-.09l0-.1.7-1.74a.42.42,0,0,1,.09-.14l.18-.1h0a.14.14,0,0,1,0,.06v1.39l.19-.11a0,0,0,0,1,0,0s0,0,0,.05V60a.12.12,0,0,1,0,.08.1.1,0,0,1,0,0l-.19.11v.42a.19.19,0,0,1,0,.08l0,0ZM27.44,60v-.74l-.38,1Z"/>
                <path class="cls-11" d="M29,60.09s0,0,0,0a0,0,0,0,1,0-.05v-.42l-.7.41h-.05a.08.08,0,0,1,0-.05v-.35l0-.1.69-1.74a.42.42,0,0,1,.09-.14l.17-.09s0,0,.05,0a.08.08,0,0,1,0,0V59l.19-.11h0a.07.07,0,0,1,0,.06v.24a.11.11,0,0,1,0,.08.21.21,0,0,1,0,.06l-.19.11v.42a.14.14,0,0,1,0,.07s0,0-.05.06Zm-.06-.91v-.74l-.39,1Z"/>
                <path class="cls-11" d="M29.88,59.49v-.05l.29-.84a.49.49,0,0,1-.23.08.31.31,0,0,1-.19-.06.39.39,0,0,1-.12-.19.86.86,0,0,1-.05-.32,1.18,1.18,0,0,1,.05-.37,1.38,1.38,0,0,1,.12-.34,1.81,1.81,0,0,1,.19-.29.91.91,0,0,1,.24-.2.53.53,0,0,1,.24-.08.26.26,0,0,1,.19.06.36.36,0,0,1,.13.19,1.13,1.13,0,0,1,.05.32v.2a1.06,1.06,0,0,1,0,.19,1.54,1.54,0,0,0-.05.17l-.06.17-.43,1.18,0,.06-.05.05-.2.11s0,0-.05,0Zm0-1.55a.27.27,0,0,0,.08.24.16.16,0,0,0,.2,0,.56.56,0,0,0,.21-.22.62.62,0,0,0,.08-.35.27.27,0,0,0-.08-.25.22.22,0,0,0-.21,0,.57.57,0,0,0-.2.23.8.8,0,0,0-.11.34Z"/>
                <path class="cls-11" d="M31.15,58.31h0a.08.08,0,0,1,0,0v.34a.24.24,0,0,1,0,.08.1.1,0,0,1,0,0l-.21.12a0,0,0,0,1,0,0s0,0,0-.05v-.35a.1.1,0,0,1,0-.07.1.1,0,0,1,0,0Z"/>
                <path class="cls-11" d="M31.6,58.48v0l.29-.82a.62.62,0,0,1-.24.08.31.31,0,0,1-.18-.07.36.36,0,0,1-.13-.19,1.12,1.12,0,0,1-.05-.31,1.5,1.5,0,0,1,.05-.37,1.26,1.26,0,0,1,.13-.34,1,1,0,0,1,.19-.29.91.91,0,0,1,.24-.2.62.62,0,0,1,.24-.08.35.35,0,0,1,.19.06.39.39,0,0,1,.12.19.89.89,0,0,1,0,.32.67.67,0,0,1,0,.2.72.72,0,0,1,0,.19,1.09,1.09,0,0,1-.05.17l-.06.17L32,58.3a.09.09,0,0,1,0,.06.07.07,0,0,1,0,0l-.21.11a0,0,0,0,1,0,0A0,0,0,0,1,31.6,58.48Zm0-1.55a.33.33,0,0,0,.08.25.2.2,0,0,0,.21,0,.52.52,0,0,0,.21-.23.59.59,0,0,0,.08-.35.24.24,0,0,0-.08-.24.18.18,0,0,0-.2,0,.66.66,0,0,0-.21.23.85.85,0,0,0-.08.35Z"/>
                <path class="cls-11" d="M33,57.69v0l.29-.83a.49.49,0,0,1-.24.08.28.28,0,0,1-.19-.07.44.44,0,0,1-.12-.18,1.19,1.19,0,0,1-.05-.32,1.5,1.5,0,0,1,.05-.37,1.4,1.4,0,0,1,.13-.34,1.12,1.12,0,0,1,.19-.29,1.16,1.16,0,0,1,.24-.2.48.48,0,0,1,.23-.07.29.29,0,0,1,.2.05.37.37,0,0,1,.12.2.81.81,0,0,1,0,.31.74.74,0,0,1,0,.21.58.58,0,0,1,0,.18,1.21,1.21,0,0,1,0,.18l-.06.17-.42,1.17a.14.14,0,0,0,0,.06.12.12,0,0,1-.05.05l-.21.12h0A.07.07,0,0,1,33,57.69Zm0-1.55a.3.3,0,0,0,.09.25.18.18,0,0,0,.2,0,.63.63,0,0,0,.21-.22.85.85,0,0,0,.08-.35.33.33,0,0,0-.08-.25.18.18,0,0,0-.21,0,.47.47,0,0,0-.2.22.73.73,0,0,0-.09.35Z"/>
                <path class="cls-14" d="M27.56,65a.19.19,0,0,1,0-.07l0,0,.14-.08h0v0a1.42,1.42,0,0,1-.13.5,1.88,1.88,0,0,1-.16.23.83.83,0,0,1-.23.19.48.48,0,0,1-.21.07.18.18,0,0,1-.15-.07.35.35,0,0,1-.12-.17,2.51,2.51,0,0,1,0-.27v-.45c0-.1,0-.21,0-.32a2.47,2.47,0,0,1,.1-.29,1.43,1.43,0,0,1,.16-.24,1.12,1.12,0,0,1,.2-.18.48.48,0,0,1,.24-.07.2.2,0,0,1,.16.05.42.42,0,0,1,.09.14.76.76,0,0,1,0,.21.06.06,0,0,1,0,.06.05.05,0,0,1,0,0l-.14.08h0a.08.08,0,0,1,0,0,.32.32,0,0,0,0-.09s0,0-.05-.06a.11.11,0,0,0-.08,0l-.12,0a.58.58,0,0,0-.12.1.64.64,0,0,0-.08.14.88.88,0,0,0-.05.15.55.55,0,0,0,0,.18v.45a.36.36,0,0,0,0,.14.14.14,0,0,0,.05.1.11.11,0,0,0,.08,0,.27.27,0,0,0,.12,0l.12-.1a.44.44,0,0,0,.08-.11.67.67,0,0,0,.06-.12A.61.61,0,0,0,27.56,65Z"/>
                <path class="cls-14" d="M28.93,64.74v.06a.08.08,0,0,1,0,0l-.13.08a0,0,0,0,1,0,0,0,0,0,0,1,0,0V64.2a.46.46,0,0,0-.05-.23s-.08,0-.15,0a.28.28,0,0,0-.14.18.72.72,0,0,0-.06.29v.68a.06.06,0,0,1,0,.06l0,0-.16.07h0a0,0,0,0,1,0,0V63.49a.06.06,0,0,1,0-.06l0,0,.13-.07h0v.62a.87.87,0,0,1,.11-.18.44.44,0,0,1,.14-.13.35.35,0,0,1,.18-.05.19.19,0,0,1,.11.07.35.35,0,0,1,.06.16.93.93,0,0,1,0,.23Z"/>
                <path class="cls-14" d="M29.2,64a1.43,1.43,0,0,1,0-.29c0-.1.05-.19.08-.29a1.76,1.76,0,0,1,.14-.23.55.55,0,0,1,.18-.16.34.34,0,0,1,.17-.05.27.27,0,0,1,.14.07.38.38,0,0,1,.08.17,1,1,0,0,1,0,.25v.12a.06.06,0,0,1,0,.06.05.05,0,0,1,0,0l-.58.33a.44.44,0,0,0,0,.1.1.1,0,0,0,0,0h.06a.11.11,0,0,0,.08,0,.31.31,0,0,0,.09-.07l.06-.07,0,0,0,0,.14-.08a0,0,0,0,1,0,0v0L30,64a1.09,1.09,0,0,1-.08.15.74.74,0,0,1-.12.17.75.75,0,0,1-.17.14.29.29,0,0,1-.18,0,.2.2,0,0,1-.15-.06.37.37,0,0,1-.08-.18A.86.86,0,0,1,29.2,64Zm.43-.64a.16.16,0,0,0-.09.07l-.06.09a.19.19,0,0,0,0,.1.14.14,0,0,1,0,.1l.4-.23v-.08l0-.06a.07.07,0,0,0-.06,0A.1.1,0,0,0,29.63,63.32Z"/>
                <path class="cls-14" d="M30.51,63.11v.19a.69.69,0,0,0,0,.13.15.15,0,0,0,0,.06.07.07,0,0,0,.06,0l.07,0,.08-.06s0,0,.05-.06l0-.06,0-.08s0,0,0-.06,0,0,0,0l.13-.08h0v0l0,.16a.7.7,0,0,1-.08.2.92.92,0,0,1-.13.21.74.74,0,0,1-.19.16.34.34,0,0,1-.17,0,.16.16,0,0,1-.13-.06.24.24,0,0,1-.09-.14.52.52,0,0,1,0-.21v-.2a.75.75,0,0,1,0-.26,1.83,1.83,0,0,1,.08-.25.9.9,0,0,1,.14-.2.61.61,0,0,1,.17-.15.33.33,0,0,1,.19-.06.21.21,0,0,1,.13,0,.23.23,0,0,1,.08.11l0,.12v.06l0,0L31,62.8h0l0,0,0,0,0,0h-.05l-.08,0-.07.05-.06.09a.5.5,0,0,0,0,.13A.36.36,0,0,0,30.51,63.11Z"/>
                <path class="cls-14" d="M31.64,62.71v.47a0,0,0,0,1,0,0s0,0,0,0l-.13.08h0a0,0,0,0,1,0,0V61.57a.06.06,0,0,1,0-.06s0,0,0,0l.13-.08h0s0,0,0,0v.85l.29-.53,0,0,0,0,.18-.1a0,0,0,0,1,0,0h0v.11l-.42.72.45.4h0v.08l0,0L32,63A0,0,0,0,1,32,63h0Z"/>
                <path class="cls-14" d="M32.82,61.15a.34.34,0,0,1,.17,0,.23.23,0,0,1,.14,0,.42.42,0,0,1,.09.14,1.18,1.18,0,0,1,0,.2v.27a1.19,1.19,0,0,1,0,.26.9.9,0,0,1-.08.23.77.77,0,0,1-.14.21.61.61,0,0,1-.17.15.34.34,0,0,1-.17,0,.19.19,0,0,1-.14,0,.3.3,0,0,1-.09-.13,1.55,1.55,0,0,1,0-.21V62c0-.08,0-.16,0-.25l.09-.24a.9.9,0,0,1,.14-.2A.5.5,0,0,1,32.82,61.15Zm.2.48a.5.5,0,0,0,0-.12.1.1,0,0,0,0-.06.08.08,0,0,0-.07,0l-.07,0-.07.05s-.05,0-.06.08a.61.61,0,0,0,0,.12l0,.15v.24a.42.42,0,0,0,0,.12s0,0,0,.06a.06.06,0,0,0,.06,0,.09.09,0,0,0,.07,0,.18.18,0,0,0,.07-.05.27.27,0,0,0,.07-.08A.61.61,0,0,0,33,62a.77.77,0,0,0,0-.15v-.19A0,0,0,0,0,33,61.63Z"/>
                <path class="cls-14" d="M33.53,60.84v-.06a.08.08,0,0,1,0,0l.13-.08h0v.72a.45.45,0,0,0,0,.23s.08.06.15,0a.32.32,0,0,0,.14-.18.93.93,0,0,0,0-.29v-.67a.06.06,0,0,1,0-.06l0,0,.13-.08h0v1.35l0,0-.13.08a0,0,0,0,1,0,0,0,0,0,0,1,0,0v-.06a1.4,1.4,0,0,1-.1.16.43.43,0,0,1-.14.13.28.28,0,0,1-.18.06.21.21,0,0,1-.11-.08.44.44,0,0,1-.06-.16,2,2,0,0,1,0-.23Z"/>
                <path class="cls-14" d="M35,60.81a.27.27,0,0,0,0,.12s.06,0,.11,0l.11-.06h0v.28l0,0-.13.07c-.11.07-.2.08-.25,0a.39.39,0,0,1-.09-.33v-.58l-.12.07h0v-.27l0,0,.12-.06v-.44a.06.06,0,0,1,0-.06l0,0,.13-.07h0a0,0,0,0,1,0,0v.43l.23-.12h0a0,0,0,0,1,0,0V60a.09.09,0,0,1,0,.07l0,0-.23.13Z"/>
            </g>
            <path class="cls-11" d="M34.82,51.13v1.5c0,.14.09.2.22.13l6.67-3.86a.49.49,0,0,0,.23-.39V47c0-.15-.1-.21-.23-.13L35,50.73A.47.47,0,0,0,34.82,51.13Z"/>
            <g id="freepik--stars--inject-10">
                <path class="cls-5" d="M36,50.64l.11.23s0,0,0,0h0l.25-.09s0,0,0,.09l-.17.33a.06.06,0,0,0,0,.06l0,.3s0,.11-.07.1l-.22,0s0,0,0,0l-.22.29s-.08,0-.07,0l0-.34v-.05l-.17-.13s0-.09,0-.12l.25-.19a.09.09,0,0,0,0-.06l.11-.35C35.89,50.64,35.94,50.61,36,50.64Z"/>
                <path class="cls-5" d="M37.19,49.94l.11.23s0,0,0,0h0l.24-.09s.06,0,0,.09l-.18.33a.13.13,0,0,0,0,.06l0,.29c0,.05,0,.11-.07.11l-.21,0a.05.05,0,0,0-.05,0l-.22.27s-.07,0-.07,0l.05-.34v0l-.18-.13s0-.09,0-.12L37,50.4a.05.05,0,0,0,0,0l.11-.36C37.12,49.93,37.17,49.91,37.19,49.94Z"/>
                <path class="cls-5" d="M38.42,49.23l.11.24s0,0,0,0h0l.25-.09s0,0,0,.09l-.17.33a.1.1,0,0,0,0,.07l0,.29s0,.11-.07.1l-.21,0a0,0,0,0,0,0,0l-.21.29s-.08,0-.07,0l0-.34a.07.07,0,0,0,0,0L37.92,50s0-.09,0-.12l.25-.19a.05.05,0,0,0,0-.05l.11-.36C38.36,49.22,38.41,49.2,38.42,49.23Z"/>
                <path class="cls-5" d="M39.66,48.53l.11.23a0,0,0,0,0,0,0l.25-.09s.05,0,0,.09l-.18.33v.07l0,.29s0,.11-.06.1l-.22,0,0,0-.21.29s-.08,0-.07,0l0-.35a.07.07,0,0,0,0,0l-.18-.13s0-.09,0-.12l.24-.19a.1.1,0,0,0,0-.05l.1-.36C39.59,48.52,39.64,48.49,39.66,48.53Z"/>
                <path class="cls-5" d="M40.89,47.82l.11.23a0,0,0,0,0,0,0h0l.24-.09s.06,0,0,.09l-.18.33a.09.09,0,0,0,0,.07l0,.29s0,.1-.07.1l-.22,0a0,0,0,0,0,0,0l-.22.29s-.07,0-.07,0l0-.34a0,0,0,0,0,0,0l-.17-.13s0-.09,0-.12l.25-.19a.09.09,0,0,0,0-.06l.11-.35S40.87,47.78,40.89,47.82Z"/>
            </g>
            <g id="freepik--heart-box--inject-10">
                <path class="cls-14" d="M39.48,56l2.09-1.21c.2-.12.37,0,.37.22V57.4a.82.82,0,0,1-.37.65l-2.09,1.2c-.2.12-.38,0-.38-.21V56.62A.84.84,0,0,1,39.48,56Z"/>
            </g>
            <path class="cls-5" d="M39.56,57.29a1.39,1.39,0,0,1,.12-.57h0a.91.91,0,0,1,.36-.46c.24-.15.45.15.48.49A1.58,1.58,0,0,1,41,55.69a.26.26,0,0,1,.36,0h0a.61.61,0,0,1,.13.41,3.82,3.82,0,0,1-.65,1.68l-.32.55-.31-.18C39.91,58,39.56,57.87,39.56,57.29Z"/>
            <path class="cls-11" d="M26.22,46.31c.23-.07.11-1.94.08-4s.1-5.08.1-5.08a34.33,34.33,0,0,0-.72,6C25.57,45.21,25.9,45.89,26.22,46.31Z"/>
            <path class="cls-4" d="M26,37.25c-.37,1.68-.87,7.87-.58,9.23l.84-.17s-.32-.4-.32-2.62a37.91,37.91,0,0,1,.53-6.55Z"/>
            <path class="cls-12" d="M26.33,37.32l-.34,0a10,10,0,0,1,1.93-4.57l.24.24A9.83,9.83,0,0,0,26.33,37.32Z"/>
            <path class="cls-5" d="M26.31,37.68l-.43,0c-.07,0-.1-.1-.07-.23l.15-.63c0-.12.13-.21.21-.2l.42,0c.08,0,.11.11.07.23l-.14.63C26.48,37.58,26.4,37.68,26.31,37.68Z"/>
            <path class="cls-18" d="M26.31,37.68l-.43,0c-.07,0-.1-.1-.07-.23l.15-.63c0-.12.13-.21.21-.2l.42,0c.08,0,.11.11.07.23l-.14.63C26.48,37.58,26.4,37.68,26.31,37.68Z"/>
            <path class="cls-4" d="M40.58,27.34v9.22a3,3,0,0,1-1.24,2.37l-8.89,5.13V31.53l8.89-5.12C40,26,40.58,26.43,40.58,27.34Z"/>
            <path class="cls-11" d="M37.53,26.7,38.75,26c.14-.08.26,0,.26.21v.41l-1.74,1V27.2A.59.59,0,0,1,37.53,26.7Z"/>
            <path class="cls-11" d="M33.34,39.65l-.23-7.47a1.87,1.87,0,0,0-.81-1.72l-1.85,1.08V44.08l1.6-.92A5.64,5.64,0,0,0,33.34,39.65Z"/>
            <path class="cls-4" d="M32.79,40a5.3,5.3,0,0,1-2.2,4.29l-1.83,1.06c-1.23.71-2.24-.08-2.2-1.74l.23-7.73A5.29,5.29,0,0,1,29,31.73l1.38-.79c1.19-.69,2.16,0,2.2,1.57Z"/>
            <path class="cls-11" d="M32.54,41.58a4.83,4.83,0,0,1-1.95,2.66l-1.82,1.07c-1.24.71-2.24-.08-2.2-1.74l.22-7.73A5.27,5.27,0,0,1,29,31.73l.21-.11c-1.35.76-1.41,3.63-1.41,8.19,0,1.48-.15,3.25.52,4,.53.6,1.57.19,2.45-.29A3.91,3.91,0,0,0,32.54,41.58Z"/>
            <path class="cls-2" d="M28.37,36.33l-.55.32c-.14.08-.26,0-.26-.2v-1.9a.65.65,0,0,1,.26-.5l.55-.32c.15-.08.27,0,.27.21v1.89A.62.62,0,0,1,28.37,36.33Z"/>
            <path class="cls-1" d="M28.21,35.67l-.35.2c-.09.05-.17,0-.17-.13V34.53a.37.37,0,0,1,.17-.31l.35-.21c.09,0,.16,0,.16.13v1.19A.41.41,0,0,1,28.21,35.67Z"/>
            <path class="cls-5" d="M27.87,37.08l.46-.26c.17-.1.31,0,.31.24h0a.78.78,0,0,1-.31.6l-.46.26c-.17.1-.31,0-.31-.24h0A.75.75,0,0,1,27.87,37.08Z"/>
            <ellipse class="cls-12" cx="36.75" cy="34.64" rx="5.83" ry="3.3" transform="translate(-9.51 54.89) rotate(-66.95)"/>
            <ellipse class="cls-4" cx="36.75" cy="34.64" rx="5.51" ry="3.12" transform="translate(-9.51 54.89) rotate(-66.95)"/>
            <ellipse class="cls-12" cx="36.75" cy="34.46" rx="3.3" ry="1.87" transform="translate(-9.35 54.78) rotate(-66.95)"/>
            <ellipse class="cls-11" cx="36.75" cy="34.46" rx="2.62" ry="1.48" transform="translate(-9.35 54.78) rotate(-66.95)"/>
            <path class="cls-2" d="M37.93,32.9a1.15,1.15,0,0,1-.49.93c-.26.16-.48,0-.48-.37a1.15,1.15,0,0,1,.48-.93C37.72,32.38,37.93,32.54,37.93,32.9Z"/>
            <path class="cls-2" d="M38.14,33.84a.5.5,0,0,1-.21.39c-.12.07-.21,0-.21-.15a.52.52,0,0,1,.21-.4C38,33.61,38.14,33.69,38.14,33.84Z"/>
            <path class="cls-10" d="M39.69,28.07l-.75.43c-.19.11-.35,0-.35-.26h0a.87.87,0,0,1,.35-.66l.75-.43c.19-.11.34,0,.34.26h0A.82.82,0,0,1,39.69,28.07Z"/>
            <path class="cls-21" d="M39.9,33.18a3.28,3.28,0,0,0-.5-2.91,1.54,1.54,0,0,0-1.1-.51c-.13,0-1.21.12-1,.69a.17.17,0,0,0,.13.1,4.84,4.84,0,0,1,.65.19,2.56,2.56,0,0,1,1.23,2.39,1.41,1.41,0,0,0,.05.46.17.17,0,0,0,.2.13h0a.12.12,0,0,0,.08,0A1,1,0,0,0,39.9,33.18Z"/>
            <path class="cls-21" d="M39,34.82a.84.84,0,0,1,.35-.68c.21-.12.36,0,.36.27a.82.82,0,0,1-.36.68C39.17,35.22,39,35.09,39,34.82Z"/>
        </g>
    </g>
    <g id="freepik--window-1--inject-10">
        <g id="freepik--window--inject-10-3">
            <g id="freepik--window--inject-10-4">
                <path class="cls-2" d="M61.54,6.92,38.91,20a1.13,1.13,0,0,0-.51.87V71.13a1.11,1.11,0,0,0,.51.87l.32.18a1.08,1.08,0,0,0,1,0L62.89,59.11a1.15,1.15,0,0,0,.51-.89V8a1.1,1.1,0,0,0-.51-.87l-.32-.18A1.1,1.1,0,0,0,61.54,6.92Z"/>
                <path class="cls-10" d="M63.39,58.28a1.13,1.13,0,0,1-.7.95L40.44,72.08c-.39.22-.71,0-.71-.41V21.84h0a1.4,1.4,0,0,1,.71-1.22L62.69,7.76a.47.47,0,0,1,.64.17h0a.53.53,0,0,1,.06.24h0Z"/>
                <path class="cls-2" d="M62.92,7.9h0a.27.27,0,0,1,.27.27V58.28c0,.29-.18.54-.6.78L40.33,71.91a.44.44,0,0,1-.22.07c-.16,0-.19-.19-.19-.31V21.84a1.23,1.23,0,0,1,.6-1.05L62.77,7.94a.23.23,0,0,1,.14,0m0-.2a.46.46,0,0,0-.23.06L40.44,20.62a1.4,1.4,0,0,0-.7,1.22V71.67c0,.32.16.5.39.5a.56.56,0,0,0,.31-.09L62.69,59.23a1.14,1.14,0,0,0,.71-.95V8.17a.47.47,0,0,0-.47-.47h0Z"/>
                <path class="cls-19" d="M63.39,8v.2a.47.47,0,0,0-.47-.47.46.46,0,0,0-.23.06L40.44,20.62a1.3,1.3,0,0,0-.52.52h0l-1.37-.8a1,1,0,0,1,.36-.39l22.64-13a1.08,1.08,0,0,1,1,0l.32.18A1.11,1.11,0,0,1,63.39,8Z"/>
                <path class="cls-4" d="M44.08,21.33v-.19l-.26.14a0,0,0,0,1,0,0v-.11l.28-.74a0,0,0,0,1,0,0l0,0,0,0h0s0,0,0,0V21l.06,0h0V21l0,0-.06,0v.16a0,0,0,0,1,0,0l0,0,0,0S44.08,21.34,44.08,21.33Zm0-.34v-.41l-.18.52Z"/>
                <path class="cls-4" d="M44.39,21.06a.5.5,0,0,1-.07-.34,1,1,0,0,1,.07-.41.51.51,0,0,1,.21-.25.2.2,0,0,1,.08,0h.08v0l0,.08v0h0a.22.22,0,0,0-.14,0,.49.49,0,0,0-.14.18.67.67,0,0,0-.05.31.36.36,0,0,0,.05.25s.08,0,.14,0l.06,0,.05-.06v-.26l-.11.06h0v-.12l0,0,.17-.1h0v.48a.58.58,0,0,1-.2.21A.16.16,0,0,1,44.39,21.06Z"/>
                <path class="cls-4" d="M46.55,19.75a.37.37,0,0,1-.15.31c-.08.05-.15,0-.15-.14a.41.41,0,0,1,.15-.32C46.48,19.56,46.55,19.62,46.55,19.75Z"/>
                <path class="cls-4" d="M46.4,19.23a.94.94,0,0,0-.35.52.12.12,0,0,0,0,.1h0s.07,0,.09-.07a.62.62,0,0,1,.24-.37.16.16,0,0,1,.22,0h0l0,.06s.05,0,.08,0h0a.13.13,0,0,0,0-.12.23.23,0,0,0-.28-.16h0S46.42,19.22,46.4,19.23Z"/>
                <path class="cls-4" d="M46.4,18.86a1.41,1.41,0,0,0-.53.76.24.24,0,0,0,0,.12h0s.07,0,.09-.08a1.11,1.11,0,0,1,.43-.61.28.28,0,0,1,.4.06l0,.05s.06,0,.09,0h0a.15.15,0,0,0,0-.13.36.36,0,0,0-.46-.19h0Z"/>
                <path class="cls-4" d="M51.45,16.45h0v.2s0,0,0,0l-.09.05m0,0v-.21l0,0Zm.11.25h0v.2s0,0,0,0l-.09.05h0v-.21l0,0Z"/>
                <path class="cls-4" d="M52,16.91h0V16.7l-.31.17h0s0,0,0,0v-.11a0,0,0,0,1,0,0v0l.29-.76s0,0,0-.06l.07,0h0v.64l.09-.05h0v.13a0,0,0,0,1,0,0v0l-.09.05v.21s0,0,0,0Zm0-.4v-.34l-.17.43Z"/>
                <path class="cls-4" d="M50.94,17.49v-.21l-.3.17m0,0v-.17a.05.05,0,0,1,0,0l.29-.75a.1.1,0,0,1,0-.07l.07,0h0V17l.08-.05h0v.17l0,0-.08.05v.22l0,0Zm.32-.36v-.33l-.16.42Z"/>
                <path class="cls-4" d="M52.37,15.67v0s0,0,0,0l.37-.2h0v.16a0,0,0,0,1,0,0l-.29.16V16l.06-.05,0,0,.1,0a.11.11,0,0,1,.08,0,.12.12,0,0,1,.06.08.59.59,0,0,1,0,.13.88.88,0,0,1,0,.17.47.47,0,0,1-.06.15.44.44,0,0,1-.08.11.39.39,0,0,1-.1.08.28.28,0,0,1-.12,0,.08.08,0,0,1-.08,0,.18.18,0,0,1,0-.07s0-.06,0-.1v0s0,0,0,0l.08,0h0v0s0,0,0,0l0,0h.05l0,0a.22.22,0,0,0,.09-.1.33.33,0,0,0,0-.15.08.08,0,0,0,0-.09.07.07,0,0,0-.09,0l-.05,0,0,0,0,0a0,0,0,0,1,0,0l-.09,0s0,0,0,0v0Z"/>
                <polygon class="cls-4" points="41.24 23.09 41.24 22.78 41.52 22.62 41.52 22.94 41.24 23.09"/>
                <polygon class="cls-4" points="41.65 22.86 41.65 22.23 41.93 22.07 41.93 22.7 41.65 22.86"/>
                <polygon class="cls-4" points="42.06 22.62 42.06 21.67 42.34 21.51 42.34 22.46 42.06 22.62"/>
                <polygon class="cls-4" points="42.48 22.38 42.48 21.12 42.75 20.96 42.75 22.23 42.48 22.38"/>
                <path class="cls-4" d="M61.73,10.24a.08.08,0,0,0-.11,0l-1,.58a.39.39,0,0,0-.12.31v.58a.31.31,0,0,0,.05.18.08.08,0,0,0,0,0h.06l1-.58a.37.37,0,0,0,.12-.31v-.58A.31.31,0,0,0,61.73,10.24Zm-1.16,1.55a.19.19,0,0,1,0-.08v-.58a.34.34,0,0,1,.09-.24l1-.58h0a.12.12,0,0,1,0,.08V11a.27.27,0,0,1-.09.24l-1,.58a0,0,0,0,1,0,0Z"/>
                <path class="cls-4" d="M60.82,10.88v.68l-.16.1h0v-.53A.21.21,0,0,1,60.7,11Z"/>
                <polygon class="cls-4" points="60.9 10.84 61.09 10.73 61.09 11.41 60.9 11.52 60.9 10.84"/>
                <polygon class="cls-4" points="61.17 10.69 61.36 10.58 61.36 11.26 61.17 11.37 61.17 10.69"/>
                <path class="cls-4" d="M61.62,10.47V11a.25.25,0,0,1-.12.22l-.07,0v-.68l.15-.09h0A0,0,0,0,1,61.62,10.47Z"/>
                <path class="cls-4" d="M61.8,10.41s.05.06.05.18v.11a.45.45,0,0,1-.05.25l0,0v-.55Z"/>
                <polygon class="cls-4" points="58.93 12.14 59.92 11.26 59.62 12.56 59.47 12.02 58.93 12.14"/>
            </g>
            <path class="cls-4" d="M48,28c.13-.07.23-.08.29,0a.42.42,0,0,1,.11.34,1,1,0,0,1-.11.47.67.67,0,0,1-.29.31l-.25.15v.53a.06.06,0,0,1,0,.06s0,0,0,0l-.13.08h0l0,0V28.36a.14.14,0,0,1,0-.06s0,0,0,0Zm-.24.93.24-.14a.47.47,0,0,0,.15-.13.46.46,0,0,0,0-.23c0-.09,0-.14,0-.15a.21.21,0,0,0-.15,0l-.24.14Z"/>
            <path class="cls-4" d="M49,27.43h0l0,.05.38,1.3h0v.06l0,0-.12.07h0l0,0-.06-.23-.5.29-.06.29,0,0a.1.1,0,0,1,0,0l-.11.07h0a0,0,0,0,1,0,0v0l.39-1.74a.12.12,0,0,1,0-.08s0,0,0,0Zm.09,1-.17-.58-.19.78Z"/>
            <path class="cls-4" d="M50.33,26.67s0,0,0,0a0,0,0,0,1,0,0v0L50,28v.58l0,0-.12.08h0s0,0,0,0v-.54l-.39-.79h0v-.06l0,0,.12-.07s0,0,0,0a0,0,0,0,1,0,0l.26.54.25-.82a.08.08,0,0,1,0-.05.1.1,0,0,1,0,0Z"/>
            <path class="cls-4" d="M51.07,27.11l.29-1,0-.05a.1.1,0,0,1,0-.05l.11-.06a0,0,0,0,1,0,0h0v1.64l0,0-.13.07h0v-1l-.2.66,0,0s0,0,0,0l-.08,0a0,0,0,0,1,0,0l0,0-.2-.42v1l0,0-.13.08h0V26.56l0,0,.11-.07h0l0,0Z"/>
            <path class="cls-4" d="M52.55,26.77h0a0,0,0,0,1,0,.05V27l0,0-.69.4a0,0,0,0,1,0,0V25.82l0,0,.68-.4h0v.28l0,0L52,26v.39l.49-.26s0,0,0,0h0v.26l0,0-.48.28v.4Z"/>
            <path class="cls-4" d="M53.51,26.52h0a0,0,0,0,1,0,0L53,25.75V26.8l0,0-.13.07a0,0,0,0,1,0,0,0,0,0,0,1,0,0V25.26s0,0,0,0l.11-.06h0l0,0,.44.75V24.88l0,0,.13-.07h0v1.65l0,0Z"/>
            <path class="cls-4" d="M54.64,24.17h0v.26s0,0,0,0l-.29.17V26a.06.06,0,0,1,0,.06s0,0,0,0l-.12.08h0a.08.08,0,0,1,0,0V24.76l-.29.16h0v-.26l0,0Z"/>
            <path class="cls-4" d="M55.22,23.82a.33.33,0,0,1,.19-.06.21.21,0,0,1,.13,0,.16.16,0,0,1,.08.1.27.27,0,0,1,0,.12.06.06,0,0,1,0,.06s0,0,0,0l-.11.07h0l0,0a.12.12,0,0,0-.08-.06.17.17,0,0,0-.14,0l-.08.06-.06.08a.2.2,0,0,0,0,.08.36.36,0,0,0,0,.1.13.13,0,0,0,0,.08.05.05,0,0,0,.05,0h.09l.14,0a.33.33,0,0,1,.17,0,.2.2,0,0,1,.11,0,.21.21,0,0,1,.06.1.33.33,0,0,1,0,.17.83.83,0,0,1,0,.22.72.72,0,0,1-.09.2.85.85,0,0,1-.14.19.7.7,0,0,1-.19.15.49.49,0,0,1-.17.06.17.17,0,0,1-.14,0,.22.22,0,0,1-.1-.09.47.47,0,0,1,0-.17V25.3l0,0,.1-.06h0l0,0a.08.08,0,0,0,0,.05.09.09,0,0,0,.05,0,.06.06,0,0,0,.06,0l.1,0,.09-.07a.3.3,0,0,0,.08-.08.26.26,0,0,0,0-.09.18.18,0,0,0,0-.1.11.11,0,0,0,0-.08l-.07,0-.11,0-.15,0a.33.33,0,0,1-.14,0,.15.15,0,0,1-.09,0,.21.21,0,0,1-.06-.1.55.55,0,0,1,0-.18.83.83,0,0,1,0-.22.72.72,0,0,1,.09-.2.59.59,0,0,1,.13-.18A.75.75,0,0,1,55.22,23.82Z"/>
            <path class="cls-4" d="M41.13,25.71v0a.08.08,0,0,0,0,0l.31-.49h0m0,0s0,0,0,0v.05s0,0,0,0v0l-.25.4.25.11h0a0,0,0,0,1,0,0v.09h0l-.31-.14,0,0v0Z"/>
            <path class="cls-4" d="M42.13,24.66l.08,0h.08a.16.16,0,0,1,0,.07.25.25,0,0,1,0,.12.53.53,0,0,1-.13.36l.14.29v.07h0l0,0h0l0,0-.13-.29-.16.09v.4l0,0,0,0h0v-1l0,0Zm-.16.59.15-.1a.25.25,0,0,0,.14-.25c0-.06,0-.1,0-.11a.14.14,0,0,0-.11,0L42,24.9Z"/>
            <path class="cls-4" d="M42.89,25.1h0s0,0,0,0v.1l-.38.22h0v-1l0,0,.37-.2h0v.1l0,0-.3.18v.29l.29-.16h0s0,0,0,0v0a0,0,0,0,1,0,0,0,0,0,0,1,0,0l-.29.17v.31Z"/>
            <path class="cls-4" d="M43.45,23.9h0V24s0,0,0,0l-.18.11V25a0,0,0,0,1,0,0s0,0,0,0l0,0m0,0v-.87l-.17.1h0s0,0,0,0v0a0,0,0,0,1,0,0,0,0,0,0,1,0,0Z"/>
            <path class="cls-4" d="M44.05,23.56h0s0,0,0,0v.58a.91.91,0,0,1,0,.17.94.94,0,0,1,0,.16l-.08.13a.38.38,0,0,1-.12.09.15.15,0,0,1-.11,0,.12.12,0,0,1-.08,0,.21.21,0,0,1,0-.11.77.77,0,0,1,0-.15v-.61a0,0,0,0,1,0,0l0,0h0a0,0,0,0,1,0,0v.58a.29.29,0,0,0,0,.18s.07,0,.12,0a.33.33,0,0,0,.12-.14.59.59,0,0,0,0-.23v-.63Z"/>
            <path class="cls-4" d="M44.49,23.3a.11.11,0,0,1,.08,0h.07s0,0,0,.06a.25.25,0,0,1,0,.12.46.46,0,0,1,0,.21.38.38,0,0,1-.09.15l.14.29v.06l0,0h0l-.14-.29-.16.09v.37a0,0,0,0,1,0,0v0l0,0h0v-1l0,0Zm-.16.56.15-.09a.35.35,0,0,0,.11-.1.37.37,0,0,0,0-.15c0-.06,0-.1,0-.11s-.06,0-.11,0l-.15.09Z"/>
            <path class="cls-4" d="M45.28,23.85h0v0L45,23.3v.76l0,0m0,0s0,0,0,0v-.93a0,0,0,0,1,0,0,0,0,0,0,1,0,0H45v0l.29.53v-.74s0,0,0,0l0,0h0a0,0,0,0,1,0,0v.92a0,0,0,0,1,0,0s0,0,0,0Z"/>
            <path class="cls-5" d="M50.24,23.24a0,0,0,0,1,0,0,.09.09,0,0,1-.05-.1V21.75a.25.25,0,0,1,.11-.21l1.45-.84a.09.09,0,0,1,.1,0,.14.14,0,0,1,0,.11v1.38a.24.24,0,0,1-.11.2h0l-1.45.84Zm1.52-2.47h0l-1.45.83a.21.21,0,0,0-.07.14v1.38a0,0,0,0,0,0,0h0l1.45-.83a.17.17,0,0,0,.07-.14V20.77Z"/>
            <polygon class="cls-5" points="51.82 21.35 50.19 22.29 50.19 22.05 51.82 21.11 51.82 21.35"/>
            <path class="cls-5" d="M50.78,24.07h0s0,0,0,0v-1s0,0,.05,0,0,0,0,0h0V24l2.09-1.22V21.16l-1,.56a0,0,0,0,1-.06,0s0,0,0-.06h0l1-.58h0a.08.08,0,0,1,0,0v1.67s0,0,0,0l-2.18,1.24Z"/>
            <path class="cls-5" d="M51.09,23.67h0a.05.05,0,0,1,0,0,.15.15,0,0,0-.06-.15,0,0,0,0,0-.07,0h0a0,0,0,0,1,0,0V23a0,0,0,0,1,0,0,0,0,0,0,1,0,0h0v.4a.12.12,0,0,1,.1,0,.19.19,0,0,1,.09.16l1.45-.83a.55.55,0,0,1,.21-.41v-.58a.17.17,0,0,1-.1,0,.27.27,0,0,1-.1-.17l-.65.36a0,0,0,0,1-.06,0h0a0,0,0,0,1,0-.05h0l.7-.4s0,0,0,0a.05.05,0,0,1,0,0,.17.17,0,0,0,.06.16.09.09,0,0,0,.07,0,0,0,0,0,1,.06,0v.67a.05.05,0,0,1,0,0,.46.46,0,0,0-.18.38.05.05,0,0,1,0,0l-1.52.87Z"/>
            <path class="cls-5" d="M51.74,23.1l-.09,0a.37.37,0,0,1-.14-.34.38.38,0,0,1,0-.15s0,0,.05,0a.05.05,0,0,1,0,.05.28.28,0,0,0,0,.13.31.31,0,0,0,.1.27.17.17,0,0,0,.14,0,.75.75,0,0,0,.29-.62.31.31,0,0,0-.09-.26.12.12,0,0,0-.1,0s0,0,0,0,0,0,0,0h0a.2.2,0,0,1,.17,0,.41.41,0,0,1,.12.33.81.81,0,0,1-.32.68A.22.22,0,0,1,51.74,23.1Z"/>
            <path class="cls-5" d="M50.93,25.2a1,1,0,0,1-.47-.12,2,2,0,0,1-.73-1.84,4.82,4.82,0,0,1,1.81-3.84,1.1,1.1,0,0,1,1.12-.07,2,2,0,0,1,.74,1.84A4.8,4.8,0,0,1,51.58,25,1.23,1.23,0,0,1,50.93,25.2Zm1.26-5.91a1.22,1.22,0,0,0-.61.19,4.69,4.69,0,0,0-1.78,3.77A2,2,0,0,0,50.5,25a1,1,0,0,0,1-.07,4.73,4.73,0,0,0,1.77-3.77,2,2,0,0,0-.7-1.77.81.81,0,0,0-.41-.11Z"/>
            <path class="cls-4" d="M60.21,14.58s0,0,0,0a.05.05,0,0,1,0-.07l1.45-.83a0,0,0,0,1,.07.07h0l-1.45.84Z"/>
            <path class="cls-4" d="M60.21,15.06s0,0,0,0a0,0,0,0,1,0-.06h0l1.45-.84a.07.07,0,0,1,.07,0h0a.06.06,0,0,1,0,.07l-1.45.84Z"/>
            <path class="cls-4" d="M60.21,15.54a0,0,0,0,1-.05,0s0,0,0,0l1.45-.84a0,0,0,0,1,.07,0s0,0,0,.06h0l-1.45.84Z"/>
            <path class="cls-5" d="M41.66,34.45l0,0a.05.05,0,0,1,0-.08l20-11.54a0,0,0,0,1,.07.07h0l-20,11.55Z"/>
            <path class="cls-5" d="M41.66,46s0,0,0,0,0-.05,0-.07l20-11.54a0,0,0,0,1,.07,0h0a.07.07,0,0,1,0,.07L41.69,46Z"/>
            <path class="cls-2" d="M42.11,47.11l19.11-11c.25-.15.44,0,.44.25v.9a1,1,0,0,1-.44.77L42.11,49c-.25.14-.45,0-.45-.26v-.9A1,1,0,0,1,42.11,47.11Z"/>
            <path class="cls-4" d="M44.29,46.31v.24l-1.44.82v-.23a.19.19,0,0,1,.07-.14l1.29-.74A.05.05,0,0,1,44.29,46.31Z"/>
            <path class="cls-4" d="M42.86,47.56l1.43-.82v.65a.15.15,0,0,1-.07.13l-1.28.74s-.07,0-.07,0Z"/>
            <path class="cls-4" d="M45.12,46.18v.25a.25.25,0,0,0,0,.17.15.15,0,0,0,.13,0,.23.23,0,0,0,.07-.07l.06-.07,0-.08s0-.05,0-.08v0l0,0,0,0m0,0h0a.5.5,0,0,1,0,.12.69.69,0,0,1-.05.13l-.08.13a.4.4,0,0,1-.12.1.18.18,0,0,1-.1,0l-.09,0a.41.41,0,0,1,0-.09.77.77,0,0,1,0-.15v-.25a1,1,0,0,1,0-.17.88.88,0,0,1,0-.15.38.38,0,0,1,.09-.13.28.28,0,0,1,.1-.09.19.19,0,0,1,.12,0l.08,0a.22.22,0,0,1,.05.08.29.29,0,0,1,0,.09v0l0,0,0,0h0v-.09a.05.05,0,0,0,0,0,0,0,0,0,0-.05,0l-.07,0a.31.31,0,0,0-.13.15.45.45,0,0,0-.08.22Z"/>
            <path class="cls-4" d="M45.63,46.32a.43.43,0,0,1,0-.11.4.4,0,0,1,.1-.18.27.27,0,0,1,.08-.07l.13-.11v0a.11.11,0,0,0,0-.09,0,0,0,0,0-.07,0,.13.13,0,0,0-.07.06l0,.07s0,0,0,0h0l0,0m0,0h0v0a.19.19,0,0,1,0-.08l0-.08.06-.08.07-.05a.11.11,0,0,1,.08,0l.06,0a.16.16,0,0,1,0,.07.36.36,0,0,1,0,.11v.47l0,0,0,0h0s0,0,0,0v-.06l0,.06,0,.06,0,0,0,0-.07,0a0,0,0,0,1-.05,0,.05.05,0,0,1,0,0,.13.13,0,0,1-.06-.07Zm.11.37.07,0,.05-.07a.29.29,0,0,0,0-.09.14.14,0,0,0,0-.09v0l-.11.09-.09.1a.2.2,0,0,0,0,.11,0,0,0,0,0,0,0v0h.08Z"/>
            <path class="cls-4" d="M46.42,45.31h0v.1a0,0,0,0,1,0,0l-.05,0a.24.24,0,0,0-.11.23v.44l0,0,0,0h0v-.72l0,0,0,0h0v.07a.39.39,0,0,1,0-.09l.07-.07Z"/>
            <path class="cls-4" d="M46.71,45.12a.1.1,0,0,1,.09,0s0,0,.06,0v-.32a0,0,0,0,1,0,0,0,0,0,0,1,0,0l0,0h0a0,0,0,0,1,0,0v.95a0,0,0,0,1,0,0s0,0,0,0l0,0h0s0,0,0,0v-.05l-.06.1a.24.24,0,0,1-.09.08l-.08,0a.06.06,0,0,1-.06,0,.14.14,0,0,1,0-.08.59.59,0,0,1,0-.13v-.09a.78.78,0,0,1,0-.16.69.69,0,0,1,0-.13.3.3,0,0,1,.06-.11A.27.27,0,0,1,46.71,45.12Zm.15.37v-.12a.22.22,0,0,0,0-.13.09.09,0,0,0-.1,0,.29.29,0,0,0-.1.12.57.57,0,0,0,0,.18v.08a.22.22,0,0,0,0,.14s.06,0,.1,0a.22.22,0,0,0,.1-.11.47.47,0,0,0,0-.16Z"/>
            <path class="cls-10" d="M48.71,44.74h0v-.19l-.29.17m0,0h0v-.17l0,0,.29-.71,0-.06.07,0h0s0,0,0,0v.58l.09,0h0v.15a0,0,0,0,1,0,0l-.08,0v.21s0,0,0,0Zm.3-.35v-.31l-.16.41Z"/>
            <path class="cls-10" d="M49.32,44.4h0s0,0,0,0V44.2l-.29.17h0v-.21l.29-.71a.1.1,0,0,1,0-.05l.07,0h0V44l.08-.05h0v.16s0,0,0,0l-.08,0v.2l0,0Zm0-.38v-.31l-.16.4Z"/>
            <path class="cls-10" d="M49.92,44h0v-.19l-.29.17h0v-.2l.29-.72,0-.06L50,43h0a0,0,0,0,1,0,0v.58l.08,0h0v.15l0,0-.08.05V44a0,0,0,0,1,0,0Zm0-.37v-.31l-.16.4Z"/>
            <path class="cls-10" d="M50.51,43.69V43.5l-.29.16h0s0,0,0,0V43.5s0,0,0,0l.29-.71a.16.16,0,0,1,0-.07l.07,0m0,0a0,0,0,0,1,0,0v.58l.09,0h0s0,0,0,0v.11a0,0,0,0,1,0,0v0l-.09,0v.17a0,0,0,0,1,0,0s0,0,0,0Zm-.11.67V43l-.16.4Z"/>
            <path class="cls-10" d="M52.05,42.19v.26a.88.88,0,0,1,0,.16.83.83,0,0,1,0,.15.36.36,0,0,1-.08.12.35.35,0,0,1-.11.1.28.28,0,0,1-.12,0,.08.08,0,0,1-.07,0,.19.19,0,0,1,0-.1.66.66,0,0,1,0-.14v-.25a1,1,0,0,1,0-.17.44.44,0,0,1,0-.15A.43.43,0,0,1,51.8,42a.15.15,0,0,1,.11,0A.09.09,0,0,1,52,42a.18.18,0,0,1,0,.1A.59.59,0,0,1,52.05,42.19Zm-.38.47a.39.39,0,0,0,0,.14s0,0,.1,0a.31.31,0,0,0,.09-.11.57.57,0,0,0,0-.18v-.24a.4.4,0,0,0,0-.15s0,0-.09,0a.26.26,0,0,0-.1.11.57.57,0,0,0,0,.18v.25Z"/>
            <path class="cls-10" d="M52.65,41.84v.24a.88.88,0,0,1,0,.16.42.42,0,0,1,0,.15.32.32,0,0,1-.08.12.35.35,0,0,1-.11.1.21.21,0,0,1-.12,0,.1.1,0,0,1-.07,0,.18.18,0,0,1,0-.1.33.33,0,0,1,0-.14v-.25a.49.49,0,0,1,0-.17.42.42,0,0,1,0-.15.83.83,0,0,1,.07-.13l.12-.09a.15.15,0,0,1,.11,0,.09.09,0,0,1,.08,0,.18.18,0,0,1,0,.09A1,1,0,0,1,52.65,41.84Zm-.37.46a.27.27,0,0,0,0,.15s0,0,.09,0a.22.22,0,0,0,.09-.12.85.85,0,0,0,0-.17v-.24a.83.83,0,0,0,0-.15s-.05,0-.09,0a.22.22,0,0,0-.09.12.47.47,0,0,0,0,.17v.13a.4.4,0,0,0,0,.11Z"/>
            <path class="cls-10" d="M53.26,41.49v.26a.49.49,0,0,1,0,.17.57.57,0,0,1,0,.14.35.35,0,0,1-.08.13.31.31,0,0,1-.11.09.19.19,0,0,1-.12,0,.07.07,0,0,1-.07,0,.41.41,0,0,1-.05-.09s0-.1,0-.15v-.26c0-.05,0-.11,0-.16a.88.88,0,0,1,.05-.15.33.33,0,0,1,.07-.13.4.4,0,0,1,.12-.1l.11,0a.1.1,0,0,1,.08,0,.15.15,0,0,1,0,.09A.38.38,0,0,1,53.26,41.49Zm-.37.47a.32.32,0,0,0,0,.14s0,0,.09,0a.18.18,0,0,0,.1-.11.57.57,0,0,0,0-.18v-.24a.32.32,0,0,0,0-.14s0,0-.1,0a.2.2,0,0,0-.09.11.57.57,0,0,0,0,.18V42Z"/>
            <path class="cls-10" d="M53.88,41.13v.25c0,.06,0,.12,0,.17a.83.83,0,0,1,0,.15.47.47,0,0,1-.2.22.21.21,0,0,1-.11,0,.12.12,0,0,1-.08,0,.3.3,0,0,1,0-.1v-.56a.81.81,0,0,1,.12-.29.48.48,0,0,1,.11-.09.19.19,0,0,1,.12,0,.09.09,0,0,1,.08,0,.3.3,0,0,1,0,.1C53.87,41,53.87,41.08,53.88,41.13Zm-.38.47a.35.35,0,0,0,0,.14s0,0,.09,0a.26.26,0,0,0,.1-.11.57.57,0,0,0,0-.18V41.2a.39.39,0,0,0,0-.14s0,0-.1,0a.27.27,0,0,0-.09.12.47.47,0,0,0,0,.17v.24Z"/>
            <path class="cls-10" d="M54.66,41a.59.59,0,0,1,0-.14l.06-.14a.18.18,0,0,1-.05-.16.27.27,0,0,1,0-.13.65.65,0,0,1,0-.13l.08-.09a.32.32,0,0,1,.09-.08.16.16,0,0,1,.09,0,.11.11,0,0,1,.08,0,.18.18,0,0,1,0,.07.2.2,0,0,1,0,.11.49.49,0,0,1,0,.12.42.42,0,0,1,0,.1.13.13,0,0,1,.06.07.5.5,0,0,1,0,.12.68.68,0,0,1,0,.14.69.69,0,0,1,0,.13.44.44,0,0,1-.08.11l-.11.08a.21.21,0,0,1-.11,0,.12.12,0,0,1-.13-.09A.36.36,0,0,1,54.66,41Zm.13-.07v0l0,0h.09L55,41l0,0,0-.06v-.12l0,0h0l-.05,0,0,0,0,0,0,.06v.06Zm0-.45v.05l0,0s0,0,0,0h0l0,0,0,0a.08.08,0,0,0,0,0v-.11s0,0,0,0h0l0,0,0,0,0,0,0,0v.06Z"/>
            <path class="cls-10" d="M55.27,40.65a.78.78,0,0,1,0-.14l.06-.13a.2.2,0,0,1-.05-.16.68.68,0,0,1,0-.14.56.56,0,0,1,0-.12l.08-.1a.2.2,0,0,1,.09-.07l.09,0a.11.11,0,0,1,.08,0l0,.06a.5.5,0,0,1,0,.12v.11s0,.08,0,.11a.18.18,0,0,1,.05.07.23.23,0,0,1,0,.12.36.36,0,0,1,0,.14.31.31,0,0,1-.05.12.65.65,0,0,1-.18.2l-.11,0a.11.11,0,0,1-.13-.09A.42.42,0,0,1,55.27,40.65Zm.13-.07v.05l0,0h0l.05,0,0,0,0-.05,0-.06v-.11l0,0h0l0,0-.05,0,0,.05,0,.06v.07Zm0-.44v0l0,0h0l.05,0,0,0a.08.08,0,0,0,0,0,.08.08,0,0,0,0,0,.06.06,0,0,0,0-.06,0,0,0,0,0,0,0l0,0h0l0,0-.05,0,0,0,0,.05v0Z"/>
            <path class="cls-10" d="M55.89,40.3a.22.22,0,0,1,0-.14A.78.78,0,0,1,56,40a.18.18,0,0,1-.05-.16.3.3,0,0,1,0-.13.61.61,0,0,1,0-.12.36.36,0,0,1,.07-.1l.09-.08.1,0h.07a.18.18,0,0,1,0,.07.43.43,0,0,1,0,.11.5.5,0,0,1,0,.12.49.49,0,0,1,0,.11.12.12,0,0,1,.06.06.5.5,0,0,1,0,.12.6.6,0,0,1-.07.27.44.44,0,0,1-.08.11.28.28,0,0,1-.11.08.24.24,0,0,1-.1,0,.14.14,0,0,1-.14-.09A.49.49,0,0,1,55.89,40.3Zm.12-.07v.05l0,0a0,0,0,0,0,0,0h.05l0,0a.1.1,0,0,0,0,0l0-.06a.06.06,0,0,0,0-.06,0,0,0,0,0,0,0s0,0,0,0h0l0,0-.05,0,0,0,0,.06a.13.13,0,0,0,0,.06Zm0-.44a0,0,0,0,0,0,0s0,0,0,0h.07l0,0,0,0a.08.08,0,0,0,0-.05,0,0,0,0,0,0,0,0,0,0,0,0,0,0,0,0,0,0,0,0,0h-.08l0,0,0,0,0,0a.06.06,0,0,0,0,.06Z"/>
            <path class="cls-10" d="M56.5,40a.32.32,0,0,1,0-.14.35.35,0,0,1,.06-.14.17.17,0,0,1-.06-.16.59.59,0,0,1,0-.13.61.61,0,0,1,.05-.12.36.36,0,0,1,.07-.1l.09-.08a.19.19,0,0,1,.1,0,.09.09,0,0,1,.07,0,.18.18,0,0,1,0,.07.36.36,0,0,1,0,.11v.12a.76.76,0,0,1,0,.11.17.17,0,0,1,.06.06.5.5,0,0,1,0,.12.6.6,0,0,1-.07.27.48.48,0,0,1-.09.11.39.39,0,0,1-.1.08.21.21,0,0,1-.11,0,.08.08,0,0,1-.08,0,.13.13,0,0,1,0-.07A.2.2,0,0,1,56.5,40Zm.12-.07v0l0,0h0l.05,0,0,0,0,0a.09.09,0,0,0,0-.06.08.08,0,0,0,0-.07,0,0,0,0,0,0,0l0,0h0l0,0-.05,0,0,0,0,.06v.07Zm0-.45a0,0,0,0,0,0,0,0,0,0,0,0,0,0h.07l0,0a.08.08,0,0,0,0,0l0,0v-.1l0,0h0l0,0,0,0,0,0s0,0,0,.05A0,0,0,0,0,56.65,39.43Z"/>
            <path class="cls-10" d="M57.79,39.15a.77.77,0,0,1,0-.15s0-.09,0-.13l.17-.49v0l0,0,.08,0m0,0s0,0,0,0h0l-.11.32a.17.17,0,0,1,.1,0,.11.11,0,0,1,.08,0,.22.22,0,0,1,.05.08.59.59,0,0,1,0,.13,1,1,0,0,1,0,.16.71.71,0,0,1-.13.26l-.1.08-.11,0a.13.13,0,0,1-.08,0,.22.22,0,0,1-.05-.08.57.57,0,0,1,0-.13Zm0,.64a.1.1,0,0,0,0-.1.07.07,0,0,0-.09,0,.22.22,0,0,0-.1.11.32.32,0,0,0,0,.14.17.17,0,0,0,0,.1.09.09,0,0,0,.1,0,.2.2,0,0,0,.09-.11.22.22,0,0,0,0-.13Z"/>
            <path class="cls-10" d="M58.38,38.82a.77.77,0,0,1,0-.15c0-.05,0-.09,0-.14l.18-.49v0l0,0,.08,0h0s0,0,0,0h0l-.11.33a.17.17,0,0,1,.1,0,.08.08,0,0,1,.08,0,.22.22,0,0,1,0,.08.68.68,0,0,1,0,.14.77.77,0,0,1,0,.15.58.58,0,0,1,0,.14.83.83,0,0,1-.08.12l-.11.09a.17.17,0,0,1-.1,0,.11.11,0,0,1-.08,0,.22.22,0,0,1,0-.08A.37.37,0,0,1,58.38,38.82Zm.38-.22a.11.11,0,0,0,0-.1s0,0-.09,0a.19.19,0,0,0-.1.1.32.32,0,0,0,0,.14.14.14,0,0,0,0,.11.09.09,0,0,0,.1,0,.24.24,0,0,0,.09-.11.32.32,0,0,0,0-.14Z"/>
            <path class="cls-10" d="M59,38.48a.77.77,0,0,1,0-.15s0-.09.05-.13l.17-.49v0l0,0,.08,0m0,0h0s0,0,0,0h0l-.09.33a.17.17,0,0,1,.1,0,.11.11,0,0,1,.08,0,.22.22,0,0,1,.05.08.51.51,0,0,1,0,.13.73.73,0,0,1-.07.29.47.47,0,0,1-.09.12.27.27,0,0,1-.1.08.17.17,0,0,1-.1,0,.08.08,0,0,1-.08,0,.22.22,0,0,1,0-.08l0-.13Zm0,.64a.1.1,0,0,0,0-.1.07.07,0,0,0-.09,0,.24.24,0,0,0-.1.1.39.39,0,0,0,0,.14.2.2,0,0,0,0,.11.09.09,0,0,0,.1,0,.2.2,0,0,0,.09-.11A.32.32,0,0,0,59.34,38.26Z"/>
            <path class="cls-10" d="M59.55,38.15a.41.41,0,0,1,0-.16.33.33,0,0,1,0-.13l.18-.49v0a0,0,0,0,1,0,0l.08,0m0,0h0s0,0,0,0h0l-.11.33a.13.13,0,0,1,.1,0,.11.11,0,0,1,.08,0,.22.22,0,0,1,.05.08.59.59,0,0,1,0,.13A.78.78,0,0,1,60,38a.58.58,0,0,1-.05.14l-.08.12-.1.08a.25.25,0,0,1-.11,0,.11.11,0,0,1-.08,0,.22.22,0,0,1-.05-.08.24.24,0,0,1,0-.12Zm0,.64a.19.19,0,0,0,0-.1.09.09,0,0,0-.1,0,.22.22,0,0,0-.09.1,1,1,0,0,0,0,.14.15.15,0,0,0,0,.11.08.08,0,0,0,.09,0,.27.27,0,0,0,.1-.11A.32.32,0,0,0,59.93,37.92Z"/>
            <path class="cls-4" d="M42.15,36.38h0v.11l0,0-.37.21m0,0h0v-1l0,0,.37-.2h0v.1l0,0-.29.18v.29l.29-.16h0v.1l0,0-.29.17v.32Z"/>
            <path class="cls-4" d="M42.38,35.71l0,0a.08.08,0,0,1,0-.05l0,0,0,0a.1.1,0,0,1,.16,0,.25.25,0,0,1,0-.07l0,0,0-.05.06,0c.06,0,.11,0,.14,0a.45.45,0,0,1,0,.2V36l0,0h0m0,0s0,0,0,0v-.4a.32.32,0,0,0,0-.14s0,0-.08,0a.14.14,0,0,0-.08.09.29.29,0,0,0,0,.18v.42s0,0,0,0l0,0m0,0s0,0,0,0v-.39a.32.32,0,0,0,0-.14s0,0-.08,0a.14.14,0,0,0-.08.09.38.38,0,0,0,0,.18v.42l0,0,0,0m0,0s0,0,0,0v-.69a0,0,0,0,1,0,0l0,0m0,0v0Z"/>
            <path class="cls-4" d="M43.1,35.77a.17.17,0,0,1,0-.1.3.3,0,0,1,0-.1l.06-.08.07-.08.14-.11h0s0-.09,0-.1H43.3a.17.17,0,0,0-.06.06.3.3,0,0,0,0,.08v0h0l0,0h0a0,0,0,0,1,0,0,.1.1,0,0,1,0-.07.19.19,0,0,1,0-.08l.06-.08a.18.18,0,0,1,.07,0,.11.11,0,0,1,.08,0,.07.07,0,0,1,.06,0l0,.06v.59l0,0,0,0h0v-.08l0,.06a.21.21,0,0,1,0,.06l0,0,0,0-.07,0h-.05l0,0Zm.17,0a.15.15,0,0,0,.06,0l.05-.07,0-.08v-.13l-.11.09a.43.43,0,0,0-.09.1.3.3,0,0,0,0,.1v0l0,0h.08Z"/>
            <path class="cls-4" d="M43.74,34.69v0l0,0,0,0h0v-.14s0,0,0,0l0,0h0v.1Zm0,.87v0l0,0,0,0h0v-.73l0,0,0,0m0,0v0Z"/>
            <path class="cls-4" d="M44,35.42v0l0,0,0,0h0v-1a0,0,0,0,1,0-.05l0,0m0,0h0v0Z"/>
            <path class="cls-2" d="M42.11,37.49l19.11-11c.25-.15.44,0,.44.25v.9a1,1,0,0,1-.44.76l-19.11,11c-.25.14-.45,0-.45-.26v-.9A1,1,0,0,1,42.11,37.49Z"/>
            <path class="cls-4" d="M42,40.39l.09,0,.07,0a.15.15,0,0,1,0,.06.59.59,0,0,1,0,.13.77.77,0,0,1,0,.15.61.61,0,0,1,0,.12.36.36,0,0,1-.07.1A.31.31,0,0,1,42,41l-.17.1v.38l0,0,0,0m0,0a0,0,0,0,1,0,0v-.92a0,0,0,0,1,0,0s0,0,0,0Zm.07-.56.17-.1a.27.27,0,0,0,.1-.11.28.28,0,0,0,0-.15.15.15,0,0,0,0-.12.12.12,0,0,0-.1,0l-.17.1Z"/>
            <path class="cls-4" d="M42.3,41s0-.07,0-.1a1,1,0,0,1,0-.1.27.27,0,0,1,.07-.08.23.23,0,0,1,.07-.07l.13-.12h0a.12.12,0,0,0,0-.1h-.08l-.06.07a.15.15,0,0,0,0,.07l0,0v0h0m0,0h0v0s0,0,0-.07l0-.08.06-.08a.18.18,0,0,1,.07,0,.11.11,0,0,1,.08,0,.07.07,0,0,1,.06,0,.21.21,0,0,1,0,.06.49.49,0,0,1,0,.12V41a0,0,0,0,1,0,0l0,0h0v-.08s0,0,0,.06a.21.21,0,0,1,0,.06l0,0,0,0-.07,0a0,0,0,0,1-.05,0l0,0a.2.2,0,0,1,0-.08Zm.12.39s.05,0,.06-.05l0-.07,0-.09v-.13l-.11.09a.43.43,0,0,0-.09.1.21.21,0,0,0,0,.1V41h.1Z"/>
            <path class="cls-4" d="M43.12,40.55s0,0,0,0H43a.08.08,0,0,1-.1,0,.11.11,0,0,1,0-.11.14.14,0,0,1,0-.09l0-.09a.32.32,0,0,1,.14-.14.11.11,0,0,1,.08,0h0l0,0v.08s0,0,0,0l0,0h0l0,0-.07,0-.07.07a.19.19,0,0,0,0,.08,0,0,0,0,0,0,0h.21l0,0s0,0,0,0a.08.08,0,0,1,0,.07.14.14,0,0,1,0,.09.32.32,0,0,1,0,.09l-.07.09-.08.06a.11.11,0,0,1-.08,0,.06.06,0,0,1-.06,0l0,0v-.08l0,0,0,0h0m0,0a.05.05,0,0,0,0,0,.09.09,0,0,0,.07,0s0,0,0,0l0,0a.08.08,0,0,0,0,0,.13.13,0,0,0,0-.06Z"/>
            <path class="cls-4" d="M43.6,40.28s0,0,0,0a0,0,0,0,0,0,0h0l-.07,0a.1.1,0,0,1-.1,0,.11.11,0,0,1,0-.11.14.14,0,0,1,0-.09.16.16,0,0,1,0-.09.35.35,0,0,1,.13-.14l.08,0a.1.1,0,0,1,.1,0,.43.43,0,0,1,0,0s0,0,0,0l0,0h0m0,0,0,0-.06,0a.46.46,0,0,0-.07.07.13.13,0,0,0,0,.08v0l0,0h0l.07,0h.07l.05,0a.08.08,0,0,1,0,0v.06a.34.34,0,0,1,0,.1l0,.09-.06.08-.08.07-.09,0h-.06s0,0,0,0a.08.08,0,0,1,0,0v0l0,0,0,0h0s0,0,0,0a.22.22,0,0,0,.11-.05l0,0,0,0a.17.17,0,0,0,0-.07Z"/>
            <path class="cls-4" d="M44.25,39.88l.11-.54v0a0,0,0,0,1,0,0l0,0h0s0,0,0,0h0l-.14.74v0a0,0,0,0,1,0,0l0,0h0v0l-.11-.4-.12.54a0,0,0,0,1,0,0v0l0,0h0v0l-.14-.58h0a0,0,0,0,1,0,0v0l0,0h0v0l.11.41.11-.55v0l0,0h0v0Z"/>
            <path class="cls-4" d="M44.73,39.07a.14.14,0,0,1,.09,0l.07,0a.2.2,0,0,1,0,.08.5.5,0,0,1,0,.12v.13a.68.68,0,0,1,0,.14l0,.13-.07.1-.09.08-.09,0a.09.09,0,0,1-.07,0,.12.12,0,0,1,0-.08.2.2,0,0,1,0-.11,0,0,0,0,1,0,0v-.07a0,0,0,0,1,0,0,.32.32,0,0,1,0-.14.5.5,0,0,1,0-.13.36.36,0,0,1,.07-.1A.2.2,0,0,1,44.73,39.07Zm.13.37v-.12a.09.09,0,0,0,0-.07.08.08,0,0,0,0,0l0,0-.06,0-.06,0,0,.06a.24.24,0,0,0,0,.08.14.14,0,0,0,0,.09.06.06,0,0,0,0,.06.06.06,0,0,0,0,.06.09.09,0,0,0,0,.07.08.08,0,0,0,0,0l0,0a.07.07,0,0,0,.06,0l.06,0,0-.07s0,0,0-.08a.14.14,0,0,0,0-.09Z"/>
            <path class="cls-4" d="M45.32,38.74h0a0,0,0,0,1,0,0v0a0,0,0,0,1,0,0,0,0,0,0,1,0,0l0,0a.27.27,0,0,0-.12.23v.41a0,0,0,0,1,0,0v0l0,0h0v-.72s0,0,0,0l0,0m0,0s0,0,0,0v.05a.41.41,0,0,1,0-.09l.07-.06Z"/>
            <path class="cls-4" d="M45.61,38.57a.14.14,0,0,1,.09,0,.1.1,0,0,1,0,0v-.35l0,0,0,0h0v1l0,0,0,0h0v-.08a.31.31,0,0,1,0,.1.26.26,0,0,1-.09.09l-.08,0a.15.15,0,0,1-.07,0s0,0,0-.08a.69.69,0,0,1,0-.13V39a.39.39,0,0,1,0-.15.5.5,0,0,1,0-.13.41.41,0,0,1,.07-.11A.16.16,0,0,1,45.61,38.57Zm.14.36v-.11a.18.18,0,0,0,0-.14.07.07,0,0,0-.09,0,.23.23,0,0,0-.1.12.41.41,0,0,0,0,.19v.08a.23.23,0,0,0,0,.14s0,0,.1,0a.31.31,0,0,0,.09-.11.33.33,0,0,0,0-.17Z"/>
            <path class="cls-2" d="M42.11,42.3l19.11-11c.25-.14.44,0,.44.25v.9a1,1,0,0,1-.44.77l-19.11,11c-.25.14-.45,0-.45-.26v-.9A1,1,0,0,1,42.11,42.3Z"/>
            <path class="cls-10" d="M42.72,38.55,42.53,38h0v0l0,0,.07,0h0l.13.37.12-.51v0l0,0,.07,0h0v0h0l-.26,1.08v0l0,0-.1,0h0v0h0Z"/>
            <path class="cls-10" d="M43.32,37.48a.14.14,0,0,1,.09,0,.11.11,0,0,1,.07,0,.18.18,0,0,1,.05.07.43.43,0,0,1,0,.11v.15a.59.59,0,0,1,0,.13.55.55,0,0,1-.12.24l-.09.08-.1,0a.11.11,0,0,1-.07,0l0-.07a.52.52,0,0,1,0-.11v-.15a.59.59,0,0,1,0-.13s0-.09,0-.13l.07-.11A.39.39,0,0,1,43.32,37.48Zm.11.26s0-.05,0-.07l0,0h0l0,0,0,0a.3.3,0,0,0-.06.11.11.11,0,0,0,0,.08,0,0,0,0,0,0,0V38a0,0,0,0,0,0,0,.08.08,0,0,0,0,.07l0,0h0l0,0,0,0,0-.05,0-.06s0-.06,0-.08Z"/>
            <path class="cls-10" d="M43.66,37.34s0,0,0,0l0,0,.06,0m0,0s0,0,0,0v.37a.24.24,0,0,0,0,.12s0,0,.08,0a.16.16,0,0,0,.07-.09.41.41,0,0,0,0-.16v-.39a0,0,0,0,1,0,0l.07,0m0,0v.72l0,0-.07,0h0v-.06a.47.47,0,0,1-.06.09.23.23,0,0,1-.07.07.17.17,0,0,1-.1,0s0,0-.06,0l0-.09v-.12Z"/>
            <path class="cls-10" d="M44.46,37a.16.16,0,0,0-.08.08.32.32,0,0,0,0,.14v.41l0,0-.07,0h0a0,0,0,0,1,0,0V37a0,0,0,0,1,0,0v0l.07,0h0s0,0,0,0v0l0-.08.08-.06,0,0h0v.15l0,0Z"/>
            <path class="cls-10" d="M44.6,37.14a1,1,0,0,1,0-.16.83.83,0,0,1,0-.15.75.75,0,0,1,.07-.12.28.28,0,0,1,.1-.09l.09,0a.11.11,0,0,1,.08,0,.36.36,0,0,1,0,.09.69.69,0,0,1,0,.13v.09a0,0,0,0,1,0,0l-.31.19a0,0,0,0,0,0,.05l0,0h0l0,0,0,0s0,0,0,0l0,0h0l.08,0h0v0a.14.14,0,0,1,0,.06.2.2,0,0,1,0,.08l-.06.09a.39.39,0,0,1-.1.08.14.14,0,0,1-.09,0l-.07,0a.31.31,0,0,1,0-.1A.76.76,0,0,1,44.6,37.14Zm.23-.35,0,0a.54.54,0,0,0-.05.11,0,0,0,0,1,0,.05l.21-.12v0s0,0,0,0h-.09Z"/>
            <path class="cls-10" d="M45.28,36.43a.26.26,0,0,1,0-.09.23.23,0,0,1,.07-.07.16.16,0,0,1,.1,0,.17.17,0,0,1,.06.06.14.14,0,0,1,0-.07l0-.06s0,0,.05,0l0,0a.11.11,0,0,1,.08,0,.09.09,0,0,1,.06,0,.16.16,0,0,1,0,.09v.54l0,0-.07,0h0s0,0,0,0V36.4a.27.27,0,0,0,0-.12h-.07a.24.24,0,0,0-.06.08.32.32,0,0,0,0,.14v.43l0,0-.07,0h0s0,0,0,0v-.38a.24.24,0,0,0,0-.12s0,0-.07,0a.11.11,0,0,0-.06.07.4.4,0,0,0,0,.15v.41l0,0-.07.05h0v-.73l0,0,.07,0m0,0v0Z"/>
            <path class="cls-10" d="M46,36.11A.17.17,0,0,1,46,36a.59.59,0,0,1,0-.08l.06-.09a.22.22,0,0,1,.09-.07.11.11,0,0,1,.08,0l.07,0a.16.16,0,0,1,0,.07.24.24,0,0,1,0,.12v.45l0,0-.07,0h0a0,0,0,0,1,0,0v0l-.06.1a.39.39,0,0,1-.1.08.09.09,0,0,1-.07,0H46s0,0,0,0a.14.14,0,0,1,0-.09.3.3,0,0,1,0-.18.53.53,0,0,1,.12-.14l.15-.13s0-.07,0-.07h-.06l0,0,0,0,0,0h0l-.09.05h0Zm.15.32.06,0,0-.06a.14.14,0,0,0,0-.06.09.09,0,0,0,0-.07h0l-.12.11-.06.06a.14.14,0,0,0,0,.06s0,0,0,0A.07.07,0,0,0,46.18,36.43Z"/>
            <path class="cls-10" d="M46.67,35.29h0v.19l-.09,0m0,0s0,0,0,0v0Zm.12.74v0a0,0,0,0,1,0,0l-.07,0h0v-.72s0,0,0,0l.07,0h0v.69Z"/>
            <path class="cls-10" d="M46.94,36.11v0l0,0-.07,0m0,0h0v-1l0,0,.07,0h0v0Z"/>
            <path class="cls-10" d="M47.76,35.34a.31.31,0,0,1,0,.1.19.19,0,0,1,0,.09.16.16,0,0,1,0,.07l-.05,0a.11.11,0,0,1-.07,0s0,0,0,0v0l0,0,0,0-.05,0-.06,0-.05,0a.26.26,0,0,1,0-.08v-.24l0-.11,0-.09a.18.18,0,0,1,.07,0h.05a0,0,0,0,1,0,0h0v0l0,0,0,0h0v.37h0s0,0,0,0a.14.14,0,0,0,0-.07v-.16a.31.31,0,0,0,0-.13.13.13,0,0,0,0-.07.11.11,0,0,0-.08,0l-.11,0a.25.25,0,0,0-.1.08.41.41,0,0,0-.07.11.31.31,0,0,0,0,.12.8.8,0,0,0,0,.15v.23a.45.45,0,0,0,0,.11.12.12,0,0,0,0,.07.08.08,0,0,0,.07,0,.19.19,0,0,0,.1,0l.06,0,0,0,0,0,0,0v0h0l.07,0h0v.06l0,.08-.06.09a.24.24,0,0,1-.08.09l-.11.08a.3.3,0,0,1-.15,0,.21.21,0,0,1-.1,0,.41.41,0,0,1-.07-.11l0-.15v-.25l0-.19a1.34,1.34,0,0,1,.07-.18.86.86,0,0,1,.1-.16.64.64,0,0,1,.15-.13.43.43,0,0,1,.16,0,.14.14,0,0,1,.11,0,.24.24,0,0,1,.06.11l0,.16v.09S47.76,35.31,47.76,35.34Zm-.43.19a.3.3,0,0,0,0,.1,0,0,0,0,0,0,0h0a.12.12,0,0,0,.05-.07.5.5,0,0,0,0-.12.18.18,0,0,0,0-.1,0,0,0,0,0,0,0h0s0,0,0,.07a.25.25,0,0,0,0,.12Z"/>
            <path class="cls-10" d="M47.86,35.25a.77.77,0,0,1,.06-.3.54.54,0,0,1,.07-.13.39.39,0,0,1,.1-.08.16.16,0,0,1,.09,0,.08.08,0,0,1,.07,0,.13.13,0,0,1,0,.09.51.51,0,0,1,0,.13v.09s0,0,0,0l-.31.18a.06.06,0,0,0,0,.06l0,0h.08l0,0,0,0,0,0h0l.08,0m0,0h0a0,0,0,0,1,0,0,.06.06,0,0,1,0,.06.2.2,0,0,1,0,.08l-.06.09a.39.39,0,0,1-.1.08.1.1,0,0,1-.09,0,.09.09,0,0,1-.07,0,.24.24,0,0,1-.06-.11.76.76,0,0,1,0-.15Zm-.2-.27A.1.1,0,0,0,48,35l0,0a.14.14,0,0,0,0,.06v.05l.2-.12a0,0,0,0,0,0,0s0,0,0,0H48.1Z"/>
            <path class="cls-10" d="M48.54,34.55a.35.35,0,0,1,.06-.09l.06-.07a.12.12,0,0,1,.1,0,0,0,0,1,0,.09,0,.21.21,0,0,1,0-.06.1.1,0,0,1,0,0l0,0,.09,0s0,0,.06,0l0,.09v.53l0,0-.07,0m0,0h0s0,0,0,0v-.36a.27.27,0,0,0,0-.12s0,0-.07,0-.05,0-.06.07a.4.4,0,0,0,0,.15v.44l-.07,0h0v-.4a.19.19,0,0,0,0-.13h-.07a.27.27,0,0,0-.07.08.39.39,0,0,0,0,.15v.41l0,0-.07,0h0v-.73l0,0,.07,0h0v0Z"/>
            <path class="cls-10" d="M49.28,34.24l0-.07,0-.09L49.4,34l.08-.07a.16.16,0,0,1,.09,0,.07.07,0,0,1,.07,0s0,0,0,.07a.45.45,0,0,1,0,.12v.42a0,0,0,0,1,0,0s0,0,0,0l-.07,0m0,0h0v-.09a.6.6,0,0,1-.06.11.24.24,0,0,1-.09.08l-.07,0h0a.1.1,0,0,1,0-.05v-.08a.41.41,0,0,1,0-.19.86.86,0,0,1,.13-.14l.15-.13s0-.06,0-.07h-.06l0,0,0,0v0h0l-.08.05h-.07Zm-.15-.06.06-.05,0-.06,0-.07v-.07l-.13.1-.06.06a.15.15,0,0,0,0,.07s0,0,0,0h0Z"/>
            <path class="cls-10" d="M49.92,33.41h0v.16l0,0-.08,0h0v-.17l0,0Zm0,1a0,0,0,0,1,0,0,0,0,0,0,1,0,0l-.07,0h0v-.72l0,0,.07,0h0s0,0,0,0Z"/>
            <path class="cls-10" d="M50.2,34.24v0l0,0-.07,0h0s0,0,0,0v-.94a0,0,0,0,1,0,0l0,0,.07,0h0v1Z"/>
            <path class="cls-10" d="M50.43,33.92h0v.19l0,0-.08,0h0V34a0,0,0,0,1,0,0Z"/>
            <path class="cls-10" d="M50.68,33.57v.17s0,0,0,0h.08l0,0s0,0,0,0l0,0v0l0,0s0,0,0,0l.07,0h0s0,0,0,0,0,.06,0,.09l0,.1a.41.41,0,0,1-.07.11l-.1.09-.1,0a.11.11,0,0,1-.07,0,.22.22,0,0,1-.05-.08.36.36,0,0,1,0-.11v-.12a.59.59,0,0,1,0-.13.78.78,0,0,1,.05-.14l.07-.11a.39.39,0,0,1,.1-.08.17.17,0,0,1,.1,0l.07,0a.21.21,0,0,1,0,.06.17.17,0,0,1,0,.07v0a0,0,0,0,1,0,0l-.07,0h0l0,0v0h0l0,0,0,0,0,0a.14.14,0,0,0,0,.06Z"/>
            <path class="cls-10" d="M51.34,32.85a.14.14,0,0,1,.09,0,.11.11,0,0,1,.07,0,.18.18,0,0,1,0,.07.43.43,0,0,1,0,.11v.15a.59.59,0,0,1,0,.13.5.5,0,0,1,0,.13.41.41,0,0,1-.07.11l-.09.08-.1,0a.11.11,0,0,1-.07,0,.18.18,0,0,1-.05-.07.52.52,0,0,1,0-.11v-.16a.77.77,0,0,1,.07-.26.41.41,0,0,1,.07-.11Zm.11.26V33l0,0h-.07l0,0,0,.05,0,.06v.28l0,0h.07l0,0,0,0,0-.06v-.21Z"/>
            <path class="cls-10" d="M51.8,32.67a.33.33,0,0,1,.06-.1.27.27,0,0,1,.08-.07.1.1,0,0,1,.09,0,.1.1,0,0,1,.06.05l0-.07,0-.06,0,0,0,0a.15.15,0,0,1,.09,0s0,0,.06,0l0,.09V33l0,0-.07,0h0v-.4a.17.17,0,0,0,0-.12s0,0-.07,0l-.07.07,0,.15v.39a0,0,0,0,1,0,0s0,0,0,0l-.07,0h0v-.4a.27.27,0,0,0,0-.12s0,0-.06,0a.19.19,0,0,0-.07.08.37.37,0,0,0,0,.15v.37s0,0,0,0v0l-.08,0m0,0h0v-.72s0,0,0,0l.07,0h0v0Z"/>
            <path class="cls-10" d="M42.6,43a.21.21,0,0,1,0-.11.45.45,0,0,1,0-.11l.06-.09.07-.06a.07.07,0,0,1,.06,0l.06,0a.09.09,0,0,1,0,.06.2.2,0,0,1,0,.1.36.36,0,0,1,0,.11.23.23,0,0,1,0,.11.47.47,0,0,1-.06.09l-.06.06-.07,0a.09.09,0,0,1-.06,0s0,0,0-.06A.17.17,0,0,1,42.6,43Z"/>
            <path class="cls-10" d="M43.39,42.57a.2.2,0,0,1,0-.11.3.3,0,0,1,0-.1.19.19,0,0,1,0-.09.13.13,0,0,1,.07-.06.07.07,0,0,1,.06,0,.08.08,0,0,1,.06,0,.16.16,0,0,1,0,.07v.2a.36.36,0,0,1,0,.11.24.24,0,0,1-.06.09s0,0-.06.06l-.07,0a.05.05,0,0,1,0,0,.08.08,0,0,1,0-.06A.17.17,0,0,1,43.39,42.57Z"/>
            <path class="cls-10" d="M44.18,42.12a.37.37,0,0,1,0-.11.36.36,0,0,1,0-.11.41.41,0,0,1,.05-.09.19.19,0,0,1,.07-.06l.07,0a.05.05,0,0,1,0,0,.21.21,0,0,1,0,.06.17.17,0,0,1,0,.1.2.2,0,0,1,0,.11.49.49,0,0,1,0,.11.22.22,0,0,1,0,.08.13.13,0,0,1-.07.06.08.08,0,0,1-.07,0l-.05,0a.16.16,0,0,1,0-.07A.28.28,0,0,1,44.18,42.12Z"/>
            <path class="cls-10" d="M45,41.66v-.11a.49.49,0,0,1,0-.11.41.41,0,0,1,.05-.09l.07-.06.07,0s0,0,0,0a.21.21,0,0,1,0,.06.17.17,0,0,1,0,.1.21.21,0,0,1,0,.11.49.49,0,0,1,0,.11.41.41,0,0,1,0,.09l-.07.06a.08.08,0,0,1-.07,0l-.05,0,0-.06Z"/>
            <path class="cls-10" d="M45.76,41.2v-.11a.42.42,0,0,1,0-.1.15.15,0,0,1,.06-.09.12.12,0,0,1,.06-.06.1.1,0,0,1,.07,0l.06,0,0,.07a.14.14,0,0,1,0,.09.2.2,0,0,1,0,.11l0,.11-.06.09a.13.13,0,0,1-.07.06l-.06,0a.07.07,0,0,1-.06,0s0,0,0-.06Z"/>
            <path class="cls-10" d="M46.55,40.75v-.12l0-.1a.47.47,0,0,1,.06-.09.12.12,0,0,1,.06-.06l.07,0,.06,0a.07.07,0,0,1,0,.06.17.17,0,0,1,0,.1.2.2,0,0,1,0,.11.38.38,0,0,1,0,.1l-.06.09a.13.13,0,0,1-.07.06.07.07,0,0,1-.06,0l-.06,0a.16.16,0,0,1,0-.07Z"/>
            <path class="cls-10" d="M47.35,40.29a.2.2,0,0,1,0-.11.45.45,0,0,1,0-.11l.06-.09.07-.06.06,0s0,0,.06,0a.09.09,0,0,1,0,.06.17.17,0,0,1,0,.1.2.2,0,0,1,0,.11.45.45,0,0,1,0,.11l-.06.08-.06.07h-.07l-.06,0s0,0,0-.06A.17.17,0,0,1,47.35,40.29Z"/>
            <path class="cls-10" d="M48.13,39.83v-.11s0-.07,0-.11l.06-.09.06-.06h.07l.06,0a.15.15,0,0,1,0,.07.14.14,0,0,1,0,.09.2.2,0,0,1,0,.11l0,.11-.06.09-.07.06a.06.06,0,0,1-.06,0s0,0-.06,0a.21.21,0,0,1,0-.06Z"/>
            <path class="cls-2" d="M42.11,50.49l8.27-4.78c.25-.14.45,0,.45.26v4.74a1,1,0,0,1-.45.78l-8.27,4.77c-.25.15-.45,0-.45-.25V51.26A1,1,0,0,1,42.11,50.49Z"/>
            <path class="cls-4" d="M43,51.79s0,0,0,0v0a0,0,0,0,1,0,0s0,0,0,0l-.38.22h0s0,0,0,0v-.93a0,0,0,0,1,0,0s0,0,0,0l.37-.21h0V51l0,0-.31.18v.29l.29-.17h0v.11l0,0-.29.16V52Z"/>
            <path class="cls-4" d="M43.32,51.44l-.14.34v0l0,0,0,0h0s0,0,0,0,0,0,0,0l.17-.43-.16-.22s0,0,0,0a0,0,0,0,1,0,0v0l0,0h0l.13.17.12-.3v0l0,0,0,0h0v0l-.16.41.17.23h0v0s0,0,0,0l0,0h0Z"/>
            <path class="cls-4" d="M43.88,51.42a.15.15,0,0,1-.09,0l-.06,0v.35a0,0,0,0,1,0,0l0,0h0v-1l0,0,0,0h0v.07l.06-.1a.24.24,0,0,1,.09-.08.08.08,0,0,1,.08,0,.11.11,0,0,1,.07,0,.2.2,0,0,1,0,.08.51.51,0,0,1,0,.13V51a1,1,0,0,1,0,.16l0,.13-.07.11Zm-.15-.37v.11a.23.23,0,0,0,0,.14.09.09,0,0,0,.1,0,.29.29,0,0,0,.1-.12A1.06,1.06,0,0,0,44,51v-.08a.37.37,0,0,0,0-.14.09.09,0,0,0-.1,0,.35.35,0,0,0-.1.11.47.47,0,0,0,0,.17Z"/>
            <path class="cls-4" d="M44.3,50.25v0l0,0-.05,0h0V50.2l0,0,.05,0h0s0,0,0,0Zm0,.88v0s0,0,0,0l0,0h0v-.75l0,0h0s0,0,0,0Z"/>
            <path class="cls-4" d="M44.68,50.2h0s0,0,0,0v.08a0,0,0,0,1,0,0l0,0a.24.24,0,0,0-.11.23V51a0,0,0,0,1,0,0l0,0h0v-.73a0,0,0,0,1,0,0l0,0h0v.06a.22.22,0,0,1,0-.08.13.13,0,0,1,.07-.06Z"/>
            <path class="cls-4" d="M44.75,50.7s0-.07,0-.1a.3.3,0,0,1,0-.1l.06-.09.08-.07.12-.11v0c0-.05,0-.08,0-.09H45a.17.17,0,0,0-.06.06l0,.07v0h0m0,0v0a.64.64,0,0,1,0-.07.36.36,0,0,1,0-.09l.06-.07A.2.2,0,0,1,45,50l.07,0,.07,0a.15.15,0,0,1,0,.07.2.2,0,0,1,0,.11v.44a0,0,0,0,1,0,0v0l0,0h0v-.09a.14.14,0,0,1,0,.06.15.15,0,0,1,0,.06l-.06.09,0,0s0,0-.07,0h0s0,0,0-.05a.32.32,0,0,1,0-.09Zm.13.41.06-.06,0-.07,0-.08v-.13l-.11.09-.1.1a.19.19,0,0,0,0,.1v0l0,0s0,0,0,0Z"/>
            <path class="cls-4" d="M45.42,50.25v.09h.07l0,0m0,0v.1l0,0-.06,0c-.06,0-.09,0-.12,0a.22.22,0,0,1,0-.16v-.37l-.07,0h0a0,0,0,0,1,0,0v0a0,0,0,0,1,0,0v0l.07,0v-.26s0,0,0,0l0,0m0,0v.26l.12-.07m0,0h0v.11l0,0-.11.07Z"/>
            <path class="cls-4" d="M45.77,49.41v0a0,0,0,0,1,0,0l0,0h0v-.13l0,0,0,0h0v.1Zm0,.87v0l0,0,0,0h0v-.73s0,0,0,0l0,0m0,0h0v0Z"/>
            <path class="cls-4" d="M46.1,49.35l.09,0,.07,0a.2.2,0,0,1,0,.08.5.5,0,0,1,0,.12v.13a.77.77,0,0,1,0,.15.56.56,0,0,1,0,.12.36.36,0,0,1-.07.1l-.09.08-.09,0a.11.11,0,0,1-.07,0,.25.25,0,0,1,0-.07.5.5,0,0,1,0-.12V49.8a.68.68,0,0,1,0-.14.65.65,0,0,1,0-.13.36.36,0,0,1,.07-.1Zm.14.37v-.18l0,0,0,0-.06,0-.06,0a.43.43,0,0,0,0,.07.19.19,0,0,0,0,.08.11.11,0,0,0,0,.08.09.09,0,0,0,0,.07.06.06,0,0,0,0,.06A.08.08,0,0,0,46,50s0,0,0,.05l0,0,.06,0,.06-.05a.16.16,0,0,0,0-.07l0-.07a.28.28,0,0,1,0-.09Z"/>
            <path class="cls-4" d="M46.88,49.62v0l0,0,0,0h0v-.4a.18.18,0,0,0,0-.14s-.05,0-.09,0a.24.24,0,0,0-.1.1.42.42,0,0,0,0,.19v.4l0,0h0m0,0s0,0,0,0v-.69s0,0,0,0l0,0m0,0v.07a.31.31,0,0,1,.05-.1.23.23,0,0,1,.09-.08.13.13,0,0,1,.08,0,.09.09,0,0,1,.07,0,.2.2,0,0,1,0,.08.25.25,0,0,1,0,.12Z"/>
            <path class="cls-4" d="M47.77,48.54v.22a.73.73,0,0,1-.08.33.57.57,0,0,1-.08.13l-.1.09-.22.12h0v-1a0,0,0,0,1,0,0l.2-.13a.23.23,0,0,1,.11,0,.11.11,0,0,1,.08,0,.15.15,0,0,1,.06.09Zm-.09.06v-.09l0-.07-.06,0a.11.11,0,0,0-.08,0l-.15.08v.75l.15-.09.09-.07a.41.41,0,0,0,0-.09l0-.11V48.6Z"/>
            <path class="cls-4" d="M47.87,48.91V48.8l.05-.09a.47.47,0,0,1,.06-.09l.07-.07.13-.11v0a.08.08,0,0,0,0-.09h-.08l-.06.06,0,.07v0h-.07v0a.19.19,0,0,1,0-.07.2.2,0,0,1,0-.08.22.22,0,0,1,.05-.08l.07-.06.07,0s0,0,.06,0,0,0,0,.06a.2.2,0,0,1,0,.11v.47s0,0,0,0h0m0,0v-.08s0,.05,0,.07a.1.1,0,0,1,0,0l0,.05,0,0L48,49h-.05l0,0a.43.43,0,0,1,0-.05Zm-.15,0a.1.1,0,0,0,.06,0,.18.18,0,0,0,0-.07.23.23,0,0,0,0-.18v0l-.11.09-.09.11a.17.17,0,0,0,0,.1v0H48Z"/>
            <path class="cls-4" d="M48.54,49v0l0,0,0,0h0v0h0l.09-.36-.18-.52h0v0l.05,0m0,0v0l.14.41.15-.58v0l0,0,0,0h0v0h0Z"/>
            <path class="cls-10" d="M43.06,53.64v.42s0,.1,0,.14a.57.57,0,0,1-.08.13.4.4,0,0,1-.12.1l-.11,0a.2.2,0,0,1-.08,0,.42.42,0,0,1,0-.1s0-.1,0-.15v-.25s0-.11,0-.16a.83.83,0,0,1,0-.15.57.57,0,0,1,.08-.13.52.52,0,0,1,.11-.1.27.27,0,0,1,.12,0,.11.11,0,0,1,.08,0,.42.42,0,0,1,0,.1Zm-.38.46a.23.23,0,0,0,0,.14s0,0,.09,0a.2.2,0,0,0,.09-.11.48.48,0,0,0,0-.18v-.24a.35.35,0,0,0,0-.14s0,0-.09,0a.16.16,0,0,0-.09.11,1.16,1.16,0,0,0,0,.18Z"/>
            <path class="cls-10" d="M43.47,54h0v-.19l-.29.17h0v-.21l.29-.71a.21.21,0,0,1,0-.06l.07,0m0,0v.6l.08,0m0,0v.16l0,0-.08,0V54l0,0Zm-.23.11v-.3l-.16.4Z"/>
            <path class="cls-10" d="M44.05,52.61s0,0,0,0l0,0,.07,0h0v0l-.31,1.34v0l0,0-.07,0h0Z"/>
            <path class="cls-10" d="M44.54,52.85a.32.32,0,0,0,0-.09v-.07a.15.15,0,0,0,0-.09h-.08a.18.18,0,0,0-.07.08.56.56,0,0,0,0,.12,0,0,0,0,1,0,0v0l-.08,0h0s0,0,0,0a.34.34,0,0,1,0-.14,1.12,1.12,0,0,1,0-.13.34.34,0,0,1,.07-.11.31.31,0,0,1,.09-.07.1.1,0,0,1,.1,0,.09.09,0,0,1,.07,0,.12.12,0,0,1,0,.08.36.36,0,0,1,0,.1v.15l0,.08a1.17,1.17,0,0,0,0,.11l-.18.34.26-.15h0v.16l0,0-.44.25m0,0v-.15l0,0Z"/>
            <path class="cls-10" d="M45.14,53.07h0v-.2l-.29.17m0,0v-.16a.07.07,0,0,1,0-.05l.29-.71,0-.06.08,0h0v.6l.08,0h0v.15l0,0-.08,0V53Zm.3-.35v-.31l-.16.4Z"/>
            <path class="cls-5" d="M41.66,58s0,0,0,0,0,0,0-.07l20-11.55a0,0,0,0,1,.06,0h0a.06.06,0,0,1,0,.07L41.69,58Z"/>
            <path class="cls-2" d="M52.94,44.24l8.28-4.78c.25-.14.45,0,.45.26v4.74a1,1,0,0,1-.45.77L52.94,50c-.24.15-.44,0-.44-.25V45A1,1,0,0,1,52.94,44.24Z"/>
            <path class="cls-10" d="M53.36,47.64v0l.21-.36v0l.08,0h0v1l0,0-.08,0h0v-.73l-.13.23a0,0,0,0,1,0,0h0Z"/>
            <path class="cls-10" d="M54.2,47.27a.36.36,0,0,0,0-.09v-.07a.11.11,0,0,0,0-.08s0,0-.07,0-.06,0-.08.08a.42.42,0,0,0,0,.12v0l0,0-.07,0h0s0,0,0,0a.34.34,0,0,1,0-.14A1.12,1.12,0,0,1,54,47l.07-.11.09-.07a.19.19,0,0,1,.1,0,.09.09,0,0,1,.07,0s0,0,0,.08a.21.21,0,0,1,0,.11v.07a.08.08,0,0,1,0,.07.19.19,0,0,1,0,.08l-.06.11-.17.34.26-.15h0a0,0,0,0,1,0,0v.15l-.44.25h0s0,0,0,0v-.09a0,0,0,0,1,0-.05s0,0,0,0Z"/>
            <path class="cls-10" d="M55,46.36h0v.19l-.14.29a.09.09,0,0,1,.07,0l.06,0a.1.1,0,0,1,0,.07.17.17,0,0,1,0,.1.77.77,0,0,1,0,.15.69.69,0,0,1,0,.13.39.39,0,0,1-.08.1.81.81,0,0,1-.1.09l-.11,0a.11.11,0,0,1-.08,0,.06.06,0,0,1-.05-.06.19.19,0,0,1,0-.08,0,0,0,0,1,0,0v0l.08,0h0l0,0h.06l.06,0a.2.2,0,0,0,.09-.09.16.16,0,0,0,0-.12s0-.06,0-.07l-.09,0-.08,0h0V46.9l.14-.29-.26.15m0,0h0V46.6l0,0Z"/>
            <path class="cls-4" d="M53.49,45.23v.24a.25.25,0,0,0,0,.17s.07,0,.13,0l.08-.06,0-.08a.41.41,0,0,1,0-.08s0-.05,0-.08v0h0l0,0h0s0,0,0,0a.21.21,0,0,1,0,.11.5.5,0,0,1,0,.13.57.57,0,0,1-.08.13.63.63,0,0,1-.12.11.2.2,0,0,1-.11,0,.12.12,0,0,1-.08,0,.13.13,0,0,1-.05-.09.7.7,0,0,1,0-.14v-.26a1,1,0,0,1,0-.17.88.88,0,0,1,.05-.15.57.57,0,0,1,.08-.13.31.31,0,0,1,.11-.09.16.16,0,0,1,.12,0l.08,0a.2.2,0,0,1,0,.08.14.14,0,0,1,0,.09,0,0,0,0,1,0,0s0,0,0,0l0,0h0v0s0,0,0-.06l0,0a.06.06,0,0,0,0,0,.11.11,0,0,0-.08,0,.29.29,0,0,0-.13.14A.62.62,0,0,0,53.49,45.23Z"/>
            <path class="cls-4" d="M54.43,44.34v0l0,0,0,0h0v0l-.21,1s0,0,0,0a0,0,0,0,1,0,0l0,0h0s0,0,0,0L54,44.61v0s0,0,0,0l0,0h0v0l.18.73Z"/>
            <path class="cls-4" d="M55,44v0l0,0,0,0h0v0h0l-.21,1a.08.08,0,0,1,0,0s0,0,0,0l0,0h0s0,0,0,0l-.21-.78h0v0l0,0h0v0l.18.72Z"/>
            <path class="cls-5" d="M41.66,63.77a0,0,0,0,1,0-.05h0s0,0,0,0l20-11.55a0,0,0,0,1,.06,0h0a.07.07,0,0,1,0,.07l-20,11.55Z"/>
            <path class="cls-5" d="M47.11,62.51l9.11-5.26c.24-.14.44,0,.44.26v2.82a1,1,0,0,1-.44.77l-9.11,5.26c-.25.14-.45,0-.45-.26V63.28A1,1,0,0,1,47.11,62.51Z"/>
            <path class="cls-10" d="M48.3,63c.11-.06.19-.07.25,0s.09.14.09.29a.89.89,0,0,1-.09.39.81.81,0,0,1-.25.27l-.21.12v.46s0,0,0,0l0,0-.11.06h0a0,0,0,0,1,0,0V63.33a0,0,0,0,1,0,0l0,0Zm-.21.79.21-.11a.34.34,0,0,0,.17-.31c0-.07,0-.12,0-.13a.16.16,0,0,0-.12,0l-.21.12Z"/>
            <path class="cls-10" d="M48.77,63.41a.43.43,0,0,1,0-.11l.05-.12.09-.12.12-.1.12,0a.15.15,0,0,1,.16.13.88.88,0,0,1,0,.17v.66l0,0-.1.06h0a0,0,0,0,1,0,0v-.07a.62.62,0,0,1-.22.27l-.1,0a.11.11,0,0,1-.08,0,.1.1,0,0,1,0-.07.25.25,0,0,1,0-.12.48.48,0,0,1,.07-.26.55.55,0,0,1,.17-.2l.22-.19a.12.12,0,0,0,0-.1.1.1,0,0,0-.09,0l0,0a.16.16,0,0,0,0,.07l0,0s0,0,0,0l-.13.07h0a0,0,0,0,1,0,0Zm.22.45.08-.06.06-.09a.29.29,0,0,0,0-.1.14.14,0,0,0,0-.09v0l-.18.16-.08.08a.29.29,0,0,0,0,.09s0,.05,0,.05l.05,0Z"/>
            <path class="cls-10" d="M49.71,63.61l-.26-.79m0,0a0,0,0,0,1,0-.05l0,0,.1-.06h0a0,0,0,0,1,0,0l.18.53.18-.74s0,0,0,0,0,0,0,0l.1-.06h0v0L49.78,64s0,0,0,0l0,0-.1.06h0v0h0Z"/>
            <path class="cls-10" d="M51,61.49a.21.21,0,0,1,.2,0,.18.18,0,0,1,0,.07s0,.07,0,.1a.05.05,0,0,1,0,.07l-.09.06h0l0,0a.17.17,0,0,0-.06-.06.21.21,0,0,0-.12,0l-.07,0-.06.07,0,.07s0,.05,0,.08a.19.19,0,0,0,0,.07l.05,0h.08l.13,0a.29.29,0,0,1,.13,0,.14.14,0,0,1,.09,0,.13.13,0,0,1,0,.09.59.59,0,0,1,0,.13,1,1,0,0,1,0,.17l-.06.16-.09.14a.49.49,0,0,1-.13.12v.14a0,0,0,0,1,0,.05l0,0-.11.06h0v-.17l-.11,0a.14.14,0,0,1-.09,0,.27.27,0,0,1-.07-.08.27.27,0,0,1,0-.13,0,0,0,0,1,0,0s0,0,0,0l.09-.06h0l0,0a0,0,0,0,0,0,0l0,0h.05l.09,0,.08,0,.06-.07.05-.08a.28.28,0,0,0,0-.09.17.17,0,0,0,0-.07h-.15l-.14,0h-.11a.11.11,0,0,1-.08,0,.14.14,0,0,1,0-.09.55.55,0,0,1,0-.31.88.88,0,0,1,0-.15.83.83,0,0,1,.19-.26v-.18l0,0,.11-.07h0s0,0,0,0Z"/>
            <path class="cls-10" d="M51.84,62.43h0a0,0,0,0,1,0,0v-.25l-.41.24h0v-.24s0,0,0,0l.41-1a.16.16,0,0,1,.06-.08l.07-.05h0a0,0,0,0,1,0,0v.82l.12-.06h0V62l0,0L52,62v.3l0,0Zm0-.54v-.43l-.23.58Z"/>
            <path class="cls-10" d="M52.71,61.94h0v-.28l-.41.23h0a0,0,0,0,1,0,0v-.14a.06.06,0,0,1,0-.06.08.08,0,0,1,0,0l.41-1a.1.1,0,0,1,.05-.08l.1-.06h0v.85l.11-.06h0a0,0,0,0,1,0,0v.19l0,0-.11.07v.3l0,0Zm0-.54V61l-.23.58Z"/>
            <path class="cls-10" d="M53.24,61.57v0l.18-.49a.27.27,0,0,1-.14.05.15.15,0,0,1-.11,0,.21.21,0,0,1-.07-.12.63.63,0,0,1,0-.19.83.83,0,0,1,0-.22.68.68,0,0,1,.07-.2,1,1,0,0,1,.11-.17l.14-.11a.24.24,0,0,1,.26,0,.24.24,0,0,1,.07.12.58.58,0,0,1,0,.19v.11a.43.43,0,0,1,0,.11l0,.1,0,.1-.25.7v0l0,0-.12.07h0Zm0-.91a.19.19,0,0,0,0,.15.13.13,0,0,0,.12,0,.44.44,0,0,0,.13-.14.46.46,0,0,0,.05-.2.2.2,0,0,0-.05-.15.11.11,0,0,0-.13,0,.38.38,0,0,0-.16.33Z"/>
            <path class="cls-10" d="M54,60.88a0,0,0,0,1,0,0v.29l0,0-.12.08h0V61l0,0Z"/>
            <path class="cls-10" d="M54.26,61v0l.17-.48a.33.33,0,0,1-.13,0,.19.19,0,0,1-.12,0,.26.26,0,0,1-.07-.11.57.57,0,0,1,0-.18.78.78,0,0,1,0-.22.66.66,0,0,1,.08-.21.62.62,0,0,1,.11-.17l.14-.11a.34.34,0,0,1,.14,0,.15.15,0,0,1,.11,0,.28.28,0,0,1,.08.11.58.58,0,0,1,0,.19v.11a.35.35,0,0,1,0,.11l0,.11,0,.09-.25.7,0,0s0,0,0,0L54.3,61a0,0,0,0,1,0,0h0Zm0-.92c0,.08,0,.13,0,.15a.15.15,0,0,0,.13,0,.41.41,0,0,0,.12-.14.46.46,0,0,0,0-.21.16.16,0,0,0,0-.14.09.09,0,0,0-.12,0,.29.29,0,0,0-.13.14.4.4,0,0,0,0,.22Z"/>
            <path class="cls-10" d="M55.06,60.52v0l.18-.49a.34.34,0,0,1-.14,0A.21.21,0,0,1,55,60a.26.26,0,0,1-.07-.11.63.63,0,0,1,0-.19.83.83,0,0,1,0-.22.86.86,0,0,1,.07-.21l.11-.16.14-.12a.42.42,0,0,1,.15,0,.2.2,0,0,1,.11,0,.26.26,0,0,1,.07.11.68.68,0,0,1,0,.19v.12a.43.43,0,0,1,0,.11l0,.1a.3.3,0,0,1,0,.1l-.25.69s0,0,0,0l0,0-.12.07h0Zm0-.92c0,.08,0,.13,0,.15a.11.11,0,0,0,.13,0,.4.4,0,0,0,.13-.13.54.54,0,0,0,.05-.21.27.27,0,0,0-.05-.15.15.15,0,0,0-.13,0,.44.44,0,0,0-.13.14.44.44,0,0,0,0,.2Z"/>
            <path class="cls-4" d="M47.75,55.42a.28.28,0,0,1,.13,0,.17.17,0,0,1,.1,0,.2.2,0,0,1,.07.09.37.37,0,0,1,0,.18.72.72,0,0,1-.19.52l.21.42v.06l0,0-.06,0h0l0,0-.19-.41-.23.14V57s0,0,0,0l0,0h0v-1.4l0,0Zm-.23.81.23-.13A.54.54,0,0,0,47.9,56a.5.5,0,0,0,.05-.21c0-.09,0-.14-.05-.16a.19.19,0,0,0-.15,0l-.23.13Z"/>
            <path class="cls-4" d="M48.21,56a.69.69,0,0,1,0-.2.64.64,0,0,1,.06-.18.6.6,0,0,1,.09-.15l.12-.1a.2.2,0,0,1,.13,0,.14.14,0,0,1,.1.05.31.31,0,0,1,.06.13,1.23,1.23,0,0,1,0,.2v.09l0,0-.46.27h0a.24.24,0,0,0,0,.18.11.11,0,0,0,.13,0,.52.52,0,0,0,.11-.1l.06-.1s0,0,0,0h0l0,0h0v0a.3.3,0,0,1,0,.1.37.37,0,0,1,0,.11.6.6,0,0,1-.21.21.14.14,0,0,1-.12,0,.13.13,0,0,1-.1,0,.24.24,0,0,1-.06-.11.47.47,0,0,1,0-.17A1.09,1.09,0,0,1,48.21,56Zm.12-.07.37-.21h0a.2.2,0,0,0-.05-.17.12.12,0,0,0-.14,0,.13.13,0,0,0-.07.06l-.06.08s0,.08,0,.12a.49.49,0,0,0,0,.12Z"/>
            <path class="cls-4" d="M49.57,55.75v0s0,0,0,0l0,0h0V55l-.29.18V56a0,0,0,0,1,0,0s0,0,0,0l0,0a0,0,0,0,1,0,0h0v-.87l-.11.07h0v-.14l0,0,.11-.06v-.1a.72.72,0,0,1,.06-.29.38.38,0,0,1,.16-.19l.09-.05h0a0,0,0,0,1,0,0v.12l0,0-.07,0a.1.1,0,0,0-.05,0l0,.06V55l.29-.17v-.44l0,0,.05,0h0v0Z"/>
            <path class="cls-4" d="M49.74,55.07a.63.63,0,0,1,0-.19.48.48,0,0,1,.06-.18l.09-.15.12-.11a.33.33,0,0,1,.13,0,.16.16,0,0,1,.1.05.31.31,0,0,1,.06.13.75.75,0,0,1,0,.21v.1l0,0-.46.26h0a.23.23,0,0,0,.05.18.1.1,0,0,0,.14,0,.31.31,0,0,0,.11-.09.37.37,0,0,0,0-.11l0,0,0,0,.05,0s0,0,0,0h0a0,0,0,0,1,0,0,.3.3,0,0,1,0,.1.54.54,0,0,1-.05.11l-.09.12a.94.94,0,0,1-.12.09.18.18,0,0,1-.12,0,.13.13,0,0,1-.1,0,.24.24,0,0,1-.06-.11.47.47,0,0,1,0-.17Zm.12-.06.37-.21h0a.22.22,0,0,0,0-.17s-.08,0-.14,0l-.07.06-.06.09s0,.07,0,.11V55Z"/>
            <path class="cls-4" d="M50.78,54.71l-.19.47,0,0s0,0,0,0l-.06,0m0,0a0,0,0,0,1,0,0v0l.24-.62-.23-.31v-.07l0,0,.07,0h0l.18.24L51,54v0l0,0,.07,0h0v.06l-.23.6.24.32v.06s0,0,0,0L51,55h0l0,0Z"/>
            <path class="cls-4" d="M51.65,54.15a.5.5,0,0,0,0,.12.16.16,0,0,0,0,.07l.06,0,.07,0a.35.35,0,0,0,.11-.1,1.11,1.11,0,0,0,.07-.16A.14.14,0,0,1,52,54a0,0,0,0,1,0,0l0,0h0v0s0,.08,0,.12l-.06.14-.09.14a.41.41,0,0,1-.13.1.35.35,0,0,1-.13.05l-.1-.05a.23.23,0,0,1-.06-.12.47.47,0,0,1,0-.17v-.16a1.23,1.23,0,0,1,0-.2l.06-.19a.56.56,0,0,1,.1-.15.49.49,0,0,1,.13-.12.19.19,0,0,1,.13,0l.09,0a.16.16,0,0,1,.06.08.3.3,0,0,1,0,.1v0l0,0,0,0s0,0,0,0,0,0,0,0a.11.11,0,0,0-.07-.08.14.14,0,0,0-.11,0l-.07.06-.06.09a.56.56,0,0,0,0,.12.77.77,0,0,0,0,.15A.43.43,0,0,0,51.65,54.15Z"/>
            <path class="cls-4" d="M52.26,54a.26.26,0,0,1,0-.15.35.35,0,0,1,.06-.14.57.57,0,0,1,.08-.13l.11-.09.19-.16v0a.14.14,0,0,0,0-.13.11.11,0,0,0-.11,0,.2.2,0,0,0-.09.09.47.47,0,0,0,0,.1.06.06,0,0,1,0,0l0,0,0,0h0v0a.36.36,0,0,1,0-.1l.06-.12a.39.39,0,0,1,.08-.1.25.25,0,0,1,.1-.08.15.15,0,0,1,.11,0l.09,0a.19.19,0,0,1,0,.1.3.3,0,0,1,0,.16v.63a0,0,0,0,1,0,0s0,0,0,0l0,0h0v-.12a.19.19,0,0,1,0,.09l-.06.09-.07.07-.07,0-.09,0a.08.08,0,0,1-.07,0s0,0-.05-.06A.18.18,0,0,1,52.26,54Zm.24,0,.09-.07a.61.61,0,0,0,.07-.1.5.5,0,0,0,0-.13.51.51,0,0,0,0-.13v-.05l-.16.13a.47.47,0,0,0-.13.15.19.19,0,0,0,0,.14s0,0,0,0,0,0,0,0h0l.05,0Z"/>
            <path class="cls-4" d="M53.14,52.79l0-.06a.16.16,0,0,1,0-.07l0-.06s0,0,.06-.05a.17.17,0,0,1,.14,0,.13.13,0,0,1,.08.08.36.36,0,0,1,0-.09.2.2,0,0,1,0-.08l.06-.07a.24.24,0,0,1,.08-.06c.09,0,.15,0,.19,0a.49.49,0,0,1,.06.29v.58a0,0,0,0,1,0,0l0,0-.05,0h0V52.7a.36.36,0,0,0,0-.21.08.08,0,0,0-.12,0,.26.26,0,0,0-.11.14.53.53,0,0,0,0,.25v.6s0,0,0,0l0,0h0a0,0,0,0,1,0,0V53a.45.45,0,0,0,0-.2s-.07,0-.12,0a.37.37,0,0,0-.12.13.69.69,0,0,0,0,.25v.61s0,0,0,0l0,0h0a0,0,0,0,1,0,0v-1l0,0,0,0h0a0,0,0,0,1,0,0Z"/>
            <path class="cls-4" d="M54.18,52.52a.63.63,0,0,1,0-.19.48.48,0,0,1,.06-.18.38.38,0,0,1,.09-.15.32.32,0,0,1,.12-.11.28.28,0,0,1,.13,0,.13.13,0,0,1,.1,0,.31.31,0,0,1,.06.13,1.49,1.49,0,0,1,0,.21v.1l0,0-.47.26v0a.3.3,0,0,0,.06.18.11.11,0,0,0,.13,0,.24.24,0,0,0,.11-.09.3.3,0,0,0,.06-.11l0,0,0,0,0,0h0a0,0,0,0,1,0,0,.3.3,0,0,1,0,.1.37.37,0,0,1,0,.11.77.77,0,0,1-.22.22.21.21,0,0,1-.12,0,.14.14,0,0,1-.09,0,.24.24,0,0,1-.06-.11.47.47,0,0,1,0-.17A.61.61,0,0,1,54.18,52.52Zm.11-.06.38-.22h0a.22.22,0,0,0-.05-.17.12.12,0,0,0-.14,0l-.07.07a.44.44,0,0,0-.1.19s0,.09,0,.13Z"/>
            <path class="cls-4" d="M55.3,51.43h0v.14l0,0-.08,0a.36.36,0,0,0-.15.32v.64s0,0,0,0l0,0h0a0,0,0,0,1,0,0v-1l0,0,0,0h0v.1l.06-.13a.39.39,0,0,1,.1-.08Z"/>
            <path class="cls-4" d="M55.39,52.17a.4.4,0,0,1,0-.15.58.58,0,0,1,0-.14l.09-.12.1-.1.19-.16v0c0-.07,0-.11,0-.13a.11.11,0,0,0-.11,0,.2.2,0,0,0-.09.09.47.47,0,0,0,0,.1.05.05,0,0,1,0,0l0,0,0,0h0a0,0,0,0,1,0,0,.36.36,0,0,1,0-.11l.06-.12.08-.1a.39.39,0,0,1,.1-.08.21.21,0,0,1,.11,0l.09,0a.26.26,0,0,1,.05.09.3.3,0,0,1,0,.16V52a0,0,0,0,1,0,.05l0,0-.05,0h0V52l0,.09-.06.08-.07.07a.18.18,0,0,1-.07,0,.16.16,0,0,1-.09,0,.12.12,0,0,1-.08,0s0,0,0-.06A.31.31,0,0,1,55.39,52.17Zm.25,0,.09-.08a.86.86,0,0,0,.07-.1l0-.12a.28.28,0,0,0,0-.13v0l-.15.13a.47.47,0,0,0-.14.14.34.34,0,0,0,0,.14v0s0,0,0,0h.12Z"/>
            <path class="cls-4" d="M49.59,56.75h.11a.14.14,0,0,1,.08,0,.24.24,0,0,1,.06.08s0,.06,0,.09V57l0,0-.09.05h0l0,0a.09.09,0,0,0-.06-.06l-.12,0-.07.05a.18.18,0,0,0,0,.07.25.25,0,0,0-.05.15.08.08,0,0,0,0,.07l.05,0h.08l.13,0a.28.28,0,0,1,.13,0,.14.14,0,0,1,.09,0,.13.13,0,0,1,0,.09.59.59,0,0,1,0,.14.88.88,0,0,1,0,.16L49.8,58a.71.71,0,0,1-.1.14.49.49,0,0,1-.12.13v.14a0,0,0,0,1,0,0l0,0-.11.06h0l0,0v-.14H49.3l-.09,0-.07-.08a.59.59,0,0,1,0-.13,0,0,0,0,1,0,0,.05.05,0,0,1,0,0l.1,0h0s0,0,0,0l0,0,0,0a.06.06,0,0,0,.06,0s.05,0,.08,0l.08-.06.06-.07a.22.22,0,0,0,0-.08.19.19,0,0,0,0-.08.14.14,0,0,0,0-.07.07.07,0,0,0-.06,0h-.1l-.12,0h-.12a.12.12,0,0,1-.08,0,.14.14,0,0,1-.05-.08.61.61,0,0,1,0-.31l.06-.16A.55.55,0,0,1,49.3,57a.52.52,0,0,1,.1-.11v-.14s0,0,0-.05l0,0,.11-.06h0v0Z"/>
            <path class="cls-4" d="M50.46,57.69s0,0,0,0h0V57.4l-.41.24h0v-.23l0-.06.42-1a.1.1,0,0,1,.05-.08l.1-.06h0V57l.11-.06h0v.22l0,0-.11.07v.29l0,0Zm0-.53v-.43l-.23.58Z"/>
            <path class="cls-4" d="M51.32,57.21h0a0,0,0,0,1,0,0v-.25l-.41.23a0,0,0,0,1,0,0v-.23a.14.14,0,0,1,0-.06l.41-1a.12.12,0,0,1,.06-.08l.1-.07h0s0,0,0,0v.82l.11-.07h0v.23l0,0-.11.06v.3l0,0Zm0-.54v-.44l-.23.57Z"/>
            <path class="cls-4" d="M51.85,56.84v0l.18-.49a.24.24,0,0,1-.14,0,.2.2,0,0,1-.11,0,.24.24,0,0,1-.07-.12.57.57,0,0,1,0-.18.78.78,0,0,1,0-.22.49.49,0,0,1,.08-.21.45.45,0,0,1,.11-.17l.14-.11a.34.34,0,0,1,.14,0,.15.15,0,0,1,.11,0,.44.44,0,0,1,.08.11.4.4,0,0,1,0,.19.2.2,0,0,1,0,.11.36.36,0,0,1,0,.11.23.23,0,0,1,0,.11l0,.09-.26.7v0l0,0-.12.07s0,0,0,0Zm0-.92c0,.08,0,.13.05.15a.13.13,0,0,0,.12,0,.35.35,0,0,0,.13-.14.46.46,0,0,0,0-.2c0-.08,0-.13,0-.15a.15.15,0,0,0-.13,0,.33.33,0,0,0-.12.14A.35.35,0,0,0,51.87,55.92Z"/>
            <path class="cls-4" d="M52.63,56.15a0,0,0,0,1,0,0v.2a0,0,0,0,1,0,0l0,0-.13.07h0a0,0,0,0,1,0,0v-.25l0,0Z"/>
            <path class="cls-4" d="M52.87,56.25v0l.18-.48a.37.37,0,0,1-.14,0l-.12,0a.24.24,0,0,1-.07-.12.37.37,0,0,1,0-.18.8.8,0,0,1,.1-.41,1,1,0,0,1,.11-.17l.14-.12a.33.33,0,0,1,.14,0l.12,0a.35.35,0,0,1,.07.12.57.57,0,0,1,0,.18v.12s0,.07,0,.11l0,.1,0,.1-.23.69v0l0,0-.12.07h0s0,0,0,0Zm0-.92c0,.08,0,.13.05.15a.13.13,0,0,0,.12,0,.29.29,0,0,0,.13-.14.46.46,0,0,0,0-.2c0-.08,0-.13,0-.15A.15.15,0,0,0,53,55a.33.33,0,0,0-.12.14.38.38,0,0,0,0,.21Z"/>
            <path class="cls-4" d="M53.69,55.78h0l.18-.49a.25.25,0,0,1-.14,0,.2.2,0,0,1-.11,0,.25.25,0,0,1-.08-.12.57.57,0,0,1,0-.18.78.78,0,0,1,0-.22,1.8,1.8,0,0,1,.08-.21.91.91,0,0,1,.11-.16.81.81,0,0,1,.14-.12.33.33,0,0,1,.14,0,.2.2,0,0,1,.11,0,.2.2,0,0,1,.08.12.57.57,0,0,1,0,.18v.12s0,.07,0,.11l0,.1,0,.1-.25.69v0l0,0-.12.07h0a0,0,0,0,1,0-.06Zm0-.91c0,.07,0,.12.05.14a.11.11,0,0,0,.13,0,.3.3,0,0,0,.12-.13.36.36,0,0,0,0-.21.16.16,0,0,0,0-.14.09.09,0,0,0-.12,0,.33.33,0,0,0-.13.13.42.42,0,0,0-.06.21Z"/>
        </g>
    </g>
    <g id="freepik--Puff--inject-10">
        <g id="freepik--bean-bag--inject-10">
            <path class="cls-5" d="M91.49,40.75a15.49,15.49,0,0,1,7.67,13.82c0,7.72-3.65,13.47-10.64,16a23,23,0,0,1-13.59.06c-3.93-2-6.56-4.07-8-7.83-1.49-4.35,1.16-8.91,4.78-11.52s3.19-5.57,5.74-8.66a9,9,0,0,1,5.86-3.35A13.92,13.92,0,0,1,91.49,40.75Z"/>
            <path class="cls-20" d="M91.49,40.75a15.49,15.49,0,0,1,7.67,13.82c0,7.72-3.65,13.47-10.64,16a23,23,0,0,1-13.59.06c-3.93-2-6.56-4.07-8-7.83-1.49-4.35,1.16-8.91,4.78-11.52s3.19-5.57,5.74-8.66a9,9,0,0,1,5.86-3.35A13.92,13.92,0,0,1,91.49,40.75Z"/>
            <path class="cls-22" d="M76.6,71.16a19.08,19.08,0,0,0,12.83-3.08c5.63-3.83,8.07-9.9,6.86-17.09-1.06-6.36-4.24-9.85-7.42-11.29a11,11,0,0,1,2,.76c2.58,1.88,4.87,5.22,5.75,10.46,1.23,7.35-1.26,13.55-7,17.47a19.3,19.3,0,0,1-9.58,3.23A21.42,21.42,0,0,1,76.6,71.16Z"/>
        </g>
    </g>
    <g id="freepik--Character--inject-10">
        <path class="cls-22" d="M73.89,53.66c2.32-1.28,2.78-2.69,4.8-7.94s5.7-4.84,5.7-4.84,5.41.18,6.7,4a22.54,22.54,0,0,1,0,10.74,7.31,7.31,0,0,1-1.19,2.5,6.18,6.18,0,0,1,4.78,1.27s-2-.75-5.68.73c-2.18.87-4.09,2-6.38,3.14-1.84.92-3,1.69-3.17,2.09-.74,1.55-1,3.77-2,6a13.11,13.11,0,0,1-2.7-.72,19,19,0,0,1-5.66-4.07c0-.52,0-1.06,0-1.58,0-1.93-.08-3.86,0-5.8C69.38,54.73,71.57,55,73.89,53.66Z"/>
        <g id="freepik--character--inject-10-2">
            <path class="cls-23" d="M73.51,70.9l-.08,4a1.54,1.54,0,0,0,1.21,1.27c1.08.22,1.23-1.13,1.23-1.13l.85-4.71Z"/>
            <path class="cls-12" d="M76.15,77.13a1.44,1.44,0,0,1-.08.46c-.09.18-.58.41-.86.54a1.54,1.54,0,0,0-.87.83,3.15,3.15,0,0,1-1.45,1.41,4.33,4.33,0,0,1-2.61.22c-1.09-.2-1.16-.87-1.16-.87s-.05-.61.23-.7Z"/>
            <path class="cls-4" d="M75.93,74.77c.08,0,.09.11.1.39s.11.63.15.89a3.23,3.23,0,0,1,0,1.16c-.31.53-1,.44-1.56,1s-1.11,1.69-2.55,2a2.92,2.92,0,0,1-2.78-.61c-.26-.41,0-.79.91-1.28a10.61,10.61,0,0,0,2.3-2.06c.16-.2.31-.41.46-.64a1.92,1.92,0,0,0,.17-.39l.15-.46a.19.19,0,0,1,.31-.13,5.17,5.17,0,0,0,1.3.51.27.27,0,0,1,.14.07.28.28,0,0,1,0,.22.93.93,0,0,0,0,.29.1.1,0,0,0,.06.1s.08,0,.1-.07l.2-.37a.65.65,0,0,1,.32-.27,1,1,0,0,0,.22-.13Z"/>
            <path class="cls-10" d="M73,79.82a1.83,1.83,0,0,0-1-1.57,1.81,1.81,0,0,0-2.07,0c-.4.27-1,.87-.64,1.29a2.51,2.51,0,0,0,2,.73A2.64,2.64,0,0,0,73,79.82Z"/>
            <path class="cls-10" d="M74.51,76.49a.12.12,0,0,1-.1,0,1.9,1.9,0,0,0-1.66-.63q-.06-.12.18-.27a2.2,2.2,0,0,1,1.68.77.11.11,0,0,1,0,.16h0Z"/>
            <path class="cls-10" d="M72.3,76.38a.38.38,0,0,1,.22-.26,2.21,2.21,0,0,1,1.58.78.1.1,0,0,1,0,.15h0a.08.08,0,0,1-.08,0,.12.12,0,0,1-.09,0A1.91,1.91,0,0,0,72.3,76.38Z"/>
            <path class="cls-10" d="M71.09,77.59a.65.65,0,0,1,.34-.31,2.23,2.23,0,0,1,1.64.76.11.11,0,0,1,0,.16h0a.13.13,0,0,1-.17,0A1.8,1.8,0,0,0,71.09,77.59Z"/>
            <path class="cls-10" d="M73.48,77.65a.11.11,0,0,1-.09-.05A1.92,1.92,0,0,0,71.75,77,.42.42,0,0,1,72,76.7a2.24,2.24,0,0,1,1.58.77.11.11,0,0,1,0,.16h0Z"/>
            <path class="cls-23" d="M67.61,67.48l-.34,4a1.55,1.55,0,0,0,1.13,1.35c1.06.29,1.3-1,1.3-1l1.15-4.65Z"/>
            <path class="cls-12" d="M69.85,73.86a1.21,1.21,0,0,1-.12.45c-.09.18-.6.38-.87.49a1.52,1.52,0,0,0-.91.76,3.13,3.13,0,0,1-1.54,1.31,4.48,4.48,0,0,1-2.64.07c-1.07-.29-1.11-.94-1.11-.94s0-.61.27-.68S69.85,73.86,69.85,73.86Z"/>
            <path class="cls-4" d="M69.78,71.49c.08,0,.08.11.07.39s.08.64.09.91A3.24,3.24,0,0,1,69.85,74c-.35.5-1,.37-1.62.87S67,76.44,65.56,76.61a2.94,2.94,0,0,1-2.73-.8c-.24-.43,0-.79,1-1.21a10.4,10.4,0,0,0,2.42-1.91c.18-.21.35-.4.51-.62a1.33,1.33,0,0,0,.18-.38c.07-.15.13-.29.19-.45s.06-.14.14-.16a.27.27,0,0,1,.17.06,5.84,5.84,0,0,0,1.27.58.29.29,0,0,1,.14.08.26.26,0,0,1,0,.21,1,1,0,0,0,0,.29s0,.1.06.11.07,0,.09-.06l.23-.36a.66.66,0,0,1,.34-.25,1,1,0,0,0,.23-.11Z"/>
            <path class="cls-10" d="M66.51,76.34a1.84,1.84,0,0,0-.94-1.64,1.82,1.82,0,0,0-2.07-.12c-.41.25-1,.79-.71,1.25a2.5,2.5,0,0,0,2,.87A2.66,2.66,0,0,0,66.51,76.34Z"/>
            <path class="cls-10" d="M68.26,73.12a.09.09,0,0,1-.09-.06,1.92,1.92,0,0,0-1.62-.73c0-.09,0-.17.2-.25a2.22,2.22,0,0,1,1.63.87.11.11,0,0,1,0,.16h0A.11.11,0,0,1,68.26,73.12Z"/>
            <path class="cls-10" d="M66.06,72.86a.37.37,0,0,1,.23-.24,2.23,2.23,0,0,1,1.53.87.11.11,0,0,1,0,.16l-.08,0a.15.15,0,0,1-.09-.06A1.9,1.9,0,0,0,66.06,72.86Z"/>
            <path class="cls-10" d="M64.77,74a.74.74,0,0,1,.36-.29,2.24,2.24,0,0,1,1.6.87.11.11,0,0,1,0,.16h0a.12.12,0,0,1-.17,0h0A1.81,1.81,0,0,0,64.77,74Z"/>
            <path class="cls-10" d="M67.16,74.21a.17.17,0,0,1-.1-.06,1.83,1.83,0,0,0-1.59-.73.42.42,0,0,1,.29-.26,2.3,2.3,0,0,1,1.53.87.12.12,0,0,1,0,.16A.15.15,0,0,1,67.16,74.21Z"/>
            <path class="cls-11" d="M83.61,49.1a6.86,6.86,0,0,1-.33,4.14,10.24,10.24,0,0,1-4.35,5.35c-1.92,1-4.81,2-5.37,2.21-.71.31-.85.55-1,1.74a15.89,15.89,0,0,1-1.3,4.38c-.33.87-1.18,3.28-1.18,3.28a4.34,4.34,0,0,1-2.71-.56s.83-9.89,1.38-11.26,5.18-3.44,6.76-4.28,2.46-1.37,4.25-2.51Z"/>
            <path class="cls-12" d="M73.57,60.8c-.72.31-.85.55-1,1.74a11.21,11.21,0,0,1-.76,3c.11-.44.38-2,.41-2.26a18.87,18.87,0,0,1,.32-2.52c.18-.42,1.83-1.19,1.83-1.19l4.1-3.25A3.12,3.12,0,0,1,78,54.06a3.14,3.14,0,0,0,1.45,2.43c-.78.58-4.09,3.51-4.34,3.73C74.38,60.49,73.8,60.7,73.57,60.8Z"/>
            <path class="cls-11" d="M79.46,54a12.34,12.34,0,0,0,1.1,1.48l-.34.27A4.72,4.72,0,0,1,79.46,54Z"/>
            <path class="cls-11" d="M88.31,55.21a6.44,6.44,0,0,1-1.47,3.63,13.26,13.26,0,0,1-4,2.66c-1.93,1-3.78,2.22-4.31,2.53a1.38,1.38,0,0,0-.81,1.42,64.63,64.63,0,0,1-1.44,8.1s-1.8.68-2.87-.41c0,0-.33-10.49.2-11.86s6.93-5.86,6.93-5.86l-.78-3.85Z"/>
            <path class="cls-24" d="M82.32,41.41a3,3,0,0,0-2.6.78A29.29,29.29,0,0,0,77,49c-.13.53,2.32,1.74,2.32,1.74l1.55-3.48Z"/>
            <path class="cls-5" d="M82.16,41.38a3,3,0,0,0-2.32.58,7.65,7.65,0,0,0-1.31,2.35c-.29.68-.89,2.39-.89,2.39A4.28,4.28,0,0,0,80.44,48C81.05,46.05,82.16,41.38,82.16,41.38Z"/>
            <path class="cls-4" d="M89.58,43.33A48.05,48.05,0,0,1,88.16,56c-2.61,1.24-9-.89-9.5-4a12.1,12.1,0,0,0,1.17-2.26c.07-1.59.29-4.16.4-5.09.21-1.85,1-3.08,1.93-3.25l3,.05,1.67.33S89.52,42.82,89.58,43.33Z"/>
            <path class="cls-12" d="M87.24,33.91a1.42,1.42,0,0,1,1.09.82,5,5,0,0,1-.25,2.63,11,11,0,0,1-.74,2.3.94.94,0,0,1-.54.44l0-1.45.05-1s-.91.29-1.15-1.2a2.73,2.73,0,0,1,0-1.23Z"/>
            <path class="cls-12" d="M86.14,35.5a2.72,2.72,0,1,1-2.74-2.71,2.71,2.71,0,0,1,2.74,2.71Z"/>
            <path class="cls-23" d="M86.53,37.51c.29.08.41-.41.61-.61a.87.87,0,0,1,1.23.08.83.83,0,0,1,.08.12A1.48,1.48,0,0,1,87.89,39a.78.78,0,0,1-1-.34s0,0,0,0l0,3.28s-.19.62-1.44,1.07c-1,.35-2.42-.2-1.51-1.16v-1a4,4,0,0,1-1.43,0c-.48-.09-.87-.47-1.09-1.23a9.31,9.31,0,0,1,.2-5.23c.75-.58,2.61-.2,4.2.79C85.75,37.24,86.21,37.43,86.53,37.51Z"/>
            <path class="cls-25" d="M84.26,38.88,83,39.2a.64.64,0,0,0,.75.51h0A.7.7,0,0,0,84.26,38.88Z"/>
            <path class="cls-24" d="M84.2,39.34a.57.57,0,0,0-.79,0,.68.68,0,0,0-.12.26.67.67,0,0,0,.46.07A.71.71,0,0,0,84.2,39.34Z"/>
            <path class="cls-12" d="M80.93,32.63a.12.12,0,0,1,.09-.08l.1,0a4.07,4.07,0,0,0,.59.4,2.06,2.06,0,0,1,0-.82c0-.17.07-.55.27-.58a.4.4,0,0,1,.32.16c.82.76,1.88.4,2.87.41a2.48,2.48,0,0,1,2.2,1.14.77.77,0,0,1-.13,1,8.36,8.36,0,0,1-1.53.89c-.9.27-3.24.61-4.47-.91a2.44,2.44,0,0,1-.41-1,1.17,1.17,0,0,1,.1-.66Z"/>
            <path class="cls-24" d="M83.81,40.85a8.17,8.17,0,0,0,1.73-.64,2.42,2.42,0,0,0,.78-.84,2.46,2.46,0,0,1-.47,1.07,4,4,0,0,1-2,.81Z"/>
            <path class="cls-12" d="M83.84,37.28a.29.29,0,1,0,.29-.31.29.29,0,0,0-.29.31Z"/>
            <path class="cls-12" d="M84.11,36l.65.32a.38.38,0,0,0-.17-.5.37.37,0,0,0-.48.17Z"/>
            <path class="cls-12" d="M81.39,36.14l.7-.21a.35.35,0,0,0-.42-.26h0A.39.39,0,0,0,81.39,36.14Z"/>
            <path class="cls-12" d="M81.58,37.1a.29.29,0,0,0,.31.27.3.3,0,0,0,.27-.31.29.29,0,0,0-.29-.27A.3.3,0,0,0,81.58,37.1Z"/>
            <polygon class="cls-24" points="83 38.53 82.01 38.22 83.04 36.57 83 38.53"/>
            <path class="cls-4" d="M75.59,47.21h0L75.8,47h0a.2.2,0,0,1,.2,0l2.2.7a.83.83,0,0,1,.48.49l1.39,4.7a.2.2,0,0,1,0,.23h0l-.22.17h0a.2.2,0,0,1-.2,0l-2.2-.71a.8.8,0,0,1-.48-.49l-1.39-4.69A.2.2,0,0,1,75.59,47.21Z"/>
            <path class="cls-12" d="M78.23,48a.73.73,0,0,1,.25.35l1.39,4.69a.23.23,0,0,1,0,.24l.2-.17h0a.2.2,0,0,0,0-.23l-1.4-4.7a.8.8,0,0,0-.22-.33Z"/>
            <path class="cls-11" d="M79.87,53.08l-1.39-4.69A.8.8,0,0,0,78,47.9l-2.2-.71c-.2-.07-.32.05-.26.25l1.39,4.69a.8.8,0,0,0,.48.49l2.2.71C79.82,53.39,79.93,53.29,79.87,53.08Z"/>
            <path class="cls-24" d="M76,49c-.38-.11-.61.3-.58,1s.47,2,1.58,1.71c.43-.13.74-.87.29-1.17a7.18,7.18,0,0,1-1.06-.85Z"/>
            <path class="cls-23" d="M89.74,53.31a19.84,19.84,0,0,0,1.48-5.45c.36-3,.15-4.26-2-4.93-1.58,1.41-1.09,4.83-1.09,4.83a43.08,43.08,0,0,1-1,4.25,23.31,23.31,0,0,1-6.22-1.36,2.43,2.43,0,0,1-.6-.64,1.62,1.62,0,0,0-.56-.51c-.29-.15-.52-.23-.73-.34l.29,1s-.15.07-.2.09a3.69,3.69,0,0,1-1.36.17c-1-.07-1.84-.76-1.66.09a2.42,2.42,0,0,0,.73,1.39c.5.43,2.36.61,2.9.85A40.6,40.6,0,0,0,86.4,55C88.48,55.19,88.87,55.12,89.74,53.31Z"/>
            <path class="cls-5" d="M89,42.79c1.06.29,2,.56,2.35,2.07S91,50,91,50a5.15,5.15,0,0,1-3.32-.41l.31-1.85C87.83,45.59,88,43.82,89,42.79Z"/>
        </g>
    </g>
</svg>