<svg id="Capa_1" data-name="Capa 1"
    xmlns="http://www.w3.org/2000/svg" viewBox="0 0 15.89 15.94">
    <defs>
        <style>.cls-1{fill:#c20202;}</style>
    </defs>
    <g id="Grupo_53" data-name="Grupo 53">
        <g id="Trazado_57" data-name="Trazado 57">
            <path class="cls-1" d="M13.38,15.94H9a.5.5,0,0,1-.5-.5v-2H7.19v2a.5.5,0,0,1-.5.5H2.5a.5.5,0,0,1-.5-.5V9.77a.5.5,0,0,1,1,0v5.17H6.19v-2a.5.5,0,0,1,.5-.5H9a.5.5,0,0,1,.5.5v2h3.42V9.77a.5.5,0,0,1,.5-.5.5.5,0,0,1,.5.5v5.67A.51.51,0,0,1,13.38,15.94Z"/>
        </g>
        <g id="Trazado_58" data-name="Trazado 58">
            <path class="cls-1" d="M15.39,9.05A.48.48,0,0,1,15,8.89L8,1.23.87,8.89a.5.5,0,0,1-.71,0,.51.51,0,0,1,0-.71L7.58.15a.52.52,0,0,1,.73,0l7.45,8.06a.5.5,0,0,1,0,.71A.47.47,0,0,1,15.39,9.05Z"/>
        </g>
    </g>
</svg>