<?xml version="1.0" encoding="utf-8"?>
<svg version="1.0" id="Capa_1"
	xmlns="http://www.w3.org/2000/svg"
	xmlns:xlink="http://www.w3.org/1999/xlink" x="0px" y="0px" viewBox="0 0 130 147" style="enable-background:new 0 0 130 147;" xml:space="preserve">
	<style type="text/css">
	.st0{fill:#FFFFFF;}
	.st1{fill:#FF0600;}
	</style>
	<path class="st0" d="M0,42.06l0,62.88c0,3.77,2.01,7.25,5.27,9.13l54.46,31.44c3.26,1.88,7.28,1.88,10.54,0l54.46-31.44
	c3.26-1.88,5.27-5.36,5.27-9.13V42.06c0-3.77-2.01-7.25-5.27-9.13L70.27,1.49c-3.26-1.88-7.28-1.88-10.54,0L5.27,32.93
	C2.01,34.81,0,38.29,0,42.06z"/>
		<path class="st1" d="M94.75,68.22c-1.86,0-3.72-0.01-5.58,0c-2.3,0.01-4.13-0.89-5.51-2.73c-0.07-0.1-0.16-0.19-0.27-0.31
		c-1.42,1.99-3.27,3.04-5.67,3.04c-2.38,0-4.76,0.01-7.14,0c-2.16-0.01-3.91-0.89-5.26-2.58c-0.11-0.14-0.24-0.27-0.38-0.44
		c-1.36,1.91-3.13,2.98-5.43,3.01c-2.52,0.03-5.04,0.03-7.55,0c-2.1-0.03-3.79-0.94-5.08-2.58c-0.11-0.14-0.24-0.27-0.38-0.43
		c-1.54,2.25-3.68,3.14-6.31,3.04c-1.59-0.06-3.18-0.01-4.76-0.01h-1.3v34.67c2.29,0,50.18,0.02,61.67,0.02V68.22H94.75z
		 M59.33,99.22c0,0.93-0.75,1.68-1.68,1.68H45.02c-0.93,0-1.68-0.75-1.68-1.68V76.38c0-0.93,0.75-1.68,1.68-1.68h12.64
		c0.93,0,1.68,0.75,1.68,1.68V99.22z M88.67,89.83c0,0.48-0.39,0.86-0.86,0.86H67.85c-0.48,0-0.86-0.39-0.86-0.86v-8.8
		c0-0.48,0.39-0.86,0.86-0.86h19.96c0.48,0,0.86,0.39,0.86,0.86V89.83z"/>
		<path class="st1" d="M79.16,44.1c1.72,0,3.3,0,4.88,0c2.19,0,4.38-0.02,6.57,0.02c0.32,0.01,0.77,0.18,0.94,0.43
		c2.74,4.12,5.44,8.27,8.15,12.41c0.06,0.09,0.09,0.19,0.17,0.36c-0.32,0.02-0.58,0.05-0.84,0.05c-4.71,0-9.41-0.01-14.12,0.02
		c-0.63,0-0.9-0.2-1.11-0.78c-1.42-3.87-2.89-7.73-4.34-11.6C79.36,44.75,79.29,44.49,79.16,44.1z"/>
		<path class="st1" d="M30.05,57.3c0.13-0.24,0.22-0.43,0.33-0.6c2.61-4.01,5.24-8.01,7.84-12.02c0.26-0.41,0.55-0.6,1.05-0.59
		c3.61,0.02,7.22,0.01,10.83,0.01c0.18,0,0.37,0.04,0.65,0.07c-0.54,1.46-1.06,2.86-1.59,4.27c-1.04,2.76-2.08,5.52-3.11,8.29
		c-0.14,0.38-0.26,0.66-0.78,0.66c-4.95-0.02-9.9-0.01-14.85-0.01C30.32,57.37,30.22,57.33,30.05,57.3z"/>
		<path class="st1" d="M63.89,44.14c0,4.46,0,8.79,0,13.18c-5.28,0-10.51,0-15.83,0c0.08-0.28,0.13-0.51,0.21-0.73
		c1.46-3.91,2.95-7.82,4.39-11.74c0.22-0.59,0.5-0.78,1.12-0.77c3.09,0.03,6.18,0.01,9.27,0.01C63.31,44.1,63.58,44.13,63.89,44.14z
		"/>
		<path class="st1" d="M81.83,57.33c-5.28,0-10.51,0-15.8,0c0-4.4,0-8.75,0-13.17c0.3-0.02,0.56-0.05,0.83-0.05
		c3.12,0,6.23,0,9.35-0.01c0.42,0,0.76,0,0.95,0.53c1.53,4.15,3.1,8.29,4.65,12.43C81.83,57.1,81.82,57.15,81.83,57.33z"/>
		<path class="st1" d="M65.98,59.46c5.48,0,10.86,0,16.34,0c0.04,1.52,0.29,3.05-0.54,4.45c-0.84,1.42-2.1,2.22-3.77,2.24
		c-2.54,0.03-5.09,0.05-7.63,0c-2.56-0.05-4.38-1.96-4.4-4.54C65.97,60.92,65.98,60.24,65.98,59.46z"/>
		<path class="st1" d="M47.55,59.46c5.5,0,10.9,0,16.35,0c0,0.97,0.09,1.9-0.02,2.81c-0.28,2.22-2.05,3.82-4.3,3.87
		c-2.6,0.05-5.2,0.05-7.79-0.01c-2.35-0.05-4.17-1.93-4.24-4.27C47.53,61.08,47.55,60.29,47.55,59.46z"/>
		<path class="st1" d="M84.4,59.44c5.51,0,10.89,0,16.27,0c0.8,3.77-0.96,6.77-4.67,6.72c-2.27-0.03-4.54,0.01-6.8-0.01
		c-2.94-0.02-4.79-1.88-4.8-4.84C84.4,60.73,84.4,60.13,84.4,59.44z"/>
		<path class="st1" d="M29.18,59.45c5.43,0,10.81,0,16.28,0c0.05,1.49,0.25,2.97-0.51,4.34c-0.78,1.42-1.98,2.3-3.61,2.34
		c-2.73,0.06-5.47,0.07-8.21-0.01c-1.94-0.05-3.68-1.65-3.93-3.58C29.08,61.55,29.18,60.53,29.18,59.45z"/>
		<path class="st1" d="M54.73,89.58c0-0.71-0.01-1.42,0-2.12c0.01-0.64,0.36-1.05,1-1.05c0.64,0,1,0.42,1.01,1.05
		c0.02,1.42,0.03,2.83,0,4.25c-0.01,0.65-0.35,1.11-1.05,1.09c-0.66-0.02-0.95-0.45-0.96-1.09C54.72,90.99,54.73,90.28,54.73,89.58z
		"/>
</svg>
