<svg id="Capa_1" data-name="Capa 1" xmlns="http://www.w3.org/2000/svg" viewBox="0 0 881.65 508.15"><defs><style>.cls-1{fill:#ededed;}.cls-2{fill:#9d9d9c;}</style></defs><path class="cls-1" d="M866.53,91.58a4.46,4.46,0,0,0-4.46-4.46,4.4,4.4,0,0,0-4.32,3.74H825.23a4.4,4.4,0,0,0-4.32-3.74,4.46,4.46,0,0,0-1.59.32L803.08,59.3a4.42,4.42,0,0,0,1.39-3.21,4.37,4.37,0,0,0-.59-2.08.57.57,0,0,0,0-.14,1.42,1.42,0,0,0-.2-.22,4.32,4.32,0,0,0-7.89,1.43H763c0-.16-.1-.29-.15-.44a1.8,1.8,0,0,0-.08-.21l-.06-.14c0-.06,0-.12-.07-.17a2.5,2.5,0,0,0-.09-.25c0-.08-.12-.12-.17-.19a3.79,3.79,0,0,0-.34-.45l-.14-.14a3,3,0,0,0-.25-.25l0,0a4.7,4.7,0,0,0-.44-.34c-.08-.05-.12-.13-.2-.18s-.17,0-.25-.08l0,0a4.4,4.4,0,0,0-2-.55,4.36,4.36,0,0,0-1.14.23L741.05,23.44a4.32,4.32,0,0,0,1.19-2.25,3.23,3.23,0,0,0,.11-.54,2.84,2.84,0,0,0,.09-.42c0-.14-.07-.27-.08-.41a4.57,4.57,0,0,0-.17-.8,4.23,4.23,0,0,0-.29-.8.69.69,0,0,0,0-.13c0-.09-.12-.13-.18-.21a4.27,4.27,0,0,0-.95-1.08h0a4.48,4.48,0,1,0-1.33,7.62l16.36,28.32a4.32,4.32,0,0,0,0,6.69l-16.17,28a4.47,4.47,0,0,0-1.56-.31,4.39,4.39,0,0,0-4.31,3.74H701.13a4.39,4.39,0,0,0-4.31-3.74,4.19,4.19,0,0,0-1.47.3L679.08,59.24a4.54,4.54,0,0,0,1-1.83,4.11,4.11,0,0,0,.26-1.29v0s0,0,0,0a4,4,0,0,0-.5-2.2,4,4,0,0,0-.74-.84L679,52.9a4.07,4.07,0,0,0-1-.66,3.68,3.68,0,0,0-.63-.31,4.18,4.18,0,0,0-.51-.1,4,4,0,0,0-1-.2,4.47,4.47,0,0,0,0,8.93,4.53,4.53,0,0,0,1.53-.31L693.7,88.4a4.42,4.42,0,0,0-1.35,3.18,4.38,4.38,0,0,0,.53,2,1.11,1.11,0,0,0,.07.16A1.21,1.21,0,0,0,693,94c0,.08.12.12.17.19a3.87,3.87,0,0,0,.35.45c.1.12.19.24.3.35L677.5,123.3a4.14,4.14,0,0,0-5.59,3.35H639.33A4.39,4.39,0,0,0,635,123a4.46,4.46,0,0,0-1.59.32L617.08,95a4.4,4.4,0,0,0,1.26-2.42,2.25,2.25,0,0,0,0-.22,4,4,0,0,0,.12-.6,3.73,3.73,0,0,0-.12-.58c0-.11,0-.21-.06-.32a4.4,4.4,0,0,0-4.28-3.56,4.46,4.46,0,1,0,0,8.92,4.38,4.38,0,0,0,1.36-.27l16.43,28.45c-.09.1-.14.23-.22.33l-.06.07a3.79,3.79,0,0,0-.34.45c-.05.07-.13.11-.17.19a2.5,2.5,0,0,0-.09.25s0,0,0,0v0a3.25,3.25,0,0,0-.18.43,3.83,3.83,0,0,0-.16.58,5.35,5.35,0,0,0-.07.56,2.38,2.38,0,0,0,0,.26,2.21,2.21,0,0,0,0,.25,5.35,5.35,0,0,0,.07.56,3.83,3.83,0,0,0,.16.58,4.18,4.18,0,0,0,.21.53,1.7,1.7,0,0,0,.09.24c0,.08.12.12.17.2a4.83,4.83,0,0,0,.34.45,3.39,3.39,0,0,0,.31.34l-16.4,28.4a4.56,4.56,0,0,0-1.33-.27,4.41,4.41,0,0,0-4.28,3.54H577a3.09,3.09,0,0,0-.14-.43,4.2,4.2,0,0,0-.22-.53c0-.08,0-.17-.08-.24s-.12-.12-.17-.2a4.94,4.94,0,0,0-.35-.45,4.16,4.16,0,0,0-.42-.42,4.94,4.94,0,0,0-.45-.35c-.08-.05-.12-.12-.2-.17s-.16,0-.24-.08a3.11,3.11,0,0,0-.53-.22,5.47,5.47,0,0,0-.58-.15l-.23,0a4.69,4.69,0,0,0-1.3-.26,5.27,5.27,0,0,0-.69.14l-16.32-28.27a3.31,3.31,0,0,0,.3-.34,4.94,4.94,0,0,0,.35-.45c0-.07.12-.12.17-.2s0-.16.08-.24a4.2,4.2,0,0,0,.22-.53,5.47,5.47,0,0,0,.15-.58,3.6,3.6,0,0,0,.08-.56c0-.09,0-.16,0-.25s0-.17,0-.26a3.6,3.6,0,0,0-.08-.56,5.47,5.47,0,0,0-.15-.58,4.77,4.77,0,0,0-.22-.52c0-.08,0-.17-.08-.25s-.13-.12-.17-.2a3.75,3.75,0,0,0-.35-.44,3.38,3.38,0,0,0-.31-.35L571.54,96a4.32,4.32,0,0,0,1.35.27,4.46,4.46,0,1,0,0-8.92A4.41,4.41,0,0,0,568.58,91s0,.06,0,.09a5.12,5.12,0,0,0-.14.68A4.43,4.43,0,0,0,569.87,95l-16.45,28.48h-.06a4.31,4.31,0,0,0-6.17,3.17H515a3.22,3.22,0,0,0-.14-.44,4.77,4.77,0,0,0-.22-.52c0-.08,0-.17-.08-.25s-.13-.12-.18-.2a2.87,2.87,0,0,0-.34-.44,4.26,4.26,0,0,0-.42-.43,4.83,4.83,0,0,0-.45-.34c-.08,0-.12-.13-.2-.18s-.17,0-.25-.08l-.3-.12a4.3,4.3,0,0,0-2.13-.62,4,4,0,0,0-.91.19L493.18,95.1a4.42,4.42,0,0,0-2.89-7.8,4.38,4.38,0,0,0-3.54,1.88.61.61,0,0,1-.07.1,4.62,4.62,0,0,0-.6,1.22,69.71,69.71,0,0,1-.25,1.26c0,.11.06.2.06.31a4.34,4.34,0,0,0,.18.87,4.2,4.2,0,0,0,.26.78c0,.09,0,.18.09.27a4.84,4.84,0,0,0,.46.54,3.8,3.8,0,0,0,.41.49,6.15,6.15,0,0,0,3,1.2,4.57,4.57,0,0,0,1.18-.23l16.18,28a4.28,4.28,0,0,0,.09,7l-16.3,28.24a3.58,3.58,0,0,0-.45-.09,2.35,2.35,0,0,0-.37-.05,4.34,4.34,0,0,0-1.2-.25,4.41,4.41,0,0,0-4.28,3.54H453.05c0-.15-.1-.29-.15-.43a4.18,4.18,0,0,0-.21-.53,2.34,2.34,0,0,0-.09-.24c0-.08-.12-.12-.17-.2a4.83,4.83,0,0,0-.34-.45,4.26,4.26,0,0,0-.43-.42,4.82,4.82,0,0,0-.44-.35c-.08-.05-.12-.12-.2-.17s-.17,0-.25-.08a3.38,3.38,0,0,0-.52-.22l-.27-.07a2.13,2.13,0,0,0-.27-.07h-.08a4.55,4.55,0,0,0-1.42-.29,4,4,0,0,0-.76.16l-16.33-28.29c.12-.11.2-.23.31-.34a4.83,4.83,0,0,0,.34-.45c.05-.07.13-.12.17-.2a1.7,1.7,0,0,0,.09-.24,4.18,4.18,0,0,0,.21-.53,3.83,3.83,0,0,0,.16-.58,5.35,5.35,0,0,0,.07-.56,2.21,2.21,0,0,0,0-.25,2.38,2.38,0,0,0,0-.26,5.35,5.35,0,0,0-.07-.56,3.83,3.83,0,0,0-.16-.58,4.71,4.71,0,0,0-.21-.52,2.5,2.5,0,0,0-.09-.25c0-.08-.12-.12-.17-.2a3.68,3.68,0,0,0-.34-.44c-.11-.12-.19-.24-.31-.35L447.6,95.91a4.36,4.36,0,0,0,1.54.31,4.46,4.46,0,1,0,0-8.92,4.37,4.37,0,0,0-2.55.89,4.26,4.26,0,0,0-.49.34,66,66,0,0,0-1,1.13,4.27,4.27,0,0,0,.85,5.27l-16.48,28.55a4.45,4.45,0,0,0-1.89-.45,4.4,4.4,0,0,0-4.29,3.62H391.07c0-.16-.1-.29-.15-.44a4.71,4.71,0,0,0-.21-.52,2.5,2.5,0,0,0-.09-.25c0-.08-.12-.12-.17-.2a3.75,3.75,0,0,0-.35-.44,4.26,4.26,0,0,0-.42-.43,3.79,3.79,0,0,0-.45-.34c-.07,0-.11-.13-.19-.18s-.17,0-.25-.08l-.13,0a4.32,4.32,0,0,0-2.24-.69,4,4,0,0,0-1,.2l-16.34-28.3a4.26,4.26,0,0,0,.85-5.27,4.22,4.22,0,0,0-1.48-1.46,4.39,4.39,0,0,0-2.7-1,4.46,4.46,0,1,0,0,8.92c.08,0,.15,0,.23,0a4.76,4.76,0,0,0,1.44-.19L383.71,124a4.28,4.28,0,0,0,.09,7l-16.32,28.27a3.58,3.58,0,0,0-.45-.09l-.18,0a4.49,4.49,0,0,0-1.33-.27,4.41,4.41,0,0,0-4.28,3.54H329.08a1.93,1.93,0,0,0-.11-.34,4.41,4.41,0,0,0-4.21-3.2,4.47,4.47,0,0,0-4.46,4.47,4.38,4.38,0,0,0,1.57,3.33l-16.17,28a4.52,4.52,0,0,0-1.56-.32,4.42,4.42,0,0,0-4.34,3.84H267.32a4.29,4.29,0,0,0-5.89-3.52l-16.25-28.15.14-.16c.05-.07.11-.12.16-.19a5,5,0,0,0,.46-.67c0-.07.06-.15.1-.22s.13-.23.18-.36.06-.1.08-.16a5.15,5.15,0,0,0,.17-.87,4.52,4.52,0,0,0,.11-.53c0-.09-.05-.16-.05-.25a5.12,5.12,0,0,0-.17-.85l-.09-.24a3.84,3.84,0,0,0-.2-.6,1.87,1.87,0,0,0-.07-.22,3.87,3.87,0,0,0-.32-.37,4.32,4.32,0,0,0-7.88,1.57H205.18A4.22,4.22,0,0,0,199.5,159l-16.34-28.3s.06-.08.1-.12a4,4,0,0,0,.59-.77,3.78,3.78,0,0,0,.22-.33,4.29,4.29,0,0,0,.64-2.15,4.47,4.47,0,1,0-8.93,0,4.33,4.33,0,0,0,.64,2.16,2.14,2.14,0,0,0,.09.27,4.22,4.22,0,0,0,.47.56l.17.21a4.28,4.28,0,0,0,4.35,1.13L197.83,160a4.45,4.45,0,0,0-1.42,3.24,4.32,4.32,0,0,0,.76,2.34v0l0,0a4.25,4.25,0,0,0,.79.95h0l-16.16,28a4.33,4.33,0,0,0-6,3.67H143.16a4.4,4.4,0,0,0-4.29-3.6,4.35,4.35,0,0,0-1.3.26L121.19,166.5a4.47,4.47,0,0,0,.79-1l.1-.15a4.25,4.25,0,0,0,.39-1.12,2.84,2.84,0,0,0,.06-.31,3.51,3.51,0,0,0,.13-.66,4.46,4.46,0,0,0-8.92,0,4.4,4.4,0,0,0,1.73,3.45l0,0a4.41,4.41,0,0,0,2.68,1,4,4,0,0,0,.92-.19c.13,0,.27,0,.4,0l16.37,28.35a4.34,4.34,0,0,0,.08,6.6l-16.36,28.34a4.29,4.29,0,0,0-1.43-.29,4.38,4.38,0,0,0-4.27,3.54H81.3A4.39,4.39,0,0,0,77,230.46a4.44,4.44,0,0,0-3,7.71L57.58,266.62a4.18,4.18,0,0,0-1.46-.3,4.4,4.4,0,0,0-4.26,3.47H19.13a4.4,4.4,0,0,0-4.26-3.47,4.47,4.47,0,0,0,0,8.93,4.4,4.4,0,0,0,4.28-3.54H51.84a4.4,4.4,0,0,0,4.28,3.54,4.35,4.35,0,0,0,1.49-.3l16.27,28.16a4.47,4.47,0,0,0-1.32,3.17,4.34,4.34,0,0,0,.14.7c0,.12,0,.24,0,.37s.07.26.11.39a3,3,0,0,0,.13.39,3.05,3.05,0,0,0,.13.32,2.5,2.5,0,0,0,.09.25c0,.08.12.12.17.2a3.75,3.75,0,0,0,.35.44c.1.12.19.24.3.35L57.72,337.93a4.37,4.37,0,0,0-6,3.43H19.22a4.41,4.41,0,0,0-4.33-3.76,4.44,4.44,0,0,0-3,7.69A4.3,4.3,0,0,0,15,346.65a4.18,4.18,0,0,0,3.77-2.47,5.13,5.13,0,0,0,.36-.87,0,0,0,0,1,0,0H51.83A4.4,4.4,0,0,0,54,346a.43.43,0,0,0,.1.09l.07,0,.33.13c.12,0,.24.11.37.15a4.18,4.18,0,0,0,.58.16,5.35,5.35,0,0,0,.56.07,2.38,2.38,0,0,0,.26,0,1.84,1.84,0,0,0,.25,0,5.22,5.22,0,0,0,.57-.07,3.63,3.63,0,0,0,.45-.1L74,374.93a2.54,2.54,0,0,0-.29.36h0a4.94,4.94,0,0,0-.35.45c0,.08-.13.12-.17.2a2.5,2.5,0,0,0-.09.25h0c-.07.15-.13.3-.19.46a.14.14,0,0,1,0,.06,3.83,3.83,0,0,0-.16.58,5.35,5.35,0,0,0-.07.56,2.21,2.21,0,0,0-.05.25,2,2,0,0,0,.05.26,5.35,5.35,0,0,0,.07.56,3.83,3.83,0,0,0,.16.58h0a4.73,4.73,0,0,0,.25.62.34.34,0,0,0,0,.14c0,.08.12.12.17.2l.06.07a4.37,4.37,0,0,0,.55.78L57.63,409.66a4.52,4.52,0,0,0-1.38-.28,4.47,4.47,0,0,0,0,8.93,4.5,4.5,0,0,0,1.16-.23h0a4.13,4.13,0,0,0,1.43-.69l.09-.06A4.3,4.3,0,0,0,60,416.1s0,0,0,0a0,0,0,0,0,0,0,4.18,4.18,0,0,0,.47-1.31.29.29,0,0,0,0-.09,4,4,0,0,0,.16-.78,4.42,4.42,0,0,0-1.41-3.23L75.65,382.3a4.21,4.21,0,0,0,5.72-3.23H114a4.35,4.35,0,0,0,2,2.73l.07.06h0a4.37,4.37,0,0,0,2.14.62,4.47,4.47,0,0,0,1.27-.25l16.31,28.25a4.43,4.43,0,0,0-1.51,3.3,4.39,4.39,0,0,0,1.6,3.35l-16.38,28.38a4.36,4.36,0,0,0-1.3-.27,4.47,4.47,0,1,0,4.46,4.47,4.41,4.41,0,0,0-1.48-3.28L137.67,418a4.35,4.35,0,0,0,1.15.23,3.73,3.73,0,0,0,.46-.09l.48-.06a3.94,3.94,0,0,0,.49-.14,3.84,3.84,0,0,0,.51-.19l.1,0a2.5,2.5,0,0,0,.25-.09c.08,0,.12-.12.19-.17a3,3,0,0,0,.45-.35l.08-.08a2.83,2.83,0,0,0,.25-.24l.1-.1a4.83,4.83,0,0,0,.34-.45c0-.07.13-.11.17-.19a2.5,2.5,0,0,0,.09-.25s0-.09.05-.13a3.65,3.65,0,0,0,.14-.35l0,0c0-.15.11-.29.15-.44h32.67a4.4,4.4,0,0,0,4.27,3.48,4.28,4.28,0,0,0,1.47-.3l16.36,28.34a4.41,4.41,0,0,0-1.4,3.22,4.25,4.25,0,0,0,.63,2.14.2.2,0,0,0,0,.11,1.37,1.37,0,0,0,.16.18,4.41,4.41,0,0,0,.65.83l-16.44,28.49a4.32,4.32,0,0,0-1.35-.27,4.46,4.46,0,0,0,0,8.92,4.4,4.4,0,0,0,4.32-3.72.09.09,0,0,1,0,0,4,4,0,0,0,.14-.69,4.39,4.39,0,0,0-1.45-3.25l16.45-28.49a3.26,3.26,0,0,0,.45.09h.08a4.15,4.15,0,0,0,.78.16,4.39,4.39,0,0,0,4.25-3.41h32.83s0,0,0,.07a4.18,4.18,0,0,0,.35.91,1.42,1.42,0,0,0,.07.22c0,.08.13.12.18.2a3,3,0,0,0,.27.35,3.34,3.34,0,0,0,.45.47l.05.05a3.75,3.75,0,0,0,.44.35c.08,0,.12.12.2.17s.17,0,.25.08l.06,0,.39.16.07,0a5.47,5.47,0,0,0,.58.15,3.6,3.6,0,0,0,.56.08c.09,0,.16.05.26.05h.05a3.2,3.2,0,0,0,.33-.07,3,3,0,0,0,.43-.06,3.26,3.26,0,0,0,.45-.09L260,482.36l0,0a4.21,4.21,0,0,0-.55.71,4.3,4.3,0,0,0-.35.52,5.09,5.09,0,0,0-.31.88,3.71,3.71,0,0,0-.11.58,3.37,3.37,0,0,0-.12.55,5.17,5.17,0,0,0,.11.54c0,.06,0,.11,0,.17a4.4,4.4,0,0,0,4.32,3.75,4.46,4.46,0,0,0,4.46-4.46,4.37,4.37,0,0,0-1.76-3.46h0a4.21,4.21,0,0,0-1.2-.69l-.06,0a4.48,4.48,0,0,0-1.42-.28,4.36,4.36,0,0,0-.72.14,3.2,3.2,0,0,0-.62.09L245.2,452.87a4.35,4.35,0,0,0,.11-6.58l16.26-28.17a4.27,4.27,0,0,0,1.18.24,4.35,4.35,0,0,0,2.25-.69s.05,0,.07,0a.63.63,0,0,0,.12-.1,4.25,4.25,0,0,0,1-.9,4.08,4.08,0,0,0,.31-.39c.05-.07.12-.11.17-.19s0-.16.08-.24a3.69,3.69,0,0,0,.17-.42l0-.11a3.73,3.73,0,0,0,.14-.44h33a4.09,4.09,0,0,0,.49,1.18c.07.13.15.23.23.35a4.28,4.28,0,0,0,.62.72,4,4,0,0,0,.8.54c.16.08.29.2.46.27a4.17,4.17,0,0,0,1.42.28,1.89,1.89,0,0,0,.23.05,4.47,4.47,0,0,0,0-8.93,4.4,4.4,0,0,0-4.29,3.61H267.1a3.73,3.73,0,0,0-.14-.44.61.61,0,0,1,0-.12c-.05-.13-.1-.25-.16-.37v0c0-.08,0-.17-.08-.25s-.12-.12-.17-.19a4.94,4.94,0,0,0-.35-.45l0,0a4.25,4.25,0,0,0-.84-.74h0c-.08-.05-.12-.13-.2-.17l-.12,0a4.27,4.27,0,0,0-2.2-.66,4.58,4.58,0,0,0-1.17.23L245.2,381.29a4.36,4.36,0,0,0,.1-6.56l16.34-28.3a3.63,3.63,0,0,0,.45.1,5.35,5.35,0,0,0,.56.07,2.38,2.38,0,0,0,.26,0,2.21,2.21,0,0,0,.25,0,5.35,5.35,0,0,0,.56-.07,3.83,3.83,0,0,0,.58-.16l.31-.13.14-.05s.05,0,.07,0a2.5,2.5,0,0,0,.25-.09c.08,0,.12-.12.2-.17a4.94,4.94,0,0,0,.45-.35s0,0,.06-.05a4.52,4.52,0,0,0,.78-.91.47.47,0,0,0,.1-.1.64.64,0,0,1,0-.07,4.65,4.65,0,0,0,.5-1.14H300c0,.15.1.29.15.44l0,.07.08.15a3,3,0,0,0,.25.51,3.82,3.82,0,0,0,.45.68,4.72,4.72,0,0,0,.67.59,3.34,3.34,0,0,0,.4.35,2.5,2.5,0,0,0,.25.09,5.25,5.25,0,0,0,.82.27,4,4,0,0,0,.84.17,2.38,2.38,0,0,0,.26,0,4.76,4.76,0,0,0,.52-.1,4.2,4.2,0,0,0,.87-.18,1,1,0,0,0,.18-.09,4.39,4.39,0,0,0,1.54-7.43l16.28-28.2.45.09a5.39,5.39,0,0,0,.56.08c.09,0,.17.05.26.05s.17-.05.26-.05a4.85,4.85,0,0,0,.55-.08l.16,0a4.39,4.39,0,0,0,4-3.21H362c0,.16.1.29.15.44a4.71,4.71,0,0,0,.21.52,2.5,2.5,0,0,0,.09.25c0,.08.12.12.17.2a3.64,3.64,0,0,0,.35.45,4.16,4.16,0,0,0,.42.42,3.54,3.54,0,0,0,.45.34c.07.05.11.13.19.18s.17,0,.25.08a4.77,4.77,0,0,0,.52.22c.2.06.38.11.58.15a5.39,5.39,0,0,0,.56.08c.09,0,.17.05.26.05s.17-.05.26-.05a5.39,5.39,0,0,0,.56-.08l.45-.09,16.41,28.43a4.39,4.39,0,0,0-1.49,3.27,4.47,4.47,0,1,0,4.47-4.46,4.35,4.35,0,0,0-1.3.26l-16.3-28.24a4.28,4.28,0,0,0,.21-7.12l16.12-27.93.08,0a4.52,4.52,0,0,0,1.77.37,4.39,4.39,0,0,0,4.27-3.54h32a4.36,4.36,0,0,0,2.88,3l.16.06a2.82,2.82,0,0,0,.57.15,3.56,3.56,0,0,0,.57.08,2.21,2.21,0,0,0,.25.05,2.38,2.38,0,0,0,.26-.05A5.35,5.35,0,0,0,429,275a3.63,3.63,0,0,0,.45-.1L445.68,303a4.47,4.47,0,0,0-1.25,3.08,4.7,4.7,0,0,0,.17.83,4.09,4.09,0,0,0,.5,1.83,4.28,4.28,0,0,0,7.81-.78l.12-.24a.15.15,0,0,1,0-.07,4.36,4.36,0,0,0,.32-1.57,4.47,4.47,0,0,0-4.46-4.47,4.38,4.38,0,0,0-1.62.33l-16.16-28a3.39,3.39,0,0,0,.31-.34,4.83,4.83,0,0,0,.34-.45c.05-.07.13-.12.17-.19a2.5,2.5,0,0,0,.09-.25,4.18,4.18,0,0,0,.21-.53,3.7,3.7,0,0,0,.16-.57,5.35,5.35,0,0,0,.07-.56.7.7,0,0,0,0-.52,5.35,5.35,0,0,0-.07-.56,4.18,4.18,0,0,0-.16-.58s0-.09-.05-.13a4.44,4.44,0,0,0-1-1.76l16.39-28.38c.14,0,.29.06.45.09a3.57,3.57,0,0,0,.56.07,2.27,2.27,0,0,0,.25.06,2.44,2.44,0,0,0,.26-.06,3.57,3.57,0,0,0,.56-.07,3.83,3.83,0,0,0,.58-.16,4.71,4.71,0,0,0,.52-.21c.08,0,.17,0,.25-.08s.12-.13.2-.18a4.7,4.7,0,0,0,.44-.34c.11-.09.2-.2.3-.3l.2-.22a4.11,4.11,0,0,0,.27-.35c.05-.08.13-.12.17-.2a1,1,0,0,0,.08-.22,4.63,4.63,0,0,0,.43-1h32.73a4.26,4.26,0,0,0,1.39,2.14.86.86,0,0,0,.13.14,4.83,4.83,0,0,0,.45.34c.08.05.12.13.2.18s.16,0,.24.08a3.44,3.44,0,0,0,.53.21,3.83,3.83,0,0,0,.58.16,3.57,3.57,0,0,0,.56.07,2.27,2.27,0,0,0,.25.06,2.44,2.44,0,0,0,.26-.06,3.57,3.57,0,0,0,.56-.07l.45-.09,16.27,28.18a4.43,4.43,0,0,0-1.49,3.29,4.38,4.38,0,0,0,1.66,3.39l-16.15,28a4.44,4.44,0,0,0-6.14,4.13,4.35,4.35,0,0,0,.73,2.3,4.25,4.25,0,0,0,1.69,2,4.34,4.34,0,0,0,5.92-1.59,4.15,4.15,0,0,0,.5-2.21c0-.16.09-.29.09-.45a4.44,4.44,0,0,0-1.21-3l16.26-28.17a3.63,3.63,0,0,0,.45.1,5.35,5.35,0,0,0,.56.07,2.21,2.21,0,0,0,.25.05,2,2,0,0,0,.26-.05,3.6,3.6,0,0,0,.56-.08,2.91,2.91,0,0,0,.58-.15,3.38,3.38,0,0,0,.52-.22c.08,0,.17,0,.25-.08s.12-.12.2-.17a3.75,3.75,0,0,0,.44-.35,3.42,3.42,0,0,0,.43-.42,3.54,3.54,0,0,0,.34-.45c.05-.07.13-.12.18-.19s0-.17.08-.25a4.2,4.2,0,0,0,.22-.53,3.09,3.09,0,0,0,.14-.43h32.53a4.31,4.31,0,0,0,5.9,3.21L569.69,303a4.45,4.45,0,0,0-1.42,3.24,4.33,4.33,0,0,0,.77,2.34s0,.06,0,.08.08.07.11.12a4.05,4.05,0,0,0,.73.82,4,4,0,0,0,1.06.72l.07,0a4.09,4.09,0,0,0,5.74-2.26c0-.07.07-.13.09-.19a3.43,3.43,0,0,0,.18-.89,4.05,4.05,0,0,0,.16-.77,4.47,4.47,0,0,0-4.46-4.47,4.24,4.24,0,0,0-1.38.28L555.08,273.9a2.5,2.5,0,0,0,.31-.34,4.94,4.94,0,0,0,.35-.45c0-.07.12-.12.17-.19s0-.17.08-.25a4.2,4.2,0,0,0,.22-.53,5.29,5.29,0,0,0,.15-.57,3.6,3.6,0,0,0,.08-.56c0-.09,0-.17,0-.26s0-.17,0-.26a3.6,3.6,0,0,0-.08-.56c0-.2-.09-.38-.15-.58a4.77,4.77,0,0,0-.22-.52c0-.08,0-.17-.08-.25s-.13-.12-.17-.19a3.87,3.87,0,0,0-.35-.45c-.1-.12-.19-.24-.3-.35l16.42-28.45a4.56,4.56,0,0,0,1.23.25,4.38,4.38,0,0,0,2.17-.65l.07,0a1.27,1.27,0,0,0,.12-.1,4.49,4.49,0,0,0,1.32-1.32,1.22,1.22,0,0,0,.15-.17.35.35,0,0,0,0-.11,4.52,4.52,0,0,0,.38-1l0-.11h32.62a4.41,4.41,0,0,0,4.26,3.47,4.53,4.53,0,0,0,1.52-.31l16.33,28.29a4.31,4.31,0,0,0,0,6.81l-16.15,28a4.37,4.37,0,0,0-1.67-.34,4.47,4.47,0,0,0-4.46,4.47,4.41,4.41,0,0,0,2.42,3.9s.07.08.12.11l.07,0c.13.06.27.09.4.14a4.3,4.3,0,0,0,5.45-1.75,4.08,4.08,0,0,0,.25-3.5,4.43,4.43,0,0,0-1-1.95L633.44,275a3.47,3.47,0,0,0,3.28-.45,1.21,1.21,0,0,0,.25-.08c.07,0,.12-.12.19-.17a3.39,3.39,0,0,0,.42-.33l.15-.13c.1-.1.21-.2.3-.31a4.94,4.94,0,0,0,.35-.45c0-.07.13-.12.17-.19s0-.17.08-.25a3.38,3.38,0,0,0,.22-.52,3.73,3.73,0,0,0,.14-.44h32.6a4.34,4.34,0,0,0,7.6,2l.33-.37a4.36,4.36,0,0,0,.35-.4,2.5,2.5,0,0,0,.09-.25,4.38,4.38,0,0,0,.27-.82,4.13,4.13,0,0,0,.17-.85,1.84,1.84,0,0,0,.05-.25,4.51,4.51,0,0,0-.1-.53,4.34,4.34,0,0,0-.18-.87,4.12,4.12,0,0,0-.36-.73,4.45,4.45,0,0,0-.45-.68c-.11-.12-.2-.24-.31-.35l16.43-28.46a4.62,4.62,0,0,0,1.29.26,4.41,4.41,0,0,0,4.26-3.47h32.63a4.33,4.33,0,0,0,6.12,3,4.35,4.35,0,0,0,2.66-4,4.41,4.41,0,0,0-.4-1.77,4.47,4.47,0,0,0-4.11-2.73,4.39,4.39,0,0,0-4.28,3.54h-32.6a4.4,4.4,0,0,0-4.28-3.54,4.26,4.26,0,0,0-1.33.27l-16.39-28.4a3.85,3.85,0,0,0,.27-.3c0-.05.08-.11.13-.17a2.72,2.72,0,0,0,.25-.32c0-.07.13-.12.17-.2a.74.74,0,0,0,.07-.21,4.3,4.3,0,0,0,.72-2.28,4.42,4.42,0,0,0-1.39-3.21l16.22-28.09a4.26,4.26,0,0,0,1.34.27,4.41,4.41,0,0,0,4.26-3.47h32.82a.29.29,0,0,0,0,.1,4,4,0,0,0,.38,1,.32.32,0,0,0,0,.09.93.93,0,0,0,.13.15,4.34,4.34,0,0,0,1.37,1.36.34.34,0,0,0,.09.08h0a4.36,4.36,0,0,0,2.19.66,4.21,4.21,0,0,0,1.23-.25l16.33,28.29a4.4,4.4,0,0,0-1.54,3.31,4.46,4.46,0,0,0,4.46,4.46,4.42,4.42,0,0,0,2.26-.69h0s0,0,0,0a4.43,4.43,0,0,0,1.17-1,3.37,3.37,0,0,0,.21-.31,4.15,4.15,0,0,0,.53-1.1,3.35,3.35,0,0,0,.11-.55,3.7,3.7,0,0,0,.16-.75c0-.13-.07-.24-.08-.37a2.73,2.73,0,0,0-.1-.48,4,4,0,0,0-.41-1.24s0-.05,0-.07-.08-.08-.11-.14a4.4,4.4,0,0,0-3.74-2.16,4.27,4.27,0,0,0-1.23.25L741.1,166.67a4.34,4.34,0,0,0,0-6.61l16.37-28.34a3,3,0,0,0,.45.09,3.6,3.6,0,0,0,.56.08c.09,0,.16.05.25.05l.12,0c.07,0,.13,0,.2,0a4.4,4.4,0,0,0,4.25-3.39h32.56a3.09,3.09,0,0,0,.14.43,4.2,4.2,0,0,0,.22.53c0,.08,0,.17.08.24s.12.12.17.2a4.94,4.94,0,0,0,.35.45,4.16,4.16,0,0,0,.42.42,4.94,4.94,0,0,0,.45.35c.08.05.12.12.2.17s.17,0,.25.08l.24.1.21.09.07,0a5.47,5.47,0,0,0,.58.15,3.6,3.6,0,0,0,.56.08c.09,0,.16.05.25.05h0l.12,0a4.21,4.21,0,0,0,1.12-.23l16.41,28.43a4.48,4.48,0,0,0-1.21,2.4c0,.12,0,.23-.07.35s-.09.29-.09.45.08.28.09.43a3.74,3.74,0,0,0,.18.87,4.67,4.67,0,0,0,.23.66c0,.08.05.16.09.24s.23.23.32.36a4.84,4.84,0,0,0,.7.8c.13.1.27.18.41.27a4.1,4.1,0,0,0,1.17.57l.1,0a4.2,4.2,0,0,0,1.18.24,4.47,4.47,0,0,0,0-8.93,4.41,4.41,0,0,0-1.45.3l-16.34-28.32a4.32,4.32,0,0,0,.09-6.69l16.31-28.24c.15,0,.3.06.45.09a3.57,3.57,0,0,0,.56.07,2.21,2.21,0,0,0,.25.05,2,2,0,0,0,.26-.05,3.57,3.57,0,0,0,.56-.07,3.83,3.83,0,0,0,.58-.16,2.28,2.28,0,0,0,.36-.15l.24-.09a.35.35,0,0,0,.17-.06c.08,0,.12-.12.2-.17l.18-.14a4.36,4.36,0,0,0,1.84-2.48h32.71a4.39,4.39,0,0,0,.61,1.27c0,.06.07.11.1.16a4.37,4.37,0,0,0,.6.69,4.09,4.09,0,0,0,2.92,1.25,4.31,4.31,0,0,0,4-2.66A4.38,4.38,0,0,0,866.53,91.58ZM494.46,163.14a5.39,5.39,0,0,0-.08-.56,3.83,3.83,0,0,0-.16-.58,4.18,4.18,0,0,0-.21-.53c0-.08,0-.17-.08-.24s-.13-.12-.18-.2a3.54,3.54,0,0,0-.34-.45,3.28,3.28,0,0,0-.31-.34l16.42-28.44a4.36,4.36,0,0,0,.8.16,2.65,2.65,0,0,0,.3-.06,1.55,1.55,0,0,0,.21,0c.1,0,.17-.05.26-.05a3.6,3.6,0,0,0,.56-.08,3.8,3.8,0,0,0,.58-.15,3.38,3.38,0,0,0,.52-.22c.08,0,.17,0,.25-.08s.12-.12.2-.17a3.75,3.75,0,0,0,.44-.35,4.26,4.26,0,0,0,.43-.42,3.54,3.54,0,0,0,.34-.45c.05-.08.13-.12.18-.2s0-.16.08-.24a4.2,4.2,0,0,0,.22-.53,3.09,3.09,0,0,0,.14-.43h32.2a4.41,4.41,0,0,0,4.25,3.39c.13,0,.25-.07.38-.08h0c.09,0,.17.05.26.05s.16-.05.25-.05a3.6,3.6,0,0,0,.56-.08,3.26,3.26,0,0,0,.45-.09l16.19,28a4.28,4.28,0,0,0,0,7.22l-16.14,28a4.32,4.32,0,0,0-2-.55,4.42,4.42,0,0,0-4.34,3.84H515a3.73,3.73,0,0,0-.14-.44,4.77,4.77,0,0,0-.22-.52c0-.08,0-.17-.08-.25s-.13-.12-.18-.19a3,3,0,0,0-.34-.45,4.16,4.16,0,0,0-.42-.42,4.38,4.38,0,0,0-3.33-1.57,4.49,4.49,0,0,0-1,.21l-16.19-28a3.38,3.38,0,0,0,.31-.35,3.79,3.79,0,0,0,.34-.45c.05-.07.13-.11.18-.19s0-.17.08-.25a4.71,4.71,0,0,0,.21-.52,3.83,3.83,0,0,0,.16-.58,5.39,5.39,0,0,0,.08-.56c0-.09.05-.17.05-.26S494.46,163.23,494.46,163.14Zm-124,0a5.35,5.35,0,0,0-.07-.56,3.83,3.83,0,0,0-.16-.58,4.18,4.18,0,0,0-.21-.53,2.34,2.34,0,0,0-.09-.24c0-.08-.12-.12-.17-.2a4.94,4.94,0,0,0-.35-.45,3.31,3.31,0,0,0-.3-.34l16.43-28.45a4.74,4.74,0,0,0,.85.17,2.14,2.14,0,0,0,.27-.06.58.58,0,0,0,.18,0c.09,0,.17-.05.26-.05a3.6,3.6,0,0,0,.56-.08c.2,0,.38-.09.58-.15a3.38,3.38,0,0,0,.52-.22c.08,0,.17,0,.25-.08s.12-.12.19-.17a4.94,4.94,0,0,0,.45-.35,4.16,4.16,0,0,0,.42-.42,4.94,4.94,0,0,0,.35-.45c.05-.08.13-.12.17-.2a1.7,1.7,0,0,0,.09-.24,4.18,4.18,0,0,0,.21-.53c.05-.14.11-.28.15-.43h32.27a4.4,4.4,0,0,0,4.24,3.39c.13,0,.23-.06.35-.07h0c.09,0,.16.05.25.05s.17-.05.26-.05a9.23,9.23,0,0,0,1-.17l16.2,28.07a4.28,4.28,0,0,0,0,7.16l-16.13,28a4.32,4.32,0,0,0-2-.52,4.41,4.41,0,0,0-4.33,3.84H391.07c0-.15-.1-.29-.15-.44a4.71,4.71,0,0,0-.21-.52,2.5,2.5,0,0,0-.09-.25c0-.08-.12-.12-.17-.19a3.87,3.87,0,0,0-.35-.45,2.08,2.08,0,0,0-.21-.21,4.38,4.38,0,0,0-3.47-1.78,4.32,4.32,0,0,0-1.08.22l-16.2-28c.11-.11.2-.23.3-.35a4.82,4.82,0,0,0,.35-.44c0-.08.13-.12.17-.2a2.5,2.5,0,0,0,.09-.25,4.71,4.71,0,0,0,.21-.52,3.83,3.83,0,0,0,.16-.58,5.35,5.35,0,0,0,.07-.56,2.38,2.38,0,0,0,.05-.26A2.21,2.21,0,0,0,370.49,163.14Zm-61.94,36c0-.09.05-.17.05-.26a4.4,4.4,0,0,0-1.28-3.11l16.26-28.16a4.2,4.2,0,0,0,1.18.24,4.41,4.41,0,0,0,3.55-1.88,4.09,4.09,0,0,0,.33-.38,2.09,2.09,0,0,0,.08-.23,3.76,3.76,0,0,0,.27-.82h0a.88.88,0,0,1,.05-.15h32.21a4.4,4.4,0,0,0,4.26,3.47,3.73,3.73,0,0,0,.58-.12.45.45,0,0,0,.11,0,2.44,2.44,0,0,0,.26-.06,3.57,3.57,0,0,0,.56-.07c.15,0,.3,0,.45-.09l16.13,28a4.29,4.29,0,0,0,.28,7l-16.28,28.2a4.26,4.26,0,0,0-.79-.16,4.39,4.39,0,0,0-1.81.4l-.2,0a4.77,4.77,0,0,0-.52.22c-.08,0-.17,0-.25.08s-.12.13-.19.17a3.87,3.87,0,0,0-.45.35,4.16,4.16,0,0,0-.42.42,3.64,3.64,0,0,0-.35.45c-.05.08-.13.12-.17.2a2.34,2.34,0,0,0-.09.24,4.18,4.18,0,0,0-.21.53c-.05.14-.11.28-.15.43H329.94a4.39,4.39,0,0,0-4.28-3.54,4.27,4.27,0,0,0-1.24.25,2.11,2.11,0,0,0-.35,0,3.58,3.58,0,0,0-.45.09l-16.46-28.52a3.31,3.31,0,0,0,.3-.34,4.94,4.94,0,0,0,.35-.45c.05-.08.12-.12.17-.2s0-.16.08-.24a3.11,3.11,0,0,0,.22-.53,2.91,2.91,0,0,0,.15-.58,3.6,3.6,0,0,0,.08-.56c0-.08.05-.16.05-.25S308.55,199.13,308.55,199.11Zm-46.91,4.18a9.23,9.23,0,0,0,1,.17c.09,0,.17,0,.26,0s.16,0,.25,0a3.6,3.6,0,0,0,.56-.08,2.91,2.91,0,0,0,.58-.15,4,4,0,0,0,.53-.22c.08,0,.16,0,.24-.08s.12-.12.2-.17a4.94,4.94,0,0,0,.45-.35,4.54,4.54,0,0,0,.38-.38l.08-.1c.11-.13.21-.25.31-.39s.12-.12.17-.2,0-.15.08-.23a4.73,4.73,0,0,0,.44-1h32.75a4.54,4.54,0,0,0,.48,1,.56.56,0,0,0,.07.18c0,.08.12.13.17.2s.11.14.16.22a3.73,3.73,0,0,0,.26.3,4.29,4.29,0,0,0,.8.7c.07.05.11.12.19.17s.17,0,.25.08a3.38,3.38,0,0,0,.52.22,2.91,2.91,0,0,0,.58.15,3.6,3.6,0,0,0,.56.08c.09,0,.17,0,.26,0s.16,0,.25,0a3.6,3.6,0,0,0,.56-.08,3,3,0,0,0,.45-.09L322,231.81c-.11.11-.2.23-.31.34a4.83,4.83,0,0,0-.34.45c-.05.08-.13.12-.17.2a2.34,2.34,0,0,0-.09.24,4.87,4.87,0,0,0-.21.53,3.83,3.83,0,0,0-.16.58,5.35,5.35,0,0,0-.07.56,2.21,2.21,0,0,0-.05.25,2.38,2.38,0,0,0,.05.26,5.35,5.35,0,0,0,.07.56,3.83,3.83,0,0,0,.16.58,4.71,4.71,0,0,0,.21.52,2.5,2.5,0,0,0,.09.25c0,.08.12.12.17.2a3.68,3.68,0,0,0,.34.44c.11.12.19.24.31.35l-16.38,28.37a3.86,3.86,0,0,0-.82-.17,4,4,0,0,0-.5.1h0a2.38,2.38,0,0,0-.26.05,5.35,5.35,0,0,0-.56.07,3.83,3.83,0,0,0-.58.16,4.71,4.71,0,0,0-.52.21,2.5,2.5,0,0,0-.25.09c-.08,0-.12.12-.19.17a3.79,3.79,0,0,0-.45.34,4.36,4.36,0,0,0-.43.43,3.79,3.79,0,0,0-.34.45c0,.07-.13.11-.17.19a2.5,2.5,0,0,0-.09.25,4.71,4.71,0,0,0-.21.52c-.05.15-.11.29-.15.44H267.1a3.73,3.73,0,0,0-.14-.44,1.42,1.42,0,0,0-.08-.18l-.09-.22-.05-.12c0-.08,0-.17-.08-.25s-.12-.12-.17-.19a3.87,3.87,0,0,0-.35-.45.76.76,0,0,0-.09-.09,4.32,4.32,0,0,0-.44-.42c-.11-.09-.22-.18-.34-.26s-.12-.13-.2-.17a1.8,1.8,0,0,0-.21-.08,4.38,4.38,0,0,0-2.11-.6,4.5,4.5,0,0,0-1.16.23l-16.4-28.41c.12-.12.2-.26.31-.39a3.32,3.32,0,0,0,.32-.42c.05-.08.13-.12.18-.2s0-.16.08-.24a4.71,4.71,0,0,0,.21-.52h0a5.47,5.47,0,0,0,.15-.58,3.6,3.6,0,0,0,.08-.56c0-.09.05-.17.05-.26h0v0c0-.14-.07-.26-.08-.41a2.23,2.23,0,0,0-.05-.36,2.36,2.36,0,0,0-.1-.38,4.52,4.52,0,0,0-.33-.89.19.19,0,0,0,0-.08.74.74,0,0,0-.12-.13,4.42,4.42,0,0,0-.66-.94Zm-1.79,70.83-16.17,28a4.3,4.3,0,0,0-1.56-.32,4.41,4.41,0,0,0-4.32,3.76H205.28a4.4,4.4,0,0,0-4.32-3.76,4.34,4.34,0,0,0-1.48.3l-16.27-28.17c.08-.07.11-.18.18-.26l.11-.12a4.83,4.83,0,0,0,.34-.45c0-.07.13-.12.18-.19s0-.17.08-.25a.69.69,0,0,0,0-.1l0-.1a2.15,2.15,0,0,0,.13-.32,4.18,4.18,0,0,0,.16-.58,3.55,3.55,0,0,0,.07-.57,1.83,1.83,0,0,0,.06-.25,2.44,2.44,0,0,0-.06-.26,3.57,3.57,0,0,0-.07-.56,4.18,4.18,0,0,0-.16-.58,4.71,4.71,0,0,0-.21-.52c0-.08,0-.17-.08-.25s-.13-.12-.18-.19a4.83,4.83,0,0,0-.34-.45,3.38,3.38,0,0,0-.31-.35l16.44-28.47a4.56,4.56,0,0,0,1.33.27,4.4,4.4,0,0,0,4.26-3.47h32.64a4.2,4.2,0,0,0,5.67,3.18l16.35,28.33a4.32,4.32,0,0,0,0,6.69ZM122.6,306.48a1.46,1.46,0,0,0,.05-.2,4.43,4.43,0,0,0-1.3-3.14L137.6,275a4.07,4.07,0,0,0,1.21.25,4.39,4.39,0,0,0,3.72-2.15c.05-.07.12-.11.16-.18a.28.28,0,0,0,0-.12,11.91,11.91,0,0,0,.41-1.09h32.64a4.4,4.4,0,0,0,4.28,3.54,4.29,4.29,0,0,0,1.52-.31l16.25,28.16a4.45,4.45,0,0,0-1.33,3.18,4.34,4.34,0,0,0,.5,2,2,2,0,0,0,.09.22c0,.08,0,.17.08.25s.13.12.17.2a3.75,3.75,0,0,0,.35.44c.1.12.19.24.3.35L181.67,338a4.49,4.49,0,0,0-1.32-.27,4.41,4.41,0,0,0-4.3,3.66H143.22a4.39,4.39,0,0,0-4.28-3.58,4.32,4.32,0,0,0-1.35.27l-16.38-28.36c.12-.11.2-.23.31-.35a3.68,3.68,0,0,0,.34-.44c0-.08.13-.12.17-.2a2.5,2.5,0,0,0,.09-.25,4.71,4.71,0,0,0,.21-.52,3.83,3.83,0,0,0,.16-.58,5.35,5.35,0,0,0,.07-.56,2,2,0,0,0,0-.26A.11.11,0,0,0,122.6,306.48Zm60.84-110.89,16.22-28.08c.15,0,.29.06.45.09a3.57,3.57,0,0,0,.56.07,2.27,2.27,0,0,0,.25.06,2.44,2.44,0,0,0,.26-.06,3.57,3.57,0,0,0,.56-.07,3.83,3.83,0,0,0,.58-.16,4.71,4.71,0,0,0,.52-.21c.08,0,.17,0,.25-.08s.12-.13.2-.18a4.83,4.83,0,0,0,.45-.34l.23-.24.09-.09s.07-.06.1-.1a3.68,3.68,0,0,0,.34-.44c.05-.08.13-.12.18-.2s0-.17.08-.25l.05-.12a5,5,0,0,0,.26-.68.75.75,0,0,0,.05-.16h32.69a4.41,4.41,0,0,0,4.27,3.47,4.34,4.34,0,0,0,1.44-.29l16.28,28.19a4.47,4.47,0,0,0-1.28,3.13,2.65,2.65,0,0,0,.06.3s0,0,0,0a2.27,2.27,0,0,0,.06.25,3.57,3.57,0,0,0,.07.56,3.83,3.83,0,0,0,.16.58,3.08,3.08,0,0,0,.21.53c0,.08,0,.17.08.24s.13.13.18.2a4.83,4.83,0,0,0,.34.45,2.5,2.5,0,0,0,.31.34l-16.41,28.42a4.24,4.24,0,0,0-5.73,3.25h-32.6a4.4,4.4,0,0,0-4.28-3.54,4.23,4.23,0,0,0-1.37.28l-16.4-28.41a2.5,2.5,0,0,0,.31-.34,4.83,4.83,0,0,0,.34-.45c0-.07.13-.12.18-.2s0-.16.08-.24a3.08,3.08,0,0,0,.21-.53.57.57,0,0,0,0-.14s0,0,0-.05.07-.25.1-.39,0-.25.05-.37a4.15,4.15,0,0,0,.19-.93A4.45,4.45,0,0,0,183.44,195.59Zm-62.18,36.13,16.41-28.42a4.34,4.34,0,0,0,1.2.25,4.13,4.13,0,0,0,.61-.13l.28,0,.29-.07a4.24,4.24,0,0,0,.84-.31.94.94,0,0,0,.22-.07c.08-.05.12-.12.19-.17l.36-.27a5.87,5.87,0,0,0,.65-.67,2.92,2.92,0,0,0,.21-.28c0-.07.13-.12.17-.2a.73.73,0,0,0,.07-.19,4.49,4.49,0,0,0,.33-.86s0-.1,0-.15h32.93s0,0,0,.05l.11.33,0,0a4.2,4.2,0,0,0,.22.53c0,.08,0,.17.08.24s.12.13.17.2a4.94,4.94,0,0,0,.35.45,4.16,4.16,0,0,0,.42.42,4.94,4.94,0,0,0,.45.35c.08.05.12.12.2.17s.16,0,.24.08a3.49,3.49,0,0,0,.53.22,2.91,2.91,0,0,0,.58.15,3.6,3.6,0,0,0,.56.08c.09,0,.16,0,.25,0s.17,0,.26,0a9.23,9.23,0,0,0,1-.17l16.39,28.4a4.38,4.38,0,0,0,0,6.49l-16.42,28.44a4.34,4.34,0,0,0-1.48-.3,4.4,4.4,0,0,0-4.26,3.47H143.14c0-.15-.1-.29-.15-.44s0,0,0-.05a3.71,3.71,0,0,0-.19-.46h0a2.5,2.5,0,0,0-.09-.25c0-.08-.12-.12-.17-.19a3.79,3.79,0,0,0-.34-.45h0a3.92,3.92,0,0,0-.71-.64l-.16-.12c-.07-.05-.11-.13-.19-.17a.85.85,0,0,0-.17-.06,3.58,3.58,0,0,0-3.31-.38l-16.4-28.41a4.37,4.37,0,0,0,.52-.68c0-.05.08-.09.11-.14s.13-.12.17-.2a1,1,0,0,0,.06-.16,4.65,4.65,0,0,0,.34-1l.06-.22,0-.21a4.67,4.67,0,0,0,.13-.65A4.41,4.41,0,0,0,121.26,231.72ZM59.26,274a4,4,0,0,0,.28-.4,3.68,3.68,0,0,0,.34-.44c0-.07.13-.12.17-.19a1.21,1.21,0,0,0,.08-.25,2.33,2.33,0,0,0,.14-.33,1.67,1.67,0,0,0,.08-.2,3.7,3.7,0,0,0,.16-.57,5.35,5.35,0,0,0,.07-.56.7.7,0,0,0,0-.52,5.35,5.35,0,0,0-.07-.56,4.18,4.18,0,0,0-.16-.58c0-.09-.07-.17-.11-.26l0-.08-.08-.18c0-.08,0-.17-.08-.25s-.12-.12-.17-.19a3.87,3.87,0,0,0-.35-.45c-.06-.08-.13-.15-.2-.23l-.1-.11h0l16.44-28.48a4.45,4.45,0,0,0,1.36.28,4.41,4.41,0,0,0,4.26-3.47h32.63a4.41,4.41,0,0,0,4.26,3.47,4.64,4.64,0,0,0,1.39-.28l16.36,28.33a4.32,4.32,0,0,0,0,6.67l-16.18,28a4.36,4.36,0,0,0-1.54-.31,4.41,4.41,0,0,0-4.32,3.76H81.35A4.41,4.41,0,0,0,77,301.81a4.19,4.19,0,0,0-1.51.31Zm59,99.62a4.39,4.39,0,0,0-4.28,3.58H81.36a4.4,4.4,0,0,0-4.26-3.48,4.29,4.29,0,0,0-1.43.29L59.23,345.47a3.31,3.31,0,0,0,.3-.34,4.94,4.94,0,0,0,.35-.45c0-.07.13-.12.17-.19s0-.17.08-.25a3.11,3.11,0,0,0,.22-.53,3.7,3.7,0,0,0,.16-.57,5.35,5.35,0,0,0,.07-.56.7.7,0,0,0,0-.52,5.35,5.35,0,0,0-.07-.56,4.18,4.18,0,0,0-.16-.58c0-.1-.08-.2-.13-.3a3.61,3.61,0,0,0-.17-.46h0A4.39,4.39,0,0,0,59.3,339l16.39-28.39.45.09a5.39,5.39,0,0,0,.56.08c.09,0,.17.05.26.05s.17-.05.26-.05a5.39,5.39,0,0,0,.56-.08c.2,0,.38-.09.58-.15a4.77,4.77,0,0,0,.52-.22c.08,0,.17,0,.25-.08s.12-.13.19-.18a3.54,3.54,0,0,0,.45-.34l.19-.19a4.46,4.46,0,0,0,.59-.7,1.37,1.37,0,0,0,.16-.18.49.49,0,0,0,0-.11,4.35,4.35,0,0,0,.49-1.1H114a4.23,4.23,0,0,0,.55,1.2h0l0,0a4.68,4.68,0,0,0,.8.92l.12.12a3.54,3.54,0,0,0,.45.34c.07.05.12.13.2.18s.16,0,.24.08a4.2,4.2,0,0,0,.53.22l.57.15a5.39,5.39,0,0,0,.56.08c.09,0,.17.05.26.05s.17-.05.26-.05a5.39,5.39,0,0,0,.56-.08l.45-.09L135.92,339a4.36,4.36,0,0,0,.06,6.53l-16.34,28.31A4.32,4.32,0,0,0,118.29,373.57Zm61.79,35.83a4.4,4.4,0,0,0-4.28,3.53H143.14c0-.07,0-.14-.07-.2a4.4,4.4,0,0,0-4.25-3.4,4.48,4.48,0,0,0-1.26.25l-16.31-28.26a4.35,4.35,0,0,0,.06-6.54l16.36-28.33a4.48,4.48,0,0,0,1.27.26,4.35,4.35,0,0,0,2.14-.63h0l0,0a4.33,4.33,0,0,0,2-2.76h32.88c0,.13.08.25.12.37s.11.29.18.44a.94.94,0,0,0,.06.15c0,.08,0,.17.08.25s.12.12.17.19a4.94,4.94,0,0,0,.35.45l.12.12.12.12.18.18a4.94,4.94,0,0,0,.45.35c.08.05.12.13.2.17a2.34,2.34,0,0,0,.24.09l.23.09.1,0,.2.08a3.83,3.83,0,0,0,.58.16,5.35,5.35,0,0,0,.56.07,2.21,2.21,0,0,0,.25,0,2.38,2.38,0,0,0,.26,0,5.35,5.35,0,0,0,.56-.07,3.63,3.63,0,0,0,.45-.1l16.38,28.38a4.44,4.44,0,0,0-1.39,3.22,4.3,4.3,0,0,0,.62,2.13.2.2,0,0,0,0,.11c0,.07.11.11.15.17a4.21,4.21,0,0,0,.66.85l-16.41,28.42A4.35,4.35,0,0,0,180.08,409.4Zm79.79,1.16a4.32,4.32,0,0,0,0,6.68l-16.24,28.11a4.2,4.2,0,0,0-1.33-.27,4.39,4.39,0,0,0-4.29,3.63H205.26a4.2,4.2,0,0,0-5.69-3.3l-16.38-28.36.11-.12c.06-.08.13-.15.2-.23a4.83,4.83,0,0,0,.34-.45c0-.07.13-.11.18-.19s0-.17.08-.25.05-.13.08-.19v0a2.52,2.52,0,0,0,.12-.29,4.18,4.18,0,0,0,.16-.58,3.57,3.57,0,0,0,.07-.56,2.44,2.44,0,0,0,.06-.26,1.83,1.83,0,0,0-.06-.25,3.55,3.55,0,0,0-.07-.57,4.18,4.18,0,0,0-.16-.58l-.1-.25-.08-.2,0-.07c0-.08,0-.17-.08-.25s-.13-.12-.18-.19a4.83,4.83,0,0,0-.34-.45l-.08-.08a2.28,2.28,0,0,0-.21-.3l16.44-28.48a4.26,4.26,0,0,0,1.33.27,4.38,4.38,0,0,0,4.25-3.42H238a4.26,4.26,0,0,0,.42,1.06.57.57,0,0,0,0,.14c0,.08.13.12.17.2l.06.06a4.25,4.25,0,0,0,.78.86,3.8,3.8,0,0,0,.38.29c.08.05.12.13.2.18s.16,0,.23.08a4.71,4.71,0,0,0,.52.21h0a5.47,5.47,0,0,0,.58.15,3.6,3.6,0,0,0,.56.08c.09,0,.16.05.26.05h0c.13,0,.24-.06.37-.07l.41-.06a3.58,3.58,0,0,0,.45-.09Zm-16.24-36.77a4.32,4.32,0,0,0-1.35-.27,4.4,4.4,0,0,0-4.3,3.63H205.26a4.22,4.22,0,0,0-5.69-3.3l-16.35-28.33a4.34,4.34,0,0,0,.13-6.62l16.31-28.25.45.09a5.39,5.39,0,0,0,.56.08c.09,0,.16.05.25.05s.17-.05.26-.05a5.39,5.39,0,0,0,.56-.08,5.47,5.47,0,0,0,.58-.15,4.77,4.77,0,0,0,.52-.22c.08,0,.17,0,.25-.08s.12-.13.2-.18a2.87,2.87,0,0,0,.44-.34,2.72,2.72,0,0,0,.24-.24,4,4,0,0,0,.34-.38c.06-.08.13-.16.19-.25s.13-.12.18-.2a1.39,1.39,0,0,0,.06-.19,4.43,4.43,0,0,0,.44-1H237.9a4.41,4.41,0,0,0,1.47,2.22l.07.06a2.87,2.87,0,0,0,.44.34c.08.05.12.13.2.18s.17,0,.25.08a4.77,4.77,0,0,0,.52.22,5.47,5.47,0,0,0,.58.15,5.39,5.39,0,0,0,.56.08c.09,0,.16.05.26.05s.16-.05.25-.05a5.39,5.39,0,0,0,.56-.08l.45-.09,16.33,28.28a4.43,4.43,0,0,0-1.35,3.19,4.35,4.35,0,0,0,.54,2,.42.42,0,0,0,0,.1c0,.08,0,.17.08.25s.13.12.18.19a4.83,4.83,0,0,0,.34.45l.11.12,0,0a1.62,1.62,0,0,0,.18.19Zm77-67a5.35,5.35,0,0,0,.07.56,3.83,3.83,0,0,0,.16.58,4.71,4.71,0,0,0,.21.52,2.5,2.5,0,0,0,.09.25c0,.08.12.12.17.2a3.68,3.68,0,0,0,.34.44c.11.12.19.24.31.35l-16.3,28.23a4.17,4.17,0,0,0-5.63,3.44H267.26a4.23,4.23,0,0,0-5.77-3.41l-16.32-28.26a3.38,3.38,0,0,0,.31-.35,2.87,2.87,0,0,0,.34-.44c.05-.08.13-.12.18-.2s0-.17.08-.25a4.77,4.77,0,0,0,.22-.52,5.47,5.47,0,0,0,.15-.58,3.6,3.6,0,0,0,.08-.56c0-.09.05-.16.05-.26a.36.36,0,0,0,0-.11c0-.05,0-.09,0-.14a4.42,4.42,0,0,0-1.28-3.12L261.56,275a4.19,4.19,0,0,0,1.19.24,4.35,4.35,0,0,0,2.32-.75h0a4.31,4.31,0,0,0,1.21-1.12c.06-.09.13-.17.2-.26s.12-.12.17-.19a1.52,1.52,0,0,0,.06-.2,3.71,3.71,0,0,0,.19-.46,1.17,1.17,0,0,1,0-.11,3.73,3.73,0,0,0,.14-.44H300c0,.15.1.29.15.44a4.71,4.71,0,0,0,.21.52,2.5,2.5,0,0,0,.09.25c0,.07.12.12.17.19a4.83,4.83,0,0,0,.34.45,4.26,4.26,0,0,0,.43.42,3.87,3.87,0,0,0,.45.35c.07.05.11.13.19.17s.17,0,.25.08a3.38,3.38,0,0,0,.52.22l.08,0a4.41,4.41,0,0,0,1.85.43,4.25,4.25,0,0,0,.86-.18L322,303.38c-.12.11-.2.23-.31.34a4.83,4.83,0,0,0-.34.45c-.05.08-.13.12-.17.2a2.34,2.34,0,0,0-.09.24c-.08.18-.15.35-.21.53a3.83,3.83,0,0,0-.16.58,5.35,5.35,0,0,0-.07.56,2.21,2.21,0,0,0-.05.25A2,2,0,0,0,320.61,306.79Zm47.11-4.8a4.49,4.49,0,0,0-.9-.18,4.34,4.34,0,0,0-2.53.89c-.08,0-.17,0-.25.08s-.12.13-.19.18a3.54,3.54,0,0,0-.45.34,4.16,4.16,0,0,0-.42.42,3.64,3.64,0,0,0-.35.45c-.05.08-.13.12-.17.2a2.34,2.34,0,0,0-.09.24,4.87,4.87,0,0,0-.21.53c-.05.14-.11.28-.15.43H330a4.29,4.29,0,0,0-6.39-3.19L307.39,274.3a4.29,4.29,0,0,0,0-7.05l16.26-28.17.45.09a3.57,3.57,0,0,0,.56.07,2.44,2.44,0,0,0,.26.06.42.42,0,0,0,.16,0,3.79,3.79,0,0,0,4.87-3.34H362c0,.16.1.29.15.44a4.71,4.71,0,0,0,.21.52,2.5,2.5,0,0,0,.09.25c0,.08.12.12.17.19a2.58,2.58,0,0,0,.35.45,4.26,4.26,0,0,0,.42.43,4.83,4.83,0,0,0,.45.34c.07.05.11.13.19.18s.17,0,.25.08a3.33,3.33,0,0,0,.52.21,4.18,4.18,0,0,0,.58.16,3.57,3.57,0,0,0,.56.07,2.44,2.44,0,0,0,.26.06l.08,0a1.64,1.64,0,0,0,1.28,0l16.37,28.35c-.11.11-.2.23-.3.35a3.87,3.87,0,0,0-.35.45c-.05.07-.13.11-.17.19a1.21,1.21,0,0,0-.08.25,3.38,3.38,0,0,0-.22.52,4.18,4.18,0,0,0-.16.58,5.35,5.35,0,0,0-.07.56.7.7,0,0,0,0,.52,5.35,5.35,0,0,0,.07.56,3.7,3.7,0,0,0,.16.57,3.11,3.11,0,0,0,.22.53,1.21,1.21,0,0,0,.08.25c0,.07.12.12.17.19a4.94,4.94,0,0,0,.35.45,3.31,3.31,0,0,0,.3.34Zm61.87-35.58a4.27,4.27,0,0,0-1.6-.33,4.4,4.4,0,0,0-4.31,3.71h-32a4.41,4.41,0,0,0-4.26-3.47,4.52,4.52,0,0,0-.53.11h-.05a2.38,2.38,0,0,0-.26.05,5.35,5.35,0,0,0-.56.07,3.63,3.63,0,0,0-.45.1L369.36,238.5a4.29,4.29,0,0,0,0-7.13l16.21-28.08a9.23,9.23,0,0,0,1,.17c.09,0,.17,0,.26,0s.17,0,.26,0a3.6,3.6,0,0,0,.56-.08,3.1,3.1,0,0,0,.58-.15,3.38,3.38,0,0,0,.52-.22c.08,0,.17,0,.25-.08s.12-.12.19-.17a3.87,3.87,0,0,0,.45-.35,4.16,4.16,0,0,0,.42-.42,4.94,4.94,0,0,0,.35-.45c.05-.07.13-.12.17-.2a1.7,1.7,0,0,0,.09-.24,4.18,4.18,0,0,0,.21-.53c.05-.14.11-.28.15-.43h32.31a4.36,4.36,0,0,0,3.05,2.94c.12,0,.24.11.37.15a2.91,2.91,0,0,0,.58.15,3.31,3.31,0,0,0,.55.08c.09,0,.17,0,.26,0s.17,0,.26,0a9.23,9.23,0,0,0,1-.17l16.3,28.23a4.42,4.42,0,0,0-1.33,3.16,4.67,4.67,0,0,0,.2,1s0,.07,0,.1a.45.45,0,0,0,0,.11,3.35,3.35,0,0,0,.22.7,1.48,1.48,0,0,0,.12.29c0,.08,0,.17.08.25s.12.12.17.2a3.75,3.75,0,0,0,.35.44c.1.12.19.24.3.35Zm60.46-36.19a4.41,4.41,0,0,0-4.32,3.78H453.22a4.41,4.41,0,0,0-4.32-3.78,4.36,4.36,0,0,0-1.5.3l-16.28-28.19a3.39,3.39,0,0,0,.31-.34,4.83,4.83,0,0,0,.34-.45c.05-.07.13-.12.17-.2a1.7,1.7,0,0,0,.09-.24,4.18,4.18,0,0,0,.21-.53,3.83,3.83,0,0,0,.16-.58,4.76,4.76,0,0,0,.07-.56,1.84,1.84,0,0,0,0-.25,2.38,2.38,0,0,0,0-.26,5.35,5.35,0,0,0-.07-.56,4.18,4.18,0,0,0-.16-.58,4.71,4.71,0,0,0-.21-.52,2.5,2.5,0,0,0-.09-.25c0-.08-.12-.12-.17-.19a3.79,3.79,0,0,0-.34-.45c-.11-.12-.19-.24-.31-.35l16.37-28.34a4.17,4.17,0,0,0,.72.14,5.35,5.35,0,0,0,.55-.11l.09,0a2.44,2.44,0,0,0,.26-.06,3.57,3.57,0,0,0,.56-.07,3.83,3.83,0,0,0,.58-.16,4.71,4.71,0,0,0,.52-.21c.08,0,.17,0,.25-.08s.12-.13.19-.18a3.79,3.79,0,0,0,.45-.34,4.36,4.36,0,0,0,.43-.43,4.7,4.7,0,0,0,.34-.44c.05-.08.13-.12.17-.2a2.5,2.5,0,0,0,.09-.25,4.71,4.71,0,0,0,.21-.52c.05-.15.11-.28.15-.44h32.11a4.4,4.4,0,0,0,4.26,3.47,4.11,4.11,0,0,0,.61-.12.7.7,0,0,0,.14,0,2.44,2.44,0,0,0,.26-.06,3.57,3.57,0,0,0,.56-.07c.15,0,.3,0,.45-.09l16.12,27.92a4.28,4.28,0,0,0,.27,7l-16.21,28.09A4.31,4.31,0,0,0,490.05,230.22Zm63.37,36.41c-.15,0-.29-.06-.45-.09l-.13,0a4.76,4.76,0,0,0-1-.2,4.41,4.41,0,0,0-4.26,3.47H515a3,3,0,0,0-.11-.32,4.4,4.4,0,0,0-4.24-3.39,4.48,4.48,0,0,0-1.28.26l-16.3-28.22a3.38,3.38,0,0,0,.31-.35,3.46,3.46,0,0,0,.34-.44c.05-.08.13-.12.18-.2s0-.17.08-.25a4.71,4.71,0,0,0,.21-.52,3.83,3.83,0,0,0,.16-.58,5.39,5.39,0,0,0,.08-.56c0-.09.05-.17.05-.26a.45.45,0,0,0,0-.11,1,1,0,0,0,0-.17,4.48,4.48,0,0,0-1.28-3.11l16.33-28.28a3.26,3.26,0,0,0,.45.09,3.6,3.6,0,0,0,.56.08c.09,0,.16,0,.25,0s.17,0,.26,0a3.6,3.6,0,0,0,.56-.08,2.91,2.91,0,0,0,.58-.15,3.38,3.38,0,0,0,.52-.22c.08,0,.17,0,.25-.08s.12-.12.2-.17a3.75,3.75,0,0,0,.44-.35,3.42,3.42,0,0,0,.43-.42,3.54,3.54,0,0,0,.34-.45c.05-.07.13-.12.18-.2s0-.16.08-.24a4.2,4.2,0,0,0,.22-.53,3.09,3.09,0,0,0,.14-.43h32.25a4.35,4.35,0,0,0,3.18,3l.3.13a2.91,2.91,0,0,0,.58.15,3.6,3.6,0,0,0,.56.08c.09,0,.16,0,.26,0s.16,0,.25,0a3.6,3.6,0,0,0,.56-.08,3.26,3.26,0,0,0,.45-.09l16.36,28.34a4.33,4.33,0,0,0,0,6.61Zm60.47-36.17a4.39,4.39,0,0,0-4.27,3.54H577a4.38,4.38,0,0,0-4.27-3.54,4.16,4.16,0,0,0-1.27.26l-16.39-28.39a2.5,2.5,0,0,0,.31-.34,4.94,4.94,0,0,0,.35-.45c0-.07.12-.12.17-.2s0-.16.08-.24a4.2,4.2,0,0,0,.22-.53,5.47,5.47,0,0,0,.15-.58,3.28,3.28,0,0,0,.08-.56c0-.08,0-.16,0-.25s0-.17,0-.26a3.6,3.6,0,0,0-.08-.56c0-.2-.09-.38-.15-.58a4.77,4.77,0,0,0-.22-.52c0-.08,0-.17-.08-.25s-.13-.12-.17-.19a3.87,3.87,0,0,0-.35-.45,3.38,3.38,0,0,0-.31-.35l16.37-28.33a4.67,4.67,0,0,0,.65.13,4.25,4.25,0,0,0,.6-.12.42.42,0,0,0,.12,0,2.27,2.27,0,0,0,.25-.06,3.57,3.57,0,0,0,.56-.07,3.83,3.83,0,0,0,.58-.16,4,4,0,0,0,.52-.21c.09,0,.17,0,.25-.08s.12-.13.2-.18a4.83,4.83,0,0,0,.45-.34,4.26,4.26,0,0,0,.42-.43,3.87,3.87,0,0,0,.35-.45c.05-.07.12-.11.17-.19s0-.17.08-.25a4.77,4.77,0,0,0,.22-.52,3.22,3.22,0,0,0,.14-.44h32.87a4.16,4.16,0,0,0,5.56,3.21l16.33,28.3a4.41,4.41,0,0,0-.93,1.7,1.45,1.45,0,0,0-.09.22,4.18,4.18,0,0,0-.16.58,5.35,5.35,0,0,0-.07.56,2.38,2.38,0,0,0,0,.26,1.84,1.84,0,0,0,0,.25,5.35,5.35,0,0,0,.07.56,3.83,3.83,0,0,0,.16.58,4.18,4.18,0,0,0,.21.53,1.7,1.7,0,0,0,.09.24c0,.08.12.12.17.2a4.83,4.83,0,0,0,.34.45c.11.12.2.24.31.34l-16.42,28.44A4.47,4.47,0,0,0,613.89,230.46Zm79.88,1.2a4.35,4.35,0,0,0,0,6.55l-16.41,28.42a4.3,4.3,0,0,0-1.53-.31,4.41,4.41,0,0,0-4.26,3.47H639a3.73,3.73,0,0,0-.14-.44,3.38,3.38,0,0,0-.22-.52c0-.08,0-.17-.08-.25s-.12-.12-.17-.19a3.87,3.87,0,0,0-.35-.45,4.26,4.26,0,0,0-.42-.43,4.83,4.83,0,0,0-.45-.34c-.07-.05-.12-.13-.19-.17a2.5,2.5,0,0,0-.25-.09l-.27-.11a5.36,5.36,0,0,0-.83-.26h0a4.39,4.39,0,0,0-1.09-.22,4.66,4.66,0,0,0-1,.21l-16.4-28.41c.11-.11.2-.23.3-.35a3.75,3.75,0,0,0,.35-.44c0-.08.12-.12.17-.2s0-.17.08-.25a3.38,3.38,0,0,0,.22-.52,2.91,2.91,0,0,0,.15-.58,3.6,3.6,0,0,0,.08-.56c0-.09.05-.17.05-.26s-.05-.16-.05-.25a3.6,3.6,0,0,0-.08-.56,2.91,2.91,0,0,0-.15-.58A3.49,3.49,0,0,0,618,233c0-.08,0-.16-.08-.24s-.12-.12-.17-.2a4.94,4.94,0,0,0-.35-.45c-.08-.09-.16-.19-.25-.28l0-.07,16.46-28.51a9.23,9.23,0,0,0,1,.17c.09,0,.17,0,.26,0s.17,0,.26,0a3.6,3.6,0,0,0,.56-.08,2.82,2.82,0,0,0,.57-.15,3.11,3.11,0,0,0,.53-.22c.08,0,.17,0,.25-.08s.12-.12.19-.17a4.94,4.94,0,0,0,.45-.35l0,0a4.4,4.4,0,0,0,1.61-2.24h32.67c0,.15.1.29.15.43a4.18,4.18,0,0,0,.21.53,1.7,1.7,0,0,0,.09.24c0,.08.12.13.17.2a4.94,4.94,0,0,0,.35.45,4.16,4.16,0,0,0,.42.42,4.94,4.94,0,0,0,.45.35c.07.05.11.12.19.17s.17,0,.25.08a3.38,3.38,0,0,0,.52.22,3.1,3.1,0,0,0,.58.15,3.6,3.6,0,0,0,.56.08c.09,0,.17,0,.26,0s.17,0,.26,0a9.23,9.23,0,0,0,1-.17Zm-16.15-37a4.55,4.55,0,0,0-1.42-.29,4.42,4.42,0,0,0-4.34,3.84H639.38a4.42,4.42,0,0,0-4.34-3.84,4.38,4.38,0,0,0-1.7.35l-16.22-28.1a4.38,4.38,0,0,0,1.48-3.27,4.43,4.43,0,0,0-1.45-3.26l16.38-28.38a9.23,9.23,0,0,0,1,.17c.09,0,.17.05.26.05l.07,0a1,1,0,0,0,.17,0,4.4,4.4,0,0,0,4.25-3.39h32.63a1.43,1.43,0,0,0,.08.22,4.25,4.25,0,0,0,.28.73h0a1.7,1.7,0,0,0,.09.24c0,.08.12.12.17.2a4.94,4.94,0,0,0,.35.45h0a4.64,4.64,0,0,0,.38.39l0,0a4.94,4.94,0,0,0,.45.35c.07.05.11.12.19.17s.17,0,.25.08l0,0a4.71,4.71,0,0,0,.52.21,3.29,3.29,0,0,0,.54.14,3.21,3.21,0,0,0,.53.07c.13,0,.24.08.37.08a3.91,3.91,0,0,0,.68-.14h.06a3.58,3.58,0,0,0,.45-.09l16.39,28.4a4.47,4.47,0,0,0-1.42,3.24,4.41,4.41,0,0,0,1.45,3.25Zm76.86-66.81a3.6,3.6,0,0,0,.08.56,5.47,5.47,0,0,0,.15.58,3.11,3.11,0,0,0,.22.53c0,.08,0,.17.08.24s.12.12.17.2a4.94,4.94,0,0,0,.35.45c.1.11.19.24.3.34l-16.39,28.39a4.35,4.35,0,0,0-1.26-.26,4.41,4.41,0,0,0-4.28,3.54H701.1a4.41,4.41,0,0,0-4.27-3.54,4.52,4.52,0,0,0-1.38.28l-16.36-28.34a4.34,4.34,0,0,0,.09-6.61l16.33-28.28c.15,0,.3.06.46.09a3.31,3.31,0,0,0,.55.07.7.7,0,0,0,.52,0,3.57,3.57,0,0,0,.56-.07,4.18,4.18,0,0,0,.58-.16,4.71,4.71,0,0,0,.52-.21,2.5,2.5,0,0,0,.25-.09c.08,0,.12-.12.19-.17a3.79,3.79,0,0,0,.45-.34l.19-.19a3.58,3.58,0,0,0,.47-.55.76.76,0,0,0,.11-.14c0-.07.13-.11.17-.19a1,1,0,0,0,.06-.16,4.68,4.68,0,0,0,.45-1h32.71a4.38,4.38,0,0,0,1.56,2.29,4.46,4.46,0,0,0,.43.33c.07,0,.12.13.2.17a1.7,1.7,0,0,0,.24.09l.13,0a2.78,2.78,0,0,0,.4.16,3.83,3.83,0,0,0,.58.16,3.3,3.3,0,0,0,.56.07,1.84,1.84,0,0,0,.25.05,2.38,2.38,0,0,0,.26-.05,3.57,3.57,0,0,0,.56-.07c.15,0,.3,0,.45-.09l16.46,28.51c-.11.11-.2.23-.3.35a4.82,4.82,0,0,0-.35.44c0,.08-.12.12-.17.2s0,.17-.08.25a3.38,3.38,0,0,0-.22.52,5.47,5.47,0,0,0-.15.58,3.6,3.6,0,0,0-.08.56c0,.09-.05.17-.05.26S754.48,127.77,754.48,127.86Zm47-4.58a4.21,4.21,0,0,0-1.23-.25,4.42,4.42,0,0,0-3.86,2.35l0,.06s0,0,0,0a4,4,0,0,0-.28.71s0,0,0,0a3.22,3.22,0,0,0-.14.44H763.38a4.34,4.34,0,0,0-6-3.28L741,95c.12-.11.2-.23.31-.35a3.79,3.79,0,0,0,.34-.45c.05-.07.13-.11.17-.19a2.5,2.5,0,0,0,.09-.25,4.71,4.71,0,0,0,.21-.52,4.18,4.18,0,0,0,.16-.58,3.57,3.57,0,0,0,.07-.56,2.44,2.44,0,0,0,.06-.26.45.45,0,0,0,0-.11s0-.08,0-.13a4.43,4.43,0,0,0-1.29-3.12L757.4,60.31a4,4,0,0,0,1.2.25,4.37,4.37,0,0,0,3.63-2,1.34,1.34,0,0,0,.11-.14c0-.08.13-.12.17-.2a.76.76,0,0,0,.06-.16,3.86,3.86,0,0,0,.2-.51,1,1,0,0,0,0-.1c.05-.14.11-.28.15-.43h32.76a4.21,4.21,0,0,0,5.7,3.27l16.29,28.22a4.43,4.43,0,0,0-1.08,2.16c0,.12-.07.24-.09.36s0,.22,0,.33,0,.16,0,.24v0a1.42,1.42,0,0,0,0,.2c0,.09.05.17.05.26a3.6,3.6,0,0,0,.08.56,5.47,5.47,0,0,0,.15.58,4.77,4.77,0,0,0,.22.52c0,.08,0,.17.08.25s.13.12.18.19a3,3,0,0,0,.34.45,3.38,3.38,0,0,0,.31.35Z"/><path class="cls-2" d="M655.35,62.62a3.21,3.21,0,0,0-3.21-3.21A3.17,3.17,0,0,0,649,62.1H625.67a3.18,3.18,0,0,0-3.11-2.69,3.36,3.36,0,0,0-1.14.23L609.75,39.42a3.06,3.06,0,0,0,.58-3.81.36.36,0,0,0,0-.09.44.44,0,0,0-.14-.16,3.13,3.13,0,0,0-2.61-1.46,3.17,3.17,0,0,0-3.06,2.48H580.91a1.6,1.6,0,0,0-.1-.31l-.06-.15,0-.1s0-.09-.05-.13,0-.12-.06-.17a1.79,1.79,0,0,0-.13-.14,2.6,2.6,0,0,0-.25-.33l-.1-.1-.18-.18,0,0-.32-.25c-.06,0-.09-.09-.14-.12a.64.64,0,0,0-.18-.06l0,0a3.2,3.2,0,0,0-1.47-.4,3.23,3.23,0,0,0-.82.17L565.17,13.65A3.16,3.16,0,0,0,566,12c0-.13.06-.25.08-.39a2.65,2.65,0,0,0,.06-.3,2.47,2.47,0,0,0-.06-.29,2.85,2.85,0,0,0-.12-.58,2.78,2.78,0,0,0-.21-.57.29.29,0,0,0,0-.1c0-.06-.09-.09-.13-.15a3,3,0,0,0-.69-.78h0a3.15,3.15,0,0,0-2-.74,3.21,3.21,0,1,0,1,6.21L575.73,34.7a3.16,3.16,0,0,0-1.16,2.41,3.13,3.13,0,0,0,1.13,2.39L564.07,59.64a3.07,3.07,0,0,0-4.21,2.46H536.48a3,3,0,0,0-4.16-2.47L520.63,39.37a3.1,3.1,0,0,0,.74-1.31,3,3,0,0,0,.19-.93v0h0a2.87,2.87,0,0,0-.36-1.58,2.84,2.84,0,0,0-.53-.61l-.08-.09a3.06,3.06,0,0,0-.71-.48,3.74,3.74,0,0,0-.45-.22,2.41,2.41,0,0,0-.37-.07,2.73,2.73,0,0,0-.7-.15,3.21,3.21,0,0,0,0,6.42,3.12,3.12,0,0,0,1.1-.22l11.68,20.23a3.19,3.19,0,0,0-1,2.29,3.14,3.14,0,0,0,.38,1.43.61.61,0,0,0,.05.12c0,.06,0,.12.06.18s.09.09.12.14a3.92,3.92,0,0,0,.25.32,2.62,2.62,0,0,0,.22.25L519.5,85.41a3.27,3.27,0,0,0-.94-.19,3.16,3.16,0,0,0-3.08,2.6H492.07a3.17,3.17,0,0,0-3.09-2.6,3.13,3.13,0,0,0-1.14.23L476.07,65.07a3.1,3.1,0,0,0,.91-1.74l0-.15a3.29,3.29,0,0,0,.09-.43,2.84,2.84,0,0,0-.08-.42,1.89,1.89,0,0,0,0-.23,3.17,3.17,0,0,0-3.08-2.56,3.21,3.21,0,1,0,0,6.41,3.16,3.16,0,0,0,1-.19l11.81,20.45c-.06.07-.1.16-.16.23l0,0a3.92,3.92,0,0,0-.25.32c0,.06-.09.09-.12.14s0,.12-.06.18,0,0,0,0v0a2.85,2.85,0,0,0-.12.31,2.77,2.77,0,0,0-.12.41c0,.14,0,.27,0,.41s0,.11,0,.18,0,.12,0,.18,0,.27,0,.41a3.17,3.17,0,0,0,.12.41,2.5,2.5,0,0,0,.15.38c0,.06,0,.12.06.18s.09.08.12.14l.25.32c.08.08.14.17.22.25l-11.78,20.41a3.09,3.09,0,0,0-1-.19,3.15,3.15,0,0,0-3.07,2.54H447.28c0-.11-.07-.21-.11-.32a2.39,2.39,0,0,0-.15-.37c0-.06,0-.12-.06-.18s-.09-.09-.13-.14a2.43,2.43,0,0,0-.24-.32c-.1-.11-.2-.21-.31-.31a2.43,2.43,0,0,0-.32-.24,1.66,1.66,0,0,0-.14-.13c-.06,0-.12,0-.18-.06a2.39,2.39,0,0,0-.37-.15,2.17,2.17,0,0,0-.42-.11l-.17,0a3.2,3.2,0,0,0-.93-.18,2.77,2.77,0,0,0-.5.1L431.52,90.78c.08-.08.14-.17.22-.25l.25-.32c0-.06.09-.09.12-.14s0-.12.06-.18a2.5,2.5,0,0,0,.15-.38,3.17,3.17,0,0,0,.12-.41c0-.14,0-.27.05-.41s0-.11,0-.18,0-.12,0-.18,0-.27-.05-.41a3.17,3.17,0,0,0-.12-.41,2.5,2.5,0,0,0-.15-.38c0-.06,0-.12-.06-.18s-.09-.08-.12-.14a3.92,3.92,0,0,0-.25-.32c-.08-.09-.14-.17-.22-.25l11.82-20.48a3.15,3.15,0,0,0,1,.19,3.21,3.21,0,1,0,0-6.41,3.16,3.16,0,0,0-3.09,2.65s0,.05,0,.07a3.56,3.56,0,0,0-.09.49,3.16,3.16,0,0,0,1,2.33L430.32,85.55h0a3.27,3.27,0,0,0-1.35-.32,3.17,3.17,0,0,0-3.09,2.6H402.73a2.81,2.81,0,0,0-.1-.31c-.05-.13-.1-.26-.16-.38s0-.12-.06-.18-.09-.08-.12-.14a3.92,3.92,0,0,0-.25-.32,2.83,2.83,0,0,0-.3-.3,1.91,1.91,0,0,0-.33-.25,1.79,1.79,0,0,0-.14-.13s-.12,0-.18-.06l-.21-.09a3.2,3.2,0,0,0-1.53-.44,3.51,3.51,0,0,0-.66.13L387,65.15a3.14,3.14,0,0,0,1.14-2.4A3.21,3.21,0,0,0,385,59.54a3.13,3.13,0,0,0-2.54,1.35.22.22,0,0,0-.05.08,2.83,2.83,0,0,0-.43.87,2.39,2.39,0,0,0-.09.45,2.34,2.34,0,0,0-.09.46,1.7,1.7,0,0,0,0,.22,3,3,0,0,0,.13.63,3.22,3.22,0,0,0,.18.55c0,.07,0,.14.07.2a3.09,3.09,0,0,0,.33.39c.1.12.18.24.29.35a2.35,2.35,0,0,0,.37.24A3.12,3.12,0,0,0,385,66a3.06,3.06,0,0,0,.85-.17l11.63,20.15a3.11,3.11,0,0,0-1.29,2.5A3.15,3.15,0,0,0,397.49,91l-11.71,20.29c-.11,0-.22,0-.33-.06l-.26,0a3.12,3.12,0,0,0-.87-.17,3.16,3.16,0,0,0-3.07,2.54H358.19c0-.11-.07-.21-.11-.32a2.39,2.39,0,0,0-.15-.37c0-.06,0-.12-.06-.18a1.79,1.79,0,0,0-.13-.14,1.85,1.85,0,0,0-.25-.32,2.91,2.91,0,0,0-.3-.31,3.33,3.33,0,0,0-.32-.24c-.06,0-.09-.1-.14-.13s-.12,0-.18-.06a2.5,2.5,0,0,0-.38-.15.67.67,0,0,0-.19,0c-.06,0-.13,0-.19-.06h-.06a3.19,3.19,0,0,0-1-.2,3.33,3.33,0,0,0-.55.1L342.43,90.78c.08-.08.14-.17.22-.25a3.33,3.33,0,0,0,.24-.32,1.79,1.79,0,0,1,.13-.14c0-.06,0-.12.06-.18a2.5,2.5,0,0,0,.15-.38,2.08,2.08,0,0,0,.11-.41,2.9,2.9,0,0,0,.06-.41c0-.06,0-.11,0-.18s0-.12,0-.18a2.9,2.9,0,0,0-.06-.41,2.08,2.08,0,0,0-.11-.41,2.5,2.5,0,0,0-.15-.38c0-.06,0-.12-.06-.18a1.79,1.79,0,0,1-.13-.14,2.43,2.43,0,0,0-.24-.32c-.08-.08-.14-.17-.22-.25l11.84-20.51a3.12,3.12,0,0,0,1.1.22,3.21,3.21,0,1,0-1.83-5.77c-.12.08-.24.15-.35.24s-.13.15-.19.22a3.29,3.29,0,0,0-.53.59,3.07,3.07,0,0,0,.62,3.79L341.24,85.54a3.27,3.27,0,0,0-1.36-.32,3.16,3.16,0,0,0-3.08,2.6H313.64a2.83,2.83,0,0,0-.11-.31,2.15,2.15,0,0,0-.15-.38c0-.06,0-.12-.06-.18s-.09-.08-.12-.14a3.92,3.92,0,0,0-.25-.32,2.91,2.91,0,0,0-.31-.3,1.54,1.54,0,0,0-.32-.25,1.79,1.79,0,0,0-.14-.13c-.06,0-.12,0-.18-.06l-.09,0a3.17,3.17,0,0,0-1.61-.49,3.34,3.34,0,0,0-.7.14L297.86,65a3.07,3.07,0,0,0,.61-3.79,3,3,0,0,0-1.06-1,3.13,3.13,0,0,0-1.94-.72,3.21,3.21,0,1,0,0,6.41s.1,0,.16,0a3.05,3.05,0,0,0,1-.14L308.35,86a3.08,3.08,0,0,0,.07,5l-11.73,20.32-.33-.06-.12,0a3.09,3.09,0,0,0-1-.19,3.15,3.15,0,0,0-3.07,2.54H269.09a1.83,1.83,0,0,0-.08-.25,3.16,3.16,0,0,0-3-2.29,3.21,3.21,0,0,0-3.21,3.2,3.16,3.16,0,0,0,1.13,2.4l-11.62,20.13a3.25,3.25,0,0,0-1.13-.23,3.17,3.17,0,0,0-3.11,2.76H224.7a3.08,3.08,0,0,0-4.23-2.53L208.79,116.5l.1-.12.12-.13a3.23,3.23,0,0,0,.33-.49c0-.05,0-.1.07-.15s.09-.17.13-.26,0-.08.05-.12a3.25,3.25,0,0,0,.13-.62,2.57,2.57,0,0,0,.08-.38c0-.07,0-.12,0-.19a3.19,3.19,0,0,0-.12-.6l-.06-.18a3.66,3.66,0,0,0-.15-.43,1,1,0,0,0-.05-.16,1.86,1.86,0,0,0-.23-.26,3.11,3.11,0,0,0-5.66,1.13H180a3.16,3.16,0,0,0-3.09-2.66,3.29,3.29,0,0,0-1,.2L164.22,90.74l.07-.09a3.37,3.37,0,0,0,.43-.55l.16-.23a3.21,3.21,0,1,0-5.51,0c0,.06,0,.13.07.2a3.14,3.14,0,0,0,.34.4,1.49,1.49,0,0,0,.12.14,3.08,3.08,0,0,0,3.13.82l11.74,20.33a3.18,3.18,0,0,0-1,2.33,3.13,3.13,0,0,0,.54,1.68v0l0,0a3.08,3.08,0,0,0,.57.68h0l-11.62,20.13a3.05,3.05,0,0,0-1.14-.23,3.18,3.18,0,0,0-3.14,2.87H135.47a3.16,3.16,0,0,0-3.08-2.59,3.27,3.27,0,0,0-.94.19l-11.77-20.4a3.18,3.18,0,0,0,.57-.74l.07-.11a2.72,2.72,0,0,0,.28-.8c0-.08,0-.15.05-.22a3.7,3.7,0,0,0,.09-.48,3.21,3.21,0,0,0-6.41,0,3.16,3.16,0,0,0,1.24,2.48l0,0a3.12,3.12,0,0,0,1.92.71,2.94,2.94,0,0,0,.67-.13,2.7,2.7,0,0,0,.28,0l11.77,20.37a3.12,3.12,0,0,0,.05,4.75l-11.76,20.37a2.9,2.9,0,0,0-1-.21,3.15,3.15,0,0,0-3.07,2.54H91a3.15,3.15,0,0,0-3.07-2.54A3.19,3.19,0,0,0,85.77,168L74,188.41a3.26,3.26,0,0,0-1-.21,3.18,3.18,0,0,0-3.07,2.49H46.33a3.16,3.16,0,0,0-3.06-2.49,3.21,3.21,0,1,0,0,6.42,3.15,3.15,0,0,0,3.07-2.55h23.5A3.05,3.05,0,0,0,74,194.4l11.69,20.24a3.2,3.2,0,0,0-1,2.28,2.78,2.78,0,0,0,.11.5,2.48,2.48,0,0,0,0,.27A2.29,2.29,0,0,0,85,218c0,.09,0,.19.09.28a1.6,1.6,0,0,0,.1.23c0,.06,0,.12.06.18s.09.09.12.14a2.72,2.72,0,0,0,.25.32,2.62,2.62,0,0,0,.22.25l-11.72,20.3a3.21,3.21,0,0,0-1.2-.24,3.16,3.16,0,0,0-3.11,2.7H46.39a3.16,3.16,0,0,0-3.1-2.7A3.19,3.19,0,0,0,41.1,245a3.09,3.09,0,0,0,2.25,1,3,3,0,0,0,2.71-1.78,3.48,3.48,0,0,0,.26-.63v0H69.84a3.12,3.12,0,0,0,1.57,1.94l.08.07h0l.24.09.27.11a2,2,0,0,0,.42.11,2.57,2.57,0,0,0,.4.06c.07,0,.12,0,.19,0s.11,0,.18,0a2.57,2.57,0,0,0,.4-.06l.33-.06,11.82,20.47a2.78,2.78,0,0,0-.21.27h0l-.25.32c0,.06-.09.09-.12.14s0,.12-.06.18h0a2.33,2.33,0,0,0-.14.33l0,.05a2.75,2.75,0,0,0-.11.41,1.92,1.92,0,0,0-.05.41,1,1,0,0,0,0,.18,1.16,1.16,0,0,0,0,.18,1.92,1.92,0,0,0,.05.41,3.11,3.11,0,0,0,.11.41h0c.06.15.11.3.18.44a.49.49,0,0,0,0,.11s.09.08.12.14l0,.05a3.78,3.78,0,0,0,.4.56L74,291.22a3.19,3.19,0,1,0-1,6.22,3.39,3.39,0,0,0,.84-.17h0a3.4,3.4,0,0,0,1-.5l.06,0a2.91,2.91,0,0,0,.77-.87s0,0,0,0a0,0,0,0,0,0,0,2.87,2.87,0,0,0,.34-.93s0-.05,0-.07a2.66,2.66,0,0,0,.12-.56,3.17,3.17,0,0,0-1-2.32L87,271.56a3.26,3.26,0,0,0,1,.21,3.15,3.15,0,0,0,3.07-2.54h23.48a3.16,3.16,0,0,0,1.45,2l0,0h0a3.1,3.1,0,0,0,1.54.44,3.07,3.07,0,0,0,.91-.18l11.72,20.31a3.13,3.13,0,0,0,.06,4.78L118.52,317a2.91,2.91,0,0,0-.93-.19A3.21,3.21,0,1,0,120.8,320a3.18,3.18,0,0,0-1.07-2.36l11.79-20.42a3.3,3.3,0,0,0,.83.16,3.23,3.23,0,0,0,.33-.06l.35-.05c.12,0,.23-.06.35-.09s.25-.09.37-.15.05,0,.07,0A1.21,1.21,0,0,0,134,297a1.79,1.79,0,0,1,.14-.13,3.49,3.49,0,0,0,.32-.25l.06-.06a1.37,1.37,0,0,0,.17-.17l.07-.07A2.33,2.33,0,0,0,135,296a1.79,1.79,0,0,1,.13-.14c0-.06,0-.12.06-.18l0-.09c0-.09.08-.17.11-.25s0,0,0,0a2.83,2.83,0,0,0,.11-.31h23.48a3.16,3.16,0,0,0,3.06,2.5,3.39,3.39,0,0,0,1.06-.21l11.76,20.36a3,3,0,0,0-.56,3.86s0,.05,0,.07a.75.75,0,0,0,.11.13,2.77,2.77,0,0,0,.47.6l-11.82,20.47a3.09,3.09,0,0,0-1-.19,3.21,3.21,0,1,0,3.1,3.74v0a2.78,2.78,0,0,0,.11-.5,3.13,3.13,0,0,0-1.05-2.33l11.82-20.48a1.94,1.94,0,0,0,.33.07h.06a3.47,3.47,0,0,0,.56.11,3.18,3.18,0,0,0,3.06-2.45h23.59s0,0,0,.05a3.74,3.74,0,0,0,.25.66.94.94,0,0,0,.06.15.81.81,0,0,0,.12.14,2.56,2.56,0,0,0,.2.26,3.4,3.4,0,0,0,.32.34l0,0,.32.25c.06,0,.09.09.15.12s.12,0,.17.06l0,0a2.36,2.36,0,0,0,.28.12l.05,0a2.88,2.88,0,0,0,.42.11,1.75,1.75,0,0,0,.4.05,1.16,1.16,0,0,0,.18,0h0a1.69,1.69,0,0,0,.24,0l.31,0a1.65,1.65,0,0,0,.32-.07l11.86,20.53,0,0a3.33,3.33,0,0,0-.4.51c-.08.13-.18.24-.25.37a3.35,3.35,0,0,0-.22.63,3.1,3.1,0,0,0-.08.42,2.83,2.83,0,0,0-.08.4c0,.13.06.25.07.38l0,.13a3.16,3.16,0,0,0,3.1,2.7,3.21,3.21,0,0,0,3.21-3.21,3.15,3.15,0,0,0-1.26-2.49h0a3.58,3.58,0,0,0-.87-.5h0a3.2,3.2,0,0,0-1-.21,2.88,2.88,0,0,0-.51.1c-.15,0-.3,0-.45.06l-11.83-20.5a3.15,3.15,0,0,0,1.12-2.39,3.2,3.2,0,0,0-1-2.34l11.68-20.24a3.06,3.06,0,0,0,.85.17A3.09,3.09,0,0,0,223,297h.06l.09-.08a3.32,3.32,0,0,0,.71-.64,2.92,2.92,0,0,0,.21-.28c0-.06.1-.09.13-.14a1.54,1.54,0,0,0,.05-.17,2.88,2.88,0,0,0,.13-.31l0-.08a2.83,2.83,0,0,0,.11-.31h23.71a3.44,3.44,0,0,0,.34.84c.06.09.12.17.17.26a3.1,3.1,0,0,0,.45.51,3.19,3.19,0,0,0,.57.39,3.72,3.72,0,0,0,.34.19,2.8,2.8,0,0,0,1,.21c.06,0,.11,0,.17,0a3.21,3.21,0,1,0,0-6.41,3.15,3.15,0,0,0-3.08,2.59H224.55c0-.11-.07-.21-.11-.32l0-.09-.11-.26v0c0-.06,0-.12-.06-.18a1.66,1.66,0,0,0-.13-.14,2.43,2.43,0,0,0-.24-.32h0a3.09,3.09,0,0,0-.6-.54h0s-.08-.1-.14-.13l-.09,0a3.15,3.15,0,0,0-1.58-.47,2.92,2.92,0,0,0-.84.17l-11.78-20.4a3.13,3.13,0,0,0,.08-4.71l11.74-20.34.32.06a2.9,2.9,0,0,0,.41.06c.06,0,.12,0,.18,0s.12,0,.19,0l.4-.06a2.17,2.17,0,0,0,.42-.11l.22-.09.1,0,0,0,.18-.06c.06,0,.09-.09.14-.13a2.43,2.43,0,0,0,.32-.24l0-.05a2.91,2.91,0,0,0,.57-.64l.07-.08a.09.09,0,0,0,0,0,3,3,0,0,0,.36-.82h23.61c0,.11.07.21.11.32s0,0,0,0a.54.54,0,0,0,.05.11,3,3,0,0,0,.18.36,2.3,2.3,0,0,0,.32.49,3.8,3.8,0,0,0,.48.42c.11.08.18.19.29.26l.18.06a3.72,3.72,0,0,0,.59.2,3.14,3.14,0,0,0,.61.12c.06,0,.11,0,.18,0a2.57,2.57,0,0,0,.38-.08,3.25,3.25,0,0,0,.62-.13.52.52,0,0,0,.13-.06,3.14,3.14,0,0,0,1.1-5.34l11.71-20.27.32.07.4.05c.07,0,.12,0,.19,0s.12,0,.18,0l.4-.05.12,0a3.18,3.18,0,0,0,2.89-2.31h23.09c0,.11.07.21.1.32s.1.25.16.37,0,.12.06.18.09.09.12.14a3.92,3.92,0,0,0,.25.32,3,3,0,0,0,.31.31,1.91,1.91,0,0,0,.32.24c.05,0,.08.1.14.13s.12,0,.18.06a2.39,2.39,0,0,0,.37.15,2.9,2.9,0,0,0,.42.12l.4.05c.06,0,.12,0,.18,0s.12,0,.19,0l.4-.05.33-.07,11.79,20.43a3.16,3.16,0,0,0-1.07,2.36,3.21,3.21,0,1,0,3.21-3.21,2.91,2.91,0,0,0-.93.19L298,219.53a3.08,3.08,0,0,0,.16-5.12l11.58-20.07h.06a3.12,3.12,0,0,0,4.34-2.28h23a3.15,3.15,0,0,0,2.07,2.18l.11.05.41.11.41.05c.06,0,.12,0,.18,0s.12,0,.19,0l.4-.05.32-.07,11.66,20.2a3.16,3.16,0,0,0-.9,2.2,2.9,2.9,0,0,0,.12.6,3,3,0,0,0,.36,1.32,3.12,3.12,0,0,0,4.26,1.14,3.06,3.06,0,0,0,1.35-1.7,1,1,0,0,0,.09-.18v0a3.31,3.31,0,0,0,.23-1.14,3.18,3.18,0,0,0-4.37-3l-11.61-20.12c.08-.08.14-.16.22-.25a1.91,1.91,0,0,0,.24-.32,1.79,1.79,0,0,0,.13-.14c0-.06,0-.12.06-.18a2.39,2.39,0,0,0,.15-.37,2.17,2.17,0,0,0,.11-.42,2.76,2.76,0,0,0,.06-.4c0-.07,0-.12,0-.19s0-.12,0-.18a2.57,2.57,0,0,0-.06-.4,2,2,0,0,0-.11-.42,1,1,0,0,1,0-.1,3.15,3.15,0,0,0-.71-1.26l11.78-20.4a1.83,1.83,0,0,0,.32.07l.41.05a1,1,0,0,0,.18,0,1.16,1.16,0,0,0,.18,0l.41-.05.41-.11.38-.16c.06,0,.12,0,.18-.06s.08-.09.14-.12l.32-.25.21-.21.15-.16.19-.26a1.79,1.79,0,0,0,.13-.14.75.75,0,0,0,.05-.16,3.25,3.25,0,0,0,.31-.71h23.52a3.1,3.1,0,0,0,1,1.54.94.94,0,0,0,.1.1,2.72,2.72,0,0,0,.32.25c.05,0,.08.09.14.12s.12,0,.18.06l.37.16.42.11.4.05a1.29,1.29,0,0,0,.19,0,1.16,1.16,0,0,0,.18,0l.4-.05a1.94,1.94,0,0,0,.33-.07l11.69,20.26a3.12,3.12,0,0,0,.12,4.8L386,213.78a3.26,3.26,0,0,0-1.21-.24,3.21,3.21,0,0,0-3.21,3.2,3.09,3.09,0,0,0,.53,1.66,3,3,0,0,0,1.21,1.4,3.11,3.11,0,0,0,4.25-1.14,2.84,2.84,0,0,0,.36-1.59,3.2,3.2,0,0,0,.07-.33,3.16,3.16,0,0,0-.87-2.16l11.68-20.24.33.07.4.05c.07,0,.12,0,.19,0s.11,0,.18,0l.4-.05.42-.11.37-.16c.06,0,.13,0,.18-.06s.09-.09.14-.12a4.08,4.08,0,0,0,.33-.25c.11-.1.2-.2.3-.31a2.72,2.72,0,0,0,.25-.32c0-.05.09-.08.12-.14s0-.12.06-.18.11-.24.16-.37.08-.21.1-.32h23.38a3.16,3.16,0,0,0,3.07,2.55,3.3,3.3,0,0,0,1.17-.24L442,214.59a3.21,3.21,0,0,0-1,2.33,3.13,3.13,0,0,0,.54,1.68l0,.06s.06.05.08.08a3.73,3.73,0,0,0,.52.6,3,3,0,0,0,.77.51l0,0a2.95,2.95,0,0,0,4.13-1.63l.07-.14a3.46,3.46,0,0,0,.13-.64,3.35,3.35,0,0,0,.11-.55,3.2,3.2,0,0,0-3.21-3.21,3,3,0,0,0-1,.2l-11.69-20.26c.08-.08.14-.16.22-.25a2.72,2.72,0,0,0,.25-.32c0-.05.09-.08.12-.14s0-.12.06-.18a2.39,2.39,0,0,0,.15-.37,3.31,3.31,0,0,0,.12-.42c0-.14,0-.26.05-.4s0-.12,0-.19,0-.12,0-.18,0-.27-.05-.4a2.9,2.9,0,0,0-.12-.42,3,3,0,0,0-.15-.38c0-.05,0-.12-.06-.17s-.09-.09-.12-.14a4.08,4.08,0,0,0-.25-.33c-.08-.08-.14-.17-.22-.24l11.8-20.45a3.27,3.27,0,0,0,.88.17,3.13,3.13,0,0,0,1.57-.46l.05,0a.27.27,0,0,0,.08-.07,3.15,3.15,0,0,0,1-.94s.08-.08.11-.13a.19.19,0,0,0,0-.07,3.06,3.06,0,0,0,.27-.71l0-.09h23.44a3.16,3.16,0,0,0,3.06,2.49,3,3,0,0,0,1.09-.22L486.61,189a3.09,3.09,0,0,0,0,4.89L475,214a3.18,3.18,0,0,0-2.66,5.78l.08.07.05,0,.29.09a3.08,3.08,0,0,0,3.92-1.25,3,3,0,0,0,.17-2.52,3.11,3.11,0,0,0-.71-1.4l11.71-20.28a2.85,2.85,0,0,0,.78.16,3.06,3.06,0,0,0,1.58-.48c.06,0,.12,0,.17-.06s.09-.09.15-.12l.3-.24.1-.1.22-.22a2.72,2.72,0,0,0,.25-.32.81.81,0,0,0,.12-.14.64.64,0,0,0,.06-.18,2.43,2.43,0,0,0,.16-.37,2,2,0,0,0,.1-.32h23.43a3.15,3.15,0,0,0,3.07,2.55,3.18,3.18,0,0,0,2.39-1.12l.24-.27a3.74,3.74,0,0,0,.25-.29c0-.06,0-.12.06-.18a3.6,3.6,0,0,0,.2-.58,3.29,3.29,0,0,0,.12-.61,1.29,1.29,0,0,0,0-.19,2.45,2.45,0,0,0-.08-.37,2.7,2.7,0,0,0-.12-.63,3.26,3.26,0,0,0-.26-.53,3.82,3.82,0,0,0-.33-.49,2.5,2.5,0,0,0-.22-.24l11.81-20.46a3,3,0,0,0,4-2.31h23.45a3.16,3.16,0,0,0,3.06,2.49,3.24,3.24,0,0,0,1.33-.3,3.1,3.1,0,0,0,1.91-2.87,3,3,0,0,0-.28-1.28,3.22,3.22,0,0,0-3-2,3.16,3.16,0,0,0-3.07,2.54H536.42a3.17,3.17,0,0,0-3.08-2.54,3.09,3.09,0,0,0-1,.19l-11.78-20.41a1.9,1.9,0,0,0,.19-.21s.06-.09.1-.12l.18-.24s.09-.08.12-.14a.66.66,0,0,0,0-.15,3.12,3.12,0,0,0,.52-1.64,3.2,3.2,0,0,0-1-2.31l11.65-20.18a3.41,3.41,0,0,0,1,.19,3.17,3.17,0,0,0,3.06-2.49H560l0,.07a3,3,0,0,0,.27.73.64.64,0,0,1,0,.07.94.94,0,0,0,.1.1,3.16,3.16,0,0,0,1,1l.06.06h0a3.15,3.15,0,0,0,1.58.47,2.93,2.93,0,0,0,.88-.18l11.74,20.33a3.15,3.15,0,0,0-1.11,2.38,3.21,3.21,0,0,0,3.21,3.21,3.15,3.15,0,0,0,1.62-.5h0a3,3,0,0,0,.84-.74c.06-.07.1-.15.15-.22a3.23,3.23,0,0,0,.39-.79c0-.13,0-.26.08-.4a3.23,3.23,0,0,0,.11-.54,2.44,2.44,0,0,0-.06-.26,2.17,2.17,0,0,0-.07-.35,2.92,2.92,0,0,0-.3-.89.09.09,0,0,1,0-.05l-.09-.1a3.16,3.16,0,0,0-2.68-1.56,3.27,3.27,0,0,0-.89.18l-11.73-20.33a3.12,3.12,0,0,0,0-4.74L577,91.47l.32.06a2.9,2.9,0,0,0,.41.06c.06,0,.11,0,.18,0H578l.15,0a3.16,3.16,0,0,0,3-2.44h23.4c0,.11.07.21.1.31s.1.26.16.38,0,.12.06.18.09.08.12.14l.25.32a2.91,2.91,0,0,0,.31.3,1.54,1.54,0,0,0,.32.25,1.79,1.79,0,0,0,.14.13l.18.06.17.07.16.06,0,0a3.25,3.25,0,0,0,.42.11l.4.06c.07,0,.12,0,.19,0h0l.09,0a3.08,3.08,0,0,0,.8-.17l11.8,20.44a3.12,3.12,0,0,0-.87,1.72c0,.09,0,.17-.05.25s-.06.21-.06.32,0,.21.06.32a2.72,2.72,0,0,0,.12.62,3.8,3.8,0,0,0,.18.47,1.27,1.27,0,0,0,.06.18c.06.1.16.16.23.26a3.41,3.41,0,0,0,.5.57l.29.19a3.37,3.37,0,0,0,.85.42h.07a2.92,2.92,0,0,0,.84.17,3.21,3.21,0,1,0,0-6.41,3.14,3.14,0,0,0-1,.2L609.75,90.85a3.1,3.1,0,0,0,.06-4.8l11.72-20.3c.11,0,.22,0,.33.06a2.57,2.57,0,0,0,.4.06c.07,0,.12,0,.19,0s.12,0,.18,0a2.57,2.57,0,0,0,.4-.06,2,2,0,0,0,.42-.11l.26-.1.17-.07.12,0c.06,0,.09-.09.14-.13l.13-.1a3.11,3.11,0,0,0,1.33-1.78h23.51a2.93,2.93,0,0,0,.43.91l.08.12A3.89,3.89,0,0,0,650,65a3,3,0,0,0,2.1.91A3.1,3.1,0,0,0,655,64,3,3,0,0,0,655.35,62.62ZM387.94,114a1.9,1.9,0,0,0-.05-.4,3.25,3.25,0,0,0-.11-.42c0-.13-.1-.25-.16-.37s0-.12-.06-.18a.81.81,0,0,0-.12-.14,3.92,3.92,0,0,0-.25-.32A2.62,2.62,0,0,0,387,112l11.8-20.44a2.85,2.85,0,0,0,.58.12,1.6,1.6,0,0,0,.21,0,.76.76,0,0,0,.16,0c.06,0,.11,0,.18,0a2.57,2.57,0,0,0,.4-.06,2.88,2.88,0,0,0,.42-.11,2.39,2.39,0,0,0,.37-.15c.06,0,.13,0,.18-.06a1.79,1.79,0,0,0,.14-.13,1.91,1.91,0,0,0,.33-.25,2.83,2.83,0,0,0,.3-.3l.25-.32c0-.06.09-.09.12-.14s0-.12.06-.18.11-.25.16-.38a2.81,2.81,0,0,0,.1-.31h23.14a3.18,3.18,0,0,0,3.06,2.44c.09,0,.17,0,.27-.06h0c.06,0,.12,0,.18,0s.12,0,.19,0l.4-.06a3,3,0,0,0,.32-.06L442,111.62a3.06,3.06,0,0,0,0,5.18l-11.6,20.09a3.11,3.11,0,0,0-1.45-.39,3.18,3.18,0,0,0-3.12,2.76H402.73c0-.11-.07-.21-.1-.32s-.1-.25-.16-.37,0-.12-.06-.18-.09-.09-.12-.14a2.72,2.72,0,0,0-.25-.32,2.13,2.13,0,0,0-.3-.3,3.16,3.16,0,0,0-2.39-1.13,3,3,0,0,0-.74.15L387,116.49a2.5,2.5,0,0,0,.22-.24l.25-.32c0-.06.09-.09.12-.14s0-.12.06-.18.11-.25.16-.38a2.88,2.88,0,0,0,.11-.42,1.75,1.75,0,0,0,.05-.4,1.16,1.16,0,0,0,0-.18A1.29,1.29,0,0,0,387.94,114Zm-89.09,0c0-.13,0-.26-.05-.4s-.07-.28-.11-.42-.1-.25-.16-.37,0-.12-.06-.18-.09-.09-.12-.14a3.92,3.92,0,0,0-.25-.32,2.62,2.62,0,0,0-.22-.25l11.81-20.45a3,3,0,0,0,.61.13c.07,0,.13,0,.2,0l.12,0c.07,0,.12,0,.19,0l.4-.06a3.25,3.25,0,0,0,.42-.11,2.39,2.39,0,0,0,.37-.15c.06,0,.12,0,.18-.06a1.79,1.79,0,0,0,.14-.13,1.54,1.54,0,0,0,.32-.25,2.91,2.91,0,0,0,.31-.3l.25-.32c0-.06.09-.09.12-.14s0-.12.06-.18a2.5,2.5,0,0,0,.15-.38,2.83,2.83,0,0,0,.11-.31h23.19a3.16,3.16,0,0,0,3.05,2.44c.09,0,.17,0,.25,0h0c.06,0,.12,0,.18,0s.12,0,.18,0a2.9,2.9,0,0,0,.41-.06l.32-.06,11.65,20.17a3.07,3.07,0,0,0,0,5.14l-11.6,20.09a3.09,3.09,0,0,0-1.42-.37,3.17,3.17,0,0,0-3.11,2.76H313.64c0-.11-.07-.21-.11-.32a2.39,2.39,0,0,0-.15-.37c0-.06,0-.12-.06-.18s-.09-.09-.12-.14a2.72,2.72,0,0,0-.25-.32l-.15-.15a3.16,3.16,0,0,0-2.5-1.28,3,3,0,0,0-.78.16L297.88,116.5c.08-.08.15-.17.22-.25l.25-.32c0-.06.09-.09.12-.14s0-.13.06-.18.11-.25.16-.38.08-.27.11-.41,0-.27.05-.41a1.16,1.16,0,0,0,0-.18A1.29,1.29,0,0,0,298.85,114ZM254.33,139.9a1.29,1.29,0,0,0,0-.19,3.19,3.19,0,0,0-.92-2.24l11.69-20.23a3,3,0,0,0,.85.17,3.13,3.13,0,0,0,2.54-1.35,2.91,2.91,0,0,0,.24-.27.7.7,0,0,0,.06-.17,3.72,3.72,0,0,0,.2-.59h0l0-.1h23.15a3.16,3.16,0,0,0,3.06,2.49,3.1,3.1,0,0,0,.42-.08h.07c.07,0,.12,0,.19,0a2.57,2.57,0,0,0,.4-.06l.33-.06,11.59,20.08a3.1,3.1,0,0,0,.2,5l-11.7,20.26a3.38,3.38,0,0,0-.57-.11,3.17,3.17,0,0,0-1.3.29l-.14,0-.37.16c-.06,0-.13,0-.18.06s-.09.09-.14.12a2.72,2.72,0,0,0-.32.25,2.27,2.27,0,0,0-.31.31,2.72,2.72,0,0,0-.25.32c0,.05-.09.08-.12.14s0,.12-.06.18-.11.24-.16.37-.08.21-.1.31H269.71a3.16,3.16,0,0,0-3.08-2.54,3,3,0,0,0-.89.18l-.25,0-.32.07-11.84-20.5a1.65,1.65,0,0,0,.22-.24,2.6,2.6,0,0,0,.25-.33,1.79,1.79,0,0,0,.13-.14c0-.05,0-.12.06-.17s.1-.25.15-.38a2.88,2.88,0,0,0,.11-.42,2.57,2.57,0,0,0,.06-.4c0-.06,0-.12,0-.18A.09.09,0,0,0,254.33,139.9Zm-33.71,3a1.83,1.83,0,0,0,.32.07,1.92,1.92,0,0,0,.41.05,1.16,1.16,0,0,0,.18,0,1.29,1.29,0,0,0,.19,0,1.9,1.9,0,0,0,.4-.05,2.75,2.75,0,0,0,.41-.11l.38-.16c.06,0,.12,0,.18-.06s.09-.09.14-.12a3.92,3.92,0,0,0,.32-.25l.28-.28.06-.06a2.64,2.64,0,0,0,.21-.29s.1-.08.13-.14a1,1,0,0,0,.05-.16,2.76,2.76,0,0,0,.32-.7h23.54a3.27,3.27,0,0,0,.35.73.5.5,0,0,0,0,.13c0,.06.09.09.13.14a1,1,0,0,0,.12.16c.06.07.11.15.18.22a3,3,0,0,0,.25.25,3.92,3.92,0,0,0,.32.25c.05,0,.09.09.14.12s.12,0,.18.06l.38.16a2.75,2.75,0,0,0,.41.11,1.9,1.9,0,0,0,.4.05,1.29,1.29,0,0,0,.19,0,1.16,1.16,0,0,0,.18,0,1.92,1.92,0,0,0,.41-.05,1.83,1.83,0,0,0,.32-.07L264,163.4a2.8,2.8,0,0,0-.22.25,1.91,1.91,0,0,0-.24.32c0,.05-.1.08-.13.14s0,.12-.06.18a2.39,2.39,0,0,0-.15.37,2.9,2.9,0,0,0-.12.42c0,.13,0,.26-.05.4s0,.12,0,.19,0,.12,0,.18,0,.27.05.4a2.9,2.9,0,0,0,.12.42,2.39,2.39,0,0,0,.15.37c0,.06,0,.13.06.18s.09.09.13.14a1.91,1.91,0,0,0,.24.32,2.8,2.8,0,0,0,.22.25L252.2,188.32a2.94,2.94,0,0,0-.59-.12c-.13,0-.23.06-.36.07h0a1,1,0,0,0-.18,0,2.87,2.87,0,0,0-.41.05l-.41.11-.38.16c-.06,0-.12,0-.18.06s-.09.09-.14.12a3.92,3.92,0,0,0-.32.25c-.11.1-.21.19-.31.3a2.52,2.52,0,0,0-.24.33c0,.05-.1.08-.13.14s0,.12-.06.18a2.39,2.39,0,0,0-.15.37c0,.11-.08.2-.11.31H224.55c0-.11-.07-.2-.11-.31a.69.69,0,0,0-.05-.13,1.11,1.11,0,0,0-.07-.16l0-.08c0-.06,0-.13-.06-.18s-.09-.09-.13-.14a2.52,2.52,0,0,0-.24-.33l-.07-.06a3.06,3.06,0,0,0-.32-.3,2.23,2.23,0,0,0-.24-.19s-.08-.09-.14-.12a1,1,0,0,0-.16-.06,3.12,3.12,0,0,0-1.51-.43,3.22,3.22,0,0,0-.83.17L208.8,168c.08-.09.14-.19.22-.28l.24-.31c0-.05.09-.08.12-.14s0-.11.06-.17a2.39,2.39,0,0,0,.15-.37h0a2.9,2.9,0,0,0,.12-.42c0-.13,0-.26,0-.4s0-.12,0-.18h0v0a2.65,2.65,0,0,0-.06-.3l0-.26a2.76,2.76,0,0,0-.08-.27,2.71,2.71,0,0,0-.23-.64s0,0,0-.06a.24.24,0,0,0-.08-.09,3.33,3.33,0,0,0-.48-.68Zm-1.28,50.91-11.62,20.13a3.08,3.08,0,0,0-1.13-.23,3.16,3.16,0,0,0-3.1,2.7H180.12a3.16,3.16,0,0,0-3.11-2.7,3.12,3.12,0,0,0-1.06.21l-11.69-20.24c.05-.05.07-.13.12-.19l.08-.09a2.72,2.72,0,0,0,.25-.32.81.81,0,0,0,.12-.14c0-.06,0-.12.06-.18s0,0,0-.07l0-.07a2.29,2.29,0,0,0,.1-.23,3.25,3.25,0,0,0,.11-.42,1.9,1.9,0,0,0,.05-.4,1.29,1.29,0,0,0,0-.19,1.16,1.16,0,0,0,0-.18,1.75,1.75,0,0,0-.05-.4,2.88,2.88,0,0,0-.11-.42,2.43,2.43,0,0,0-.16-.37c0-.06,0-.13-.06-.18s-.09-.09-.12-.14a4.08,4.08,0,0,0-.25-.33,2.5,2.5,0,0,0-.22-.24l11.82-20.47a3,3,0,0,0,.95.19,3.17,3.17,0,0,0,3.07-2.49h23.45a3.16,3.16,0,0,0,3.06,2.49,3.08,3.08,0,0,0,1-.2L219.36,189a3.11,3.11,0,0,0,0,4.81ZM120.7,217.07c0-.06,0-.1,0-.15a3.22,3.22,0,0,0-.93-2.26l11.67-20.22a3.13,3.13,0,0,0,.87.18,3.17,3.17,0,0,0,2.68-1.55,1.54,1.54,0,0,0,.12-.13.19.19,0,0,0,0-.08,3,3,0,0,0,.2-.49c0-.1.07-.19.1-.3h23.46a3.15,3.15,0,0,0,3.07,2.55,3.26,3.26,0,0,0,1.09-.22l11.68,20.24a3.12,3.12,0,0,0-.6,3.68,1.11,1.11,0,0,0,.07.16c0,.06,0,.12.06.18s.09.09.12.14a3.92,3.92,0,0,0,.25.32,2.62,2.62,0,0,0,.22.25l-11.73,20.32a3.34,3.34,0,0,0-1-.19,3.17,3.17,0,0,0-3.09,2.63H135.52a3.17,3.17,0,0,0-3.08-2.57,3.1,3.1,0,0,0-1,.19L119.7,219.37c.08-.08.14-.16.22-.25a2.43,2.43,0,0,0,.24-.32c0-.05.1-.08.13-.14s0-.12.06-.18a2.39,2.39,0,0,0,.15-.37,2.17,2.17,0,0,0,.11-.42,3,3,0,0,0,.06-.4c0-.07,0-.12,0-.19S120.7,217.08,120.7,217.07Zm43.72-79.7,11.66-20.19a1.65,1.65,0,0,0,.32.07l.4.06c.07,0,.12,0,.19,0s.12,0,.18,0a2.57,2.57,0,0,0,.4-.06,2.88,2.88,0,0,0,.42-.11c.13,0,.25-.09.37-.15s.13,0,.18-.06a1.79,1.79,0,0,0,.14-.13,2.6,2.6,0,0,0,.33-.25,1.29,1.29,0,0,0,.16-.17l.07-.06a.46.46,0,0,1,.07-.07l.25-.32c0-.06.09-.09.12-.14s0-.13.06-.18,0-.06,0-.09A2.88,2.88,0,0,0,180,115a.49.49,0,0,0,0-.11h23.5a3.16,3.16,0,0,0,3.06,2.49,3.26,3.26,0,0,0,1-.21l11.7,20.26a3.19,3.19,0,0,0-.92,2.25c0,.08,0,.14,0,.22v0c0,.06,0,.12,0,.18a2.57,2.57,0,0,0,.06.4,2.88,2.88,0,0,0,.11.42c0,.13.09.25.15.38s0,.12.06.17a1.79,1.79,0,0,0,.13.14,2.6,2.6,0,0,0,.25.33,1.65,1.65,0,0,0,.22.24l-11.8,20.43a3,3,0,0,0-1-.21,3.16,3.16,0,0,0-3.07,2.54H180.09a3.17,3.17,0,0,0-3.08-2.54,2.9,2.9,0,0,0-1,.2l-11.79-20.42a2.5,2.5,0,0,0,.22-.24,4.08,4.08,0,0,0,.25-.33.81.81,0,0,0,.12-.14.58.58,0,0,0,.06-.17,3.08,3.08,0,0,0,.16-.38l0-.1a.08.08,0,0,1,0,0c0-.09,0-.18.07-.28a2.51,2.51,0,0,0,0-.27,3.67,3.67,0,0,0,.13-.66A3.2,3.2,0,0,0,164.42,137.37Zm-44.69,26,11.8-20.42a3.06,3.06,0,0,0,.86.18,3.43,3.43,0,0,0,.44-.09l.2,0a1.52,1.52,0,0,0,.2-.06,2.59,2.59,0,0,0,.61-.21,1,1,0,0,0,.16-.06c.05,0,.08-.09.14-.12a2.43,2.43,0,0,0,.25-.2,2.67,2.67,0,0,0,.47-.48,1.49,1.49,0,0,0,.15-.2,1.79,1.79,0,0,0,.13-.14.57.57,0,0,0,0-.14,2.75,2.75,0,0,0,.24-.62l0-.1h23.66s0,0,0,0,.05.16.08.24l0,0a3,3,0,0,0,.15.38s0,.12.06.17.09.09.12.14a4.08,4.08,0,0,0,.25.33,2.91,2.91,0,0,0,.31.3,2.72,2.72,0,0,0,.32.25c.05,0,.08.09.14.12s.12,0,.18.06l.37.16a3.25,3.25,0,0,0,.42.11,1.9,1.9,0,0,0,.4.05,1.29,1.29,0,0,0,.19,0,1.16,1.16,0,0,0,.18,0,1.75,1.75,0,0,0,.4-.05,1.94,1.94,0,0,0,.33-.07l11.78,20.41a3.16,3.16,0,0,0,0,4.67l-11.8,20.44a3.08,3.08,0,0,0-1.06-.22,3.16,3.16,0,0,0-3.06,2.49H135.46c0-.11-.07-.2-.11-.31s0,0,0,0-.09-.22-.14-.33h0c0-.06,0-.13-.06-.18a1.79,1.79,0,0,0-.13-.14,1.91,1.91,0,0,0-.25-.33h0a3.17,3.17,0,0,0-.51-.46l-.11-.09c-.06,0-.09-.09-.14-.12l-.12,0a3.11,3.11,0,0,0-1.54-.45,3.3,3.3,0,0,0-.84.17L119.71,168a3.5,3.5,0,0,0,.37-.49.76.76,0,0,0,.08-.11c0-.05.1-.08.13-.14a.36.36,0,0,0,0-.11,3.21,3.21,0,0,0,.24-.7s0-.1,0-.16a.77.77,0,0,0,0-.15,2.52,2.52,0,0,0,.1-.46A3.2,3.2,0,0,0,119.73,163.33ZM75.17,193.69a2.51,2.51,0,0,0,.2-.29,3.92,3.92,0,0,0,.25-.32c0-.05.09-.08.12-.14s0-.12.06-.18a1.6,1.6,0,0,0,.1-.23l.06-.14c0-.14.08-.28.11-.42s0-.26.05-.4a1.29,1.29,0,0,0,0-.19,1.16,1.16,0,0,0,0-.18c0-.14,0-.27-.05-.4s-.07-.28-.11-.42a1.08,1.08,0,0,1-.08-.19s0,0,0-.05L75.8,190c0-.05,0-.12-.06-.17s-.09-.09-.12-.14a4.08,4.08,0,0,0-.25-.33,1.07,1.07,0,0,1-.14-.16.6.6,0,0,1-.08-.08h0L87,168.65a3,3,0,0,0,4-2.3h23.46a3.15,3.15,0,0,0,3.06,2.49,3,3,0,0,0,1-.2L130.27,189a3.12,3.12,0,0,0,0,4.79l-11.62,20.13a3.1,3.1,0,0,0-4.22,2.48H91.05a3.17,3.17,0,0,0-3.11-2.7,3,3,0,0,0-1.08.22Zm42.43,71.59a3.15,3.15,0,0,0-3.08,2.57H91.06A3,3,0,0,0,87,265.56L75.15,245.09a2.62,2.62,0,0,0,.22-.25,3.92,3.92,0,0,0,.25-.32c0-.05.09-.09.12-.14s0-.12.06-.18a3.34,3.34,0,0,0,.16-.38c0-.13.08-.27.11-.41s0-.27.05-.4a1.29,1.29,0,0,0,0-.19,1.16,1.16,0,0,0,0-.18c0-.14,0-.27-.05-.41S76,242,76,241.82l-.09-.22a2.52,2.52,0,0,0-.13-.33h0a3.31,3.31,0,0,0-.54-.8L87,220.06l.33.07.4.05c.06,0,.12,0,.18,0s.12,0,.19,0l.4-.05a3.31,3.31,0,0,0,.42-.12,2.39,2.39,0,0,0,.37-.15l.18-.06c.06,0,.09-.09.14-.13a1.91,1.91,0,0,0,.32-.24l.14-.14a2.93,2.93,0,0,0,.42-.5,1.42,1.42,0,0,0,.12-.13.26.26,0,0,0,0-.08,3.12,3.12,0,0,0,.35-.79h23.52a2.94,2.94,0,0,0,.4.86h0s0,0,0,0a3.05,3.05,0,0,0,.58.66l.08.09.32.25c.06,0,.09.09.14.12l.18.06a2.5,2.5,0,0,0,.38.15,3.17,3.17,0,0,0,.41.12l.41.05c.06,0,.12,0,.18,0s.12,0,.19,0l.4-.05.32-.07,11.77,20.37a3.14,3.14,0,0,0,0,4.7l-11.74,20.34A3.15,3.15,0,0,0,117.6,265.28ZM162,291a3.17,3.17,0,0,0-3.07,2.54H135.46a.88.88,0,0,1-.05-.15,3.17,3.17,0,0,0-3.06-2.44,3,3,0,0,0-.9.18l-11.73-20.31a3.16,3.16,0,0,0,1.09-2.36,3.2,3.2,0,0,0-1-2.34l11.75-20.36a2.69,2.69,0,0,0,2.46-.27h0l0,0a3.09,3.09,0,0,0,1.47-2h23.63c0,.09.06.18.09.27a2.88,2.88,0,0,0,.13.31.49.49,0,0,0,0,.11c0,.06,0,.12.06.18s.09.09.12.14a3.92,3.92,0,0,0,.25.32l.09.09.09.08.13.14a1.91,1.91,0,0,0,.32.24c.05,0,.08.1.14.13s.12,0,.18.06l.16.07.07,0,.14,0a2.17,2.17,0,0,0,.42.11l.4.06c.07,0,.12,0,.19,0s.12,0,.18,0a2.57,2.57,0,0,0,.4-.06l.33-.06,11.77,20.39a3.21,3.21,0,0,0-1,2.32,3.1,3.1,0,0,0,.44,1.53.26.26,0,0,0,0,.08.63.63,0,0,0,.11.12,3.1,3.1,0,0,0,.47.61l-11.79,20.42A3.25,3.25,0,0,0,162,291Zm57.35.83a3.1,3.1,0,0,0,0,4.8l-11.67,20.21a3.1,3.1,0,0,0-1-.2,3.15,3.15,0,0,0-3.08,2.62H180.1a3.16,3.16,0,0,0-3.08-2.58,3.08,3.08,0,0,0-1,.2l-11.77-20.38.08-.09.14-.16.25-.32c0-.06.09-.09.12-.14a.64.64,0,0,0,.06-.18.84.84,0,0,0,.06-.14v0l.09-.22a3.11,3.11,0,0,0,.11-.41,1.92,1.92,0,0,0,.05-.41,1.16,1.16,0,0,0,0-.18,1,1,0,0,0,0-.18,1.92,1.92,0,0,0-.05-.41,3.25,3.25,0,0,0-.11-.42,1.42,1.42,0,0,0-.08-.18.84.84,0,0,0-.06-.14s0,0,0-.05a.64.64,0,0,0-.06-.18,1.49,1.49,0,0,0-.12-.14,3.92,3.92,0,0,0-.25-.32l-.05-.06c-.06-.07-.09-.15-.15-.22l11.81-20.46a3.09,3.09,0,0,0,1,.19,3.16,3.16,0,0,0,3.05-2.46h23.58a3.39,3.39,0,0,0,.29.77.42.42,0,0,0,0,.1s.08.08.12.14l0,0a3,3,0,0,0,.56.62l.27.21c.06,0,.09.09.15.13a1,1,0,0,0,.16.05l.38.16h0a3.11,3.11,0,0,0,.41.11,2.9,2.9,0,0,0,.41.06l.18,0h0a2.44,2.44,0,0,0,.26-.06l.3,0a3,3,0,0,0,.32-.06Zm-11.67-26.42a3,3,0,0,0-4.06,2.41H180.1a3.15,3.15,0,0,0-3.07-2.57,3.08,3.08,0,0,0-1,.2l-11.76-20.36a3.12,3.12,0,0,0,.09-4.76l11.72-20.3.33.07.4.05c.07,0,.12,0,.19,0s.12,0,.18,0l.4-.05A2.9,2.9,0,0,0,178,220a3,3,0,0,0,.38-.15s.12,0,.17-.06.09-.09.14-.13a2.52,2.52,0,0,0,.33-.24l.17-.18a2.1,2.1,0,0,0,.24-.27c0-.06.1-.11.14-.18s.09-.08.12-.14a.58.58,0,0,0,0-.14,2.77,2.77,0,0,0,.31-.73h23.52a3.08,3.08,0,0,0,1.06,1.59l0,.05a3.33,3.33,0,0,0,.32.24c.06,0,.09.1.15.13s.12,0,.17.06a3,3,0,0,0,.38.15,2.9,2.9,0,0,0,.42.12l.4.05c.06,0,.12,0,.18,0s.12,0,.19,0l.4-.05.32-.07,11.74,20.32a3.19,3.19,0,0,0-1,2.3,3.11,3.11,0,0,0,.39,1.45s0,.05,0,.07,0,.12.06.18l.13.14a2.51,2.51,0,0,0,.25.32l.08.09v0a.86.86,0,0,0,.13.14ZM263,217.29c0,.13,0,.26.05.4a3.31,3.31,0,0,0,.12.42,2.39,2.39,0,0,0,.15.37c0,.06,0,.12.06.18s.09.09.13.14a1.91,1.91,0,0,0,.24.32c.08.09.14.17.22.25l-11.71,20.29a3,3,0,0,0-.95-.19,3.17,3.17,0,0,0-3.1,2.66H224.66a3.17,3.17,0,0,0-3.1-2.66,3.12,3.12,0,0,0-1.05.21l-11.72-20.31c.08-.08.14-.16.22-.25a2.72,2.72,0,0,0,.25-.32c0-.05.09-.08.12-.14s0-.12.06-.18a2.39,2.39,0,0,0,.15-.37,3.31,3.31,0,0,0,.12-.42c0-.14,0-.27,0-.4s0-.12,0-.19a.24.24,0,0,0,0-.08s0-.07,0-.1a3.15,3.15,0,0,0-.92-2.24l11.68-20.24a3.06,3.06,0,0,0,.86.18,3.09,3.09,0,0,0,1.66-.54h0a3.32,3.32,0,0,0,.86-.81,1.33,1.33,0,0,0,.14-.19c0-.05.1-.08.13-.14s0-.09.05-.14.09-.22.13-.33l0-.08c0-.11.08-.21.11-.32h23.66c0,.11.07.21.11.32a2.39,2.39,0,0,0,.15.37c0,.06,0,.12.06.18s.09.09.13.14a1.91,1.91,0,0,0,.24.32c.1.11.2.21.31.31a3.92,3.92,0,0,0,.32.25c.05,0,.09.09.14.12s.12,0,.18.06l.38.16h.05a3.13,3.13,0,0,0,1.33.31,3.25,3.25,0,0,0,.62-.13L264,214.84c-.08.07-.14.16-.22.24a3.33,3.33,0,0,0-.24.32c0,.06-.1.09-.13.15s0,.12-.06.17a3,3,0,0,0-.15.38,2.9,2.9,0,0,0-.12.42c0,.13,0,.26-.05.4s0,.12,0,.18S263,217.22,263,217.29Zm33.86-3.45a2.78,2.78,0,0,0-.65-.13,3.09,3.09,0,0,0-1.82.64.58.58,0,0,0-.17.06.81.81,0,0,0-.14.12,2.72,2.72,0,0,0-.32.25,2.2,2.2,0,0,0-.31.3,4.08,4.08,0,0,0-.25.33c0,.05-.09.08-.12.14s0,.12-.06.17-.11.25-.16.38a2.81,2.81,0,0,0-.1.31h-23a3.16,3.16,0,0,0-3.11-2.7,3.13,3.13,0,0,0-1.48.41L253.5,193.93a3.07,3.07,0,0,0,0-5.06l11.69-20.25a1.65,1.65,0,0,0,.32.07l.4.05a1.29,1.29,0,0,0,.19,0l.12,0a3.25,3.25,0,0,0,.43.08,3.17,3.17,0,0,0,3.07-2.49h23.06c0,.11.07.21.1.32s.1.25.16.37,0,.13.06.18.09.09.12.14a4.08,4.08,0,0,0,.25.33,2.94,2.94,0,0,0,.31.3,2.72,2.72,0,0,0,.32.25c.05,0,.08.09.14.12s.12,0,.18.06l.37.16.42.11.4.05a1.49,1.49,0,0,0,.18,0h.06c.13,0,.25.07.38.07a3.22,3.22,0,0,0,.54-.1l11.77,20.38a2.5,2.5,0,0,0-.22.24,4.08,4.08,0,0,0-.25.33c0,.05-.09.08-.12.14s0,.12-.06.17-.11.25-.16.38a2.88,2.88,0,0,0-.11.42,1.75,1.75,0,0,0-.05.4,1.16,1.16,0,0,0,0,.18,1.29,1.29,0,0,0,0,.19,1.83,1.83,0,0,0,.05.4,3.25,3.25,0,0,0,.11.42c.05.13.1.25.16.37s0,.12.06.18.09.09.12.14a2.72,2.72,0,0,0,.25.32,2.62,2.62,0,0,0,.22.25Zm44.47-25.58a3.11,3.11,0,0,0-4.25,2.43h-23A3.16,3.16,0,0,0,311,188.2a2.33,2.33,0,0,0-.38.08h0a1.16,1.16,0,0,0-.18,0,2.57,2.57,0,0,0-.4.05,1.94,1.94,0,0,0-.33.07L298,168.2a3.14,3.14,0,0,0,1.38-2.56,3.18,3.18,0,0,0-1.36-2.56l11.65-20.18a1.94,1.94,0,0,0,.33.07,1.75,1.75,0,0,0,.4.05,1.16,1.16,0,0,0,.18,0,1.29,1.29,0,0,0,.19,0,1.9,1.9,0,0,0,.4-.05,3.25,3.25,0,0,0,.42-.11,2.43,2.43,0,0,0,.37-.16c.06,0,.12,0,.18-.06s.09-.09.14-.12a2.72,2.72,0,0,0,.32-.25,2.91,2.91,0,0,0,.31-.3,4.08,4.08,0,0,0,.25-.33s.09-.08.12-.14,0-.12.06-.17a3,3,0,0,0,.15-.38c0-.11.08-.2.11-.31h23.22a3.14,3.14,0,0,0,2.19,2.11l.27.11a3.11,3.11,0,0,0,.41.11,1.92,1.92,0,0,0,.41.05,1.16,1.16,0,0,0,.18,0,1.29,1.29,0,0,0,.19,0,1.9,1.9,0,0,0,.4-.05,1.83,1.83,0,0,0,.32-.07l11.71,20.29a3.2,3.2,0,0,0-.95,2.27,2.88,2.88,0,0,0,.15.72.17.17,0,0,0,0,.07.24.24,0,0,0,0,.08,2.66,2.66,0,0,0,.16.5,1.31,1.31,0,0,0,.08.21c0,.06,0,.13.06.18a1.79,1.79,0,0,0,.13.14,1.91,1.91,0,0,0,.24.32,2.8,2.8,0,0,0,.22.25Zm43.45-26a3.17,3.17,0,0,0-3.11,2.71H358.31a3.17,3.17,0,0,0-3.11-2.71,3.24,3.24,0,0,0-1.08.21l-11.69-20.26c.08-.07.14-.16.22-.24a2.52,2.52,0,0,0,.24-.33,1.79,1.79,0,0,0,.13-.14c0-.05,0-.12.06-.17a3,3,0,0,0,.15-.38,2,2,0,0,0,.11-.42,2.57,2.57,0,0,0,.06-.4c0-.06,0-.12,0-.18s0-.12,0-.19a3,3,0,0,0-.06-.4,2.17,2.17,0,0,0-.11-.42,2.39,2.39,0,0,0-.15-.37c0-.06,0-.12-.06-.18a1.79,1.79,0,0,0-.13-.14,1.91,1.91,0,0,0-.24-.32c-.08-.09-.14-.17-.22-.25l11.76-20.37a1.22,1.22,0,0,0,.92,0h.06c.06,0,.12,0,.18,0a2.9,2.9,0,0,0,.41-.06,3.11,3.11,0,0,0,.41-.11,2.54,2.54,0,0,0,.38-.16,1.21,1.21,0,0,0,.18,0,1.79,1.79,0,0,1,.14-.13,3.49,3.49,0,0,0,.32-.25,2.13,2.13,0,0,0,.3-.3,3.49,3.49,0,0,0,.25-.32,1.79,1.79,0,0,1,.13-.14c0-.06,0-.13.06-.18a3,3,0,0,0,.15-.38,2.83,2.83,0,0,0,.11-.31h23.07a3.17,3.17,0,0,0,3.06,2.49,3.12,3.12,0,0,0,.44-.09l.11,0c.06,0,.12,0,.18,0a2.57,2.57,0,0,0,.4-.06,1.94,1.94,0,0,0,.33-.07l11.58,20.07a3.08,3.08,0,0,0,.2,5.05l-11.65,20.18A3.29,3.29,0,0,0,384.78,162.26Zm45.54,26.17a1.65,1.65,0,0,0-.32-.07h-.1a2.88,2.88,0,0,0-.72-.15,3.16,3.16,0,0,0-3.06,2.49H402.73a2.09,2.09,0,0,0-.08-.23,3.16,3.16,0,0,0-3-2.43,3.21,3.21,0,0,0-.92.19L387,167.93a1.79,1.79,0,0,0,.22-.25,2.72,2.72,0,0,0,.25-.32.81.81,0,0,0,.12-.14c0-.05,0-.12.06-.17s.11-.25.16-.38a2.88,2.88,0,0,0,.11-.42,1.75,1.75,0,0,0,.05-.4,1.16,1.16,0,0,0,0-.18.29.29,0,0,0,0-.09.42.42,0,0,0,0-.12,3.2,3.2,0,0,0-.92-2.23L398.8,142.9a1.94,1.94,0,0,0,.33.07,1.75,1.75,0,0,0,.4.05,1.29,1.29,0,0,0,.19,0,1.16,1.16,0,0,0,.18,0,1.75,1.75,0,0,0,.4-.05,2.88,2.88,0,0,0,.42-.11,3.08,3.08,0,0,0,.38-.16s.12,0,.17-.06.09-.09.14-.12a4.08,4.08,0,0,0,.33-.25,2.83,2.83,0,0,0,.3-.3,4.08,4.08,0,0,0,.25-.33s.09-.08.12-.14,0-.12.06-.17.11-.25.16-.38.08-.2.1-.31h23.18a3.13,3.13,0,0,0,2.28,2.13l.22.09a2.88,2.88,0,0,0,.42.11,1.75,1.75,0,0,0,.4.05,1.16,1.16,0,0,0,.18,0,1.29,1.29,0,0,0,.19,0,1.9,1.9,0,0,0,.4-.05,1.65,1.65,0,0,0,.32-.07l11.76,20.37a3.19,3.19,0,0,0-1.08,2.37,3.15,3.15,0,0,0,1.11,2.38Zm43.46-26a3.16,3.16,0,0,0-3.07,2.54H447.28a3,3,0,0,0-4-2.36l-11.77-20.4c.08-.07.14-.16.22-.24a4.08,4.08,0,0,0,.25-.33s.09-.08.12-.14,0-.12.06-.17a3,3,0,0,0,.15-.38,2.9,2.9,0,0,0,.12-.42c0-.13,0-.26.05-.4s0-.12,0-.18,0-.12,0-.19,0-.26-.05-.4a3.31,3.31,0,0,0-.12-.42,2.39,2.39,0,0,0-.15-.37c0-.06,0-.12-.06-.18s-.09-.09-.12-.14a2.72,2.72,0,0,0-.25-.32c-.08-.09-.14-.17-.22-.25l11.76-20.37a2.46,2.46,0,0,0,.47.1,2.84,2.84,0,0,0,.42-.09l.09,0c.07,0,.12,0,.18,0a2.9,2.9,0,0,0,.41-.06,3.25,3.25,0,0,0,.42-.11,2.43,2.43,0,0,0,.37-.16,1.21,1.21,0,0,0,.18,0l.14-.13a2.51,2.51,0,0,0,.32-.25,2.91,2.91,0,0,0,.31-.3,3.33,3.33,0,0,0,.24-.32c0-.06.1-.09.13-.14s0-.12.06-.18a2.5,2.5,0,0,0,.15-.38,2.83,2.83,0,0,0,.11-.31H470.9a3.16,3.16,0,0,0,3.06,2.49,3.21,3.21,0,0,0,.93-.19l11.74,20.34a3.24,3.24,0,0,0-.67,1.22l-.06.16a3.31,3.31,0,0,0-.12.42c0,.14,0,.27,0,.4s0,.12,0,.19,0,.12,0,.18,0,.27,0,.4a2.9,2.9,0,0,0,.12.42,3,3,0,0,0,.15.38s0,.12.06.17.09.09.12.14a4.08,4.08,0,0,0,.25.33c.08.08.14.17.22.24l-11.8,20.44A3.19,3.19,0,0,0,473.78,162.43Zm57.41.86a3.15,3.15,0,0,0,0,4.71l-11.79,20.42a3.37,3.37,0,0,0-1.1-.22,3.16,3.16,0,0,0-3.06,2.49H491.82a1.86,1.86,0,0,0-.1-.31,2.43,2.43,0,0,0-.16-.37.55.55,0,0,0-.06-.18.81.81,0,0,0-.12-.14,4.08,4.08,0,0,0-.25-.33,2.83,2.83,0,0,0-.3-.3l-.32-.25c-.06,0-.09-.09-.15-.12s-.12,0-.17-.06l-.19-.08a4.18,4.18,0,0,0-.6-.19h0a2.92,2.92,0,0,0-.78-.16,3.2,3.2,0,0,0-.76.15l-11.79-20.42a1.31,1.31,0,0,0,.22-.25,2,2,0,0,0,.25-.32,1.79,1.79,0,0,0,.13-.14,1,1,0,0,0,0-.18,2.43,2.43,0,0,0,.16-.37,2.88,2.88,0,0,0,.11-.42,2.57,2.57,0,0,0,.06-.4c0-.06,0-.12,0-.18s0-.12,0-.19a2.57,2.57,0,0,0-.06-.4,2.88,2.88,0,0,0-.11-.42,2.43,2.43,0,0,0-.16-.37,1,1,0,0,0,0-.18,1.79,1.79,0,0,0-.13-.14,2,2,0,0,0-.25-.32l-.18-.21,0-.05L487.9,142.9a1.65,1.65,0,0,0,.32.07,1.9,1.9,0,0,0,.4.05,1.29,1.29,0,0,0,.19,0,1.16,1.16,0,0,0,.18,0,1.75,1.75,0,0,0,.4-.05,2.88,2.88,0,0,0,.42-.11l.38-.16c.05,0,.12,0,.17-.06s.09-.09.15-.12l.32-.25s0,0,0,0a3.11,3.11,0,0,0,1.15-1.61h23.49c0,.11.07.2.1.31s.1.25.16.38,0,.12.06.17.09.09.12.14a4.08,4.08,0,0,0,.25.33c.1.11.19.2.3.3a4.08,4.08,0,0,0,.33.25c.05,0,.08.09.14.12s.12,0,.18.06l.37.16a2.88,2.88,0,0,0,.42.11,1.75,1.75,0,0,0,.4.05,1.16,1.16,0,0,0,.18,0,1.29,1.29,0,0,0,.19,0,1.75,1.75,0,0,0,.4-.05,1.94,1.94,0,0,0,.33-.07Zm-11.61-26.58a3,3,0,0,0-4.13,2.55H492.1A3.18,3.18,0,0,0,489,136.5a3.13,3.13,0,0,0-1.22.25L476.1,116.56a3.14,3.14,0,0,0,0-4.7L487.9,91.47a3,3,0,0,0,.32.06l.4.06c.07,0,.12,0,.19,0h.05s.08,0,.12,0a3.16,3.16,0,0,0,3-2.44h23.46a.75.75,0,0,0,0,.16,3.08,3.08,0,0,0,.21.53h0c0,.06,0,.12.06.18s.09.08.12.14l.25.32h0l.28.28,0,0a1.91,1.91,0,0,0,.33.25,1.79,1.79,0,0,0,.14.13s.12,0,.18.06h0c.12.06.24.1.36.15a2.6,2.6,0,0,0,.4.1,2.47,2.47,0,0,0,.38,0,2.44,2.44,0,0,0,.26.06,3.54,3.54,0,0,0,.49-.1h0l.33-.06,11.78,20.41a3.15,3.15,0,0,0,0,4.66Zm55.24-48a2.9,2.9,0,0,0,.06.41,2.08,2.08,0,0,0,.11.41,2.5,2.5,0,0,0,.15.38c0,.06,0,.12.06.18a1.79,1.79,0,0,1,.13.14,3.33,3.33,0,0,0,.24.32c.08.08.14.17.22.25L564,111.18a3,3,0,0,0-.9-.18,3.17,3.17,0,0,0-3.08,2.54H536.46a3.17,3.17,0,0,0-3.07-2.54,3.22,3.22,0,0,0-1,.19L520.64,90.83a3.12,3.12,0,0,0,.07-4.75l11.73-20.33c.11,0,.22,0,.33.06a2.57,2.57,0,0,0,.4.06c.06,0,.12,0,.18,0s.12,0,.19,0l.4-.06a2.17,2.17,0,0,0,.42-.11,2.39,2.39,0,0,0,.37-.15c.06,0,.12,0,.18-.06s.09-.09.14-.13a1.91,1.91,0,0,0,.32-.24l.14-.14a3.17,3.17,0,0,0,.34-.39l.08-.1c0-.06.09-.09.12-.14a.56.56,0,0,0,0-.12,2.78,2.78,0,0,0,.32-.75h23.52A3.08,3.08,0,0,0,561,65.12a2.34,2.34,0,0,0,.31.24c.06,0,.09.1.14.13s.12,0,.18.06l.09,0a1.78,1.78,0,0,0,.29.12,2.08,2.08,0,0,0,.41.11,2.9,2.9,0,0,0,.41.06c.06,0,.12,0,.18,0s.12,0,.19,0l.4-.06.32-.06,11.83,20.49c-.08.08-.14.17-.22.25a2.43,2.43,0,0,0-.24.32,1.79,1.79,0,0,1-.13.14c0,.06,0,.12-.06.18a2.15,2.15,0,0,0-.15.38,1.91,1.91,0,0,0-.11.41,2.9,2.9,0,0,0-.06.41c0,.06,0,.11,0,.18S574.82,88.63,574.82,88.69Zm33.77-3.29a3.2,3.2,0,0,0-.88-.18,3.16,3.16,0,0,0-2.77,1.69s0,0,0,0a0,0,0,0,0,0,0,3.86,3.86,0,0,0-.2.51v0c0,.1-.07.2-.1.31H581.21a3.11,3.11,0,0,0-4.27-2.36l-11.78-20.4c.08-.08.14-.16.22-.25a2.43,2.43,0,0,0,.24-.32l.13-.14c0-.06,0-.12.06-.18a2.15,2.15,0,0,0,.15-.38,1.91,1.91,0,0,0,.11-.41,3,3,0,0,0,.06-.4c0-.07,0-.12,0-.19a.22.22,0,0,0,0-.08s0-.06,0-.09a3.2,3.2,0,0,0-.93-2.25l11.68-20.22a2.86,2.86,0,0,0,3.47-1.28.39.39,0,0,0,.08-.1,1.79,1.79,0,0,0,.13-.14.53.53,0,0,0,0-.12,2.28,2.28,0,0,0,.15-.36l0-.07a2,2,0,0,0,.1-.32h23.55a3,3,0,0,0,4.1,2.35l11.71,20.28a3.17,3.17,0,0,0-.78,1.56c0,.09,0,.17-.07.26l0,.24c0,.06,0,.11,0,.17s0,0,0,0a.58.58,0,0,0,0,.14,1.29,1.29,0,0,0,0,.19c0,.13,0,.26,0,.4s.07.28.11.41a3.34,3.34,0,0,0,.16.38c0,.06,0,.12.06.18s.09.08.12.14a3.92,3.92,0,0,0,.25.32,2.62,2.62,0,0,0,.22.25Z"/></svg>