<?xml version="1.0" encoding="utf-8"?>
<!-- Generator: Adobe Illustrator 24.2.1, SVG Export Plug-In . SVG Version: 6.00 Build 0)  -->
<svg version="1.1" id="Capa_1" xmlns="http://www.w3.org/2000/svg" xmlns:xlink="http://www.w3.org/1999/xlink" x="0px" y="0px"
	 viewBox="0 0 1920 953" style="enable-background:new 0 0 1920 953;" xml:space="preserve">
<style type="text/css">
	.st0{fill:none;}
	.st1{fill:none;stroke:#B1B1B1;stroke-width:0.5;stroke-miterlimit:10;}
	.st2{opacity:0.15;fill:url(#SVGID_1_);}
</style>
<pattern  y="-63" width="42.3" height="24.5" patternUnits="userSpaceOnUse" id="reno_2" viewBox="14.4 -39 42.3 24.5" style="overflow:visible;">
	<g>
		<rect x="14.4" y="-39" class="st0" width="42.3" height="24.5"/>
		<g>
			<polygon class="st1" points="56.7,-12.5 56.7,-4.4 49.6,-0.3 42.5,-4.4 42.5,-12.5 49.6,-16.6 			"/>
			<polygon class="st1" points="63.7,-24.7 63.7,-16.6 56.7,-12.5 49.6,-16.6 49.6,-24.7 56.7,-28.8 			"/>
			<polygon class="st1" points="70.8,-12.5 70.8,-4.4 63.7,-0.3 56.7,-4.4 56.7,-12.5 63.7,-16.6 			"/>
		</g>
		<g>
			<polygon class="st1" points="42.6,-12.5 42.6,-4.4 35.5,-0.3 28.5,-4.4 28.5,-12.5 35.5,-16.6 			"/>
		</g>
		<g>
			<polygon class="st1" points="14.4,-12.5 14.4,-4.4 7.3,-0.3 0.3,-4.4 0.3,-12.5 7.3,-16.6 			"/>
			<polygon class="st1" points="21.4,-24.7 21.4,-16.6 14.4,-12.5 7.3,-16.6 7.3,-24.7 14.4,-28.8 			"/>
			<polygon class="st1" points="28.5,-12.5 28.5,-4.4 21.4,-0.3 14.4,-4.4 14.4,-12.5 21.4,-16.6 			"/>
		</g>
		<g>
			<polygon class="st1" points="56.7,-37 56.7,-28.8 49.6,-24.8 42.5,-28.8 42.5,-37 49.6,-41.1 			"/>
			<polygon class="st1" points="63.7,-49.2 63.7,-41.1 56.7,-37 49.6,-41.1 49.6,-49.2 56.7,-53.3 			"/>
			<polygon class="st1" points="70.8,-37 70.8,-28.8 63.7,-24.8 56.7,-28.8 56.7,-37 63.7,-41.1 			"/>
		</g>
		<g>
			<polygon class="st1" points="35.5,-24.7 35.5,-16.6 28.5,-12.5 21.4,-16.6 21.4,-24.7 28.5,-28.8 			"/>
			<polygon class="st1" points="42.6,-37 42.6,-28.8 35.5,-24.8 28.5,-28.8 28.5,-37 35.5,-41.1 			"/>
			<polygon class="st1" points="49.6,-24.7 49.6,-16.6 42.6,-12.5 35.5,-16.6 35.5,-24.7 42.6,-28.8 			"/>
		</g>
		<g>
			<polygon class="st1" points="14.4,-37 14.4,-28.8 7.3,-24.8 0.3,-28.8 0.3,-37 7.3,-41.1 			"/>
			<polygon class="st1" points="21.4,-49.2 21.4,-41.1 14.4,-37 7.3,-41.1 7.3,-49.2 14.4,-53.3 			"/>
			<polygon class="st1" points="28.5,-37 28.5,-28.8 21.4,-24.8 14.4,-28.8 14.4,-37 21.4,-41.1 			"/>
		</g>
		<g>
			<polygon class="st1" points="35.5,-49.2 35.5,-41.1 28.5,-37 21.4,-41.1 21.4,-49.2 28.5,-53.3 			"/>
			<polygon class="st1" points="49.6,-49.2 49.6,-41.1 42.6,-37 35.5,-41.1 35.5,-49.2 42.6,-53.3 			"/>
		</g>
	</g>
</pattern>
<pattern  id="SVGID_1_" xlink:href="#reno_2" patternTransform="matrix(2.7144 0 0 2.7144 14997.4775 11264.5801)">
</pattern>
<rect x="0" y="-0.2" class="st2" width="1920" height="953.6"/>
</svg>
