<svg id="Capa_1" data-name="Capa 1" xmlns="http://www.w3.org/2000/svg" viewBox="0 0 1080 590"><defs><style>.cls-1{fill:#ededed;}.cls-2{fill:#9d9d9c;}.cls-3{fill:#e10613;}</style></defs><path class="cls-1" d="M902.5-46.8a5.59,5.59,0,0,0-5.6-5.6,5.41,5.41,0,0,0-5.4,4.7H850.8a5.49,5.49,0,0,0-5.4-4.7,6.47,6.47,0,0,0-2,.4L823-87.2a5.28,5.28,0,0,0,1.7-4,5.59,5.59,0,0,0-.7-2.6c0-.1,0-.1-.1-.2s-.2-.2-.2-.3a5.42,5.42,0,0,0-4.6-2.5,5.56,5.56,0,0,0-5.3,4.3H772.7a.76.76,0,0,0-.2-.5c0-.1-.1-.2-.1-.3s0-.1-.1-.2-.1-.1-.1-.2a.37.37,0,0,0-.1-.3l-.2-.2c-.1-.2-.3-.4-.4-.6l-.2-.2-.3-.3h0a2.09,2.09,0,0,0-.6-.4c-.1-.1-.1-.2-.2-.2s-.2-.1-.3-.1h-.1a5.59,5.59,0,0,0-2.6-.7,5.77,5.77,0,0,0-1.4.3L745.2-132a5.46,5.46,0,0,0,1.5-2.8,1.48,1.48,0,0,0,.1-.7c0-.2.1-.3.1-.5s-.1-.3-.1-.5a3.55,3.55,0,0,0-.2-1,4.18,4.18,0,0,0-.4-1c0-.1,0-.1-.1-.2s-.2-.2-.2-.3a5.26,5.26,0,0,0-1.2-1.4h0a5.33,5.33,0,0,0-3.4-1.3,5.59,5.59,0,0,0-5.6,5.6,5.59,5.59,0,0,0,5.6,5.6,5.84,5.84,0,0,0,1.8-.4l20.5,35.5a5.47,5.47,0,0,0-2,4.2,5.63,5.63,0,0,0,2,4.2L743.4-52a6.46,6.46,0,0,0-1.9-.4,5.41,5.41,0,0,0-5.4,4.7H695.4a5.49,5.49,0,0,0-5.4-4.7,4.78,4.78,0,0,0-1.8.4L667.8-87.3a5.76,5.76,0,0,0,1.3-2.3,4.53,4.53,0,0,0,.3-1.6h0a5.68,5.68,0,0,0-.6-2.8,4.3,4.3,0,0,0-.9-1c-.1-.1-.1-.1-.1-.2a8.34,8.34,0,0,0-1.2-.8c-.3-.1-.5-.3-.8-.4a1.27,1.27,0,0,0-.6-.1,5,5,0,0,0-1.2-.2,5.59,5.59,0,0,0-5.6,5.6,5.59,5.59,0,0,0,5.6,5.6,5.85,5.85,0,0,0,1.9-.4L686-50.8a5.66,5.66,0,0,0-1.7,4,5.53,5.53,0,0,0,.7,2.5c0,.1.1.1.1.2a.37.37,0,0,0,.1.3l.2.2c.1.2.3.4.4.6s.2.3.4.4L665.7-7a4.53,4.53,0,0,0-1.6-.3,5.57,5.57,0,0,0-5.4,4.5H617.9a5.47,5.47,0,0,0-5.4-4.5,6.47,6.47,0,0,0-2,.4L590-42.5a5.87,5.87,0,0,0,1.6-3,.37.37,0,0,1,.1-.3c0-.3.2-.5.2-.8s-.1-.5-.1-.7-.1-.3-.1-.4a5.57,5.57,0,0,0-5.4-4.5,5.59,5.59,0,0,0-5.6,5.6,5.59,5.59,0,0,0,5.6,5.6,8.58,8.58,0,0,0,1.7-.3L608.6-5.6c-.1.1-.2.3-.3.4a.1.1,0,0,1-.1.1,2.09,2.09,0,0,0-.4.6c-.1.1-.2.1-.2.2a.37.37,0,0,0-.1.3v.1h0a1.69,1.69,0,0,0-.2.5c-.1.2-.1.5-.2.7s-.1.5-.1.7-.1.2-.1.3.1.2.1.3a1.7,1.7,0,0,0,.1.7,1.45,1.45,0,0,0,.2.7,4.88,4.88,0,0,1,.3.7.37.37,0,0,0,.1.3l.2.2c.1.2.3.4.4.6s.2.3.4.4L588,37.9a4.67,4.67,0,0,0-1.7-.3,5.57,5.57,0,0,0-5.4,4.4H539.7a.76.76,0,0,0-.2-.5,4.88,4.88,0,0,1-.3-.7.37.37,0,0,0-.1-.3l-.2-.2c-.1-.2-.3-.4-.4-.6s-.3-.4-.5-.5a2.09,2.09,0,0,0-.6-.4c-.1-.1-.1-.2-.2-.2a.37.37,0,0,0-.3-.1,4.88,4.88,0,0,0-.7-.3c-.2-.1-.5-.1-.7-.2h-.3a4.15,4.15,0,0,0-1.6-.3,2.92,2.92,0,0,0-.9.2L512.3,2.3l.4-.4a2.09,2.09,0,0,0,.4-.6c.1-.1.2-.1.2-.2a.37.37,0,0,0,.1-.3,4.88,4.88,0,0,0,.3-.7c.1-.2.1-.5.2-.7s.1-.5.1-.7.1-.2.1-.3-.1-.2-.1-.3a1.7,1.7,0,0,0-.1-.7,1.45,1.45,0,0,0-.2-.7,4.88,4.88,0,0,1-.3-.7.37.37,0,0,0-.1-.3l-.2-.2c-.1-.2-.3-.4-.4-.6s-.2-.3-.4-.4L533-41.3a4.67,4.67,0,0,0,1.7.3,5.59,5.59,0,0,0,5.6-5.6,5.59,5.59,0,0,0-5.6-5.6,5.56,5.56,0,0,0-5.4,4.6v.1c0,.3-.2.6-.2.9a5.76,5.76,0,0,0,1.8,4.1L510.3-6.8h-.1a6.06,6.06,0,0,0-2.4-.6,5.57,5.57,0,0,0-5.4,4.5H462.1a.76.76,0,0,0-.2-.5,4.88,4.88,0,0,1-.3-.7.37.37,0,0,0-.1-.3l-.2-.2c-.1-.2-.3-.4-.4-.6s-.3-.4-.5-.5a2.09,2.09,0,0,0-.6-.4c-.1-.1-.1-.2-.2-.2a.37.37,0,0,0-.3-.1c-.1-.1-.3-.1-.4-.2a6.08,6.08,0,0,0-2.7-.8,3.59,3.59,0,0,0-1.1.2L434.8-42.4a5.47,5.47,0,0,0,2-4.2,5.59,5.59,0,0,0-5.6-5.6,5.35,5.35,0,0,0-4.4,2.4l-.1.1a5.07,5.07,0,0,0-.7,1.5c-.1.3-.1.5-.2.8s-.2.5-.2.8c0,.1.1.3.1.4a4.25,4.25,0,0,0,.2,1.1c.1.3.2.7.3,1a.37.37,0,0,1,.1.3,4.35,4.35,0,0,0,.6.7c.2.2.3.4.5.6a2.09,2.09,0,0,0,.6.4,5.54,5.54,0,0,0,3.1,1.1,8,8,0,0,0,1.5-.3L452.9-6.2a5.59,5.59,0,0,0-2.2,4.4,5.35,5.35,0,0,0,2.4,4.4L432.6,38a1.27,1.27,0,0,0-.6-.1.9.9,0,0,1-.5-.1,8,8,0,0,0-1.5-.3,5.57,5.57,0,0,0-5.4,4.4H384.4a.76.76,0,0,0-.2-.5,4.88,4.88,0,0,1-.3-.7c-.1-.1,0-.2-.1-.3l-.2-.2c-.1-.2-.3-.4-.4-.6s-.3-.4-.5-.5a2.09,2.09,0,0,0-.6-.4c-.1-.1-.1-.2-.2-.2a.37.37,0,0,0-.3-.1,4.88,4.88,0,0,0-.7-.3c-.1,0-.2-.1-.3-.1a.37.37,0,0,1-.3-.1h-.2a5.26,5.26,0,0,0-1.8-.4,2.92,2.92,0,0,0-.9.2L357,2.3l.4-.4a2.09,2.09,0,0,0,.4-.6c.1-.1.2-.1.2-.2a.37.37,0,0,0,.1-.3,4.88,4.88,0,0,0,.3-.7c.1-.2.1-.5.2-.7s.1-.5.1-.7.1-.2.1-.3-.1-.2-.1-.3a1.7,1.7,0,0,0-.1-.7,1.45,1.45,0,0,0-.2-.7,4.88,4.88,0,0,1-.3-.7.37.37,0,0,0-.1-.3l-.2-.2c-.1-.2-.3-.4-.4-.6s-.2-.3-.4-.4l20.6-35.8a5.85,5.85,0,0,0,1.9.4,5.59,5.59,0,0,0,5.6-5.6,5.59,5.59,0,0,0-5.6-5.6,5.86,5.86,0,0,0-3.2,1.1c-.2.1-.4.3-.6.4s-.2.3-.3.4a4.3,4.3,0,0,0-.9,1,5.34,5.34,0,0,0,1.1,6.6L354.9-6.8a6.06,6.06,0,0,0-2.4-.6,5.57,5.57,0,0,0-5.4,4.5H306.7a.76.76,0,0,0-.2-.5,4.88,4.88,0,0,1-.3-.7c-.1-.1,0-.2-.1-.3l-.2-.2c-.1-.2-.3-.4-.4-.6s-.3-.4-.5-.5a2.09,2.09,0,0,0-.6-.4c-.1-.1-.1-.2-.2-.2a.37.37,0,0,0-.3-.1c-.1,0-.1,0-.2-.1a4.59,4.59,0,0,0-2.7-.9c-.4,0-.8.2-1.2.2L279.3-42.7a5.34,5.34,0,0,0,1.1-6.6,4.69,4.69,0,0,0-1.9-1.8,5.69,5.69,0,0,0-3.4-1.3,5.59,5.59,0,0,0-5.6,5.6,5.59,5.59,0,0,0,5.6,5.6c.1,0,.2-.1.3-.1a11,11,0,0,0,1.8-.2L297.6-6.2a5.39,5.39,0,0,0-2.2,4.3,5.4,5.4,0,0,0,2.3,4.4L277.3,38a1.27,1.27,0,0,0-.6-.1h-.2a4.67,4.67,0,0,0-1.7-.3,5.57,5.57,0,0,0-5.4,4.4H229.1c0-.2-.1-.3-.1-.4a5.49,5.49,0,0,0-5.3-4,5.59,5.59,0,0,0-5.6,5.6,5.47,5.47,0,0,0,2,4.2L199.8,82.5a6.47,6.47,0,0,0-2-.4,5.49,5.49,0,0,0-5.4,4.8H151.7a5.49,5.49,0,0,0-5.4-4.8,5.85,5.85,0,0,0-1.9.4L124,47.2l.2-.2c.1-.1.1-.2.2-.2.2-.3.4-.5.6-.8a.37.37,0,0,0,.1-.3c.1-.2.2-.3.2-.5s.1-.1.1-.2a4.25,4.25,0,0,0,.2-1.1c0-.2.1-.4.1-.7,0-.1-.1-.2-.1-.3a4.25,4.25,0,0,0-.2-1.1c0-.1-.1-.2-.1-.3a2.61,2.61,0,0,0-.3-.8.37.37,0,0,0-.1-.3c-.1-.2-.3-.3-.4-.5a5.38,5.38,0,0,0-4.5-2.5,5.57,5.57,0,0,0-5.4,4.4H73.9a5.56,5.56,0,0,0-5.4-4.6,8.58,8.58,0,0,0-1.7.3L46.4,2.2a.35.35,0,0,0,.1-.2,3.59,3.59,0,0,0,.7-1c.1-.1.2-.3.3-.4A4.46,4.46,0,0,0,48.3-2a5.59,5.59,0,0,0-5.6-5.6A5.59,5.59,0,0,0,37.1-2,5,5,0,0,0,37.9.7a.6.6,0,0,1,.1.4,4.35,4.35,0,0,0,.6.7c.1.1.1.2.2.3a5.21,5.21,0,0,0,5.4,1.4L64.7,38.9A5.42,5.42,0,0,0,62.9,43a4.84,4.84,0,0,0,1,2.9h0a5.8,5.8,0,0,0,1,1.2h0L44.7,82.2a6.47,6.47,0,0,0-2-.4,5.54,5.54,0,0,0-5.5,5h-41a5.47,5.47,0,0,0-5.4-4.5,7.58,7.58,0,0,0-1.6.3L-31.3,47a6.42,6.42,0,0,0,1-1.3c0-.1.1-.1.1-.2a5.78,5.78,0,0,0,.5-1.4c0-.1.1-.3.1-.4,0-.3.2-.5.2-.8A5.59,5.59,0,0,0-35,37.3a5.59,5.59,0,0,0-5.6,5.6,5.39,5.39,0,0,0,2.2,4.3h.1a5.61,5.61,0,0,0,3.4,1.2,5,5,0,0,0,1.2-.2.9.9,0,0,0,.5-.1l20.5,35.5a5.68,5.68,0,0,0-1.9,4.1,5.63,5.63,0,0,0,2,4.2l-20.5,35.5a5.84,5.84,0,0,0-1.8-.4,5.57,5.57,0,0,0-5.4,4.4H-81.1a5.48,5.48,0,0,0-5.4-4.4,5.59,5.59,0,0,0-5.6,5.6,5.76,5.76,0,0,0,1.8,4.1l-20.6,35.6a5.84,5.84,0,0,0-1.8-.4,5.47,5.47,0,0,0-5.3,4.3h-41a5.45,5.45,0,0,0-5.3-4.3,5.59,5.59,0,0,0-5.6,5.6,5.59,5.59,0,0,0,5.6,5.6,5.57,5.57,0,0,0,5.4-4.4h41a5.48,5.48,0,0,0,5.4,4.4,5.85,5.85,0,0,0,1.9-.4L-90.2,218a5.58,5.58,0,0,0-1.6,4,2.92,2.92,0,0,0,.2.9.9.9,0,0,0,.1.5c0,.2.1.3.1.5s.1.3.2.5.1.3.2.4,0,.2.1.3l.2.2c.1.2.3.4.4.6s.2.3.4.4l-20.4,35.4a4.92,4.92,0,0,0-2.1-.4,5.49,5.49,0,0,0-5.4,4.7H-159a5.41,5.41,0,0,0-5.4-4.7,5.59,5.59,0,0,0-5.6,5.6,5.76,5.76,0,0,0,1.8,4.1,5.61,5.61,0,0,0,3.9,1.7,5.18,5.18,0,0,0,4.7-3.1c.2-.4.3-.7.5-1.1h41a5.45,5.45,0,0,0,2.7,3.4l.1.1h.1c.1.1.3.1.4.2s.3.1.5.2.5.1.7.2.5.1.7.1.2.1.3.1.2-.1.3-.1a1.7,1.7,0,0,0,.7-.1c.2,0,.4-.1.6-.1l20.6,35.7c-.1.1-.2.3-.4.5h0a2.09,2.09,0,0,0-.4.6c-.1.1-.2.1-.2.2s-.1.2-.1.3h0a1.42,1.42,0,0,0-.2.6v.1c-.1.2-.1.5-.2.7s-.1.5-.1.7-.1.2-.1.3.1.2.1.3a1.7,1.7,0,0,0,.1.7,1.45,1.45,0,0,0,.2.7h0c.1.3.2.5.3.8,0,.1,0,.1.1.2l.2.2a.1.1,0,0,0,.1.1,6.07,6.07,0,0,0,.7,1l-20.5,35.5a5.08,5.08,0,0,0-1.7-.3,5.59,5.59,0,0,0-5.6,5.6,5.59,5.59,0,0,0,5.6,5.6,8,8,0,0,0,1.5-.3h0a6.08,6.08,0,0,0,1.8-.9.1.1,0,0,0,.1-.1,4.71,4.71,0,0,0,1.3-1.5v-.1h0a4.42,4.42,0,0,0,.6-1.6V358a3,3,0,0,0,.2-1,5.37,5.37,0,0,0-1.8-4l20.5-35.5a5.84,5.84,0,0,0,1.8.4,5.57,5.57,0,0,0,5.4-4.4h40.9a5.51,5.51,0,0,0,2.5,3.4.1.1,0,0,0,.1.1h0a5,5,0,0,0,2.7.8,7.58,7.58,0,0,0,1.6-.3l20.4,35.4a5.68,5.68,0,0,0-1.9,4.1,5.47,5.47,0,0,0,2,4.2l-20.5,35.5a4.15,4.15,0,0,0-1.6-.3,5.59,5.59,0,0,0-5.6,5.6,5.59,5.59,0,0,0,5.6,5.6,5.59,5.59,0,0,0,5.6-5.6,5.33,5.33,0,0,0-1.9-4.1l20.6-35.6a7,7,0,0,0,1.4.3c.2,0,.4-.1.6-.1a1.27,1.27,0,0,0,.6-.1,1.42,1.42,0,0,0,.6-.2c.2-.1.4-.1.6-.2a.1.1,0,0,0,.1-.1.37.37,0,0,0,.3-.1l.2-.2c.2-.1.4-.3.6-.4l.1-.1.3-.3.1-.1a2.09,2.09,0,0,0,.4-.6c.1-.1.2-.1.2-.2a.37.37,0,0,0,.1-.3c0-.1,0-.1.1-.2s.1-.3.2-.4v-.1c.1-.2.1-.4.2-.5H37a5.54,5.54,0,0,0,5.3,4.4,4.78,4.78,0,0,0,1.8-.4l20.5,35.5a5.37,5.37,0,0,0-1.8,4,5,5,0,0,0,.8,2.7v.1l.2.2a8.74,8.74,0,0,0,.8,1L44,441.6a4.67,4.67,0,0,0-1.7-.3,5.6,5.6,0,0,0,0,11.2,5.48,5.48,0,0,0,5.4-4.7v-.1c0-.3.2-.6.2-.9a5.59,5.59,0,0,0-1.8-4.1L67,407a1.27,1.27,0,0,0,.6.1h.1a3,3,0,0,0,1,.2A5.45,5.45,0,0,0,74,403h41.1v.1a3.58,3.58,0,0,0,.4,1.1.37.37,0,0,0,.1.3l.2.2a1.38,1.38,0,0,0,.3.4l.6.6.1.1a2.09,2.09,0,0,0,.6.4c.1.1.1.2.2.2a.37.37,0,0,0,.3.1h.1c.2.1.3.1.5.2h.1c.2.1.5.1.7.2s.5.1.7.1.2.1.3.1h0c.1,0,.3-.1.4-.1a.75.75,0,0,0,.5-.1c.2,0,.4-.1.6-.1l20.7,35.8h0a5.5,5.5,0,0,0-.7.9c-.1.2-.3.4-.4.6a3.58,3.58,0,0,0-.4,1.1,1.7,1.7,0,0,0-.1.7c0,.2-.1.4-.1.7s.1.4.1.7v.2a5.49,5.49,0,0,0,5.4,4.7,5.59,5.59,0,0,0,5.6-5.6,5.39,5.39,0,0,0-2.2-4.3h0a6,6,0,0,0-1.5-.9h-.1a5.26,5.26,0,0,0-1.8-.4,2.92,2.92,0,0,0-.9.2,2.2,2.2,0,0,0-.8.1L124,405.6a5.47,5.47,0,0,0,2-4.2,5.59,5.59,0,0,0-1.8-4.1L144.6,362a8,8,0,0,0,1.5.3,5.47,5.47,0,0,0,2.8-.9h.1c.1,0,.1-.1.2-.1a4.26,4.26,0,0,0,1.2-1.1c.1-.2.3-.3.4-.5s.2-.1.2-.2a.37.37,0,0,0,.1-.3,1.69,1.69,0,0,0,.2-.5.1.1,0,0,1,.1-.1c.1-.2.1-.4.2-.5h41.3a4.71,4.71,0,0,0,.6,1.5,1.38,1.38,0,0,0,.3.4,6.47,6.47,0,0,0,.8.9,3.59,3.59,0,0,0,1,.7c.2.1.4.3.6.3a8,8,0,0,0,1.8.4c.1,0,.2.1.3.1a5.6,5.6,0,1,0-5.4-6.7H151.6a.76.76,0,0,0-.2-.5c0-.1,0-.1-.1-.2s-.1-.3-.2-.5h0a.37.37,0,0,0-.1-.3l-.2-.2c-.1-.2-.3-.4-.4-.6h0a3.13,3.13,0,0,0-1.1-.9h0c-.1-.1-.1-.2-.2-.2a.31.31,0,0,1-.2-.1,5.12,5.12,0,0,0-2.8-.8,8,8,0,0,0-1.5.3l-20.5-35.6a5.38,5.38,0,0,0,1.9-4.2,5.76,5.76,0,0,0-1.8-4.1l20.5-35.5a1.27,1.27,0,0,0,.6.1c.2,0,.5.1.7.1s.2.1.3.1.2-.1.3-.1a1.7,1.7,0,0,0,.7-.1,1.45,1.45,0,0,0,.7-.2.76.76,0,0,0,.4-.2c.1,0,.1,0,.2-.1h.1c.1-.1.2,0,.3-.1l.2-.2c.2-.1.4-.3.6-.4a.1.1,0,0,1,.1-.1,5.24,5.24,0,0,0,1-1.1l.1-.1v-.1a3.51,3.51,0,0,0,.6-1.4h41.2a.76.76,0,0,0,.2.5v.1c0,.1.1.1.1.2l.3.6a4.7,4.7,0,0,0,.6.9,2.7,2.7,0,0,0,.8.7c.2.1.3.3.5.4a.37.37,0,0,0,.3.1,3.81,3.81,0,0,0,1,.3,4.25,4.25,0,0,0,1.1.2c.1,0,.2.1.3.1s.4-.1.7-.1a4.25,4.25,0,0,0,1.1-.2c.1,0,.1-.1.2-.1a5.5,5.5,0,0,0,2-9.3l20.4-35.3a1.27,1.27,0,0,0,.6.1c.2,0,.5.1.7.1s.2.1.3.1.2-.1.3-.1a1.7,1.7,0,0,0,.7-.1c.1,0,.1,0,.2-.1a5.46,5.46,0,0,0,5-4h40.3a.76.76,0,0,0,.2.5,4.88,4.88,0,0,1,.3.7.37.37,0,0,0,.1.3l.2.2c.1.2.3.4.4.6s.3.4.5.5a2.09,2.09,0,0,0,.6.4c.1.1.1.2.2.2a.37.37,0,0,0,.3.1,4.88,4.88,0,0,0,.7.3c.2.1.5.1.7.2s.5.1.7.1.2.1.3.1.2-.1.3-.1a1.7,1.7,0,0,0,.7-.1c.2,0,.4-.1.6-.1L297.9,263a5.68,5.68,0,0,0-1.9,4.1,5.6,5.6,0,1,0,5.6-5.6,7.58,7.58,0,0,0-1.6.3l-20.4-35.4a5.42,5.42,0,0,0,.2-9l20.2-35h.1a5.45,5.45,0,0,0,2.2.5,5.57,5.57,0,0,0,5.4-4.4h40.1a5.49,5.49,0,0,0,3.6,3.8c.1,0,.1.1.2.1s.5.1.7.2.5.1.7.1.2.1.3.1.2-.1.3-.1a1.7,1.7,0,0,0,.7-.1c.2,0,.4-.1.6-.1l20.3,35.2a5.46,5.46,0,0,0-1.6,3.8,3,3,0,0,0,.2,1,4.65,4.65,0,0,0,.6,2.3,5.37,5.37,0,0,0,9.8-1c0-.1.1-.2.2-.3v-.1a6.47,6.47,0,0,0,.4-2,5.59,5.59,0,0,0-5.6-5.6,6.47,6.47,0,0,0-2,.4L357,181.6l.4-.4a2.09,2.09,0,0,0,.4-.6c.1-.1.2-.1.2-.2s.1-.2.1-.3a4.88,4.88,0,0,0,.3-.7c.1-.2.1-.5.2-.7s.1-.5.1-.7.1-.2.1-.3-.1-.2-.1-.3a1.7,1.7,0,0,0-.1-.7,1.45,1.45,0,0,0-.2-.7c0-.1,0-.1-.1-.2a7.76,7.76,0,0,0-1.2-2.2L377.6,138a1.27,1.27,0,0,0,.6.1c.2,0,.5.1.7.1s.2.1.3.1.2-.1.3-.1a1.7,1.7,0,0,0,.7-.1,1.45,1.45,0,0,0,.7-.2,4.88,4.88,0,0,1,.7-.3c.1-.1.2,0,.3-.1l.2-.2c.2-.1.4-.3.6-.4s.3-.2.4-.4l.3-.3c.1-.1.2-.3.3-.4s.2-.1.2-.2a.37.37,0,0,0,.1-.3,6.12,6.12,0,0,0,.5-1.2h41a5.45,5.45,0,0,0,1.7,2.7l.2.2a2.09,2.09,0,0,0,.6.4c.1.1.1.2.2.2a.37.37,0,0,0,.3.1,4.88,4.88,0,0,0,.7.3c.2.1.5.1.7.2s.5.1.7.1.2.1.3.1.2-.1.3-.1a1.7,1.7,0,0,0,.7-.1c.2,0,.4-.1.6-.1l20.4,35.3a5.68,5.68,0,0,0-1.9,4.1,5.6,5.6,0,0,0,2.1,4.3l-20.2,35a5.22,5.22,0,0,0-2.1-.4,5.59,5.59,0,0,0-5.6,5.6,5.83,5.83,0,0,0,.9,2.9,4.94,4.94,0,0,0,2.1,2.4,5.41,5.41,0,0,0,7.4-2,4.61,4.61,0,0,0,.6-2.8c0-.2.1-.4.1-.6a5.64,5.64,0,0,0-1.5-3.8l20.4-35.3a1.27,1.27,0,0,0,.6.1c.2,0,.5.1.7.1s.2.1.3.1.2-.1.3-.1a1.7,1.7,0,0,0,.7-.1,1.45,1.45,0,0,0,.7-.2,4.88,4.88,0,0,1,.7-.3.37.37,0,0,0,.3-.1l.2-.2c.2-.1.4-.3.6-.4s.4-.3.5-.5a2.09,2.09,0,0,0,.4-.6c.1-.1.2-.1.2-.2s.1-.2.1-.3a4.88,4.88,0,0,0,.3-.7c.1-.2.1-.4.2-.5h40.8a5.48,5.48,0,0,0,5.4,4.4,6.47,6.47,0,0,0,2-.4l20.3,35.2a5.37,5.37,0,0,0-1.8,4,4.84,4.84,0,0,0,1,2.9v.1a.1.1,0,0,0,.1.1,9,9,0,0,0,.9,1,3.81,3.81,0,0,0,1.3.9h.1a5.52,5.52,0,0,0,5-.1,4.87,4.87,0,0,0,2.2-2.7.35.35,0,0,1,.1-.2,4.25,4.25,0,0,0,.2-1.1,3,3,0,0,0,.2-1,5.59,5.59,0,0,0-5.6-5.6,8.58,8.58,0,0,0-1.7.3l-20.4-35.3.4-.4a2.09,2.09,0,0,0,.4-.6c.1-.1.2-.1.2-.2a.37.37,0,0,0,.1-.3,4.88,4.88,0,0,0,.3-.7c.1-.2.1-.5.2-.7s.1-.5.1-.7.1-.2.1-.3-.1-.2-.1-.3a1.7,1.7,0,0,0-.1-.7,1.45,1.45,0,0,0-.2-.7,4.88,4.88,0,0,1-.3-.7.37.37,0,0,0-.1-.3l-.2-.2c-.1-.2-.3-.4-.4-.6s-.2-.3-.4-.4l20.6-35.7a8,8,0,0,0,1.5.3,5,5,0,0,0,2.7-.8h.1a.1.1,0,0,0,.1-.1,6.48,6.48,0,0,0,1.7-1.6l.2-.2v-.1c.2-.4.3-.8.5-1.2v-.1h40.9a5.45,5.45,0,0,0,5.3,4.3,5.85,5.85,0,0,0,1.9-.4l20.5,35.4a5.35,5.35,0,0,0,0,8.5l-20.2,35a4.64,4.64,0,0,0-2.1-.4,5.56,5.56,0,0,0-2.6,10.5.1.1,0,0,1,.1.1h.1c.2.1.3.1.5.2a5.33,5.33,0,0,0,6.8-2.2,5.24,5.24,0,0,0,.3-4.4,4.37,4.37,0,0,0-1.3-2.4l20.4-35.4a5.77,5.77,0,0,0,1.4.3,6.94,6.94,0,0,0,2.8-.8.37.37,0,0,0,.3-.1l.2-.2a2.18,2.18,0,0,0,.5-.4l.2-.2c.1-.1.3-.2.4-.4a2.09,2.09,0,0,0,.4-.6c.1-.1.2-.1.2-.2s.1-.2.1-.3a4.88,4.88,0,0,0,.3-.7c.1-.2.1-.4.2-.5h40.8a5.48,5.48,0,0,0,5.4,4.4,5.9,5.9,0,0,0,4.2-1.9c.1-.2.3-.3.4-.5s.3-.3.4-.5a.37.37,0,0,0,.1-.3,3.81,3.81,0,0,0,.3-1,4.25,4.25,0,0,0,.2-1.1c0-.1.1-.2.1-.3s-.1-.4-.1-.7a4.25,4.25,0,0,0-.2-1.1,4.05,4.05,0,0,0-.5-.9,2.41,2.41,0,0,0-.6-.8c-.1-.1-.2-.3-.4-.4L687.8,138a4.15,4.15,0,0,0,1.6.3,5.47,5.47,0,0,0,5.3-4.3h40.9a5.45,5.45,0,0,0,5.3,4.3,5.93,5.93,0,0,0,2.3-.5,5.36,5.36,0,0,0,3.3-5,5.45,5.45,0,0,0-.5-2.2,5.59,5.59,0,0,0-10.6,1H694.6a5.48,5.48,0,0,0-5.4-4.4,10.1,10.1,0,0,0-1.7.3L667.6,92a1.38,1.38,0,0,0,.3-.4l.2-.2c.1-.1.2-.3.3-.4s.2-.1.2-.2.1-.2.1-.3a5.53,5.53,0,0,0,.9-2.9,5.66,5.66,0,0,0-1.7-4l20.3-35.2a4.67,4.67,0,0,0,1.7.3,5.47,5.47,0,0,0,5.3-4.3h41.1v.1a5,5,0,0,0,.5,1.3v.1c0,.1.1.1.2.2a4.62,4.62,0,0,0,1.7,1.7l.1.1h.1a5,5,0,0,0,2.7.8,8,8,0,0,0,1.5-.3l20.5,35.4a5.33,5.33,0,0,0-1.9,4.1,5.59,5.59,0,0,0,5.6,5.6,5.18,5.18,0,0,0,2.8-.9h0a4.71,4.71,0,0,0,1.5-1.3c.1-.1.2-.3.3-.4a6.11,6.11,0,0,0,.7-1.4,1.7,1.7,0,0,0,.1-.7,2.92,2.92,0,0,0,.2-.9c0-.2-.1-.3-.1-.5s-.1-.4-.1-.6a7.49,7.49,0,0,0-.5-1.6v-.1c0-.1-.1-.1-.1-.2a5.55,5.55,0,0,0-4.7-2.7,8,8,0,0,0-1.5.3L745.4,47.1a5.38,5.38,0,0,0,1.9-4.2,5.51,5.51,0,0,0-1.9-4.1L765.9,3.3a1.27,1.27,0,0,0,.6.1c.2,0,.5.1.7.1s.2.1.3.1h.1c.1,0,.2.1.3.1a5.47,5.47,0,0,0,5.3-4.2H814a.76.76,0,0,0,.2.5,4.88,4.88,0,0,1,.3.7c.1.1,0,.2.1.3l.2.2c.1.2.3.4.4.6s.3.4.5.5a2.09,2.09,0,0,0,.6.4c.1.1.1.2.2.2a.37.37,0,0,0,.3.1.37.37,0,0,0,.3.1c.1,0,.2.1.3.1h.1c.2.1.5.1.7.2s.5.1.7.1.2.1.3.1h.2a7,7,0,0,0,1.4-.3l20.6,35.6a5.37,5.37,0,0,0-1.5,3c0,.1-.1.3-.1.4s-.1.4-.1.6a4.33,4.33,0,0,0,.1.5,4.25,4.25,0,0,0,.2,1.1,6.89,6.89,0,0,0,.3.8c0,.1.1.2.1.3s.3.3.4.5a4.3,4.3,0,0,0,.9,1c.2.1.3.2.5.3a4.13,4.13,0,0,0,1.5.7h.1a8,8,0,0,0,1.5.3,5.6,5.6,0,1,0,0-11.2,5.84,5.84,0,0,0-1.8.4L823,2.4a5.47,5.47,0,0,0,2-4.2,5.51,5.51,0,0,0-1.9-4.1l20.4-35.4a1.27,1.27,0,0,0,.6.1c.2,0,.5.1.7.1s.2.1.3.1.2-.1.3-.1a1.7,1.7,0,0,0,.7-.1,1.45,1.45,0,0,0,.7-.2c.2-.1.3-.1.5-.2s.2-.1.3-.1.1,0,.2-.1l.2-.2c.1-.1.2-.1.2-.2a5.57,5.57,0,0,0,2.3-3.1h41a4.81,4.81,0,0,0,.8,1.6c0,.1.1.1.1.2.2.3.5.6.7.9a5.28,5.28,0,0,0,3.7,1.6,5.41,5.41,0,0,0,5-3.3A4.51,4.51,0,0,0,902.5-46.8ZM436.4,42.9a1.7,1.7,0,0,0-.1-.7,1.45,1.45,0,0,0-.2-.7,4.88,4.88,0,0,1-.3-.7.37.37,0,0,0-.1-.3l-.2-.2c-.1-.2-.3-.4-.4-.6s-.2-.3-.4-.4L455.3,3.7a3,3,0,0,0,1,.2c.1,0,.2-.1.4-.1s.2.1.3.1.2-.1.3-.1a1.7,1.7,0,0,0,.7-.1,1.45,1.45,0,0,0,.7-.2,4.88,4.88,0,0,1,.7-.3.37.37,0,0,0,.3-.1l.2-.2c.2-.1.4-.3.6-.4s.4-.3.5-.5a2.09,2.09,0,0,0,.4-.6c.1-.1.2-.1.2-.2a.37.37,0,0,0,.1-.3,4.88,4.88,0,0,0,.3-.7c.1-.2.1-.4.2-.5h40.3a5.47,5.47,0,0,0,5.3,4.2c.2,0,.3-.1.5-.1h.1c.1,0,.2.1.3.1s.2-.1.3-.1a1.7,1.7,0,0,0,.7-.1c.2,0,.4-.1.6-.1l20.3,35.1a5.3,5.3,0,0,0,0,9l-20.2,35a5.29,5.29,0,0,0-7.9,4.1H462.3a.76.76,0,0,0-.2-.5,4.88,4.88,0,0,1-.3-.7.37.37,0,0,0-.1-.3l-.2-.2c-.1-.2-.3-.4-.4-.6s-.3-.4-.5-.5a5.47,5.47,0,0,0-4.2-2,5,5,0,0,0-1.3.3L434.8,47.2l.4-.4a2.09,2.09,0,0,0,.4-.6c.1-.1.2-.1.2-.2a.37.37,0,0,0,.1-.3,4.88,4.88,0,0,0,.3-.7c.1-.2.1-.5.2-.7s.1-.5.1-.7.1-.2.1-.3C436.4,43.1,436.4,43,436.4,42.9Zm-155.3,0a1.7,1.7,0,0,0-.1-.7,1.45,1.45,0,0,0-.2-.7,4.88,4.88,0,0,1-.3-.7c-.1-.1,0-.2-.1-.3l-.2-.2c-.1-.2-.3-.4-.4-.6s-.2-.3-.4-.4L300,3.7a4.25,4.25,0,0,0,1.1.2c.1,0,.2-.1.3-.1h.2c.1,0,.2-.1.3-.1a1.7,1.7,0,0,0,.7-.1,1.45,1.45,0,0,0,.7-.2,4.88,4.88,0,0,1,.7-.3c.1-.1.2,0,.3-.1l.2-.2c.2-.1.4-.3.6-.4s.4-.3.5-.5a2.09,2.09,0,0,0,.4-.6c.1-.1.2-.1.2-.2a.37.37,0,0,0,.1-.3,4.88,4.88,0,0,0,.3-.7c.1-.2.1-.4.2-.5h40.4a5.47,5.47,0,0,0,5.3,4.2c.2,0,.3-.1.4-.1h0c.1,0,.2.1.3.1s.2-.1.3-.1a1.7,1.7,0,0,0,.7-.1c.2,0,.4-.1.6-.1l20.3,35.2a5.42,5.42,0,0,0,0,9l-20.2,35a5.42,5.42,0,0,0-2.5-.6,5.49,5.49,0,0,0-5.4,4.8H306.7a.76.76,0,0,0-.2-.5,4.88,4.88,0,0,1-.3-.7c-.1-.1,0-.2-.1-.3l-.2-.2c-.1-.2-.3-.4-.4-.6l-.3-.3a5.39,5.39,0,0,0-4.3-2.2,7,7,0,0,0-1.4.3L279.2,47.2l.4-.4a2.09,2.09,0,0,0,.4-.6c.1-.1.2-.1.2-.2s.1-.2.1-.3a4.88,4.88,0,0,0,.3-.7c.1-.2.1-.5.2-.7s.1-.5.1-.7.1-.2.1-.3A.76.76,0,0,0,281.1,42.9Zm-77.6,45c0-.1.1-.2.1-.3a5.52,5.52,0,0,0-1.6-3.9l20.4-35.3a8,8,0,0,0,1.5.3,5.35,5.35,0,0,0,4.4-2.4c.1-.2.3-.3.4-.5a.37.37,0,0,0,.1-.3,3.81,3.81,0,0,0,.3-1h0c0-.1,0-.1.1-.2h40.4a5.45,5.45,0,0,0,5.3,4.3c.3,0,.5-.1.7-.1h.1c.1,0,.2-.1.3-.1a1.7,1.7,0,0,0,.7-.1c.2,0,.4-.1.6-.1l20.2,35a5.34,5.34,0,0,0,.3,8.7l-20.4,35.3a3,3,0,0,0-1-.2,5.93,5.93,0,0,0-2.3.5c-.1,0-.2,0-.2.1a4.88,4.88,0,0,1-.7.3c-.1.1-.2,0-.3.1l-.2.2c-.2.1-.4.3-.6.4s-.4.3-.5.5a2.09,2.09,0,0,0-.4.6c-.1.1-.2.1-.2.2a.37.37,0,0,0-.1.3,4.88,4.88,0,0,0-.3.7c-.1.2-.1.4-.2.5H230.2a5.48,5.48,0,0,0-5.4-4.4,7.58,7.58,0,0,0-1.6.3.6.6,0,0,0-.4.1c-.2,0-.4.1-.6.1L201.7,92l.4-.4a2.09,2.09,0,0,0,.4-.6c.1-.1.2-.1.2-.2a.37.37,0,0,0,.1-.3,4.88,4.88,0,0,0,.3-.7c.1-.2.1-.5.2-.7s.1-.5.1-.7.1-.3.1-.5Zm-58.8,5.3a1.27,1.27,0,0,0,.6.1c.2,0,.5.1.7.1s.2.1.3.1.2-.1.3-.1a1.7,1.7,0,0,0,.7-.1,1.45,1.45,0,0,0,.7-.2,4.88,4.88,0,0,1,.7-.3.37.37,0,0,0,.3-.1l.2-.2c.2-.1.4-.3.6-.4l.5-.5.1-.1c.1-.2.3-.3.4-.5s.2-.1.2-.2a.37.37,0,0,0,.1-.3l.6-1.2h41a3.1,3.1,0,0,0,.6,1.3c0,.1,0,.2.1.2l.2.2c.1.1.1.2.2.3s.2.3.3.4.3.3.4.4a2.09,2.09,0,0,0,.6.4c.1.1.1.2.2.2a.37.37,0,0,0,.3.1,4.88,4.88,0,0,0,.7.3c.2.1.5.1.7.2s.5.1.7.1.2.1.3.1.2-.1.3-.1a1.7,1.7,0,0,0,.7-.1c.2,0,.4-.1.6-.1l20.6,35.7-.4.4a2.09,2.09,0,0,0-.4.6c-.1.1-.2.1-.2.2a.37.37,0,0,0-.1.3,4.88,4.88,0,0,0-.3.7c-.1.2-.1.5-.2.7s-.1.5-.1.7-.1.2-.1.3.1.2.1.3a1.7,1.7,0,0,0,.1.7,1.45,1.45,0,0,0,.2.7,4.88,4.88,0,0,1,.3.7.37.37,0,0,0,.1.3l.2.2c.1.2.3.4.4.6s.2.3.4.4l-20.5,35.5a3.55,3.55,0,0,0-1-.2c-.2,0-.4.1-.6.1h0c-.1,0-.2.1-.3.1a1.7,1.7,0,0,0-.7.1,1.45,1.45,0,0,0-.7.2,4.88,4.88,0,0,1-.7.3c-.1.1-.2,0-.3.1l-.2.2c-.2.1-.4.3-.6.4s-.4.3-.5.5a2.09,2.09,0,0,0-.4.6c-.1.1-.2.1-.2.2s-.1.2-.1.3a4.88,4.88,0,0,0-.3.7c-.1.2-.1.4-.2.5H151.6a.76.76,0,0,0-.2-.5c0-.1-.1-.1-.1-.2s-.1-.2-.1-.3a.1.1,0,0,0-.1-.1c-.1-.1,0-.2-.1-.3l-.2-.2c-.1-.2-.3-.4-.4-.6l-.1-.1a2.65,2.65,0,0,0-.6-.5c-.1-.1-.3-.2-.4-.3s-.1-.2-.2-.2-.2-.1-.3-.1a6.07,6.07,0,0,0-2.6-.8,5.77,5.77,0,0,0-1.4.3l-20.6-35.6a1,1,0,0,0,.4-.5,1.76,1.76,0,0,0,.4-.5c.1-.1.2-.1.2-.2a.37.37,0,0,0,.1-.3l.3-.6h0c.1-.2.1-.5.2-.7s.1-.5.1-.7.1-.2.1-.3h0c0-.2-.1-.3-.1-.5a.9.9,0,0,0-.1-.5c0-.2-.1-.3-.1-.5a3.58,3.58,0,0,0-.4-1.1v-.1c0-.1-.1-.1-.1-.2-.3-.4-.5-.8-.8-1.2Zm-2.3,88.7L122.2,217a6.47,6.47,0,0,0-2-.4,5.49,5.49,0,0,0-5.4,4.7H74.1a5.41,5.41,0,0,0-5.4-4.7,5.85,5.85,0,0,0-1.9.4L46.4,181.7c.1-.1.1-.2.2-.3s.1-.1.1-.2a2.09,2.09,0,0,0,.4-.6c.1-.1.2-.1.2-.2s.1-.2.1-.3a9951643238389.9,9951643238389.9,0,0,0,.2-.2c.1-.1.1-.3.2-.4s.1-.5.2-.7.1-.5.1-.7.1-.2.1-.3-.1-.2-.1-.3a1.7,1.7,0,0,0-.1-.7,1.45,1.45,0,0,0-.2-.7,4.88,4.88,0,0,1-.3-.7c-.1-.1,0-.2-.1-.3l-.2-.2c-.1-.2-.3-.4-.4-.6s-.2-.3-.4-.4L67,138.1a4.67,4.67,0,0,0,1.7.3,5.47,5.47,0,0,0,5.3-4.3h40.9a5.45,5.45,0,0,0,5.3,4.3,5.84,5.84,0,0,0,1.8-.4l20.5,35.5a5.47,5.47,0,0,0-2,4.2A5.73,5.73,0,0,0,142.4,181.9ZM-29.5,222.5c0-.1.1-.2.1-.3a5.52,5.52,0,0,0-1.6-3.9l20.4-35.2a8,8,0,0,0,1.5.3,5.55,5.55,0,0,0,4.7-2.7c.1-.1.2-.1.2-.2v-.1l.3-.9c.1-.2.1-.3.2-.5H37.2a5.48,5.48,0,0,0,5.4,4.4,5.85,5.85,0,0,0,1.9-.4l20.4,35.3a5.66,5.66,0,0,0-1.7,4,6.06,6.06,0,0,0,.6,2.4c0,.1.1.2.1.3a.37.37,0,0,0,.1.3l.2.2c.1.2.3.4.4.6s.2.3.4.4L44.5,261.9a4.53,4.53,0,0,0-1.6-.3,5.56,5.56,0,0,0-5.4,4.6H-3.7a5.57,5.57,0,0,0-5.4-4.5,8.58,8.58,0,0,0-1.7.3l-20.5-35.5.4-.4a2.09,2.09,0,0,0,.4-.6c.1-.1.2-.1.2-.2a.37.37,0,0,0,.1-.3,4.88,4.88,0,0,0,.3-.7c.1-.2.1-.5.2-.7s.1-.5.1-.7.1-.3.1-.4Zm76.2-139L67,48.3a1.27,1.27,0,0,0,.6.1c.2,0,.5.1.7.1s.2.1.3.1.2-.1.3-.1a1.7,1.7,0,0,0,.7-.1,1.45,1.45,0,0,0,.7-.2,4.88,4.88,0,0,1,.7-.3c.1-.1.2,0,.3-.1l.2-.2c.2-.1.4-.3.6-.4l.3-.3.1-.1.1-.1a2.09,2.09,0,0,0,.4-.6c.1-.1.2-.1.2-.2a.37.37,0,0,0,.1-.3.1.1,0,0,1,.1-.1l.3-.9c0-.1.1-.1.1-.2h41a5.45,5.45,0,0,0,5.3,4.3,5.84,5.84,0,0,0,1.8-.4l20.4,35.3a5.52,5.52,0,0,0-1.6,3.9c0,.1.1.3.1.4h0c0,.1.1.2.1.3a1.7,1.7,0,0,0,.1.7,1.45,1.45,0,0,0,.2.7,4.88,4.88,0,0,1,.3.7c.1.1,0,.2.1.3l.2.2c.1.2.3.4.4.6s.2.3.4.4L122,127.6a5.84,5.84,0,0,0-1.8-.4,5.57,5.57,0,0,0-5.4,4.4H74a5.48,5.48,0,0,0-5.4-4.4,8.58,8.58,0,0,0-1.7.3L46.4,92l.4-.4a2.09,2.09,0,0,0,.4-.6c.1-.1.2-.1.2-.2s.1-.2.1-.3a4.88,4.88,0,0,0,.3-.7v-.3c0-.2.1-.3.1-.5a.9.9,0,0,1,.1-.5,5,5,0,0,0-1.3-5Zm-77.9,45.3,20.6-35.6a8,8,0,0,0,1.5.3,2.35,2.35,0,0,0,.8-.2H-8c.1,0,.2-.1.4-.1a4.87,4.87,0,0,0,1.1-.4.37.37,0,0,0,.3-.1l.2-.2a1.38,1.38,0,0,0,.4-.3,6,6,0,0,0,.8-.8l.3-.3c.1-.1.2-.1.2-.2a.35.35,0,0,1,.1-.2,3.58,3.58,0,0,0,.4-1.1c0-.1,0-.1.1-.2H37.6v.1c0,.1.1.3.1.4V90a4.88,4.88,0,0,1,.3.7.37.37,0,0,0,.1.3l.2.2c.1.2.3.4.4.6s.3.4.5.5a2.09,2.09,0,0,0,.6.4c.1.1.1.2.2.2a.37.37,0,0,0,.3.1,4.88,4.88,0,0,0,.7.3c.2.1.5.1.7.2s.5.1.7.1.2.1.3.1.2-.1.3-.1a1.7,1.7,0,0,0,.7-.1c.2,0,.4-.1.6-.1L64.8,129a5.42,5.42,0,0,0-1.8,4.1,5.59,5.59,0,0,0,1.8,4.1L44.2,172.8a5.85,5.85,0,0,0-1.9-.4,5.47,5.47,0,0,0-5.3,4.3H-3.8a.76.76,0,0,0-.2-.5v-.1c-.1-.2-.1-.4-.2-.6h0c-.1-.1,0-.2-.1-.3l-.2-.2c-.1-.2-.3-.4-.4-.6h0a6.47,6.47,0,0,0-.9-.8c-.1,0-.1-.1-.2-.1s-.1-.2-.2-.2-.1-.1-.2-.1a5,5,0,0,0-2.7-.8,8,8,0,0,0-1.5.3l-20.5-35.6c.3-.2.4-.6.6-.8,0-.1.1-.1.1-.2s.2-.1.2-.2.1-.1.1-.2a5.64,5.64,0,0,0,.4-1.2c0-.1.1-.2.1-.3v-.3c0-.3.2-.5.2-.8A5.91,5.91,0,0,0-31.2,128.8Zm-77.7,52.9c.1-.1.2-.3.4-.5a2.09,2.09,0,0,0,.4-.6c.1-.1.2-.1.2-.2a.37.37,0,0,0,.1-.3c.1-.1.1-.3.2-.4a.35.35,0,0,1,.1-.2c.1-.2.1-.5.2-.7s.1-.5.1-.7.1-.2.1-.3-.1-.2-.1-.3a1.7,1.7,0,0,0-.1-.7,1.45,1.45,0,0,0-.2-.7c0-.1-.1-.2-.1-.3v-.1a.35.35,0,0,0-.1-.2.37.37,0,0,0-.1-.3l-.2-.2c-.1-.2-.3-.4-.4-.6l-.3-.3-.1-.1h0l20.6-35.7a4.67,4.67,0,0,0,1.7.3,5.47,5.47,0,0,0,5.3-4.3h40.9a5.45,5.45,0,0,0,5.3,4.3,4.71,4.71,0,0,0,1.7-.4l20.5,35.5a5.47,5.47,0,0,0-2,4.2,5.9,5.9,0,0,0,1.9,4.2L-33.1,217a5.85,5.85,0,0,0-1.9-.4,5.49,5.49,0,0,0-5.4,4.7H-81.1a5.41,5.41,0,0,0-5.4-4.7,5.85,5.85,0,0,0-1.9.4Zm74,124.8a5.56,5.56,0,0,0-5.4,4.5H-81.2a5.54,5.54,0,0,0-5.3-4.4,5.84,5.84,0,0,0-1.8.4l-20.6-35.7.4-.4a2.09,2.09,0,0,0,.4-.6c.1-.1.2-.1.2-.2a.37.37,0,0,0,.1-.3,4.88,4.88,0,0,0,.3-.7c.1-.2.1-.5.2-.7s.1-.5.1-.7.1-.2.1-.3-.1-.2-.1-.3a1.7,1.7,0,0,0-.1-.7,1.45,1.45,0,0,0-.2-.7.76.76,0,0,0-.2-.4c-.1-.2-.1-.4-.2-.6h0a6.71,6.71,0,0,0-.9-1.4l20.5-35.6a1.27,1.27,0,0,0,.6.1c.2,0,.5.1.7.1s.2.1.3.1.2-.1.3-.1a1.7,1.7,0,0,0,.7-.1,1.45,1.45,0,0,0,.7-.2,4.88,4.88,0,0,1,.7-.3.37.37,0,0,0,.3-.1l.2-.2c.2-.1.4-.3.6-.4l.2-.2a5.5,5.5,0,0,0,.7-.9l.2-.2v-.1a3.51,3.51,0,0,0,.6-1.4h41a10.09,10.09,0,0,0,.7,1.5h0a10.59,10.59,0,0,0,1,1.2.1.1,0,0,1,.1.1,2.09,2.09,0,0,0,.6.4c.1.1.1.2.2.2a.37.37,0,0,0,.3.1,4.88,4.88,0,0,0,.7.3c.2.1.5.1.7.2s.5.1.7.1.2.1.3.1.2-.1.3-.1a1.7,1.7,0,0,0,.7-.1c.2,0,.4-.1.6-.1l20.5,35.5a5.59,5.59,0,0,0-1.8,4.1,5.18,5.18,0,0,0,1.9,4.1l-20.5,35.5A2.59,2.59,0,0,0-34.9,306.5Zm77.4,44.9a5.57,5.57,0,0,0-5.4,4.4H-3.8c0-.1-.1-.2-.1-.3a5.56,5.56,0,0,0-5.3-4.3,7.58,7.58,0,0,0-1.6.3l-20.4-35.4a5.68,5.68,0,0,0,1.9-4.1,5.76,5.76,0,0,0-1.8-4.1l20.5-35.5a4.15,4.15,0,0,0,1.6.3,5,5,0,0,0,2.7-.8h0a5.77,5.77,0,0,0,2.6-3.5H37.5c0,.2.1.3.2.5s.1.4.2.5,0,.1.1.2,0,.2.1.3l.2.2c.1.2.3.4.4.6s.1.1.2.2.1.1.2.1.1.2.2.2a2.09,2.09,0,0,0,.6.4c.1.1.1.2.2.2a.37.37,0,0,0,.3.1c.1,0,.2.1.3.1a.1.1,0,0,1,.1.1.35.35,0,0,1,.2.1c.2.1.5.1.7.2s.5.1.7.1.2.1.3.1.2-.1.3-.1a1.7,1.7,0,0,0,.7-.1c.2,0,.4-.1.6-.1l20.5,35.6a5.37,5.37,0,0,0-1.8,4,5,5,0,0,0,.8,2.7v.1l.2.2a10.47,10.47,0,0,0,.8,1.1L44.2,351.6C43.8,351.6,43.2,351.4,42.5,351.4Zm100,1.5a5.41,5.41,0,0,0,0,8.4l-20.3,35.2a4.67,4.67,0,0,0-1.7-.3,5.56,5.56,0,0,0-5.4,4.6H74a5.57,5.57,0,0,0-5.4-4.5,5.84,5.84,0,0,0-1.8.4L46.4,361l.1-.1.3-.3a2.09,2.09,0,0,0,.4-.6c.1-.1.2-.1.2-.2a.37.37,0,0,0,.1-.3.35.35,0,0,1,.1-.2h0c.1-.1.1-.2.2-.4s.1-.5.2-.7.1-.5.1-.7.1-.2.1-.3-.1-.2-.1-.3a1.7,1.7,0,0,0-.1-.7,1.45,1.45,0,0,0-.2-.7c0-.1-.1-.2-.1-.3a.35.35,0,0,0-.1-.2v-.1a.37.37,0,0,0-.1-.3l-.2-.2c-.1-.2-.3-.4-.4-.6l-.1-.1c-.1-.1-.2-.3-.3-.4L67,317.4a4.67,4.67,0,0,0,1.7.3,5.56,5.56,0,0,0,5.3-4.3h41.1a5,5,0,0,0,.5,1.3c0,.1,0,.1.1.2l.2.2a.1.1,0,0,0,.1.1,5.24,5.24,0,0,0,1,1.1c.2.1.3.3.5.4s.1.2.2.2a.37.37,0,0,0,.3.1,4.88,4.88,0,0,0,.7.3h0c.2.1.5.1.7.2s.5.1.7.1.2.1.3.1h0c.2,0,.3-.1.5-.1a.9.9,0,0,0,.5-.1c.2,0,.4-.1.6-.1Zm-20.4-46.1a4.67,4.67,0,0,0-1.7-.3A5.57,5.57,0,0,0,115,311H74a5.57,5.57,0,0,0-5.4-4.5,5.84,5.84,0,0,0-1.8.4L46.3,271.4a5.47,5.47,0,0,0,2-4.2,5.59,5.59,0,0,0-1.8-4.1L67,227.7a1.27,1.27,0,0,0,.6.1c.2,0,.5.1.7.1s.2.1.3.1.2-.1.3-.1a1.7,1.7,0,0,0,.7-.1,1.45,1.45,0,0,0,.7-.2,4.88,4.88,0,0,1,.7-.3.37.37,0,0,0,.3-.1l.2-.2c.2-.1.4-.3.6-.4l.3-.3a1,1,0,0,0,.4-.5c.1-.1.2-.2.2-.3s.2-.1.2-.2a.35.35,0,0,1,.1-.2,5,5,0,0,0,.5-1.3h41a5.92,5.92,0,0,0,1.8,2.8.1.1,0,0,0,.1.1,2.09,2.09,0,0,0,.6.4c.1.1.1.2.2.2a.37.37,0,0,0,.3.1,4.88,4.88,0,0,0,.7.3c.2.1.5.1.7.2s.5.1.7.1.2.1.3.1.2-.1.3-.1a1.7,1.7,0,0,0,.7-.1c.2,0,.4-.1.6-.1l20.5,35.4a5.66,5.66,0,0,0-1.7,4,5.2,5.2,0,0,0,.7,2.5.1.1,0,0,0,.1.1c.1.1,0,.2.1.3l.2.2c.1.2.3.4.4.6s.1.1.1.2h0c.1.1.1.2.2.2Zm96.5-83.9a1.7,1.7,0,0,0,.1.7,1.45,1.45,0,0,0,.2.7,4.88,4.88,0,0,1,.3.7.37.37,0,0,0,.1.3l.2.2c.1.2.3.4.4.6s.2.3.4.4l-20.4,35.4a4.67,4.67,0,0,0-1.7-.3,5.48,5.48,0,0,0-5.4,4.6H151.7a5.48,5.48,0,0,0-5.4-4.6,5.84,5.84,0,0,0-1.8.4l-20.4-35.4.4-.4a2.09,2.09,0,0,0,.4-.6c.1-.1.2-.1.2-.2a.37.37,0,0,0,.1-.3,4.88,4.88,0,0,0,.3-.7c.1-.2.1-.5.2-.7s.1-.5.1-.7.1-.2.1-.3v-.3a5.52,5.52,0,0,0-1.6-3.9l20.4-35.3a8,8,0,0,0,1.5.3,5.83,5.83,0,0,0,2.9-.9h0a5,5,0,0,0,1.5-1.4c.1-.1.2-.2.2-.3s.2-.1.2-.2a.35.35,0,0,1,.1-.2,1.42,1.42,0,0,0,.2-.6.1.1,0,0,1,.1-.1c.1-.2.1-.4.2-.5h41.3a.76.76,0,0,0,.2.5,4.88,4.88,0,0,1,.3.7c.1.1,0,.2.1.3l.2.2c.1.2.3.4.4.6s.3.4.5.5a2.09,2.09,0,0,0,.6.4c.1.1.1.2.2.2s.2.1.3.1a4.88,4.88,0,0,0,.7.3h.1a5.93,5.93,0,0,0,2.3.5,4.25,4.25,0,0,0,1.1-.2l20.5,35.5-.4.4a2.09,2.09,0,0,0-.4.6c-.1.1-.2.1-.2.2a.37.37,0,0,0-.1.3,4.88,4.88,0,0,0-.3.7c-.1.2-.1.5-.2.7s-.1.5-.1.7-.1.2-.1.3Zm59-6.1a4.25,4.25,0,0,0-1.1-.2,5.86,5.86,0,0,0-3.2,1.1.37.37,0,0,0-.3.1l-.2.2c-.2.1-.4.3-.6.4s-.4.3-.5.5a2.09,2.09,0,0,0-.4.6c-.1.1-.2.1-.2.2a.37.37,0,0,0-.1.3,4.88,4.88,0,0,0-.3.7c-.1.2-.1.4-.2.5H230.4a5.41,5.41,0,0,0-5.4-4.7,5.94,5.94,0,0,0-2.6.7L202,182.1a5.4,5.4,0,0,0,2.3-4.4,5.68,5.68,0,0,0-2.3-4.4L222.4,138a1.27,1.27,0,0,0,.6.1c.2,0,.5.1.7.1s.2.1.3.1h.2c.3,0,.5.2.8.2a5.47,5.47,0,0,0,5.3-4.3h40.2a.76.76,0,0,0,.2.5,4.88,4.88,0,0,1,.3.7.37.37,0,0,0,.1.3l.2.2c.1.2.3.4.4.6s.3.4.5.5a2.09,2.09,0,0,0,.6.4c.1.1.1.2.2.2a.37.37,0,0,0,.3.1,4.88,4.88,0,0,0,.7.3c.2.1.5.1.7.2s.5.1.7.1.2.1.3.1h.1c.2,0,.4.1.7.1a2.92,2.92,0,0,0,.9-.2l20.5,35.5-.4.4a2.09,2.09,0,0,0-.4.6c-.1.1-.2.1-.2.2s-.1.2-.1.3a4.88,4.88,0,0,0-.3.7c-.1.2-.1.5-.2.7s-.1.5-.1.7-.1.2-.1.3.1.2.1.3a1.7,1.7,0,0,0,.1.7,1.45,1.45,0,0,0,.2.7,4.88,4.88,0,0,1,.3.7.37.37,0,0,0,.1.3l.2.2c.1.2.3.4.4.6s.2.3.4.4Zm77.5-44.5a6.47,6.47,0,0,0-2-.4,5.48,5.48,0,0,0-5.4,4.6H307.6a5.45,5.45,0,0,0-5.3-4.3c-.2,0-.4.1-.7.1h-.1c-.1,0-.2.1-.3.1a1.7,1.7,0,0,0-.7.1c-.2,0-.4.1-.6.1l-20.4-35.3a5.54,5.54,0,0,0,2.4-4.5,5.35,5.35,0,0,0-2.4-4.4L300,93.2a1.27,1.27,0,0,0,.6.1c.2,0,.5.1.7.1s.2.1.3.1.2-.1.3-.1a1.7,1.7,0,0,0,.7-.1,1.45,1.45,0,0,0,.7-.2,4.88,4.88,0,0,1,.7-.3.37.37,0,0,0,.3-.1l.2-.2c.2-.1.4-.3.6-.4s.4-.3.5-.5a2.09,2.09,0,0,0,.4-.6c.1-.1.2-.1.2-.2s.1-.2.1-.3a4.88,4.88,0,0,0,.3-.7c.1-.2.1-.4.2-.5h40.5a5.63,5.63,0,0,0,3.8,3.7c.2.1.3.1.5.2s.5.1.7.2.5.1.7.1.2.1.3.1.2-.1.3-.1a1.7,1.7,0,0,0,.7-.1c.2,0,.4-.1.6-.1l20.4,35.4a5.66,5.66,0,0,0-1.7,4,5.27,5.27,0,0,0,.3,1.2v.2a3.18,3.18,0,0,0,.3.9c0,.1.1.2.2.4s0,.2.1.3l.2.2c.1.2.3.4.4.6s.2.3.4.4Zm75.8-45.4a5.49,5.49,0,0,0-5.4,4.7H384.8a5.41,5.41,0,0,0-5.4-4.7,5.85,5.85,0,0,0-1.9.4L357,92l.4-.4a2.09,2.09,0,0,0,.4-.6c.1-.1.2-.1.2-.2a.37.37,0,0,0,.1-.3,4.88,4.88,0,0,0,.3-.7c.1-.2.1-.5.2-.7s.1-.5.1-.7.1-.2.1-.3-.1-.2-.1-.3a1.7,1.7,0,0,0-.1-.7,1.45,1.45,0,0,0-.2-.7,4.88,4.88,0,0,1-.3-.7.37.37,0,0,0-.1-.3l-.2-.2c-.1-.2-.3-.4-.4-.6s-.2-.3-.4-.4l20.5-35.5a2.92,2.92,0,0,0,.9.2c.2,0,.5-.1.7-.1h.1c.1,0,.2-.1.3-.1a1.7,1.7,0,0,0,.7-.1,1.45,1.45,0,0,0,.7-.2,4.88,4.88,0,0,1,.7-.3c.1-.1.2,0,.3-.1l.2-.2c.2-.1.4-.3.6-.4s.4-.3.5-.5a2.09,2.09,0,0,0,.4-.6c.1-.1.2-.1.2-.2s.1-.2.1-.3a4.88,4.88,0,0,0,.3-.7c.1-.2.1-.4.2-.5h40.2a5.45,5.45,0,0,0,5.3,4.3,2.35,2.35,0,0,0,.8-.2h.2c.1,0,.2-.1.3-.1a1.7,1.7,0,0,0,.7-.1c.2,0,.4-.1.6-.1l20.2,35a5.31,5.31,0,0,0-2.1,4.3,5.38,5.38,0,0,0,2.5,4.5l-20.3,35.2A4.14,4.14,0,0,0,430.9,126.9Zm79.4,45.6a1.27,1.27,0,0,0-.6-.1h-.2a5,5,0,0,0-1.3-.3,5.47,5.47,0,0,0-5.3,4.3H462.1c0-.1-.1-.3-.1-.4a5.47,5.47,0,0,0-5.3-4.2,7.58,7.58,0,0,0-1.6.3l-20.4-35.4.4-.4a2.09,2.09,0,0,0,.4-.6c.1-.1.2-.1.2-.2a.37.37,0,0,0,.1-.3,4.88,4.88,0,0,0,.3-.7c.1-.2.1-.5.2-.7s.1-.5.1-.7.1-.2.1-.3v-.3a5.52,5.52,0,0,0-1.6-3.9l20.5-35.4a1.27,1.27,0,0,0,.6.1c.2,0,.5.1.7.1s.2.1.3.1.2-.1.3-.1a1.7,1.7,0,0,0,.7-.1,1.45,1.45,0,0,0,.7-.2,4.88,4.88,0,0,1,.7-.3.37.37,0,0,0,.3-.1l.2-.2c.2-.1.4-.3.6-.4s.4-.3.5-.5a2.09,2.09,0,0,0,.4-.6c.1-.1.2-.1.2-.2a.37.37,0,0,0,.1-.3,4.88,4.88,0,0,0,.3-.7c.1-.2.1-.4.2-.5h40.4a5.36,5.36,0,0,0,4,3.7c.1.1.2.1.4.2s.5.1.7.2.5.1.7.1.2.1.3.1.2-.1.3-.1a1.7,1.7,0,0,0,.7-.1c.2,0,.4-.1.6-.1l20.5,35.5a5.68,5.68,0,0,0-1.9,4.1,5.9,5.9,0,0,0,1.9,4.2ZM586,127.2a5.57,5.57,0,0,0-5.4,4.4H539.8a5.48,5.48,0,0,0-5.4-4.4,7.58,7.58,0,0,0-1.6.3L512.3,92l.4-.4a2.09,2.09,0,0,0,.4-.6c.1-.1.2-.1.2-.2a.37.37,0,0,0,.1-.3,4.88,4.88,0,0,0,.3-.7c.1-.2.1-.5.2-.7s.1-.5.1-.7.1-.2.1-.3-.1-.2-.1-.3a1.7,1.7,0,0,0-.1-.7,1.45,1.45,0,0,0-.2-.7,4.88,4.88,0,0,1-.3-.7.37.37,0,0,0-.1-.3l-.2-.2c-.1-.2-.3-.4-.4-.6s-.2-.3-.4-.4l20.5-35.5c.3,0,.5.2.8.2s.5-.1.7-.1h.2c.1,0,.2-.1.3-.1a1.7,1.7,0,0,0,.7-.1,1.45,1.45,0,0,0,.7-.2,4.88,4.88,0,0,1,.7-.3c.1-.1.2,0,.3-.1l.2-.2c.2-.1.4-.3.6-.4s.4-.3.5-.5a2.09,2.09,0,0,0,.4-.6c.1-.1.2-.1.2-.2s.1-.2.1-.3a4.88,4.88,0,0,0,.3-.7c.1-.2.1-.4.2-.5H581a5.45,5.45,0,0,0,5.3,4.3,7.58,7.58,0,0,0,1.6-.3l20.5,35.5a5.49,5.49,0,0,0-1.2,2.1c0,.1-.1.2-.1.3s-.1.5-.2.7-.1.5-.1.7-.1.2-.1.3.1.2.1.3a1.7,1.7,0,0,0,.1.7,1.45,1.45,0,0,0,.2.7,4.88,4.88,0,0,1,.3.7.37.37,0,0,0,.1.3l.2.2c.1.2.3.4.4.6s.2.3.4.4L588,127.6A6.47,6.47,0,0,0,586,127.2Zm100.1,1.5a5.59,5.59,0,0,0-1.8,4.1,5.33,5.33,0,0,0,1.9,4.1l-20.6,35.6a5.85,5.85,0,0,0-1.9-.4,5.47,5.47,0,0,0-5.3,4.3H617.5a.76.76,0,0,0-.2-.5,4.88,4.88,0,0,1-.3-.7c-.1-.1,0-.2-.1-.3l-.2-.2c-.1-.2-.3-.4-.4-.6s-.3-.4-.5-.5a2.09,2.09,0,0,0-.6-.4c-.1-.1-.1-.2-.2-.2a2781568846089.89,2781568846089.89,0,0,0-.6-.2,3.81,3.81,0,0,0-1-.3h0a5.77,5.77,0,0,0-1.4-.3,5,5,0,0,0-1.3.3L590,136.8l.4-.4a2.09,2.09,0,0,0,.4-.6c.1-.1.2-.1.2-.2s.1-.2.1-.3a4.88,4.88,0,0,0,.3-.7c.1-.2.1-.5.2-.7s.1-.5.1-.7.1-.2.1-.3-.1-.2-.1-.3a1.7,1.7,0,0,0-.1-.7,1.45,1.45,0,0,0-.2-.7,4.88,4.88,0,0,1-.3-.7.37.37,0,0,0-.1-.3l-.2-.2c-.1-.2-.3-.4-.4-.6a1.38,1.38,0,0,1-.3-.4.1.1,0,0,0-.1-.1l20.6-35.7a1.27,1.27,0,0,0,.6.1c.2,0,.5.1.7.1s.2.1.3.1.2-.1.3-.1a1.7,1.7,0,0,0,.7-.1,1.45,1.45,0,0,0,.7-.2,4.88,4.88,0,0,1,.7-.3.37.37,0,0,0,.3-.1l.2-.2c.2-.1.4-.3.6-.4h0a4.75,4.75,0,0,0,2-2.8h40.9a.76.76,0,0,0,.2.5,4.88,4.88,0,0,1,.3.7.37.37,0,0,0,.1.3l.2.2c.1.2.3.4.4.6s.3.4.5.5a2.09,2.09,0,0,0,.6.4c.1.1.1.2.2.2a.37.37,0,0,0,.3.1,4.88,4.88,0,0,0,.7.3c.2.1.5.1.7.2s.5.1.7.1.2.1.3.1.2-.1.3-.1a1.7,1.7,0,0,0,.7-.1c.2,0,.4-.1.6-.1ZM665.9,82.4a5.26,5.26,0,0,0-1.8-.4,5.49,5.49,0,0,0-5.4,4.8H618a5.49,5.49,0,0,0-5.4-4.8,6.54,6.54,0,0,0-2.1.4L590.2,47.2a5.68,5.68,0,0,0,1.9-4.1,5.59,5.59,0,0,0-1.8-4.1L610.8,3.4a1.27,1.27,0,0,0,.6.1c.2,0,.5.1.7.1s.2.1.3.1h.3A5.47,5.47,0,0,0,618-.5h40.9c0,.1.1.2.1.3a3.55,3.55,0,0,0,.4.9h0c.1.1,0,.2.1.3l.2.2c.1.2.3.4.4.6h0l.5.5h0a2.09,2.09,0,0,0,.6.4c.1.1.1.2.2.2a.37.37,0,0,0,.3.1h.1l.6.3a6.37,6.37,0,0,0,.7.2c.2,0,.4.1.7.1s.3.1.5.1a2.92,2.92,0,0,0,.9-.2h.1c.2,0,.4-.1.6-.1L686.4,39a5.42,5.42,0,0,0-1.8,4.1,5.59,5.59,0,0,0,1.8,4.1ZM762.2-1.3a1.7,1.7,0,0,0,.1.7,1.45,1.45,0,0,0,.2.7,4.88,4.88,0,0,1,.3.7c.1.1,0,.2.1.3l.2.2c.1.2.3.4.4.6s.2.3.4.4L743.4,37.9a4.15,4.15,0,0,0-1.6-.3,5.57,5.57,0,0,0-5.4,4.4H695.3a5.48,5.48,0,0,0-5.4-4.4,8.58,8.58,0,0,0-1.7.3L667.7,2.4a5.47,5.47,0,0,0,2-4.2,5.33,5.33,0,0,0-1.9-4.1l20.5-35.4a1.27,1.27,0,0,0,.6.1c.2,0,.5.1.7.1s.2.1.3.1.2-.1.3-.1a1.7,1.7,0,0,0,.7-.1,1.45,1.45,0,0,0,.7-.2,4.88,4.88,0,0,1,.7-.3.37.37,0,0,0,.3-.1l.2-.2c.2-.1.4-.3.6-.4l.2-.2a4.35,4.35,0,0,0,.6-.7c0-.1.1-.1.1-.2s.2-.1.2-.2.1-.1.1-.2c.2-.4.4-.8.6-1.3h41a5.69,5.69,0,0,0,1.9,2.9c.2.2.4.3.5.4s.1.2.2.2a.37.37,0,0,0,.3.1c.1,0,.1,0,.2.1s.3.1.5.2.5.1.7.2.5.1.7.1.2.1.3.1.2-.1.3-.1a1.7,1.7,0,0,0,.7-.1c.2,0,.4-.1.6-.1L763.7-5.5l-.4.4a2.09,2.09,0,0,0-.4.6c-.1.1-.2.1-.2.2a.37.37,0,0,0-.1.3,4.88,4.88,0,0,0-.3.7c-.1.2-.1.5-.2.7s-.1.5-.1.7-.1.2-.1.3S762.2-1.4,762.2-1.3ZM821-7.1a8,8,0,0,0-1.5-.3,5.44,5.44,0,0,0-4.8,2.9l-.1.1h0l-.3.9h0c-.1.2-.1.4-.2.5H773.4A5.47,5.47,0,0,0,768-7.5a7.79,7.79,0,0,0-2.1.4L745.4-42.7l.4-.4a2.09,2.09,0,0,0,.4-.6c.1-.1.2-.1.2-.2s.1-.2.1-.3a4.88,4.88,0,0,0,.3-.7c.1-.2.1-.5.2-.7s.1-.5.1-.7.1-.2.1-.3v-.3a5.52,5.52,0,0,0-1.6-3.9L765.8-86a8,8,0,0,0,1.5.3,5.38,5.38,0,0,0,4.5-2.5c0-.1.1-.1.1-.2s.2-.1.2-.2.1-.1.1-.2l.3-.6a.1.1,0,0,1,.1-.1c.1-.2.1-.4.2-.5h41.1a5.57,5.57,0,0,0,5.4,4.5,5.84,5.84,0,0,0,1.8-.4l20.4,35.4a6.34,6.34,0,0,0-1.4,2.7c0,.1-.1.3-.1.4a.6.6,0,0,1-.1.4c0,.1-.1.2-.1.3h0c0,.1-.1.2-.1.3s.1.2.1.3a1.7,1.7,0,0,0,.1.7,1.45,1.45,0,0,0,.2.7,4.88,4.88,0,0,1,.3.7.37.37,0,0,0,.1.3l.2.2c.1.2.3.4.4.6s.2.3.4.4Z"/><path class="cls-2" d="M638-83.1a4,4,0,0,0-4-4,4,4,0,0,0-3.9,3.4H600.8a4,4,0,0,0-3.9-3.4,3.19,3.19,0,0,0-1.4.3l-14.6-25.3a3.77,3.77,0,0,0,1.3-2.9,4.14,4.14,0,0,0-.5-1.9v-.1c0-.1-.1-.1-.2-.2a3.86,3.86,0,0,0-3.3-1.8,3.86,3.86,0,0,0-3.8,3.1H544.9c0-.1-.1-.3-.1-.4s-.1-.1-.1-.2a.1.1,0,0,0-.1-.1c0-.1,0-.1-.1-.2s0-.2-.1-.2-.1-.1-.2-.2-.2-.3-.3-.4l-.1-.1c-.1-.1-.1-.2-.2-.2h0c-.1-.1-.3-.2-.4-.3s-.1-.1-.2-.2-.2,0-.2-.1h0a4.07,4.07,0,0,0-1.8-.5,3,3,0,0,0-1,.2l-15-25.6a3.6,3.6,0,0,0,1.1-2c0-.2.1-.3.1-.5s.1-.2.1-.4-.1-.2-.1-.4-.1-.5-.1-.7-.1-.5-.3-.7v-.1c0-.1-.1-.1-.2-.2a2.84,2.84,0,0,0-.9-1h0a4.22,4.22,0,0,0-2.5-.9,4,4,0,0,0-4,4,4,4,0,0,0,4,4,2.77,2.77,0,0,0,1.3-.3l14.7,25.5a3.75,3.75,0,0,0-1.4,3,4.07,4.07,0,0,0,1.4,3L523.6-86.9a3.19,3.19,0,0,0-1.4-.3,4,4,0,0,0-3.9,3.4H489a4,4,0,0,0-3.9-3.4,2.77,2.77,0,0,0-1.3.3l-14.6-25.4a4.17,4.17,0,0,0,.9-1.6,5,5,0,0,0,.2-1.2h0a4.77,4.77,0,0,0-.4-2,5,5,0,0,0-.7-.8l-.1-.1-.9-.6-.6-.3c-.2,0-.3-.1-.5-.1a2.92,2.92,0,0,0-.9-.2,4,4,0,0,0-4,4,4,4,0,0,0,4,4,3.53,3.53,0,0,0,1.4-.3l14.6,25.4a4.07,4.07,0,0,0-1.2,2.9,3.74,3.74,0,0,0,.5,1.8.1.1,0,0,0,.1.1c0,.1,0,.2.1.2s.1.1.2.2.2.3.3.4l.3.3L467.8-54.7a5,5,0,0,0-1.2-.2,4,4,0,0,0-3.9,3.3H433.4a4.06,4.06,0,0,0-3.9-3.3,3.19,3.19,0,0,0-1.4.3L413.3-80a3.58,3.58,0,0,0,1.1-2.2v-.2c0-.2.1-.3.1-.5s-.1-.3-.1-.5a.37.37,0,0,0-.1-.3,4,4,0,0,0-3.9-3.2,4,4,0,0,0-4,4,4,4,0,0,0,4,4,5,5,0,0,0,1.2-.2l14.8,25.6c-.1.1-.1.2-.2.3l-.1.1c-.1.1-.2.3-.3.4s-.1.1-.2.2,0,.2-.1.2h0c-.1.1-.1.3-.2.4a.9.9,0,0,0-.1.5c0,.2-.1.3-.1.5v.4a.9.9,0,0,0,.1.5c0,.2.1.3.1.5s.1.3.2.5,0,.2.1.2.1.1.2.2.2.3.3.4l.3.3L411.6-22.3a5,5,0,0,0-1.2-.2,4.06,4.06,0,0,0-3.9,3.2H376.9c0-.1-.1-.3-.1-.4s-.1-.3-.2-.5,0-.2-.1-.2-.1-.1-.2-.2-.2-.3-.3-.4-.2-.3-.4-.4-.3-.2-.4-.3-.1-.1-.2-.2-.2,0-.2-.1c-.2-.1-.3-.1-.5-.2a.9.9,0,0,0-.5-.1h-.2a4.3,4.3,0,0,0-1.2-.2c-.2,0-.4.1-.6.1L357.1-47.9l.3-.3c.1-.1.2-.3.3-.4s.1-.1.2-.2,0-.2.1-.2c.1-.2.1-.3.2-.5a.9.9,0,0,0,.1-.5c0-.2.1-.3.1-.5v-.4a.9.9,0,0,0-.1-.5c0-.2-.1-.3-.1-.5s-.1-.3-.2-.5,0-.2-.1-.2-.1-.1-.2-.2-.2-.3-.3-.4l-.3-.3,14.8-25.7a5,5,0,0,0,1.2.2,4,4,0,0,0,4-4,4,4,0,0,0-4-4,4,4,0,0,0-3.9,3.3v.1c0,.2-.1.4-.1.6a3.77,3.77,0,0,0,1.3,2.9L356-54.3h-.1a4.71,4.71,0,0,0-1.7-.4,4,4,0,0,0-3.9,3.3h-29c0-.1-.1-.3-.1-.4s-.1-.3-.2-.5,0-.2-.1-.2-.1-.1-.2-.2-.2-.3-.3-.4-.2-.3-.4-.4-.3-.2-.4-.3-.1-.1-.2-.2-.2,0-.2-.1-.2-.1-.3-.1a4.24,4.24,0,0,0-1.9-.6,2.35,2.35,0,0,0-.8.2L301.6-79.9a3.75,3.75,0,0,0,1.4-3,4,4,0,0,0-4-4,4,4,0,0,0-3.2,1.7.1.1,0,0,1-.1.1,3.7,3.7,0,0,0-.5,1.1,1.27,1.27,0,0,0-.1.6c0,.2-.1.4-.1.6a.37.37,0,0,0,.1.3,2.35,2.35,0,0,0,.2.8c.1.2.1.5.2.7s0,.2.1.2c.1.2.3.3.4.5s.2.3.4.4a2.19,2.19,0,0,0,.5.3,3.78,3.78,0,0,0,2.3.8,4.25,4.25,0,0,0,1.1-.2l14.6,25.2a3.7,3.7,0,0,0-1.6,3.1,4,4,0,0,0,1.7,3.2L300.3-22.1c-.1,0-.3-.1-.4-.1h-.3a4.25,4.25,0,0,0-1.1-.2,4.06,4.06,0,0,0-3.9,3.2H265.7c0-.1-.1-.3-.1-.4s-.1-.3-.2-.5,0-.2-.1-.2-.1-.1-.2-.2-.2-.3-.3-.4-.2-.3-.4-.4-.3-.2-.4-.3-.1-.1-.2-.2-.2,0-.2-.1c-.2-.1-.3-.1-.5-.2s-.2,0-.2-.1-.2,0-.2-.1h0a5,5,0,0,0-1.3-.3c-.2,0-.5.1-.7.1L246-48l.3-.3c.1-.1.2-.3.3-.4s.1-.1.2-.2,0-.2.1-.2c.1-.2.1-.3.2-.5a.9.9,0,0,0,.1-.5c0-.2.1-.3.1-.5V-51a.9.9,0,0,0-.1-.5c0-.2-.1-.3-.1-.5s-.1-.3-.2-.5,0-.2-.1-.2-.1-.1-.2-.2-.2-.3-.3-.4l-.3-.3,14.8-25.7a3.19,3.19,0,0,0,1.4.3,4,4,0,0,0,4-4,4,4,0,0,0-4-4,3.78,3.78,0,0,0-2.3.8,1.38,1.38,0,0,0-.4.3c-.1.1-.2.2-.2.3a4.62,4.62,0,0,0-.7.7,3.81,3.81,0,0,0,.8,4.7L244.6-54.5a4.71,4.71,0,0,0-1.7-.4,4,4,0,0,0-3.9,3.3H210c0-.1-.1-.3-.1-.4s-.1-.3-.2-.5,0-.2-.1-.2-.1-.1-.2-.2-.2-.3-.3-.4-.2-.3-.4-.4-.3-.2-.4-.3-.1-.1-.2-.2-.2,0-.2-.1h-.1a3.61,3.61,0,0,0-2-.6,2.92,2.92,0,0,0-.9.2L190.2-80.2a3.81,3.81,0,0,0,.8-4.7,3.25,3.25,0,0,0-1.3-1.3,4.17,4.17,0,0,0-2.4-.9,4,4,0,0,0-4,4,4,4,0,0,0,4,4h.2a3,3,0,0,0,1.3-.2l14.6,25.4a4,4,0,0,0-1.6,3.1,4.13,4.13,0,0,0,1.7,3.2L188.8-22.1c-.1,0-.3-.1-.4-.1h-.2a5,5,0,0,0-1.2-.2,4.06,4.06,0,0,0-3.9,3.2h-29c0-.1-.1-.2-.1-.3a4,4,0,0,0-3.8-2.9,4,4,0,0,0-4,4,4.07,4.07,0,0,0,1.4,3L133,9.8a3.19,3.19,0,0,0-1.4-.3,4,4,0,0,0-3.9,3.5H98.4a4.07,4.07,0,0,0-3.9-3.5,3.19,3.19,0,0,0-1.4.3L78.5-15.6l.1-.1c0-.1.1-.1.1-.2a2.09,2.09,0,0,0,.4-.6c0-.1.1-.1.1-.2s.1-.2.2-.3a.1.1,0,0,1,.1-.1c.1-.3.1-.5.2-.8s.1-.3.1-.5v-.2a2.35,2.35,0,0,0-.2-.8c0-.1-.1-.1-.1-.2s-.1-.4-.2-.5,0-.1-.1-.2l-.3-.3a4.07,4.07,0,0,0-3.2-1.8,4.06,4.06,0,0,0-3.9,3.2H42.5a3.89,3.89,0,0,0-3.9-3.3,5,5,0,0,0-1.2.2L22.6-47.8l.1-.1a1.79,1.79,0,0,0,.5-.7c.1-.1.1-.2.2-.3a4.24,4.24,0,0,0,.6-1.9,4,4,0,0,0-4-4,4,4,0,0,0-4,4,3.08,3.08,0,0,0,.6,1.9c0,.1,0,.2.1.2.1.2.3.3.4.5l.2.2a3.77,3.77,0,0,0,3.9,1L35.9-21.5a3.93,3.93,0,0,0-1.3,2.9,3.77,3.77,0,0,0,.7,2.1h0a5.5,5.5,0,0,0,.7.9h0L21.4,9.6A5.9,5.9,0,0,0,20,9.4,3.92,3.92,0,0,0,16.1,13H-13.4a4,4,0,0,0-3.9-3.2,5,5,0,0,0-1.2.2L-33.3-15.6a5.5,5.5,0,0,0,.7-.9l.1-.1a3,3,0,0,0,.4-1,.37.37,0,0,1,.1-.3c0-.2.1-.4.1-.6a4,4,0,0,0-4-4,4,4,0,0,0-4,4,3.7,3.7,0,0,0,1.6,3.1h0a4.17,4.17,0,0,0,2.4.9,1.88,1.88,0,0,0,.8-.2h.4L-20,10.8a3.93,3.93,0,0,0-1.3,2.9,4.07,4.07,0,0,0,1.4,3L-34.6,42.2a5,5,0,0,0-1.3-.3,4.06,4.06,0,0,0-3.9,3.2H-69.2a4,4,0,0,0-3.9-3.2,4,4,0,0,0-4,4,3.77,3.77,0,0,0,1.3,2.9L-90.6,74.4a5,5,0,0,0-1.3-.3,3.86,3.86,0,0,0-3.8,3.1h-29.5a3.86,3.86,0,0,0-3.8-3.1,4,4,0,0,0-4,4,4,4,0,0,0,4,4,4.06,4.06,0,0,0,3.9-3.2h29.4a4,4,0,0,0,3.9,3.2,2.77,2.77,0,0,0,1.3-.3l14.6,25.4a4,4,0,0,0-1.2,2.8c0,.2.1.4.1.6v.3c0,.1.1.2.1.3s.1.2.1.4.1.2.1.3,0,.2.1.2.1.1.2.2.2.3.3.4l.3.3-14.7,25.4a4,4,0,0,0-1.5-.3,4,4,0,0,0-3.9,3.4H-125a4,4,0,0,0-3.9-3.4,4,4,0,0,0-4,4,3.77,3.77,0,0,0,1.3,2.9,4,4,0,0,0,2.8,1.2,3.76,3.76,0,0,0,3.4-2.2c.1-.3.2-.5.3-.8h29.5a3.7,3.7,0,0,0,2,2.4l.1.1h.1c.1,0,.2.1.3.1s.2.1.3.1a.9.9,0,0,0,.5.1c.2,0,.3.1.5.1h.4a.9.9,0,0,0,.5-.1.6.6,0,0,0,.4-.1l14.8,25.7-.3.3h0c-.1.1-.2.3-.3.4s-.1.1-.2.2,0,.2-.1.2h0c-.1.1-.1.3-.2.4v.1a.9.9,0,0,0-.1.5c0,.2-.1.3-.1.5v.4a.9.9,0,0,0,.1.5c0,.2.1.3.1.5h0c.1.2.1.4.2.6v.1c0,.1.1.1.2.2l.1.1c.2.2.3.5.5.7l-14.7,25.5a5.27,5.27,0,0,0-1.2-.3,4,4,0,0,0-4,4,4,4,0,0,0,4,4,4.25,4.25,0,0,0,1.1-.2h0a3.1,3.1,0,0,0,1.3-.6.1.1,0,0,0,.1-.1,5.24,5.24,0,0,0,1-1.1h0a5.64,5.64,0,0,0,.4-1.2v-.1c0-.2.1-.5.1-.7a3.77,3.77,0,0,0-1.3-2.9l14.7-25.5a5,5,0,0,0,1.3.3,3.87,3.87,0,0,0,3.8-3.2h29.4a4.21,4.21,0,0,0,1.8,2.5h.1a4.24,4.24,0,0,0,1.9.6,3.59,3.59,0,0,0,1.1-.2l14.7,25.4a4.07,4.07,0,0,0-1.4,3,4.07,4.07,0,0,0,1.4,3L-35,235a5,5,0,0,0-1.2-.2,4,4,0,0,0-4,4,4,4,0,0,0,4,4,4,4,0,0,0,4-4,4.16,4.16,0,0,0-1.3-3l14.8-25.6a3.55,3.55,0,0,0,1,.2c.1,0,.3-.1.4-.1a.6.6,0,0,0,.4-.1c.2,0,.3-.1.4-.1s.3-.1.5-.2h.1c.1,0,.2,0,.2-.1s.1-.1.2-.2.3-.2.4-.3a.1.1,0,0,1,.1-.1l.2-.2.1-.1c.1-.1.2-.3.3-.4s.1-.1.2-.2,0-.2.1-.2V208c0-.1.1-.2.1-.3h0c0-.1.1-.3.1-.4H16a3.86,3.86,0,0,0,3.8,3.1,2.77,2.77,0,0,0,1.3-.3l14.7,25.5a3.93,3.93,0,0,0-1.3,2.9,3.08,3.08,0,0,0,.6,1.9v.1c0,.1.1.1.1.2.2.3.4.5.6.8L21,267.1a5,5,0,0,0-1.2-.2,4,4,0,1,0,3.9,4.6h0c0-.2.1-.4.1-.6a3.77,3.77,0,0,0-1.3-2.9l14.8-25.7c.1,0,.3.1.4.1h.1c.2,0,.5.1.7.1a3.86,3.86,0,0,0,3.8-3.1H71.9v.1a6.89,6.89,0,0,0,.3.8c0,.1,0,.1.1.2s.1.1.2.2.2.2.2.3.3.3.4.4h0c.1.1.3.2.4.3s.1.1.2.2.2,0,.2.1H74c.1.1.2.1.4.1h.1a.9.9,0,0,0,.5.1c.2,0,.3.1.5.1h.2c.1,0,.2-.1.3-.1a49323420047720.29,49323420047720.29,0,0,0,.8-.2l14.9,25.7h0c-.2.2-.3.4-.5.6s-.2.3-.3.5a6.89,6.89,0,0,0-.3.8c0,.2-.1.3-.1.5s-.1.3-.1.5.1.3.1.5v.2a4,4,0,0,0,7.9-.6,3.7,3.7,0,0,0-1.6-3.1h0a2.38,2.38,0,0,0-1.1-.6h-.1a5,5,0,0,0-1.3-.3c-.2,0-.4.1-.6.1a1.27,1.27,0,0,0-.6.1L78.3,241.2a4.07,4.07,0,0,0,1.4-3,3.77,3.77,0,0,0-1.3-2.9L93.2,211a3.59,3.59,0,0,0,1.1.2,4.27,4.27,0,0,0,2-.6h.1l.1-.1a6.47,6.47,0,0,0,.9-.8,1.38,1.38,0,0,0,.3-.4c0-.1.1-.1.2-.2s0-.1.1-.2.1-.3.2-.4v-.1c0-.1.1-.3.1-.4H128a4.87,4.87,0,0,0,.4,1.1c.1.1.1.2.2.3s.3.5.6.6.5.3.7.5a.76.76,0,0,0,.4.2,5,5,0,0,0,1.3.3h.2a4,4,0,0,0,0-8,4.06,4.06,0,0,0-3.9,3.2H98.2c0-.1-.1-.3-.1-.4v-.1c0-.1-.1-.2-.1-.3h0c0-.1,0-.2-.1-.2s-.1-.1-.2-.2-.2-.3-.3-.4h0a2.7,2.7,0,0,0-.8-.7h0c-.1,0-.1-.1-.2-.2h-.1a3.44,3.44,0,0,0-3.1-.4L78.4,177.7a4.07,4.07,0,0,0,1.4-3,3.77,3.77,0,0,0-1.3-2.9l14.7-25.5c.1,0,.3.1.4.1s.3.1.5.1h.4a.9.9,0,0,0,.5-.1c.2,0,.3-.1.5-.1s.2-.1.3-.1a.1.1,0,0,0,.1-.1H96c.1,0,.2,0,.2-.1s.1-.1.2-.2.3-.2.4-.3l.1-.1a2.7,2.7,0,0,0,.7-.8l.1-.1v-.1a4.18,4.18,0,0,0,.4-1h29.6c0,.1.1.3.1.4v.1a.1.1,0,0,0,.1.1c.1.2.1.3.2.5a2.09,2.09,0,0,0,.4.6,2.65,2.65,0,0,0,.6.5,1.38,1.38,0,0,0,.4.3c.1,0,.2,0,.2.1a1.85,1.85,0,0,0,.7.2c.3.1.5.1.8.2h.2c.2,0,.3-.1.5-.1a2.35,2.35,0,0,0,.8-.2c.1,0,.1-.1.2-.1a3.91,3.91,0,0,0,2.7-3.8,3.77,3.77,0,0,0-1.3-2.9L149,113.9c.1,0,.3.1.4.1s.3.1.5.1h.4a.9.9,0,0,0,.5-.1h.1a4,4,0,0,0,3.6-2.9h28.9c0,.1.1.3.1.4s.1.3.2.5,0,.2.1.2.1.1.2.2.2.3.3.4.2.3.4.4.3.2.4.3.1.1.2.2.2,0,.2.1c.2.1.3.1.5.2a.9.9,0,0,0,.5.1c.2,0,.3.1.5.1h.4a.9.9,0,0,0,.5-.1.6.6,0,0,0,.4-.1l14.8,25.6a4,4,0,1,0,2.7-1,5,5,0,0,0-1.2.2l-14.7-25.4a3.86,3.86,0,0,0,1.8-3.3,4,4,0,0,0-1.6-3.1l14.8-25h.1a4.15,4.15,0,0,0,1.6.3,4.06,4.06,0,0,0,3.9-3.2h28.9a3.92,3.92,0,0,0,2.6,2.7.1.1,0,0,1,.1.1.9.9,0,0,0,.5.1c.2,0,.3.1.5.1h.4a.9.9,0,0,0,.5-.1.6.6,0,0,0,.4-.1L259,107.2a3.93,3.93,0,0,0-1.1,2.8,1.45,1.45,0,0,0,.2.7,2.79,2.79,0,0,0,.5,1.7,3.83,3.83,0,0,0,5.3,1.4,4.32,4.32,0,0,0,1.7-2.1c0-.1.1-.1.1-.2v-.1a3.19,3.19,0,0,0,.3-1.4,4,4,0,0,0-5.5-3.7L245.9,81.1l.3-.3c.1-.1.2-.3.3-.4s.1-.1.2-.2,0-.2.1-.2c.1-.2.1-.3.2-.5a.9.9,0,0,0,.1-.5c0-.2.1-.3.1-.5v-.4a.9.9,0,0,0-.1-.5c0-.2-.1-.3-.1-.5a.1.1,0,0,0-.1-.1,5.07,5.07,0,0,0-.9-1.6l14.8-25.6c.1,0,.3.1.4.1s.3.1.5.1h.4a.9.9,0,0,0,.5-.1c.2,0,.3-.1.5-.1s.3-.1.5-.2.2,0,.2-.1.1-.1.2-.2.3-.2.4-.3l.3-.3.2-.2c.1-.1.2-.2.2-.3s.1-.1.2-.2,0-.1.1-.2a3.55,3.55,0,0,0,.4-.9h29.5a3.14,3.14,0,0,0,1.3,1.9l.1.1c.1.1.3.2.4.3s.1.1.2.2.2,0,.2.1c.2.1.3.1.5.2a.9.9,0,0,0,.5.1c.2,0,.3.1.5.1h.4a.9.9,0,0,0,.5-.1.6.6,0,0,0,.4-.1L315,75.1a4,4,0,0,0-1.3,3,4,4,0,0,0,1.5,3.1l-14.5,25.2a4,4,0,0,0-5.5,3.7,3.77,3.77,0,0,0,.7,2.1,4.28,4.28,0,0,0,1.5,1.8,3.87,3.87,0,0,0,5.3-1.4,2.82,2.82,0,0,0,.4-2c0-.1.1-.3.1-.4a3.69,3.69,0,0,0-1.1-2.7L316.5,82c.1,0,.3.1.4.1s.3.1.5.1h.4a.9.9,0,0,0,.5-.1c.2,0,.3-.1.5-.1s.3-.1.5-.2.2,0,.2-.1.1-.1.2-.2.3-.2.4-.3.3-.2.4-.4.2-.3.3-.4.1-.1.2-.2,0-.2.1-.2c.1-.2.1-.3.2-.5s.1-.3.1-.4h29.3a4,4,0,0,0,5.4,2.9l14.6,25.3a3.93,3.93,0,0,0-1.3,2.9,3.77,3.77,0,0,0,.7,2.1v.1l.1.1a2.34,2.34,0,0,0,.7.7,2.07,2.07,0,0,0,1,.6h.1a3.83,3.83,0,0,0,3.6-.1,4.11,4.11,0,0,0,1.6-1.9c0-.1.1-.1.1-.2.1-.3.1-.5.2-.8s.1-.5.1-.7a4,4,0,0,0-4-4,2.66,2.66,0,0,0-1.2.3L357.7,81l.3-.3c.1-.1.2-.3.3-.4s.1-.1.2-.2,0-.2.1-.2c.1-.2.1-.3.2-.5a.9.9,0,0,0,.1-.5c0-.2.1-.3.1-.5V78a.9.9,0,0,0-.1-.5c0-.2-.1-.3-.1-.5s-.1-.3-.2-.5,0-.2-.1-.2-.1-.1-.2-.2-.2-.3-.3-.4l-.3-.3,14.8-25.6a4.25,4.25,0,0,0,1.1.2,3.61,3.61,0,0,0,2-.6h.1l.1-.1a3.45,3.45,0,0,0,1.2-1.2c0-.1.1-.1.1-.2v-.1a1.61,1.61,0,0,0,.3-.9v-.1h29.4a3.86,3.86,0,0,0,3.8,3.1,3.53,3.53,0,0,0,1.4-.3l14.7,25.5a3.89,3.89,0,0,0-1.5,3.1,4.2,4.2,0,0,0,1.5,3.1L412,106.5a4,4,0,0,0-3.3,7.2l.1.1h.1c.1.1.2.1.4.1a3.77,3.77,0,0,0,4.9-1.6,3.6,3.6,0,0,0,.2-3.2,3.84,3.84,0,0,0-.9-1.8l14.7-25.4a3,3,0,0,0,1,.2,4.66,4.66,0,0,0,2-.6c.1,0,.1,0,.2-.1s.1-.1.2-.2.3-.2.4-.3l.1-.1.3-.3c.1-.1.2-.3.3-.4s.1-.1.2-.2,0-.2.1-.2c.1-.2.1-.3.2-.5s.1-.3.1-.4h29.3a4,4,0,0,0,3.9,3.2,4.07,4.07,0,0,0,3-1.4l.3-.3a1.38,1.38,0,0,0,.3-.4c0-.1,0-.2.1-.2a1.85,1.85,0,0,0,.2-.7c.1-.3.1-.5.2-.8V78c0-.2-.1-.3-.1-.5a2.35,2.35,0,0,0-.2-.8,4.88,4.88,0,0,1-.3-.7,2.09,2.09,0,0,0-.4-.6l-.3-.3,14.8-25.6a4.3,4.3,0,0,0,1.2.2,3.86,3.86,0,0,0,3.8-3.1h29.4a3.86,3.86,0,0,0,3.8,3.1,3.29,3.29,0,0,0,1.7-.4,4,4,0,0,0,2.4-3.6,2.93,2.93,0,0,0-.4-1.6,4,4,0,0,0-7.6.7H489a4,4,0,0,0-3.9-3.2,5,5,0,0,0-1.2.2L469.1,16.2c.1-.1.2-.2.2-.3l.1-.1c.1-.1.2-.2.2-.3s.1-.1.2-.2,0-.1.1-.2a3.7,3.7,0,0,0,.6-2.1,3.93,3.93,0,0,0-1.3-2.9l14.6-25.3a5,5,0,0,0,1.2.2,3.86,3.86,0,0,0,3.8-3.1h29.6v.1l.3.9v.1a.1.1,0,0,0,.1.1,3.45,3.45,0,0,0,1.2,1.2l.1.1h0a4.27,4.27,0,0,0,2,.6,4.25,4.25,0,0,0,1.1-.2l14.7,25.5a4.07,4.07,0,0,0-1.4,3,4,4,0,0,0,4,4,4.27,4.27,0,0,0,2-.6h0a4.5,4.5,0,0,0,1-.9c.1-.1.1-.2.2-.3a3.13,3.13,0,0,0,.5-1,.9.9,0,0,0,.1-.5c0-.2.1-.4.1-.7,0-.1-.1-.2-.1-.3s-.1-.3-.1-.4a3.58,3.58,0,0,0-.4-1.1v-.1l-.1-.1a4.08,4.08,0,0,0-3.4-2,4.25,4.25,0,0,0-1.1.2L525-15.5a4.07,4.07,0,0,0,1.4-3,3.89,3.89,0,0,0-1.4-3L539.7-47c.1,0,.3.1.4.1s.3.1.5.1h.5a3.86,3.86,0,0,0,3.8-3.1h29.3c0,.1.1.3.1.4s.1.3.2.5,0,.2.1.2.1.1.2.2.2.3.3.4.2.3.4.4.3.2.4.3.1.1.2.2.2,0,.2.1.1.1.2.1.1.1.2.1h.1a.9.9,0,0,0,.5.1c.2,0,.3.1.5.1h.3a3,3,0,0,0,1-.2l14.8,25.6a4.19,4.19,0,0,0-1.1,2.2.37.37,0,0,1-.1.3c0,.1-.1.3-.1.4s.1.3.1.4a2.35,2.35,0,0,0,.2.8c.1.2.1.4.2.6s0,.1.1.2l.3.3a4.35,4.35,0,0,0,.6.7.52.52,0,0,0,.4.2,3.7,3.7,0,0,0,1.1.5h.1a3.59,3.59,0,0,0,1.1.2,4,4,0,0,0,4-4,4,4,0,0,0-4-4,2.77,2.77,0,0,0-1.3.3L580.8-47.8a3.84,3.84,0,0,0,1.5-3,4.25,4.25,0,0,0-1.4-3l14.7-25.4c.1,0,.3.1.4.1s.3.1.5.1h.4a.9.9,0,0,0,.5-.1c.2,0,.3-.1.5-.1s.2-.1.3-.1.1-.1.2-.1.1,0,.2-.1.1-.1.2-.2.1-.1.2-.1a4.14,4.14,0,0,0,1.7-2.2h29.5a3.7,3.7,0,0,0,.5,1.1l.1.1c.2.2.3.4.5.6a3.63,3.63,0,0,0,2.6,1.1,4,4,0,0,0,3.6-2.4A2.54,2.54,0,0,0,638-83.1ZM302.9-18.6a.9.9,0,0,0-.1-.5c0-.2-.1-.3-.1-.5s-.1-.3-.2-.5,0-.2-.1-.2-.1-.1-.2-.2-.2-.3-.3-.4l-.3-.3,14.8-25.6c.2,0,.5.1.7.1a.37.37,0,0,0,.3-.1h.4a.9.9,0,0,0,.5-.1c.2,0,.3-.1.5-.1s.3-.1.5-.2.2,0,.2-.1.1-.1.2-.2.3-.2.4-.3.3-.2.4-.4.2-.3.3-.4.1-.1.2-.2,0-.2.1-.2c.1-.2.1-.3.2-.5s.1-.3.1-.4h29a4,4,0,0,0,3.8,3.1c.1,0,.2-.1.3-.1h.4a.9.9,0,0,0,.5-.1.6.6,0,0,0,.4-.1l14.6,25.2a4.07,4.07,0,0,0-1.8,3.2,4,4,0,0,0,1.8,3.3L356.1,10a4.07,4.07,0,0,0-1.8-.5,4,4,0,0,0-3.9,3.5H321.5c0-.1-.1-.3-.1-.4s-.1-.3-.2-.5,0-.2-.1-.2-.1-.1-.2-.2-.2-.3-.3-.4-.2-.3-.4-.4a4.07,4.07,0,0,0-3-1.4,2.92,2.92,0,0,0-.9.2L301.7-15.6l.3-.3c.1-.1.2-.3.3-.4s.1-.1.2-.2,0-.2.1-.2c.1-.2.1-.3.2-.5a.9.9,0,0,0,.1-.5c0-.2.1-.3.1-.5v-.2A.35.35,0,0,0,302.9-18.6Zm-111.6,0a.9.9,0,0,0-.1-.5c0-.2-.1-.3-.1-.5s-.1-.3-.2-.5,0-.2-.1-.2-.1-.1-.2-.2-.2-.3-.3-.4l-.3-.3,14.8-25.6a2.35,2.35,0,0,0,.8.2h.6a.9.9,0,0,0,.5-.1c.2,0,.3-.1.5-.1s.3-.1.5-.2.2,0,.2-.1.1-.1.2-.2.3-.2.4-.3.3-.2.4-.4.2-.3.3-.4.1-.1.2-.2,0-.2.1-.2c.1-.2.1-.3.2-.5s.1-.3.1-.4h29.1a4,4,0,0,0,3.8,3.1c.1,0,.2-.1.3-.1h.4a.9.9,0,0,0,.5-.1.6.6,0,0,0,.4-.1L259-21.7a4,4,0,0,0-1.7,3.2,3.69,3.69,0,0,0,1.8,3.2L244.5,10a3.45,3.45,0,0,0-1.8-.5,4,4,0,0,0-3.9,3.5h-29c0-.1-.1-.3-.1-.4s-.1-.3-.2-.5,0-.2-.1-.2-.1-.1-.2-.2-.2-.3-.3-.4l-.2-.2a4,4,0,0,0-3.1-1.6,3.55,3.55,0,0,0-1,.2L190-15.6l.3-.3c.1-.1.2-.3.3-.4s.1-.1.2-.2,0-.2.1-.2c.1-.2.1-.3.2-.5a.9.9,0,0,0,.1-.5c0-.2.1-.3.1-.5v-.2A.14.14,0,0,0,191.3-18.6ZM135.5,13.8v-.2a3.93,3.93,0,0,0-1.1-2.8L149-14.6a3.59,3.59,0,0,0,1.1.2,4,4,0,0,0,3.2-1.7l.3-.3c0-.1,0-.1.1-.2a1.85,1.85,0,0,0,.2-.7h0v-.1h29a3.86,3.86,0,0,0,3.8,3.1c.2,0,.3-.1.5-.1h.3a.9.9,0,0,0,.5-.1.6.6,0,0,0,.4-.1l14.5,25.2a3.89,3.89,0,0,0-1.5,3.1,3.84,3.84,0,0,0,1.7,3.2L188.4,42.3c-.2,0-.5-.1-.7-.1a2.93,2.93,0,0,0-1.6.4h-.2c-.2.1-.3.1-.5.2s-.2,0-.2.1-.1.1-.2.2-.3.2-.4.3-.3.2-.4.4-.2.3-.3.4-.1.1-.2.2,0,.1-.1.2-.1.3-.2.5-.1.3-.1.4H154.4a4,4,0,0,0-3.9-3.2,3.59,3.59,0,0,0-1.1.2h-.3a.6.6,0,0,0-.4.1L133.9,16.9l.3-.3c.1-.1.2-.3.3-.4s.1-.1.2-.2,0-.1.1-.2.1-.3.2-.5a.9.9,0,0,0,.1-.5c0-.2.1-.3.1-.5.3-.3.3-.4.3-.5ZM93.3,17.5c.1,0,.3.1.4.1s.3.1.5.1h.4a.9.9,0,0,0,.5-.1c.2,0,.3-.1.5-.1s.3-.1.5-.2.2,0,.2-.1.1-.1.2-.2.3-.2.4-.3l.3-.3a.1.1,0,0,1,.1-.1,1.38,1.38,0,0,0,.3-.4c0-.1.1-.1.2-.2s0-.1.1-.2a3.55,3.55,0,0,0,.4-.9h29.5a3.55,3.55,0,0,0,.4.9c0,.1,0,.1.1.2s.1.1.2.2.1.1.1.2.1.2.2.3l.3.3c.1.1.3.2.4.3s.1.1.2.2.2,0,.2.1c.2.1.3.1.5.2a.9.9,0,0,0,.5.1c.2,0,.3.1.5.1h.4a.9.9,0,0,0,.5-.1.6.6,0,0,0,.4-.1l14.8,25.7-.3.3c-.1.1-.2.3-.3.4s-.1.1-.2.2,0,.1-.1.2-.1.3-.2.5a.9.9,0,0,0-.1.5c0,.2-.1.3-.1.5v.4a.9.9,0,0,0,.1.5c0,.2.1.3.1.5s.1.3.2.5,0,.2.1.2.1.1.2.2.2.3.3.4l.3.3L132.8,74.3c-.2,0-.5-.1-.7-.1s-.3.1-.4.1h-.2a.9.9,0,0,0-.5.1c-.2,0-.3.1-.5.1s-.3.1-.5.2-.2,0-.2.1-.1.1-.2.2-.3.2-.4.3-.3.2-.4.4-.2.3-.3.4-.1.1-.2.2,0,.2-.1.2c-.1.2-.1.3-.2.5s-.1.3-.1.4H98.2c0-.1-.1-.3-.1-.4s0-.1-.1-.2-.1-.1-.1-.2v-.1c0-.1,0-.2-.1-.2s-.1-.1-.2-.2-.2-.3-.3-.4l-.1-.1-.4-.4c-.1-.1-.2-.2-.3-.2s-.1-.1-.2-.2-.1,0-.2-.1a4.14,4.14,0,0,0-1.9-.5,3,3,0,0,0-1,.2L78.5,48.9l.3-.3a1.38,1.38,0,0,0,.3-.4c0-.1.1-.1.2-.2s0-.1.1-.2.1-.3.2-.5h0a.9.9,0,0,0,.1-.5c0-.2.1-.3.1-.5v-.2h0c0-.1-.1-.2-.1-.4v-.3c0-.1-.1-.2-.1-.3a6.89,6.89,0,0,0-.3-.8v-.1l-.1-.1a2.41,2.41,0,0,0-.6-.8ZM91.7,81.3,77.1,106.5a3.19,3.19,0,0,0-1.4-.3,4,4,0,0,0-3.9,3.4H42.5a4,4,0,0,0-3.9-3.4,2.77,2.77,0,0,0-1.3.3L22.7,81.1c.1-.1.1-.2.2-.2l.1-.1c.1-.1.2-.3.3-.4s.1-.1.2-.2,0-.2.1-.2v-.2c0-.1.1-.2.1-.3a.9.9,0,0,0,.1-.5c0-.2.1-.3.1-.5v-.4a.9.9,0,0,0-.1-.5c0-.2-.1-.3-.1-.5s-.1-.3-.2-.5,0-.2-.1-.2-.1-.1-.2-.2-.2-.3-.3-.4l-.3-.3L37.4,49.9a5,5,0,0,0,1.2.2A3.86,3.86,0,0,0,42.4,47H71.8a3.86,3.86,0,0,0,3.8,3.1,3.08,3.08,0,0,0,1.3-.3L91.6,75.3a3.75,3.75,0,0,0-1.4,3A4.17,4.17,0,0,0,91.7,81.3ZM-31.9,110.4v-.2a3.63,3.63,0,0,0-1.2-2.8l14.6-25.3a4.25,4.25,0,0,0,1.1.2A4.27,4.27,0,0,0-14,80.4c0-.1.1-.1.1-.2v-.1a1.42,1.42,0,0,0,.2-.6c0-.1.1-.2.1-.4H16a4,4,0,0,0,3.9,3.2,3.53,3.53,0,0,0,1.4-.3l14.6,25.4a4.07,4.07,0,0,0-1.2,2.9,5.84,5.84,0,0,0,.4,1.8c0,.1.1.1.1.2s0,.2.1.2.1.1.2.2.2.3.3.4l.3.3L21.4,138.9a5,5,0,0,0-1.2-.2,4,4,0,0,0-3.9,3.3H-13.3a4,4,0,0,0-3.9-3.2,5,5,0,0,0-1.2.2l-14.7-25.5.3-.3c.1-.1.2-.3.3-.4s.1-.1.2-.2,0-.1.1-.2.1-.3.2-.5a.9.9,0,0,0,.1-.5c0-.2.1-.3.1-.5a1.09,1.09,0,0,1-.1-.5ZM22.9,10.6,37.5-14.7c.1,0,.3.1.4.1s.3.1.5.1h.4a.9.9,0,0,0,.5-.1c.2,0,.3-.1.5-.1s.3-.1.5-.2.2,0,.2-.1.1-.1.2-.2.3-.2.4-.3l.2-.2.1-.1.1-.1c.1-.1.2-.3.3-.4s.1-.1.2-.2,0-.2.1-.2v-.1a1.42,1.42,0,0,0,.2-.6v-.1H71.7a3.86,3.86,0,0,0,3.8,3.1,2.77,2.77,0,0,0,1.3-.3L91.5,10.7a4,4,0,0,0-1.2,2.8.37.37,0,0,0,.1.3h0V14a.9.9,0,0,0,.1.5c0,.2.1.3.1.5s.1.3.2.5,0,.2.1.2.1.1.2.2.2.3.3.4l.3.3L77,42.2a5,5,0,0,0-1.3-.3,4.06,4.06,0,0,0-3.9,3.2H42.5a4,4,0,0,0-3.9-3.2,5,5,0,0,0-1.2.2L22.7,16.7l.3-.3c.1-.1.2-.3.3-.4s.1-.1.2-.2,0-.2.1-.2c.1-.2.1-.3.2-.5V15h0c0-.1.1-.2.1-.4v-.3a2.35,2.35,0,0,0,.2-.8A4.53,4.53,0,0,0,22.9,10.6Zm-56,32.5,14.8-25.6a4.25,4.25,0,0,0,1.1.2,4.33,4.33,0,0,0,.5-.1h.3a.37.37,0,0,0,.3-.1,2.61,2.61,0,0,0,.8-.3c.1,0,.1,0,.2-.1s.1-.1.2-.2.2-.2.3-.2l.6-.6c.1-.1.1-.2.2-.2s.1-.1.2-.2,0-.1.1-.2a6.89,6.89,0,0,0,.3-.8v-.1H16.5c0,.1.1.2.1.3V15c.1.2.1.3.2.5s0,.2.1.2.1.1.2.2.2.3.3.4.2.3.4.4.3.2.4.3.1.1.2.2.2,0,.2.1c.2.1.3.1.5.2a.9.9,0,0,0,.5.1c.2,0,.3.1.5.1h.4a.9.9,0,0,0,.5-.1.6.6,0,0,0,.4-.1L36.2,43.1A3.93,3.93,0,0,0,34.9,46a3.77,3.77,0,0,0,1.3,2.9l-15,25.6a6.11,6.11,0,0,0-1.3-.3,3.86,3.86,0,0,0-3.8,3.1H-13.3c0-.1-.1-.3-.1-.4h0c-.1-.1-.1-.3-.2-.4h0c0-.1,0-.2-.1-.2s-.1-.1-.2-.2-.2-.3-.3-.4h0l-.6-.6-.1-.1c-.1,0-.1-.1-.2-.2h-.1a4.24,4.24,0,0,0-1.9-.6,4.25,4.25,0,0,0-1.1.2L-33,48.8c.2-.2.3-.4.5-.6l.1-.1c0-.1.1-.1.2-.2v-.1l.3-.9c0-.1,0-.1.1-.2v-.2c0-.2.1-.4.1-.6A5,5,0,0,0-33.1,43.1Zm-55.8,38a1.38,1.38,0,0,0,.3-.4c.1-.1.2-.3.3-.4s.1-.1.2-.2,0-.1.1-.2.1-.2.1-.3.1-.1.1-.2a.9.9,0,0,0,.1-.5c0-.2.1-.3.1-.5V78a.9.9,0,0,0-.1-.5c0-.2-.1-.3-.1-.5a.35.35,0,0,0-.1-.2v-.1c0-.1,0-.1-.1-.2s0-.2-.1-.2-.1-.1-.2-.2-.2-.3-.3-.4l-.2-.2-.1-.1h0l14.8-25.6a5,5,0,0,0,1.2.2,3.86,3.86,0,0,0,3.8-3.1h29.4A3.86,3.86,0,0,0-35.9,50a2.66,2.66,0,0,0,1.2-.3L-20,75.2a3.75,3.75,0,0,0-1.4,3,4.07,4.07,0,0,0,1.4,3l-14.6,25.2a3.19,3.19,0,0,0-1.4-.3,4,4,0,0,0-3.9,3.4H-69a4,4,0,0,0-3.9-3.4,3.53,3.53,0,0,0-1.4.3Zm53.1,89.7a4.06,4.06,0,0,0-3.9,3.2H-69a3.86,3.86,0,0,0-3.8-3.1,2.77,2.77,0,0,0-1.3.3L-89,145.5l.3-.3c.1-.1.2-.3.3-.4s.1-.1.2-.2,0-.2.1-.2c.1-.2.1-.3.2-.5a.9.9,0,0,0,.1-.5c0-.2.1-.3.1-.5v-.4a.9.9,0,0,0-.1-.5c0-.2-.1-.3-.1-.5s-.1-.2-.1-.3a.76.76,0,0,0-.2-.4h0a3.59,3.59,0,0,0-.7-1l14.8-25.6c.1,0,.3.1.4.1s.3.1.5.1h.4a.9.9,0,0,0,.5-.1c.2,0,.3-.1.5-.1s.3-.1.5-.2.2,0,.2-.1.1-.1.2-.2.3-.2.4-.3l.2-.2a2.65,2.65,0,0,0,.5-.6c0-.1.1-.1.1-.2v-.1a3,3,0,0,0,.4-1h29.5a5.36,5.36,0,0,0,.5,1.1h0a2.7,2.7,0,0,0,.7.8l.1.1c.1.1.3.2.4.3s.1.1.2.2.1,0,.2.1.3.1.5.2a.9.9,0,0,0,.5.1c.2,0,.3.1.5.1h.4a.9.9,0,0,0,.5-.1.6.6,0,0,0,.4-.1l14.7,25.5a3.93,3.93,0,0,0-1.3,2.9,3.89,3.89,0,0,0,1.4,3L-34.8,171A8.66,8.66,0,0,0-35.8,170.8Zm55.7,32.3a4,4,0,0,0-3.8,3.2H-13.3c0-.1,0-.1-.1-.2a4,4,0,0,0-3.8-3.1,3.59,3.59,0,0,0-1.1.2L-33,177.8a4.07,4.07,0,0,0,1.4-3,3.77,3.77,0,0,0-1.3-2.9l14.7-25.5a4.25,4.25,0,0,0,1.1.2,3.08,3.08,0,0,0,1.9-.6h0a3.61,3.61,0,0,0,1.8-2.5H16.2c0,.1.1.2.1.3a.76.76,0,0,0,.2.4.1.1,0,0,0,.1.1c0,.1,0,.2.1.2s.1.1.2.2.2.3.3.4l.1.1.1.1.2.2c.1.1.3.2.4.3s.1.1.2.2.2,0,.2.1.1.1.2.1h.1c.1,0,.1.1.2.1a.9.9,0,0,0,.5.1c.2,0,.3.1.5.1h.4a.9.9,0,0,0,.5-.1.6.6,0,0,0,.4-.1L35.9,172a3.93,3.93,0,0,0-1.3,2.9,3.29,3.29,0,0,0,.6,1.9v.1c0,.1.1.1.1.2a4.17,4.17,0,0,0,.6.8L21.1,203.5A1.75,1.75,0,0,0,19.9,203.1Zm71.8,1a3.75,3.75,0,0,0-1.4,3,4.07,4.07,0,0,0,1.4,3L77.1,235.4a5,5,0,0,0-1.2-.2,4,4,0,0,0-3.9,3.3H42.5a4,4,0,0,0-3.9-3.2,3.08,3.08,0,0,0-1.3.3L22.7,210l.1-.1.2-.2c.1-.1.2-.3.3-.4s.1-.1.2-.2,0-.2.1-.2,0-.1.1-.2h0c0-.1.1-.2.1-.3a.9.9,0,0,0,.1-.5c0-.2.1-.3.1-.5V207a.9.9,0,0,0-.1-.5c0-.2-.1-.3-.1-.5a.35.35,0,0,0-.1-.2c0-.1,0-.1-.1-.2v-.1c0-.1,0-.2-.1-.2s-.1-.1-.2-.2-.2-.3-.3-.4l-.1-.1c-.1-.1-.1-.2-.2-.3l14.8-25.6a5,5,0,0,0,1.2.2,3.86,3.86,0,0,0,3.8-3.1H72a4.18,4.18,0,0,0,.4,1v.1c0,.1.1.1.2.2v.1a5,5,0,0,0,.7.8l.3.3c.1,0,.1.1.2.2s.1,0,.2.1.3.1.5.2h0a.9.9,0,0,0,.5.1c.2,0,.3.1.5.1h.2c.1,0,.2-.1.3-.1a.76.76,0,0,0,.4-.1.6.6,0,0,0,.4-.1ZM77.1,171a5,5,0,0,0-1.2-.2,4,4,0,0,0-3.9,3.3H42.5a4,4,0,0,0-3.9-3.2,3.08,3.08,0,0,0-1.3.3L22.6,145.7a3.9,3.9,0,0,0,.1-5.9l14.7-25.4c.1,0,.3.1.4.1s.3.1.5.1h.4a.9.9,0,0,0,.5-.1c.2,0,.3-.1.5-.1s.3-.1.5-.2.2,0,.2-.1.1-.1.2-.2.3-.2.4-.3l.2-.2.3-.3.2-.2c0-.1.1-.1.2-.2s0-.1.1-.2a3.55,3.55,0,0,0,.4-.9H71.9a3.9,3.9,0,0,0,1.3,2l.1.1c.1.1.3.2.4.3s.1.1.2.2.2,0,.2.1c.2.1.3.1.5.2a.9.9,0,0,0,.5.1c.2,0,.3.1.5.1H76a.9.9,0,0,0,.5-.1.6.6,0,0,0,.4-.1L91.6,140a4.07,4.07,0,0,0-1.2,2.9,3.45,3.45,0,0,0,.5,1.8v.1c0,.1,0,.2.1.2s.1.1.2.2.2.3.3.4l.1.1h0c0,.1.1.1.2.2Zm69.3-60.3a.9.9,0,0,0,.1.5c0,.2.1.3.1.5s.1.3.2.5,0,.2.1.2.1.1.2.2.2.3.3.4l.3.3L133,138.7a5,5,0,0,0-1.2-.2,4.06,4.06,0,0,0-3.9,3.3H98.4a3.89,3.89,0,0,0-3.9-3.3,2.77,2.77,0,0,0-1.3.3L78.5,113.4l.3-.3c.1-.1.2-.3.3-.4s.1-.1.2-.2,0-.1.1-.2.1-.3.2-.5a.9.9,0,0,0,.1-.5c0-.2.1-.3.1-.5v-.4a3.63,3.63,0,0,0-1.2-2.8L93.2,82.3a3.59,3.59,0,0,0,1.1.2,3.77,3.77,0,0,0,2.1-.7h0a5.24,5.24,0,0,0,1.1-1l.2-.2c0-.1.1-.1.2-.2s0-.1.1-.2.1-.3.2-.4v-.1c0-.1.1-.3.1-.4H128c0,.1.1.3.1.4s.1.3.2.5,0,.2.1.2.1.1.2.2.2.3.3.4.2.3.4.4.3.2.4.3.1.1.2.2.2,0,.2.1c.2.1.3.1.5.2h.1a4.71,4.71,0,0,0,1.7.4,2.35,2.35,0,0,0,.8-.2l14.7,25.5-.3.3c-.1.1-.2.3-.3.4s-.1.1-.2.2,0,.1-.1.2-.1.3-.2.5a.9.9,0,0,0-.1.5c0,.2-.1.3-.1.5v.2C146.3,110.6,146.4,110.6,146.4,110.7Zm42.4-4.3a2.35,2.35,0,0,0-.8-.2,3.78,3.78,0,0,0-2.3.8c-.1,0-.1,0-.2.1s-.1.1-.2.2-.3.2-.4.3-.3.2-.4.4-.2.3-.3.4-.1.1-.2.2,0,.1-.1.2-.1.3-.2.5-.1.3-.1.4H154.8a4,4,0,0,0-3.9-3.4,4.14,4.14,0,0,0-1.9.5L134.4,81.5a3.84,3.84,0,0,0,1.7-3.2,4.13,4.13,0,0,0-1.7-3.2L149,49.7c.1,0,.3.1.4.1s.3.1.5.1h.3a4.33,4.33,0,0,1,.5.1,3.86,3.86,0,0,0,3.8-3.1h28.9c0,.1.1.3.1.4s.1.3.2.5,0,.2.1.2.1.1.2.2.2.3.3.4.2.3.4.4.3.2.4.3.1.1.2.2.2,0,.2.1c.2.1.3.1.5.2a.9.9,0,0,0,.5.1c.2,0,.3.1.5.1h.3c.2,0,.3.1.5.1s.4-.1.7-.1l14.7,25.5-.3.3c-.1.1-.2.3-.3.4s-.1.1-.2.2,0,.2-.1.2c-.1.2-.1.3-.2.5a.9.9,0,0,0-.1.5c0,.2-.1.3-.1.5v.4a.9.9,0,0,0,.1.5c0,.2.1.3.1.5s.1.3.2.5,0,.2.1.2.1.1.2.2.2.3.3.4l.3.3Zm55.7-32a3.19,3.19,0,0,0-1.4-.3,4.06,4.06,0,0,0-3.9,3.3H210.4a3.86,3.86,0,0,0-3.8-3.1c-.2,0-.3.1-.5.1h-.2a.9.9,0,0,0-.5.1.6.6,0,0,0-.4.1L190.4,49.3a3.86,3.86,0,0,0,0-6.4L205,17.6c.1,0,.3.1.4.1s.3.1.5.1h.4a.9.9,0,0,0,.5-.1c.2,0,.3-.1.5-.1s.3-.1.5-.2.2,0,.2-.1.1-.1.2-.2.3-.2.4-.3.3-.2.4-.4.2-.3.3-.4.1-.1.2-.2,0-.2.1-.2c.1-.2.1-.3.2-.5s.1-.3.1-.4H239a3.73,3.73,0,0,0,2.7,2.6c.1,0,.2.1.3.1a.9.9,0,0,0,.5.1c.2,0,.3.1.5.1h.4a.9.9,0,0,0,.5-.1.6.6,0,0,0,.4-.1L259,42.8a4.07,4.07,0,0,0-1.2,2.9,2.92,2.92,0,0,0,.2.9v.2c.1.2.1.4.2.6s.1.2.1.3,0,.2.1.2.1.1.2.2.2.3.3.4l.3.3ZM299,41.8a4,4,0,0,0-3.9,3.4H265.8a4,4,0,0,0-3.9-3.4,2.77,2.77,0,0,0-1.3.3L245.9,16.7l.3-.3c.1-.1.2-.3.3-.4s.1-.1.2-.2,0-.1.1-.2.1-.3.2-.5a.9.9,0,0,0,.1-.5c0-.2.1-.3.1-.5v-.4a.9.9,0,0,0-.1-.5c0-.2-.1-.3-.1-.5s-.1-.3-.2-.5,0-.2-.1-.2-.1-.1-.2-.2-.2-.3-.3-.4l-.3-.3,14.7-25.5c.2,0,.4.1.6.1s.3-.1.5-.1h.3a.9.9,0,0,0,.5-.1c.2,0,.3-.1.5-.1s.3-.1.5-.2.2,0,.2-.1.1-.1.2-.2.3-.2.4-.3.3-.2.4-.4.2-.3.3-.4.1-.1.2-.2,0-.2.1-.2c.1-.2.1-.3.2-.5s.1-.3.1-.4h28.9a3.86,3.86,0,0,0,3.8,3.1c.2,0,.4-.1.6-.1h.3a.9.9,0,0,0,.5-.1.6.6,0,0,0,.4-.1l14.5,25.1a3.89,3.89,0,0,0-1.5,3.1,3.69,3.69,0,0,0,1.8,3.2L300.3,42A5.07,5.07,0,0,0,299,41.8Zm57,32.8c-.1,0-.3-.1-.4-.1h-.1a2.92,2.92,0,0,0-.9-.2,3.86,3.86,0,0,0-3.8,3.1H321.5c0-.1-.1-.2-.1-.3a3.87,3.87,0,0,0-3.8-3,5,5,0,0,0-1.2.2L301.7,48.9l.3-.3c.1-.1.2-.3.3-.4s.1-.1.2-.2,0-.2.1-.2c.1-.2.1-.3.2-.5a.9.9,0,0,0,.1-.5c0-.2.1-.3.1-.5v-.4a3.93,3.93,0,0,0-1.1-2.8l14.7-25.5c.1,0,.3.1.4.1s.3.1.5.1h.4a.9.9,0,0,0,.5-.1c.2,0,.3-.1.5-.1s.3-.1.5-.2.2,0,.2-.1.1-.1.2-.2.3-.2.4-.3.3-.2.4-.4.2-.3.3-.4.1-.1.2-.2,0-.1.1-.2.1-.3.2-.5.1-.3.1-.4h29a4.15,4.15,0,0,0,2.9,2.7c.1,0,.2.1.3.1a.9.9,0,0,0,.5.1c.2,0,.3.1.5.1h.4a.9.9,0,0,0,.5-.1.6.6,0,0,0,.4-.1L370.8,43a4.07,4.07,0,0,0-1.4,3,4.25,4.25,0,0,0,1.4,3ZM410.5,42a4.06,4.06,0,0,0-3.9,3.2H377.2a4,4,0,0,0-3.9-3.2,3.59,3.59,0,0,0-1.1.2L357.4,16.6l.3-.3c.1-.1.2-.3.3-.4s.1-.1.2-.2,0-.1.1-.2.1-.3.2-.5a.9.9,0,0,0,.1-.5c0-.2.1-.3.1-.5v-.4a.9.9,0,0,0-.1-.5c0-.2-.1-.3-.1-.5s-.1-.3-.2-.5,0-.2-.1-.2-.1-.1-.2-.2-.2-.3-.3-.4l-.3-.3,14.7-25.5c.2,0,.4.1.6.1s.3-.1.5-.1h.3a.9.9,0,0,0,.5-.1c.2,0,.3-.1.5-.1s.3-.1.5-.2.2,0,.2-.1.1-.1.2-.2.3-.2.4-.3.3-.2.4-.4.2-.3.3-.4.1-.1.2-.2,0-.2.1-.2c.1-.2.1-.3.2-.5s.1-.3.1-.4h29.6a3.86,3.86,0,0,0,3.8,3.1,5,5,0,0,0,1.2-.2l14.7,25.5a3.15,3.15,0,0,0-.8,1.5c0,.1-.1.1-.1.2a.9.9,0,0,0-.1.5c0,.2-.1.3-.1.5v.4a.9.9,0,0,0,.1.5c0,.2.1.3.1.5s.1.3.2.5,0,.2.1.2.1.1.2.2.2.3.3.4l.3.3L411.8,42.1C411.4,42.1,411,42,410.5,42Zm71.9,1.1a3.93,3.93,0,0,0-1.3,2.9,4.16,4.16,0,0,0,1.3,3L467.6,74.6a3.19,3.19,0,0,0-1.4-.3,3.86,3.86,0,0,0-3.8,3.1H433c0-.1-.1-.3-.1-.4s-.1-.3-.2-.5,0-.2-.1-.2-.1-.1-.2-.2-.2-.3-.3-.4-.2-.3-.4-.4-.3-.2-.4-.3-.1-.1-.2-.2-.2,0-.2-.1a.35.35,0,0,1-.2-.1,1.88,1.88,0,0,0-.8-.2h0a3,3,0,0,0-1-.2,2.92,2.92,0,0,0-.9.2L413.2,48.8l.3-.3c.1-.1.2-.3.3-.4s.1-.1.2-.2,0-.2.1-.2c.1-.2.1-.3.2-.5a.9.9,0,0,0,.1-.5c0-.2.1-.3.1-.5v-.4a.9.9,0,0,0-.1-.5c0-.2-.1-.3-.1-.5s-.1-.3-.2-.5,0-.2-.1-.2-.1-.1-.2-.2-.2-.3-.3-.4-.1-.2-.2-.3v-.1l14.8-25.7c.1,0,.3.1.4.1s.3.1.5.1h.4a.9.9,0,0,0,.5-.1c.2,0,.3-.1.5-.1s.3-.1.5-.2.2,0,.2-.1.1-.1.2-.2.3-.2.4-.3h0a3.52,3.52,0,0,0,1.4-2h29.4c0,.1.1.3.1.4s.1.3.2.5,0,.2.1.2.1.1.2.2.2.3.3.4.2.3.4.4.3.2.4.3.1.1.2.2.2,0,.2.1c.2.1.3.1.5.2a.9.9,0,0,0,.5.1c.2,0,.3.1.5.1h.4a.9.9,0,0,0,.5-.1.6.6,0,0,0,.4-.1ZM467.9,9.8a5,5,0,0,0-1.3-.3,4,4,0,0,0-3.9,3.5H433.4a4.07,4.07,0,0,0-3.9-3.5,3.65,3.65,0,0,0-1.5.3L413.4-15.5a3.93,3.93,0,0,0,1.3-2.9,3.77,3.77,0,0,0-1.3-2.9l14.8-25.6c.1,0,.3.1.4.1s.3.1.5.1h.5a3.86,3.86,0,0,0,3.8-3.1h29.4c0,.1,0,.1.1.2a3.63,3.63,0,0,0,.3.7h0c0,.1,0,.2.1.2s.1.1.2.2.2.3.3.4h0l.3.3h0c.1.1.3.2.4.3s.1.1.2.2.2,0,.2.1h0c.1.1.3.1.5.2a.9.9,0,0,0,.5.1c.2,0,.3.1.5.1s.2.1.3.1.4-.1.6-.1h0a.6.6,0,0,0,.4-.1l14.8,25.6a3.93,3.93,0,0,0-1.3,2.9,3.77,3.77,0,0,0,1.3,2.9Zm69.2-60.2a.9.9,0,0,0,.1.5c0,.2.1.3.1.5s.1.3.2.5,0,.2.1.2.1.1.2.2.2.3.3.4l.3.3L523.6-22.2a4.25,4.25,0,0,0-1.1-.2,4.06,4.06,0,0,0-3.9,3.2H489a4,4,0,0,0-3.9-3.2,5,5,0,0,0-1.2.2L469.2-47.7a3.75,3.75,0,0,0,1.4-3,3.77,3.77,0,0,0-1.3-2.9L484-79.1c.1,0,.3.1.4.1s.3.1.5.1h.4a.9.9,0,0,0,.5-.1c.2,0,.3-.1.5-.1s.3-.1.5-.2.2,0,.2-.1.1-.1.2-.2.3-.2.4-.3l.2-.2a1,1,0,0,0,.4-.5l.1-.1c0-.1.1-.1.2-.2V-81a3.55,3.55,0,0,0,.4-.9h29.5a4.12,4.12,0,0,0,1.4,2.1c.1.1.3.2.4.3s.1.1.2.2.1,0,.2.1h.1c.1.1.2.1.4.1a.9.9,0,0,0,.5.1c.2,0,.3.1.5.1h.4a.9.9,0,0,0,.5-.1.6.6,0,0,0,.4-.1l14.8,25.7-.3.3c-.1.1-.2.3-.3.4s-.1.1-.2.2,0,.2-.1.2c-.1.2-.1.3-.2.5a.9.9,0,0,0-.1.5c0,.2-.1.3-.1.5v.2C537-50.5,537.1-50.5,537.1-50.4Zm42.3-4.1a4.25,4.25,0,0,0-1.1-.2,4.12,4.12,0,0,0-3.5,2.1v.1h0a1.42,1.42,0,0,0-.2.6h0c0,.1-.1.3-.1.4H545.2a4.06,4.06,0,0,0-3.9-3.3,4,4,0,0,0-1.5.3L525-80l.3-.3c.1-.1.2-.3.3-.4s.1-.1.2-.2,0-.2.1-.2c.1-.2.1-.3.2-.5a.9.9,0,0,0,.1-.5c0-.2.1-.3.1-.5V-83a3.63,3.63,0,0,0-1.2-2.8l14.6-25.3a4.25,4.25,0,0,0,1.1.2,4,4,0,0,0,3.3-1.8l.1-.1c0-.1.1-.1.2-.2v-.1c.1-.1.1-.3.2-.5v-.1c0-.1.1-.3.1-.4h29.5a4,4,0,0,0,3.9,3.2,2.77,2.77,0,0,0,1.3-.3L594-85.9a4.21,4.21,0,0,0-1,2c0,.1-.1.2-.1.3v.5h0v.4a.9.9,0,0,0,.1.5c0,.2.1.3.1.5s.1.3.2.5,0,.2.1.2.1.1.2.2.2.3.3.4l.3.3Z"/><path class="cls-3" d="M655.9-191.9a4,4,0,0,0,2.6,3.5,3.65,3.65,0,0,0,2.9-.2,1.61,1.61,0,0,0,.7-.4l.1-.1a3.82,3.82,0,0,0,.9-.9l27.7,10.1a3.77,3.77,0,0,0,.8,2.7c0,.1.1.1.1.2s.1.1.1.2l.1.1.2.2c.1.1.2.2.3.2s.3.2.4.3a.76.76,0,0,0,.5.2c.1,0,.1.1.2.1h.2c.2,0,.3.1.5.1s.3.1.4.1l5.1,28.9a4,4,0,0,0-2.3,2.3,4.42,4.42,0,0,0,.3,3.4L675.2-122a4.13,4.13,0,0,0-1.1-.7,3.89,3.89,0,0,0-5.1,2.4,3.89,3.89,0,0,0,2.4,5.1c.4.1.7.1,1.1.2h.1a4.87,4.87,0,0,0,1.2-.1c.1,0,.3-.1.4-.1a2.18,2.18,0,0,0,.8-.5c.1-.1.3-.1.4-.2s.1-.1.1-.2a1,1,0,0,0,.4-.5,1.61,1.61,0,0,0,.4-.7c.1-.1.2-.2.2-.3a.6.6,0,0,1,.1-.4v-.3a3.93,3.93,0,0,0-.3-2.4l22.6-19a2.62,2.62,0,0,0,.9.5h.3c.2,0,.3.1.5.1h1.2c.1,0,.1-.1.2-.1s.3-.1.5-.2.3-.1.5-.2a1.38,1.38,0,0,0,.4-.3c.1,0,.1-.1.2-.1s.1-.1.1-.2a1.38,1.38,0,0,0,.3-.4l.3-.3,27.6,10a4,4,0,0,0,2.6,4.2h.2a.1.1,0,0,1,.1.1h.2c.2,0,.3.1.5.1s.3.1.4.1l5.1,29a4,4,0,0,0-2.3,2.3,4.21,4.21,0,0,0,.3,3.3L716.5-72.9a3.33,3.33,0,0,0-1-.6,3.93,3.93,0,0,0-3.8.7.1.1,0,0,0-.1.1v.1a5.5,5.5,0,0,0-.7.9.52.52,0,0,0-.2.4c0,.1-.1.2-.2.3a1.7,1.7,0,0,0-.1.7c0,.2-.1.3-.1.5a4.1,4.1,0,0,0,.1,1.1.37.37,0,0,0,.1.3,2.4,2.4,0,0,0,.7,1.2h0a4.53,4.53,0,0,0,1.7,1.3,3.89,3.89,0,0,0,5.1-2.4,4.21,4.21,0,0,0-.3-3.3l22.5-18.9a3.33,3.33,0,0,0,1,.6,5,5,0,0,0,2.1.1h.2a4.59,4.59,0,0,0,1.6-.7c.1,0,.1,0,.2-.1l.1-.1c.2-.2.4-.5.6-.7l.1-.1,27.8,10.1a4,4,0,0,0,2.5,4.2,5,5,0,0,0,1.2.2l5.1,28.8a3.85,3.85,0,0,0-2.2,2.3,4.12,4.12,0,0,0-.1,2.2v.2c0,.1.1.1.1.2s.1.2.1.3,0,.1.1.2.1.2.1.3l-22.6,19a3.33,3.33,0,0,0-1-.6,3.88,3.88,0,0,0-4.7,1.7l-27.6-10a4,4,0,0,0-2.5-4.3,3.82,3.82,0,0,0-4.3,1.1,3.39,3.39,0,0,0-.9,1.4,3.84,3.84,0,0,0,1,4.2,4.19,4.19,0,0,0,1.4.9,4.08,4.08,0,0,0,4.7-1.6l27.6,10a4,4,0,0,0,2.5,4.2,5,5,0,0,0,1.2.2l5.2,29.1c-.1.1-.2.1-.4.2s-.4.3-.6.4-.4.3-.5.5a1.61,1.61,0,0,0-.4.7c-.1.1-.2.3-.3.4v.2a2,2,0,0,0-.1.8v1c0,.2.1.3.2.5a.76.76,0,0,0,.2.4,4,4,0,0,0,2.3,2.3,3.88,3.88,0,0,0,4.7-1.7l27.6,10v1.1c0,.1.1.1.1.2s.1.3.2.5.1.2.2.4.1.1.1.2.2.3.3.4.1.1.1.2.1.1.2.1a3.53,3.53,0,0,0,1.7,1.2,3.4,3.4,0,0,0,1,.1l5.1,28.9a3.53,3.53,0,0,0-1.4,1.3,3.63,3.63,0,0,0-.9,3,3.84,3.84,0,0,0,4.1,3.2h.5a.1.1,0,0,0,.1-.1,4.16,4.16,0,0,0,3.3-2.6,3.91,3.91,0,0,0-3.9-5.3L798.7,33a3.82,3.82,0,0,0,2.4-2.4,4,4,0,0,0-.4-3.4L823.2,8.3a2.92,2.92,0,0,0,1.2.7,4.08,4.08,0,0,0,4.7-1.6l27.6,10v1.2c0,.1.1.1.1.2a3.48,3.48,0,0,0,.7,1.5.1.1,0,0,0,.1.1h.1a3.77,3.77,0,0,0,1.6,1.2c.4.1.7.1,1.1.2l5.2,29.1c-.1.1-.2.1-.4.2a1.38,1.38,0,0,0-.4.3c-.1,0-.1.1-.2.1s-.1.1-.1.2a1.38,1.38,0,0,0-.3.4c-.1.1-.2.3-.3.4a.76.76,0,0,0-.2.5c0,.1-.1.1-.1.2v.2c0,.2-.1.3-.1.5v1.2c0,.1.1.1.1.2s.1.3.2.5.1.3.2.4L841.6,75.1a4.13,4.13,0,0,0-1.1-.7,3.89,3.89,0,0,0-5.1,2.4,1.7,1.7,0,0,0-.1.7,2.2,2.2,0,0,0-.1.8v.2a3.77,3.77,0,0,0,4.2,3.7h.1a2,2,0,0,0,1.1-.3,4.05,4.05,0,0,0,.9-.5.1.1,0,0,0,.1-.1v-.1a4.2,4.2,0,0,0,1.4-1.8,4,4,0,0,0-.2-3.2l22.4-18.8a5.67,5.67,0,0,0,1.3.8,3.88,3.88,0,0,0,4.7-1.7l27.5,10v1.1c0,.1.1.1.1.2s.1.3.2.5.1.3.2.5a1.38,1.38,0,0,0,.3.4c0,.1.1.1.1.2s.1.1.2.1a1.38,1.38,0,0,0,.4.3c.1.1.3.2.4.3a.76.76,0,0,0,.5.2c.1,0,.1.1.2.1h.2c.2,0,.3.1.5.1s.3.1.4.1L907,100a3.49,3.49,0,0,0-1.9,2.2.6.6,0,0,1-.1.4,3.4,3.4,0,0,0-.3,2,4,4,0,0,0,4.5,3.2,3.6,3.6,0,0,0,2-1.1,3.15,3.15,0,0,0,1.3-1.7,3.91,3.91,0,0,0-3.9-5.3l-5.1-28.6a4.22,4.22,0,0,0,2.5-2.4,3.58,3.58,0,0,0-.3-3.2l22.4-18.9c.1.1.2.1.4.2a.76.76,0,0,0,.5.2c.1,0,.1.1.2.1h.2c.2,0,.3.1.5.1h1.2c.1,0,.1-.1.2-.1s.3-.1.5-.2.1,0,.2-.1a3.56,3.56,0,0,0,1.8-1.4l27.7,10.1a3.75,3.75,0,0,0,.1,1v.2c0,.1.1.1.1.2s.1.3.1.4.1.2.1.3.1.2.2.3a1.38,1.38,0,0,0,.3.4c0,.1.1.1.1.2s.1.1.2.1a1.38,1.38,0,0,0,.4.3c.1.1.3.2.4.3a.76.76,0,0,0,.5.2c.1,0,.1.1.2.1h.2c.2,0,.3.1.5.1s.3.1.4.1l5.1,29.1A5.26,5.26,0,0,0,969,90l-.1.1c-.1.1-.2.3-.3.4a.76.76,0,0,0-.2.5c0,.1-.1.1-.1.2v.2c0,.2-.1.3-.1.5v1.2c0,.1.1.1.1.2s.1.3.2.5.1.3.2.4l-22.3,18.7a5.67,5.67,0,0,0-1.3-.8,3.89,3.89,0,0,0-5.1,2.4,3.64,3.64,0,0,0-.2,1.4v.3a3.76,3.76,0,0,0,.9,2.6,3.94,3.94,0,0,0,5.5.5,3.32,3.32,0,0,0,1-1.4,4.35,4.35,0,0,0,.4-.7,3.89,3.89,0,0,0-.1-3l22.4-18.8c.1.1.2.1.4.2a.76.76,0,0,0,.4.2c.1,0,.1.1.2.1h.2c.2,0,.3.1.5.1h.7a4.22,4.22,0,0,0,3.4-1.7l27.1,9.8a4,4,0,0,0,2.5,4.3,3,3,0,0,0,1.6.2h.1l5.1,28.6a3.9,3.9,0,0,0-2.6,2.4,3.77,3.77,0,0,0,.6,3.7l-22.5,18.9a3.33,3.33,0,0,0-1-.6,4,4,0,1,0,2.4,5.1,3.58,3.58,0,0,0-.3-3.2l22.6-19c.1.1.2.1.4.2a.76.76,0,0,0,.5.2c.1,0,.1.1.2.1h.2c.2,0,.3.1.5.1h1.2c.1,0,.1-.1.2-.1s.3-.1.5-.2.3-.1.5-.2a1.38,1.38,0,0,0,.4-.3c.1,0,.1-.1.2-.1s.1-.1.1-.2a1.38,1.38,0,0,0,.3-.4l.3-.3,27.2,9.9a3.83,3.83,0,0,0,2.4,3.9l.1.1a.76.76,0,0,0,.5.2c.1,0,.1.1.2.1h.2c.2,0,.3.1.5.1s.3.1.4.1l5.1,28.9a3.85,3.85,0,0,0-2.2,2.3,4.09,4.09,0,0,0,1.3,4.5l.1.1a1.61,1.61,0,0,0,.7.4c.1.1.3.2.4.3h.2a2,2,0,0,0,.8.1h1c.2,0,.3-.1.5-.2a4.88,4.88,0,0,0,.7-.3c.2-.1.4-.3.6-.4l.4-.4.1-.1.1-.1.3-.3,27.8,10.1a4.1,4.1,0,0,0,.1,1.1v.2a3,3,0,0,0,.4,1v.1a1.38,1.38,0,0,0,.3.4c0,.1.1.1.1.2s.1.1.2.1h.1l.1.1.2.2c.1.1.3.2.4.3a.76.76,0,0,0,.5.2c.1,0,.1.1.2.1h.2c.2,0,.3.1.5.1s.3.1.4.1l5.1,29a3.85,3.85,0,0,0-2.2,2.3,4.21,4.21,0,0,0,.3,3.3l-22.6,19-.9-.6a3.76,3.76,0,0,0-2.1-.1h-.1c-.1,0-.1.1-.2.1h0a3.55,3.55,0,0,0-.9.4h0a1.38,1.38,0,0,0-.4.3c-.1,0-.1.1-.2.1s-.1.1-.1.2h0c-.1.1-.2.2-.2.3l-.1.1-.3.3-27.9-10.1a4,4,0,0,0-2.5-4.4,4,4,0,1,0-2.7,7.5h.2a5.85,5.85,0,0,0,1.3.2c.2,0,.3-.1.5-.1a1.88,1.88,0,0,0,.8-.2,4.35,4.35,0,0,0,.7-.4c.1-.1.2-.1.3-.2a6,6,0,0,0,.8-.8h0l27.9,10.1v1.1c0,.1.1.1.1.2s.1.3.1.4a3,3,0,0,0,.6,1.1.1.1,0,0,0,.1.1h.1a4.53,4.53,0,0,0,1.7,1.3c.4.1.7.1,1.1.2l5.1,28.8a3.85,3.85,0,0,0-2.2,2.3,4.21,4.21,0,0,0,.3,3.3L1048.7,321c-.2-.1-.3-.2-.5-.3s-.3-.3-.6-.3a3,3,0,0,0-1.3-.2h-.1a5,5,0,0,0-1.2.2h0a4,4,0,0,0-2.5,2.4,3.89,3.89,0,0,0,2.4,5.1,4,4,0,0,0,4.8-1.8l.1-.1c.1-.1.2-.3.3-.4s0-.3.1-.5.1-.3.1-.5v-.8a4.33,4.33,0,0,0-.1-.5c-.1-.3-.1-.5-.2-.8h0l22.7-19.1c.1.1.2.1.4.2s.2.1.3.2.2.1.3.2h.2c.2,0,.3.1.5.1h1.3a.35.35,0,0,1,.2-.1c.2,0,.3-.1.5-.2h.1a2.19,2.19,0,0,0,.5-.3c.1-.1.2-.1.3-.2s.1-.1.2-.1.1-.1.1-.2a4.35,4.35,0,0,0,.6-.7v-.1l27.8,10.1a4,4,0,0,0,2.5,4.2,1.7,1.7,0,0,0,.7.1h.1c.1,0,.3.1.4.1l5.2,29.2a3.85,3.85,0,0,0-2.2,2.3,1.27,1.27,0,0,0-.1.6h0a4,4,0,0,0,2.5,4.5,4,4,0,1,0,2.7-7.5,5,5,0,0,0-1.2-.2l-5.2-29.2a3.51,3.51,0,0,0,.8-.5c.1,0,.1-.1.2-.1a.1.1,0,0,1,.1-.1,4.81,4.81,0,0,0,1.2-1.6,4,4,0,0,0-.2-3.2l22.6-19a3.46,3.46,0,0,0,1.2.7,4,4,0,0,0,4.7-1.6l27.7,10v.4h0v.6c0,.1.1.1.1.2s.1.3.2.5a.1.1,0,0,0,.1.1c0,.1.1.2.1.3v.1a1.38,1.38,0,0,0,.3.4c0,.1.1.1.1.2s.1.1.2.1l.1.1a2036132644247.13,2036132644247.13,0,0,0,.8.6c.1.1.3.1.4.2a.52.52,0,0,0,.4.2c.3.1.7.1,1,.2l5.2,29.1a4,4,0,0,0-2.3,2.3,4,4,0,0,0,7.5,2.7,4,4,0,0,0-2.4-5.1,5,5,0,0,0-1.2-.2l-5.1-29a3.91,3.91,0,0,0,2.4-2.3,3.83,3.83,0,0,0-.3-3.3l22.5-18.9a3.33,3.33,0,0,0,1,.6,4.52,4.52,0,0,0,2,.1h.1a3.94,3.94,0,0,0,2.5-1.7l27.6,10a4,4,0,0,0,2.5,4.3,3,3,0,0,0,1.3.2l5.1,29a3.85,3.85,0,0,0-2.2,2.3,1.7,1.7,0,0,0-.1.7v.1a2.44,2.44,0,0,0,0,1.2h0a7.84,7.84,0,0,0,.5,1.4.1.1,0,0,0,.1.1,4.74,4.74,0,0,0,1,1h0l.9.6a4,4,0,1,0,2.7-7.5,2.74,2.74,0,0,0-1.3-.2l-5.1-29a1.79,1.79,0,0,0,.7-.5h.1c.1,0,.1-.1.2-.1l.1-.1.4-.4h0c.1-.1.2-.3.3-.4a.76.76,0,0,0,.2-.5c0-.1.1-.1.1-.2v-.2c0-.2.1-.3.1-.5v-1h0v-.2c0-.1-.1-.1-.1-.2s-.1-.3-.2-.5h0c0-.1-.1-.3-.1-.4l22.7-19.1c.1.1.2.1.4.2a.76.76,0,0,0,.5.2c.1,0,.1.1.2.1h.2c.2,0,.3.1.5.1h1.4a3.85,3.85,0,0,0,2.7-1.6l27.7,10.1h0v.9a3.67,3.67,0,0,0,2.4,3.2,3.75,3.75,0,0,0,3.1-.2,3.85,3.85,0,0,0,2.2-2.3,3.95,3.95,0,0,0-7.2-3.2l-27.5-10a3.85,3.85,0,0,0-4-4.7l-5.1-28.9c.1-.1.2-.1.4-.2a1.38,1.38,0,0,0,.4-.3c.1,0,.1-.1.2-.1s.1-.1.1-.2.1-.2.2-.2.2-.2.2-.3.1-.2.2-.3.1-.2.2-.3.3-.3.3-.6a4.16,4.16,0,0,0-.1-3.1l22.4-18.8a2.4,2.4,0,0,0,1.2.7,3.88,3.88,0,0,0,4.7-1.7l27.7,10a4,4,0,0,0,2.5,4.3,4,4,0,0,0,2.7-7.5,4.08,4.08,0,0,0-4.7,1.6l-27.7-10.1a4,4,0,0,0-2.5-4.2,3,3,0,0,0-1.3-.2l-5.2-29.1a3.85,3.85,0,0,0,2.2-2.3,4,4,0,0,0-7.1-3.4l-27.6-10a4,4,0,0,0-2.5-4.3,3,3,0,0,0-1.3-.2l-5.1-29a4,4,0,0,0,2.3-2.3,3.93,3.93,0,0,0-.2-3.2l22.6-19c.1.1.2.1.3.2a1.61,1.61,0,0,0,.7.4,4.6,4.6,0,0,0,2.6,0h.1a4,4,0,0,0,2.5-2.4,4,4,0,1,0-7.5-2.7c-.1.2,0,.4-.1.6v.3a4.05,4.05,0,0,0,0,1.1v.2a3.58,3.58,0,0,0,.4,1.1l-22.6,19a3.33,3.33,0,0,0-1-.6,3.84,3.84,0,0,0-4.7,1.7l-27.7-10.1a3.88,3.88,0,0,0-2.5-4.7,3.64,3.64,0,0,0-1.4-.2l-5.1-28.7h0a2.07,2.07,0,0,0,1-.6h0a3.91,3.91,0,0,0,1.4-1.7,4,4,0,0,0-.2-3.2l22.5-18.9a3.87,3.87,0,0,0,4,.4c.1,0,.1-.1.2-.1l.6-.3.2-.2a3.77,3.77,0,0,0,1.2-1.6,4,4,0,0,0-7.5-2.7,4.58,4.58,0,0,0-.1,2c0,.1.1.2.1.3.1.3.1.6.3.8v.1l-22.5,18.9a4.13,4.13,0,0,0-1.1-.7,4,4,0,0,0-4.8,1.8l-27.6-10a4,4,0,0,0-2.5-4.3,3.81,3.81,0,0,0-3.7.6c-.1.1-.3.1-.4.2s-.1.1-.1.2-.2.3-.4.4c0,.1-.1.1-.1.2a1.61,1.61,0,0,0-.4.7c0,.1-.1.1-.1.2s0,.3-.1.5a2.2,2.2,0,0,0-.1.8v.8a1.85,1.85,0,0,0,.2.7c0,.1.1.1.1.2s0,.1.1.2l-22.4,18.8a3.75,3.75,0,0,0-1.2-.7,3.9,3.9,0,0,0-4.8,1.9l-27.5-10a4,4,0,0,0-2.5-4.6,3.64,3.64,0,0,0-1.4-.2l-5.1-28.7a4.17,4.17,0,0,0,2.4-2.3,4,4,0,0,0-6.9-3.7c-.1.1-.1.2-.2.3L1063,20.8a4,4,0,0,0-2.5-4.3,5,5,0,0,0-1.2-.2h-.2c-.1,0-.3-.1-.4-.1l-5.1-28.9a3.9,3.9,0,0,0,2.6-2.4,4.3,4.3,0,0,0-.4-3.5l22.4-18.8a3.38,3.38,0,0,0,1.2.6c.1,0,.1.1.2.1a3.89,3.89,0,0,0,5.1-2.4,3.89,3.89,0,0,0-2.4-5.1,3.87,3.87,0,0,0-2.6,0,3.81,3.81,0,0,0-1.7.8,3.83,3.83,0,0,0-.9,4.7l-22.5,18.9a3.51,3.51,0,0,0-.8-.5,3.76,3.76,0,0,0-2.1-.1h-.3c-.1,0-.1.1-.2.1s-.3.1-.5.2-.3.1-.5.2a1.38,1.38,0,0,0-.4.3c-.1,0-.1.1-.2.1s-.1.1-.1.2a1.38,1.38,0,0,0-.3.4l-.3.3-27.3-9.9a4,4,0,0,0-2.5-4.4,3.45,3.45,0,0,0-1.7-.2l-5.2-29.2a3.78,3.78,0,0,0,2.3-4.2,3.55,3.55,0,0,0-.4-.9c0-.1-.1-.2-.1-.3a1.38,1.38,0,0,0-.3-.4,4,4,0,0,0-1.9-1.5,3.89,3.89,0,0,0-5.1,2.4,3.89,3.89,0,0,0,2.4,5.1,3.4,3.4,0,0,0,1.4.2l5.2,29.2c-.1.1-.2.1-.4.2a1.38,1.38,0,0,0-.4.3c-.1,0-.1.1-.2.1s-.1.1-.1.2a1.38,1.38,0,0,0-.3.4c-.1.1-.2.3-.3.4a.76.76,0,0,0-.2.5c0,.1-.1.1-.1.2v.2c0,.2-.1.3-.1.5v1.2c0,.1.1.1.1.2s.1.3.2.5.1.3.2.4L990-7.8c-.2-.1-.4-.3-.6-.4a3,3,0,0,0-1.3-.2H987c-.1,0-.1.1-.2.1s-.3.1-.5.2-.3.1-.5.2a1.38,1.38,0,0,0-.4.3c-.1,0-.1.1-.2.1s-.1.1-.1.2a1.38,1.38,0,0,0-.3.4l-.3.3-27.2-9.9a4,4,0,0,0-2.5-4.3c-.4-.1-.7-.1-1.1-.2-.1,0-.2-.1-.3-.1s-.3-.1-.4-.1L947.6-50a4,4,0,0,0,2.7-2.4,4.26,4.26,0,0,0-.4-3.5l22.3-18.7.9.6a3.93,3.93,0,0,0,2.4,0,4.33,4.33,0,0,0,.5-.1c.2-.1.3-.2.5-.3l.6-.3.2-.2c.2-.2.3-.4.5-.6a1.61,1.61,0,0,0,.4-.7c0-.1.1-.1.1-.2s0-.4.1-.6.1-.4.1-.6a4.87,4.87,0,0,0-.1-1.2v-.1a4,4,0,0,0-2.4-2.7,3.89,3.89,0,0,0-5.1,2.4,4.21,4.21,0,0,0,.3,3.3L948.8-57.1a4.35,4.35,0,0,0-.7-.4,4.52,4.52,0,0,0-2-.1h-.5c-.1,0-.1.1-.2.1s-.3.1-.5.2-.3.1-.5.2a1.38,1.38,0,0,0-.4.3c-.1,0-.1.1-.2.1s-.1.1-.1.2a1.38,1.38,0,0,0-.3.4l-.3.3-27.2-9.9a4,4,0,0,0-2.5-4.4,3.45,3.45,0,0,0-1.7-.2h-.1l-5.2-29.2a3.85,3.85,0,0,0,2.2-2.3,1.27,1.27,0,0,0,.1-.6v-.1a3.92,3.92,0,0,0-2.5-4.4,3.89,3.89,0,0,0-5.1,2.4,3.89,3.89,0,0,0,2.4,5.1,5,5,0,0,0,1.2.2L909.9-70c-.1.1-.2.1-.4.2a1.38,1.38,0,0,0-.4.3c-.1,0-.1.1-.2.1s-.1.1-.1.2a1.38,1.38,0,0,0-.3.4c-.1.1-.2.3-.3.4a.76.76,0,0,0-.2.5c0,.1-.1.1-.1.2v.2c0,.2-.1.3-.1.5v1.2c0,.1.1.1.1.2s.1.3.2.5.1.3.2.4L885.8-45.8c-.2-.1-.3-.3-.5-.3a5,5,0,0,0-1.2-.2h-1.4c-.1,0-.1.1-.2.1s-.3.1-.5.2-.3.1-.5.2a1.38,1.38,0,0,0-.4.3c-.1,0-.1.1-.2.1s-.1.1-.1.2a1.38,1.38,0,0,0-.3.4l-.3.3L852.4-54.6a4,4,0,0,0-2.5-4.3,5,5,0,0,0-1.2-.2l-5.2-29.1c.1-.1.2-.1.4-.2a1.38,1.38,0,0,0,.4-.3c.1,0,.1-.1.2-.1s.1-.1.1-.2a1.38,1.38,0,0,0,.3-.4c.1-.1.2-.3.3-.4a.76.76,0,0,0,.2-.4c0-.1.1-.1.1-.2v-.2c0-.2.1-.3.1-.5V-92h0v-.3c0-.1-.1-.1-.1-.2s-.1-.3-.2-.5v-.1a.37.37,0,0,0-.1-.3l22.7-19a4.13,4.13,0,0,0,1.1.7,3.89,3.89,0,0,0,5.1-2.4,3.89,3.89,0,0,0-2.4-5.1,3.88,3.88,0,0,0-4.7,1.7c-.1.1-.1.2-.2.3s-.2.3-.3.5,0,.4-.1.5v.2a3.83,3.83,0,0,0,.3,2.4l-22.6,19a8.34,8.34,0,0,0-1.2-.8,3.84,3.84,0,0,0-4.7,1.7l-27.6-10a4,4,0,0,0-2.5-4.4,5,5,0,0,0-1.2-.2l-5.1-29c.1-.1.2-.1.4-.2a1.38,1.38,0,0,0,.4-.3c.1,0,.1-.1.2-.1s.1-.1.1-.2l.1-.1a5.83,5.83,0,0,0,1.1-1.5,3.7,3.7,0,0,0-.2-3.1l22.4-18.8a2.92,2.92,0,0,0,1.2.7,3.89,3.89,0,0,0,5.1-2.4,3.89,3.89,0,0,0-2.4-5.1,2.77,2.77,0,0,0-.9-.1c-.2,0-.3-.1-.5-.1a1.27,1.27,0,0,0-.6.1,1.69,1.69,0,0,0-1,.3l-.1.1a4.05,4.05,0,0,0-.9.5,3.57,3.57,0,0,0-1.1,1.7h0a5,5,0,0,0-.2,1.2,4.22,4.22,0,0,0,.3,1.9l-22.4,18.9a3.46,3.46,0,0,0-1.2-.7,4,4,0,0,0-4.8,1.8l-27.5-10a4,4,0,0,0-2.5-4.5,3.4,3.4,0,0,0-1.4-.2l-5.1-28.7a4,4,0,0,0,2.3-2.3,4.17,4.17,0,0,0-.3-3.3l22.5-18.9a4.13,4.13,0,0,0,1.1.7,3.89,3.89,0,0,0,5.1-2.4,3.89,3.89,0,0,0-2.4-5.1,3.87,3.87,0,0,0-2.6,0h0a3.88,3.88,0,0,0-1.1.6c-.1,0-.1.1-.2.1l-.1.1c-.2.2-.3.4-.5.6s-.3.4-.4.6-.2.2-.2.3a.6.6,0,0,1-.1.4c0,.2-.1.3-.1.5a4.45,4.45,0,0,0,.3,2.3L761-193a4.05,4.05,0,0,0-.9-.5,6.15,6.15,0,0,0-1.9-.2H758a.35.35,0,0,1-.2.1c-.2,0-.3.1-.5.2h0c-.1,0-.2.1-.3.1s-.1,0-.2.1a1.38,1.38,0,0,0-.4.3c-.1,0-.1.1-.2.1s-.1.1-.1.2l-.1.1-.1.1a.1.1,0,0,1-.1.1l-.3.3-27.8-10.1a4,4,0,0,0-2.5-4.2,3.77,3.77,0,0,0-3.7.6.35.35,0,0,0-.2.1l-.1.1a3.09,3.09,0,0,0-1.1,1.6,3.7,3.7,0,0,0,.2,3.1L697.9-182a8.34,8.34,0,0,0-1.2-.8,4,4,0,0,0-4.8,1.8l-27.5-10a4,4,0,0,0-2.5-4.5,3.89,3.89,0,0,0-5.1,2.4C655.9-193.1,655.8-192.5,655.9-191.9Zm293,173.3v.2c0,.2-.1.3-.1.5v1.2c0,.1.1.1.1.2s.1.3.2.5.1.3.2.4L926.8,3.3a3.51,3.51,0,0,0-.8-.5,4.21,4.21,0,0,0-3.3.3c-.2.1-.3.1-.5.2a1.38,1.38,0,0,0-.4.3c-.1,0-.1.1-.2.1s-.1.1-.1.2a1.38,1.38,0,0,0-.3.4l-.3.3L893.7-5.3a4,4,0,0,0-2.5-4.6,6.15,6.15,0,0,0-1.9-.2l-5.1-28.6a4.1,4.1,0,0,0,2.8-2.5,3.81,3.81,0,0,0-.6-3.7l22.3-18.8c.1.1.2.1.4.2a.76.76,0,0,0,.5.2c.1,0,.1.1.2.1h.2c.1,0,.2.1.3.2a3.94,3.94,0,0,0,4.6-1.6l27.3,9.9v1.1a.35.35,0,0,1,.1.2c0,.2.1.3.2.5s.1.3.2.5a1.38,1.38,0,0,0,.3.4c0,.1.1.1.1.2s.1.1.2.1a1.38,1.38,0,0,0,.4.3c.1.1.3.2.4.3a.76.76,0,0,0,.5.2c.1,0,.1.1.2.1h.2c.1,0,.1.1.2.1a1.7,1.7,0,0,0,.7.1l5.2,29.1c-.1.1-.2.1-.4.2a1.38,1.38,0,0,0-.4.3c-.1,0-.1.1-.2.1s-.1.1-.1.2a1.38,1.38,0,0,0-.3.4c-.1.1-.2.3-.3.4a.76.76,0,0,0-.2.4A2.77,2.77,0,0,1,948.9-18.6Zm104.9,38.1v.2c0,.2-.1.3-.1.5v1.2c0,.1.1.1.1.2s.1.3.2.5.1.3.2.4l-22.3,18.8a2.62,2.62,0,0,0-.9-.5,4.26,4.26,0,0,0-3.5.4.35.35,0,0,0-.2.1,1.38,1.38,0,0,0-.4.3c-.1,0-.1.1-.2.1s-.1.1-.1.2a1.38,1.38,0,0,0-.3.4l-.3.3-27.2-9.9a4,4,0,0,0-2.5-4.6,5.54,5.54,0,0,0-1.8-.2L989.4-.7a4.19,4.19,0,0,0,2.8-2.4,3.81,3.81,0,0,0-.5-3.6L1014-25.5c.1.1.2.1.4.2a.76.76,0,0,0,.5.2c.1,0,.1.1.2.1h.2c.1,0,.2.1.3.2a3.94,3.94,0,0,0,4.6-1.6l27.3,9.9v1.1c0,.1.1.1.1.2s.1.3.2.5.1.3.2.5a1.38,1.38,0,0,0,.3.4c0,.1.1.1.1.2s.1.1.2.1a1.38,1.38,0,0,0,.4.3c.1.1.3.2.4.3a.76.76,0,0,0,.5.2c.1,0,.1.1.2.1h.2c.1,0,.1.1.2.1a2.2,2.2,0,0,0,.8.1l5.2,29.1c-.1.1-.2.1-.4.2a1.38,1.38,0,0,0-.4.3c-.1,0-.1.1-.2.1s-.1.1-.1.2a1.38,1.38,0,0,0-.3.4c-.1.1-.2.3-.3.4a.76.76,0,0,0-.2.5C1053.9,19.4,1053.8,19.4,1053.8,19.5Zm41.5,49.4v.2c0,.2-.1.3-.1.5v1.2a.35.35,0,0,1,.1.2c0,.2.1.3.2.5s.1.3.2.4L1072.8,91c-.1-.1-.2-.1-.4-.2a.37.37,0,0,0-.3-.1,3.33,3.33,0,0,0-1-.6,3.88,3.88,0,0,0-4.7,1.7l-27.1-9.9V80.8c0-.1-.1-.1-.1-.2s-.1-.3-.2-.5-.1-.3-.2-.5a1.38,1.38,0,0,0-.3-.4c0-.1-.1-.1-.1-.2s-.1-.1-.2-.1a1.38,1.38,0,0,0-.4-.3l-.1-.1a4.19,4.19,0,0,0-1.4-.9,1.7,1.7,0,0,0-.7-.1l-5.1-28.9a3.84,3.84,0,0,0,2.7-2.4,4,4,0,0,0-.4-3.4L1055,24.1c.1.1.2.1.4.2a.76.76,0,0,0,.5.2c.1,0,.1.1.2.1h.1c.2.1.3.2.5.3a4.08,4.08,0,0,0,4.7-1.6l27.3,9.9v.1h0v1a.52.52,0,0,0,.2.4,4,4,0,0,0,2.4,2.7c.4.1.7.1,1.1.2l5.1,28.8a3.64,3.64,0,0,0-2,2.2c-.2,0-.2.1-.2.3Zm43.6,47a2.41,2.41,0,0,0-.8.6.1.1,0,0,0-.1.1v.1a4.35,4.35,0,0,0-.6.7c-.1.1-.1.2-.2.3s-.1.2-.2.3-.2.2-.2.3h0v.2c0,.2-.1.3-.1.5v.5h0v.7c0,.1.1.1.1.2s.1.3.1.5a.6.6,0,0,1,.1.4l-22.6,19-.9-.6a4.52,4.52,0,0,0-2-.1h-.2c-.1,0-.1.1-.2.1s-.2.1-.4.1-.3.1-.5.2a.1.1,0,0,0-.1.1,1.38,1.38,0,0,0-.4.3c-.1,0-.1.1-.2.1s-.1.1-.1.2a.1.1,0,0,1-.1.1c-.1.1-.1.1-.1.2l-.1.1-.3.3-27.9-10.1v-1.1c0-.1-.1-.1-.1-.2s-.1-.3-.2-.5-.1-.3-.2-.5a1.38,1.38,0,0,0-.3-.4c0-.1-.1-.1-.1-.2s-.1-.1-.2-.1a1.38,1.38,0,0,0-.4-.3c-.1-.1-.3-.2-.4-.3a.76.76,0,0,0-.5-.2c-.1,0-.1-.1-.2-.1h0a.52.52,0,0,0-.4-.2,1.7,1.7,0,0,0-.7-.1l-5.1-29c.1-.1.2-.1.4-.2a1.38,1.38,0,0,0,.4-.3c.1,0,.1-.1.2-.1s.1-.1.1-.2a1.38,1.38,0,0,0,.3-.4c.1-.1.2-.3.3-.4a.76.76,0,0,0,.2-.5c0-.1.1-.1.1-.2v-.2c0-.2.1-.3.1-.5V93.9c0-.1-.1-.1-.1-.2s-.1-.3-.2-.5-.1-.3-.2-.4l22.7-19.1c.1.1.2.1.4.2a.76.76,0,0,0,.5.2c.1,0,.1.1.2.1h.2c.2,0,.3.1.5.1h1.2c.1,0,.1-.1.2-.1s.3-.1.5-.2.3-.1.4-.2.2-.1.3-.2.1-.1.2-.1.1-.1.2-.1l.1-.1a2.34,2.34,0,0,0,.7-.7l27.7,10.1a3.75,3.75,0,0,0,.1,1v.2c0,.1.1.1.1.2s.1.3.1.4v.1c.1.2.1.3.2.4a1.38,1.38,0,0,0,.3.4c0,.1.1.1.1.2s.1.1.2.1a1.38,1.38,0,0,0,.4.3c.1.1.3.2.4.3a.76.76,0,0,0,.5.2c.1,0,.1.1.2.1h.2c.2,0,.3.1.5.1s.3.1.4.1Zm-23.1,29a4.17,4.17,0,0,0-.3-3.3l22.5-19a4.13,4.13,0,0,0,1.1.7,4.08,4.08,0,0,0,4.7-1.6l27.6,10a4,4,0,0,0,2.5,4.2,5,5,0,0,0,1.2.2l5.2,29.2c-.1.1-.2.1-.4.2a1.38,1.38,0,0,0-.4.3c-.1,0-.1.1-.2.1s-.1.1-.1.2a1.38,1.38,0,0,0-.3.4c-.1.1-.2.3-.3.4a.76.76,0,0,0-.2.5c0,.1-.1.1-.1.2v.2c0,.2-.1.3-.1.5v1.2c0,.1.1.1.1.2s.1.3.2.5a.1.1,0,0,0,.1.1.37.37,0,0,0,.1.3l-22.4,18.8a3.46,3.46,0,0,0-1.2-.7,3.9,3.9,0,0,0-4.8,1.9l-27.5-10a3.89,3.89,0,0,0-2.5-4.5,3.4,3.4,0,0,0-1.4-.2l-5.1-28.7A4.62,4.62,0,0,0,1115.8,144.9Zm103.9,72v.2c0,.2-.1.3-.1.5v1.2a.35.35,0,0,1,.1.2c0,.2.1.3.2.5s.1.3.2.4l-22.6,19a2.38,2.38,0,0,0-1.1-.6,3.88,3.88,0,0,0-4.7,1.7l-27.8-10.1a4,4,0,0,0-2.5-4.4,5,5,0,0,0-1.2-.2l-5.1-29c.1-.1.2-.1.4-.2a1.38,1.38,0,0,0,.4-.3c.1,0,.1-.1.2-.1s.1-.1.1-.2.1-.1.1-.2a4,4,0,0,0,1-1.5,3.7,3.7,0,0,0-.2-3.1l22.4-18.8a2.92,2.92,0,0,0,1.2.7,3.88,3.88,0,0,0,4.7-1.7l27.6,10v1.2c0,.1.1.1.1.2a4,4,0,0,0,2.5,3c.4.1.7.1,1.1.2l5.1,28.8a4,4,0,0,0-2.1,2.3v.3Zm-19.5-110.4a2.49,2.49,0,0,0-.1.8c0,.1-.1.2-.1.3v.4h0v.8c0,.1.1.1.1.2s.1.3.2.5.1.3.2.4l-22.6,19a4.13,4.13,0,0,0-1.1-.7,3.88,3.88,0,0,0-4.7,1.7l-27.6-10a4,4,0,0,0-2.5-4.3,3,3,0,0,0-1.3-.2l-5.2-29.1c.1-.1.2-.1.4-.2a1.38,1.38,0,0,0,.4-.3c.1,0,.1-.1.2-.1s.1-.1.1-.2a1.38,1.38,0,0,0,.3-.4c.1-.1.2-.3.3-.4a.76.76,0,0,0,.2-.5c0-.1.1-.1.1-.2h0c0-.1.1-.1.1-.2a3.89,3.89,0,0,0-.1-3L1160,62a4.13,4.13,0,0,0,1.1.7,4.08,4.08,0,0,0,4.7-1.6l27.7,10v1.2c0,.1.1.1.1.2s.1.3.2.5a124395540373.62,124395540373.62,0,0,1,.2.2c0,.1.1.2.1.3a1.38,1.38,0,0,0,.3.4c0,.1.1.1.1.2s.1.1.2.1a1.38,1.38,0,0,0,.4.3c.1.1.3.2.4.3a.76.76,0,0,0,.5.2c.1,0,.1.1.2.1h.2c.2,0,.3.1.5.1s.3.1.4.1l5.1,28.8A5.09,5.09,0,0,0,1200.2,106.5Zm41.4,49.7c-.1.2,0,.4-.1.6v.4a2.72,2.72,0,0,0,0,.9v.2c0,.1.1.1.1.2s0,.1.1.2.1.5.2.7l-22.6,19-.9-.6a4.52,4.52,0,0,0-2-.1h-.2c-.1,0-.1.1-.2.1s-.1,0-.2.1c-.3.1-.5.2-.8.3h0a1.38,1.38,0,0,0-.4.3c-.1,0-.1.1-.2.1s-.1.1-.1.2h0l-.3.3h0l-.3.3-27.6-10a4,4,0,0,0-2.5-4.2,3,3,0,0,0-1.3-.2l-5.2-29.1a3.85,3.85,0,0,0,2.2-2.3,4,4,0,0,0-.2-3.2l22.6-19c.1.1.2.1.4.2a.76.76,0,0,0,.5.2c.1,0,.1.1.2.1h.2c.2,0,.3.1.5.1h1.2c.1,0,.1-.1.2-.1s.3-.1.5-.2.3-.1.5-.2a1.38,1.38,0,0,0,.4-.3c.1,0,.1-.1.2-.1s.1-.1.1-.2a1.38,1.38,0,0,0,.3-.4h0c.1-.1.1-.2.2-.2h0l27.9,10.1v1.1c0,.1.1.1.1.2s.1.2.1.3c.1.3.2.5.3.8.1.1.1.2.2.3s.1.1.1.2.1.1.2.1a2.65,2.65,0,0,0,.6.5l.2.2a.35.35,0,0,1,.2.1c.2.1.3.2.5.3.4.1.7.1,1.1.2l5.2,29.1A5.09,5.09,0,0,0,1241.6,156.2Zm19.3,71.4a2.4,2.4,0,0,0-1.2-.7,3.9,3.9,0,0,0-4.8,1.9l-27.5-10a3.89,3.89,0,0,0-2.5-4.5,3.4,3.4,0,0,0-1.4-.2l-5.1-28.7a4,4,0,0,0,2.3-2.3,4.21,4.21,0,0,0-.3-3.3l22.6-19a4.13,4.13,0,0,0,1.1.7,4.08,4.08,0,0,0,4.7-1.6l27.6,10a4,4,0,0,0,2.5,4.2,5,5,0,0,0,1.2.2l5.2,29.2h0a.1.1,0,0,0-.1.1.35.35,0,0,0-.2.1,1.38,1.38,0,0,0-.4.3c-.1,0-.1.1-.2.1s-.1.1-.1.2l-.1.1-.1.1-.2.2c-.1.1-.2.3-.3.4a.76.76,0,0,0-.2.5c0,.1-.1.1-.1.2v.2c0,.2-.1.3-.1.5v1.2c0,.1.1.1.1.2s.1.3.2.5.1.3.1.4Zm-59.4,47.1-5.1-29a4,4,0,0,0,2.3-2.3,4,4,0,0,0-.2-3.2l22.6-19c.1.1.2.1.4.2a.76.76,0,0,0,.5.2c.1,0,.1.1.2.1h.2c.2,0,.3.1.5.1h1.2c.1,0,.1-.1.2-.1s.3-.1.5-.2a.1.1,0,0,0,.1-.1,3.13,3.13,0,0,0,1-.5h0a3,3,0,0,0,.8-.8l27.7,10.1a4.1,4.1,0,0,0,.1,1.1v.1c0,.1.1.1.1.2.1.3.2.5.3.8,0,.1.1.1.1.2a1.38,1.38,0,0,0,.3.4c0,.1.1.1.1.2s.1.1.2.1a1.38,1.38,0,0,0,.4.3c.1.1.3.2.4.3a.76.76,0,0,0,.5.2c.1,0,.1.1.2.1h.2c.2,0,.3.1.5.1s.3.1.4.1l5.2,29.1a3.59,3.59,0,0,0-1,.7h0l-.3.3-.2.2c-.1.1-.2.3-.3.4a.76.76,0,0,0-.2.5c0,.1-.1.1-.1.2v.2c0,.2-.1.3-.1.5v1.2c0,.1.1.1.1.2s.1.3.2.5.1.3.2.4L1239,287.9a4.13,4.13,0,0,0-1.1-.7,4.08,4.08,0,0,0-4.7,1.6l-27.6-10a3.86,3.86,0,0,0-2.5-4.3A3.4,3.4,0,0,1,1201.5,274.7Zm-63.4,11.4-5.2-29.1a2.18,2.18,0,0,0,.8-.5c.1,0,.1-.1.2-.1a.1.1,0,0,1,.1-.1,3.78,3.78,0,0,0,1-4.8l22.6-19c.1.1.2.1.4.2a.76.76,0,0,0,.5.2c.1,0,.1.1.2.1h.2c.2,0,.3.1.5.1h1.2a.35.35,0,0,1,.2-.1c.2,0,.3-.1.5-.2s.1-.1.2-.1a130942674275,130942674275,0,0,1,.2-.2,1.38,1.38,0,0,0,.4-.3c.1,0,.1-.1.2-.1s.1-.1.1-.2l.1-.1.3-.3c.1-.1.2-.2.2-.3l27.8,10.1a4.12,4.12,0,0,0,.9,3h0a4.81,4.81,0,0,0,1.6,1.2,5,5,0,0,0,1.2.2l5.1,29a3.92,3.92,0,0,0-1.9,5.6l-22.5,18.9a3.33,3.33,0,0,0-1-.6,3.94,3.94,0,0,0-4.6,1.6l-.1.1-27.6-10a4,4,0,0,0-2.5-4.3A5.7,5.7,0,0,1,1138.1,286.1Zm-44-42.3c.1.1.2.1.4.2s.2.1.3.2.2.1.3.2h.2c.2,0,.3.1.5.1h1.2c.1,0,.1-.1.2-.1s.3-.1.4-.1a4.05,4.05,0,0,0,.9-.5h.1c.1,0,.1-.1.2-.1l.1-.1a2.7,2.7,0,0,0,.7-.8l27.8,10.1a4,4,0,0,0,2.5,4.2,5,5,0,0,0,1.2.2l5.2,29.2c-.1,0-.2.1-.3.2h-.1a1.38,1.38,0,0,0-.4.3c-.1,0-.1.1-.2.1s-.1.1-.1.2v.1l-.1.1-.2.2c-.1.1-.2.3-.3.4a.76.76,0,0,0-.2.5c0,.1-.1.1-.1.2v.2c0,.2-.1.3-.1.5v.8h0v.4c0,.1.1.1.1.2s.1.3.2.5.1.2.1.3v.1l-22.6,19a4.13,4.13,0,0,0-1.1-.7,3.84,3.84,0,0,0-4.7,1.7l-27.7-10.1a4,4,0,0,0-2.5-4.4,5,5,0,0,0-1.2-.2l-5.1-28.8a3.83,3.83,0,0,0,2.1-5.6Zm-2.7-36.2c.1,0,.1-.1.2-.1h0a.1.1,0,0,0,.1-.1,1.38,1.38,0,0,0,.4-.3c.1,0,.1-.1.2-.1s.1-.1.1-.2l.1-.1a3.27,3.27,0,0,0,1.1-1.5,3.7,3.7,0,0,0-.2-3.1l22.5-18.9c.1.1.2.1.4.2a.76.76,0,0,0,.5.2c.1,0,.1.1.2.1h.2c.2,0,.3.1.5.1h1.2c.1,0,.1-.1.2-.1s.3-.1.5-.2h.1a3.81,3.81,0,0,0,1.9-1.4l27.7,10.1a3.4,3.4,0,0,0,.1,1v.2c0,.1.1.1.1.2s.1.2.1.3.1.3.2.4.1.2.1.3a1.38,1.38,0,0,0,.3.4c0,.1.1.1.1.2s.1.1.2.1a1.38,1.38,0,0,0,.4.3c.1.1.3.2.4.3a.76.76,0,0,0,.5.2c.1,0,.1.1.2.1h.2c.2,0,.3.1.5.1s.3.1.4.1l5.1,28.9a4.31,4.31,0,0,0-2.3,2.3,4.17,4.17,0,0,0,.3,3.3l-22.5,19a4.13,4.13,0,0,0-1.1-.7,3.88,3.88,0,0,0-4.7,1.7l-27.7-10.1a4,4,0,0,0-2.5-4.4,5,5,0,0,0-1.2-.2ZM1052.1,156v-.2c0-.2.1-.3.1-.5v-1.2c0-.1-.1-.1-.1-.2s-.1-.3-.2-.5-.1-.3-.2-.4l22.5-18.9a4.35,4.35,0,0,0,.7.4,3.33,3.33,0,0,0,1.7.2h.8c.1,0,.1-.1.2-.1s.3-.1.5-.2.3-.1.5-.2a1.38,1.38,0,0,0,.4-.3c.1,0,.1-.1.2-.1s.1-.1.1-.2a1.38,1.38,0,0,0,.3-.4l.3-.3,27.9,10.1v1.2c0,.1.1.1.1.2s.1.2.1.3a3.29,3.29,0,0,0,.7,1.3h0a3.15,3.15,0,0,0,1.7,1.3c.4.1.7.1,1.1.2l5.1,28.8a3.64,3.64,0,0,0-2,2.2v.1a.1.1,0,0,1-.1.1v.2c0,.2-.1.3-.1.5v1.2c0,.1.1.1.1.2s.1.3.2.5.1.3.2.4l-22.5,18.9a4.13,4.13,0,0,0-1.1-.7,4,4,0,0,0-4.8,1.8l-27.7-10.1a4.11,4.11,0,0,0-2.5-4.5,5,5,0,0,0-1.2-.2L1050,158c.1-.1.2-.1.4-.2a1.38,1.38,0,0,0,.4-.3c.1,0,.1-.1.2-.1s.1-.1.1-.2a1.38,1.38,0,0,0,.3-.4c.1-.1.2-.3.3-.4a.76.76,0,0,0,.2-.5C1052,156.2,1052.1,156.1,1052.1,156Zm-43.6-47.1c.1-.1.2-.1.4-.2a1.38,1.38,0,0,0,.4-.3c.1,0,.1-.1.2-.1s.1-.1.1-.2a1.38,1.38,0,0,0,.3-.4c.1-.1.2-.3.3-.4a.76.76,0,0,0,.2-.5c0-.1.1-.1.1-.2v-.2c0-.2.1-.3.1-.5v-1.2a.35.35,0,0,1-.1-.2c0-.2-.1-.3-.2-.5s-.1-.3-.2-.4l22.6-19c.2.1.4.3.6.4s.3,0,.5.1h.3c.2,0,.3.1.5.1h1.2a.35.35,0,0,1,.2-.1c.2,0,.3-.1.5-.2s.3-.1.5-.2a1.38,1.38,0,0,0,.4-.3c.1,0,.1-.1.2-.1s.1-.1.1-.2a1.38,1.38,0,0,0,.3-.4l.3-.3,27.2,9.9a4,4,0,0,0,2.5,4.2c.2.1.4,0,.6.1l.1.1h.2c.2,0,.3.1.5.1s.3.1.4.1l5.1,28.8a4,4,0,0,0-2.7,2.4,3.94,3.94,0,0,0,.5,3.5l-22.4,18.8a3.09,3.09,0,0,0-1.6-1.1,3.9,3.9,0,0,0-4.8,1.9l-27.1-9.8v-1.1c0-.1-.1-.1-.1-.2s-.1-.3-.2-.5-.1-.3-.2-.5a1.38,1.38,0,0,0-.3-.4c0-.1-.1-.1-.1-.2s-.1-.1-.2-.1a4,4,0,0,0-1.9-1.5,2.2,2.2,0,0,0-.8-.1ZM967,59.6c.1-.1.2-.1.4-.2a1.38,1.38,0,0,0,.4-.3c.1,0,.1-.1.2-.1s.1-.1.1-.2l.2-.2a1.76,1.76,0,0,0,.4-.5.1.1,0,0,1,.1-.1v-.1a3.51,3.51,0,0,0,.5-.8,4.14,4.14,0,0,0-.1-3.1l22.5-18.9c.1.1.2.1.4.2a.76.76,0,0,0,.5.2c.1,0,.1.1.2.1h.2c.2,0,.3.1.5.1h.9a3.93,3.93,0,0,0,3.5-1.6l27.3,9.9v1.1c0,.1.1.1.1.2s.1.3.2.5.1.3.2.5a1.38,1.38,0,0,0,.3.4c0,.1.1.1.1.2s.1.1.2.1a1.38,1.38,0,0,0,.4.3c.1.1.3.2.4.3a.76.76,0,0,0,.5.2c.1,0,.1.1.2.1h.2c.2,0,.3.1.5.1s.3.1.4.1l5.1,28.7a4,4,0,0,0-2.7,2.4,3.81,3.81,0,0,0,.5,3.6l-22.4,18.8c-.1-.1-.2-.1-.4-.2a.76.76,0,0,0-.5-.2c-.1,0-.1-.1-.2-.1h0a.76.76,0,0,0-.4-.2,4.08,4.08,0,0,0-4.7,1.6l-27.1-9.8a4.11,4.11,0,0,0-2.5-4.5,3.89,3.89,0,0,0-1.5-.2ZM930.7,39.1l-5.1-28.8a4.19,4.19,0,0,0,2.8-2.4,4,4,0,0,0-.4-3.4l22.2-18.7c.1.1.2.1.4.2a.76.76,0,0,0,.5.2c.1,0,.1.1.2.1h.1c.2.1.3.2.5.3a4.08,4.08,0,0,0,4.7-1.6L983.7-5v1.1c0,.1.1.1.1.2s.1.3.2.5.1.3.2.5a1.38,1.38,0,0,0,.3.4c0,.1.1.1.1.2s.1.1.2.1a1.38,1.38,0,0,0,.4.3c.1.1.3.2.4.3a.76.76,0,0,0,.5.2c.1,0,.1.1.2.1h.1a1.38,1.38,0,0,1,.4.3,1.48,1.48,0,0,0,.7.1l5.1,29c-.1.1-.2.1-.4.2a1.38,1.38,0,0,0-.4.3c-.1,0-.1.1-.2.1s-.1.1-.1.2a1.38,1.38,0,0,0-.3.4c-.1.1-.2.3-.3.4a.76.76,0,0,0-.2.5c0,.1-.1.1-.1.2v.2c0,.2-.1.3-.1.5v1.2c0,.1.1.1.1.2s.1.3.2.5.1.3.2.4L968.6,52.5a2.4,2.4,0,0,0-1.2-.7,3.9,3.9,0,0,0-4.8,1.9l-27.5-10a3.89,3.89,0,0,0-2.5-4.5C931.6,39.2,931.2,39.1,930.7,39.1ZM862.1,21.6a4,4,0,0,0,2.3-2.3,3.83,3.83,0,0,0-.3-3.3L886.7-3c.1.1.2.1.4.2a.76.76,0,0,0,.5.2c.1,0,.1.1.2.1h.2c.2,0,.3.1.5.1h.8a3.81,3.81,0,0,0,3.6-1.5L920.2,6V7.1c0,.1.1.1.1.2s.1.3.2.5.1.3.2.5a1.38,1.38,0,0,0,.3.4c0,.1.1.1.1.2s.1.1.2.1a1.38,1.38,0,0,0,.4.3c.1.1.3.2.4.3a.76.76,0,0,0,.5.2c.1,0,.1.1.2.1h.2c.2,0,.3.1.5.1s.3.1.4.1l5.1,29a3.64,3.64,0,0,0-2,2.2v.1a.1.1,0,0,1-.1.1v.2c0,.2-.1.3-.1.5v1.2c0,.1.1.1.1.2s.1.3.2.5.1.3.2.4L904.6,64a3.33,3.33,0,0,0-1-.6A3.94,3.94,0,0,0,899,65c-.1.1-.1.2-.2.2l-27.5-10a4,4,0,0,0-2.5-4.2,2.77,2.77,0,0,0-.9-.1h-.1c-.1,0-.3-.1-.4-.1ZM825.8,1.3l-5.2-29.1c.1-.1.2-.1.4-.2a1.38,1.38,0,0,0,.4-.3c.1,0,.1-.1.2-.1s.1-.1.1-.2a1.38,1.38,0,0,0,.3-.4c.1-.1.2-.3.3-.4a.76.76,0,0,0,.2-.4c0-.1.1-.1.1-.2v-.2c0-.2.1-.3.1-.5v-.7a3.23,3.23,0,0,0-.3-1.7L844.9-52a3.33,3.33,0,0,0,1,.6,4.08,4.08,0,0,0,4.7-1.6l27.8,10.1v1.1c0,.1.1.1.1.2s.1.3.2.5.1.3.2.5a1.38,1.38,0,0,0,.3.4c0,.1.1.1.1.2s.1.1.2.1a1.38,1.38,0,0,0,.4.3c.1.1.3.2.4.3a.76.76,0,0,0,.5.2c.1,0,.1.1.2.1h.1c.2.1.3.2.5.3a1.27,1.27,0,0,0,.6.1l5.1,29c-.1.1-.2.1-.4.2a1.38,1.38,0,0,0-.4.3c-.1,0-.1.1-.2.1s-.1.1-.1.2a1.38,1.38,0,0,0-.3.4c-.1.1-.2.3-.3.4a.76.76,0,0,0-.2.5c0,.1-.1.1-.1.2v.2c0,.2-.1.3-.1.5v1.2c0,.1.1.1.1.2s.1.3.2.5.1.3.2.4l-22.6,19a3.33,3.33,0,0,0-1-.6,3.88,3.88,0,0,0-4.7,1.7l-27.6-10a4,4,0,0,0-2.5-4.3A3.89,3.89,0,0,0,825.8,1.3ZM781.8-41c.1.1.2.1.4.2a.76.76,0,0,0,.5.2c.1,0,.1.1.2.1h.2c.2,0,.3.1.5.1h1.2c.1,0,.1-.1.2-.1s.3-.1.5-.2.3-.1.5-.2a1.38,1.38,0,0,0,.4-.3c.1,0,.1-.1.2-.1s.1-.1.1-.2a1.38,1.38,0,0,0,.3-.4l.3-.3,27.7,10a4,4,0,0,0,.7,2.4h0a1.38,1.38,0,0,0,.3.4c0,.1.1.1.1.2s.1.1.2.1a1.38,1.38,0,0,0,.4.3c.1.1.3.2.4.3a.76.76,0,0,0,.5.2c.1,0,.1.1.2.1h.2c.2,0,.3.1.5.1s.3.1.4.1l5.2,29.2H824c-.1.1-.2.1-.3.2a1.38,1.38,0,0,0-.4.3c-.1,0-.1.1-.2.1s-.1.1-.1.2a1.38,1.38,0,0,0-.3.4c-.1.1-.2.3-.3.4a.76.76,0,0,0-.2.5c0,.1-.1.1-.1.2v.2c0,.2-.1.3-.1.5V5.4a.35.35,0,0,1,.1.2c0,.2.1.3.2.5s.1.3.2.4l-22.6,19a3.51,3.51,0,0,0-.8-.5,3.4,3.4,0,0,0-1-.1h0a2.15,2.15,0,0,0-.8,0h-.5a.35.35,0,0,1-.2.1c-.2,0-.3.1-.5.2s-.3.1-.5.2a1.38,1.38,0,0,0-.4.3c-.1,0-.1.1-.2.1s-.1.1-.1.2a1.38,1.38,0,0,0-.3.4l-.3.3-27.6-10a4,4,0,0,0-2.5-4.2,3.4,3.4,0,0,0-1.4-.2l-5.2-29.1a4,4,0,0,0,2.3-2.3,4,4,0,0,0-.2-3.2Zm-2.6-36.1a3.85,3.85,0,0,0,2.2-2.3,4,4,0,0,0-.2-3.2l22.6-19c.1.1.2.1.4.2h0c.2.1.3.3.5.3a.37.37,0,0,1,.3.1c.2,0,.3.1.5.1h1.2c.1,0,.1-.1.2-.1s.3-.1.5-.2h0c.2-.1.3-.1.4-.2h0a1.38,1.38,0,0,0,.4-.3c.1,0,.1-.1.2-.1s.1-.1.1-.2h0l.5-.5c0-.1.1-.1.1-.2l27.6,10a4,4,0,0,0,2.6,4.2h.5c.2,0,.3.1.5.1s.3.1.4.1l5.1,29.1a3.85,3.85,0,0,0-2.2,2.3,3.58,3.58,0,0,0,.3,3.2L821.5-34.9a5.67,5.67,0,0,0-1.3-.8,3.9,3.9,0,0,0-4.8,1.9l-27.5-10a4,4,0,0,0-2.5-4.6,3,3,0,0,0-1.3-.2Zm-39.3-51.6v-.2c0-.2.1-.3.1-.5v-1.2c0-.1-.1-.1-.1-.2s-.1-.3-.2-.5-.1-.3-.2-.4l22.7-19.1c.1.1.2.1.4.2a.76.76,0,0,0,.4.2c.1,0,.1.1.2.1h.2c.2,0,.3.1.5.1h1.2c.1,0,.1-.1.2-.1s.3-.1.5-.2a3.7,3.7,0,0,0,2-1.5l27.7,10.1a3.08,3.08,0,0,0,.1,1v.2c0,.1.1.1.1.2v.2c.1.2.1.4.2.6s.1.1.1.2a1.38,1.38,0,0,0,.3.4c0,.1.1.1.1.2s.1.1.2.1a1.38,1.38,0,0,0,.4.3c.1.1.3.2.4.3a.76.76,0,0,0,.5.2c.1,0,.1.1.2.1h.2c.2,0,.3.1.5.1s.3.1.4.1l5.1,29a4,4,0,0,0-2.3,2.3,4.21,4.21,0,0,0,.3,3.3l-22.6,19a4.13,4.13,0,0,0-1.1-.7,3.88,3.88,0,0,0-4.7,1.7L746.1-93.2a4,4,0,0,0-2.5-4.3,5.16,5.16,0,0,0-1.1-.2l-5.1-29.1c.1-.1.2-.1.4-.2a1.38,1.38,0,0,0,.4-.3c.1,0,.1-.1.2-.1s.1-.1.1-.2a1.38,1.38,0,0,0,.3-.4c.1-.1.2-.3.3-.4a.76.76,0,0,0,.2-.5C739.8-128.6,739.9-128.6,739.9-128.7Zm-43.6-47.1c.1-.1.2-.1.4-.2a1.38,1.38,0,0,0,.4-.3c.1,0,.1-.1.2-.1s.1-.1.1-.2a1.38,1.38,0,0,0,.3-.4c.1-.1.2-.3.3-.4a.76.76,0,0,0,.2-.4c0-.1.1-.1.1-.2v-.2h0v-.2a.37.37,0,0,1,.1-.3v-.3a4.07,4.07,0,0,0-.2-2.2l22.5-18.9a4.13,4.13,0,0,0,1.1.7,3.88,3.88,0,0,0,4.7-1.7L754.2-191v1.2c0,.1.1.1.1.2s0,.1.1.2a4.1,4.1,0,0,0,2.5,2.8c.4.1.7.1,1.1.2l5.1,28.8a3.64,3.64,0,0,0-2,2.2v.1a.1.1,0,0,1-.1.1v.2c0,.2-.1.3-.1.5v1.2c0,.1.1.1.1.2s.1.3.2.5.1.3.2.4l-22.6,19a5.67,5.67,0,0,0-1.3-.8,3.84,3.84,0,0,0-4.7,1.7l-27.5-10v-.4h0v-.7h0v-.1a4,4,0,0,0-2.5-3.2c-.4-.1-.7-.1-1.1-.2Z"/></svg>