<?xml version="1.0" encoding="utf-8"?>
<!-- Generator: Adobe Illustrator 25.0.0, SVG Export Plug-In . SVG Version: 6.00 Build 0)  -->
<svg version="1.0" id="Capa_1"
	xmlns="http://www.w3.org/2000/svg"
	xmlns:xlink="http://www.w3.org/1999/xlink" x="0px" y="0px" viewBox="0 0 130 147" style="enable-background:new 0 0 130 147;" xml:space="preserve">
	<style type="text/css">
	.st0{fill:#FFFFFF;}
	.st1{fill:#FF0600;}
	</style>
	<path class="st0" d="M0,42.06l0,62.88c0,3.77,2.01,7.25,5.27,9.13l54.46,31.44c3.26,1.88,7.28,1.88,10.54,0l54.46-31.44
	c3.26-1.88,5.27-5.36,5.27-9.13V42.06c0-3.77-2.01-7.25-5.27-9.13L70.27,1.49c-3.26-1.88-7.28-1.88-10.54,0L5.27,32.93
	C2.01,34.81,0,38.29,0,42.06z"/>
	<g>
		<path class="st1" d="M72.32,86.33c3.58-2.38,5.95-6.45,5.95-11.06C78.27,67.95,72.32,62,65,62c-7.32,0-13.27,5.95-13.27,13.27
		c0,4.61,2.37,8.68,5.95,11.06c-8.11,2.99-13.92,10.78-13.92,19.91h3.54c0-9.76,7.94-17.7,17.7-17.7c9.76,0,17.7,7.94,17.7,17.7
		h3.54C86.24,97.11,80.43,89.32,72.32,86.33z M65,85c-5.37,0-9.73-4.37-9.73-9.73c0-5.37,4.37-9.73,9.73-9.73
		c5.37,0,9.73,4.37,9.73,9.73C74.73,80.64,70.37,85,65,85z"/>
		<path class="st1" d="M90.02,77.48c3.58-2.38,5.95-6.45,5.95-11.06c0-7.32-5.95-13.27-13.27-13.27c-3.55,0-6.76,1.41-9.15,3.68
		c-0.88,0.84-1.65,1.8-2.27,2.86c1.1,0.45,2.15,1,3.13,1.66c0.63-1.02,1.43-1.91,2.38-2.64c1.64-1.26,3.69-2.02,5.91-2.02
		c5.37,0,9.73,4.37,9.73,9.73c0,4.46-3.01,8.21-7.11,9.36c-0.84,0.24-1.72,0.37-2.63,0.37c-0.31,0-0.62-0.02-0.93-0.05
		c-0.06,1.27-0.26,2.51-0.6,3.7c0.51-0.04,1.01-0.11,1.52-0.11c0.72,0,1.42,0.06,2.12,0.14c8.76,1.05,15.58,8.52,15.58,17.56h3.54
		C103.94,88.26,98.13,80.47,90.02,77.48z"/>
		<path class="st1" d="M47.3,79.69c0.52,0,1.02,0.06,1.52,0.11c-0.33-1.18-0.53-2.42-0.6-3.7c-0.31,0.03-0.61,0.05-0.93,0.05
		c-0.91,0-1.79-0.14-2.63-0.37c-4.09-1.15-7.11-4.91-7.11-9.36c0-5.37,4.37-9.73,9.73-9.73c2.23,0,4.27,0.76,5.91,2.02
		c0.94,0.73,1.75,1.62,2.38,2.64c0.97-0.66,2.02-1.21,3.13-1.66c-0.63-1.06-1.39-2.02-2.27-2.86c-2.38-2.27-5.6-3.68-9.15-3.68
		c-7.32,0-13.27,5.95-13.27,13.27c0,4.61,2.37,8.68,5.95,11.06c-8.11,2.99-13.92,10.78-13.92,19.91h3.54
		c0-9.04,6.82-16.51,15.58-17.56C45.88,79.75,46.58,79.69,47.3,79.69z"/>
		<path class="st1" d="M102.41,65.09c3.58-2.38,5.95-6.45,5.95-11.06c0-7.32-5.95-13.27-13.27-13.27c-3.55,0-6.76,1.41-9.15,3.68
		c-0.88,0.84-1.65,1.8-2.27,2.86c1.1,0.45,2.15,1,3.13,1.66c0.63-1.02,1.43-1.91,2.38-2.64c1.64-1.26,3.69-2.02,5.91-2.02
		c5.37,0,9.73,4.37,9.73,9.73c0,3.92-2.34,7.3-5.69,8.84c0.15,0.84,0.24,1.7,0.24,2.58c0,0.8-0.09,1.59-0.21,2.36
		c7.8,1.85,13.62,8.84,13.62,17.2h3.54C116.32,75.87,110.52,68.09,102.41,65.09z"/>
		<path class="st1" d="M30.63,65.45c0-0.88,0.09-1.74,0.24-2.58c-3.35-1.54-5.69-4.91-5.69-8.84c0-5.37,4.37-9.73,9.73-9.73
		c2.23,0,4.27,0.76,5.91,2.02c0.94,0.73,1.75,1.62,2.38,2.64c0.97-0.66,2.02-1.21,3.13-1.66c-0.63-1.06-1.39-2.02-2.27-2.86
		c-2.38-2.27-5.6-3.68-9.15-3.68c-7.32,0-13.27,5.95-13.27,13.27c0,4.61,2.37,8.68,5.95,11.06C19.48,68.09,13.68,75.87,13.68,85
		h3.54c0-8.35,5.83-15.35,13.62-17.2C30.71,67.04,30.63,66.25,30.63,65.45z"/>
		<path class="st1" d="M65,44.3c4.73,0,8.64,3.41,9.51,7.89c1.94-1.17,3.34-1.43,3.34-1.43c-1.46-5.74-6.66-10-12.85-10
		c-6.19,0-11.39,4.26-12.85,10c0,0,1.4,0.26,3.34,1.43C56.36,47.71,60.27,44.3,65,44.3z"/>
	</g>
</svg>
