<?xml version="1.0" encoding="utf-8"?>
<!-- Generator: Adobe Illustrator 25.0.0, SVG Export Plug-In . SVG Version: 6.00 Build 0)  -->
<svg version="1.0" id="Capa_1"
	xmlns="http://www.w3.org/2000/svg"
	xmlns:xlink="http://www.w3.org/1999/xlink" x="0px" y="0px" viewBox="0 0 227 227" style="enable-background:new 0 0 227 227;" xml:space="preserve">
	<style type="text/css">
	.Follaje_GS{fill:#FFDD00;}
	.st0{clip-path:url(#SVGID_3_);}
	.st1{clip-path:url(#SVGID_5_);fill:#FFFFFF;}
	.st2{clip-path:url(#SVGID_5_);fill:#3E73B7;}
	.st3{clip-path:url(#SVGID_5_);}
	.st4{clip-path:url(#SVGID_7_);fill-rule:evenodd;clip-rule:evenodd;fill:#EAC126;}
	.st5{clip-path:url(#SVGID_7_);fill:#292C2F;}
	.st6{clip-path:url(#SVGID_7_);fill-rule:evenodd;clip-rule:evenodd;fill:#292C2F;}
	</style>
	<linearGradient id="SVGID_1_" gradientUnits="userSpaceOnUse" x1="0" y1="0" x2="0.7071" y2="0.7071">
	</linearGradient>
	<g>
		<defs>
			<circle id="SVGID_2_" cx="113.5" cy="113.5" r="113.5"/>
		</defs>
		<clipPath id="SVGID_3_">
			<use xlink:href="#SVGID_2_" style="overflow:visible;"/>
		</clipPath>
		<g id="Uruguay_2_" class="st0">
			<g>
				<g>
					<defs>
						<rect id="SVGID_4_" x="-1.2" y="1.12" width="418.78" height="244.29"/>
					</defs>
					<clipPath id="SVGID_5_">
						<use xlink:href="#SVGID_4_" style="overflow:visible;"/>
					</clipPath>
					<rect x="-1.2" y="1.12" class="st1" width="418.78" height="244.29"/>
					<path class="st2" d="M-1.2,218.27h418.78v-27.15H-1.2V218.27z M-1.2,163.98h418.78v-27.15H-1.2V163.98z M134.55,109.7h283.02
					V82.55H134.55V109.7z M134.55,55.41h283.02V28.27H134.55V55.41z"/>
					<g class="st3">
						<defs>
							<rect id="SVGID_6_" x="-1.2" y="1.12" width="418.78" height="244.29"/>
						</defs>
						<clipPath id="SVGID_7_">
							<use xlink:href="#SVGID_6_" style="overflow:visible;"/>
						</clipPath>
						<path class="st4" d="M66.87,69.18l1.18,20.06c-18.49,13.38-7.08,21.25-20.46,25.57c9.05-9.04-2.76-9.04,7.47-29.51"/>
						<path class="st5" d="M67.26,69.18l1.18,20.06h-0.78l-1.58-20.06H67.26z M68.44,89.24L68.44,89.24v0.4l-0.39-0.4H68.44z
						 M68.44,89.64c-9.83,7.08-11.01,12.58-12.2,16.52h-1.18c1.18-4.33,2.76-10.23,12.6-17.32L68.44,89.64z M56.24,106.16
						c-1.18,4.33-1.96,7.08-8.26,9.05l-0.39-0.79c5.9-1.97,6.69-4.72,7.47-8.26H56.24z M47.98,115.21l-1.97,0.78l1.18-1.18h0.4
						L47.98,115.21z M47.19,114.8c3.94-4.32,3.94-6.68,3.15-9.83h1.18c0.39,3.15,0.79,5.9-3.54,10.23L47.19,114.8z M50.35,104.98
						c-0.4-3.94-1.19-9.05,4.32-19.68l0.79,0.4c-5.11,10.62-4.72,15.34-3.93,19.28H50.35z"/>
						<path class="st5" d="M60.58,84.52c-4.72,8.26-5.91,14.56-6.3,19.67l-1.18-0.39c0.78-4.72,1.96-11.41,6.69-19.68L60.58,84.52z
						 M54.28,104.19c-0.79,5.12-1.58,9.05-6.3,11.02l-0.39-0.79c4.33-1.97,4.72-5.51,5.51-10.62L54.28,104.19z"/>
						<path class="st4" d="M66.87,69.18L65.3,48.72c18.5-13.37,7.08-21.25,20.46-25.57c-8.66,9.45,2.76,9.45-7.47,29.51"/>
						<path class="st5" d="M66.08,69.18L64.9,49.12l0.79-0.4l1.57,20.46H66.08z M64.9,49.12v-0.4h0.39L64.9,49.12z M64.9,48.72
						c9.84-7.08,11.41-12.58,12.2-16.91l1.19,0.39c-1.19,4.33-2.76,9.84-12.6,16.92L64.9,48.72z M77.1,31.81
						c1.19-3.94,1.97-7.09,8.27-9.06l0.39,0.79c-5.9,1.97-6.69,4.73-7.47,8.66L77.1,31.81z M85.37,22.75l1.97-0.39l-1.18,1.18
						l-0.39-0.39L85.37,22.75z M86.15,23.54c-3.94,4.33-3.94,6.3-3.15,9.45l-1.18,0.39c-0.39-3.54-0.79-5.9,3.54-10.63L86.15,23.54z
						 M83.01,32.99c0.39,3.93,1.18,9.05-4.32,20.06l-0.79-0.39c5.11-10.62,4.72-15.74,3.94-19.28L83.01,32.99z"/>
						<path class="st5" d="M72.78,53.44c4.72-8.26,5.9-14.55,6.69-19.27h0.78c-0.78,5.11-1.96,11.41-6.68,19.67L72.78,53.44z
						 M79.47,34.17c0.78-5.51,1.18-9.06,5.9-11.42l0.39,0.79c-4.32,1.97-4.72,5.52-5.51,10.63H79.47z"/>
						<path class="st4" d="M66.87,69.18l-20.46,1.18C33.03,51.87,25.16,63.28,20.84,49.9c9.44,9.05,9.05-2.36,29.51,7.48"/>
						<path class="st5" d="M66.87,69.57l-20.46,1.57v-1.18l20.06-1.18L66.87,69.57z M46.41,71.14L46.41,71.14l-0.4-0.39l0.4-0.39
						V71.14z M46.01,70.75c-6.69-9.83-12.2-11.01-16.53-12.19v-0.79c4.72,1.18,10.23,2.36,17.31,12.59L46.01,70.75z M29.49,58.56
						c-3.94-1.18-7.08-1.97-9.05-8.26l0.79-0.4c1.97,5.9,4.72,6.69,8.26,7.87V58.56z M20.44,50.3l-0.78-1.58l1.57,1.18h-0.39
						L20.44,50.3z M21.23,49.9c4.33,3.94,6.29,3.54,9.45,3.15l0.39,0.79c-3.55,0.39-5.91,0.78-10.62-3.54L21.23,49.9z M30.67,53.05
						c3.93-0.79,9.05-1.57,20.07,3.93l-0.79,0.79c-10.62-5.11-15.35-4.33-18.89-3.93L30.67,53.05z"/>
						<path class="st5" d="M51.14,63.28c-8.27-5.12-14.56-5.9-19.28-6.69v-1.18c5.11,0.79,11.41,1.97,19.67,7.08L51.14,63.28z
						 M31.85,56.59c-5.51-0.79-9.05-1.57-11.41-6.29l0.79-0.4c1.97,4.33,5.51,5.12,10.63,5.51V56.59z"/>
						<path class="st4" d="M66.87,69.18l20.07-1.58c13.39,18.49,21.25,7.48,25.58,20.46c-9.44-8.66-9.05,2.76-29.51-7.48"/>
						<path class="st5" d="M66.47,68.78l20.46-1.57V68l-20.07,1.57L66.47,68.78z M86.94,67.21L86.94,67.21h0.4l-0.4,0.39V67.21z
						 M87.34,67.21c6.69,9.83,12.2,11.41,16.53,12.59v0.78C99.14,79.39,93.63,77.83,86.55,68L87.34,67.21z M103.86,79.8
						c3.94,0.78,7.08,1.57,9.05,8.26h-0.79c-1.97-5.9-4.72-6.69-8.26-7.48V79.8z M112.91,88.06l0.79,1.58l-1.58-1.18l0.39-0.4
						H112.91z M112.13,88.46c-3.94-3.94-6.29-3.55-9.44-3.16l-0.39-0.78c3.54-0.79,5.9-1.18,10.63,3.14L112.13,88.46z M102.68,85.29
						c-3.94,0.4-9.05,1.18-19.68-4.32l0.39-0.79c10.63,5.51,15.35,4.72,18.89,4.33L102.68,85.29z"/>
						<path class="st5" d="M82.22,75.08c8.27,4.72,14.56,5.9,19.68,6.68l-0.39,0.79c-4.73-0.79-11.42-1.57-19.68-6.69L82.22,75.08z
						 M101.89,81.75c5.12,0.79,8.66,1.18,11.02,6.3l-0.79,0.4c-1.97-4.73-5.51-5.12-10.62-5.91L101.89,81.75z"/>
						<path class="st4" d="M66.87,69.18L53.49,84.52c-22.82-3.94-20.46,9.84-32.66,3.54c12.98-0.4,4.72-8.26,25.96-15.74"/>
						<path class="st5" d="M66.87,69.18L53.88,84.52l-0.78-0.4l13.37-15.34L66.87,69.18z M53.88,84.52l-0.39,0.39v-0.39H53.88z
						 M53.49,84.91c-11.8-1.97-16.92,0.79-20.46,3.15l-0.79-0.78c3.94-2.37,9.05-5.52,21.25-3.55V84.91z M33.03,88.06
						c-3.54,1.97-6.29,3.54-12.59,0.4l0.4-0.8c5.9,2.76,8.26,1.58,11.4-0.38L33.03,88.06z M20.44,88.46l-1.57-0.8h1.97v0.4
						L20.44,88.46z M20.84,87.65c5.9-0.38,7.08-1.96,9.05-4.72l0.79,0.79c-1.97,2.75-3.55,4.73-9.84,4.73V87.65z M29.88,82.94
						c2.36-3.14,5.51-7.08,16.92-11.01l0.39,0.79c-11.41,3.93-14.56,7.86-16.52,11.01L29.88,82.94z"/>
						<path class="st5" d="M51.53,75.85c-9.45,2.36-14.56,6.3-18.5,9.05l-0.39-0.79c3.94-2.75,9.05-6.68,18.5-9.04L51.53,75.85z
						 M33.03,84.91c-4.32,3.15-7.09,5.51-12.19,3.55v-0.8c4.72,1.58,7.47-0.38,11.8-3.54L33.03,84.91z"/>
						<path class="st4" d="M66.87,69.18l12.99-15.34c22.82,3.54,20.47-10.23,32.66-3.94c-12.98,0.4-4.72,8.66-25.97,15.74"/>
						<path class="st5" d="M66.47,68.78l12.99-15.34l0.78,0.79L66.87,69.18L66.47,68.78z M79.47,53.44h0.39v0.4L79.47,53.44z
						 M79.86,53.44c11.81,1.97,16.91-1.18,20.47-3.14l0.78,0.78c-3.94,2.36-9.05,5.12-21.25,3.15V53.44z M100.32,50.3
						c3.93-2.36,6.29-3.54,12.59-0.79l-0.4,0.79c-5.9-2.76-8.26-1.18-11.41,0.78L100.32,50.3z M112.91,49.51l1.57,0.79l-1.97,0.39
						V49.9L112.91,49.51z M112.51,50.69c-5.9,0-7.08,1.97-9.05,4.33l-0.78-0.4c2.36-2.75,3.54-4.72,9.83-5.11V50.69z M103.47,55.02
						c-2.36,3.14-5.5,7.08-16.92,11.01l-0.39-0.79c11.42-3.54,14.56-7.86,16.53-10.62L103.47,55.02z"/>
						<path class="st5" d="M81.83,62.1c9.44-1.97,14.56-5.9,18.5-9.05l0.39,0.79c-3.94,3.14-9.05,7.08-18.5,9.44L81.83,62.1z
						 M100.32,53.05c4.32-3.15,7.47-5.11,12.19-3.54v0.79c-4.72-1.58-7.47,0.78-11.8,3.54L100.32,53.05z"/>
						<path class="st4" d="M66.87,69.18L51.53,55.8c3.54-22.81-10.23-20.45-3.94-32.65c0.39,12.99,8.65,4.73,15.74,25.97"/>
						<path class="st5" d="M66.47,69.57L51.14,56.2l0.78-0.79l14.95,13.37L66.47,69.57z M51.14,56.2L51.14,56.2v-0.4h0.39L51.14,56.2
						z M51.14,55.8c1.57-11.8-1.19-16.91-3.15-20.45l0.79-0.39c1.97,3.93,5.11,8.65,3.15,20.84H51.14z M47.98,35.35
						c-2.36-3.54-3.94-6.29-0.79-12.2l0.79,0.39c-2.75,5.52-1.18,7.88,0.79,11.42L47.98,35.35z M47.19,23.15l0.79-1.58v1.58h-0.39
						H47.19z M47.98,23.15c0.4,5.91,1.97,7.09,4.72,9.05l-0.39,0.79c-2.75-1.97-4.72-3.54-5.12-9.84H47.98z M52.7,32.2
						c3.15,2.36,7.09,5.51,11.02,16.92l-0.78,0.39C59,38.1,55.06,35.35,52.31,32.99L52.7,32.2z"/>
						<path class="st5" d="M59.79,53.84c-1.97-9.44-5.91-14.56-9.05-18.49l0.79-0.39c3.14,3.93,7.09,9.04,9.45,18.88H59.79z
						 M50.74,35.35c-3.15-4.33-5.12-7.08-3.55-12.2h0.79c-1.57,4.72,0.4,7.48,3.54,11.81L50.74,35.35z"/>
						<path class="st4" d="M66.87,69.18l14.96,12.98c-3.54,22.82,10.23,20.46,3.93,32.65c-0.39-12.59-8.66-4.32-15.74-25.97"/>
						<path class="st5" d="M66.87,68.78l15.35,12.98l-0.39,0.79L66.47,69.57L66.87,68.78z M82.22,81.75l0.4,0.4l-0.4,0.39l-0.39-0.39
						L82.22,81.75z M82.22,82.55c-1.57,11.81,1.18,16.53,3.15,20.46l-0.79,0.39c-1.97-3.93-5.11-9.04-3.15-21.24L82.22,82.55z
						 M85.37,103.01c2.35,3.54,3.93,6.3,0.78,12.2l-0.78-0.4c2.75-5.5,1.18-8.26-0.79-11.41L85.37,103.01z M86.15,115.21l-0.78,1.57
						v-1.97h0.39L86.15,115.21z M85.37,114.8c-0.4-5.5-1.97-7.08-4.72-9.04l0.39-0.4c2.75,1.97,4.72,3.15,5.11,9.44H85.37z
						 M80.65,105.77c-3.15-1.97-7.08-5.12-11.02-16.94h0.79c3.93,11.02,7.87,14.17,10.62,16.53L80.65,105.77z"/>
						<path class="st5" d="M73.56,84.11c2.36,9.45,5.9,14.56,9.05,18.5l-0.79,0.78c-3.15-4.32-7.08-9.44-9.05-18.88L73.56,84.11z
						 M82.61,102.62c3.14,4.33,5.11,7.47,3.54,12.59l-0.78-0.4c1.57-4.72-0.4-7.47-3.54-11.41L82.61,102.62z"/>
						<polyline class="st4" points="66.87,69.18 75.53,69.18 66.87,118.75 57.82,69.18 66.87,69.18 66.87,118.75 					"/>
						<path class="st5" d="M66.87,68.78h8.66v0.79h-8.66V68.78z M75.53,68.78h0.78v0.4h-0.78V68.78z M76.31,69.18l-9.05,49.57h-1.18
						l9.05-49.57H76.31z M67.26,118.75l-0.39,2.36l-0.79-2.36h0.79H67.26z M66.08,118.75l-9.04-49.57h1.18l9.04,49.57H66.08z
						 M57.04,68.78h0.78v0.4h-0.78V68.78z M57.82,68.78h9.05v0.79h-9.05V68.78z M66.87,68.78h0.39v0.4h-0.39V68.78z M67.26,118.75
						h-1.18V69.18h1.18V118.75z"/>
						<polyline class="st4" points="66.87,69.18 57.82,69.18 66.87,19.21 75.53,69.18 66.87,69.18 66.87,19.21 					"/>
						<path class="st5" d="M66.87,69.57h-9.05v-0.79h9.05V69.57z M57.82,69.57h-0.78v-0.39h0.78V69.57z M57.04,69.18l9.04-49.97
						l1.18,0.4l-9.04,49.57H57.04z M66.08,19.21l0.79-2.36l0.39,2.36h-0.39H66.08z M67.26,19.21l9.05,49.97h-1.18l-9.05-49.57
						L67.26,19.21z M76.31,69.57h-0.78v-0.39h0.78V69.57z M75.53,69.57h-8.66v-0.79h8.66V69.57z M66.87,69.57h-0.79v-0.39h0.79
						V69.57z M66.08,19.21h1.18v49.97h-1.18V19.21z"/>
						<polyline class="st4" points="66.87,69.18 66.87,78.21 16.89,69.18 66.87,60.13 66.87,69.18 16.89,69.18 					"/>
						<path class="st5" d="M67.26,78.21h-1.18v-9.04h1.18V78.21z M67.26,78.21v0.4h-0.79l0.39-0.4H67.26z M66.47,78.62l-49.58-9.05
						l0.4-0.79l49.58,9.05L66.47,78.62z M16.89,69.57l-2.36-0.39l2.36-0.4v0.4V69.57z M16.89,68.78l49.58-9.04l0.39,0.78
						l-49.58,9.05L16.89,68.78z M66.47,59.74l0.79-0.4v0.79h-0.39L66.47,59.74z M67.26,69.18h-1.18v-9.05h1.18V69.18z M67.26,69.57
						h-0.39v-0.39h0.39V69.57z M66.87,69.57H16.89v-0.79h49.98V69.57z"/>
						<polyline class="st4" points="66.87,69.18 66.87,60.13 116.45,69.18 66.87,78.21 66.87,69.18 116.45,69.18 					"/>
						<path class="st5" d="M66.08,60.13h1.18v9.05h-1.18V60.13z M66.08,60.13v-0.79l0.79,0.4v0.39H66.08z M66.87,59.74l49.58,9.04
						l-0.39,0.79l-49.59-9.05L66.87,59.74z M116.45,68.78l2.37,0.4l-2.37,0.39v-0.39V68.78z M116.45,69.57l-49.58,9.05l-0.39-0.79
						l49.59-9.05L116.45,69.57z M66.87,78.62h-0.79v-0.4h0.79V78.62z M66.08,69.18h1.18v9.04h-1.18V69.18z M66.08,68.78h0.79v0.4
						h-0.79V68.78z M66.87,68.78h49.58v0.79H66.87V68.78z"/>
						<polyline class="st4" points="66.87,69.18 73.17,75.47 31.46,104.19 60.18,62.49 66.87,69.18 31.46,104.19 					"/>
						<path class="st5" d="M66.87,68.78l6.69,6.3l-0.79,0.78l-6.3-6.29L66.87,68.78z M73.56,75.08l0.39,0.39l-0.79,0.39v-0.39
						L73.56,75.08z M73.17,75.85l-41.32,28.72l-0.39-0.78l41.32-28.72L73.17,75.85z M31.85,104.57l-1.97,1.58l1.18-2.36l0.39,0.39
						L31.85,104.57z M31.06,103.8l28.73-41.31l0.78,0.39l-28.73,41.7L31.06,103.8z M59.79,62.49l0.39-0.39l0.39,0.39h-0.39H59.79z
						 M60.58,62.49l6.29,6.29l-0.39,0.79l-6.68-6.69L60.58,62.49z M66.87,68.78l0.39,0.4l-0.39,0.39v-0.39V68.78z M66.87,69.57
						l-35.02,35.01l-0.39-0.78l35.02-35.02L66.87,69.57z"/>
						<polyline class="st4" points="66.87,69.18 60.18,62.49 101.89,33.78 73.17,75.47 66.87,69.18 101.89,33.78 					"/>
						<path class="st5" d="M66.47,69.57l-6.68-6.69l0.78-0.39l6.29,6.29L66.47,69.57z M59.79,62.88v-0.39h0.39L59.79,62.88z
						 M60.18,62.49l41.32-29.11l0.39,0.79L60.58,62.88L60.18,62.49z M101.5,33.38l1.96-1.18l-1.18,1.97l-0.39-0.39L101.5,33.38z
						 M102.29,34.17L73.56,75.85l-0.79-0.78l28.73-41.3L102.29,34.17z M73.56,75.85l-0.4,0.4l-0.39-0.4l0.39-0.39L73.56,75.85z
						 M72.78,75.85l-6.3-6.29l0.39-0.79l6.69,6.3L72.78,75.85z M66.47,69.57l-0.39-0.39l0.39-0.4l0.39,0.4L66.47,69.57z
						 M66.47,68.78l35.03-34.99l0.78,0.39l-35.42,35.4L66.47,68.78z"/>
						<polyline class="st4" points="66.87,69.18 60.18,75.47 31.46,33.78 73.17,62.49 66.87,69.18 31.46,33.78 					"/>
						<path class="st5" d="M66.87,69.57l-6.29,6.29l-0.78-0.78l6.68-6.3L66.87,69.57z M60.58,75.85l-0.39,0.4l-0.39-0.4l0.39-0.39
						L60.58,75.85z M59.79,75.85L31.06,34.17l0.79-0.39l28.73,41.3L59.79,75.85z M31.06,34.17l-1.18-1.97l1.97,1.18l-0.39,0.4
						L31.06,34.17z M31.85,33.38l41.32,29.11l-0.39,0.39L31.46,34.17L31.85,33.38z M73.17,62.49h0.79l-0.39,0.39L73.17,62.49z
						 M73.56,62.88l-6.69,6.69l-0.39-0.79l6.3-6.29L73.56,62.88z M66.87,69.57L66.87,69.57h-0.39l0.39-0.39V69.57z M66.47,69.57
						l-35.02-35.4l0.39-0.39l35.02,34.99L66.47,69.57z"/>
						<polyline class="st4" points="66.87,69.18 73.17,62.49 101.89,104.19 60.18,75.47 66.87,69.18 101.89,104.19 					"/>
						<path class="st5" d="M66.47,68.78l6.3-6.29l0.79,0.39l-6.69,6.69L66.47,68.78z M72.78,62.49l0.39-0.39l0.4,0.39h-0.4H72.78z
						 M73.56,62.49l28.72,41.31l-0.78,0.78l-28.73-41.7L73.56,62.49z M102.29,103.8l1.18,2.36l-1.96-1.58l0.39-0.39L102.29,103.8z
						 M101.5,104.57L60.18,75.85l0.39-0.78l41.32,28.72L101.5,104.57z M60.18,75.85l-0.39-0.39v-0.39l0.39,0.39V75.85z M59.79,75.08
						l6.68-6.3l0.39,0.79l-6.29,6.29L59.79,75.08z M66.47,68.78l0.39-0.39v0.39v0.4L66.47,68.78z M66.87,68.78l35.42,35.02
						l-0.78,0.78L66.47,69.57L66.87,68.78z"/>
						<path class="st4" d="M83.39,69.18c0-9.44-7.47-16.52-16.53-16.52c-9.44,0-16.92,7.08-16.92,16.52
						c0,9.04,7.48,16.52,16.92,16.52C75.92,85.7,83.39,78.21,83.39,69.18"/>
						<path class="st5" d="M82.61,69.18c0-4.72-1.58-8.66-4.72-11.41l0.79-0.79c3.15,3.15,5.11,7.48,5.11,12.2H82.61z M77.89,57.77
						c-2.76-3.15-6.69-4.72-11.02-4.72v-1.18c4.33,0,8.66,1.97,11.81,5.11L77.89,57.77z M66.87,53.05c-4.72,0-8.65,1.57-11.41,4.72
						l-0.79-0.79c3.15-3.14,7.48-5.11,12.2-5.11V53.05z M55.46,57.77c-3.14,2.75-4.72,6.69-4.72,11.41h-1.18
						c0-4.72,1.97-9.05,5.11-12.2L55.46,57.77z M50.74,69.18c0,4.32,1.58,8.26,4.72,11.4l-0.79,0.4c-3.14-3.15-5.11-7.08-5.11-11.8
						H50.74z M55.46,80.58c2.76,2.76,6.69,4.72,11.41,4.72v0.79c-4.72,0-9.05-1.97-12.2-5.11L55.46,80.58z M66.87,85.29
						c4.33,0,8.26-1.96,11.02-4.72l0.79,0.4c-3.15,3.14-7.48,5.11-11.81,5.11V85.29z M77.89,80.58c3.15-3.14,4.72-7.08,4.72-11.4
						h1.18c0,4.72-1.97,8.65-5.11,11.8L77.89,80.58z"/>
						<path class="st6" d="M78.68,62.49c-0.79,1.18-1.58-0.79-5.12-0.79c-3.94,0-4.33,1.97-5.12,1.58c-0.39-0.4,3.15-3.15,4.33-3.15
						C73.96,59.74,77.5,60.92,78.68,62.49"/>
						<path class="st6" d="M74.35,63.67c1.19,1.18,0.4,3.15-0.78,3.15c-1.19,0-3.15-1.97-1.97-3.15"/>
						<path class="st6" d="M69.63,65.24c0-1.96,1.57-2.36,3.94-2.36c2.36,0,3.54,1.97,4.33,2.36c-0.79,0-1.97-1.57-4.33-1.57
						C71.2,63.67,71.2,63.67,69.63,65.24"/>
						<path class="st6" d="M70.02,65.64c0.39-0.79,1.18,0.78,3.15,0.78c1.58,0,2.36-0.39,3.54-1.18c0.79-0.78-1.58,1.97-3.15,1.97
						C71.99,67.21,69.63,66.03,70.02,65.64"/>
						<path class="st6" d="M75.13,66.42c1.97-0.78,0.79-2.36,0-2.75C75.53,64.06,76.71,65.64,75.13,66.42"/>
						<path class="st6" d="M66.87,75.47c0.79,0,1.18-0.39,2.37-0.39c1.18,0,3.93,1.96,5.51,1.18c-3.54,1.57-1.97,0.39-7.87,0.39
						h-0.79"/>
						<path class="st6" d="M75.53,77.83c-0.79-1.18-0.4-0.79-1.97-2.75C75.13,76.26,75.13,76.65,75.53,77.83"/>
						<path class="st6" d="M66.87,79.01c3.55,0,3.15-0.79,7.87-2.75c-3.54,0.39-4.33,1.57-7.87,1.57h-0.79"/>
						<path class="st6" d="M66.87,73.5c0.79,0,1.18-0.78,2.37-0.78c1.18,0,2.75,0.39,3.54,1.18c0.39,0-0.4-1.18-1.58-1.18
						c-1.18-0.4-0.78-2.36-1.96-2.76c0,0.79,0.39,0.79,0.39,1.58c0,0.78-1.18,0.78-1.58,0c0.39,1.18-0.78,1.18-1.18,1.18"/>
						<path class="st6" d="M54.67,62.49c0.79,1.18,1.57-0.79,5.12-0.79c3.93,0,4.32,1.97,5.11,1.58c0.39-0.4-3.15-3.15-4.32-3.15
						C59.4,59.74,55.85,60.92,54.67,62.49"/>
						<path class="st6" d="M59,63.67c-1.18,1.18-0.39,3.15,0.79,3.15c1.18,0,3.15-1.97,1.96-3.15"/>
						<path class="st6" d="M63.72,65.24c0-1.96-1.57-2.36-3.93-2.36c-2.36,0-3.55,1.97-4.33,2.36c1.18,0,1.97-1.57,4.33-1.57
						C62.15,63.67,62.15,63.67,63.72,65.24"/>
						<path class="st6" d="M63.33,65.64c-0.39-0.79-1.18,0.78-3.15,0.78c-1.57,0-2.36-0.39-3.55-1.18c-0.78-0.78,1.58,1.97,3.16,1.97
						C61.76,67.21,63.72,66.03,63.33,65.64"/>
						<path class="st6" d="M58.22,66.42c-1.98-0.78-0.79-2.36,0-2.75C57.82,64.06,56.64,65.64,58.22,66.42"/>
						<path class="st6" d="M66.87,75.47c-1.18,0-1.57-0.39-2.75-0.39c-1.18,0-3.94,1.96-5.51,1.18c3.54,1.57,1.97,0.39,8.26,0.39
						h0.39"/>
						<path class="st6" d="M57.82,77.83c0.79-1.18,0.79-0.79,1.97-2.75C58.61,76.26,58.22,76.65,57.82,77.83"/>
						<path class="st6" d="M66.87,79.01c-3.93,0-3.15-0.79-8.26-2.75c3.54,0.39,4.33,1.57,8.26,1.57h0.39"/>
						<path class="st6" d="M66.87,73.5c-1.18,0-1.57-0.78-2.75-0.78c-1.18,0-2.76,0.39-3.54,1.18c-0.39,0,0.39-1.18,1.57-1.18
						c1.18-0.4,0.79-2.36,1.97-2.76c0,0.79-0.39,0.79-0.39,1.58c0,0.78,1.18,0.78,1.57,0c-0.39,1.18,0.78,1.18,1.57,1.18"/>
						<path class="st6" d="M66.87,80.58c-0.79,0-2.75,0.4,0,0.4C69.24,80.98,67.26,80.58,66.87,80.58"/>
					</g>
				</g>
			</g>
		</g>
	</g>
</svg>
