<?xml version="1.0" encoding="utf-8"?>
<!-- Generator: Adobe Illustrator 25.0.0, SVG Export Plug-In . SVG Version: 6.00 Build 0)  -->
<svg version="1.0" id="Capa_1" xmlns="http://www.w3.org/2000/svg" xmlns:xlink="http://www.w3.org/1999/xlink" x="0px" y="0px"
	 viewBox="0 0 227 227" style="enable-background:new 0 0 227 227;" xml:space="preserve">
<style type="text/css">
	.st0{clip-path:url(#SVGID_3_);}
	.st1{fill:#FFDA00;}
	.st2{fill:url(#SVGID_4_);}
	.st3{fill:url(#SVGID_5_);}
	.st4{fill:#FFFFFF;}
</style>
<linearGradient id="SVGID_1_" gradientUnits="userSpaceOnUse" x1="0" y1="0" x2="0.7071" y2="0.7071">
	<stop  offset="0" style="stop-color:#E6E6EB"/>
	<stop  offset="0.1754" style="stop-color:#E2E2E7"/>
	<stop  offset="0.3552" style="stop-color:#D6D6DB"/>
	<stop  offset="0.5371" style="stop-color:#C2C3C6"/>
	<stop  offset="0.7204" style="stop-color:#A5A7A9"/>
	<stop  offset="0.9031" style="stop-color:#818485"/>
	<stop  offset="1" style="stop-color:#6B6E6E"/>
</linearGradient>
<g>
	<g>
		<defs>
			
				<ellipse id="SVGID_2_" transform="matrix(0.9994 -0.0332 0.0332 0.9994 -3.7095 3.8349)" cx="113.5" cy="113.5" rx="113.5" ry="113.5"/>
		</defs>
		<clipPath id="SVGID_3_">
			<use xlink:href="#SVGID_2_"  style="overflow:visible;"/>
		</clipPath>
		<g class="st0">
			<rect x="-20.13" y="-2.98" class="st1" width="274.61" height="78.77"/>
			<linearGradient id="SVGID_4_" gradientUnits="userSpaceOnUse" x1="-20.1296" y1="114.6475" x2="254.4769" y2="114.6475">
				<stop  offset="0" style="stop-color:#000B59"/>
				<stop  offset="0.2671" style="stop-color:#001D7C"/>
				<stop  offset="0.355" style="stop-color:#002389"/>
				<stop  offset="0.5146" style="stop-color:#00248B"/>
				<stop  offset="0.666" style="stop-color:#00238A"/>
				<stop  offset="1" style="stop-color:#000B59"/>
			</linearGradient>
			<rect x="-20.13" y="75.26" class="st2" width="274.61" height="78.77"/>
			<linearGradient id="SVGID_5_" gradientUnits="userSpaceOnUse" x1="-20.1296" y1="192.8895" x2="254.4769" y2="192.8895">
				<stop  offset="0" style="stop-color:#CF1400"/>
				<stop  offset="1" style="stop-color:#CF1400"/>
			</linearGradient>
			<rect x="-20.13" y="153.5" class="st3" width="274.61" height="78.77"/>
		</g>
	</g>
	<g>
		<polygon class="st4" points="61,123.05 63.06,128.33 68.72,128.65 64.33,132.24 65.77,137.72 61,134.65 56.24,137.72 
			57.68,132.24 53.29,128.65 58.95,128.33 		"/>
		<polygon class="st4" points="73.49,106.24 73.65,111.9 78.87,114.1 73.53,116.01 73.05,121.66 69.59,117.17 64.07,118.45 
			67.27,113.78 64.34,108.92 69.78,110.52 		"/>
		<polygon class="st4" points="90.64,95.1 88.72,100.43 92.78,104.39 87.11,104.21 84.6,109.3 83.02,103.85 77.41,103.03 
			82.1,99.85 81.15,94.26 85.63,97.74 		"/>
		<polygon class="st4" points="111.19,89.56 107.82,94.12 110.57,99.07 105.19,97.27 101.33,101.42 101.38,95.75 96.24,93.36 
			101.65,91.65 102.34,86.03 105.63,90.64 		"/>
		<polygon class="st4" points="168.61,123.05 166.56,128.33 160.9,128.65 165.29,132.24 163.84,137.72 168.61,134.65 173.38,137.72 
			171.93,132.24 176.32,128.65 170.66,128.33 		"/>
		<polygon class="st4" points="156.12,106.24 155.96,111.9 150.74,114.1 156.08,116.01 156.56,121.66 160.02,117.17 165.54,118.45 
			162.34,113.78 165.27,108.92 159.83,110.52 		"/>
		<polygon class="st4" points="138.97,95.1 140.89,100.43 136.83,104.39 142.5,104.21 145.01,109.3 146.59,103.85 152.2,103.03 
			147.51,99.85 148.47,94.26 143.99,97.74 		"/>
		<polygon class="st4" points="118.42,89.56 121.79,94.12 119.04,99.07 124.42,97.27 128.29,101.42 128.24,95.75 133.37,93.36 
			127.97,91.65 127.28,86.03 123.98,90.64 		"/>
	</g>
</g>
</svg>
