<svg id="Capa_1" data-name="Capa 1"
    xmlns="http://www.w3.org/2000/svg" viewBox="0 0 25 27">
    <defs>
        <style>.cls-1{fill:#2a2a2a;}</style>
    </defs>
    <path class="cls-1" d="M9,9.22A4.07,4.07,0,1,0,3,9.22C1.3,10.58.55,12.33.29,15.48c0,1.37,0,2.9,1.77,3.2l.7,3.51c.46,1.86,1.73,3.06,3.23,3.06s2.77-1.2,3.24-3.1l.69-3.47c1.77-.3,1.77-1.84,1.76-3.27C11.43,12.33,10.68,10.58,9,9.22ZM6,4.09A2.44,2.44,0,1,1,3.55,6.53,2.44,2.44,0,0,1,6,4.09Zm3.26,13a.81.81,0,0,0-.8.65l-.81,4C7.36,22.9,6.72,23.62,6,23.62s-1.37-.72-1.64-1.79l-.82-4.07a.8.8,0,0,0-.79-.65c-.82,0-.82,0-.82-1.56.25-3.06,1-4.2,2.14-5.13a.67.67,0,0,0,.14-.15l.06-.07a3.84,3.84,0,0,0,.51.19l.68,1L4.36,14.12,6,16.29l1.63-2.17L6.53,11.41l.68-1a3.84,3.84,0,0,0,.51-.19l.06.07a.67.67,0,0,0,.14.15c1.16.93,1.89,2.07,2.14,5.06C10.06,17.11,10.06,17.11,9.25,17.11Z"/>
    <path class="cls-1" d="M18.2,14.67l.1,0a3.25,3.25,0,1,0,0-1.58l-.1,0H16.57V6.53H18.2l.1,0a3.26,3.26,0,1,0,0-1.59l-.1,0H15.75a.82.82,0,0,0-.81.82V13H13.31a.81.81,0,0,0-.81.81.82.82,0,0,0,.81.82h1.63V22a.81.81,0,0,0,.81.81H18.2l.1,0a3.25,3.25,0,1,0,0-1.58l-.1,0H16.57V14.67Zm3.25-2.44a1.63,1.63,0,1,1-1.63,1.62A1.63,1.63,0,0,1,21.45,12.23Zm0-8.14a1.63,1.63,0,1,1-1.63,1.63A1.63,1.63,0,0,1,21.45,4.09Zm0,16.27A1.63,1.63,0,1,1,19.82,22,1.63,1.63,0,0,1,21.45,20.36Z"/>
</svg>