<svg xmlns="http://www.w3.org/2000/svg" width="68.865" height="22.292" viewBox="0 0 68.865 22.292"><defs><style>.a{fill:#00239e;}.b{fill:#ffa900;}</style></defs><path class="a" d="M783.187,310.183c-5.516,0-9.39,2.933-9.424,7.126-.036,3.107,2.771,4.839,4.881,5.872,2.178,1.056,2.905,1.733,2.9,2.678-.022,1.448-1.741,2.108-3.341,2.108a11.175,11.175,0,0,1-5.244-1.13l-.724-.343-.78,4.832a16.924,16.924,0,0,0,6.216,1.15c5.853,0,9.661-2.9,9.707-7.376.023-2.464-1.465-4.328-4.686-5.868-1.944-1-3.147-1.665-3.128-2.679,0-.9,1.008-1.857,3.2-1.857a9.761,9.761,0,0,1,4.172.83l.5.248.758-4.681a13.776,13.776,0,0,0-5-.91Zm-17.317.378-3.489,21.6h5.575l3.49-21.6H765.87Zm-8.167.02L752.245,325.3l-.582-2.991c-1.359-3.667-4.3-7.513-7.728-9.073l4.993,18.9,5.9,0,8.777-21.551Zm40.475,0a2.76,2.76,0,0,0-2.926,1.793l-8.277,19.788h5.856s.958-2.664,1.175-3.247c.638,0,6.327.012,7.138.012.173.754.679,3.235.679,3.235H807l-4.516-21.581Zm.395,5.822.371,1.863s1.072,5.152,1.3,6.232h-4.63c.463-1.241,2.222-6.037,2.222-6.037-.034.059.457-1.25.741-2.058Z" transform="translate(-738.137 -310.183)"/><path class="b" d="M749.266,310.431h-8.994l-.053.371c6.992,1.788,11.606,6.181,13.527,11.373l-1.955-9.925a2.339,2.339,0,0,0-2.525-1.819" transform="translate(-740.219 -310.044)"/></svg>