<?xml version="1.0" encoding="utf-8"?>
<!-- Generator: Adobe Illustrator 24.2.3, SVG Export Plug-In . SVG Version: 6.00 Build 0)  -->
<svg version="1.1" id="Capa_1" xmlns="http://www.w3.org/2000/svg" xmlns:xlink="http://www.w3.org/1999/xlink" x="0px" y="0px"
	 viewBox="0 0 86 114" style="enable-background:new 0 0 86 114;" xml:space="preserve">
<style type="text/css">
	.st0{fill:#FFFFFF;}
</style>
<g>
	<path class="st0" d="M38,65.4c0-0.4,0.1-0.8,0.2-1.2c-0.2-0.4-0.3-0.8-0.4-1.3c0.1,0.3,0.3,0.6,0.5,0.9c1.3,1.9,3.4,3.1,5.9,3.1
		c0.3,0,0.7,0,1-0.1c0.6-0.1,1.1-0.2,1.7-0.4c-0.6,0.5-1.2,0.8-2,1c-0.7,1-1.8,1.7-3.1,1.7C39.7,69.2,38,67.5,38,65.4z"/>
	<polygon class="st0" points="59.6,79.4 57.6,78.1 61.2,78.7 	"/>
	<path class="st0" d="M85,29v55l-47.6,27.5L6.9,93.9c5.4-4,9.9-9.3,13-15.4c0.1,0,0.2-0.2,0.5-0.6c5.5,5.7,13.1,9.2,21.6,9.2
		c1.1,0,2.1-0.1,3.2-0.2c2.1,1.9,4.8,3,7.8,3c2.8,0,5.4-1,7.4-2.7c-0.2,0-0.3,0-0.4,0c-2.5,0-4.8-0.9-6.5-2.5c0,0-0.1-0.1-0.1-0.1
		c0.1,0,0.1,0.1,0.2,0.1c1.3,0.6,2.7,0.9,4.2,0.9c2,0,3.8-0.6,5.4-1.6c1-1.7,1.6-3.7,1.6-5.8c0-0.5,0-0.9-0.1-1.4
		C72.1,71.8,77,63.1,77,53.3c0-8.1-3.3-15.4-8.7-20.6c1.2,2.7,1.9,5.7,1.9,8.9c0,9.9-6.7,18.3-15.8,20.8c0,0-0.1,0-0.1,0
		c0,0,0,0,0,0c0,0,0,0,0.1-0.1c1-0.8,1.9-1.9,2.5-3.1c0.6-1.2,0.9-2.5,0.9-3.9c0-2.3-0.9-4.4-2.3-6c0,0.3,0.1,0.6,0.1,0.9
		c0,4.5-3.6,8.1-8.1,8.1c-3.5,0-6.7-1.6-7.8-2.2c-3.7-2.4-6.7-5.8-8.6-9.8c-0.7-1.4-0.9-2.9-1-4.5c0-0.1,0-0.1,0-0.2
		c0-2.8,1.2-4.9,3.4-6.6c-0.1-2.4-1.5-4.3-3.5-5.4c0,0,0,0,0,0c-1-0.5-2.1-0.8-3.2-0.8c-1.2,0-2.4,0.3-3.4,0.9c0,0.3,0,0.5,0,0.8
		c0,3.1-1.7,5.7-4.3,7c-2.5-4.5-5.9-8.5-9.8-11.8c-1.9-1.6-4-3.1-6.2-4.4L37.4,1.6L85,29z"/>
</g>
</svg>
