<svg xmlns="http://www.w3.org/2000/svg" xmlns:xlink="http://www.w3.org/1999/xlink" width="139" height="139" viewBox="0 0 139 139"><defs><style>.a,.e{fill:#fff;}.a{stroke:#707070;}.b{clip-path:url(#a);}.c{fill:url(#b);}.d{fill:#bdd0fb;}.e{opacity:0.36;}.f{fill:url(#c);}.g{fill:url(#d);}.h{fill:url(#e);}.i{fill:url(#f);}.j{fill:url(#g);}.k{fill:url(#h);}.l{fill:url(#i);}.m{fill:#c2c2c2;}.n{fill:url(#j);}.o{fill:url(#k);}.p{fill:url(#l);}.q{fill:url(#m);}.r{fill:url(#n);}.s{fill:url(#o);}.t{fill:url(#p);}.u{fill:#999;}.v{fill:url(#q);}.w{fill:url(#r);}.x{fill:url(#s);}</style><clipPath id="a"><rect class="a" width="139" height="139" transform="translate(0.316 0)"/></clipPath><linearGradient id="b" x1="1.479" y1="0.415" x2="0.743" y2="-0.379" gradientUnits="objectBoundingBox"><stop offset="0" stop-color="#dae3fe"/><stop offset="1" stop-color="#e9effd"/></linearGradient><linearGradient id="c" y1="0.5" x2="1" y2="0.5" gradientUnits="objectBoundingBox"><stop offset="0" stop-color="#2b3582"/><stop offset="1" stop-color="#150e42"/></linearGradient><linearGradient id="d" x1="0.897" y1="0.261" x2="1.413" y2="-0.141" gradientUnits="objectBoundingBox"><stop offset="0" stop-color="#8d8ff8"/><stop offset="1" stop-color="#4042e2"/></linearGradient><linearGradient id="e" x1="-0.974" y1="0.89" x2="0.382" y2="0.523" gradientUnits="objectBoundingBox"><stop offset="0" stop-color="#6869be"/><stop offset="1" stop-color="#5c5ece"/></linearGradient><linearGradient id="f" x1="-0.001" y1="0.5" x2="0.997" y2="0.5" xlink:href="#c"/><linearGradient id="g" x1="326.219" y1="0.149" x2="326.486" y2="0.329" gradientUnits="objectBoundingBox"><stop offset="0" stop-color="#aa80f9"/><stop offset="1" stop-color="#6165d7"/></linearGradient><linearGradient id="h" x1="326.525" y1="0.496" x2="327.491" y2="0.496" xlink:href="#g"/><linearGradient id="i" x1="802.554" y1="0.5" x2="803.551" y2="0.5" gradientUnits="objectBoundingBox"><stop offset="0" stop-color="#40447e"/><stop offset="1" stop-color="#3c3b6b"/></linearGradient><linearGradient id="j" x1="336.575" y1="0.158" x2="336.841" y2="0.333" xlink:href="#g"/><linearGradient id="k" x1="336.879" y1="0.504" x2="337.846" y2="0.504" xlink:href="#g"/><linearGradient id="l" x1="827.98" y1="0.5" x2="828.977" y2="0.5" xlink:href="#i"/><linearGradient id="m" x1="78.933" y1="0.496" x2="79.935" y2="0.496" xlink:href="#i"/><linearGradient id="n" x1="335.296" y1="0.149" x2="335.568" y2="0.329" xlink:href="#g"/><linearGradient id="o" x1="335.613" y1="0.496" x2="336.579" y2="0.496" xlink:href="#g"/><linearGradient id="p" x1="824.871" y1="0.5" x2="825.868" y2="0.5" xlink:href="#i"/><linearGradient id="q" x1="344.262" y1="0.158" x2="344.529" y2="0.333" xlink:href="#g"/><linearGradient id="r" x1="344.568" y1="0.504" x2="345.534" y2="0.504" xlink:href="#g"/><linearGradient id="s" x1="846.908" y1="0.5" x2="847.905" y2="0.5" xlink:href="#i"/></defs><g class="b" transform="translate(-0.316 0)"><g transform="translate(0 1.82)"><path class="c" d="M137.5,102.1c-14.446,31.722-50.785,44.7-79.039,41.764-7.723-.808-23.233-2.425-35.148-14.17-22.85-22.531-18.3-68.55,4.6-95.23,2.957-3.425,23.4-26.424,54.338-25.531a68.253,68.253,0,0,1,40.275,15.51,62.189,62.189,0,0,1,12.4,14.7C145.985,57.229,146.453,82.292,137.5,102.1Z" transform="translate(-6.49 -8.908)"/><path class="d" d="M119.215,93.943a3.4,3.4,0,0,1,2.128-2.574,23.4,23.4,0,0,0,7.766-5.234,20.957,20.957,0,0,0,6.383-15.765,3.34,3.34,0,0,1,1.7-3.191,32.828,32.828,0,0,0,8.872-7.6c7.021-8.51,9.021-18.4,4.447-22.191s-13.957,0-20.978,8.51a32.658,32.658,0,0,0-5.893,10.319,3.4,3.4,0,0,1-3,2.277,21.786,21.786,0,0,0-12.957,6.659,22.617,22.617,0,0,0-2.83,3.425,3.362,3.362,0,0,1-3.191,1.447A22.531,22.531,0,0,0,82.9,76.667a21.088,21.088,0,1,0,30.02,29.552A22.85,22.85,0,0,0,119.215,93.943Z" transform="translate(-21.102 -14.708)"/><path class="e" d="M146.331,50.91c-.808,1.4-1.66,2.766-2.553,4.106s-1.808,2.638-2.766,3.936c-1.894,2.617-3.872,5.127-5.957,7.6s-4.255,4.83-6.383,7.127l-.851.851-.851.851-1.723,1.681-.894.83-.872.808-1.787,1.617-.915.787-.915.787-.915.787-.936.766-.936.745-.468.383-.489.383L114.2,86.419l-.957.7-.979.723-.979.7-.979.681-2,1.362-2.128,1.3c-.34.213-.66.447-1.021.638l-1.021.617-1.043.617-.511.319-.255.149-.277.149-2.128,1.17-.532.3-.255.128-.277.149-1.064.553-1.085.532-.532.277-.553.277-2.128,1L92.4,99.27l-1.106.468-2.234.936h-.149a.106.106,0,0,1,0-.149h0l2.128-.979,1.106-.489c.362-.149.723-.34,1.085-.511L95.355,97.5l.532-.277.532-.277,1.064-.553,1.064-.553.277-.149.255-.149.511-.277,2.128-1.191.34-.234.255-.149.511-.319,1.021-.617,1.043-.638c.34-.191.66-.426,1-.638l2.021-1.319,1.979-1.34.979-.7.979-.7.957-.7.979-.723c2.553-1.936,5-3.979,7.425-6.085a138.8,138.8,0,0,0,13.51-13.723q3.128-3.638,6-7.489c.957-1.3,1.894-2.6,2.787-3.915.234-.319.447-.66.681-1l.66-1a24.447,24.447,0,0,0,1.277-2.128h0a.149.149,0,0,1,.17,0,.17.17,0,0,1,.043.255Z" transform="translate(-23.793 -17.865)"/><path class="d" d="M148.938,116.076a17.893,17.893,0,0,0,4.085-12.446,2.128,2.128,0,0,1,1.064-2,19.68,19.68,0,0,0,5.83-5.085c5.34-6.638,7.681-16.084,3.766-19.148s-12.617,1.191-17.957,7.851A20.381,20.381,0,0,0,142.3,91.2a2.128,2.128,0,0,1-1.894,1.4,17.616,17.616,0,0,0-12.361,6.766,19.531,19.531,0,0,0-2.766,4.617,2.128,2.128,0,0,1-2.489,1.234,17.021,17.021,0,0,0-17.382,5.681,18.191,18.191,0,0,0,28.3,22.744,16.425,16.425,0,0,0,3.574-9.17,2.128,2.128,0,0,1,1.638-1.894,18.34,18.34,0,0,0,10.021-6.51Z" transform="translate(-26.633 -23.394)"/><path class="e" d="M159.677,87.887a32.54,32.54,0,0,1-2.128,3.6c-.808,1.17-1.447,2.34-2.128,3.51-1.532,2.277-3.149,4.532-4.851,6.7a106.717,106.717,0,0,1-11.127,12.276,75.208,75.208,0,0,1-6.383,5.425,72.657,72.657,0,0,1-6.808,4.808l-1.787,1.106-1.808,1.021c-.6.362-1.234.66-1.851.979l-.936.489-.468.234-.468.213-1.915.872c-.319.149-.638.255-.979.383l-.979.4-.979.383-.979.34-2,.66v-.128l1.915-.808.957-.426.936-.447.936-.447c.319-.149.638-.277.936-.447l1.83-.957.468-.234.447-.255.894-.532c.6-.34,1.213-.66,1.787-1.043l1.766-1.085,1.723-1.128.851-.574.83-.6.851-.6.83-.617,1.638-1.234.808-.638.787-.638.808-.66.787-.66,1.574-1.319L137,114.439l1.511-1.383c2-1.872,3.936-3.83,5.808-5.83s3.659-4.064,5.425-6.17,3.447-4.255,5.085-6.383l1.213-1.66,1.191-1.681.6-.851.574-.851c.383-.574.766-1.149,1.128-1.723Z" transform="translate(-28.565 -25.864)"/><path class="d" d="M9.1,92.048a20.4,20.4,0,0,1,1.7-14.893,2.362,2.362,0,0,0-.17-2.574A22.489,22.489,0,0,1,6.99,66.517c-2.4-9.489-.34-20.425,5.234-21.829s12.553,7.255,14.893,16.744a23.638,23.638,0,0,1,.787,7.7,2.425,2.425,0,0,0,1.3,2.34,20.169,20.169,0,0,1,9.638,13,21.85,21.85,0,0,1,.745,6.213,2.425,2.425,0,0,0,2,2.468,19.552,19.552,0,0,1,15.34,14.276C59.6,118.068,52.5,129,41.308,131.685a20.255,20.255,0,0,1-24.722-14.042,18.978,18.978,0,0,1,.66-11.276,2.362,2.362,0,0,0-.787-2.745A20.723,20.723,0,0,1,9.1,92.048Z" transform="translate(-6 -16.557)"/><path class="e" d="M16.851,59.007a39.344,39.344,0,0,0,.426,4.723c.191,1.574.4,3.149.638,4.7.511,3.128,1.106,6.234,1.851,9.3a122.612,122.612,0,0,0,5.744,18.106c1.17,2.957,2.532,5.83,3.957,8.659a88.739,88.739,0,0,0,4.808,8.17l1.255,2.128,1.4,1.936c.468.66.979,1.277,1.468,1.894l.745.936.383.468.383.468,1.574,1.808.83.872.83.872.83.872.872.83,1.766,1.638h.106l-1.532-1.957-.808-.894-.766-.915-.766-.915c-.255-.3-.511-.6-.745-.915l-1.468-1.872-.362-.468-.34-.4-.7-.957c-.447-.638-.936-1.277-1.362-1.936l-1.3-1.957c-.426-.681-.851-1.34-1.255-2.128-.213-.34-.426-.66-.617-1l-.6-1.021-.6-1.021L32.936,108l-1.106-2.128c-.191-.34-.362-.7-.532-1.043l-.532-1.064-.532-1.043-.511-1.064c-.319-.723-.681-1.425-1-2.128l-.936-2.128c-.319-.723-.6-1.447-.915-2.128-1.191-2.915-2.277-5.851-3.276-8.829s-1.872-6-2.7-9.021-1.574-6.085-2.128-9.17c-.17-.766-.319-1.532-.468-2.319l-.532-2.213a7.262,7.262,0,0,0-.213-1.149l-.191-1.17c-.128-.766-.255-1.553-.362-2.34Z" transform="translate(-8.33 -19.664)"/><path class="f" d="M71.052,65.07a.255.255,0,0,1-.277-.255c0-.128-.574-13.6-6.383-18.361A7.085,7.085,0,0,0,58.521,44.9a10.212,10.212,0,0,0-6.532,3.83,18.446,18.446,0,0,0-3.234,6.744,36.339,36.339,0,0,0-1.191,9.34.266.266,0,1,1-.532.021,36.53,36.53,0,0,1,1.191-9.489,19.148,19.148,0,0,1,3.34-6.936,10.808,10.808,0,0,1,6.872-4.042,7.723,7.723,0,0,1,6.383,1.681c2.511,2.128,4.383,5.872,5.553,11.276a48.573,48.573,0,0,1,.957,7.489.277.277,0,0,1-.277.277Z" transform="translate(-14.809 -16.493)"/><path class="g" d="M19.281,126.974l9-62.1,33.807-.553,10.893,66.061H22.2a2.979,2.979,0,0,1-2.915-3.4Z" transform="translate(-8.845 -20.804)"/><path class="h" d="M80.352,64.87,73.8,64.317l10.893,66.061H91.2a2.128,2.128,0,0,0,2.128-2.553Z" transform="translate(-20.556 -20.804)"/><path class="i" d="M38.048,64.9a.255.255,0,0,1-.255-.277,35.3,35.3,0,0,1,1.191-9.468,18.765,18.765,0,0,1,3.34-6.957A10.766,10.766,0,0,1,49.2,44.176a7.659,7.659,0,0,1,6.383,1.66c2.532,2.128,4.4,5.872,5.574,11.276a47.232,47.232,0,0,1,1,7.489.3.3,0,0,1-.255.3.277.277,0,0,1-.277-.277c0-.128-.6-13.6-6.383-18.361a7.17,7.17,0,0,0-5.872-1.553,10.212,10.212,0,0,0-6.532,3.83A18.4,18.4,0,0,0,39.58,55.3a35.573,35.573,0,0,0-1.17,9.3.3.3,0,0,1-.255.3Z" transform="translate(-12.825 -16.45)"/><path class="j" d="M131.732,157.561c0,1.34.83,2.447,1.851,2.447s1.851-1.106,1.851-2.447a1.915,1.915,0,1,0-3.7,0Z" transform="translate(-32.98 -40.306)"/><path class="k" d="M131.081,157.913c0,1.34.83,2.447,1.851,2.447s1.851-1.106,1.851-2.447a1.915,1.915,0,1,0-3.7,0Z" transform="translate(-32.84 -40.381)"/><path class="l" d="M132.452,158.345a.936.936,0,0,0,.787,1.021c.426,0,.766-.447.766-1.021s-.34-1.021-.766-1.021A.936.936,0,0,0,132.452,158.345Z" transform="translate(-33.147 -40.771)"/><path class="m" d="M133.1,154.7v2.681a.723.723,0,0,1-.7.723h0a.745.745,0,0,1-.574-.3l-2.4-3.383Z" transform="translate(-32.497 -40.149)"/><path class="n" d="M106.482,154.84a1.915,1.915,0,1,0,3.7,0c0-1.34-.83-2.447-1.851-2.447S106.482,153.5,106.482,154.84Z" transform="translate(-27.559 -39.713)"/><path class="o" d="M105.831,155.192a1.915,1.915,0,1,0,3.7,0c0-1.34-.83-2.447-1.851-2.447S105.831,153.852,105.831,155.192Z" transform="translate(-27.419 -39.788)"/><path class="p" d="M107.231,155.636c0,.574.34,1.021.766,1.021a1.056,1.056,0,0,0,0-2.042C107.571,154.615,107.231,155.083,107.231,155.636Z" transform="translate(-27.733 -40.19)"/><path class="m" d="M107.85,151.992v2.681a.7.7,0,0,1-.7.7h0a.681.681,0,0,1-.574-.3l-2.4-3.362Z" transform="translate(-27.076 -39.567)"/><path class="m" d="M121.447,142.39a.234.234,0,0,0,.021-.468l-23.4-2.638a3.659,3.659,0,0,1-2.915-2.659l-9.893-36.616a4.468,4.468,0,0,0-4.021-3.3l-7.127-.425a.234.234,0,0,0-.255.213.277.277,0,0,0,.234.255l7.127.426a4,4,0,0,1,3.6,2.957l9.766,36.616a4.255,4.255,0,0,0,3.362,3.064l23.4,2.659Z" transform="translate(-20.568 -27.667)"/><path class="m" d="M113.727,131.234a.277.277,0,0,0,.234-.17l5.532-19.361a.255.255,0,0,0-.17-.277.213.213,0,0,0-.277.149l-5.532,19.361a.234.234,0,0,0,.149.277Z" transform="translate(-29.081 -30.915)"/><path class="m" d="M106.407,130.255a.213.213,0,0,0,.213-.17l3.4-19.084a.213.213,0,0,0-.17-.277.234.234,0,0,0-.277.191l-3.4,19.148a.213.213,0,0,0,.191.255Z" transform="translate(-27.505 -30.766)"/><path class="m" d="M101.7,129.5h0a.213.213,0,0,0,.213-.234l-.787-18.957a.234.234,0,0,0-.234-.234.213.213,0,0,0-.213.234l.787,18.978a.234.234,0,0,0,.234.213Z" transform="translate(-26.326 -30.628)"/><path class="m" d="M123.4,132.128a.234.234,0,0,0,.213-.17l6.383-19.34a.234.234,0,0,0-.149-.3.213.213,0,0,0-.277.149l-6.489,19.34a.234.234,0,0,0,.149.3Z" transform="translate(-31.133 -31.107)"/><path class="q" d="M52.809,98.085h0l16.34-1.319a.447.447,0,0,0,.426-.489.468.468,0,0,0-.511-.426l-16.3,1.319a.447.447,0,0,0-.426.489A.489.489,0,0,0,52.809,98.085Z" transform="translate(-15.949 -27.573)"/><path class="r" d="M109.6,166.013c0,1.362.83,2.447,1.851,2.447s1.851-1.085,1.851-2.447a1.915,1.915,0,1,0-3.7,0Z" transform="translate(-28.228 -42.121)"/><path class="s" d="M108.92,166.365c0,1.362.83,2.447,1.851,2.447s1.851-1.085,1.851-2.447a1.915,1.915,0,1,0-3.7,0Z" transform="translate(-28.082 -42.196)"/><path class="t" d="M110.319,166.825c0,.553.34,1.021.766,1.021a.936.936,0,0,0,.787-1.021c0-.574-.34-1.021-.787-1.021S110.319,166.251,110.319,166.825Z" transform="translate(-28.396 -42.592)"/><path class="u" d="M110.96,163.2v2.659a.723.723,0,0,1-.723.723h0a.7.7,0,0,1-.574-.3l-2.4-3.3Z" transform="translate(-27.739 -41.987)"/><path class="v" d="M87.734,163.834a1.915,1.915,0,1,0,3.7,0c0-1.362-.83-2.447-1.851-2.447S87.734,162.473,87.734,163.834Z" transform="translate(-23.534 -41.644)"/><path class="w" d="M87.084,164.187a1.915,1.915,0,1,0,3.7,0c0-1.362-.83-2.447-1.851-2.447S87.084,162.825,87.084,164.187Z" transform="translate(-23.394 -41.719)"/><path class="x" d="M88.454,164.631a.936.936,0,0,0,.787,1.021c.426,0,.766-.468.766-1.021s-.34-1.021-.766-1.021A.936.936,0,0,0,88.454,164.631Z" transform="translate(-23.701 -42.121)"/><path class="u" d="M89.1,161v2.681a.723.723,0,0,1-.723.7h0a.745.745,0,0,1-.574-.3l-2.4-3.3Z" transform="translate(-23.045 -41.516)"/><path class="m" d="M127.516,112.514a.213.213,0,0,0,.234-.213.234.234,0,0,0-.213-.255l-41.807-3h0L68.433,112a.234.234,0,1,0,0,.447l17.3-2.936,41.786,3Z" transform="translate(-19.339 -30.407)"/><path class="u" d="M113.32,117.673h0l14.212-4.255a.277.277,0,0,0,.149-.3.234.234,0,0,0-.3-.149l-14.148,4.255-44.871-4.255a.213.213,0,0,0-.255.191.234.234,0,0,0,.213.255l44.913,4.383Z" transform="translate(-19.334 -31.247)"/><path class="m" d="M75.34,137.543h0l17.021-2.617,26.02,2.447a.225.225,0,1,0,.043-.447l-25.978-2.468h0l-17.021,2.617a.234.234,0,0,0-.191.277.255.255,0,0,0,.106.191Z" transform="translate(-20.863 -35.862)"/><path class="u" d="M106.177,137.015a.213.213,0,0,0,.213-.128L114.9,118.7a.218.218,0,0,0-.3-.319l-8.51,18.063-30.765-2.83a.255.255,0,0,0-.255.213.234.234,0,0,0,.213.255l30.871,2.936Z" transform="translate(-20.829 -32.399)"/><path class="u" d="M114.624,135.826h0l12.255-3.106a.213.213,0,0,0,.128-.106l10.638-19.467a.213.213,0,0,0,0-.3.234.234,0,0,0-.319,0L126.687,132.21,114.6,135.252a.293.293,0,0,0,.021.574Z" transform="translate(-29.276 -31.21)"/><path class="u" d="M110.782,126.122h0l13.382-3.915a.213.213,0,0,0,.213-.34.234.234,0,0,0-.277-.17l-13.34,4-39.552-3.447a.234.234,0,0,0-.255.213.213.213,0,0,0,.213.234l39.594,3.425Z" transform="translate(-19.945 -33.121)"/><path class="u" d="M108.062,135.057h0l12.765-3.6a.232.232,0,0,0-.128-.447l-12.765,3.574-34.254-3a.234.234,0,0,0,0,.468l34.4,3Z" transform="translate(-20.48 -35.121)"/><path class="u" d="M106.6,136.2a.213.213,0,0,0,.213-.17l5.51-18.446a.234.234,0,0,0-.128-.277.213.213,0,0,0-.277.149l-5.532,18.361a.191.191,0,0,0,.149.277Z" transform="translate(-27.547 -32.177)"/><path class="u" d="M98.849,135.383a.255.255,0,0,0,.234-.191l3.3-18.765a.213.213,0,0,0-.191-.255.234.234,0,0,0-.17.255l-3.4,18.68a.255.255,0,0,0,.191.277Z" transform="translate(-25.883 -31.936)"/><path class="u" d="M90.125,134.433a.213.213,0,0,0,.213-.213l1.043-18.552a.234.234,0,0,0-.213-.255.213.213,0,0,0-.234.213L89.891,134.2a.213.213,0,0,0,.213.234Z" transform="translate(-24.011 -31.773)"/><path class="u" d="M81.562,133.444h0a.255.255,0,0,0,.213-.255l-1-18.85a.234.234,0,0,0-.447,0l.979,18.872a.255.255,0,0,0,.255.234Z" transform="translate(-21.958 -31.508)"/><path class="u" d="M119.342,135.691a.234.234,0,0,0,.191-.149l8.893-18.467a.213.213,0,0,0-.106-.3.234.234,0,0,0-.319,0l-8.808,18.638a.234.234,0,0,0,0,.277Z" transform="translate(-30.292 -32.053)"/><path class="u" d="M125.615,134.068a.213.213,0,0,0,.191-.128l9.446-18.893a.238.238,0,0,0-.426-.213L125.4,133.749a.213.213,0,0,0,.106.3Z" transform="translate(-31.629 -31.621)"/><path class="u" d="M99.319,149.694h0l17.574-6.978a.213.213,0,0,0,.128-.3.234.234,0,0,0-.3-.128l-17.51,6.957-21.276-2.6a3.957,3.957,0,0,1-3.362-2.915L63.044,101.526a4.532,4.532,0,0,0-4-3.276l-6.17-.447a.213.213,0,0,0-.234.213.234.234,0,0,0,.213.255l6.17.447a4.021,4.021,0,0,1,3.574,2.936l11.617,42.19a4.447,4.447,0,0,0,3.745,3.234l21.276,2.617Z" transform="translate(-16.013 -27.992)"/></g></g></svg>